<?xml version="1.0" standalone="no"?>
<!DOCTYPE svg PUBLIC "-//W3C//DTD SVG 1.1//EN" "http://www.w3.org/Graphics/SVG/1.1/DTD/svg11.dtd" >
<svg xmlns="http://www.w3.org/2000/svg" xmlns:xlink="http://www.w3.org/1999/xlink" version="1.1">
<metadata>
Created by FontForge 20201107 at Thu Oct 21 09:39:27 2021
 By 
(c) 2011 Microsoft Corporation. All Rights Reserved.
</metadata>
<defs>
<font id="SVN-GeorgiaPro-BoldItalic" horiz-adv-x="1024" >
  <font-face 
    font-family="SVN-Georgia Pro"
    font-weight="700"
    font-style="italic"
    font-stretch="normal"
    units-per-em="2048"
    panose-1="2 4 8 2 5 4 5 9 2 3"
    ascent="1638"
    descent="-410"
    x-height="985"
    cap-height="1419"
    bbox="-496 -621 2775 2265"
    underline-thickness="121"
    underline-position="-240"
    slope="-13"
    unicode-range="U+0020-FB04"
  />
<missing-glyph horiz-adv-x="2048" 
d="M256 0v1536h1536v-1536h-1536zM385 129h1280v1280h-1280v-1280z" />
    <glyph glyph-name="f_f" unicode="ff" horiz-adv-x="1470" 
d="M1583 971l-24 -103h-248q-42 -218 -79 -392.5t-70 -309.5q-64 -267 -243 -422q-178 -154 -364 -154q-258 0 -287 156q-184 -190 -413 -190q-289 0 -289 192q0 33 11.5 60t31.5 46.5t48 30.5t60 11q133 0 210 -180l34 -78q87 92 150 385l178 845h-195l25 103h192l11 49
q15 65 45 126t72.5 115t95.5 99t113.5 77t126 50t132.5 18q256 0 283 -147q188 194 414 194q286 0 286 -188q0 -33 -12 -60.5t-32.5 -48t-48.5 -32t-60 -11.5q-130 0 -206 181l-34 77q-77 -82 -143 -385l-25 -114h254zM1018 1049q12 56 41 116h-19q-129 0 -205 181l-34 77
q-82 -82 -144 -366l-18 -86h362zM418 -70q141 0 244 -258q83 88 151 408l166 788h-358q-169 -867 -224 -938h21z" />
    <glyph glyph-name="fi" unicode="fi" horiz-adv-x="1438" 
d="M956 760q2 11 3.5 21.5t1.5 21.5q0 47 -35 65h-305q-54 -278 -96 -474t-73 -315q-62 -237 -234 -379q-172 -144 -363 -144q-289 0 -289 192q0 33 11.5 60t31.5 46.5t48 30.5t60 11q133 0 210 -180l34 -78q87 92 150 385l178 845h-195l25 103h192l42 135q18 57 58 122
t106 126q100 92 224 143t275 51q348 0 348 -209q0 -40 -14 -71t-38.5 -52.5t-58 -33t-71.5 -11.5q-196 0 -205 285q-240 -25 -318 -395l-18 -90h430l254 28l12 -14l-143 -623q-27 -118 -27 -149q0 -28 6 -47t19.5 -30t36 -16t55.5 -5q49 0 123 28l-23 -90q-201 -80 -294 -80
q-48 0 -93.5 12t-81 37.5t-56.5 64.5t-21 93q0 68 20 154z" />
    <glyph glyph-name="fl" unicode="fl" horiz-adv-x="1475" 
d="M639 971h254l-25 -103h-247q-54 -278 -96 -474t-73 -315q-62 -237 -234 -379q-172 -144 -363 -144q-289 0 -289 192q0 33 11.5 60t31.5 46.5t48 30.5t60 11q133 0 210 -180l34 -78q87 92 150 385l178 845h-195l25 103h192l8 33q31 128 96 229t157 171t207 107t245 37
q153 0 303 -43l158 43l10 -16l-268 -1170q-27 -118 -27 -149q0 -57 29.5 -77.5t95.5 -20.5q60 0 129 28l-22 -90q-195 -80 -306 -80q-48 0 -94 12t-82 37.5t-58 64.5t-22 93q0 51 21 154l215 930q6 26 6 65q0 24 -8 46.5t-23 40.5t-36 29t-46 11q-259 0 -342 -399z" />
    <glyph glyph-name="f_f_i" unicode="ffi" horiz-adv-x="2128" 
d="M1311 868q-42 -218 -79 -392.5t-70 -309.5q-64 -267 -243 -422q-178 -154 -364 -154q-258 0 -287 156q-184 -190 -413 -190q-289 0 -289 192q0 33 11.5 60t31.5 46.5t48 30.5t60 11q133 0 210 -180l34 -78q87 92 150 385l178 845h-195l25 103h192l11 49q15 65 45 126
t72.5 115t95.5 99t113.5 77t126 50t132.5 18q269 0 285 -166q209 209 514 209q348 0 348 -209q0 -40 -14 -71t-38.5 -52.5t-58 -33t-71.5 -11.5q-196 0 -205 285q-242 -29 -317 -395l-19 -90h430l254 28l13 -14l-144 -623q-13 -57 -19.5 -93.5t-6.5 -55.5q0 -27 5 -45.5
t18.5 -30.5t36 -17t56.5 -5q49 0 123 28l-22 -90q-201 -80 -295 -80q-48 0 -93.5 12t-81 37.5t-56.5 64.5t-21 93q0 68 20 154l99 426q4 15 4 43q0 47 -35 65h-305zM639 971h362l11 35q18 58 33 98t26 63l-16 -2q-136 -16 -220 181l-34 77q-82 -82 -144 -366zM418 -70
q141 0 244 -258q83 88 151 408l166 788h-358q-169 -867 -224 -938h21z" />
    <glyph glyph-name="f_f_l" unicode="ffl" horiz-adv-x="2165" 
d="M1311 868q-42 -218 -79 -392.5t-70 -309.5q-64 -267 -243 -422q-178 -154 -364 -154q-258 0 -287 156q-184 -190 -413 -190q-289 0 -289 192q0 33 11.5 60t31.5 46.5t48 30.5t60 11q133 0 210 -180l34 -78q87 92 150 385l178 845h-195l25 103h192l11 49q15 65 45 126
t72.5 115t95.5 99t113.5 77t126 50t132.5 18q267 0 285 -162q212 205 522 205q153 0 303 -43l158 43l10 -16l-268 -1170q-27 -118 -27 -149q0 -57 29.5 -77.5t95.5 -20.5q60 0 129 28l-22 -90q-195 -80 -305 -80q-48 0 -94 12t-82 37.5t-58 64.5t-22 93t20 154l215 930
q6 26 6 65q0 23 -8 46t-23 41t-35.5 29t-45.5 11q-259 0 -342 -399l-19 -86h254l-24 -103h-248zM1010 1004q31 114 57 163l-13 -2q-60 -9 -118.5 37.5t-100.5 143.5l-34 77q-82 -82 -144 -366l-18 -86h362zM979 868h-358q-169 -867 -224 -938h21q141 0 244 -258
q90 99 151 408z" />
    <glyph glyph-name="f_j" unicode="fj" horiz-adv-x="1397" 
d="M1163 195q-62 -324 -238 -464q-177 -141 -368 -141q-263 0 -285 160q-189 -194 -417 -194q-289 0 -289 192q0 33 11.5 60t31.5 46.5t48 30.5t60 11q133 0 210 -180l34 -78q87 92 150 385l178 845h-195l25 103h192l42 135q18 57 58 122t106 126q100 92 224 143t275 51
q348 0 348 -209q0 -40 -14 -71t-38.5 -52.5t-58 -33t-71.5 -11.5q-196 0 -205 285q-240 -25 -318 -395l-18 -90h430l254 28l12 -14l-94 -407l-37 -191l-39 -180q0 -16 -4 -12zM621 868q-169 -867 -224 -938h27q141 0 244 -258q59 97 99 234q41 137 108 483q69 348 69 385
q0 78 -61 94h-262z" />
    <glyph glyph-name=".notdef" horiz-adv-x="2048" 
d="M256 0v1536h1536v-1536h-1536zM385 129h1280v1280h-1280v-1280z" />
    <glyph glyph-name=".null" horiz-adv-x="0" 
 />
    <glyph glyph-name="uni000D" horiz-adv-x="1358" 
 />
    <glyph glyph-name="space" unicode=" " horiz-adv-x="520" 
 />
    <glyph glyph-name="space" unicode="&#xa0;" horiz-adv-x="520" 
 />
    <glyph glyph-name="exclam" unicode="!" horiz-adv-x="770" 
d="M342 463q7 125 10 245t3 239q0 240 9 310t73 130q64 61 163 61q32 0 60.5 -10t50 -28.5t34.5 -45t13 -59.5q0 -43 -19 -94q-10 -26 -33.5 -80t-61.5 -138q-59 -128 -114.5 -259.5t-109.5 -270.5h-78zM317 -29q-39 0 -73.5 14t-61 39t-42 59t-15.5 73t15.5 73t42 59
t61.5 39.5t73 14.5t73 -14.5t61.5 -39.5t42.5 -59t16 -73t-16 -73t-42.5 -59t-61.5 -39t-73 -14z" />
    <glyph glyph-name="quotedbl" unicode="&#x22;" horiz-adv-x="1044" 
d="M326 823q0 85 -1.5 158.5t-3.5 139.5q-6 131 -6 194q0 44 14 83t40 68.5t62.5 46.5t82.5 17q33 0 59 -9.5t45 -26.5t29 -39t10 -48q0 -59 -162 -367q-54 -101 -104 -217h-65zM799 823q0 85 -1.5 158.5t-3.5 139.5q-6 131 -6 194q0 44 14 83t40 68.5t62.5 46.5t82.5 17
q33 0 59 -9.5t45 -26.5t29 -39t10 -48q0 -59 -162 -367q-54 -101 -104 -217h-65z" />
    <glyph glyph-name="numbersign" unicode="#" horiz-adv-x="1440" 
d="M1067 748l-100 -256h272v-160h-336l-129 -332h-149l131 332h-232l-129 -332h-149l131 332h-207v160h268l101 256h-275v159h336l135 342h150l-135 -342h231l133 342h150l-136 -342h207v-159h-268zM686 750l-100 -261h231l103 261h-234z" />
    <glyph glyph-name="dollar" unicode="$" horiz-adv-x="1313" 
d="M612 520q-397 58 -397 332q0 164 149 301q149 136 420 154l50 217h100l-49 -217q397 -22 397 -277q0 -36 -10.5 -66t-30.5 -51.5t-48.5 -34t-64.5 -12.5q-78 0 -119.5 42.5t-41.5 111.5q0 57 41 168q-75 34 -142 35l-92 -416q418 -69 418 -348q0 -197 -163 -327
q-162 -129 -435 -150l-64 -281h-98l62 281q-201 4 -323 95q-122 90 -122 218q0 36 11.5 67t32.5 53.5t51 35t67 12.5q36 0 67 -11t54 -32t36 -50.5t13 -66.5q0 -58 -45 -178q87 -57 176 -59zM768 1223q-148 -13 -222.5 -73t-74.5 -151q0 -155 207 -184zM610 66
q326 30 326 245q0 169 -227 201z" />
    <glyph glyph-name="percent" unicode="%" horiz-adv-x="1800" 
d="M188 1026q0 185 136 309q137 125 321 125q71 0 133 -21t108 -61.5t72.5 -99t26.5 -133.5q0 -94 -37.5 -173.5t-101 -137t-146.5 -89.5t-174 -32q-71 0 -132.5 21t-107.5 61.5t-72 98.5t-26 132zM293 0h-156l1450 1427h158zM633 1389q-84 0 -138 -127q-53 -129 -53 -316
q0 -164 101 -164q80 0 132 123q54 125 54 314q0 170 -96 170zM895 281q0 94 37.5 173.5t100.5 137t146.5 89.5t174.5 32q72 0 134 -21.5t107 -62t71 -99t26 -133.5q0 -94 -37 -173.5t-100 -137t-145.5 -89.5t-174.5 -32q-72 0 -134 21.5t-108 62t-72 99t-26 133.5zM1339 641
q-84 0 -136 -127q-52 -126 -52 -313q0 -164 98 -164q79 0 134 121q55 120 55 313q0 170 -99 170z" />
    <glyph glyph-name="ampersand" unicode="&#x26;" horiz-adv-x="1636" 
d="M942 0q-30 45 -53.5 81.5t-40.5 65.5q-233 -182 -463 -182q-72 0 -138.5 18.5t-118.5 56t-83 95.5t-31 137q0 321 465 496q-96 168 -96 279q0 97 40.5 173t107.5 128.5t152 80t175 27.5q54 0 110.5 -11.5t102.5 -38.5t75.5 -71t29.5 -108q0 -225 -351 -402
q87 -153 242 -397q86 89 147 189q62 101 62 137q0 41 -158 73l17 72h559l-17 -72q-143 -15 -194 -49q-52 -33 -174 -188q-121 -154 -199 -232q107 -165 174 -216q68 -51 260 -66l-16 -76h-586zM793 893q54 32 95.5 70t70 80.5t43 87t14.5 88.5q0 143 -135 143q-40 0 -74 -15
t-59 -41t-38.5 -60.5t-13.5 -74.5q0 -96 97 -278zM512 702q-164 -131 -164 -317q0 -56 18 -101t50.5 -77t78.5 -49t101 -17q110 0 213 72z" />
    <glyph glyph-name="quotesingle" unicode="'" horiz-adv-x="551" 
d="M315 823q0 76 -1.5 150t-3.5 148q-2 75 -3.5 123t-1.5 71q0 44 14 83t40 68.5t62.5 46.5t82.5 17q66 0 104.5 -34.5t38.5 -88.5q0 -51 -69 -188l-112 -217q-25 -49 -45.5 -93t-37.5 -86h-68z" />
    <glyph glyph-name="parenleft" unicode="(" horiz-adv-x="915" 
d="M668 -328q-137 19 -244.5 75.5t-181 143.5t-112 202.5t-38.5 252.5q0 468 282 796q282 329 693 390l-20 -90q-269 -52 -451 -413q-180 -360 -180 -793q0 -424 270 -476z" />
    <glyph glyph-name="parenright" unicode=")" horiz-adv-x="915" 
d="M-104 -238q268 52 449 413t181 794q0 423 -270 475l18 88q137 -19 244 -75.5t180.5 -144t112.5 -202.5t39 -252q0 -469 -282 -796q-280 -327 -693 -390z" />
    <glyph glyph-name="asterisk" unicode="*" horiz-adv-x="987" 
d="M678 1053q42 -55 78 -93q40 -42 64 -69t34 -41q20 -28 20 -55q0 -17 -8 -32t-21 -26t-29 -17.5t-32 -6.5q-35 0 -58 27q-22 30 -47 119q-28 100 -54 163q-14 -33 -28 -73.5t-28 -89.5q-25 -88 -47 -118q-21 -28 -59 -28q-16 0 -32 6.5t-29 18t-21 26.5t-8 31q0 28 19 54
q10 14 35 41.5t65 69.5q18 19 37.5 42t41.5 51q-63 -6 -230 -49q-24 -7 -40 -7q-90 0 -90 86t90 86q15 0 40 -6q90 -21 147 -33t83 -14q-22 28 -41.5 51t-37.5 42q-81 84 -99 109q-20 29 -20 54q0 17 8 31.5t21 26t29 18t32 6.5q39 0 59 -26q21 -27 47 -118q14 -49 28 -89.5
t28 -73.5q26 63 54 163q27 94 47 119q21 25 58 25q16 0 32 -6.5t29 -18t21 -26t8 -31.5q0 -27 -19 -55q-10 -14 -34 -40.5t-64 -67.5q-18 -19 -37.5 -42t-41.5 -51q25 2 82 14t148 33q26 6 38 6q90 0 90 -86t-90 -86q-15 0 -99 22q-51 13 -93 21.5t-76 12.5z" />
    <glyph glyph-name="plus" unicode="+" horiz-adv-x="1440" 
d="M801 494v-474h-164v474h-473v161h473v473h164v-473h473v-161h-473z" />
    <glyph glyph-name="comma" unicode="," horiz-adv-x="672" 
d="M43 -317q258 118 311 317h-59q-180 0 -180 139q0 41 17.5 77.5t46 64t66 43.5t77.5 16q190 0 190 -209q0 -148 -120 -290q-119 -144 -316 -230z" />
    <glyph glyph-name="hyphen" unicode="-" horiz-adv-x="776" 
d="M66 434l49 219h606l-49 -219h-606z" />
    <glyph glyph-name="hyphen" unicode="&#xad;" horiz-adv-x="776" 
d="M66 434l49 219h606l-49 -219h-606z" />
    <glyph glyph-name="period" unicode="." horiz-adv-x="672" 
d="M307 -29q-41 0 -77 15t-63 41.5t-42.5 62t-15.5 76.5t16 76.5t43 62t63 42t76 15.5t76 -15.5t63 -42.5t42.5 -62.5t15.5 -75.5q0 -41 -15.5 -76.5t-42.5 -62t-62.5 -41.5t-76.5 -15z" />
    <glyph glyph-name="slash" unicode="/" horiz-adv-x="967" 
d="M35 -424h-185l1033 1948h184z" />
    <glyph glyph-name="zero" unicode="0" horiz-adv-x="1333" 
d="M799 1444q489 0 489 -535q0 -358 -198 -649t-519 -291q-239 0 -362 137.5t-123 399.5q0 382 204 659q204 279 509 279zM559 59q157 0 278 361q121 360 121 706q0 230 -135 230q-166 0 -285 -371q-118 -369 -118 -688q0 -238 139 -238z" />
    <glyph glyph-name="one" unicode="1" horiz-adv-x="1333" 
d="M137 76q198 10 243 40q44 30 58 87l226 975h-263l21 96h63q244 0 412 176h176l-82 -309l-213 -928q-4 -17 -4 -33q0 -56 60.5 -78t181.5 -26l-17 -76h-878z" />
    <glyph glyph-name="two" unicode="2" horiz-adv-x="1333" 
d="M274 291h869l-68 -291h-1095l49 221q105 118 473 340q100 60 168.5 117t106.5 113q77 113 77 284q0 279 -188 279q-79 0 -154 -35q43 -119 43 -182q0 -36 -12.5 -66.5t-36 -52t-56 -33.5t-71.5 -12q-37 0 -67.5 12.5t-52 35t-33 53t-11.5 67.5q0 123 145 214
q146 93 371 93q89 0 177.5 -17.5t160 -59t116 -111.5t44.5 -175q0 -158 -92 -270q-91 -111 -400 -256q-325 -152 -458 -252z" />
    <glyph glyph-name="three" unicode="3" horiz-adv-x="1333" 
d="M847 754q66 -3 128 -20t110 -51t77 -87t29 -127q0 -216 -208 -357t-510 -141q-203 0 -328 86q-125 87 -125 213q0 37 12.5 67.5t35 53t53 35t67.5 12.5q81 0 128.5 -43.5t47.5 -115.5q0 -69 -45 -183q70 -32 131 -32q150 0 254 119q105 120 105 323q0 182 -199 182h-127
l27 117h90q83 0 143 30t99 81.5t58 119.5t19 144q0 176 -176 176q-83 0 -172 -43q3 -11 6 -21.5t7 -20.5q28 -81 28 -136q0 -73 -46.5 -116.5t-127.5 -43.5q-37 0 -67.5 12.5t-52 35t-33 53t-11.5 67.5q0 117 164 212t391 95q229 0 344 -82q117 -82 117 -213
q0 -126 -113 -234q-112 -107 -325 -151z" />
    <glyph glyph-name="four" unicode="4" horiz-adv-x="1333" 
d="M1032 358l-82 -358h-336l82 358h-659l47 205l922 875h278l-197 -848h216l-56 -232h-215zM887 1178l-619 -588h484z" />
    <glyph glyph-name="five" unicode="5" horiz-adv-x="1333" 
d="M338 82q63 -18 135 -18q119 0 228 136q110 137 110 341q0 57 -15 102.5t-43.5 77t-69 48.5t-91.5 17q-134 0 -289 -141l-73 27l256 745h845l-63 -274h-764l-109 -338q167 102 338 102q85 0 166 -20.5t144.5 -64.5t102 -112.5t38.5 -164.5q0 -242 -201 -409
q-199 -165 -475 -165q-196 0 -333 86q-136 85 -136 209q0 36 13 67t35.5 53.5t53 35t66.5 12.5q81 0 128.5 -44t47.5 -116q0 -61 -45 -192z" />
    <glyph glyph-name="six" unicode="6" horiz-adv-x="1333" 
d="M1199 1360l-110 -19q-67 -11 -141 -48t-158 -100q-166 -124 -265 -411q160 131 383 131q78 0 143 -27t111.5 -75t72.5 -113.5t26 -142.5q0 -243 -195 -417q-194 -173 -473 -173q-107 0 -197.5 31t-156 90t-102 145t-36.5 197q0 395 297 684q296 289 795 346zM497 666
q-43 -159 -43 -338q0 -37 6 -85.5t23 -92t48 -73.5t80 -30q112 0 195 146q84 147 84 358q0 39 -9.5 79t-30 72.5t-53 53t-77.5 20.5q-131 0 -223 -110z" />
    <glyph glyph-name="seven" unicode="7" horiz-adv-x="1333" 
d="M375 -20h-164l932 1140h-559q-152 0 -211 -34q-59 -33 -119 -191h-74l123 522h1137l-29 -119z" />
    <glyph glyph-name="eight" unicode="8" horiz-adv-x="1333" 
d="M456 688q-230 116 -230 330q0 186 185 314t452 128q205 0 332 -85t127 -220q0 -259 -371 -364q305 -119 305 -338q0 -211 -199 -350q-200 -140 -503 -140q-231 0 -370 92q-138 93 -138 240q0 303 410 393zM886 825q21 33 40 77t33 91t22.5 94.5t8.5 86.5q0 46 -11.5 83.5
t-33 63.5t-51.5 40.5t-68 14.5q-54 0 -100 -22t-79.5 -58.5t-52 -84.5t-18.5 -101q0 -43 16.5 -76t43.5 -58.5t60.5 -45.5t67.5 -37q28 -15 58.5 -32t63.5 -36zM521 653q-139 -154 -139 -360q0 -57 15 -102.5t43.5 -77.5t69 -49t91.5 -17q64 0 119 21t96 59.5t64.5 92
t23.5 118.5q0 77 -55 128q-28 26 -72 53.5t-105 56.5q-35 17 -72.5 36t-78.5 41z" />
    <glyph glyph-name="nine" unicode="9" horiz-adv-x="1333" 
d="M176 70l111 18q123 19 296 141q172 121 273 410q-167 -133 -383 -133q-80 0 -145.5 29.5t-112 80.5t-71.5 119t-25 146q0 237 193 406t472 169q108 0 199 -31.5t156.5 -91.5t102 -147.5t36.5 -198.5q0 -395 -292 -672q-290 -276 -804 -344zM895 798q33 143 33 293
q0 36 -6 84.5t-23 92t-47.5 74t-79.5 30.5q-115 0 -198 -143t-83 -351q0 -38 8 -80t27.5 -77t51 -57.5t77.5 -22.5q134 0 230 111z" />
    <glyph glyph-name="colon" unicode=":" horiz-adv-x="752" 
d="M477 604q-41 0 -77 15t-63 41.5t-42.5 62t-15.5 76.5t16 76.5t43 62t63 42t76 15.5t76 -15.5t63 -42.5t42.5 -62.5t15.5 -75.5q0 -41 -15.5 -76.5t-42.5 -62t-62.5 -41.5t-76.5 -15zM338 -29q-41 0 -77 15t-63 41.5t-43 62t-16 76.5t16 76.5t43 62t63.5 42t76.5 15.5
q39 0 75 -15.5t63 -42.5t43 -62.5t16 -75.5t-16 -75.5t-43 -62t-62.5 -42t-75.5 -15.5z" />
    <glyph glyph-name="semicolon" unicode=";" horiz-adv-x="752" 
d="M477 604q-41 0 -77 15t-63 41.5t-42.5 62t-15.5 76.5t16 76.5t43 62t63 42t76 15.5t76 -15.5t63 -42.5t42.5 -62.5t15.5 -75.5q0 -41 -15.5 -76.5t-42.5 -62t-62.5 -41.5t-76.5 -15zM74 -317q258 118 311 317h-59q-183 0 -183 139q0 41 17.5 77.5t46 64t66 43.5t77.5 16
q191 0 191 -209q0 -148 -119 -291q-120 -144 -318 -229z" />
    <glyph glyph-name="semicolon" unicode="&#x37e;" horiz-adv-x="752" 
d="M477 604q-41 0 -77 15t-63 41.5t-42.5 62t-15.5 76.5t16 76.5t43 62t63 42t76 15.5t76 -15.5t63 -42.5t42.5 -62.5t15.5 -75.5q0 -41 -15.5 -76.5t-42.5 -62t-62.5 -41.5t-76.5 -15zM74 -317q258 118 311 317h-59q-183 0 -183 139q0 41 17.5 77.5t46 64t66 43.5t77.5 16
q191 0 191 -209q0 -148 -119 -291q-120 -144 -318 -229z" />
    <glyph glyph-name="less" unicode="&#x3c;" horiz-adv-x="1440" 
d="M231 506v139l1000 500v-189l-787 -381l787 -380v-189z" />
    <glyph glyph-name="equal" unicode="=" horiz-adv-x="1440" 
d="M207 700v162h1071v-162h-1071zM207 287v162h1071v-162h-1071z" />
    <glyph glyph-name="greater" unicode="&#x3e;" horiz-adv-x="1440" 
d="M254 6v189l784 380l-784 381v189l999 -500v-139z" />
    <glyph glyph-name="question" unicode="?" horiz-adv-x="1122" 
d="M496 432h-86l75 389q93 7 165.5 33.5t122 70.5t75.5 104t26 134q0 203 -194 203q-80 0 -141 -43q30 -93 30 -158q0 -72 -45.5 -112.5t-126.5 -40.5q-37 0 -66.5 11t-50 31.5t-31.5 48t-11 60.5q0 120 140 204q139 85 343 85q189 0 310 -100q122 -101 122 -258
q0 -218 -170 -361q-171 -144 -459 -166zM406 -29q-39 0 -74 14t-61.5 38.5t-42 58.5t-15.5 74t15.5 74t42 59t61.5 39t74 14q38 0 72.5 -14.5t61 -40t42.5 -59t16 -72.5t-15.5 -73t-42 -58.5t-61.5 -39t-73 -14.5z" />
    <glyph glyph-name="at" unicode="@" horiz-adv-x="1980" 
d="M1075 248q-106 -127 -237 -127q-64 0 -112.5 21t-81.5 58t-49.5 88.5t-16.5 112.5q0 208 156 389q157 181 358 181q126 0 157 -99h2l31 86h258l-201 -555q-20 -57 -20 -110q0 -88 74 -88q156 0 252 142q96 143 96 380q0 246 -165 397q-164 152 -450 152q-303 0 -529 -223
t-226 -564q0 -337 187 -527q188 -191 497 -191q317 0 538 170l39 -62q-251 -203 -583 -203q-364 0 -618 219q-253 219 -253 582q0 369 273 634q272 265 686 265q336 0 523 -187q189 -187 189 -472q0 -251 -142 -426q-141 -176 -353 -176q-222 0 -273 133h-6zM1208 760
q-8 125 -104 125t-179 -161q-81 -160 -81 -347q0 -141 82 -141q69 0 131 83z" />
    <glyph glyph-name="A" unicode="A" horiz-adv-x="1552" 
d="M1491 0h-760l19 74q217 15 217 65q0 26 -6 60l-52 278h-487q-174 -268 -174 -325q0 -62 190 -78l-16 -74h-596l16 74q166 11 240 101q38 46 243.5 362.5t579.5 902.5h199l182 -1047q19 -106 32 -166t21 -76q17 -31 56.5 -51.5t111.5 -25.5zM805 1087l-324 -516h412z" />
    <glyph glyph-name="B" unicode="B" horiz-adv-x="1554" 
d="M1026 1419q498 0 498 -258q0 -292 -457 -391l-2 -18q90 -10 161 -36t120 -65t74.5 -90.5t25.5 -114.5q0 -218 -184.5 -332t-540.5 -114h-776l16 74q19 0 48.5 2.5t59.5 8t56 15.5t38 25q26 32 36 70l227 993q5 22 7.5 36t2.5 19q0 78 -180 103l16 73h754zM690 795h68
q81 0 149 23t117.5 67.5t77.5 109t28 148.5q0 190 -227 190q-24 0 -46 -1t-42 -3zM549 174q-5 -23 43 -56q50 -32 131 -32q138 0 234 110t96 273q0 238 -293 238q-28 0 -50.5 -1.5t-39.5 -3.5z" />
    <glyph glyph-name="C" unicode="C" horiz-adv-x="1464" 
d="M1411 356q-252 -395 -690 -395q-136 0 -252.5 39.5t-201.5 115t-133 186t-48 251.5q0 366 263 635q262 268 646 268q44 0 100 -6t113 -17.5t110.5 -28.5t90.5 -40l76 55h86l-111 -518h-88q-7 84 -30.5 167t-68.5 149.5t-113.5 107.5t-166.5 41q-230 0 -373 -255
q-143 -254 -143 -593q0 -86 21 -162.5t65 -134.5t111.5 -91.5t161.5 -33.5q261 0 499 312z" />
    <glyph glyph-name="D" unicode="D" horiz-adv-x="1708" 
d="M-55 0l16 74q126 0 172 27q47 29 66 94l227 993q5 22 7.5 36t2.5 19q0 78 -180 103l16 73h727q297 0 491 -145q196 -144 196 -414q0 -381 -284 -621q-284 -239 -718 -239h-739zM569 264q-5 -22 -7.5 -39t-2.5 -28q0 -111 176 -111q249 0 402 241q153 242 153 582
q0 204 -89.5 314t-262.5 110q-34 0 -65 -1t-60 -3z" />
    <glyph glyph-name="E" unicode="E" horiz-adv-x="1477" 
d="M1438 1057h-76q-12 86 -62 163q-50 79 -95 95q-46 18 -193 18h-197l-127 -555h135q68 0 116 17t84.5 49t64 78t53.5 104h76l-138 -592h-75v37q0 104 -36 162q-36 59 -163 59h-137l-90 -393q-21 -91 -21 -117q0 -54 31 -75q32 -21 168 -21q166 0 242 18q78 20 190 161
q113 143 135 177h72l-129 -442h-1321l16 74q126 0 172 27q47 29 66 94l227 993q5 22 7.5 36t2.5 19q0 78 -180 103l16 73h1248z" />
    <glyph glyph-name="F" unicode="F" horiz-adv-x="1374" 
d="M1460 1040h-78q-13 96 -61 179q-46 80 -93 97q-46 17 -192 17h-221l-131 -565h141q65 0 114 18t86.5 50.5t65.5 78.5t52 103h76l-138 -596h-75v31q0 117 -41 173t-158 56h-141l-107 -457q-4 -17 -6 -30.5t-2 -24.5q0 -41 33 -64q34 -22 145 -32l-16 -74h-768l16 74
q19 0 48.5 2.5t59.5 8t56 15.5t38 25q26 32 36 70l227 993q5 22 7.5 36t2.5 19q0 78 -180 103l16 73h1276z" />
    <glyph glyph-name="G" unicode="G" horiz-adv-x="1653" 
d="M1409 283q-13 -57 -20.5 -95.5t-10.5 -60.5q-64 -37 -146.5 -67.5t-170 -52.5t-175 -34t-161.5 -12q-132 0 -248.5 38t-203.5 111.5t-137 181t-50 247.5q0 395 266 656q267 261 672 261q238 0 420 -92l74 55h86l-111 -518h-86q-23 230 -124.5 347.5t-262.5 117.5
q-232 0 -387 -258q-154 -256 -154 -621q0 -102 20.5 -182t59.5 -135t96.5 -84t130.5 -29q118 0 207 64l41 29l64 272q8 37 8 57q0 75 -201 103l19 73h768l-19 -73q-25 -2 -56.5 -7.5t-70.5 -15.5q-79 -20 -98 -102z" />
    <glyph glyph-name="H" unicode="H" horiz-adv-x="1870" 
d="M1976 1346q-142 -13 -184 -43q-40 -28 -51 -84l-230 -994q-10 -41 -10 -55q0 -43 34 -65q33 -20 148 -31l-16 -74h-768l19 74q152 8 185 38q36 33 46 81l113 497h-596l-107 -465q-8 -37 -8 -55q0 -41 33 -64q34 -22 145 -32l-16 -74h-768l16 74q100 0 158 23q57 22 80 98
l227 993q5 22 7.5 36t2.5 19q0 78 -180 103l16 73h766l-16 -73q-147 -15 -181 -39q-33 -23 -53 -88l-98 -431h596l92 400q8 37 8 55q0 42 -41 64.5t-135 38.5l17 73h768z" />
    <glyph glyph-name="I" unicode="I" horiz-adv-x="924" 
d="M-43 74q107 0 164 22t80 99l227 993q5 22 7.5 36t2.5 19q0 76 -188 103l16 73h787l-17 -73q-156 -13 -194 -41q-37 -25 -51 -86l-230 -994q-8 -37 -8 -55q0 -42 36 -65q37 -20 154 -31l-18 -74h-786z" />
    <glyph glyph-name="J" unicode="J" horiz-adv-x="1219" 
d="M946 432q-50 -213 -217 -342q-166 -129 -364 -129q-79 0 -153.5 19t-132 59.5t-92 104t-34.5 151.5q0 46 14 86t40 69.5t63.5 46.5t85.5 17q40 0 74 -12t59 -35t39 -55.5t14 -73.5q0 -90 -100 -175q-25 -22 -47 -44v-15q21 -49 100 -49q208 0 289 348l182 785q8 37 8 55
q0 77 -182 103l16 73h766l-16 -73q-105 -8 -158 -31q-54 -22 -72 -96z" />
    <glyph glyph-name="K" unicode="K" horiz-adv-x="1673" 
d="M559 225q-4 -17 -6 -30.5t-2 -24.5q0 -41 33 -64q34 -22 145 -32l-16 -74h-768l16 74q126 0 172 27q47 29 66 94l227 993q5 22 7.5 36t2.5 19q0 78 -180 103l16 73h766l-16 -73q-65 -5 -140 -24q-75 -20 -94 -103l-110 -484h43q631 487 631 574q0 26 -140 37l19 73h616
l-16 -73q-121 -10 -239 -65t-578 -447l389 -638q74 -113 225 -122l-16 -74h-533q-43 105 -132 267.5t-226 387.5h-62z" />
    <glyph glyph-name="L" unicode="L" horiz-adv-x="1405" 
d="M-39 74q19 0 48.5 2.5t59.5 8t56 15.5t38 25q26 32 36 70l227 993q5 22 7.5 36t2.5 19q0 78 -180 103l16 73h781l-19 -73q-140 -11 -186 -37q-45 -25 -60 -90l-217 -943q-7 -31 -10.5 -55.5t-3.5 -44.5q0 -51 33 -71q32 -19 182 -19q99 0 163.5 12t101.5 33
q20 12 44.5 35t50.5 52.5t53 63t51 65.5t44 60.5t33 47.5h71l-133 -455h-1306z" />
    <glyph glyph-name="M" unicode="M" horiz-adv-x="2116" 
d="M2228 1346q-66 -7 -109 -16t-65 -22q-44 -26 -59 -89l-223 -994q-5 -25 -8 -38.5t-3 -16.5q0 -43 34 -65q34 -21 149 -31l-17 -74h-768l19 74q148 14 187 44q40 31 52 87l240 1065h-10l-770 -1247h-127q-1 8 -9.5 79.5t-25.5 208.5l-137 975h-11l-198 -868
q-27 -118 -27 -182q0 -39 11 -66.5t35 -46t61.5 -30t89.5 -19.5l-19 -74h-608l16 74q156 10 214 71q56 59 106 263l162 700q12 53 12 92q0 137 -189 146l17 73h649l135 -938l465 762q29 48 50.5 92t35.5 84h662z" />
    <glyph glyph-name="N" unicode="N" horiz-adv-x="1700" 
d="M1866 1346l-34 -5q-136 -18 -188 -76q-51 -56 -98 -255l-235 -1018h-168l-613 1136l-161 -708q-27 -118 -27 -184q0 -76 39 -109q40 -32 158 -53l-19 -74h-608l16 74q155 13 213 70q57 56 107 264l153 667q13 55 13 82q0 155 -199 189l18 73h525l534 -999l133 579
q27 119 27 181q0 47 -15.5 76t-42 46.5t-62 27t-75.5 16.5l17 73h608z" />
    <glyph glyph-name="O" unicode="O" horiz-adv-x="1679" 
d="M727 -39q-133 0 -249.5 39t-203.5 113.5t-137.5 183.5t-50.5 248q0 378 272 645q272 268 658 268q132 0 249.5 -39t205.5 -113.5t139 -183t51 -248.5q0 -376 -266 -645q-265 -268 -668 -268zM993 1366q-222 0 -371 -276q-147 -276 -147 -644q0 -189 73 -291t208 -102
q224 0 370 278q146 280 146 642q0 187 -71 290t-208 103z" />
    <glyph glyph-name="P" unicode="P" horiz-adv-x="1446" 
d="M1040 1419q492 0 492 -299q0 -236 -204 -373q-205 -137 -535 -137h-144l-90 -385q-4 -17 -6 -30.5t-2 -24.5q0 -42 34 -64q35 -21 148 -32l-16 -74h-772l16 74q19 0 48.5 2.5t59.5 8t56 15.5t38 25q26 32 36 70l227 993q5 22 7.5 36t2.5 19q0 78 -180 103l16 73h768z
M815 1333l-145 -633h65q98 0 173 28t126 81.5t77 131.5t26 177q0 215 -248 215h-74z" />
    <glyph glyph-name="Q" unicode="Q" horiz-adv-x="1679" 
d="M1018 -33q0 -118 48.5 -185t141.5 -67q89 0 189 23l-17 -80q-202 -74 -415 -74q-154 0 -237 85t-83 241v55q-122 13 -224.5 58t-177 118.5t-116 175t-41.5 228.5q0 378 272 645q272 268 658 268q132 0 249.5 -39t205.5 -113.5t139 -183t51 -248.5q0 -152 -46 -290
t-130.5 -252t-203 -198.5t-263.5 -129.5v-37zM993 1366q-222 0 -371 -276q-147 -276 -147 -644q0 -189 73 -291t208 -102q224 0 370 278q146 280 146 642q0 187 -71 290t-208 103z" />
    <glyph glyph-name="R" unicode="R" horiz-adv-x="1632" 
d="M559 225q-4 -17 -6 -30.5t-2 -24.5q0 -41 33 -64q34 -22 145 -32l-16 -74h-768l16 74q19 0 48.5 2.5t59.5 8t56 15.5t38 25q26 32 36 70l227 993q5 22 7.5 36t2.5 19q0 78 -180 103l16 73h783q487 0 487 -278q0 -325 -455 -441l208 -369q48 -85 80 -135.5t49 -66.5
q33 -30 50 -38q18 -7 117 -17l-16 -74h-518q-73 170 -155 330t-173 313h-72zM815 1333l-137 -604h96q88 0 157 29t117 80.5t73.5 123.5t25.5 158q0 213 -262 213h-70z" />
    <glyph glyph-name="S" unicode="S" horiz-adv-x="1337" 
d="M43 0h-86l106 512h87q15 -85 48 -166t86 -144t126.5 -101t169.5 -38q60 0 117 15t101.5 46t71.5 79.5t27 115.5q0 154 -209 226q-249 83 -327 131q-38 24 -68.5 56.5t-52.5 71t-33.5 82t-11.5 89.5q0 198 174 339q173 142 442 142q218 0 399 -96l74 59h88l-104 -483h-86
q-65 422 -361 422q-124 0 -204 -69t-80 -171q0 -73 50 -127.5t141 -88.5l273 -101q250 -109 250 -328t-190 -366q-191 -146 -486 -146q-247 0 -446 109z" />
    <glyph glyph-name="T" unicode="T" horiz-adv-x="1401" 
d="M807 231q-4 -17 -6 -30.5t-2 -24.5q0 -52 48 -73.5t142 -28.5l-16 -74h-793l19 74q147 10 188 35q41 24 57 94l263 1132h-39q-153 0 -201 -23q-34 -16 -72.5 -53t-75.5 -80.5t-68.5 -88t-51.5 -76.5h-76l92 405h1376l-94 -405h-78q-4 29 -13.5 73t-24.5 89t-35.5 83.5
t-47.5 54.5q-34 21 -186 21h-49z" />
    <glyph glyph-name="U" unicode="U" horiz-adv-x="1706" 
d="M397 1190q11 50 11 53q0 78 -181 103l19 73h760l-19 -73q-112 -8 -161 -33q-50 -24 -62 -92l-164 -699q-20 -88 -20 -174q0 -252 288 -252q94 0 171.5 32.5t136.5 89.5t99.5 133t59.5 163l113 487q27 116 27 181q0 82 -50 114q-50 34 -149 50l16 73h615l-17 -73
q-168 -21 -220 -76q-53 -56 -101 -258l-123 -535q-29 -126 -93.5 -222t-155.5 -161.5t-203.5 -99t-237.5 -33.5q-130 0 -231 25.5t-169 74.5t-103.5 120.5t-35.5 162.5q0 70 16 135z" />
    <glyph glyph-name="V" unicode="V" horiz-adv-x="1561" 
d="M1788 1346q-28 -3 -59 -11.5t-61 -22t-57 -31.5t-46 -39q-32 -35 -199 -290l-627 -968h-200l-143 799q-73 411 -90 449q-15 38 -59 70.5t-124 43.5l16 73h754l-19 -73q-144 -17 -173 -34t-29 -46q0 -27 10 -93.5t30 -172.5l122 -676q565 883 565 946q0 61 -201 76l19 73
h587z" />
    <glyph glyph-name="W" unicode="W" horiz-adv-x="2306" 
d="M2531 1346q-30 -4 -62.5 -13.5t-63.5 -25t-57 -36.5t-44 -47q-14 -20 -81 -134t-190 -325l-452 -781h-207l-129 1048l-575 -1048h-201l-109 1002q-22 214 -32 241q-8 27 -33 52q-12 13 -25.5 23.5t-30.5 19t-40 14.5t-54 10l19 73h741l-18 -73q-135 -15 -166 -34
q-31 -18 -31 -50q0 -17 21.5 -236t64.5 -641l559 1034h213l129 -1067q475 844 475 916q0 61 -206 78l18 73h586z" />
    <glyph glyph-name="X" unicode="X" horiz-adv-x="1642" 
d="M213 1419h838l-19 -73q-136 -7 -175 -26q-38 -17 -38 -46q0 -44 156 -391q134 128 214 207.5t107 111.5q54 65 54 88q0 42 -152 56l16 73h578l-16 -73q-136 0 -273 -121q-136 -121 -483 -441q109 -235 180 -380.5t105 -205.5q68 -120 235 -124l-16 -74h-834l17 74
q137 7 175 24t38 45q0 53 -177 435q-255 -240 -337 -331q-82 -89 -82 -118q0 -41 149 -55l-16 -74h-576l17 74q131 3 262 111q66 55 199 177.5t337 315.5q-44 97 -86 186.5t-84 174.5l-57 114q-23 48 -48 83t-57 58.5t-72.5 36t-94.5 15.5z" />
    <glyph glyph-name="Y" unicode="Y" horiz-adv-x="1499" 
d="M1753 1346q-47 -6 -85 -20t-71.5 -34.5t-64 -47.5t-63.5 -60q-42 -42 -111 -119.5t-169 -192.5q-99 -115 -156 -184.5t-73 -95.5t-30.5 -69t-28.5 -105l-43 -187q-8 -37 -8 -55q0 -52 41 -72q40 -18 149 -30l-16 -74h-791l17 74q147 10 188 34q40 24 60 95l57 254
q8 35 12 57.5t4 30.5q0 13 -12.5 55t-31.5 99.5t-42.5 122.5t-45 124t-39 105.5t-25.5 65.5q-57 148 -109 185q-52 38 -141 44l16 73h795l-18 -73q-203 -11 -203 -58q0 -72 188 -594l412 487q61 79 61 101q0 55 -164 64l19 73h538z" />
    <glyph glyph-name="Z" unicode="Z" horiz-adv-x="1411" 
d="M1225 0h-1323l14 61l1188 1270h-293q-180 0 -259 -46t-276 -300h-81l145 434h1223l-15 -61l-1186 -1272h340q148 0 209 12q63 14 94 33q33 21 124 121q90 99 180 227h73z" />
    <glyph glyph-name="bracketleft" unicode="[" horiz-adv-x="915" 
d="M-10 -309l422 1829h661l-22 -97h-346l-379 -1636h348l-23 -96h-661z" />
    <glyph glyph-name="backslash" unicode="\" horiz-adv-x="967" 
d="M604 -424l-348 1948h174l348 -1948h-174z" />
    <glyph glyph-name="bracketright" unicode="]" horiz-adv-x="915" 
d="M-125 -309l23 96h346l379 1636h-349l23 97h661l-421 -1829h-662z" />
    <glyph glyph-name="asciicircum" unicode="^" horiz-adv-x="1440" 
d="M1075 760l-315 514l-318 -514h-194l442 696h139l443 -696h-197z" />
    <glyph glyph-name="underscore" unicode="_" horiz-adv-x="1440" 
d="M-188 -301l26 121h1450l-26 -121h-1450z" />
    <glyph glyph-name="grave" unicode="`" 
d="M811 1102q-58 39 -114.5 75t-113.5 70q-138 82 -172 114q-32 32 -32 79q0 22 10 41.5t26 34.5t37 23.5t42 8.5q42 0 73 -12.5t54.5 -34t43 -50.5t38.5 -63q92 -154 153 -249z" />
    <glyph glyph-name="a" unicode="a" horiz-adv-x="1352" 
d="M1307 59q-195 -79 -297 -79q-195 0 -250 145h-8q-175 -156 -336 -156q-171 0 -260.5 99.5t-89.5 283.5q0 272 180 468t428 196q172 0 266 -78l307 61l15 -16l-148 -614q-24 -100 -24 -148q0 -57 25.5 -78.5t88.5 -21.5q54 0 123 29zM879 760q8 34 -23 94q-31 61 -123 61
q-126 0 -218 -170q-91 -169 -91 -397q0 -227 156 -227q77 0 172 94z" />
    <glyph glyph-name="b" unicode="b" horiz-adv-x="1329" 
d="M358 1274q9 39 9 55q0 38 -16.5 60.5t-42 34.5t-57 16.5t-61.5 7.5l19 74l526 26l13 -16l-152 -647h6q161 131 313 131q168 0 258.5 -98.5t90.5 -284.5q0 -288 -186 -477t-486 -189q-337 0 -486 228zM444 211q-7 -33 30 -97q38 -63 118 -63q129 0 221 176t92 410
q0 225 -155 225q-87 0 -181 -94z" />
    <glyph glyph-name="c" unicode="c" horiz-adv-x="1098" 
d="M807 893q-39 43 -109 43q-114 0 -192 -141q-78 -139 -78 -351q0 -323 225 -323q59 0 106 12t86 35.5t73.5 59t68.5 81.5l72 -61q-42 -63 -97 -115t-119.5 -88.5t-136.5 -57t-149 -20.5q-104 0 -193 25.5t-154.5 78.5t-102.5 134t-37 192q0 259 178 438q178 181 469 181
q178 0 271 -64.5t93 -181.5q0 -42 -12.5 -78.5t-36 -63t-57.5 -42t-78 -15.5q-25 0 -54 7t-53.5 22t-40.5 37.5t-16 52.5q0 75 74 203z" />
    <glyph glyph-name="d" unicode="d" horiz-adv-x="1358" 
d="M1120 369q-24 -103 -24 -148q0 -30 6.5 -49.5t20 -31t35.5 -15.5t52 -4q51 0 123 29l-22 -91q-195 -79 -295 -79q-193 0 -250 145h-8q-177 -156 -342 -156q-171 0 -260.5 99.5t-89.5 283.5q0 275 178 469q179 195 424 195q164 0 258 -72l73 326q9 41 9 55q0 108 -207 123
l16 74l561 26l13 -16zM885 766q7 34 -28 95q-36 61 -128 61q-123 0 -215 -171q-90 -171 -90 -403q0 -227 156 -227q81 0 178 94z" />
    <glyph glyph-name="e" unicode="e" horiz-adv-x="1141" 
d="M420 410q8 -291 221 -291q219 0 358 190l72 -61q-45 -64 -103 -115.5t-125.5 -88.5t-142 -57t-153.5 -20q-102 0 -189.5 26t-151.5 79t-100 133.5t-36 189.5q0 257 184 438q185 183 477 183q367 0 367 -230q0 -308 -678 -376zM422 492q211 24 280 87q70 63 70 181
q0 176 -117 176q-75 0 -144 -123q-68 -124 -89 -321z" />
    <glyph glyph-name="f" unicode="f" horiz-adv-x="780" 
d="M893 971l-25 -103h-247q-54 -278 -96 -474t-73 -315q-62 -237 -234 -379q-172 -144 -363 -144q-289 0 -289 192q0 33 11.5 60t31.5 46.5t48 30.5t60 11q133 0 210 -180l34 -78q87 92 150 385l178 845h-195l25 103h192l17 78q42 193 215 348t370 155q287 0 287 -188
q0 -33 -12 -60.5t-32.5 -48t-48.5 -32t-60 -11.5q-130 0 -206 181l-34 77q-77 -82 -143 -385l-25 -114h254z" />
    <glyph glyph-name="g" unicode="g" horiz-adv-x="1329" 
d="M741 104q-155 -127 -315 -127q-89 0 -156.5 27t-112.5 77t-68 120.5t-23 156.5q0 271 177 464q179 194 425 194q178 0 278 -78l305 61l15 -16l-170 -813q-128 -614 -697 -614q-389 0 -389 196q0 56 40 102t114 46q148 0 262 -262q141 16 212 138q35 61 63.5 142.5
t48.5 185.5h-9zM885 760q8 39 -29 96q-36 59 -127 59q-123 0 -215 -168q-90 -166 -90 -393q0 -225 168 -225q88 0 182 94z" />
    <glyph glyph-name="h" unicode="h" horiz-adv-x="1382" 
d="M1331 63q-195 -79 -295 -79q-48 0 -93 12t-80.5 37.5t-57 64.5t-21.5 92q0 78 21 154l72 266q22 79 22 135q0 103 -100 103q-103 0 -240 -125l-164 -723h-332l295 1274q9 39 9 55q0 39 -16 62t-41 35t-56.5 16t-63.5 6l19 74l526 26l13 -16l-160 -692h6q203 176 407 176
q48 0 90.5 -13.5t75 -40t51.5 -65.5t19 -90q0 -88 -18 -154l-76 -280q-27 -99 -27 -150q0 -57 26 -78.5t89 -21.5q51 0 123 29z" />
    <glyph glyph-name="i" unicode="i" horiz-adv-x="750" 
d="M541 1175q-33 0 -64 12t-54.5 33t-38 50t-14.5 63q0 35 14 64.5t38 51t55 34t64 12.5t64.5 -12.5t55.5 -34t39 -51t15 -64.5t-15 -64t-39 -50t-55.5 -32.5t-64.5 -11.5zM690 53q-201 -80 -295 -80q-48 0 -93.5 12t-81 37.5t-56.5 64.5t-21 93q0 78 21 154l82 293
q26 95 26 147q0 55 -23.5 77.5t-86.5 22.5q-39 0 -123 -28l20 90q201 80 295 80q57 0 103 -15t78.5 -42t49.5 -65t17 -85q0 -84 -20 -156l-82 -291q-27 -96 -27 -149q0 -57 27 -77.5t90 -20.5q51 0 123 28z" />
    <glyph glyph-name="j" unicode="j" horiz-adv-x="748" 
d="M541 1175q-33 0 -64 12t-54.5 33t-38 50t-14.5 63q0 35 14 64.5t38 51t55 34t64 12.5t64.5 -12.5t55.5 -34t39 -51t15 -64.5t-15 -64t-39 -50t-55.5 -32.5t-64.5 -11.5zM74 936q201 80 305 80q48 0 93 -12t79.5 -37.5t55 -64.5t20.5 -93q0 -86 -71 -432
q-71 -344 -124 -452q-36 -73 -90.5 -140t-122.5 -118t-147 -81t-164 -30q-287 0 -287 192q0 33 12 60t33 46.5t49 30.5t60 11q141 0 243 -258q69 100 173 587q104 488 104 549q0 100 -115 100q-33 0 -129 -28z" />
    <glyph glyph-name="k" unicode="k" horiz-adv-x="1313" 
d="M395 0h-332l295 1274q9 39 9 55q0 39 -16 62t-41 35t-56.5 16t-63.5 6l19 74l526 26l13 -16l-240 -1040h6q158 177 297 315q139 139 203 174t127 35q155 0 155 -158q0 -37 -14 -69.5t-38 -57t-56.5 -39t-69.5 -14.5q-98 0 -213 88q-7 -6 -18 -12q-42 -28 -99 -78
l152 -378q20 -48 38.5 -83t35.5 -58q35 -44 125 -44q51 0 129 30l-23 -90q-183 -80 -305 -80q-45 0 -83.5 6t-70.5 21t-58.5 42t-48.5 69q-18 35 -51 116.5t-81 212.5l-66 -61z" />
    <glyph glyph-name="l" unicode="l" horiz-adv-x="725" 
d="M477 362q-26 -116 -26 -149q0 -57 29 -77.5t95 -20.5q59 0 130 28l-23 -90q-195 -80 -303 -80q-48 0 -94.5 12t-83 37t-58.5 64t-22 94q0 54 20 154l215 940q9 39 9 55q0 39 -15.5 62t-40.5 35t-56 16t-63 6l19 74l526 26l10 -16z" />
    <glyph glyph-name="m" unicode="m" horiz-adv-x="2052" 
d="M2001 63q-195 -79 -295 -79q-48 0 -93.5 12t-81 37t-56.5 64t-21 93q0 81 21 154l71 266q23 87 23 135q0 103 -103 103q-78 0 -215 -125l-166 -723h-329l139 610q23 103 23 135q0 103 -105 103q-86 0 -223 -125l-164 -723h-332l142 614q24 104 24 150q0 29 -5 47.5
t-17.5 30t-33.5 16t-52 4.5q-49 0 -123 -28l22 90q201 80 295 80q204 0 252 -177h6q207 189 408 189q45 0 86.5 -12t74.5 -36.5t54 -60.5t26 -84h9q47 41 92 76t94 61t103 41t118 15q48 0 91 -13.5t75.5 -39.5t52 -65.5t19.5 -90.5q0 -77 -21 -154l-76 -280
q-24 -88 -24 -150q0 -27 5 -45.5t18 -30.5t35.5 -17t56.5 -5q50 0 122 29z" />
    <glyph glyph-name="n" unicode="n" horiz-adv-x="1413" 
d="M1362 63q-195 -79 -295 -79q-48 0 -93.5 12t-81 37t-56.5 64t-21 93q0 81 21 154l71 266q23 87 23 135q0 103 -103 103q-100 0 -237 -125l-164 -723h-332l142 614q24 104 24 150q0 27 -4.5 45.5t-16.5 30.5t-33 17t-54 5q-49 0 -123 -28l22 90q201 80 295 80
q212 0 254 -177h6q212 189 426 189q48 0 90.5 -13.5t75 -40t51.5 -65.5t19 -90q0 -77 -21 -154l-76 -280q-24 -88 -24 -150q0 -27 5 -45.5t18 -30.5t35.5 -17t56.5 -5q50 0 122 29z" />
    <glyph glyph-name="o" unicode="o" horiz-adv-x="1303" 
d="M543 -33q-99 0 -186 26.5t-151 79.5t-101 132.5t-37 185.5q0 269 191 448t489 179q101 0 189.5 -24.5t154.5 -76t104.5 -131t38.5 -188.5q0 -263 -192 -448q-192 -183 -500 -183zM729 938q-145 0 -228 -197q-81 -196 -81 -465q0 -231 155 -231q140 0 224 200
q84 201 84 468q0 225 -154 225z" />
    <glyph glyph-name="p" unicode="p" horiz-adv-x="1358" 
d="M373 -221q-8 -37 -8 -51q0 -47 28 -66q30 -21 162 -37l-14 -69h-723l16 69q128 12 160 39q29 25 43 80l196 870q25 109 25 150q0 56 -25 77t-83 21q-48 0 -123 -28l22 90q201 80 295 80q187 0 246 -146h8q181 158 344 158q170 0 260 -99.5t90 -283.5q0 -274 -178 -467
q-177 -193 -424 -193q-169 0 -256 72zM473 219q-7 -31 27 -96q34 -64 129 -64q123 0 214 172t91 406q0 225 -158 225q-84 0 -178 -94z" />
    <glyph glyph-name="q" unicode="q" horiz-adv-x="1331" 
d="M725 98q-168 -129 -309 -129q-171 0 -260.5 99.5t-89.5 283.5q0 275 178 469q179 195 424 195q176 0 276 -78l307 61l15 -16l-279 -1204q-8 -37 -8 -51q0 -53 54 -75q28 -11 61 -18.5t71 -9.5l-14 -69h-723l16 69q122 9 157 34q36 25 50 85l80 354h-6zM883 760
q8 35 -28 95t-128 60q-123 0 -213 -169q-90 -168 -90 -398q0 -227 156 -227q84 0 178 94z" />
    <glyph glyph-name="r" unicode="r" horiz-adv-x="1094" 
d="M98 0l138 614q24 107 24 150q0 31 -6 50t-18.5 29.5t-33 14.5t-50.5 4q-49 0 -123 -28l22 90q201 80 295 80q212 0 254 -177h6q33 34 67.5 68t73.5 61t83 43.5t94 16.5q84 0 133 -54.5t49 -154.5q0 -47 -13 -88t-38.5 -71.5t-63.5 -48t-88 -17.5q-27 0 -55.5 6.5t-52 21
t-39 37t-15.5 53.5q0 56 54 168q-115 -46 -207 -159l-160 -709h-330z" />
    <glyph glyph-name="s" unicode="s" horiz-adv-x="1059" 
d="M403 41q230 0 230 180q0 58 -42 89q-39 32 -185 85q-263 89 -263 293q0 138 134 233t368 95q375 0 375 -199q0 -32 -12.5 -57t-33.5 -42.5t-48.5 -26.5t-57.5 -9q-150 0 -219 262q-34 -3 -67 -15t-59 -33.5t-42 -51t-16 -66.5q0 -66 37 -96q37 -28 176 -78
q274 -94 274 -293q0 -156 -136 -250t-382 -94q-210 0 -317 59t-107 150q0 34 13 61t34.5 46t50.5 29t62 10q165 0 233 -281z" />
    <glyph glyph-name="t" unicode="t" horiz-adv-x="854" 
d="M745 57q-189 -84 -337 -84q-47 0 -94.5 12t-85.5 37.5t-61.5 64.5t-23.5 93q0 59 23 156l123 532h-183l23 103h188l72 303h324l-70 -303h270l-22 -103h-270l-123 -532q-21 -91 -21 -121q0 -57 31.5 -78.5t97.5 -21.5q63 0 162 32z" />
    <glyph glyph-name="u" unicode="u" horiz-adv-x="1403" 
d="M1358 61q-200 -79 -295 -79q-217 0 -260 178h-6q-201 -189 -420 -189q-48 0 -91 13.5t-74.5 39.5t-50 65.5t-18.5 90.5q0 68 23 154l76 280q24 89 24 148q0 54 -22.5 77t-85.5 23q-54 0 -123 -28l20 90q204 80 295 80q48 0 93 -12.5t79.5 -38t55 -64.5t20.5 -92
q0 -90 -18 -156l-74 -266q-23 -84 -23 -133q0 -103 99 -103q97 0 231 125l166 721l317 14l13 -14l-142 -614q-13 -57 -19.5 -93.5t-6.5 -54.5q0 -57 25.5 -78.5t88.5 -21.5q57 0 123 29z" />
    <glyph glyph-name="v" unicode="v" horiz-adv-x="1253" 
d="M55 924q204 80 295 80q48 0 93 -12.5t79.5 -38t55 -64.5t20.5 -92q0 -100 -53 -270q-53 -171 -53 -228q0 -186 172 -186q79 0 141 30.5t105 82t66 119.5t23 142q0 29 -2.5 48.5t-9.5 35t-20.5 29.5t-35.5 32q-112 94 -112 206q0 41 15 74t41 56t61 35.5t74 12.5
q48 0 85 -18t62 -50.5t38 -78.5t13 -103q0 -314 -192 -557q-191 -242 -471 -242q-78 0 -148.5 18t-124 57t-85 100t-31.5 147q0 68 55 232t55 241q0 51 -22.5 75.5t-85.5 24.5q-54 0 -123 -28z" />
    <glyph glyph-name="w" unicode="w" horiz-adv-x="1913" 
d="M831 188q-193 -217 -436 -217q-56 0 -102 18.5t-79 51.5t-51 79.5t-18 102.5q0 39 27 154l70 237q24 81 24 148q0 52 -22.5 76t-85.5 24q-54 0 -123 -28l20 90q204 80 295 80q50 0 94.5 -12.5t79 -39t54.5 -66t20 -93.5q0 -90 -31 -195l-57 -192q-27 -91 -27 -146
q0 -57 31 -89t76 -32q115 0 235 133q0 25 4.5 59t14.5 77l133 577l317 14l13 -14l-131 -571q-15 -64 -15 -131q0 -168 164 -168q139 0 236 103q98 104 98 269q0 22 -1 39.5t-6 33t-15 29.5t-28 27q-130 102 -130 222q0 41 15 73.5t40.5 56t59.5 36t73 12.5q48 0 85.5 -17.5
t63 -50.5t39 -79t13.5 -103q0 -311 -195 -556q-193 -243 -481 -243q-289 0 -361 221z" />
    <glyph glyph-name="x" unicode="x" horiz-adv-x="1194" 
d="M713 664q13 19 24 35.5t20 30.5q128 200 186 243t128 43q32 0 59.5 -11.5t47 -31.5t30.5 -47.5t11 -59.5q0 -43 -14.5 -78t-40 -60t-61 -38.5t-77.5 -13.5q-76 0 -174 37q-44 -37 -117 -140q36 -153 78 -276q5 -17 11 -34.5t12 -37.5q33 -112 153 -112q57 0 129 30
l-22 -90q-183 -80 -305 -80q-104 0 -178 50q-72 49 -107 217q-7 39 -21 84q-11 -18 -21.5 -34t-20.5 -30q-20 -29 -37 -59q-89 -134 -149 -179q-58 -45 -128 -45q-32 0 -59 11t-46.5 31t-30.5 47t-11 59q0 42 14 77.5t39 61t60 39.5t77 14q73 0 176 -36q43 31 115 133
q-17 73 -35.5 139t-38.5 127q-5 17 -11 35t-11 37q-40 112 -154 112q-49 0 -129 -30l20 90q183 80 306 80q70 0 118 -18t80.5 -52t52.5 -83.5t35 -113.5q5 -21 9 -39t8 -34z" />
    <glyph glyph-name="y" unicode="y" horiz-adv-x="1370" 
d="M1130 170q-66 -305 -242 -459.5t-450 -154.5q-389 0 -389 196q0 56 40 102t114 46q147 0 264 -262q242 43 336 522h-6q-198 -183 -418 -183q-48 0 -91 14t-75 40.5t-51 66t-19 90.5q0 68 23 154l76 272q24 86 24 148q0 55 -22.5 77.5t-85.5 22.5q-54 0 -123 -28l20 90
q204 80 295 80q48 0 93 -12.5t79.5 -38t55 -64.5t20.5 -92q0 -90 -18 -156l-74 -260q-23 -83 -23 -133q0 -103 103 -103t235 123l154 717l315 14l15 -16z" />
    <glyph glyph-name="z" unicode="z" horiz-adv-x="1059" 
d="M1069 913l-709 -829q23 -1 52.5 -1.5t67.5 -0.5h38q181 0 219 20q37 21 100 129q63 109 70 131h72l-72 -362h-934l19 84l696 817h-119q-133 0 -184 -13q-31 -7 -59 -32t-51.5 -58t-42 -68t-29.5 -62h-72l64 317h888z" />
    <glyph glyph-name="braceleft" unicode="{" 
d="M776 -334q-317 0 -423 68q-105 67 -105 215q0 84 37 223q37 142 37 207q0 77 -50 112q-51 36 -200 46l34 149q175 7 274 64q98 56 117 288q23 296 166 397t506 101l-14 -82q-64 -3 -114 -15t-86.5 -38.5t-60.5 -70t-36 -109.5l-33 -191q-25 -148 -126 -246
q-100 -98 -341 -143l-18 -78q278 -54 278 -282q0 -63 -10 -109l-41 -188q-4 -16 -4 -62q0 -53 19 -85.5t51 -51t73.5 -25.5t86.5 -10z" />
    <glyph glyph-name="bar" unicode="|" horiz-adv-x="795" 
d="M334 -424v1948h172v-1948h-172z" />
    <glyph glyph-name="braceright" unicode="}" 
d="M942 516q-194 -9 -285 -71q-90 -62 -105 -280q-20 -285 -162 -391q-142 -108 -513 -108l17 82q63 4 113 16.5t86.5 39t60 69.5t34.5 109l35 190q18 99 59 166t101 111.5t137.5 70.5t169.5 43l19 76q-281 59 -281 283q0 50 12 108l39 191q6 29 6 59q0 168 -229 172l14 84
q318 0 425 -68q106 -67 106 -215q0 -72 -38 -222q-38 -147 -38 -206q0 -81 54 -116q56 -36 198 -43z" />
    <glyph glyph-name="asciitilde" unicode="~" horiz-adv-x="1440" 
d="M1317 735q-21 -57 -55.5 -117t-80.5 -109.5t-103.5 -81.5t-125.5 -32q-120 0 -259 88t-214 88q-116 0 -209 -198l-102 41q20 57 54.5 117t81 109.5t104 81.5t124.5 32q124 0 261 -88t211 -88q42 0 74 18.5t56.5 47.5t43 64t34.5 68z" />
    <glyph glyph-name="exclamdown" unicode="&#xa1;" horiz-adv-x="770" 
d="M561 1075q-39 0 -73.5 14.5t-61 40t-42 59.5t-15.5 73t16 72.5t42.5 59t61 40t72.5 14.5t73 -14.5t61.5 -39.5t42.5 -59t16 -73q0 -40 -15.5 -74t-42 -59t-61.5 -39.5t-74 -14.5zM535 956q-12 -226 -12 -462l1 -214q1 -118 -32 -183q-33 -63 -91 -94.5t-125 -31.5
q-31 0 -59.5 10t-49.5 29t-33.5 45.5t-12.5 59.5q0 66 59 196q156 326 279 645h76z" />
    <glyph glyph-name="cent" unicode="&#xa2;" horiz-adv-x="1239" 
d="M1124 262q-178 -248 -442 -280l-61 -281h-99l62 279q-98 1 -183.5 24.5t-149 72.5t-100 125.5t-36.5 182.5q0 251 191 436q190 184 505 201l57 254h101l-58 -256q136 -15 206 -70q71 -56 71 -121q0 -42 -16.5 -74t-44.5 -53.5t-63.5 -32t-74.5 -10.5q-27 0 -50 12
t-40 31.5t-26.5 44t-10.5 50.5l-149 -678q60 0 108 13.5t89 38.5t77 61t72 81zM795 938q-138 -20 -232 -163t-94 -353q0 -222 149 -287z" />
    <glyph glyph-name="sterling" unicode="&#xa3;" horiz-adv-x="1413" 
d="M1124 739l-24 -110h-383q-67 -237 -311 -348v-17h835l-61 -264h-1172l45 188q132 38 215 130q85 94 107 311h-201l25 110h190q14 117 27.5 196t24.5 122q23 87 105 184q47 56 107.5 97t128 68t140 40.5t143.5 13.5q151 0 249 -74q97 -73 97 -184q0 -42 -11.5 -77
t-33.5 -60.5t-53 -40t-70 -14.5q-81 0 -128.5 42.5t-47.5 114.5q0 58 33 151q4 11 7.5 21.5t6.5 20.5q-30 12 -92 12q-38 0 -70.5 -16.5t-58 -43t-44.5 -59.5t-30 -66q-14 -43 -29 -111t-29 -163q-22 -142 -30 -174h393z" />
    <glyph glyph-name="currency" unicode="&#xa4;" horiz-adv-x="1440" 
d="M1161 45l-235 231q-100 -53 -185 -53q-87 0 -182 53l-237 -233l-107 115l231 233q-53 86 -53 180q0 91 53 183l-231 237l111 109l233 -234q89 54 182 54q92 0 181 -52l233 232l113 -109l-232 -237q54 -97 54 -183q0 -88 -54 -180l232 -235zM741 778q-43 0 -80.5 -16.5
t-65 -44.5t-43 -65.5t-15.5 -80.5q0 -42 16 -79.5t43.5 -65.5t65 -44.5t79.5 -16.5q43 0 80 16.5t64.5 44.5t43 65.5t15.5 79.5q0 43 -15.5 80.5t-43 65.5t-64.5 44.5t-80 16.5z" />
    <glyph glyph-name="yen" unicode="&#xa5;" horiz-adv-x="1499" 
d="M1683 1348q-125 -19 -216 -107q-45 -43 -183 -199t-373 -428l-8 -32h434l-26 -113h-430l-56 -236q-4 -17 -6 -31.5t-2 -27.5q0 -87 191 -102l-19 -72h-778l16 72q141 11 185 34q46 24 63 95l62 268h-431l25 113h434l4 20q-176 519 -229 625q-54 107 -195 121l19 71h762
l-17 -71q-24 -2 -55 -3q-141 -7 -141 -59q0 -64 176 -538l406 476q24 33 24 60q0 51 -156 64l19 71h520z" />
    <glyph glyph-name="brokenbar" unicode="&#xa6;" horiz-adv-x="795" 
d="M334 723v801h172v-801h-172zM334 -424v809h172v-809h-172z" />
    <glyph glyph-name="section" unicode="&#xa7;" horiz-adv-x="1153" 
d="M377 -150q248 0 248 181q0 91 -155 165q-165 77 -217 111q-51 34 -86.5 90t-35.5 129q0 126 79.5 208t248.5 138q-170 78 -170 234q0 146 145 246q146 102 381 102q167 0 250.5 -55.5t83.5 -145.5q0 -54 -34 -90.5t-95 -36.5q-60 0 -103 46q-43 47 -90 198l-9 2
q-54 12 -154 -30q-99 -42 -99 -148q0 -61 46 -100q47 -38 227 -119q229 -106 229 -279q0 -236 -328 -348q162 -72 162 -223q0 -155 -147 -255q-146 -101 -381 -101q-164 0 -249 54.5t-85 145.5q0 27 9 49.5t25.5 39.5t40.5 26.5t54 9.5q59 0 102 -45q44 -45 90 -199h17z
M535 840q-134 -95 -134 -217q0 -64 48 -115q48 -50 215 -125q135 86 135 221q0 57 -41 104t-223 132z" />
    <glyph glyph-name="dieresis" unicode="&#xa8;" 
d="M899 1184q-34 0 -63 13.5t-50 36t-33 53t-12 63.5t12 63t33 53t50 36.5t63 13.5q33 0 62 -14t50.5 -37t33.5 -53t12 -62t-12 -62t-33.5 -53t-50.5 -37t-62 -14zM403 1184q-34 0 -62.5 13.5t-49.5 36.5t-33 53t-12 63t12 63t33 53t50 36.5t62 13.5t62 -14t50.5 -37
t33.5 -53t12 -62t-12 -62t-33.5 -53t-50.5 -37t-62 -14z" />
    <glyph glyph-name="copyright" unicode="&#xa9;" horiz-adv-x="1929" 
d="M987 -281q-365 0 -626 262q-261 263 -261 623q0 359 261 620t626 261q363 0 622 -261q261 -259 261 -620q0 -362 -261 -623q-259 -262 -622 -262zM987 1397q-326 0 -557 -232q-231 -231 -231 -561q0 -334 230 -567q231 -232 558 -232q326 0 555 232q230 233 230 567
q0 329 -231 561q-229 232 -554 232zM1413 381q-117 -266 -416 -266q-107 0 -198.5 33.5t-158 95.5t-104.5 150.5t-38 197.5q0 114 39.5 207t109.5 159t165.5 102t207.5 36q124 0 246 -62l34 51h66l2 -370h-68q-49 154 -112 228.5t-160 74.5q-58 0 -103.5 -27t-76.5 -78.5
t-47.5 -126t-16.5 -170.5q0 -391 267 -391q185 0 297 193z" />
    <glyph glyph-name="ordfeminine" unicode="&#xaa;" horiz-adv-x="1130" 
d="M1190 682q-162 -64 -250 -64q-158 0 -209 117h-6q-142 -127 -276 -127q-289 0 -289 312q0 223 147 379q147 157 355 157q140 0 217 -61l258 51l12 -14l-119 -494q-22 -89 -22 -121q0 -45 22 -62.5t76 -17.5q43 0 102 25zM825 1245q6 25 -17 75t-97 50q-106 0 -178 -131
q-72 -130 -72 -317q0 -185 127 -185q21 0 40 7t35.5 18.5t32 26t29.5 28.5z" />
    <glyph glyph-name="guillemotleft" unicode="&#xab;" horiz-adv-x="1249" 
d="M557 96l-359 303q-44 41 -44 103q0 104 86 169q44 33 170 114t335 210l41 -43l-391 -420l223 -393zM997 96q-161 134 -251.5 210.5t-110.5 96.5q-41 41 -41 99q0 104 79 165q40 31 167.5 112.5t345.5 215.5l41 -43l-391 -420l223 -393z" />
    <glyph glyph-name="logicalnot" unicode="&#xac;" horiz-adv-x="1440" 
d="M1118 49v473h-932v164h1102v-637h-170z" />
    <glyph glyph-name="registered" unicode="&#xae;" horiz-adv-x="1929" 
d="M987 -281q-365 0 -626 262q-261 263 -261 623q0 359 261 620t626 261q363 0 622 -261q261 -259 261 -620q0 -362 -261 -623q-259 -262 -622 -262zM987 1397q-326 0 -557 -232q-231 -231 -231 -561q0 -334 230 -567q231 -232 558 -232q326 0 555 232q230 233 230 567
q0 329 -231 561q-229 232 -554 232zM1233 145q-65 102 -141 205t-164 211h-33v-268q0 -76 119 -90v-58h-482v58q84 9 107 27q23 20 23 59v635q0 72 -130 94v57h515q356 0 356 -221q0 -182 -225 -250q234 -303 276 -345q43 -41 106 -50l33 -6v-58h-360zM895 1006v-377h47
q203 0 203 207q0 170 -201 170h-49z" />
    <glyph glyph-name="macron" unicode="&#xaf;" horiz-adv-x="1440" 
d="M207 1604l29 120h1450l-29 -120h-1450z" />
    <glyph glyph-name="degree" unicode="&#xb0;" horiz-adv-x="860" 
d="M512 799q-73 0 -136 23t-109.5 66t-72.5 104t-26 136t26.5 136t72.5 104.5t109 67.5t136 24t135.5 -24t108.5 -67.5t72 -105t26 -135.5t-26 -135t-72 -104t-108.5 -66.5t-135.5 -23.5zM510 1368q-36 0 -66 -16.5t-51.5 -47t-33 -74t-11.5 -97.5q0 -244 166 -244
q67 0 114 62q48 62 48 169q0 248 -166 248z" />
    <glyph glyph-name="plusminus" unicode="&#xb1;" horiz-adv-x="1440" 
d="M186 0v164h473v393h-473v164h473v473h164v-473h473v-164h-473v-393h473v-164h-1110z" />
    <glyph glyph-name="twosuperior" unicode="&#xb2;" horiz-adv-x="1130" 
d="M518 1358q33 -88 33 -137q0 -54 -36.5 -86.5t-96.5 -32.5q-28 0 -51.5 10t-39.5 27.5t-25 41.5t-9 52q0 88 105 155q107 68 266 68q38 0 82 -4t88.5 -14t85 -27t72 -44t50.5 -63.5t19 -86.5q0 -143 -90 -227q-88 -82 -307 -165q-73 -25 -145.5 -52.5t-147.5 -57.5l-2 -13
h628l-47 -213h-823l35 162q51 46 284 177q58 33 116.5 72t105.5 88t76.5 108.5t29.5 134.5q0 145 -162 145q-34 0 -94 -18z" />
    <glyph glyph-name="threesuperior" unicode="&#xb3;" horiz-adv-x="1130" 
d="M494 930l22 94h62q97 0 155 60.5t58 172.5q0 54 -42 86.5t-108 32.5q-55 0 -102 -18q5 -14 10 -29l10 -30q10 -30 10 -74q0 -117 -127 -117q-27 0 -50 10t-39.5 27t-26 41t-9.5 51q0 84 111 151q112 68 266 68q182 0 274 -58q93 -57 93 -145q0 -204 -291 -260v-10
q242 -20 242 -195q0 -147 -138 -242q-138 -93 -333 -93q-170 0 -276 62q-105 63 -105 159q0 27 9 51t25.5 42t39.5 28t51 10q63 0 98 -33.5t35 -87.5q0 -50 -22 -98q-7 -16 -11 -29q57 -25 104 -25q244 0 244 273q0 125 -151 125h-88z" />
    <glyph glyph-name="acute" unicode="&#xb4;" 
d="M420 1139q32 40 65 85.5t68 96.5q108 157 149 193q40 34 115 34q18 0 40 -5.5t41 -16.5t31.5 -27.5t12.5 -38.5q0 -62 -41 -97q-40 -34 -190 -116q-57 -32 -119 -67.5t-129 -77.5z" />
    <glyph glyph-name="uni00B5" unicode="&#xb5;" horiz-adv-x="1372" 
d="M270 43q-12 -54 -12 -119l6 -160q0 -208 -186 -208q-29 0 -55.5 9.5t-46.5 26.5t-32 42t-12 55q0 63 66 206q52 112 84 250l194 840l318 14l10 -14l-145 -631q-15 -64 -15 -104q0 -115 121 -115q125 0 213 111l170 739l318 14l12 -14l-141 -612q-27 -117 -27 -150
q0 -57 26 -78.5t89 -21.5q54 0 123 29l-23 -91q-195 -79 -295 -79q-225 0 -260 159h-6q-144 -166 -313 -166q-108 0 -170 68h-11z" />
    <glyph glyph-name="paragraph" unicode="&#xb6;" horiz-adv-x="1274" 
d="M1391 1323h-222l-364 -1559h-111l367 1559h-174l-365 -1559h-110l215 900h-39q-96 0 -169 23.5t-122.5 67t-74.5 106t-25 140.5q0 174 139 295q140 123 358 123h719z" />
    <glyph glyph-name="periodcentered" unicode="&#xb7;" horiz-adv-x="692" 
d="M367 352q-40 0 -76 15.5t-63.5 41.5t-43.5 62t-16 76q0 41 16 76.5t43 62t63.5 42t76.5 15.5t75.5 -15.5t62.5 -42.5t42.5 -62.5t15.5 -75.5t-15.5 -76t-42 -62t-62 -41.5t-76.5 -15.5z" />
    <glyph glyph-name="cedilla" unicode="&#xb8;" 
d="M246 -367q166 0 216 19q52 18 52 72q0 55 -125 55l53 237h86l-22 -112q215 0 215 -129q0 -114 -108 -166q-109 -53 -386 -53z" />
    <glyph glyph-name="onesuperior" unicode="&#xb9;" horiz-adv-x="1130" 
d="M227 489l17 72q6 0 30.5 2t67.5 6q24 2 46 5.5t40 12.5t30.5 24.5t18.5 41.5l131 584h-217l19 84h61q190 0 320 129h133q-16 -55 -31 -111t-29 -116l-116 -506q-13 -55 -13 -88q0 -31 34 -44q35 -13 165 -24l-19 -72h-688z" />
    <glyph glyph-name="ordmasculine" unicode="&#xba;" horiz-adv-x="1130" 
d="M557 606q-80 0 -151 21t-124.5 63.5t-84.5 107t-31 150.5q0 218 156 363q157 145 407 145q82 0 155 -19t127.5 -60t86.5 -105t32 -154q0 -215 -158 -364q-157 -148 -415 -148zM713 1382q-54 0 -94 -28t-68 -73t-45.5 -102t-27.5 -115t-13.5 -111.5t-3.5 -92.5
q0 -178 127 -178q115 0 182 154q68 156 68 368q0 178 -125 178z" />
    <glyph glyph-name="guillemotright" unicode="&#xbb;" horiz-adv-x="1249" 
d="M485 139l392 418l-224 395l62 43q356 -293 379 -328q24 -34 24 -77q0 -99 -73 -160q-70 -60 -519 -334zM47 139l391 418l-223 395l61 43l360 -303q44 -41 44 -102q0 -87 -63 -149q-31 -31 -163.5 -117t-365.5 -228z" />
    <glyph glyph-name="onequarter" unicode="&#xbc;" horiz-adv-x="2193" 
d="M126 489l17 72q6 0 30.5 2t67.5 6q24 2 46 5.5t40 12.5t30.5 24.5t18.5 41.5l131 584h-217l19 84h61q190 0 320 129h133q-16 -55 -31 -111t-29 -116l-116 -506q-13 -55 -13 -88q0 -31 34 -44q35 -13 165 -24l-19 -72h-688zM645 0h-156l1088 1430h158zM2075 374l-37 -155
h-156l-53 -238h-232l56 238h-500l35 153l653 594h213l-135 -592h156zM1786 798l-473 -424h375z" />
    <glyph glyph-name="onehalf" unicode="&#xbd;" horiz-adv-x="2193" 
d="M115 489l17 72q6 0 30.5 2t67.5 6q24 2 46 5.5t40 12.5t30.5 24.5t18.5 41.5l131 584h-217l19 84h61q190 0 320 129h133q-16 -55 -31 -111t-29 -116l-116 -506q-13 -55 -13 -88q0 -31 34 -44q35 -13 165 -24l-19 -72h-688zM627 0h-156l1088 1430h158zM1610 870
q33 -88 33 -137q0 -54 -36.5 -86.5t-96.5 -32.5q-28 0 -51.5 10t-39.5 27.5t-25 41.5t-9 52q0 88 105 155q107 68 266 68q38 0 82 -4t88.5 -14t85 -27t72 -44t50.5 -63.5t19 -86.5q0 -143 -90 -227q-88 -82 -307 -165q-73 -25 -145.5 -52.5t-147.5 -57.5l-2 -13h628
l-47 -213h-823l35 162q51 46 284 177q58 33 116.5 72t105.5 88t76.5 108.5t29.5 134.5q0 145 -162 145q-34 0 -94 -18z" />
    <glyph glyph-name="threequarters" unicode="&#xbe;" horiz-adv-x="2193" 
d="M481 930l22 94h62q97 0 155 60.5t58 172.5q0 54 -42 86.5t-108 32.5q-55 0 -102 -18q5 -14 10 -29l10 -30q10 -30 10 -74q0 -117 -127 -117q-27 0 -50 10t-39.5 27t-26 41t-9.5 51q0 84 111 151q112 68 266 68q182 0 274 -58q93 -57 93 -145q0 -204 -291 -260v-10
q242 -20 242 -195q0 -147 -138 -242q-138 -93 -333 -93q-170 0 -276 62q-105 63 -105 159q0 27 9 51t25.5 42t39.5 28t51 10q63 0 98 -33.5t35 -87.5q0 -50 -22 -98q-7 -16 -11 -29q57 -25 104 -25q244 0 244 273q0 125 -151 125h-88zM772 0h-156l1088 1430h158zM2124 374
l-37 -155h-156l-53 -238h-232l56 238h-500l35 153l653 594h213l-135 -592h156zM1835 798l-473 -424h375z" />
    <glyph glyph-name="questiondown" unicode="&#xbf;" horiz-adv-x="1122" 
d="M799 1079q-39 0 -74 15t-61.5 40.5t-42 60t-15.5 73.5t16 72.5t43 58t62 39t72 14.5q38 0 72.5 -14.5t61 -39t42.5 -58t16 -72.5t-15.5 -73.5t-41.5 -60t-61 -40.5t-74 -15zM709 991h86l-76 -389q-93 -7 -165.5 -33.5t-122 -71t-75.5 -104.5t-26 -135q0 -203 194 -203
q74 0 142 43q-31 94 -31 158q0 72 45.5 114t126.5 42q36 0 65.5 -11.5t50.5 -32.5t32.5 -49t11.5 -61q0 -119 -141 -203t-343 -84q-190 0 -311 100t-121 259q0 219 172 361t457 163z" />
    <glyph glyph-name="Agrave" unicode="&#xc0;" horiz-adv-x="1552" 
d="M1109 1528q-98 60 -164.5 103.5t-118.5 78.5q-13 11 -24.5 24.5t-18 29t-8 32t4.5 33.5q12 35 41.5 61t88.5 27q26 0 52 -13.5t44 -39.5q50 -73 96.5 -143.5t95.5 -140.5zM1491 0h-760l19 74q217 15 217 65q0 26 -6 60l-52 278h-487q-174 -268 -174 -325q0 -62 190 -78
l-16 -74h-596l16 74q166 11 240 101q38 46 243.5 362.5t579.5 902.5h199l182 -1047q19 -106 32 -166t21 -76q17 -31 56.5 -51.5t111.5 -25.5zM805 1087l-324 -516h412z" />
    <glyph glyph-name="Aacute" unicode="&#xc1;" horiz-adv-x="1552" 
d="M854 1579q72 70 142 140.5t144 143.5q55 53 114 53q29 0 51 -9.5t37 -24t23 -32.5t9 -36q2 -34 -20.5 -66t-60.5 -53q-64 -32 -157.5 -73t-210.5 -95zM1491 0h-760l19 74q217 15 217 65q0 26 -6 60l-52 278h-487q-174 -268 -174 -325q0 -62 190 -78l-16 -74h-596l16 74
q166 11 240 101q38 46 243.5 362.5t579.5 902.5h199l182 -1047q19 -106 32 -166t21 -76q17 -31 56.5 -51.5t111.5 -25.5zM805 1087l-324 -516h412z" />
    <glyph glyph-name="Acircumflex" unicode="&#xc2;" horiz-adv-x="1552" 
d="M673 1545l263 286q51 59 126 59h1q80 0 115 -59l163 -286l-99 -37l-202 182l-279 -182zM1491 0h-760l19 74q217 15 217 65q0 26 -6 60l-52 278h-487q-174 -268 -174 -325q0 -62 190 -78l-16 -74h-596l16 74q166 11 240 101q38 46 243.5 362.5t579.5 902.5h199l182 -1047
q19 -106 32 -166t21 -76q17 -31 56.5 -51.5t111.5 -25.5zM805 1087l-324 -516h412z" />
    <glyph glyph-name="Atilde" unicode="&#xc3;" horiz-adv-x="1552" 
d="M1403 1771q-18 -40 -44.5 -79t-60.5 -69.5t-73.5 -48.5t-83.5 -16q-35 2 -68.5 9t-71.5 32q-68 44 -97 45q-25 2 -46 -6t-38 -22t-31.5 -32t-26.5 -37l-81 45q53 114 119 163.5t138 50.5q35 1 70.5 -7.5t73.5 -33.5q35 -23 64 -34t46 -11q26 0 45 6.5t34 19t27.5 30.5
t24.5 40zM1491 0h-760l19 74q217 15 217 65q0 26 -6 60l-52 278h-487q-174 -268 -174 -325q0 -62 190 -78l-16 -74h-596l16 74q166 11 240 101q38 46 243.5 362.5t579.5 902.5h199l182 -1047q19 -106 32 -166t21 -76q17 -31 56.5 -51.5t111.5 -25.5zM805 1087l-324 -516h412
z" />
    <glyph glyph-name="Adieresis" unicode="&#xc4;" horiz-adv-x="1552" 
d="M1278 1536q-33 0 -62 13.5t-50 36.5t-33 53t-12 63t12 63t33 53t50 36.5t62 13.5t62 -14t50 -37t33.5 -53t12.5 -62q0 -33 -12 -63t-33 -53t-50 -36.5t-63 -13.5zM742 1536q-34 0 -63 13.5t-50 36t-33 53t-12 63.5t12 63.5t33 53t50 36t63 13.5q33 0 61.5 -14t50 -37
t33.5 -53t12 -62t-12 -62t-33 -53t-50 -37t-62 -14zM1491 0h-760l19 74q217 15 217 65q0 26 -6 60l-52 278h-487q-174 -268 -174 -325q0 -62 190 -78l-16 -74h-596l16 74q166 11 240 101q38 46 243.5 362.5t579.5 902.5h199l182 -1047q19 -106 32 -166t21 -76
q17 -31 56.5 -51.5t111.5 -25.5zM805 1087l-324 -516h412z" />
    <glyph glyph-name="Aring" unicode="&#xc5;" horiz-adv-x="1552" 
d="M1491 0h-760l19 74q217 15 217 65q0 26 -6 60l-52 278h-487q-174 -268 -174 -325q0 -62 190 -78l-16 -74h-596l16 74q166 11 240 101q37 45 238 354t567 882q-83 16 -129.5 65t-46.5 121q0 66 29 116.5t75.5 85t105 52t118.5 17.5q44 0 88.5 -11t79.5 -34t57 -59t22 -87
q0 -44 -13.5 -82.5t-37.5 -69.5t-57 -55t-72 -39l180 -1038q19 -106 32 -166t21 -76q17 -31 56.5 -51.5t111.5 -25.5zM1024 1798q-41 0 -71.5 -17.5t-50.5 -46t-30 -64.5t-10 -73q0 -122 113 -122q42 0 72.5 18t50 47t28.5 65.5t9 73.5q0 119 -111 119zM805 1087l-324 -516
h412z" />
    <glyph glyph-name="AE" unicode="&#xc6;" horiz-adv-x="2202" 
d="M1991 0h-1311l16 74q137 9 179 34q44 26 59 91l90 395h-487q-133 -167 -206.5 -261.5t-89.5 -119.5q-32 -50 -32 -68q0 -55 178 -71l-16 -74h-588l16 74q40 3 74.5 10t65 20.5t59 33.5t57.5 49q25 26 108 125.5t226 276.5l578 714q-31 17 -76.5 28t-108.5 15l17 73h1446
l-84 -362h-76q-12 89 -61 165q-48 76 -95 93q-46 18 -192 18h-187l-129 -555h125q66 0 114.5 17.5t85 50t64.5 78t54 102.5h75l-137 -592h-76q6 150 -36 204q-40 54 -162 54h-125l-96 -416q-17 -76 -17 -104q0 -54 43 -70q42 -16 152 -16q32 0 73 1t83.5 6.5t81.5 16.5
t66 30q16 11 38 33t47 49.5t51 59t49 61t42 55.5t30 44h74zM1196 1333h-68l-516 -645h435z" />
    <glyph glyph-name="Ccedilla" unicode="&#xc7;" horiz-adv-x="1464" 
d="M1411 356q-249 -391 -681 -395l-11 -57q215 0 215 -129q0 -114 -108 -166q-109 -53 -386 -53l19 77q166 0 216 19q52 18 52 72q0 55 -125 55l41 185q-124 10 -226.5 56t-176 122t-114 180t-40.5 231q0 366 263 635q262 268 646 268q44 0 100 -6t113 -17.5t110.5 -28.5
t90.5 -40l76 55h86l-111 -518h-88q-7 84 -30.5 167t-68.5 149.5t-113.5 107.5t-166.5 41q-230 0 -373 -255q-143 -254 -143 -593q0 -86 21 -162.5t65 -134.5t111.5 -91.5t161.5 -33.5q261 0 499 312z" />
    <glyph glyph-name="Egrave" unicode="&#xc8;" horiz-adv-x="1477" 
d="M1049 1528q-98 60 -164.5 103.5t-118.5 78.5q-13 11 -24.5 24.5t-18 29t-8 32t4.5 33.5q12 35 41.5 61t88.5 27q26 0 52 -13.5t44 -39.5q50 -73 96.5 -143.5t95.5 -140.5zM1438 1057h-76q-12 86 -62 163q-50 79 -95 95q-46 18 -193 18h-197l-127 -555h135q68 0 116 17
t84.5 49t64 78t53.5 104h76l-138 -592h-75v37q0 104 -36 162q-36 59 -163 59h-137l-90 -393q-21 -91 -21 -117q0 -54 31 -75q32 -21 168 -21q166 0 242 18q78 20 190 161q113 143 135 177h72l-129 -442h-1321l16 74q126 0 172 27q47 29 66 94l227 993q5 22 7.5 36t2.5 19
q0 78 -180 103l16 73h1248z" />
    <glyph glyph-name="Eacute" unicode="&#xc9;" horiz-adv-x="1477" 
d="M854 1579q72 70 142 140.5t144 143.5q55 53 114 53q29 0 51 -9.5t37 -24t23 -32.5t9 -36q2 -34 -20.5 -66t-60.5 -53q-64 -32 -157.5 -73t-210.5 -95zM1438 1057h-76q-12 86 -62 163q-50 79 -95 95q-46 18 -193 18h-197l-127 -555h135q68 0 116 17t84.5 49t64 78
t53.5 104h76l-138 -592h-75v37q0 104 -36 162q-36 59 -163 59h-137l-90 -393q-21 -91 -21 -117q0 -54 31 -75q32 -21 168 -21q166 0 242 18q78 20 190 161q113 143 135 177h72l-129 -442h-1321l16 74q126 0 172 27q47 29 66 94l227 993q5 22 7.5 36t2.5 19q0 78 -180 103
l16 73h1248z" />
    <glyph glyph-name="Ecircumflex" unicode="&#xca;" horiz-adv-x="1477" 
d="M663 1545l263 286q51 59 126 59h1q80 0 115 -59l163 -286l-99 -37l-202 182l-279 -182zM1438 1057h-76q-12 86 -62 163q-50 79 -95 95q-46 18 -193 18h-197l-127 -555h135q68 0 116 17t84.5 49t64 78t53.5 104h76l-138 -592h-75v37q0 104 -36 162q-36 59 -163 59h-137
l-90 -393q-21 -91 -21 -117q0 -54 31 -75q32 -21 168 -21q166 0 242 18q78 20 190 161q113 143 135 177h72l-129 -442h-1321l16 74q126 0 172 27q47 29 66 94l227 993q5 22 7.5 36t2.5 19q0 78 -180 103l16 73h1248z" />
    <glyph glyph-name="Edieresis" unicode="&#xcb;" horiz-adv-x="1477" 
d="M1194 1536q-33 0 -62 13.5t-50 36.5t-33 53t-12 63t12 63t33 53t50 36.5t62 13.5t62 -14t50 -37t33.5 -53t12.5 -62q0 -33 -12 -63t-33 -53t-50 -36.5t-63 -13.5zM658 1536q-34 0 -63 13.5t-50 36t-33 53t-12 63.5t12 63.5t33 53t50 36t63 13.5q33 0 61.5 -14t50 -37
t33.5 -53t12 -62t-12 -62t-33 -53t-50 -37t-62 -14zM1438 1057h-76q-12 86 -62 163q-50 79 -95 95q-46 18 -193 18h-197l-127 -555h135q68 0 116 17t84.5 49t64 78t53.5 104h76l-138 -592h-75v37q0 104 -36 162q-36 59 -163 59h-137l-90 -393q-21 -91 -21 -117q0 -54 31 -75
q32 -21 168 -21q166 0 242 18q78 20 190 161q113 143 135 177h72l-129 -442h-1321l16 74q126 0 172 27q47 29 66 94l227 993q5 22 7.5 36t2.5 19q0 78 -180 103l16 73h1248z" />
    <glyph glyph-name="Igrave" unicode="&#xcc;" horiz-adv-x="924" 
d="M768 1528q-98 60 -164.5 103.5t-118.5 78.5q-13 11 -24.5 24.5t-18 29t-8 32t4.5 33.5q12 35 41.5 61t88.5 27q26 0 52 -13.5t44 -39.5q50 -73 96.5 -143.5t95.5 -140.5zM-43 74q107 0 164 22t80 99l227 993q5 22 7.5 36t2.5 19q0 76 -188 103l16 73h787l-17 -73
q-156 -13 -194 -41q-37 -25 -51 -86l-230 -994q-8 -37 -8 -55q0 -42 36 -65q37 -20 154 -31l-18 -74h-786z" />
    <glyph glyph-name="Iacute" unicode="&#xcd;" horiz-adv-x="924" 
d="M504 1579q72 70 142 140.5t144 143.5q55 53 114 53q29 0 51 -9.5t37 -24t23 -32.5t9 -36q2 -34 -20.5 -66t-60.5 -53q-64 -32 -157.5 -73t-210.5 -95zM-43 74q107 0 164 22t80 99l227 993q5 22 7.5 36t2.5 19q0 76 -188 103l16 73h787l-17 -73q-156 -13 -194 -41
q-37 -25 -51 -86l-230 -994q-8 -37 -8 -55q0 -42 36 -65q37 -20 154 -31l-18 -74h-786z" />
    <glyph glyph-name="Icircumflex" unicode="&#xce;" horiz-adv-x="924" 
d="M997 1485l-311 203l-383 -203l-33 28q293 302 331 328q39 27 109 27q72 0 98 -26q27 -27 92 -129q16 -25 48.5 -75t83.5 -125zM-43 74q107 0 164 22t80 99l227 993q5 22 7.5 36t2.5 19q0 76 -188 103l16 73h787l-17 -73q-156 -13 -194 -41q-37 -25 -51 -86l-230 -994
q-8 -37 -8 -55q0 -42 36 -65q37 -20 154 -31l-18 -74h-786z" />
    <glyph glyph-name="Idieresis" unicode="&#xcf;" horiz-adv-x="924" 
d="M942 1534q-34 0 -63 13.5t-50 36t-33 53t-12 63.5t12 63t33 53t50 36.5t63 13.5q33 0 62 -14t50.5 -37t33.5 -53t12 -62t-12 -62t-33.5 -53t-50.5 -37t-62 -14zM446 1534q-34 0 -62.5 13.5t-49.5 36.5t-33 53t-12 63t12 63t33 53t50 36.5t62 13.5t62 -14t50.5 -37
t33.5 -53t12 -62t-12 -62t-33.5 -53t-50.5 -37t-62 -14zM-43 74q107 0 164 22t80 99l227 993q5 22 7.5 36t2.5 19q0 76 -188 103l16 73h787l-17 -73q-156 -13 -194 -41q-37 -25 -51 -86l-230 -994q-8 -37 -8 -55q0 -42 36 -65q37 -20 154 -31l-18 -74h-786z" />
    <glyph glyph-name="Eth" unicode="&#xd0;" horiz-adv-x="1708" 
d="M117 688l22 100h197l90 400q5 22 7.5 36t2.5 19q0 78 -180 103l16 73h727q297 0 491 -145q196 -144 196 -414q0 -381 -284 -621q-284 -239 -718 -239h-739l16 74q126 0 172 27q47 29 66 94l112 493h-194zM993 788l-22 -100h-303l-99 -424q-10 -41 -10 -67
q0 -111 176 -111q249 0 402 241q153 242 153 582q0 204 -89.5 314t-262.5 110q-34 0 -65 -1t-60 -3l-123 -541h303z" />
    <glyph glyph-name="Ntilde" unicode="&#xd1;" horiz-adv-x="1700" 
d="M1520 1842q-20 -47 -54 -98.5t-78 -95t-96 -71.5t-108 -28q-89 0 -199 57q-101 53 -155 53q-35 0 -67 -27q-30 -25 -91 -120l-70 29q158 299 332 299q82 0 189 -56q115 -53 155 -53q59 0 93 31q38 33 83 112zM1866 1346l-34 -5q-136 -18 -188 -76q-51 -56 -98 -255
l-235 -1018h-168l-613 1136l-161 -708q-27 -118 -27 -184q0 -76 39 -109q40 -32 158 -53l-19 -74h-608l16 74q155 13 213 70q57 56 107 264l153 667q13 55 13 82q0 155 -199 189l18 73h525l534 -999l133 579q27 119 27 181q0 47 -15.5 76t-42 46.5t-62 27t-75.5 16.5l17 73
h608z" />
    <glyph glyph-name="Ograve" unicode="&#xd2;" horiz-adv-x="1679" 
d="M1107 1528q-98 60 -164.5 103.5t-118.5 78.5q-13 11 -24.5 24.5t-18 29t-8 32t4.5 33.5q12 35 41.5 61t88.5 27q26 0 52 -13.5t44 -39.5q50 -73 96.5 -143.5t95.5 -140.5zM727 -39q-133 0 -249.5 39t-203.5 113.5t-137.5 183.5t-50.5 248q0 378 272 645q272 268 658 268
q132 0 249.5 -39t205.5 -113.5t139 -183t51 -248.5q0 -376 -266 -645q-265 -268 -668 -268zM993 1366q-222 0 -371 -276q-147 -276 -147 -644q0 -189 73 -291t208 -102q224 0 370 278q146 280 146 642q0 187 -71 290t-208 103z" />
    <glyph glyph-name="Oacute" unicode="&#xd3;" horiz-adv-x="1679" 
d="M904 1579q72 70 142 140.5t144 143.5q55 53 114 53q29 0 51 -9.5t37 -24t23 -32.5t9 -36q2 -34 -20.5 -66t-60.5 -53q-64 -32 -157.5 -73t-210.5 -95zM727 -39q-133 0 -249.5 39t-203.5 113.5t-137.5 183.5t-50.5 248q0 378 272 645q272 268 658 268q132 0 249.5 -39
t205.5 -113.5t139 -183t51 -248.5q0 -376 -266 -645q-265 -268 -668 -268zM993 1366q-222 0 -371 -276q-147 -276 -147 -644q0 -189 73 -291t208 -102q224 0 370 278q146 280 146 642q0 187 -71 290t-208 103z" />
    <glyph glyph-name="Ocircumflex" unicode="&#xd4;" horiz-adv-x="1679" 
d="M691 1545l263 286q51 59 126 59h1q80 0 115 -59l163 -286l-99 -37l-202 182l-279 -182zM727 -39q-133 0 -249.5 39t-203.5 113.5t-137.5 183.5t-50.5 248q0 378 272 645q272 268 658 268q132 0 249.5 -39t205.5 -113.5t139 -183t51 -248.5q0 -376 -266 -645
q-265 -268 -668 -268zM993 1366q-222 0 -371 -276q-147 -276 -147 -644q0 -189 73 -291t208 -102q224 0 370 278q146 280 146 642q0 187 -71 290t-208 103z" />
    <glyph glyph-name="Otilde" unicode="&#xd5;" horiz-adv-x="1679" 
d="M1430 1771q-18 -40 -44.5 -79t-60.5 -69.5t-73.5 -48.5t-83.5 -16q-35 2 -68.5 9t-71.5 32q-68 44 -97 45q-25 2 -46 -6t-38 -22t-31.5 -32t-26.5 -37l-81 45q53 114 119 163.5t138 50.5q35 1 70.5 -7.5t73.5 -33.5q35 -23 64 -34t46 -11q26 0 45 6.5t34 19t27.5 30.5
t24.5 40zM727 -39q-133 0 -249.5 39t-203.5 113.5t-137.5 183.5t-50.5 248q0 378 272 645q272 268 658 268q132 0 249.5 -39t205.5 -113.5t139 -183t51 -248.5q0 -376 -266 -645q-265 -268 -668 -268zM993 1366q-222 0 -371 -276q-147 -276 -147 -644q0 -189 73 -291
t208 -102q224 0 370 278q146 280 146 642q0 187 -71 290t-208 103z" />
    <glyph glyph-name="Odieresis" unicode="&#xd6;" horiz-adv-x="1679" 
d="M1288 1536q-33 0 -62 13.5t-50 36.5t-33 53t-12 63t12 63t33 53t50 36.5t62 13.5t62 -14t50 -37t33.5 -53t12.5 -62q0 -33 -12 -63t-33 -53t-50 -36.5t-63 -13.5zM752 1536q-34 0 -63 13.5t-50 36t-33 53t-12 63.5t12 63.5t33 53t50 36t63 13.5q33 0 61.5 -14t50 -37
t33.5 -53t12 -62t-12 -62t-33 -53t-50 -37t-62 -14zM727 -39q-133 0 -249.5 39t-203.5 113.5t-137.5 183.5t-50.5 248q0 378 272 645q272 268 658 268q132 0 249.5 -39t205.5 -113.5t139 -183t51 -248.5q0 -376 -266 -645q-265 -268 -668 -268zM993 1366q-222 0 -371 -276
q-147 -276 -147 -644q0 -189 73 -291t208 -102q224 0 370 278q146 280 146 642q0 187 -71 290t-208 103z" />
    <glyph glyph-name="multiply" unicode="&#xd7;" horiz-adv-x="1440" 
d="M1124 78l-383 383l-383 -383l-114 115l385 382l-385 381l114 117l383 -385l383 385l115 -117l-385 -381l385 -382z" />
    <glyph glyph-name="Oslash" unicode="&#xd8;" horiz-adv-x="1679" 
d="M252 139q-166 166 -166 406q0 378 272 645q272 268 658 268q227 0 399 -115l160 166l74 -67l-156 -162q168 -162 168 -406q0 -376 -266 -645q-265 -268 -668 -268q-232 0 -399 115l-164 -170l-76 67zM1249 1171q-66 195 -256 195q-226 0 -374 -274t-148 -646v-41
q0 -11 0.5 -20.5t1.5 -17.5zM498 252q67 -199 258 -199q227 0 374 276q148 275 148 644q0 24 -1 45.5t-3 40.5z" />
    <glyph glyph-name="Ugrave" unicode="&#xd9;" horiz-adv-x="1706" 
d="M1153 1528q-98 60 -164.5 103.5t-118.5 78.5q-13 11 -24.5 24.5t-18 29t-8 32t4.5 33.5q12 35 41.5 61t88.5 27q26 0 52 -13.5t44 -39.5q50 -73 96.5 -143.5t95.5 -140.5zM397 1190q11 50 11 53q0 78 -181 103l19 73h760l-19 -73q-112 -8 -161 -33q-50 -24 -62 -92
l-164 -699q-20 -88 -20 -174q0 -252 288 -252q94 0 171.5 32.5t136.5 89.5t99.5 133t59.5 163l113 487q27 116 27 181q0 82 -50 114q-50 34 -149 50l16 73h615l-17 -73q-168 -21 -220 -76q-53 -56 -101 -258l-123 -535q-29 -126 -93.5 -222t-155.5 -161.5t-203.5 -99
t-237.5 -33.5q-130 0 -231 25.5t-169 74.5t-103.5 120.5t-35.5 162.5q0 70 16 135z" />
    <glyph glyph-name="Uacute" unicode="&#xda;" horiz-adv-x="1706" 
d="M1004 1579q72 70 142 140.5t144 143.5q55 53 114 53q29 0 51 -9.5t37 -24t23 -32.5t9 -36q2 -34 -20.5 -66t-60.5 -53q-64 -32 -157.5 -73t-210.5 -95zM397 1190q11 50 11 53q0 78 -181 103l19 73h760l-19 -73q-112 -8 -161 -33q-50 -24 -62 -92l-164 -699
q-20 -88 -20 -174q0 -252 288 -252q94 0 171.5 32.5t136.5 89.5t99.5 133t59.5 163l113 487q27 116 27 181q0 82 -50 114q-50 34 -149 50l16 73h615l-17 -73q-168 -21 -220 -76q-53 -56 -101 -258l-123 -535q-29 -126 -93.5 -222t-155.5 -161.5t-203.5 -99t-237.5 -33.5
q-130 0 -231 25.5t-169 74.5t-103.5 120.5t-35.5 162.5q0 70 16 135z" />
    <glyph glyph-name="Ucircumflex" unicode="&#xdb;" horiz-adv-x="1706" 
d="M1468 1485l-311 203l-383 -203l-33 28q293 302 331 328q39 27 109 27q72 0 98 -26q27 -27 92 -129q16 -25 48.5 -75t83.5 -125zM397 1190q11 50 11 53q0 78 -181 103l19 73h760l-19 -73q-112 -8 -161 -33q-50 -24 -62 -92l-164 -699q-20 -88 -20 -174q0 -252 288 -252
q94 0 171.5 32.5t136.5 89.5t99.5 133t59.5 163l113 487q27 116 27 181q0 82 -50 114q-50 34 -149 50l16 73h615l-17 -73q-168 -21 -220 -76q-53 -56 -101 -258l-123 -535q-29 -126 -93.5 -222t-155.5 -161.5t-203.5 -99t-237.5 -33.5q-130 0 -231 25.5t-169 74.5
t-103.5 120.5t-35.5 162.5q0 70 16 135z" />
    <glyph glyph-name="Udieresis" unicode="&#xdc;" horiz-adv-x="1706" 
d="M1425 1536q-33 0 -62 13.5t-50 36.5t-33 53t-12 63t12 63t33 53t50 36.5t62 13.5t62 -14t50 -37t33.5 -53t12.5 -62q0 -33 -12 -63t-33 -53t-50 -36.5t-63 -13.5zM889 1536q-34 0 -63 13.5t-50 36t-33 53t-12 63.5t12 63.5t33 53t50 36t63 13.5q33 0 61.5 -14t50 -37
t33.5 -53t12 -62t-12 -62t-33 -53t-50 -37t-62 -14zM397 1190q11 50 11 53q0 78 -181 103l19 73h760l-19 -73q-112 -8 -161 -33q-50 -24 -62 -92l-164 -699q-20 -88 -20 -174q0 -252 288 -252q94 0 171.5 32.5t136.5 89.5t99.5 133t59.5 163l113 487q27 116 27 181
q0 82 -50 114q-50 34 -149 50l16 73h615l-17 -73q-168 -21 -220 -76q-53 -56 -101 -258l-123 -535q-29 -126 -93.5 -222t-155.5 -161.5t-203.5 -99t-237.5 -33.5q-130 0 -231 25.5t-169 74.5t-103.5 120.5t-35.5 162.5q0 70 16 135z" />
    <glyph glyph-name="Yacute" unicode="&#xdd;" horiz-adv-x="1499" 
d="M897 1579q72 70 142 140.5t144 143.5q55 53 114 53q29 0 51 -9.5t37 -24t23 -32.5t9 -36q2 -34 -20.5 -66t-60.5 -53q-64 -32 -157.5 -73t-210.5 -95zM1753 1346q-47 -6 -85 -20t-71.5 -34.5t-64 -47.5t-63.5 -60q-42 -42 -111 -119.5t-169 -192.5q-99 -115 -156 -184.5
t-73 -95.5t-30.5 -69t-28.5 -105l-43 -187q-8 -37 -8 -55q0 -52 41 -72q40 -18 149 -30l-16 -74h-791l17 74q147 10 188 34q40 24 60 95l57 254q8 35 12 57.5t4 30.5q0 13 -12.5 55t-31.5 99.5t-42.5 122.5t-45 124t-39 105.5t-25.5 65.5q-57 148 -109 185q-52 38 -141 44
l16 73h795l-18 -73q-203 -11 -203 -58q0 -72 188 -594l412 487q61 79 61 101q0 55 -164 64l19 73h538z" />
    <glyph glyph-name="Thorn" unicode="&#xde;" horiz-adv-x="1450" 
d="M559 225q-8 -34 -8 -55q0 -41 33 -64q34 -22 145 -32l-16 -74h-768l16 74q19 0 48.5 2.5t59.5 8t56 15.5t38 25q26 32 36 70l227 993q5 22 7.5 36t2.5 19q0 78 -180 103l16 73h766l-16 -73q-151 -15 -183 -40q-33 -25 -51 -87l-16 -74h205q487 0 487 -316
q0 -224 -195 -364q-194 -139 -464 -139h-221zM752 1051l-148 -631h76q94 0 166.5 27.5t121.5 81t74 131t25 176.5q0 215 -248 215h-67z" />
    <glyph glyph-name="germandbls" unicode="&#xdf;" horiz-adv-x="1343" 
d="M295 1018q17 82 43.5 150.5t66 126t95.5 104t132 84.5q137 67 304 67q176 0 294 -73q118 -72 118 -195q0 -74 -31 -133t-81.5 -102.5t-114.5 -71.5t-130 -41v-12q65 -14 118 -42.5t90.5 -71.5t58 -98.5t20.5 -123.5q0 -250 -170 -423t-399 -173q-120 0 -224 18l19 86
q23 -5 45.5 -7.5t42.5 -2.5q145 0 238 167q94 167 94 392q0 242 -185 242h-28l20 88h37q112 0 189 89t77 243q0 161 -131 161q-106 0 -165 -89q-57 -87 -101 -292l-217 -1026q-42 -200 -216 -351q-173 -152 -376 -152q-291 0 -291 192q0 33 12 60t33 46.5t49 30.5t60 11
q141 0 243 -258q86 86 150 385z" />
    <glyph glyph-name="agrave" unicode="&#xe0;" horiz-adv-x="1352" 
d="M866 1133q-98 60 -164.5 103.5t-118.5 78.5q-13 11 -24.5 24.5t-18 29t-8 32t4.5 33.5q12 35 41.5 61t88.5 27q26 0 52 -13.5t44 -39.5q50 -73 96.5 -143.5t95.5 -140.5zM1307 59q-195 -79 -297 -79q-195 0 -250 145h-8q-175 -156 -336 -156q-171 0 -260.5 99.5
t-89.5 283.5q0 272 180 468t428 196q172 0 266 -78l307 61l15 -16l-148 -614q-24 -100 -24 -148q0 -57 25.5 -78.5t88.5 -21.5q54 0 123 29zM879 760q8 34 -23 94q-31 61 -123 61q-126 0 -218 -170q-91 -169 -91 -397q0 -227 156 -227q77 0 172 94z" />
    <glyph glyph-name="aacute" unicode="&#xe1;" horiz-adv-x="1352" 
d="M648 1185q72 70 142 140.5t144 143.5q55 53 114 53q29 0 51 -9.5t37 -24t23 -32.5t9 -36q2 -34 -20.5 -66t-60.5 -53q-64 -32 -157.5 -73t-210.5 -95zM1307 59q-195 -79 -297 -79q-195 0 -250 145h-8q-175 -156 -336 -156q-171 0 -260.5 99.5t-89.5 283.5q0 272 180 468
t428 196q172 0 266 -78l307 61l15 -16l-148 -614q-24 -100 -24 -148q0 -57 25.5 -78.5t88.5 -21.5q54 0 123 29zM879 760q8 34 -23 94q-31 61 -123 61q-126 0 -218 -170q-91 -169 -91 -397q0 -227 156 -227q77 0 172 94z" />
    <glyph glyph-name="acircumflex" unicode="&#xe2;" horiz-adv-x="1352" 
d="M452 1151l263 286q51 59 126 59h1q80 0 115 -59l163 -286l-99 -37l-202 182l-279 -182zM1307 59q-195 -79 -297 -79q-195 0 -250 145h-8q-175 -156 -336 -156q-171 0 -260.5 99.5t-89.5 283.5q0 272 180 468t428 196q172 0 266 -78l307 61l15 -16l-148 -614
q-24 -100 -24 -148q0 -57 25.5 -78.5t88.5 -21.5q54 0 123 29zM879 760q8 34 -23 94q-31 61 -123 61q-126 0 -218 -170q-91 -169 -91 -397q0 -227 156 -227q77 0 172 94z" />
    <glyph glyph-name="atilde" unicode="&#xe3;" horiz-adv-x="1352" 
d="M1186 1377q-18 -40 -44.5 -79t-60.5 -69.5t-73.5 -48.5t-83.5 -16q-35 2 -68.5 9t-71.5 32q-68 44 -97 45q-25 2 -46 -6t-38 -22t-31.5 -32t-26.5 -37l-81 45q53 114 119 163.5t138 50.5q35 1 70.5 -7.5t73.5 -33.5q35 -23 64 -34t46 -11q26 0 45 6.5t34 19t27.5 30.5
t24.5 40zM1307 59q-195 -79 -297 -79q-195 0 -250 145h-8q-175 -156 -336 -156q-171 0 -260.5 99.5t-89.5 283.5q0 272 180 468t428 196q172 0 266 -78l307 61l15 -16l-148 -614q-24 -100 -24 -148q0 -57 25.5 -78.5t88.5 -21.5q54 0 123 29zM879 760q8 34 -23 94
q-31 61 -123 61q-126 0 -218 -170q-91 -169 -91 -397q0 -227 156 -227q77 0 172 94z" />
    <glyph glyph-name="adieresis" unicode="&#xe4;" horiz-adv-x="1352" 
d="M999 1184q-34 0 -63 13.5t-50 36t-33 53t-12 63.5t12 63t33 53t50 36.5t63 13.5q33 0 62 -14t50.5 -37t33.5 -53t12 -62t-12 -62t-33.5 -53t-50.5 -37t-62 -14zM503 1184q-34 0 -62.5 13.5t-49.5 36.5t-33 53t-12 63t12 63t33 53t50 36.5t62 13.5t62 -14t50.5 -37
t33.5 -53t12 -62t-12 -62t-33.5 -53t-50.5 -37t-62 -14zM1307 59q-195 -79 -297 -79q-195 0 -250 145h-8q-175 -156 -336 -156q-171 0 -260.5 99.5t-89.5 283.5q0 272 180 468t428 196q172 0 266 -78l307 61l15 -16l-148 -614q-24 -100 -24 -148q0 -57 25.5 -78.5
t88.5 -21.5q54 0 123 29zM879 760q8 34 -23 94q-31 61 -123 61q-126 0 -218 -170q-91 -169 -91 -397q0 -227 156 -227q77 0 172 94z" />
    <glyph glyph-name="aring" unicode="&#xe5;" horiz-adv-x="1352" 
d="M490 1296q0 66 29 116.5t75.5 85t105 52t118.5 17.5q44 0 88.5 -11t79.5 -34t57 -59t22 -87q0 -67 -28.5 -118t-74.5 -85t-104.5 -51.5t-119.5 -17.5q-57 0 -103 13.5t-78.5 39t-49.5 61t-17 78.5zM803 1497q-41 0 -71.5 -17.5t-50.5 -46t-30 -64.5t-10 -73
q0 -122 113 -122q42 0 72.5 18t50 47t28.5 65.5t9 73.5q0 119 -111 119zM1307 59q-195 -79 -297 -79q-195 0 -250 145h-8q-175 -156 -336 -156q-171 0 -260.5 99.5t-89.5 283.5q0 272 180 468t428 196q172 0 266 -78l307 61l15 -16l-148 -614q-24 -100 -24 -148
q0 -57 25.5 -78.5t88.5 -21.5q54 0 123 29zM879 760q8 34 -23 94q-31 61 -123 61q-126 0 -218 -170q-91 -169 -91 -397q0 -227 156 -227q77 0 172 94z" />
    <glyph glyph-name="ae" unicode="&#xe6;" horiz-adv-x="1753" 
d="M1018 410q3 -291 219 -291q219 0 358 190l72 -61q-45 -64 -103 -115.5t-125.5 -88.5t-142 -57t-153.5 -20q-308 0 -418 197h-8q-185 -197 -436 -197q-51 0 -97.5 13t-82 40t-57 68t-21.5 96q0 186 164 275q83 45 215.5 82.5t318.5 68.5l24 115q13 59 13 84
q0 127 -117 127q-74 0 -129 -35q0 -19 4 -42t4 -54q0 -168 -198 -168q-150 0 -150 119q0 110 158 185t342 75q223 0 327 -88q173 88 328 88q367 0 367 -230q0 -309 -676 -376zM1020 492q182 18 265 77q83 60 83 191q0 176 -117 176q-76 0 -142 -119q-65 -119 -89 -325z
M694 254q-10 36 -10 121q0 88 16 145q-340 -55 -340 -278q0 -119 113 -119q122 0 221 131z" />
    <glyph glyph-name="ccedilla" unicode="&#xe7;" horiz-adv-x="1098" 
d="M807 893q-39 43 -109 43q-114 0 -192 -141q-78 -139 -78 -351q0 -323 225 -323q59 0 106 12t86 35.5t73.5 59t68.5 81.5l72 -61q-43 -64 -98 -116t-120 -88.5t-137.5 -56.5t-150.5 -20l-12 -63q215 0 215 -129q0 -114 -108 -166q-109 -53 -386 -53l19 77q166 0 216 19
q52 18 52 72q0 55 -125 55l43 193q-91 10 -164 42t-125 86t-80 128.5t-28 168.5q0 259 178 438q178 181 469 181q178 0 271 -64.5t93 -181.5q0 -42 -12.5 -78.5t-36 -63t-57.5 -42t-78 -15.5q-25 0 -54 7t-53.5 22t-40.5 37.5t-16 52.5q0 75 74 203z" />
    <glyph glyph-name="egrave" unicode="&#xe8;" horiz-adv-x="1141" 
d="M786 1133q-98 60 -164.5 103.5t-118.5 78.5q-13 11 -24.5 24.5t-18 29t-8 32t4.5 33.5q12 35 41.5 61t88.5 27q26 0 52 -13.5t44 -39.5q50 -73 96.5 -143.5t95.5 -140.5zM420 410q8 -291 221 -291q219 0 358 190l72 -61q-45 -64 -103 -115.5t-125.5 -88.5t-142 -57
t-153.5 -20q-102 0 -189.5 26t-151.5 79t-100 133.5t-36 189.5q0 257 184 438q185 183 477 183q367 0 367 -230q0 -308 -678 -376zM422 492q211 24 280 87q70 63 70 181q0 176 -117 176q-75 0 -144 -123q-68 -124 -89 -321z" />
    <glyph glyph-name="eacute" unicode="&#xe9;" horiz-adv-x="1141" 
d="M567 1185q72 70 142 140.5t144 143.5q55 53 114 53q29 0 51 -9.5t37 -24t23 -32.5t9 -36q2 -34 -20.5 -66t-60.5 -53q-64 -32 -157.5 -73t-210.5 -95zM420 410q8 -291 221 -291q219 0 358 190l72 -61q-45 -64 -103 -115.5t-125.5 -88.5t-142 -57t-153.5 -20
q-102 0 -189.5 26t-151.5 79t-100 133.5t-36 189.5q0 257 184 438q185 183 477 183q367 0 367 -230q0 -308 -678 -376zM422 492q211 24 280 87q70 63 70 181q0 176 -117 176q-75 0 -144 -123q-68 -124 -89 -321z" />
    <glyph glyph-name="ecircumflex" unicode="&#xea;" horiz-adv-x="1141" 
d="M361 1151l263 286q51 59 126 59h1q80 0 115 -59l163 -286l-99 -37l-202 182l-279 -182zM420 410q8 -291 221 -291q219 0 358 190l72 -61q-45 -64 -103 -115.5t-125.5 -88.5t-142 -57t-153.5 -20q-102 0 -189.5 26t-151.5 79t-100 133.5t-36 189.5q0 257 184 438
q185 183 477 183q367 0 367 -230q0 -308 -678 -376zM422 492q211 24 280 87q70 63 70 181q0 176 -117 176q-75 0 -144 -123q-68 -124 -89 -321z" />
    <glyph glyph-name="edieresis" unicode="&#xeb;" horiz-adv-x="1141" 
d="M948 1184q-34 0 -63 13.5t-50 36t-33 53t-12 63.5t12 63t33 53t50 36.5t63 13.5q33 0 62 -14t50.5 -37t33.5 -53t12 -62t-12 -62t-33.5 -53t-50.5 -37t-62 -14zM452 1184q-34 0 -62.5 13.5t-49.5 36.5t-33 53t-12 63t12 63t33 53t50 36.5t62 13.5t62 -14t50.5 -37
t33.5 -53t12 -62t-12 -62t-33.5 -53t-50.5 -37t-62 -14zM420 410q8 -291 221 -291q219 0 358 190l72 -61q-45 -64 -103 -115.5t-125.5 -88.5t-142 -57t-153.5 -20q-102 0 -189.5 26t-151.5 79t-100 133.5t-36 189.5q0 257 184 438q185 183 477 183q367 0 367 -230
q0 -308 -678 -376zM422 492q211 24 280 87q70 63 70 181q0 176 -117 176q-75 0 -144 -123q-68 -124 -89 -321z" />
    <glyph glyph-name="igrave" unicode="&#xec;" horiz-adv-x="750" 
d="M576 1133q-98 60 -164.5 103.5t-118.5 78.5q-13 11 -24.5 24.5t-18 29t-8 32t4.5 33.5q12 35 41.5 61t88.5 27q26 0 52 -13.5t44 -39.5q50 -73 96.5 -143.5t95.5 -140.5zM690 53q-201 -80 -295 -80q-48 0 -93.5 12t-81 37.5t-56.5 64.5t-21 93q0 78 21 154l82 293
q26 95 26 147q0 55 -23.5 77.5t-86.5 22.5q-39 0 -123 -28l20 90q201 80 295 80q57 0 103 -15t78.5 -42t49.5 -65t17 -85q0 -84 -20 -156l-82 -291q-27 -96 -27 -149q0 -57 27 -77.5t90 -20.5q51 0 123 28z" />
    <glyph glyph-name="iacute" unicode="&#xed;" horiz-adv-x="750" 
d="M360 1185q72 70 142 140.5t144 143.5q55 53 114 53q29 0 51 -9.5t37 -24t23 -32.5t9 -36q2 -34 -20.5 -66t-60.5 -53q-64 -32 -157.5 -73t-210.5 -95zM690 53q-201 -80 -295 -80q-48 0 -93.5 12t-81 37.5t-56.5 64.5t-21 93q0 78 21 154l82 293q26 95 26 147
q0 55 -23.5 77.5t-86.5 22.5q-39 0 -123 -28l20 90q201 80 295 80q57 0 103 -15t78.5 -42t49.5 -65t17 -85q0 -84 -20 -156l-82 -291q-27 -96 -27 -149q0 -57 27 -77.5t90 -20.5q51 0 123 28z" />
    <glyph glyph-name="icircumflex" unicode="&#xee;" horiz-adv-x="750" 
d="M692 1104l-246 254l-340 -254l-51 29l219 287q67 90 94 109q26 19 103 19q30 0 51.5 -3.5t37.5 -13.5t28 -27.5t24 -44.5q8 -20 41.5 -101t91.5 -225zM690 53q-201 -80 -295 -80q-48 0 -93.5 12t-81 37.5t-56.5 64.5t-21 93q0 78 21 154l82 293q26 95 26 147
q0 55 -23.5 77.5t-86.5 22.5q-39 0 -123 -28l20 90q201 80 295 80q57 0 103 -15t78.5 -42t49.5 -65t17 -85q0 -84 -20 -156l-82 -291q-27 -96 -27 -149q0 -57 27 -77.5t90 -20.5q51 0 123 28z" />
    <glyph glyph-name="idieresis" unicode="&#xef;" horiz-adv-x="750" 
d="M684 1184q-33 0 -62 13.5t-50.5 36.5t-33.5 53t-12 63t12 63t33.5 53t50.5 36.5t62 13.5t62 -14t50.5 -37t33.5 -53t12 -62t-12 -62t-33.5 -53t-50.5 -37t-62 -14zM225 1184q-34 0 -62.5 13.5t-49.5 36.5t-33 53t-12 63t12 63t33 53t50 36.5t62 13.5t62 -14t50.5 -37
t33.5 -53t12 -62t-12 -62t-33.5 -53t-50.5 -37t-62 -14zM690 53q-201 -80 -295 -80q-48 0 -93.5 12t-81 37.5t-56.5 64.5t-21 93q0 78 21 154l82 293q26 95 26 147q0 55 -23.5 77.5t-86.5 22.5q-39 0 -123 -28l20 90q201 80 295 80q57 0 103 -15t78.5 -42t49.5 -65t17 -85
q0 -84 -20 -156l-82 -291q-27 -96 -27 -149q0 -57 27 -77.5t90 -20.5q51 0 123 28z" />
    <glyph glyph-name="eth" unicode="&#xf0;" horiz-adv-x="1305" 
d="M948 897q6 83 6 109q0 140 -63 260l-244 -136l-45 82l240 131q-45 65 -135 132l63 73q60 -28 112 -59t99 -66l225 125l45 -82l-198 -106q219 -223 219 -535q0 -380 -196 -619q-197 -239 -517 -239q-101 0 -190.5 26.5t-156 80t-105.5 134t-39 189.5q0 259 177 440
q177 183 435 183q188 0 260 -125zM731 926q-145 0 -228 -189t-83 -428q0 -264 162 -264q133 0 221 198q88 197 88 443q0 240 -160 240z" />
    <glyph glyph-name="ntilde" unicode="&#xf1;" horiz-adv-x="1413" 
d="M1258 1477q-20 -47 -54 -98.5t-78 -95t-96 -71.5t-108 -28q-89 0 -199 57q-101 53 -155 53q-35 0 -67 -27q-30 -25 -91 -120l-70 29q158 299 332 299q82 0 189 -56q115 -53 155 -53q59 0 93 31q38 33 83 112zM1362 63q-195 -79 -295 -79q-48 0 -93.5 12t-81 37t-56.5 64
t-21 93q0 81 21 154l71 266q23 87 23 135q0 103 -103 103q-100 0 -237 -125l-164 -723h-332l142 614q24 104 24 150q0 27 -4.5 45.5t-16.5 30.5t-33 17t-54 5q-49 0 -123 -28l22 90q201 80 295 80q212 0 254 -177h6q212 189 426 189q48 0 90.5 -13.5t75 -40t51.5 -65.5
t19 -90q0 -77 -21 -154l-76 -280q-24 -88 -24 -150q0 -27 5 -45.5t18 -30.5t35.5 -17t56.5 -5q50 0 122 29z" />
    <glyph glyph-name="ograve" unicode="&#xf2;" horiz-adv-x="1303" 
d="M836 1133q-98 60 -164.5 103.5t-118.5 78.5q-13 11 -24.5 24.5t-18 29t-8 32t4.5 33.5q12 35 41.5 61t88.5 27q26 0 52 -13.5t44 -39.5q50 -73 96.5 -143.5t95.5 -140.5zM543 -33q-99 0 -186 26.5t-151 79.5t-101 132.5t-37 185.5q0 269 191 448t489 179
q101 0 189.5 -24.5t154.5 -76t104.5 -131t38.5 -188.5q0 -263 -192 -448q-192 -183 -500 -183zM729 938q-145 0 -228 -197q-81 -196 -81 -465q0 -231 155 -231q140 0 224 200q84 201 84 468q0 225 -154 225z" />
    <glyph glyph-name="oacute" unicode="&#xf3;" horiz-adv-x="1303" 
d="M651 1185q72 70 142 140.5t144 143.5q55 53 114 53q29 0 51 -9.5t37 -24t23 -32.5t9 -36q2 -34 -20.5 -66t-60.5 -53q-64 -32 -157.5 -73t-210.5 -95zM543 -33q-99 0 -186 26.5t-151 79.5t-101 132.5t-37 185.5q0 269 191 448t489 179q101 0 189.5 -24.5t154.5 -76
t104.5 -131t38.5 -188.5q0 -263 -192 -448q-192 -183 -500 -183zM729 938q-145 0 -228 -197q-81 -196 -81 -465q0 -231 155 -231q140 0 224 200q84 201 84 468q0 225 -154 225z" />
    <glyph glyph-name="ocircumflex" unicode="&#xf4;" horiz-adv-x="1303" 
d="M422 1151l263 286q51 59 126 59h1q80 0 115 -59l163 -286l-99 -37l-202 182l-279 -182zM543 -33q-99 0 -186 26.5t-151 79.5t-101 132.5t-37 185.5q0 269 191 448t489 179q101 0 189.5 -24.5t154.5 -76t104.5 -131t38.5 -188.5q0 -263 -192 -448q-192 -183 -500 -183z
M729 938q-145 0 -228 -197q-81 -196 -81 -465q0 -231 155 -231q140 0 224 200q84 201 84 468q0 225 -154 225z" />
    <glyph glyph-name="otilde" unicode="&#xf5;" horiz-adv-x="1303" 
d="M1162 1377q-18 -40 -44.5 -79t-60.5 -69.5t-73.5 -48.5t-83.5 -16q-35 2 -68.5 9t-71.5 32q-68 44 -97 45q-25 2 -46 -6t-38 -22t-31.5 -32t-26.5 -37l-81 45q53 114 119 163.5t138 50.5q35 1 70.5 -7.5t73.5 -33.5q35 -23 64 -34t46 -11q26 0 45 6.5t34 19t27.5 30.5
t24.5 40zM543 -33q-99 0 -186 26.5t-151 79.5t-101 132.5t-37 185.5q0 269 191 448t489 179q101 0 189.5 -24.5t154.5 -76t104.5 -131t38.5 -188.5q0 -263 -192 -448q-192 -183 -500 -183zM729 938q-145 0 -228 -197q-81 -196 -81 -465q0 -231 155 -231q140 0 224 200
q84 201 84 468q0 225 -154 225z" />
    <glyph glyph-name="odieresis" unicode="&#xf6;" horiz-adv-x="1303" 
d="M1026 1184q-34 0 -63 13.5t-50 36t-33 53t-12 63.5t12 63t33 53t50 36.5t63 13.5q33 0 62 -14t50.5 -37t33.5 -53t12 -62t-12 -62t-33.5 -53t-50.5 -37t-62 -14zM530 1184q-63 0 -110 48q-47 50 -47 118t47 117q46 49 110 49q33 0 62 -14t50.5 -37t33.5 -53t12 -62
t-12 -62t-33.5 -53t-50.5 -37t-62 -14zM543 -33q-99 0 -186 26.5t-151 79.5t-101 132.5t-37 185.5q0 269 191 448t489 179q101 0 189.5 -24.5t154.5 -76t104.5 -131t38.5 -188.5q0 -263 -192 -448q-192 -183 -500 -183zM729 938q-145 0 -228 -197q-81 -196 -81 -465
q0 -231 155 -231q140 0 224 200q84 201 84 468q0 225 -154 225z" />
    <glyph glyph-name="divide" unicode="&#xf7;" horiz-adv-x="1440" 
d="M741 815q-34 0 -63.5 13.5t-51 36t-34 52.5t-12.5 64t12 64.5t34 53.5t51.5 36.5t63.5 13.5q35 0 64.5 -13.5t51 -36.5t34 -53.5t12.5 -64.5t-12.5 -64t-34 -52.5t-51 -36t-64.5 -13.5zM186 494v161h1110v-161h-1110zM741 0q-34 0 -63.5 13t-51.5 35.5t-34 53t-12 64.5
t12 64.5t34 53.5t51.5 36.5t63.5 13.5q35 0 64.5 -13.5t51 -36.5t34 -53.5t12.5 -64.5t-12.5 -64.5t-34 -53t-51 -35.5t-64.5 -13z" />
    <glyph glyph-name="oslash" unicode="&#xf8;" horiz-adv-x="1303" 
d="M180 104q-112 112 -112 287q0 269 191 448t489 179q176 0 301 -76l161 156l66 -62l-156 -149q115 -112 115 -289q0 -263 -192 -448q-192 -183 -500 -183q-161 0 -291 80l-174 -168l-66 62zM883 780q-29 158 -154 158q-135 0 -219 -166q-42 -84 -65.5 -194t-28.5 -250z
M420 209q20 -164 155 -164q128 0 214 170q84 169 98 449z" />
    <glyph glyph-name="ugrave" unicode="&#xf9;" horiz-adv-x="1403" 
d="M808 1133q-98 60 -164.5 103.5t-118.5 78.5q-13 11 -24.5 24.5t-18 29t-8 32t4.5 33.5q12 35 41.5 61t88.5 27q26 0 52 -13.5t44 -39.5q50 -73 96.5 -143.5t95.5 -140.5zM1358 61q-200 -79 -295 -79q-217 0 -260 178h-6q-201 -189 -420 -189q-48 0 -91 13.5t-74.5 39.5
t-50 65.5t-18.5 90.5q0 68 23 154l76 280q24 89 24 148q0 54 -22.5 77t-85.5 23q-54 0 -123 -28l20 90q204 80 295 80q48 0 93 -12.5t79.5 -38t55 -64.5t20.5 -92q0 -90 -18 -156l-74 -266q-23 -84 -23 -133q0 -103 99 -103q97 0 231 125l166 721l317 14l13 -14l-142 -614
q-13 -57 -19.5 -93.5t-6.5 -54.5q0 -57 25.5 -78.5t88.5 -21.5q57 0 123 29z" />
    <glyph glyph-name="uacute" unicode="&#xfa;" horiz-adv-x="1403" 
d="M666 1185q72 70 142 140.5t144 143.5q55 53 114 53q29 0 51 -9.5t37 -24t23 -32.5t9 -36q2 -34 -20.5 -66t-60.5 -53q-64 -32 -157.5 -73t-210.5 -95zM1358 61q-200 -79 -295 -79q-217 0 -260 178h-6q-201 -189 -420 -189q-48 0 -91 13.5t-74.5 39.5t-50 65.5t-18.5 90.5
q0 68 23 154l76 280q24 89 24 148q0 54 -22.5 77t-85.5 23q-54 0 -123 -28l20 90q204 80 295 80q48 0 93 -12.5t79.5 -38t55 -64.5t20.5 -92q0 -90 -18 -156l-74 -266q-23 -84 -23 -133q0 -103 99 -103q97 0 231 125l166 721l317 14l13 -14l-142 -614q-13 -57 -19.5 -93.5
t-6.5 -54.5q0 -57 25.5 -78.5t88.5 -21.5q57 0 123 29z" />
    <glyph glyph-name="ucircumflex" unicode="&#xfb;" horiz-adv-x="1403" 
d="M1079 1104l-278 254l-359 -254l-49 29q138 180 217.5 276t102.5 110q47 29 116 29q78 0 118 -49q20 -25 66 -116t119 -250zM1358 61q-200 -79 -295 -79q-217 0 -260 178h-6q-201 -189 -420 -189q-48 0 -91 13.5t-74.5 39.5t-50 65.5t-18.5 90.5q0 68 23 154l76 280
q24 89 24 148q0 54 -22.5 77t-85.5 23q-54 0 -123 -28l20 90q204 80 295 80q48 0 93 -12.5t79.5 -38t55 -64.5t20.5 -92q0 -90 -18 -156l-74 -266q-23 -84 -23 -133q0 -103 99 -103q97 0 231 125l166 721l317 14l13 -14l-142 -614q-13 -57 -19.5 -93.5t-6.5 -54.5
q0 -57 25.5 -78.5t88.5 -21.5q57 0 123 29z" />
    <glyph glyph-name="udieresis" unicode="&#xfc;" horiz-adv-x="1403" 
d="M1038 1184q-34 0 -63 13.5t-50 36t-33 53t-12 63.5t12 63t33 53t50 36.5t63 13.5q33 0 62 -14t50.5 -37t33.5 -53t12 -62t-12 -62t-33.5 -53t-50.5 -37t-62 -14zM542 1184q-34 0 -62.5 13.5t-49.5 36.5t-33 53t-12 63t12 63t33 53t50 36.5t62 13.5t62 -14t50.5 -37
t33.5 -53t12 -62t-12 -62t-33.5 -53t-50.5 -37t-62 -14zM1358 61q-200 -79 -295 -79q-217 0 -260 178h-6q-201 -189 -420 -189q-48 0 -91 13.5t-74.5 39.5t-50 65.5t-18.5 90.5q0 68 23 154l76 280q24 89 24 148q0 54 -22.5 77t-85.5 23q-54 0 -123 -28l20 90q204 80 295 80
q48 0 93 -12.5t79.5 -38t55 -64.5t20.5 -92q0 -90 -18 -156l-74 -266q-23 -84 -23 -133q0 -103 99 -103q97 0 231 125l166 721l317 14l13 -14l-142 -614q-13 -57 -19.5 -93.5t-6.5 -54.5q0 -57 25.5 -78.5t88.5 -21.5q57 0 123 29z" />
    <glyph glyph-name="yacute" unicode="&#xfd;" horiz-adv-x="1370" 
d="M667 1185q72 70 142 140.5t144 143.5q55 53 114 53q29 0 51 -9.5t37 -24t23 -32.5t9 -36q2 -34 -20.5 -66t-60.5 -53q-64 -32 -157.5 -73t-210.5 -95zM1130 170q-66 -305 -242 -459.5t-450 -154.5q-389 0 -389 196q0 56 40 102t114 46q147 0 264 -262q242 43 336 522h-6
q-198 -183 -418 -183q-48 0 -91 14t-75 40.5t-51 66t-19 90.5q0 68 23 154l76 272q24 86 24 148q0 55 -22.5 77.5t-85.5 22.5q-54 0 -123 -28l20 90q204 80 295 80q48 0 93 -12.5t79.5 -38t55 -64.5t20.5 -92q0 -90 -18 -156l-74 -260q-23 -83 -23 -133q0 -103 103 -103
t235 123l154 717l315 14l15 -16z" />
    <glyph glyph-name="thorn" unicode="&#xfe;" horiz-adv-x="1325" 
d="M342 -221q-8 -37 -8 -51q0 -52 48 -74.5t142 -28.5l-14 -69h-723l16 69q134 12 164 42q28 30 39 77l352 1530q9 39 9 55q0 38 -16.5 60.5t-42 34.5t-57 16.5t-61.5 7.5l19 74l526 26l10 -16l-151 -647h6q152 131 311 131q169 0 260 -99t91 -284q0 -273 -178 -466
q-177 -194 -425 -194q-167 0 -256 72zM442 219q-7 -31 27 -96q34 -64 129 -64q123 0 214 172t91 406q0 225 -158 225q-90 0 -178 -94z" />
    <glyph glyph-name="ydieresis" unicode="&#xff;" horiz-adv-x="1370" 
d="M1038 1184q-34 0 -63 13.5t-50 36t-33 53t-12 63.5t12 63t33 53t50 36.5t63 13.5q33 0 62 -14t50.5 -37t33.5 -53t12 -62t-12 -62t-33.5 -53t-50.5 -37t-62 -14zM542 1184q-34 0 -62.5 13.5t-49.5 36.5t-33 53t-12 63t12 63t33 53t50 36.5t62 13.5t62 -14t50.5 -37
t33.5 -53t12 -62t-12 -62t-33.5 -53t-50.5 -37t-62 -14zM1130 170q-66 -305 -242 -459.5t-450 -154.5q-389 0 -389 196q0 56 40 102t114 46q147 0 264 -262q242 43 336 522h-6q-198 -183 -418 -183q-48 0 -91 14t-75 40.5t-51 66t-19 90.5q0 68 23 154l76 272q24 86 24 148
q0 55 -22.5 77.5t-85.5 22.5q-54 0 -123 -28l20 90q204 80 295 80q48 0 93 -12.5t79.5 -38t55 -64.5t20.5 -92q0 -90 -18 -156l-74 -260q-23 -83 -23 -133q0 -103 103 -103t235 123l154 717l315 14l15 -16z" />
    <glyph glyph-name="Amacron" unicode="&#x100;" horiz-adv-x="1552" 
d="M609 1646l34 170h748l-35 -170h-747zM1491 0h-760l19 74q217 15 217 65q0 26 -6 60l-52 278h-487q-174 -268 -174 -325q0 -62 190 -78l-16 -74h-596l16 74q166 11 240 101q38 46 243.5 362.5t579.5 902.5h199l182 -1047q19 -106 32 -166t21 -76q17 -31 56.5 -51.5
t111.5 -25.5zM805 1087l-324 -516h412z" />
    <glyph glyph-name="amacron" unicode="&#x101;" horiz-adv-x="1352" 
d="M392 1247l34 170h748l-35 -170h-747zM1307 59q-195 -79 -297 -79q-195 0 -250 145h-8q-175 -156 -336 -156q-171 0 -260.5 99.5t-89.5 283.5q0 272 180 468t428 196q172 0 266 -78l307 61l15 -16l-148 -614q-24 -100 -24 -148q0 -57 25.5 -78.5t88.5 -21.5q54 0 123 29z
M879 760q8 34 -23 94q-31 61 -123 61q-126 0 -218 -170q-91 -169 -91 -397q0 -227 156 -227q77 0 172 94z" />
    <glyph glyph-name="Abreve" unicode="&#x102;" horiz-adv-x="1552" 
d="M1423 1823q-121 -291 -396 -302q-276 10 -254 301l110 12q7 -80 48.5 -113t130.5 -33q70 0 132.5 32.5t119.5 113.5zM1491 0h-760l19 74q217 15 217 65q0 26 -6 60l-52 278h-487q-174 -268 -174 -325q0 -62 190 -78l-16 -74h-596l16 74q166 11 240 101q38 46 243.5 362.5
t579.5 902.5h199l182 -1047q19 -106 32 -166t21 -76q17 -31 56.5 -51.5t111.5 -25.5zM805 1087l-324 -516h412z" />
    <glyph glyph-name="abreve" unicode="&#x103;" horiz-adv-x="1352" 
d="M1188 1428q-121 -291 -396 -302q-276 10 -254 301l110 12q7 -80 48.5 -113t130.5 -33q70 0 132.5 32.5t119.5 113.5zM1307 59q-195 -79 -297 -79q-195 0 -250 145h-8q-175 -156 -336 -156q-171 0 -260.5 99.5t-89.5 283.5q0 272 180 468t428 196q172 0 266 -78l307 61
l15 -16l-148 -614q-24 -100 -24 -148q0 -57 25.5 -78.5t88.5 -21.5q54 0 123 29zM879 760q8 34 -23 94q-31 61 -123 61q-126 0 -218 -170q-91 -169 -91 -397q0 -227 156 -227q77 0 172 94z" />
    <glyph glyph-name="Aogonek" unicode="&#x104;" horiz-adv-x="1552" 
d="M1491 0h-243q-144 -147 -144 -254q0 -91 178 -113l-14 -77q-383 0 -383 161q0 148 242 283h-396l19 74q217 15 217 65q0 26 -6 60l-52 278h-487q-174 -268 -174 -325q0 -62 190 -78l-16 -74h-596l16 74q166 11 240 101q38 46 243.5 362.5t579.5 902.5h199l182 -1047
q19 -106 32 -166t21 -76q17 -31 56.5 -51.5t111.5 -25.5zM805 1087l-324 -516h412z" />
    <glyph glyph-name="aogonek" unicode="&#x105;" horiz-adv-x="1352" 
d="M1307 59q-60 -24 -111 -41t-93 -26q-136 -142 -136 -246q0 -91 178 -113l-14 -77q-383 0 -383 161q0 138 212 266q-152 16 -200 142h-8q-175 -156 -336 -156q-171 0 -260.5 99.5t-89.5 283.5q0 272 180 468t428 196q172 0 266 -78l307 61l15 -16l-148 -614
q-24 -100 -24 -148q0 -57 25.5 -78.5t88.5 -21.5q54 0 123 29zM879 760q8 34 -23 94q-31 61 -123 61q-126 0 -218 -170q-91 -169 -91 -397q0 -227 156 -227q77 0 172 94z" />
    <glyph glyph-name="Cacute" unicode="&#x106;" horiz-adv-x="1464" 
d="M719 1526q82 76 149 142.5t121 123.5q69 76 148 76q63 0 104 -28t41 -73q0 -52 -41 -82q-42 -31 -228 -98q-57 -20 -121 -45.5t-138 -56.5zM1411 356q-252 -395 -690 -395q-136 0 -252.5 39.5t-201.5 115t-133 186t-48 251.5q0 366 263 635q262 268 646 268q44 0 100 -6
t113 -17.5t110.5 -28.5t90.5 -40l76 55h86l-111 -518h-88q-7 84 -30.5 167t-68.5 149.5t-113.5 107.5t-166.5 41q-230 0 -373 -255q-143 -254 -143 -593q0 -86 21 -162.5t65 -134.5t111.5 -91.5t161.5 -33.5q261 0 499 312z" />
    <glyph glyph-name="cacute" unicode="&#x107;" horiz-adv-x="1098" 
d="M469 1139q32 40 65 85.5t68 96.5q108 157 149 193q40 34 115 34q18 0 40 -5.5t41 -16.5t31.5 -27.5t12.5 -38.5q0 -62 -41 -97q-40 -34 -190 -116q-57 -32 -119 -67.5t-129 -77.5zM807 893q-39 43 -109 43q-114 0 -192 -141q-78 -139 -78 -351q0 -323 225 -323
q59 0 106 12t86 35.5t73.5 59t68.5 81.5l72 -61q-42 -63 -97 -115t-119.5 -88.5t-136.5 -57t-149 -20.5q-104 0 -193 25.5t-154.5 78.5t-102.5 134t-37 192q0 259 178 438q178 181 469 181q178 0 271 -64.5t93 -181.5q0 -42 -12.5 -78.5t-36 -63t-57.5 -42t-78 -15.5
q-25 0 -54 7t-53.5 22t-40.5 37.5t-16 52.5q0 75 74 203z" />
    <glyph glyph-name="Ccircumflex" unicode="&#x108;" horiz-adv-x="1464" 
d="M1304 1485l-311 203l-383 -203l-33 28q293 302 331 328q39 27 109 27q72 0 98 -26q27 -27 92 -129q16 -25 48.5 -75t83.5 -125zM1411 356q-252 -395 -690 -395q-136 0 -252.5 39.5t-201.5 115t-133 186t-48 251.5q0 366 263 635q262 268 646 268q44 0 100 -6t113 -17.5
t110.5 -28.5t90.5 -40l76 55h86l-111 -518h-88q-7 84 -30.5 167t-68.5 149.5t-113.5 107.5t-166.5 41q-230 0 -373 -255q-143 -254 -143 -593q0 -86 21 -162.5t65 -134.5t111.5 -91.5t161.5 -33.5q261 0 499 312z" />
    <glyph glyph-name="ccircumflex" unicode="&#x109;" horiz-adv-x="1098" 
d="M985 1104l-278 254l-359 -254l-49 29q138 180 217.5 276t102.5 110q47 29 116 29q78 0 118 -49q20 -25 66 -116t119 -250zM807 893q-39 43 -109 43q-114 0 -192 -141q-78 -139 -78 -351q0 -323 225 -323q59 0 106 12t86 35.5t73.5 59t68.5 81.5l72 -61q-42 -63 -97 -115
t-119.5 -88.5t-136.5 -57t-149 -20.5q-104 0 -193 25.5t-154.5 78.5t-102.5 134t-37 192q0 259 178 438q178 181 469 181q178 0 271 -64.5t93 -181.5q0 -42 -12.5 -78.5t-36 -63t-57.5 -42t-78 -15.5q-25 0 -54 7t-53.5 22t-40.5 37.5t-16 52.5q0 75 74 203z" />
    <glyph glyph-name="Cdotaccent" unicode="&#x10a;" horiz-adv-x="1464" 
d="M987 1514q-37 0 -68 12.5t-53.5 34.5t-35.5 53t-13 68q0 36 13 67t36 53.5t54 35t67 12.5q35 0 65.5 -13t53 -35.5t35 -53.5t12.5 -66q0 -36 -12.5 -66.5t-34.5 -53t-52.5 -35.5t-66.5 -13zM1411 356q-252 -395 -690 -395q-136 0 -252.5 39.5t-201.5 115t-133 186
t-48 251.5q0 366 263 635q262 268 646 268q44 0 100 -6t113 -17.5t110.5 -28.5t90.5 -40l76 55h86l-111 -518h-88q-7 84 -30.5 167t-68.5 149.5t-113.5 107.5t-166.5 41q-230 0 -373 -255q-143 -254 -143 -593q0 -86 21 -162.5t65 -134.5t111.5 -91.5t161.5 -33.5
q261 0 499 312z" />
    <glyph glyph-name="cdotaccent" unicode="&#x10b;" horiz-adv-x="1098" 
d="M711 1182q-37 0 -68 12.5t-53.5 34.5t-35.5 53t-13 68q0 36 13 67t36 53.5t54 35t67 12.5q35 0 65.5 -13t53 -35.5t35 -53.5t12.5 -66q0 -36 -12.5 -66.5t-34.5 -53t-52.5 -35.5t-66.5 -13zM807 893q-39 43 -109 43q-114 0 -192 -141q-78 -139 -78 -351q0 -323 225 -323
q59 0 106 12t86 35.5t73.5 59t68.5 81.5l72 -61q-42 -63 -97 -115t-119.5 -88.5t-136.5 -57t-149 -20.5q-104 0 -193 25.5t-154.5 78.5t-102.5 134t-37 192q0 259 178 438q178 181 469 181q178 0 271 -64.5t93 -181.5q0 -42 -12.5 -78.5t-36 -63t-57.5 -42t-78 -15.5
q-25 0 -54 7t-53.5 22t-40.5 37.5t-16 52.5q0 75 74 203z" />
    <glyph glyph-name="Ccaron" unicode="&#x10c;" horiz-adv-x="1464" 
d="M1415 1839q-54 -55 -99.5 -100.5t-82.5 -80.5t-64.5 -62t-45.5 -46q-19 -18 -35 -30t-32.5 -19t-36 -9.5t-46.5 -2.5q-72 0 -96 24q-25 26 -223 326l34 29l310 -199l385 199zM1411 356q-252 -395 -690 -395q-136 0 -252.5 39.5t-201.5 115t-133 186t-48 251.5
q0 366 263 635q262 268 646 268q44 0 100 -6t113 -17.5t110.5 -28.5t90.5 -40l76 55h86l-111 -518h-88q-7 84 -30.5 167t-68.5 149.5t-113.5 107.5t-166.5 41q-230 0 -373 -255q-143 -254 -143 -593q0 -86 21 -162.5t65 -134.5t111.5 -91.5t161.5 -33.5q261 0 499 312z" />
    <glyph glyph-name="ccaron" unicode="&#x10d;" horiz-adv-x="1098" 
d="M1116 1522q-131 -167 -206.5 -260t-97.5 -114q-43 -42 -132 -42q-75 0 -107 30q-33 31 -196 386l53 28l277 -254l358 254zM807 893q-39 43 -109 43q-114 0 -192 -141q-78 -139 -78 -351q0 -323 225 -323q59 0 106 12t86 35.5t73.5 59t68.5 81.5l72 -61q-42 -63 -97 -115
t-119.5 -88.5t-136.5 -57t-149 -20.5q-104 0 -193 25.5t-154.5 78.5t-102.5 134t-37 192q0 259 178 438q178 181 469 181q178 0 271 -64.5t93 -181.5q0 -42 -12.5 -78.5t-36 -63t-57.5 -42t-78 -15.5q-25 0 -54 7t-53.5 22t-40.5 37.5t-16 52.5q0 75 74 203z" />
    <glyph glyph-name="Dcaron" unicode="&#x10e;" horiz-adv-x="1708" 
d="M1362 1839q-54 -55 -99.5 -100.5t-82.5 -80.5t-64.5 -62t-45.5 -46q-19 -18 -35 -30t-32.5 -19t-36 -9.5t-46.5 -2.5q-72 0 -96 24q-25 26 -223 326l34 29l310 -199l385 199zM-55 0l16 74q126 0 172 27q47 29 66 94l227 993q5 22 7.5 36t2.5 19q0 78 -180 103l16 73h727
q297 0 491 -145q196 -144 196 -414q0 -381 -284 -621q-284 -239 -718 -239h-739zM569 264q-5 -22 -7.5 -39t-2.5 -28q0 -111 176 -111q249 0 402 241q153 242 153 582q0 204 -89.5 314t-262.5 110q-34 0 -65 -1t-60 -3z" />
    <glyph glyph-name="dcaron" unicode="&#x10f;" horiz-adv-x="1692" 
d="M1120 369q-24 -103 -24 -148q0 -30 6.5 -49.5t20 -31t35.5 -15.5t52 -4q51 0 123 29l-22 -91q-195 -79 -295 -79q-193 0 -250 145h-8q-177 -156 -342 -156q-171 0 -260.5 99.5t-89.5 283.5q0 275 178 469q179 195 424 195q164 0 258 -72l73 326q9 41 9 55q0 108 -207 123
l16 74l561 26l13 -16zM1394 899q263 117 322 305h-55q-174 0 -174 125q0 42 18.5 78.5t49 64t69.5 43t80 15.5q176 0 176 -180q0 -93 -42 -174.5t-108.5 -148t-147.5 -117.5t-159 -83zM885 766q7 34 -28 95q-36 61 -128 61q-123 0 -215 -171q-90 -171 -90 -403
q0 -227 156 -227q81 0 178 94z" />
    <glyph glyph-name="Dcroat" unicode="&#x110;" horiz-adv-x="1708" 
d="M110 645l25 107h191l100 436q5 22 7.5 36t2.5 19q0 78 -180 103l16 73h727q297 0 491 -145q196 -144 196 -414q0 -381 -284 -621q-284 -239 -718 -239h-739l16 74q126 0 172 27q47 29 66 94l103 450h-192zM569 264q-10 -41 -10 -67q0 -111 176 -111q249 0 402 241
q153 242 153 582q0 204 -89.5 314t-262.5 110q-34 0 -65 -1t-60 -3l-132 -577h305l-25 -107h-305z" />
    <glyph glyph-name="dcroat" unicode="&#x111;" horiz-adv-x="1358" 
d="M618 1151l24 99h353q15 68 15 75q0 108 -209 123l16 74l561 26l13 -16l-66 -282h168l-24 -99h-167l-182 -782q-24 -103 -24 -148q0 -30 6.5 -49.5t20 -31t35.5 -15.5t52 -4q51 0 123 29l-22 -91q-195 -79 -295 -79q-193 0 -250 145h-8q-177 -156 -342 -156
q-171 0 -260.5 99.5t-89.5 283.5q0 269 176 463q175 193 424 193q166 0 260 -70q29 128 48 213h-356zM883 758q8 35 -28 95t-128 60q-124 0 -214 -169q-89 -169 -89 -396t156 -227q81 0 178 94z" />
    <glyph glyph-name="Emacron" unicode="&#x112;" horiz-adv-x="1477" 
d="M562 1659l34 170h748l-35 -170h-747zM1438 1057h-76q-12 86 -62 163q-50 79 -95 95q-46 18 -193 18h-197l-127 -555h135q68 0 116 17t84.5 49t64 78t53.5 104h76l-138 -592h-75v37q0 104 -36 162q-36 59 -163 59h-137l-90 -393q-21 -91 -21 -117q0 -54 31 -75
q32 -21 168 -21q166 0 242 18q78 20 190 161q113 143 135 177h72l-129 -442h-1321l16 74q126 0 172 27q47 29 66 94l227 993q5 22 7.5 36t2.5 19q0 78 -180 103l16 73h1248z" />
    <glyph glyph-name="emacron" unicode="&#x113;" horiz-adv-x="1141" 
d="M322 1247l34 170h748l-35 -170h-747zM420 410q8 -291 221 -291q219 0 358 190l72 -61q-45 -64 -103 -115.5t-125.5 -88.5t-142 -57t-153.5 -20q-102 0 -189.5 26t-151.5 79t-100 133.5t-36 189.5q0 257 184 438q185 183 477 183q367 0 367 -230q0 -308 -678 -376z
M422 492q211 24 280 87q70 63 70 181q0 176 -117 176q-75 0 -144 -123q-68 -124 -89 -321z" />
    <glyph glyph-name="Ebreve" unicode="&#x114;" horiz-adv-x="1477" 
d="M1338 1851q-114 -321 -412 -321q-82 0 -138 29t-89 78q-32 48 -40 87q-4 19 -5.5 50.5t-1.5 76.5l73 17q20 -164 236 -164q213 0 309 164zM1438 1057h-76q-12 86 -62 163q-50 79 -95 95q-46 18 -193 18h-197l-127 -555h135q68 0 116 17t84.5 49t64 78t53.5 104h76
l-138 -592h-75v37q0 104 -36 162q-36 59 -163 59h-137l-90 -393q-21 -91 -21 -117q0 -54 31 -75q32 -21 168 -21q166 0 242 18q78 20 190 161q113 143 135 177h72l-129 -442h-1321l16 74q126 0 172 27q47 29 66 94l227 993q5 22 7.5 36t2.5 19q0 78 -180 103l16 73h1248z
" />
    <glyph glyph-name="ebreve" unicode="&#x115;" horiz-adv-x="1141" 
d="M1077 1532q-123 -397 -402 -397q-107 0 -166 53q-58 54 -76 127q-18 74 -18 217l74 16q8 -54 20 -98.5t35.5 -75.5t62 -48t99.5 -17q63 0 109 17t80.5 48.5t61 75.5t50.5 98zM420 410q8 -291 221 -291q219 0 358 190l72 -61q-45 -64 -103 -115.5t-125.5 -88.5t-142 -57
t-153.5 -20q-102 0 -189.5 26t-151.5 79t-100 133.5t-36 189.5q0 257 184 438q185 183 477 183q367 0 367 -230q0 -308 -678 -376zM422 492q211 24 280 87q70 63 70 181q0 176 -117 176q-75 0 -144 -123q-68 -124 -89 -321z" />
    <glyph glyph-name="Edotaccent" unicode="&#x116;" horiz-adv-x="1477" 
d="M950 1514q-37 0 -68 12.5t-53.5 34.5t-35.5 53t-13 68q0 36 13 67t36 53.5t54 35t67 12.5q35 0 65.5 -13t53 -35.5t35 -53.5t12.5 -66q0 -36 -12.5 -66.5t-34.5 -53t-52.5 -35.5t-66.5 -13zM1438 1057h-76q-12 86 -62 163q-50 79 -95 95q-46 18 -193 18h-197l-127 -555
h135q68 0 116 17t84.5 49t64 78t53.5 104h76l-138 -592h-75v37q0 104 -36 162q-36 59 -163 59h-137l-90 -393q-21 -91 -21 -117q0 -54 31 -75q32 -21 168 -21q166 0 242 18q78 20 190 161q113 143 135 177h72l-129 -442h-1321l16 74q126 0 172 27q47 29 66 94l227 993
q5 22 7.5 36t2.5 19q0 78 -180 103l16 73h1248z" />
    <glyph glyph-name="edotaccent" unicode="&#x117;" horiz-adv-x="1141" 
d="M707 1182q-37 0 -68 12.5t-53.5 34.5t-35.5 53t-13 68q0 36 13 67t36 53.5t54 35t67 12.5q35 0 65.5 -13t53 -35.5t35 -53.5t12.5 -66q0 -36 -12.5 -66.5t-34.5 -53t-52.5 -35.5t-66.5 -13zM420 410q8 -291 221 -291q219 0 358 190l72 -61q-45 -64 -103 -115.5
t-125.5 -88.5t-142 -57t-153.5 -20q-102 0 -189.5 26t-151.5 79t-100 133.5t-36 189.5q0 257 184 438q185 183 477 183q367 0 367 -230q0 -308 -678 -376zM422 492q211 24 280 87q70 63 70 181q0 176 -117 176q-75 0 -144 -123q-68 -124 -89 -321z" />
    <glyph glyph-name="Eogonek" unicode="&#x118;" horiz-adv-x="1477" 
d="M1438 1057h-76q-12 86 -62 163q-50 79 -95 95q-46 18 -193 18h-197l-127 -555h135q68 0 116 17t84.5 49t64 78t53.5 104h76l-138 -592h-75v37q0 104 -36 162q-36 59 -163 59h-137l-90 -393q-21 -91 -21 -117q0 -54 31 -75q32 -21 168 -21q166 0 242 18q78 20 190 161
q113 143 135 177h72l-129 -442h-118q-144 -147 -144 -254q0 -91 178 -113l-14 -77q-383 0 -383 161q0 148 242 283h-1082l16 74q126 0 172 27q47 29 66 94l227 993q5 22 7.5 36t2.5 19q0 78 -180 103l16 73h1248z" />
    <glyph glyph-name="eogonek" unicode="&#x119;" horiz-adv-x="1141" 
d="M420 410q8 -291 221 -291q219 0 358 190l72 -61q-95 -134 -236 -208q-4 -2 -7.5 -4t-7.5 -4q-177 -168 -177 -286q0 -91 178 -113l-14 -77q-383 0 -383 161q0 132 193 254q-17 -2 -34.5 -3t-35.5 -1q-102 0 -189.5 26t-151.5 79t-100 133.5t-36 189.5q0 257 184 438
q185 183 477 183q367 0 367 -230q0 -308 -678 -376zM422 492q211 24 280 87q70 63 70 181q0 176 -117 176q-75 0 -144 -123q-68 -124 -89 -321z" />
    <glyph glyph-name="Ecaron" unicode="&#x11a;" horiz-adv-x="1477" 
d="M1351 1839q-54 -55 -99.5 -100.5t-82.5 -80.5t-64.5 -62t-45.5 -46q-19 -18 -35 -30t-32.5 -19t-36 -9.5t-46.5 -2.5q-72 0 -96 24q-25 26 -223 326l34 29l310 -199l385 199zM1438 1057h-76q-12 86 -62 163q-50 79 -95 95q-46 18 -193 18h-197l-127 -555h135q68 0 116 17
t84.5 49t64 78t53.5 104h76l-138 -592h-75v37q0 104 -36 162q-36 59 -163 59h-137l-90 -393q-21 -91 -21 -117q0 -54 31 -75q32 -21 168 -21q166 0 242 18q78 20 190 161q113 143 135 177h72l-129 -442h-1321l16 74q126 0 172 27q47 29 66 94l227 993q5 22 7.5 36t2.5 19
q0 78 -180 103l16 73h1248z" />
    <glyph glyph-name="ecaron" unicode="&#x11b;" horiz-adv-x="1141" 
d="M1110 1522q-131 -167 -206.5 -260t-97.5 -114q-43 -42 -132 -42q-75 0 -107 30q-33 31 -196 386l53 28l277 -254l358 254zM420 410q8 -291 221 -291q219 0 358 190l72 -61q-45 -64 -103 -115.5t-125.5 -88.5t-142 -57t-153.5 -20q-102 0 -189.5 26t-151.5 79t-100 133.5
t-36 189.5q0 257 184 438q185 183 477 183q367 0 367 -230q0 -308 -678 -376zM422 492q211 24 280 87q70 63 70 181q0 176 -117 176q-75 0 -144 -123q-68 -124 -89 -321z" />
    <glyph glyph-name="Gcircumflex" unicode="&#x11c;" horiz-adv-x="1653" 
d="M1321 1485l-311 203l-383 -203l-33 28q293 302 331 328q39 27 109 27q72 0 98 -26q27 -27 92 -129q16 -25 48.5 -75t83.5 -125zM1409 283q-13 -57 -20.5 -95.5t-10.5 -60.5q-64 -37 -146.5 -67.5t-170 -52.5t-175 -34t-161.5 -12q-132 0 -248.5 38t-203.5 111.5t-137 181
t-50 247.5q0 395 266 656q267 261 672 261q238 0 420 -92l74 55h86l-111 -518h-86q-23 230 -124.5 347.5t-262.5 117.5q-232 0 -387 -258q-154 -256 -154 -621q0 -102 20.5 -182t59.5 -135t96.5 -84t130.5 -29q118 0 207 64l41 29l64 272q8 37 8 57q0 75 -201 103l19 73h768
l-19 -73q-25 -2 -56.5 -7.5t-70.5 -15.5q-79 -20 -98 -102z" />
    <glyph glyph-name="gcircumflex" unicode="&#x11d;" horiz-adv-x="1329" 
d="M1059 1104l-278 254l-359 -254l-49 29q138 180 217.5 276t102.5 110q47 29 116 29q78 0 118 -49q20 -25 66 -116t119 -250zM741 104q-155 -127 -315 -127q-89 0 -156.5 27t-112.5 77t-68 120.5t-23 156.5q0 271 177 464q179 194 425 194q178 0 278 -78l305 61l15 -16
l-170 -813q-128 -614 -697 -614q-389 0 -389 196q0 56 40 102t114 46q148 0 262 -262q141 16 212 138q35 61 63.5 142.5t48.5 185.5h-9zM885 760q8 39 -29 96q-36 59 -127 59q-123 0 -215 -168q-90 -166 -90 -393q0 -225 168 -225q88 0 182 94z" />
    <glyph glyph-name="Gbreve" unicode="&#x11e;" horiz-adv-x="1653" 
d="M1411 1851q-114 -321 -412 -321q-82 0 -138 29t-89 78q-32 48 -40 87q-4 19 -5.5 50.5t-1.5 76.5l73 17q20 -164 236 -164q213 0 309 164zM1409 283q-13 -57 -20.5 -95.5t-10.5 -60.5q-64 -37 -146.5 -67.5t-170 -52.5t-175 -34t-161.5 -12q-132 0 -248.5 38
t-203.5 111.5t-137 181t-50 247.5q0 395 266 656q267 261 672 261q238 0 420 -92l74 55h86l-111 -518h-86q-23 230 -124.5 347.5t-262.5 117.5q-232 0 -387 -258q-154 -256 -154 -621q0 -102 20.5 -182t59.5 -135t96.5 -84t130.5 -29q118 0 207 64l41 29l64 272q8 37 8 57
q0 75 -201 103l19 73h768l-19 -73q-25 -2 -56.5 -7.5t-70.5 -15.5q-79 -20 -98 -102z" />
    <glyph glyph-name="gbreve" unicode="&#x11f;" horiz-adv-x="1329" 
d="M1139 1532q-123 -397 -402 -397q-107 0 -166 53q-58 54 -76 127q-18 74 -18 217l74 16q8 -54 20 -98.5t35.5 -75.5t62 -48t99.5 -17q63 0 109 17t80.5 48.5t61 75.5t50.5 98zM741 104q-155 -127 -315 -127q-89 0 -156.5 27t-112.5 77t-68 120.5t-23 156.5q0 271 177 464
q179 194 425 194q178 0 278 -78l305 61l15 -16l-170 -813q-128 -614 -697 -614q-389 0 -389 196q0 56 40 102t114 46q148 0 262 -262q141 16 212 138q35 61 63.5 142.5t48.5 185.5h-9zM885 760q8 39 -29 96q-36 59 -127 59q-123 0 -215 -168q-90 -166 -90 -393
q0 -225 168 -225q88 0 182 94z" />
    <glyph glyph-name="Gdotaccent" unicode="&#x120;" horiz-adv-x="1653" 
d="M1018 1514q-37 0 -68 12.5t-53.5 34.5t-35.5 53t-13 68q0 36 13 67t36 53.5t54 35t67 12.5q35 0 65.5 -13t53 -35.5t35 -53.5t12.5 -66q0 -36 -12.5 -66.5t-34.5 -53t-52.5 -35.5t-66.5 -13zM1409 283q-13 -57 -20.5 -95.5t-10.5 -60.5q-64 -37 -146.5 -67.5t-170 -52.5
t-175 -34t-161.5 -12q-132 0 -248.5 38t-203.5 111.5t-137 181t-50 247.5q0 395 266 656q267 261 672 261q238 0 420 -92l74 55h86l-111 -518h-86q-23 230 -124.5 347.5t-262.5 117.5q-232 0 -387 -258q-154 -256 -154 -621q0 -102 20.5 -182t59.5 -135t96.5 -84t130.5 -29
q118 0 207 64l41 29l64 272q8 37 8 57q0 75 -201 103l19 73h768l-19 -73q-25 -2 -56.5 -7.5t-70.5 -15.5q-79 -20 -98 -102z" />
    <glyph glyph-name="gdotaccent" unicode="&#x121;" horiz-adv-x="1329" 
d="M778 1182q-37 0 -68 12.5t-53.5 34.5t-35.5 53t-13 68q0 36 13 67t36 53.5t54 35t67 12.5q35 0 65.5 -13t53 -35.5t35 -53.5t12.5 -66q0 -36 -12.5 -66.5t-34.5 -53t-52.5 -35.5t-66.5 -13zM741 104q-155 -127 -315 -127q-89 0 -156.5 27t-112.5 77t-68 120.5t-23 156.5
q0 271 177 464q179 194 425 194q178 0 278 -78l305 61l15 -16l-170 -813q-128 -614 -697 -614q-389 0 -389 196q0 56 40 102t114 46q148 0 262 -262q141 16 212 138q35 61 63.5 142.5t48.5 185.5h-9zM885 760q8 39 -29 96q-36 59 -127 59q-123 0 -215 -168
q-90 -166 -90 -393q0 -225 168 -225q88 0 182 94z" />
    <glyph glyph-name="uni0122" unicode="&#x122;" horiz-adv-x="1653" 
d="M1409 283q-13 -57 -20.5 -95.5t-10.5 -60.5q-64 -37 -146.5 -67.5t-170 -52.5t-175 -34t-161.5 -12q-132 0 -248.5 38t-203.5 111.5t-137 181t-50 247.5q0 395 266 656q267 261 672 261q238 0 420 -92l74 55h86l-111 -518h-86q-23 230 -124.5 347.5t-262.5 117.5
q-232 0 -387 -258q-154 -256 -154 -621q0 -102 20.5 -182t59.5 -135t96.5 -84t130.5 -29q118 0 207 64l41 29l64 272q8 37 8 57q0 75 -201 103l19 73h768l-19 -73q-25 -2 -56.5 -7.5t-70.5 -15.5q-79 -20 -98 -102zM563 -381q194 12 217 117h-58q-77 0 -107 19.5t-30 64.5
q0 114 156 114q151 0 151 -147q0 -57 -23.5 -100.5t-67.5 -72.5t-107 -43.5t-141 -14.5z" />
    <glyph glyph-name="uni0123" unicode="&#x123;" horiz-adv-x="1329" 
d="M1016 1573q-211 -30 -248 -193h53q152 0 152 -123q0 -61 -42.5 -101t-129.5 -40q-178 0 -178 176q0 131 107 232q106 100 298 129zM741 104q-155 -127 -315 -127q-89 0 -156.5 27t-112.5 77t-68 120.5t-23 156.5q0 271 177 464q179 194 425 194q178 0 278 -78l305 61
l15 -16l-170 -813q-128 -614 -697 -614q-389 0 -389 196q0 56 40 102t114 46q148 0 262 -262q141 16 212 138q35 61 63.5 142.5t48.5 185.5h-9zM885 760q8 39 -29 96q-36 59 -127 59q-123 0 -215 -168q-90 -166 -90 -393q0 -225 168 -225q88 0 182 94z" />
    <glyph glyph-name="Hcircumflex" unicode="&#x124;" horiz-adv-x="1870" 
d="M1456 1485l-311 203l-383 -203l-33 28q293 302 331 328q39 27 109 27q72 0 98 -26q27 -27 92 -129q16 -25 48.5 -75t83.5 -125zM1976 1346q-142 -13 -184 -43q-40 -28 -51 -84l-230 -994q-10 -41 -10 -55q0 -43 34 -65q33 -20 148 -31l-16 -74h-768l19 74q152 8 185 38
q36 33 46 81l113 497h-596l-107 -465q-8 -37 -8 -55q0 -41 33 -64q34 -22 145 -32l-16 -74h-768l16 74q100 0 158 23q57 22 80 98l227 993q5 22 7.5 36t2.5 19q0 78 -180 103l16 73h766l-16 -73q-147 -15 -181 -39q-33 -23 -53 -88l-98 -431h596l92 400q8 37 8 55
q0 42 -41 64.5t-135 38.5l17 73h768z" />
    <glyph glyph-name="hcircumflex" unicode="&#x125;" horiz-adv-x="1382" 
d="M1190 1483l-311 203l-383 -203l-33 28q144 147 225 228t101 97q41 32 116 32q59 0 84 -17q25 -16 70 -87l166 -253zM1331 63q-195 -79 -295 -79q-48 0 -93 12t-80.5 37.5t-57 64.5t-21.5 92q0 78 21 154l72 266q22 79 22 135q0 103 -100 103q-103 0 -240 -125l-164 -723
h-332l265 1145q8 37 8 55q0 39 -15.5 62t-41 35t-56.5 16t-63 6l18 74l527 26l12 -16l-129 -563h6q203 176 407 176q48 0 90.5 -13.5t75 -40t51.5 -65.5t19 -90q0 -88 -18 -154l-76 -280q-27 -99 -27 -150q0 -57 26 -78.5t89 -21.5q51 0 123 29z" />
    <glyph glyph-name="Hbar" unicode="&#x126;" horiz-adv-x="1870" 
d="M1511 225q-10 -41 -10 -55q0 -43 34 -65q33 -20 148 -31l-16 -74h-768l19 74q152 8 185 38q36 33 46 81l113 497h-596l-107 -465q-8 -37 -8 -55q0 -41 33 -64q34 -22 145 -32l-16 -74h-768l16 74q100 0 158 23q57 22 80 98l186 817h-195l23 96h197l16 80q5 25 7.5 39
t2.5 16q0 78 -180 103l16 73h766l-16 -73q-147 -15 -181 -39q-33 -23 -53 -88l-24 -111h596l18 80q8 38 8 55q0 42 -41 64.5t-135 38.5l17 73h768l-19 -73q-142 -13 -184 -43q-40 -28 -51 -84l-27 -111h195l-23 -96h-194zM690 788h596l51 224h-596z" />
    <glyph glyph-name="hbar" unicode="&#x127;" horiz-adv-x="1382" 
d="M352 1245q15 59 15 84q0 39 -16 62t-41 35t-56.5 16t-63.5 6l19 74l526 26l13 -16l-66 -287h352l-22 -92h-353l-73 -319h8q202 176 407 176q48 0 90.5 -13.5t75 -40t51.5 -65.5t19 -90q0 -79 -20 -154l-74 -274q-27 -100 -27 -150q0 -57 26 -78.5t89 -21.5q51 0 123 29
l-23 -89q-195 -79 -295 -79q-48 0 -93 12t-80.5 37.5t-57 64.5t-21.5 92q0 78 21 154l72 260q20 74 20 135q0 103 -100 103q-101 0 -238 -125l-164 -717h-332l269 1153h-250l22 92h248z" />
    <glyph glyph-name="Itilde" unicode="&#x128;" horiz-adv-x="924" 
d="M1049 1771q-18 -40 -44.5 -79t-60.5 -69.5t-73.5 -48.5t-83.5 -16q-35 2 -68.5 9t-71.5 32q-68 44 -97 45q-25 2 -46 -6t-38 -22t-31.5 -32t-26.5 -37l-81 45q53 114 119 163.5t138 50.5q35 1 70.5 -7.5t73.5 -33.5q35 -23 64 -34t46 -11q26 0 45 6.5t34 19t27.5 30.5
t24.5 40zM-43 74q107 0 164 22t80 99l227 993q5 22 7.5 36t2.5 19q0 76 -188 103l16 73h787l-17 -73q-156 -13 -194 -41q-37 -25 -51 -86l-230 -994q-8 -37 -8 -55q0 -42 36 -65q37 -20 154 -31l-18 -74h-786z" />
    <glyph glyph-name="itilde" unicode="&#x129;" horiz-adv-x="750" 
d="M866 1377q-18 -40 -44.5 -79t-60.5 -69.5t-73.5 -48.5t-83.5 -16q-35 2 -68.5 9t-71.5 32q-68 44 -97 45q-25 2 -46 -6t-38 -22t-31.5 -32t-26.5 -37l-81 45q53 114 119 163.5t138 50.5q35 1 70.5 -7.5t73.5 -33.5q35 -23 64 -34t46 -11q26 0 45 6.5t34 19t27.5 30.5
t24.5 40zM690 53q-201 -80 -295 -80q-48 0 -93.5 12t-81 37.5t-56.5 64.5t-21 93q0 78 21 154l82 293q26 95 26 147q0 55 -23.5 77.5t-86.5 22.5q-39 0 -123 -28l20 90q201 80 295 80q57 0 103 -15t78.5 -42t49.5 -65t17 -85q0 -84 -20 -156l-82 -291q-27 -96 -27 -149
q0 -57 27 -77.5t90 -20.5q51 0 123 28z" />
    <glyph glyph-name="Imacron" unicode="&#x12a;" horiz-adv-x="924" 
d="M308 1659l34 170h748l-35 -170h-747zM-43 74q107 0 164 22t80 99l227 993q5 22 7.5 36t2.5 19q0 76 -188 103l16 73h787l-17 -73q-156 -13 -194 -41q-37 -25 -51 -86l-230 -994q-8 -37 -8 -55q0 -42 36 -65q37 -20 154 -31l-18 -74h-786z" />
    <glyph glyph-name="imacron" unicode="&#x12b;" horiz-adv-x="750" 
d="M43 1247l33 170h698l-35 -170h-696zM690 53q-201 -80 -295 -80q-48 0 -93.5 12t-81 37.5t-56.5 64.5t-21 93q0 78 21 154l82 293q26 95 26 147q0 55 -23.5 77.5t-86.5 22.5q-39 0 -123 -28l20 90q201 80 295 80q57 0 103 -15t78.5 -42t49.5 -65t17 -85q0 -84 -20 -156
l-82 -291q-27 -96 -27 -149q0 -57 27 -77.5t90 -20.5q51 0 123 28z" />
    <glyph glyph-name="Ibreve" unicode="&#x12c;" horiz-adv-x="924" 
d="M1090 1851q-114 -321 -412 -321q-82 0 -138 29t-89 78q-32 48 -40 87q-4 19 -5.5 50.5t-1.5 76.5l73 17q20 -164 236 -164q213 0 309 164zM-43 74q107 0 164 22t80 99l227 993q5 22 7.5 36t2.5 19q0 76 -188 103l16 73h787l-17 -73q-156 -13 -194 -41q-37 -25 -51 -86
l-230 -994q-8 -37 -8 -55q0 -42 36 -65q37 -20 154 -31l-18 -74h-786z" />
    <glyph glyph-name="ibreve" unicode="&#x12d;" horiz-adv-x="750" 
d="M764 1532q-126 -397 -387 -397q-248 0 -248 327v34q0 8 0.5 17t1.5 19l74 16q5 -55 15 -99t31.5 -75t59.5 -48t99 -17q89 0 150 39q61 40 134 200zM690 53q-201 -80 -295 -80q-48 0 -93.5 12t-81 37.5t-56.5 64.5t-21 93q0 78 21 154l82 293q26 95 26 147
q0 55 -23.5 77.5t-86.5 22.5q-39 0 -123 -28l20 90q201 80 295 80q57 0 103 -15t78.5 -42t49.5 -65t17 -85q0 -84 -20 -156l-82 -291q-27 -96 -27 -149q0 -57 27 -77.5t90 -20.5q51 0 123 28z" />
    <glyph glyph-name="Iogonek" unicode="&#x12e;" horiz-adv-x="924" 
d="M-43 74q107 0 164 22t80 99l227 993q5 22 7.5 36t2.5 19q0 76 -188 103l16 73h787l-17 -73q-156 -13 -194 -41q-37 -25 -51 -86l-230 -994q-8 -37 -8 -55q0 -42 36 -65q37 -20 154 -31l-18 -74h-235q-144 -147 -144 -254q0 -91 178 -113l-14 -77q-383 0 -383 161
q0 148 242 283h-430z" />
    <glyph glyph-name="iogonek" unicode="&#x12f;" horiz-adv-x="750" 
d="M541 1175q-33 0 -64 12t-54.5 33t-38 50t-14.5 63q0 35 14 64.5t38 51t55 34t64 12.5t64.5 -12.5t55.5 -34t39 -51t15 -64.5t-15 -64t-39 -50t-55.5 -32.5t-64.5 -11.5zM690 53q-55 -22 -101.5 -37.5t-85.5 -26.5q-134 -138 -134 -243q0 -91 178 -113l-14 -77
q-383 0 -383 161q0 135 200 258q-43 5 -80.5 20.5t-65.5 41t-44.5 61.5t-16.5 82q0 78 21 154l82 293q26 95 26 147q0 55 -23.5 77.5t-86.5 22.5q-39 0 -123 -28l20 90q201 80 295 80q57 0 103 -15t78.5 -42t49.5 -65t17 -85q0 -84 -20 -156l-82 -291q-27 -96 -27 -149
q0 -57 27 -77.5t90 -20.5q51 0 123 28z" />
    <glyph glyph-name="Idotaccent" unicode="&#x130;" horiz-adv-x="924" 
d="M686 1514q-37 0 -68 12.5t-53.5 34.5t-35.5 53t-13 68q0 36 13 67t36 53.5t54 35t67 12.5q35 0 65.5 -13t53 -35.5t35 -53.5t12.5 -66q0 -36 -12.5 -66.5t-34.5 -53t-52.5 -35.5t-66.5 -13zM-43 74q107 0 164 22t80 99l227 993q5 22 7.5 36t2.5 19q0 76 -188 103l16 73
h787l-17 -73q-156 -13 -194 -41q-37 -25 -51 -86l-230 -994q-8 -37 -8 -55q0 -42 36 -65q37 -20 154 -31l-18 -74h-786z" />
    <glyph glyph-name="dotlessi" unicode="&#x131;" horiz-adv-x="750" 
d="M690 53q-201 -80 -295 -80q-48 0 -93.5 12t-81 37.5t-56.5 64.5t-21 93q0 78 21 154l82 293q26 95 26 147q0 55 -23.5 77.5t-86.5 22.5q-39 0 -123 -28l20 90q201 80 295 80q57 0 103 -15t78.5 -42t49.5 -65t17 -85q0 -84 -20 -156l-82 -291q-27 -96 -27 -149
q0 -57 27 -77.5t90 -20.5q51 0 123 28z" />
    <glyph glyph-name="IJ" unicode="&#x132;" horiz-adv-x="2040" 
d="M-43 74q107 0 164 22t80 99l227 993q5 22 7.5 36t2.5 19q0 76 -188 103l16 73h787l-17 -73q-156 -13 -194 -41q-37 -25 -51 -86l-230 -994q-8 -37 -8 -55q0 -42 36 -65q37 -20 154 -31l-18 -74h-786zM1767 432q-49 -213 -214 -343q-164 -128 -361 -128q-79 0 -152.5 18.5
t-129 59t-89 103.5t-33.5 151q0 46 13.5 86t40 70t64 47.5t85.5 17.5q41 0 74.5 -12t57.5 -34.5t37.5 -55.5t13.5 -74q0 -90 -97 -175q-25 -22 -47 -44v-15q21 -49 92 -49q204 0 283 348l180 785q5 22 7.5 36t2.5 19q0 78 -184 103l19 73h765l-18 -73q-104 -8 -157 -31
q-53 -24 -70 -96z" />
    <glyph glyph-name="ij" unicode="&#x133;" horiz-adv-x="1397" 
d="M541 1175q-33 0 -64 12t-54.5 33t-38 50t-14.5 63q0 35 14 64.5t38 51t55 34t64 12.5t64.5 -12.5t55.5 -34t39 -51t15 -64.5t-15 -64t-39 -50t-55.5 -32.5t-64.5 -11.5zM1190 1175q-33 0 -64 12t-54.5 33t-38 50t-14.5 63q0 35 14 64.5t38 51t55 34t64 12.5t64.5 -12.5
t55.5 -34t39 -51t15 -64.5t-15 -64t-39 -50t-55.5 -32.5t-64.5 -11.5zM690 53q-201 -80 -295 -80q-48 0 -93.5 12t-81 37.5t-56.5 64.5t-21 93q0 78 21 154l82 293q26 95 26 147q0 55 -23.5 77.5t-86.5 22.5q-39 0 -123 -28l20 90q201 80 295 80q57 0 103 -15t78.5 -42
t49.5 -65t17 -85q0 -84 -20 -156l-82 -291q-27 -96 -27 -149q0 -57 27 -77.5t90 -20.5q51 0 123 28zM723 936q201 80 305 80q48 0 93 -12t79.5 -37.5t55 -64.5t20.5 -93q0 -86 -71 -432q-71 -344 -124 -452q-36 -73 -90.5 -140t-122.5 -118t-146.5 -81t-164.5 -30
q-287 0 -287 192q0 33 12 60t33 46.5t49 30.5t60 11q141 0 243 -258q69 100 173 587q104 488 104 549q0 100 -115 100q-33 0 -129 -28z" />
    <glyph glyph-name="Jcircumflex" unicode="&#x134;" horiz-adv-x="1219" 
d="M1319 1485l-311 203l-383 -203l-33 28q293 302 331 328q39 27 109 27q72 0 98 -26q27 -27 92 -129q16 -25 48.5 -75t83.5 -125zM946 432q-50 -213 -217 -342q-166 -129 -364 -129q-79 0 -153.5 19t-132 59.5t-92 104t-34.5 151.5q0 46 14 86t40 69.5t63.5 46.5t85.5 17
q40 0 74 -12t59 -35t39 -55.5t14 -73.5q0 -90 -100 -175q-25 -22 -47 -44v-15q21 -49 100 -49q208 0 289 348l182 785q8 37 8 55q0 77 -182 103l16 73h766l-16 -73q-105 -8 -158 -31q-54 -22 -72 -96z" />
    <glyph glyph-name="jcircumflex" unicode="&#x135;" horiz-adv-x="748" 
d="M729 1104l-278 254l-359 -254l-49 29q138 180 217.5 276t102.5 110q47 29 116 29q78 0 118 -49q20 -25 66 -116t119 -250zM74 936q201 80 305 80q48 0 93 -12t79.5 -37.5t55 -64.5t20.5 -93q0 -86 -71 -432q-71 -344 -124 -452q-36 -73 -90.5 -140t-122.5 -118t-147 -81
t-164 -30q-287 0 -287 192q0 33 12 60t33 46.5t49 30.5t60 11q141 0 243 -258q69 100 173 587q104 488 104 549q0 100 -115 100q-33 0 -129 -28z" />
    <glyph glyph-name="uni0136" unicode="&#x136;" horiz-adv-x="1673" 
d="M559 225q-4 -17 -6 -30.5t-2 -24.5q0 -41 33 -64q34 -22 145 -32l-16 -74h-768l16 74q126 0 172 27q47 29 66 94l227 993q5 22 7.5 36t2.5 19q0 78 -180 103l16 73h766l-16 -73q-65 -5 -140 -24q-75 -20 -94 -103l-110 -484h43q631 487 631 574q0 26 -140 37l19 73h616
l-16 -73q-121 -10 -239 -65t-578 -447l389 -638q74 -113 225 -122l-16 -74h-533q-43 105 -132 267.5t-226 387.5h-62zM623 -381q194 12 217 117h-58q-77 0 -107 19.5t-30 64.5q0 114 156 114q151 0 151 -147q0 -57 -23.5 -100.5t-67.5 -72.5t-107 -43.5t-141 -14.5z" />
    <glyph glyph-name="uni0137" unicode="&#x137;" horiz-adv-x="1313" 
d="M395 0h-332l295 1274q9 39 9 55q0 39 -16 62t-41 35t-56.5 16t-63.5 6l19 74l526 26l13 -16l-240 -1040h6q158 177 297 315q139 139 203 174t127 35q155 0 155 -158q0 -37 -14 -69.5t-38 -57t-56.5 -39t-69.5 -14.5q-98 0 -213 88q-7 -6 -18 -12q-42 -28 -99 -78
l152 -378q20 -48 38.5 -83t35.5 -58q35 -44 125 -44q51 0 129 30l-23 -90q-183 -80 -305 -80q-45 0 -83.5 6t-70.5 21t-58.5 42t-48.5 69q-18 35 -51 116.5t-81 212.5l-66 -61zM441 -381q194 12 217 117h-58q-77 0 -107 19.5t-30 64.5q0 114 156 114q151 0 151 -147
q0 -57 -23.5 -100.5t-67.5 -72.5t-107 -43.5t-141 -14.5z" />
    <glyph glyph-name="kgreenlandic" unicode="&#x138;" horiz-adv-x="1343" 
d="M545 492q85 96 160 176t142 146q133 132 196 167q64 35 128 35q156 0 156 -158q0 -36 -14 -68.5t-38.5 -57.5t-57 -39.5t-68.5 -14.5q-98 0 -213 88q-62 -42 -119 -90q185 -477 228 -520q44 -43 122 -43q57 0 129 30l-20 -90q-187 -80 -305 -80q-45 0 -82.5 5.5t-69 19.5
t-58.5 40t-50 66q-42 76 -133 336l-66 -61l-86 -379h-332l142 614q24 104 24 150q0 27 -4.5 45.5t-16.5 30.5t-33 17t-54 5q-49 0 -123 -28l22 90q201 80 295 80q120 0 185 -54t65 -153q0 -62 -25 -156l-34 -149h8z" />
    <glyph glyph-name="Lacute" unicode="&#x139;" horiz-adv-x="1405" 
d="M567 1526q82 76 149 142.5t121 123.5q69 76 148 76q63 0 104 -28t41 -73q0 -52 -41 -82q-42 -31 -228 -98q-57 -20 -121 -45.5t-138 -56.5zM-39 74q19 0 48.5 2.5t59.5 8t56 15.5t38 25q26 32 36 70l227 993q5 22 7.5 36t2.5 19q0 78 -180 103l16 73h781l-19 -73
q-140 -11 -186 -37q-45 -25 -60 -90l-217 -943q-7 -31 -10.5 -55.5t-3.5 -44.5q0 -51 33 -71q32 -19 182 -19q99 0 163.5 12t101.5 33q20 12 44.5 35t50.5 52.5t53 63t51 65.5t44 60.5t33 47.5h71l-133 -455h-1306z" />
    <glyph glyph-name="lacute" unicode="&#x13a;" horiz-adv-x="725" 
d="M289 1526q66 63 132.5 128.5t135.5 137.5q70 76 148 76q66 0 105.5 -26.5t39.5 -74.5t-33 -77q-32 -26 -137 -64q-94 -34 -183 -69t-175 -72zM477 362q-26 -115 -26 -149q0 -57 29 -77.5t95 -20.5q59 0 130 28l-23 -90q-195 -80 -303 -80q-48 0 -94.5 12t-83 37t-58.5 64
t-22 94q0 54 20 154l187 811q8 37 8 55q0 39 -15.5 61.5t-40 34.5t-55.5 16.5t-63 6.5l18 74l527 26l10 -16z" />
    <glyph glyph-name="uni013B" unicode="&#x13b;" horiz-adv-x="1405" 
d="M-39 74q19 0 48.5 2.5t59.5 8t56 15.5t38 25q26 32 36 70l227 993q5 22 7.5 36t2.5 19q0 78 -180 103l16 73h781l-19 -73q-140 -11 -186 -37q-45 -25 -60 -90l-217 -943q-7 -31 -10.5 -55.5t-3.5 -44.5q0 -51 33 -71q32 -19 182 -19q99 0 163.5 12t101.5 33
q20 12 44.5 35t50.5 52.5t53 63t51 65.5t44 60.5t33 47.5h71l-133 -455h-1306zM545 -381q194 12 217 117h-58q-77 0 -107 19.5t-30 64.5q0 114 156 114q151 0 151 -147q0 -57 -23.5 -100.5t-67.5 -72.5t-107 -43.5t-141 -14.5z" />
    <glyph glyph-name="uni013C" unicode="&#x13c;" horiz-adv-x="725" 
d="M477 362q-26 -116 -26 -149q0 -57 29 -77.5t95 -20.5q59 0 130 28l-23 -90q-195 -80 -303 -80q-48 0 -94.5 12t-83 37t-58.5 64t-22 94q0 54 20 154l215 940q9 39 9 55q0 39 -15.5 62t-40.5 35t-56 16t-63 6l19 74l526 26l10 -16zM205 -381q194 12 217 117h-58
q-77 0 -107 19.5t-30 64.5q0 114 156 114q151 0 151 -147q0 -57 -23.5 -100.5t-67.5 -72.5t-107 -43.5t-141 -14.5z" />
    <glyph glyph-name="Lcaron" unicode="&#x13d;" horiz-adv-x="1405" 
d="M1017 805q263 117 322 305h-55q-174 0 -174 125q0 42 18.5 78.5t49 64t69.5 43t80 15.5q176 0 176 -180q0 -93 -42 -174.5t-108.5 -148t-147.5 -117.5t-159 -83zM-39 74q19 0 48.5 2.5t59.5 8t56 15.5t38 25q26 32 36 70l227 993q5 22 7.5 36t2.5 19q0 78 -180 103l16 73
h781l-19 -73q-140 -11 -186 -37q-45 -25 -60 -90l-217 -943q-7 -31 -10.5 -55.5t-3.5 -44.5q0 -51 33 -71q32 -19 182 -19q99 0 163.5 12t101.5 33q20 12 44.5 35t50.5 52.5t53 63t51 65.5t44 60.5t33 47.5h71l-133 -455h-1306z" />
    <glyph glyph-name="lcaron" unicode="&#x13e;" horiz-adv-x="1049" 
d="M477 362q-26 -116 -26 -149q0 -57 29 -77.5t95 -20.5q59 0 130 28l-23 -90q-195 -80 -303 -80q-48 0 -94.5 12t-83 37t-58.5 64t-22 94q0 54 20 154l215 940q9 39 9 55q0 39 -15.5 62t-40.5 35t-56 16t-63 6l19 74l526 26l10 -16zM751 899q263 117 322 305h-55
q-174 0 -174 125q0 42 18.5 78.5t49 64t69.5 43t80 15.5q176 0 176 -180q0 -93 -42 -174.5t-108.5 -148t-147.5 -117.5t-159 -83z" />
    <glyph glyph-name="Ldot" unicode="&#x13f;" horiz-adv-x="1405" 
d="M-39 74q19 0 48.5 2.5t59.5 8t56 15.5t38 25q26 32 36 70l227 993q5 22 7.5 36t2.5 19q0 78 -180 103l16 73h781l-19 -73q-140 -11 -186 -37q-45 -25 -60 -90l-217 -943q-7 -31 -10.5 -55.5t-3.5 -44.5q0 -51 33 -71q32 -19 182 -19q99 0 163.5 12t101.5 33
q20 12 44.5 35t50.5 52.5t53 63t51 65.5t44 60.5t33 47.5h71l-133 -455h-1306zM1188 571q-41 0 -77 15t-63 41.5t-42.5 62t-15.5 76.5t16 76.5t43 62t63 42t76 15.5t76 -15.5t63 -42.5t42.5 -62.5t15.5 -75.5q0 -41 -15.5 -76.5t-42.5 -62t-62.5 -41.5t-76.5 -15z" />
    <glyph glyph-name="ldot" unicode="&#x140;" horiz-adv-x="1118" 
d="M477 362q-26 -116 -26 -149q0 -57 29 -77.5t95 -20.5q59 0 130 28l-23 -90q-195 -80 -303 -80q-48 0 -94.5 12t-83 37t-58.5 64t-22 94q0 54 20 154l215 940q9 39 9 55q0 39 -15.5 62t-40.5 35t-56 16t-63 6l19 74l526 26l10 -16zM944 477q-41 0 -77 15t-63 41.5
t-42.5 62t-15.5 76.5t16 76.5t43 62t63 42t76 15.5t76 -15.5t63 -42.5t42.5 -62.5t15.5 -75.5q0 -41 -15.5 -76.5t-42.5 -62t-62.5 -41.5t-76.5 -15z" />
    <glyph glyph-name="Lslash" unicode="&#x141;" horiz-adv-x="1405" 
d="M111 543l-33 88l241 90l107 467q5 22 7.5 36t2.5 19q0 78 -180 103l16 73h781l-19 -73q-140 -11 -186 -37q-45 -25 -60 -90l-81 -361l280 107l33 -88l-338 -127l-111 -474q-14 -62 -14 -100q0 -51 33 -71q32 -19 182 -19q99 0 163.5 12t101.5 33q20 12 44.5 35t50.5 52.5
t53 63t51 65.5t44 60.5t33 47.5h71l-133 -455h-1306l16 74q19 0 48.5 2.5t59.5 8t56 15.5t38 25q26 32 36 70l96 415z" />
    <glyph glyph-name="lslash" unicode="&#x142;" horiz-adv-x="725" 
d="M737 901l23 -98l-199 -72l-84 -369q-26 -116 -26 -149q0 -57 29 -77.5t95 -20.5q59 0 130 28l-23 -90q-195 -80 -303 -80q-48 0 -94.5 12t-83 37t-58.5 64t-22 94q0 54 20 154l66 278l-144 -51l-20 98l188 66l125 549q9 41 9 55q0 39 -15.5 62t-40.5 35t-56 16t-63 6
l19 74l526 26l10 -16l-157 -686z" />
    <glyph glyph-name="Nacute" unicode="&#x143;" horiz-adv-x="1700" 
d="M858 1526q82 76 149 142.5t121 123.5q69 76 148 76q63 0 104 -28t41 -73q0 -52 -41 -82q-42 -31 -228 -98q-57 -20 -121 -45.5t-138 -56.5zM1866 1346l-34 -5q-136 -18 -188 -76q-51 -56 -98 -255l-235 -1018h-168l-613 1136l-161 -708q-27 -118 -27 -184q0 -76 39 -109
q40 -32 158 -53l-19 -74h-608l16 74q155 13 213 70q57 56 107 264l153 667q13 55 13 82q0 155 -199 189l18 73h525l534 -999l133 579q27 119 27 181q0 47 -15.5 76t-42 46.5t-62 27t-75.5 16.5l17 73h608z" />
    <glyph glyph-name="nacute" unicode="&#x144;" horiz-adv-x="1413" 
d="M604 1139q32 40 65 85.5t68 96.5q108 157 149 193q40 34 115 34q18 0 40 -5.5t41 -16.5t31.5 -27.5t12.5 -38.5q0 -62 -41 -97q-40 -34 -190 -116q-57 -32 -119 -67.5t-129 -77.5zM1362 63q-195 -79 -295 -79q-48 0 -93.5 12t-81 37t-56.5 64t-21 93q0 81 21 154l71 266
q23 87 23 135q0 103 -103 103q-100 0 -237 -125l-164 -723h-332l142 614q24 104 24 150q0 27 -4.5 45.5t-16.5 30.5t-33 17t-54 5q-49 0 -123 -28l22 90q201 80 295 80q212 0 254 -177h6q212 189 426 189q48 0 90.5 -13.5t75 -40t51.5 -65.5t19 -90q0 -77 -21 -154l-76 -280
q-24 -88 -24 -150q0 -27 5 -45.5t18 -30.5t35.5 -17t56.5 -5q50 0 122 29z" />
    <glyph glyph-name="uni0145" unicode="&#x145;" horiz-adv-x="1700" 
d="M1866 1346l-34 -5q-136 -18 -188 -76q-51 -56 -98 -255l-235 -1018h-168l-613 1136l-161 -708q-27 -118 -27 -184q0 -76 39 -109q40 -32 158 -53l-19 -74h-608l16 74q155 13 213 70q57 56 107 264l153 667q13 55 13 82q0 155 -199 189l18 73h525l534 -999l133 579
q27 119 27 181q0 47 -15.5 76t-42 46.5t-62 27t-75.5 16.5l17 73h608zM568 -381q194 12 217 117h-58q-77 0 -107 19.5t-30 64.5q0 114 156 114q151 0 151 -147q0 -57 -23.5 -100.5t-67.5 -72.5t-107 -43.5t-141 -14.5z" />
    <glyph glyph-name="uni0146" unicode="&#x146;" horiz-adv-x="1413" 
d="M1362 63q-195 -79 -295 -79q-48 0 -93.5 12t-81 37t-56.5 64t-21 93q0 81 21 154l71 266q23 87 23 135q0 103 -103 103q-100 0 -237 -125l-164 -723h-332l142 614q24 104 24 150q0 27 -4.5 45.5t-16.5 30.5t-33 17t-54 5q-49 0 -123 -28l22 90q201 80 295 80
q212 0 254 -177h6q212 189 426 189q48 0 90.5 -13.5t75 -40t51.5 -65.5t19 -90q0 -77 -21 -154l-76 -280q-24 -88 -24 -150q0 -27 5 -45.5t18 -30.5t35.5 -17t56.5 -5q50 0 122 29zM508 -381q194 12 217 117h-58q-77 0 -107 19.5t-30 64.5q0 114 156 114q151 0 151 -147
q0 -57 -23.5 -100.5t-67.5 -72.5t-107 -43.5t-141 -14.5z" />
    <glyph glyph-name="Ncaron" unicode="&#x147;" horiz-adv-x="1700" 
d="M1472 1839q-54 -55 -99.5 -100.5t-82.5 -80.5t-64.5 -62t-45.5 -46q-19 -18 -35 -30t-32.5 -19t-36 -9.5t-46.5 -2.5q-72 0 -96 24q-25 26 -223 326l34 29l310 -199l385 199zM1866 1346l-34 -5q-136 -18 -188 -76q-51 -56 -98 -255l-235 -1018h-168l-613 1136l-161 -708
q-27 -118 -27 -184q0 -76 39 -109q40 -32 158 -53l-19 -74h-608l16 74q155 13 213 70q57 56 107 264l153 667q13 55 13 82q0 155 -199 189l18 73h525l534 -999l133 579q27 119 27 181q0 47 -15.5 76t-42 46.5t-62 27t-75.5 16.5l17 73h608z" />
    <glyph glyph-name="ncaron" unicode="&#x148;" horiz-adv-x="1413" 
d="M1163 1522q-131 -167 -206.5 -260t-97.5 -114q-43 -42 -132 -42q-75 0 -107 30q-33 31 -196 386l53 28l277 -254l358 254zM1362 63q-195 -79 -295 -79q-48 0 -93.5 12t-81 37t-56.5 64t-21 93q0 81 21 154l71 266q23 87 23 135q0 103 -103 103q-100 0 -237 -125
l-164 -723h-332l142 614q24 104 24 150q0 27 -4.5 45.5t-16.5 30.5t-33 17t-54 5q-49 0 -123 -28l22 90q201 80 295 80q212 0 254 -177h6q212 189 426 189q48 0 90.5 -13.5t75 -40t51.5 -65.5t19 -90q0 -77 -21 -154l-76 -280q-24 -88 -24 -150q0 -27 5 -45.5t18 -30.5
t35.5 -17t56.5 -5q50 0 122 29z" />
    <glyph glyph-name="napostrophe" unicode="&#x149;" horiz-adv-x="1704" 
d="M22 899q263 117 322 305h-55q-174 0 -174 125q0 42 18.5 78.5t49 64t69.5 43t80 15.5q176 0 176 -180q0 -93 -42 -174.5t-108.5 -148t-147.5 -117.5t-159 -83zM1653 63q-195 -79 -295 -79q-48 0 -93.5 12t-81 37t-56.5 64t-21 93q0 81 21 154l71 266q23 87 23 135
q0 103 -103 103q-100 0 -237 -125l-164 -723h-332l142 614q24 104 24 150q0 27 -4.5 45.5t-16.5 30.5t-33 17t-54 5q-49 0 -123 -28l22 90q201 80 295 80q212 0 254 -177h6q212 189 426 189q48 0 90.5 -13.5t75 -40t51.5 -65.5t19 -90q0 -77 -21 -154l-76 -280
q-24 -88 -24 -150q0 -27 5 -45.5t18 -30.5t35.5 -17t56.5 -5q50 0 122 29z" />
    <glyph glyph-name="Eng" unicode="&#x14a;" horiz-adv-x="1700" 
d="M530 1128l-161 -708q-27 -118 -27 -184q0 -76 39 -109q40 -32 158 -53l-19 -74h-608l16 74q155 13 213 70q57 56 107 264l153 667q13 55 13 82q0 155 -199 189l18 73h525l557 -915l110 495q27 122 27 181q0 47 -15.5 76t-42 46.5t-62 27t-75.5 16.5l17 73h608l-16 -73
l-34 -5q-136 -18 -188 -76q-51 -56 -98 -255l-205 -897q-25 -109 -71.5 -210t-117 -178t-166 -123t-218.5 -46q-54 0 -98 11.5t-74.5 33t-47 51.5t-16.5 67q0 35 10.5 67t31 56.5t50 39t66.5 14.5q130 0 191 -213q218 20 297 301l14 49z" />
    <glyph glyph-name="eng" unicode="&#x14b;" horiz-adv-x="1389" 
d="M616 -358q57 31 103 148q46 114 133 509q88 392 88 444q0 109 -102 109q-122 0 -248 -129l-164 -723h-332l142 614q24 104 24 150q0 27 -4.5 45.5t-16.5 30.5t-33 17t-54 5q-49 0 -123 -28l22 90q201 80 295 80q212 0 254 -177h6q219 189 424 189q250 0 250 -230
q0 -42 -36 -224q-36 -180 -81 -351l-24 -96q-28 -113 -87 -214.5t-143 -178t-189.5 -121.5t-227.5 -45q-228 0 -228 151q0 79 44 125.5t124 46.5q75 0 117 -48q41 -49 67 -189z" />
    <glyph glyph-name="Omacron" unicode="&#x14c;" horiz-adv-x="1679" 
d="M621 1659l34 170h748l-35 -170h-747zM727 -39q-133 0 -249.5 39t-203.5 113.5t-137.5 183.5t-50.5 248q0 378 272 645q272 268 658 268q132 0 249.5 -39t205.5 -113.5t139 -183t51 -248.5q0 -376 -266 -645q-265 -268 -668 -268zM993 1366q-222 0 -371 -276
q-147 -276 -147 -644q0 -189 73 -291t208 -102q224 0 370 278q146 280 146 642q0 187 -71 290t-208 103z" />
    <glyph glyph-name="omacron" unicode="&#x14d;" horiz-adv-x="1303" 
d="M381 1247l34 170h748l-35 -170h-747zM543 -33q-99 0 -186 26.5t-151 79.5t-101 132.5t-37 185.5q0 269 191 448t489 179q101 0 189.5 -24.5t154.5 -76t104.5 -131t38.5 -188.5q0 -263 -192 -448q-192 -183 -500 -183zM729 938q-145 0 -228 -197q-81 -196 -81 -465
q0 -231 155 -231q140 0 224 200q84 201 84 468q0 225 -154 225z" />
    <glyph glyph-name="Obreve" unicode="&#x14e;" horiz-adv-x="1679" 
d="M1418 1851q-114 -321 -412 -321q-82 0 -138 29t-89 78q-32 48 -40 87q-4 19 -5.5 50.5t-1.5 76.5l73 17q20 -164 236 -164q213 0 309 164zM727 -39q-133 0 -249.5 39t-203.5 113.5t-137.5 183.5t-50.5 248q0 378 272 645q272 268 658 268q132 0 249.5 -39t205.5 -113.5
t139 -183t51 -248.5q0 -376 -266 -645q-265 -268 -668 -268zM993 1366q-222 0 -371 -276q-147 -276 -147 -644q0 -189 73 -291t208 -102q224 0 370 278q146 280 146 642q0 187 -71 290t-208 103z" />
    <glyph glyph-name="obreve" unicode="&#x14f;" horiz-adv-x="1303" 
d="M1133 1532q-123 -397 -402 -397q-107 0 -166 53q-58 54 -76 127q-18 74 -18 217l74 16q8 -54 20 -98.5t35.5 -75.5t62 -48t99.5 -17q63 0 109 17t80.5 48.5t61 75.5t50.5 98zM543 -33q-99 0 -186 26.5t-151 79.5t-101 132.5t-37 185.5q0 269 191 448t489 179
q101 0 189.5 -24.5t154.5 -76t104.5 -131t38.5 -188.5q0 -263 -192 -448q-192 -183 -500 -183zM729 938q-145 0 -228 -197q-81 -196 -81 -465q0 -231 155 -231q140 0 224 200q84 201 84 468q0 225 -154 225z" />
    <glyph glyph-name="Ohungarumlaut" unicode="&#x150;" horiz-adv-x="1679" 
d="M1122 1526q57 51 99 90.5t71 68.5q61 60 102.5 97.5t63.5 53.5q46 32 100 32q139 0 139 -90q0 -58 -45 -90q-43 -31 -222 -93q-40 -14 -109.5 -41t-171.5 -69zM585 1526q59 54 102.5 94t72.5 68q67 64 109.5 102.5t61.5 51.5q40 26 93 26q139 0 139 -94q0 -53 -43 -84
q-40 -29 -218 -94q-67 -25 -288 -111zM727 -39q-133 0 -249.5 39t-203.5 113.5t-137.5 183.5t-50.5 248q0 378 272 645q272 268 658 268q132 0 249.5 -39t205.5 -113.5t139 -183t51 -248.5q0 -376 -266 -645q-265 -268 -668 -268zM993 1366q-222 0 -371 -276
q-147 -276 -147 -644q0 -189 73 -291t208 -102q224 0 370 278q146 280 146 642q0 187 -71 290t-208 103z" />
    <glyph glyph-name="ohungarumlaut" unicode="&#x151;" horiz-adv-x="1303" 
d="M825 1128q92 107 204 261q24 33 47 61.5t49.5 50.5t59.5 34.5t76 12.5q18 0 33.5 -6t27 -15.5t18.5 -22.5t7 -27q0 -36 -35 -73q-36 -38 -148 -107q-91 -57 -168 -107t-142 -96zM419 1128q102 117 207 261q74 100 118 129q47 30 114 30q35 0 60.5 -21t25.5 -50
q0 -41 -44 -82q-22 -20 -75.5 -56t-141.5 -90q-45 -28 -103 -66.5t-130 -88.5zM543 -33q-99 0 -186 26.5t-151 79.5t-101 132.5t-37 185.5q0 269 191 448t489 179q101 0 189.5 -24.5t154.5 -76t104.5 -131t38.5 -188.5q0 -263 -192 -448q-192 -183 -500 -183zM729 938
q-145 0 -228 -197q-81 -196 -81 -465q0 -231 155 -231q140 0 224 200q84 201 84 468q0 225 -154 225z" />
    <glyph glyph-name="OE" unicode="&#x152;" horiz-adv-x="2263" 
d="M2224 1057h-76q-12 87 -62 164q-50 79 -96 95q-48 17 -192 17h-184l-129 -555h125q222 0 317 248h76l-137 -592h-76q5 107 -27 182q-31 76 -172 76h-127l-96 -416q-7 -31 -10.5 -56.5t-3.5 -47.5q0 -53 41 -70q41 -16 151 -16q31 0 71 1t81 5.5t79 14.5t66 27q15 9 38 31
t49 50.5t53.5 61.5t52.5 64t44 58t29 43h72l-129 -442h-1296q-290 0 -480 142t-190 401q0 398 284 637q286 239 713 239h1225zM1255 1329q-28 2 -73.5 3t-108.5 1q-272 0 -433 -243q-161 -244 -161 -590q0 -87 20.5 -163t63.5 -131.5t111 -87.5t162 -32h67q19 0 35.5 0.5
t30.5 1.5z" />
    <glyph glyph-name="oe" unicode="&#x153;" horiz-adv-x="1911" 
d="M1188 410q11 -291 221 -291q220 0 358 190l74 -61q-45 -64 -103.5 -116t-126 -88.5t-142.5 -56.5t-154 -20q-216 0 -357 129q-195 -129 -415 -129q-99 0 -186 26.5t-151 79.5t-101 132.5t-37 185.5q0 269 191 448t489 179q219 0 362 -127q188 125 389 125q367 0 367 -230
q0 -308 -678 -376zM729 938q-145 0 -228 -197q-81 -196 -81 -465q0 -231 155 -231q140 0 224 200q84 201 84 468q0 225 -154 225zM1192 492q214 25 281 88t67 180q0 176 -117 176q-76 0 -145 -126q-68 -126 -86 -318z" />
    <glyph glyph-name="Racute" unicode="&#x154;" horiz-adv-x="1632" 
d="M758 1526q82 76 149 142.5t121 123.5q69 76 148 76q63 0 104 -28t41 -73q0 -52 -41 -82q-42 -31 -228 -98q-57 -20 -121 -45.5t-138 -56.5zM559 225q-4 -17 -6 -30.5t-2 -24.5q0 -41 33 -64q34 -22 145 -32l-16 -74h-768l16 74q19 0 48.5 2.5t59.5 8t56 15.5t38 25
q26 32 36 70l227 993q5 22 7.5 36t2.5 19q0 78 -180 103l16 73h783q487 0 487 -278q0 -325 -455 -441l208 -369q48 -85 80 -135.5t49 -66.5q33 -30 50 -38q18 -7 117 -17l-16 -74h-518q-73 170 -155 330t-173 313h-72zM815 1333l-137 -604h96q88 0 157 29t117 80.5
t73.5 123.5t25.5 158q0 213 -262 213h-70z" />
    <glyph glyph-name="racute" unicode="&#x155;" horiz-adv-x="1094" 
d="M420 1139q32 40 65 85.5t68 96.5q108 157 149 193q40 34 115 34q18 0 40 -5.5t41 -16.5t31.5 -27.5t12.5 -38.5q0 -62 -41 -97q-40 -34 -190 -116q-57 -32 -119 -67.5t-129 -77.5zM98 0l138 614q24 107 24 150q0 31 -6 50t-18.5 29.5t-33 14.5t-50.5 4q-49 0 -123 -28
l22 90q201 80 295 80q212 0 254 -177h6q33 34 67.5 68t73.5 61t83 43.5t94 16.5q84 0 133 -54.5t49 -154.5q0 -47 -13 -88t-38.5 -71.5t-63.5 -48t-88 -17.5q-27 0 -55.5 6.5t-52 21t-39 37t-15.5 53.5q0 56 54 168q-115 -46 -207 -159l-160 -709h-330z" />
    <glyph glyph-name="uni0156" unicode="&#x156;" horiz-adv-x="1632" 
d="M559 225q-4 -17 -6 -30.5t-2 -24.5q0 -41 33 -64q34 -22 145 -32l-16 -74h-768l16 74q19 0 48.5 2.5t59.5 8t56 15.5t38 25q26 32 36 70l227 993q5 22 7.5 36t2.5 19q0 78 -180 103l16 73h783q487 0 487 -278q0 -325 -455 -441l208 -369q48 -85 80 -135.5t49 -66.5
q33 -30 50 -38q18 -7 117 -17l-16 -74h-518q-73 170 -155 330t-173 313h-72zM815 1333l-137 -604h96q88 0 157 29t117 80.5t73.5 123.5t25.5 158q0 213 -262 213h-70zM627 -381q194 12 217 117h-58q-77 0 -107 19.5t-30 64.5q0 114 156 114q151 0 151 -147
q0 -57 -23.5 -100.5t-67.5 -72.5t-107 -43.5t-141 -14.5z" />
    <glyph glyph-name="uni0157" unicode="&#x157;" horiz-adv-x="1094" 
d="M98 0l138 614q24 107 24 150q0 31 -6 50t-18.5 29.5t-33 14.5t-50.5 4q-49 0 -123 -28l22 90q201 80 295 80q212 0 254 -177h6q33 34 67.5 68t73.5 61t83 43.5t94 16.5q84 0 133 -54.5t49 -154.5q0 -47 -13 -88t-38.5 -71.5t-63.5 -48t-88 -17.5q-27 0 -55.5 6.5t-52 21
t-39 37t-15.5 53.5q0 56 54 168q-115 -46 -207 -159l-160 -709h-330zM64 -381q194 12 217 117h-58q-77 0 -107 19.5t-30 64.5q0 114 156 114q151 0 151 -147q0 -57 -23.5 -100.5t-67.5 -72.5t-107 -43.5t-141 -14.5z" />
    <glyph glyph-name="Rcaron" unicode="&#x158;" horiz-adv-x="1632" 
d="M1351 1839q-54 -55 -99.5 -100.5t-82.5 -80.5t-64.5 -62t-45.5 -46q-19 -18 -35 -30t-32.5 -19t-36 -9.5t-46.5 -2.5q-72 0 -96 24q-25 26 -223 326l34 29l310 -199l385 199zM559 225q-4 -17 -6 -30.5t-2 -24.5q0 -41 33 -64q34 -22 145 -32l-16 -74h-768l16 74
q19 0 48.5 2.5t59.5 8t56 15.5t38 25q26 32 36 70l227 993q5 22 7.5 36t2.5 19q0 78 -180 103l16 73h783q487 0 487 -278q0 -325 -455 -441l208 -369q48 -85 80 -135.5t49 -66.5q33 -30 50 -38q18 -7 117 -17l-16 -74h-518q-73 170 -155 330t-173 313h-72zM815 1333
l-137 -604h96q88 0 157 29t117 80.5t73.5 123.5t25.5 158q0 213 -262 213h-70z" />
    <glyph glyph-name="rcaron" unicode="&#x159;" horiz-adv-x="1094" 
d="M1009 1522q-131 -167 -206.5 -260t-97.5 -114q-43 -42 -132 -42q-75 0 -107 30q-33 31 -196 386l53 28l277 -254l358 254zM98 0l138 614q24 107 24 150q0 31 -6 50t-18.5 29.5t-33 14.5t-50.5 4q-49 0 -123 -28l22 90q201 80 295 80q212 0 254 -177h6q33 34 67.5 68
t73.5 61t83 43.5t94 16.5q84 0 133 -54.5t49 -154.5q0 -47 -13 -88t-38.5 -71.5t-63.5 -48t-88 -17.5q-27 0 -55.5 6.5t-52 21t-39 37t-15.5 53.5q0 56 54 168q-115 -46 -207 -159l-160 -709h-330z" />
    <glyph glyph-name="Sacute" unicode="&#x15a;" horiz-adv-x="1337" 
d="M639 1526q82 76 149 142.5t121 123.5q69 76 148 76q63 0 104 -28t41 -73q0 -52 -41 -82q-42 -31 -228 -98q-57 -20 -121 -45.5t-138 -56.5zM43 0h-86l106 512h87q15 -85 48 -166t86 -144t126.5 -101t169.5 -38q60 0 117 15t101.5 46t71.5 79.5t27 115.5q0 154 -209 226
q-249 83 -327 131q-38 24 -68.5 56.5t-52.5 71t-33.5 82t-11.5 89.5q0 198 174 339q173 142 442 142q218 0 399 -96l74 59h88l-104 -483h-86q-65 422 -361 422q-124 0 -204 -69t-80 -171q0 -73 50 -127.5t141 -88.5l273 -101q250 -109 250 -328t-190 -366
q-191 -146 -486 -146q-247 0 -446 109z" />
    <glyph glyph-name="sacute" unicode="&#x15b;" horiz-adv-x="1059" 
d="M436 1139q32 40 65 85.5t68 96.5q108 157 149 193q40 34 115 34q18 0 40 -5.5t41 -16.5t31.5 -27.5t12.5 -38.5q0 -62 -41 -97q-40 -34 -190 -116q-57 -32 -119 -67.5t-129 -77.5zM403 41q230 0 230 180q0 58 -42 89q-39 32 -185 85q-263 89 -263 293q0 138 134 233
t368 95q375 0 375 -199q0 -32 -12.5 -57t-33.5 -42.5t-48.5 -26.5t-57.5 -9q-150 0 -219 262q-34 -3 -67 -15t-59 -33.5t-42 -51t-16 -66.5q0 -66 37 -96q37 -28 176 -78q274 -94 274 -293q0 -156 -136 -250t-382 -94q-210 0 -317 59t-107 150q0 34 13 61t34.5 46t50.5 29
t62 10q165 0 233 -281z" />
    <glyph glyph-name="Scircumflex" unicode="&#x15c;" horiz-adv-x="1337" 
d="M1155 1485l-311 203l-383 -203l-33 28q293 302 331 328q39 27 109 27q72 0 98 -26q27 -27 92 -129q16 -25 48.5 -75t83.5 -125zM43 0h-86l106 512h87q15 -85 48 -166t86 -144t126.5 -101t169.5 -38q60 0 117 15t101.5 46t71.5 79.5t27 115.5q0 154 -209 226
q-249 83 -327 131q-38 24 -68.5 56.5t-52.5 71t-33.5 82t-11.5 89.5q0 198 174 339q173 142 442 142q218 0 399 -96l74 59h88l-104 -483h-86q-65 422 -361 422q-124 0 -204 -69t-80 -171q0 -73 50 -127.5t141 -88.5l273 -101q250 -109 250 -328t-190 -366
q-191 -146 -486 -146q-247 0 -446 109z" />
    <glyph glyph-name="scircumflex" unicode="&#x15d;" horiz-adv-x="1059" 
d="M938 1104l-278 254l-359 -254l-49 29q138 180 217.5 276t102.5 110q47 29 116 29q78 0 118 -49q20 -25 66 -116t119 -250zM403 41q230 0 230 180q0 58 -42 89q-39 32 -185 85q-263 89 -263 293q0 138 134 233t368 95q375 0 375 -199q0 -32 -12.5 -57t-33.5 -42.5
t-48.5 -26.5t-57.5 -9q-150 0 -219 262q-34 -3 -67 -15t-59 -33.5t-42 -51t-16 -66.5q0 -66 37 -96q37 -28 176 -78q274 -94 274 -293q0 -156 -136 -250t-382 -94q-210 0 -317 59t-107 150q0 34 13 61t34.5 46t50.5 29t62 10q165 0 233 -281z" />
    <glyph glyph-name="Scedilla" unicode="&#x15e;" horiz-adv-x="1337" 
d="M43 0h-86l106 512h87q15 -85 48 -166t86 -144t126.5 -101t169.5 -38q60 0 117 15t101.5 46t71.5 79.5t27 115.5q0 154 -209 226q-249 83 -327 131q-38 24 -68.5 56.5t-52.5 71t-33.5 82t-11.5 89.5q0 198 174 339q173 142 442 142q218 0 399 -96l74 59h88l-104 -483h-86
q-65 422 -361 422q-124 0 -204 -69t-80 -171q0 -73 50 -127.5t141 -88.5l273 -101q250 -109 250 -328t-190 -366q-182 -139 -458 -146l-11 -57q215 0 215 -129q0 -114 -108 -166q-109 -53 -386 -53l19 77q166 0 216 19q52 18 52 72q0 55 -125 55l41 184q-210 10 -387 107z
" />
    <glyph glyph-name="scedilla" unicode="&#x15f;" horiz-adv-x="1059" 
d="M403 41q230 0 230 180q0 58 -42 89q-39 32 -185 85q-263 89 -263 293q0 138 134 233t368 95q375 0 375 -199q0 -32 -12.5 -57t-33.5 -42.5t-48.5 -26.5t-57.5 -9q-150 0 -219 262q-34 -3 -67 -15t-59 -33.5t-42 -51t-16 -66.5q0 -66 37 -96q37 -28 176 -78
q274 -94 274 -293q0 -156 -136 -250q-122 -84 -328 -93l-13 -64q215 0 215 -129q0 -114 -108 -166q-109 -53 -386 -53l19 77q166 0 216 19q52 18 52 72q0 55 -125 55l42 188q-185 5 -283 59q-107 59 -107 150q0 34 13 61t34.5 46t50.5 29t62 10q165 0 233 -281z" />
    <glyph glyph-name="Scaron" unicode="&#x160;" horiz-adv-x="1337" 
d="M1263 1839q-54 -55 -99.5 -100.5t-82.5 -80.5t-64.5 -62t-45.5 -46q-19 -18 -35 -30t-32.5 -19t-36 -9.5t-46.5 -2.5q-72 0 -96 24q-25 26 -223 326l34 29l310 -199l385 199zM43 0h-86l106 512h87q15 -85 48 -166t86 -144t126.5 -101t169.5 -38q60 0 117 15t101.5 46
t71.5 79.5t27 115.5q0 154 -209 226q-249 83 -327 131q-38 24 -68.5 56.5t-52.5 71t-33.5 82t-11.5 89.5q0 198 174 339q173 142 442 142q218 0 399 -96l74 59h88l-104 -483h-86q-65 422 -361 422q-124 0 -204 -69t-80 -171q0 -73 50 -127.5t141 -88.5l273 -101
q250 -109 250 -328t-190 -366q-191 -146 -486 -146q-247 0 -446 109z" />
    <glyph glyph-name="scaron" unicode="&#x161;" horiz-adv-x="1059" 
d="M1050 1522q-131 -167 -206.5 -260t-97.5 -114q-43 -42 -132 -42q-75 0 -107 30q-33 31 -196 386l53 28l277 -254l358 254zM403 41q230 0 230 180q0 58 -42 89q-39 32 -185 85q-263 89 -263 293q0 138 134 233t368 95q375 0 375 -199q0 -32 -12.5 -57t-33.5 -42.5
t-48.5 -26.5t-57.5 -9q-150 0 -219 262q-34 -3 -67 -15t-59 -33.5t-42 -51t-16 -66.5q0 -66 37 -96q37 -28 176 -78q274 -94 274 -293q0 -156 -136 -250t-382 -94q-210 0 -317 59t-107 150q0 34 13 61t34.5 46t50.5 29t62 10q165 0 233 -281z" />
    <glyph glyph-name="uni0162" unicode="&#x162;" horiz-adv-x="1401" 
d="M807 231q-4 -17 -6 -30.5t-2 -24.5q0 -52 48 -73.5t142 -28.5l-16 -74h-378l-19 -96q215 0 215 -129q0 -114 -108 -166q-109 -53 -386 -53l19 77q166 0 216 19q52 18 52 72q0 55 -125 55l49 221h-328l19 74q147 10 188 35q41 24 57 94l263 1132h-39q-153 0 -201 -23
q-34 -16 -72.5 -53t-75.5 -80.5t-68.5 -88t-51.5 -76.5h-76l92 405h1376l-94 -405h-78q-4 29 -13.5 73t-24.5 89t-35.5 83.5t-47.5 54.5q-34 21 -186 21h-49z" />
    <glyph glyph-name="uni0163" unicode="&#x163;" horiz-adv-x="854" 
d="M745 57q-189 -84 -337 -84q-11 0 -20.5 0.5t-19.5 1.5l-14 -71q215 0 215 -129q0 -114 -108 -166q-109 -53 -386 -53l19 77q166 0 216 19q52 18 52 72q0 55 -125 55l48 214q-61 23 -101.5 70.5t-40.5 116.5q0 59 23 156l123 532h-183l23 103h188l72 303h324l-70 -303h270
l-22 -103h-270l-123 -532q-21 -91 -21 -121q0 -57 31.5 -78.5t97.5 -21.5q63 0 162 32z" />
    <glyph glyph-name="Tcaron" unicode="&#x164;" horiz-adv-x="1401" 
d="M1339 1839q-54 -55 -99.5 -100.5t-82.5 -80.5t-64.5 -62t-45.5 -46q-19 -18 -35 -30t-32.5 -19t-36 -9.5t-46.5 -2.5q-72 0 -96 24q-25 26 -223 326l34 29l310 -199l385 199zM807 231q-4 -17 -6 -30.5t-2 -24.5q0 -52 48 -73.5t142 -28.5l-16 -74h-793l19 74
q147 10 188 35q41 24 57 94l263 1132h-39q-153 0 -201 -23q-34 -16 -72.5 -53t-75.5 -80.5t-68.5 -88t-51.5 -76.5h-76l92 405h1376l-94 -405h-78q-4 29 -13.5 73t-24.5 89t-35.5 83.5t-47.5 54.5q-34 21 -186 21h-49z" />
    <glyph glyph-name="tcaron" unicode="&#x165;" horiz-adv-x="854" 
d="M782 1135q214 89 242 190h-49q-123 0 -123 94q0 32 13 58t35 44t50 28t58 10q149 0 149 -136q0 -228 -350 -356zM745 57q-189 -84 -337 -84q-47 0 -94.5 12t-85.5 37.5t-61.5 64.5t-23.5 93q0 59 23 156l123 532h-183l23 103h188l72 303h324l-70 -303h270l-22 -103h-270
l-123 -532q-21 -91 -21 -121q0 -57 31.5 -78.5t97.5 -21.5q63 0 162 32z" />
    <glyph glyph-name="Tbar" unicode="&#x166;" horiz-adv-x="1401" 
d="M707 1335h-39q-153 0 -201 -23q-34 -16 -72.5 -53t-75.5 -80.5t-68.5 -88t-51.5 -76.5h-76l92 405h1376l-94 -405h-78q-4 29 -13.5 73t-24.5 89t-35.5 83.5t-47.5 54.5q-34 21 -186 21h-49l-129 -561h303l-23 -98h-305l-102 -445q-8 -37 -8 -55q0 -52 48 -73.5t142 -28.5
l-16 -74h-793l19 74q147 10 188 35q41 24 57 94l111 473h-305l22 98h306z" />
    <glyph glyph-name="tbar" unicode="&#x167;" horiz-adv-x="854" 
d="M498 336q-21 -93 -21 -121q0 -57 31.5 -78.5t97.5 -21.5q63 0 162 32l-23 -90q-189 -84 -337 -84q-47 0 -94.5 12t-85.5 37.5t-61.5 64.5t-23.5 93q0 59 23 156l33 141h-170l22 94h168l70 297h-183l23 103h188l72 303h324l-70 -303h270l-22 -103h-270l-68 -297h231
l-20 -94h-234z" />
    <glyph glyph-name="Utilde" unicode="&#x168;" horiz-adv-x="1706" 
d="M1521 1771q-18 -40 -44.5 -79t-60.5 -69.5t-73.5 -48.5t-83.5 -16q-35 2 -68.5 9t-71.5 32q-68 44 -97 45q-25 2 -46 -6t-38 -22t-31.5 -32t-26.5 -37l-81 45q53 114 119 163.5t138 50.5q35 1 70.5 -7.5t73.5 -33.5q35 -23 64 -34t46 -11q26 0 45 6.5t34 19t27.5 30.5
t24.5 40zM397 1190q11 50 11 53q0 78 -181 103l19 73h760l-19 -73q-112 -8 -161 -33q-50 -24 -62 -92l-164 -699q-20 -88 -20 -174q0 -252 288 -252q94 0 171.5 32.5t136.5 89.5t99.5 133t59.5 163l113 487q27 116 27 181q0 82 -50 114q-50 34 -149 50l16 73h615l-17 -73
q-168 -21 -220 -76q-53 -56 -101 -258l-123 -535q-29 -126 -93.5 -222t-155.5 -161.5t-203.5 -99t-237.5 -33.5q-130 0 -231 25.5t-169 74.5t-103.5 120.5t-35.5 162.5q0 70 16 135z" />
    <glyph glyph-name="utilde" unicode="&#x169;" horiz-adv-x="1403" 
d="M1183 1377q-18 -40 -44.5 -79t-60.5 -69.5t-73.5 -48.5t-83.5 -16q-35 2 -68.5 9t-71.5 32q-68 44 -97 45q-25 2 -46 -6t-38 -22t-31.5 -32t-26.5 -37l-81 45q53 114 119 163.5t138 50.5q35 1 70.5 -7.5t73.5 -33.5q35 -23 64 -34t46 -11q26 0 45 6.5t34 19t27.5 30.5
t24.5 40zM1358 61q-200 -79 -295 -79q-217 0 -260 178h-6q-201 -189 -420 -189q-48 0 -91 13.5t-74.5 39.5t-50 65.5t-18.5 90.5q0 68 23 154l76 280q24 89 24 148q0 54 -22.5 77t-85.5 23q-54 0 -123 -28l20 90q204 80 295 80q48 0 93 -12.5t79.5 -38t55 -64.5t20.5 -92
q0 -90 -18 -156l-74 -266q-23 -84 -23 -133q0 -103 99 -103q97 0 231 125l166 721l317 14l13 -14l-142 -614q-13 -57 -19.5 -93.5t-6.5 -54.5q0 -57 25.5 -78.5t88.5 -21.5q57 0 123 29z" />
    <glyph glyph-name="Umacron" unicode="&#x16a;" horiz-adv-x="1706" 
d="M750 1659l34 170h748l-35 -170h-747zM397 1190q11 50 11 53q0 78 -181 103l19 73h760l-19 -73q-112 -8 -161 -33q-50 -24 -62 -92l-164 -699q-20 -88 -20 -174q0 -252 288 -252q94 0 171.5 32.5t136.5 89.5t99.5 133t59.5 163l113 487q27 116 27 181q0 82 -50 114
q-50 34 -149 50l16 73h615l-17 -73q-168 -21 -220 -76q-53 -56 -101 -258l-123 -535q-29 -126 -93.5 -222t-155.5 -161.5t-203.5 -99t-237.5 -33.5q-130 0 -231 25.5t-169 74.5t-103.5 120.5t-35.5 162.5q0 70 16 135z" />
    <glyph glyph-name="umacron" unicode="&#x16b;" horiz-adv-x="1403" 
d="M398 1247l34 170h748l-35 -170h-747zM1358 61q-200 -79 -295 -79q-217 0 -260 178h-6q-201 -189 -420 -189q-48 0 -91 13.5t-74.5 39.5t-50 65.5t-18.5 90.5q0 68 23 154l76 280q24 89 24 148q0 54 -22.5 77t-85.5 23q-54 0 -123 -28l20 90q204 80 295 80q48 0 93 -12.5
t79.5 -38t55 -64.5t20.5 -92q0 -90 -18 -156l-74 -266q-23 -84 -23 -133q0 -103 99 -103q97 0 231 125l166 721l317 14l13 -14l-142 -614q-13 -57 -19.5 -93.5t-6.5 -54.5q0 -57 25.5 -78.5t88.5 -21.5q57 0 123 29z" />
    <glyph glyph-name="Ubreve" unicode="&#x16c;" horiz-adv-x="1706" 
d="M1471 1851q-114 -321 -412 -321q-82 0 -138 29t-89 78q-32 48 -40 87q-4 19 -5.5 50.5t-1.5 76.5l73 17q20 -164 236 -164q213 0 309 164zM397 1190q11 50 11 53q0 78 -181 103l19 73h760l-19 -73q-112 -8 -161 -33q-50 -24 -62 -92l-164 -699q-20 -88 -20 -174
q0 -252 288 -252q94 0 171.5 32.5t136.5 89.5t99.5 133t59.5 163l113 487q27 116 27 181q0 82 -50 114q-50 34 -149 50l16 73h615l-17 -73q-168 -21 -220 -76q-53 -56 -101 -258l-123 -535q-29 -126 -93.5 -222t-155.5 -161.5t-203.5 -99t-237.5 -33.5q-130 0 -231 25.5
t-169 74.5t-103.5 120.5t-35.5 162.5q0 70 16 135z" />
    <glyph glyph-name="ubreve" unicode="&#x16d;" horiz-adv-x="1403" 
d="M1145 1532q-123 -397 -402 -397q-107 0 -166 53q-58 54 -76 127q-18 74 -18 217l74 16q8 -54 20 -98.5t35.5 -75.5t62 -48t99.5 -17q63 0 109 17t80.5 48.5t61 75.5t50.5 98zM1358 61q-200 -79 -295 -79q-217 0 -260 178h-6q-201 -189 -420 -189q-48 0 -91 13.5
t-74.5 39.5t-50 65.5t-18.5 90.5q0 68 23 154l76 280q24 89 24 148q0 54 -22.5 77t-85.5 23q-54 0 -123 -28l20 90q204 80 295 80q48 0 93 -12.5t79.5 -38t55 -64.5t20.5 -92q0 -90 -18 -156l-74 -266q-23 -84 -23 -133q0 -103 99 -103q97 0 231 125l166 721l317 14l13 -14
l-142 -614q-13 -57 -19.5 -93.5t-6.5 -54.5q0 -57 25.5 -78.5t88.5 -21.5q57 0 123 29z" />
    <glyph glyph-name="Uring" unicode="&#x16e;" horiz-adv-x="1706" 
d="M889 1597q0 66 29 116.5t75.5 85t105 52t118.5 17.5q44 0 88.5 -11t79.5 -34t57 -59t22 -87q0 -67 -28.5 -118t-74.5 -85t-104.5 -51.5t-119.5 -17.5q-57 0 -103 13.5t-78.5 39t-49.5 61t-17 78.5zM1202 1798q-41 0 -71.5 -17.5t-50.5 -46t-30 -64.5t-10 -73
q0 -122 113 -122q42 0 72.5 18t50 47t28.5 65.5t9 73.5q0 119 -111 119zM397 1190q11 50 11 53q0 78 -181 103l19 73h760l-19 -73q-112 -8 -161 -33q-50 -24 -62 -92l-164 -699q-20 -88 -20 -174q0 -252 288 -252q94 0 171.5 32.5t136.5 89.5t99.5 133t59.5 163l113 487
q27 116 27 181q0 82 -50 114q-50 34 -149 50l16 73h615l-17 -73q-168 -21 -220 -76q-53 -56 -101 -258l-123 -535q-29 -126 -93.5 -222t-155.5 -161.5t-203.5 -99t-237.5 -33.5q-130 0 -231 25.5t-169 74.5t-103.5 120.5t-35.5 162.5q0 70 16 135z" />
    <glyph glyph-name="uring" unicode="&#x16f;" horiz-adv-x="1403" 
d="M490 1296q0 66 29 116.5t75.5 85t105 52t118.5 17.5q44 0 88.5 -11t79.5 -34t57 -59t22 -87q0 -67 -28.5 -118t-74.5 -85t-104.5 -51.5t-119.5 -17.5q-57 0 -103 13.5t-78.5 39t-49.5 61t-17 78.5zM803 1497q-41 0 -71.5 -17.5t-50.5 -46t-30 -64.5t-10 -73
q0 -122 113 -122q42 0 72.5 18t50 47t28.5 65.5t9 73.5q0 119 -111 119zM1358 61q-200 -79 -295 -79q-217 0 -260 178h-6q-201 -189 -420 -189q-48 0 -91 13.5t-74.5 39.5t-50 65.5t-18.5 90.5q0 68 23 154l76 280q24 89 24 148q0 54 -22.5 77t-85.5 23q-54 0 -123 -28
l20 90q204 80 295 80q48 0 93 -12.5t79.5 -38t55 -64.5t20.5 -92q0 -90 -18 -156l-74 -266q-23 -84 -23 -133q0 -103 99 -103q97 0 231 125l166 721l317 14l13 -14l-142 -614q-13 -57 -19.5 -93.5t-6.5 -54.5q0 -57 25.5 -78.5t88.5 -21.5q57 0 123 29z" />
    <glyph glyph-name="Uhungarumlaut" unicode="&#x170;" horiz-adv-x="1706" 
d="M1202 1526q57 51 99 90.5t71 68.5q61 60 102.5 97.5t63.5 53.5q46 32 100 32q139 0 139 -90q0 -58 -45 -90q-43 -31 -222 -93q-40 -14 -109.5 -41t-171.5 -69zM665 1526q59 54 102.5 94t72.5 68q67 64 109.5 102.5t61.5 51.5q40 26 93 26q139 0 139 -94q0 -53 -43 -84
q-40 -29 -218 -94q-67 -25 -288 -111zM397 1190q11 50 11 53q0 78 -181 103l19 73h760l-19 -73q-112 -8 -161 -33q-50 -24 -62 -92l-164 -699q-20 -88 -20 -174q0 -252 288 -252q94 0 171.5 32.5t136.5 89.5t99.5 133t59.5 163l113 487q27 116 27 181q0 82 -50 114
q-50 34 -149 50l16 73h615l-17 -73q-168 -21 -220 -76q-53 -56 -101 -258l-123 -535q-29 -126 -93.5 -222t-155.5 -161.5t-203.5 -99t-237.5 -33.5q-130 0 -231 25.5t-169 74.5t-103.5 120.5t-35.5 162.5q0 70 16 135z" />
    <glyph glyph-name="uhungarumlaut" unicode="&#x171;" horiz-adv-x="1403" 
d="M846 1128q92 107 204 261q24 33 47 61.5t49.5 50.5t59.5 34.5t76 12.5q18 0 33.5 -6t27 -15.5t18.5 -22.5t7 -27q0 -36 -35 -73q-36 -38 -148 -107q-91 -57 -168 -107t-142 -96zM440 1128q102 117 207 261q74 100 118 129q47 30 114 30q35 0 60.5 -21t25.5 -50
q0 -41 -44 -82q-22 -20 -75.5 -56t-141.5 -90q-45 -28 -103 -66.5t-130 -88.5zM1358 61q-200 -79 -295 -79q-217 0 -260 178h-6q-201 -189 -420 -189q-48 0 -91 13.5t-74.5 39.5t-50 65.5t-18.5 90.5q0 68 23 154l76 280q24 89 24 148q0 54 -22.5 77t-85.5 23
q-54 0 -123 -28l20 90q204 80 295 80q48 0 93 -12.5t79.5 -38t55 -64.5t20.5 -92q0 -90 -18 -156l-74 -266q-23 -84 -23 -133q0 -103 99 -103q97 0 231 125l166 721l317 14l13 -14l-142 -614q-13 -57 -19.5 -93.5t-6.5 -54.5q0 -57 25.5 -78.5t88.5 -21.5q57 0 123 29z" />
    <glyph glyph-name="Uogonek" unicode="&#x172;" horiz-adv-x="1706" 
d="M397 1190q11 50 11 53q0 78 -181 103l19 73h760l-19 -73q-112 -8 -161 -33q-50 -24 -62 -92l-164 -699q-20 -88 -20 -174q0 -252 288 -252q94 0 171.5 32.5t136.5 89.5t99.5 133t59.5 163l113 487q27 116 27 181q0 82 -50 114q-50 34 -149 50l16 73h615l-17 -73
q-168 -21 -220 -76q-53 -56 -101 -258l-123 -535q-35 -148 -121 -260t-221 -180q-182 -170 -182 -291q0 -91 178 -113l-14 -77q-383 0 -383 161q0 132 194 255q-34 -5 -69 -8t-72 -3q-130 0 -231 25.5t-169 74.5t-103.5 120.5t-35.5 162.5q0 70 16 135z" />
    <glyph glyph-name="uogonek" unicode="&#x173;" horiz-adv-x="1403" 
d="M1358 61q-59 -23 -108 -39.5t-90 -25.5q-140 -144 -140 -250q0 -91 178 -113l-14 -77q-383 0 -383 161q0 139 215 267q-174 18 -213 176h-6q-201 -189 -420 -189q-48 0 -91 13.5t-74.5 39.5t-50 65.5t-18.5 90.5q0 68 23 154l76 280q24 89 24 148q0 54 -22.5 77t-85.5 23
q-54 0 -123 -28l20 90q204 80 295 80q48 0 93 -12.5t79.5 -38t55 -64.5t20.5 -92q0 -90 -18 -156l-74 -266q-23 -84 -23 -133q0 -103 99 -103q97 0 231 125l166 721l317 14l13 -14l-142 -614q-13 -57 -19.5 -93.5t-6.5 -54.5q0 -57 25.5 -78.5t88.5 -21.5q57 0 123 29z" />
    <glyph glyph-name="Wcircumflex" unicode="&#x174;" horiz-adv-x="2306" 
d="M1743 1485l-311 203l-383 -203l-33 28q293 302 331 328q39 27 109 27q72 0 98 -26q27 -27 92 -129q16 -25 48.5 -75t83.5 -125zM2531 1346q-30 -4 -62.5 -13.5t-63.5 -25t-57 -36.5t-44 -47q-14 -20 -81 -134t-190 -325l-452 -781h-207l-129 1048l-575 -1048h-201
l-109 1002q-22 214 -32 241q-8 27 -33 52q-12 13 -25.5 23.5t-30.5 19t-40 14.5t-54 10l19 73h741l-18 -73q-135 -15 -166 -34q-31 -18 -31 -50q0 -17 21.5 -236t64.5 -641l559 1034h213l129 -1067q475 844 475 916q0 61 -206 78l18 73h586z" />
    <glyph glyph-name="wcircumflex" unicode="&#x175;" horiz-adv-x="1913" 
d="M1356 1104l-278 254l-359 -254l-49 29q138 180 217.5 276t102.5 110q47 29 116 29q78 0 118 -49q20 -25 66 -116t119 -250zM831 188q-193 -217 -436 -217q-56 0 -102 18.5t-79 51.5t-51 79.5t-18 102.5q0 39 27 154l70 237q24 81 24 148q0 52 -22.5 76t-85.5 24
q-54 0 -123 -28l20 90q204 80 295 80q50 0 94.5 -12.5t79 -39t54.5 -66t20 -93.5q0 -90 -31 -195l-57 -192q-27 -91 -27 -146q0 -57 31 -89t76 -32q115 0 235 133q0 25 4.5 59t14.5 77l133 577l317 14l13 -14l-131 -571q-15 -64 -15 -131q0 -168 164 -168q139 0 236 103
q98 104 98 269q0 22 -1 39.5t-6 33t-15 29.5t-28 27q-130 102 -130 222q0 41 15 73.5t40.5 56t59.5 36t73 12.5q48 0 85.5 -17.5t63 -50.5t39 -79t13.5 -103q0 -311 -195 -556q-193 -243 -481 -243q-289 0 -361 221z" />
    <glyph glyph-name="Ycircumflex" unicode="&#x176;" horiz-adv-x="1499" 
d="M1345 1485l-311 203l-383 -203l-33 28q293 302 331 328q39 27 109 27q72 0 98 -26q27 -27 92 -129q16 -25 48.5 -75t83.5 -125zM1753 1346q-47 -6 -85 -20t-71.5 -34.5t-64 -47.5t-63.5 -60q-42 -42 -111 -119.5t-169 -192.5q-99 -115 -156 -184.5t-73 -95.5t-30.5 -69
t-28.5 -105l-43 -187q-8 -37 -8 -55q0 -52 41 -72q40 -18 149 -30l-16 -74h-791l17 74q147 10 188 34q40 24 60 95l57 254q8 35 12 57.5t4 30.5q0 13 -12.5 55t-31.5 99.5t-42.5 122.5t-45 124t-39 105.5t-25.5 65.5q-57 148 -109 185q-52 38 -141 44l16 73h795l-18 -73
q-203 -11 -203 -58q0 -72 188 -594l412 487q61 79 61 101q0 55 -164 64l19 73h538z" />
    <glyph glyph-name="ycircumflex" unicode="&#x177;" horiz-adv-x="1370" 
d="M1067 1104l-278 254l-359 -254l-49 29q138 180 217.5 276t102.5 110q47 29 116 29q78 0 118 -49q20 -25 66 -116t119 -250zM1130 170q-66 -305 -242 -459.5t-450 -154.5q-389 0 -389 196q0 56 40 102t114 46q147 0 264 -262q242 43 336 522h-6q-198 -183 -418 -183
q-48 0 -91 14t-75 40.5t-51 66t-19 90.5q0 68 23 154l76 272q24 86 24 148q0 55 -22.5 77.5t-85.5 22.5q-54 0 -123 -28l20 90q204 80 295 80q48 0 93 -12.5t79.5 -38t55 -64.5t20.5 -92q0 -90 -18 -156l-74 -260q-23 -83 -23 -133q0 -103 103 -103t235 123l154 717l315 14
l15 -16z" />
    <glyph glyph-name="Ydieresis" unicode="&#x178;" horiz-adv-x="1499" 
d="M1337 1536q-33 0 -62 13.5t-50 36.5t-33 53t-12 63t12 63t33 53t50 36.5t62 13.5t62 -14t50 -37t33.5 -53t12.5 -62q0 -33 -12 -63t-33 -53t-50 -36.5t-63 -13.5zM801 1536q-34 0 -63 13.5t-50 36t-33 53t-12 63.5t12 63.5t33 53t50 36t63 13.5q33 0 61.5 -14t50 -37
t33.5 -53t12 -62t-12 -62t-33 -53t-50 -37t-62 -14zM1753 1346q-47 -6 -85 -20t-71.5 -34.5t-64 -47.5t-63.5 -60q-42 -42 -111 -119.5t-169 -192.5q-99 -115 -156 -184.5t-73 -95.5t-30.5 -69t-28.5 -105l-43 -187q-8 -37 -8 -55q0 -52 41 -72q40 -18 149 -30l-16 -74h-791
l17 74q147 10 188 34q40 24 60 95l57 254q8 35 12 57.5t4 30.5q0 13 -12.5 55t-31.5 99.5t-42.5 122.5t-45 124t-39 105.5t-25.5 65.5q-57 148 -109 185q-52 38 -141 44l16 73h795l-18 -73q-203 -11 -203 -58q0 -72 188 -594l412 487q61 79 61 101q0 55 -164 64l19 73h538z
" />
    <glyph glyph-name="Zacute" unicode="&#x179;" horiz-adv-x="1411" 
d="M729 1526q82 76 149 142.5t121 123.5q69 76 148 76q63 0 104 -28t41 -73q0 -52 -41 -82q-42 -31 -228 -98q-57 -20 -121 -45.5t-138 -56.5zM1225 0h-1323l14 61l1188 1270h-293q-180 0 -259 -46t-276 -300h-81l145 434h1223l-15 -61l-1186 -1272h340q148 0 209 12
q63 14 94 33q33 21 124 121q90 99 180 227h73z" />
    <glyph glyph-name="zacute" unicode="&#x17a;" horiz-adv-x="1059" 
d="M445 1139q32 40 65 85.5t68 96.5q108 157 149 193q40 34 115 34q18 0 40 -5.5t41 -16.5t31.5 -27.5t12.5 -38.5q0 -62 -41 -97q-40 -34 -190 -116q-57 -32 -119 -67.5t-129 -77.5zM1069 913l-709 -829q23 -1 52.5 -1.5t67.5 -0.5h38q181 0 219 20q37 21 100 129
q63 109 70 131h72l-72 -362h-934l19 84l696 817h-119q-133 0 -184 -13q-31 -7 -59 -32t-51.5 -58t-42 -68t-29.5 -62h-72l64 317h888z" />
    <glyph glyph-name="Zdotaccent" unicode="&#x17b;" horiz-adv-x="1411" 
d="M918 1514q-37 0 -68 12.5t-53.5 34.5t-35.5 53t-13 68q0 36 13 67t36 53.5t54 35t67 12.5q35 0 65.5 -13t53 -35.5t35 -53.5t12.5 -66q0 -36 -12.5 -66.5t-34.5 -53t-52.5 -35.5t-66.5 -13zM1225 0h-1323l14 61l1188 1270h-293q-180 0 -259 -46t-276 -300h-81l145 434
h1223l-15 -61l-1186 -1272h340q148 0 209 12q63 14 94 33q33 21 124 121q90 99 180 227h73z" />
    <glyph glyph-name="zdotaccent" unicode="&#x17c;" horiz-adv-x="1059" 
d="M674 1182q-37 0 -68 12.5t-53.5 34.5t-35.5 53t-13 68q0 36 13 67t36 53.5t54 35t67 12.5q35 0 65.5 -13t53 -35.5t35 -53.5t12.5 -66q0 -36 -12.5 -66.5t-34.5 -53t-52.5 -35.5t-66.5 -13zM1069 913l-709 -829q23 -1 52.5 -1.5t67.5 -0.5h38q181 0 219 20q37 21 100 129
q63 109 70 131h72l-72 -362h-934l19 84l696 817h-119q-133 0 -184 -13q-31 -7 -59 -32t-51.5 -58t-42 -68t-29.5 -62h-72l64 317h888z" />
    <glyph glyph-name="Zcaron" unicode="&#x17d;" horiz-adv-x="1411" 
d="M1333 1839q-54 -55 -99.5 -100.5t-82.5 -80.5t-64.5 -62t-45.5 -46q-19 -18 -35 -30t-32.5 -19t-36 -9.5t-46.5 -2.5q-72 0 -96 24q-25 26 -223 326l34 29l310 -199l385 199zM1225 0h-1323l14 61l1188 1270h-293q-180 0 -259 -46t-276 -300h-81l145 434h1223l-15 -61
l-1186 -1272h340q148 0 209 12q63 14 94 33q33 21 124 121q90 99 180 227h73z" />
    <glyph glyph-name="zcaron" unicode="&#x17e;" horiz-adv-x="1059" 
d="M1048 1522q-131 -167 -206.5 -260t-97.5 -114q-43 -42 -132 -42q-75 0 -107 30q-33 31 -196 386l53 28l277 -254l358 254zM1069 913l-709 -829q23 -1 52.5 -1.5t67.5 -0.5h38q181 0 219 20q37 21 100 129q63 109 70 131h72l-72 -362h-934l19 84l696 817h-119
q-133 0 -184 -13q-31 -7 -59 -32t-51.5 -58t-42 -68t-29.5 -62h-72l64 317h888z" />
    <glyph glyph-name="longs" unicode="&#x17f;" horiz-adv-x="739" 
d="M780 1470q-69 -72 -137 -383l-217 -1026q-44 -202 -220 -353q-176 -152 -378 -152q-291 0 -291 192q0 33 12 60t33 46.5t49 30.5t60 11q141 0 243 -258q86 86 150 385l211 999q47 220 219 374q174 156 375 156q287 0 287 -188q0 -33 -12 -61t-32.5 -48t-48.5 -31.5
t-61 -11.5q-68 0 -123 52q-27 26 -57 77t-62 129z" />
    <glyph glyph-name="florin" unicode="&#x192;" horiz-adv-x="1186" 
d="M877 1217q-81 -43 -136 -390l-12 -77h287l-27 -111h-276q-3 -16 -6.5 -36t-7.5 -43q-61 -369 -135 -546q-37 -88 -92 -159t-126 -120.5t-156.5 -76.5t-181.5 -27q-239 0 -239 174q0 35 13 63t35 48t52 30.5t63 10.5q67 0 111 -42q43 -42 96 -191q41 21 75 114
q35 93 165 801h-219l24 111h211q24 116 76 218.5t130 178.5t181 120t228 44q115 0 178 -46t63 -124q0 -33 -11 -62t-32.5 -50t-52.5 -33.5t-70 -12.5q-68 0 -110 43q-43 45 -98 191z" />
    <glyph glyph-name="Ohorn" unicode="&#x1a0;" horiz-adv-x="1679" 
d="M727 -39q-133 0 -249.5 39t-203.5 113.5t-137.5 183.5t-50.5 248q0 378 272 645q272 268 658 268q230 0 391 -106q37 5 64.5 12t47.5 19t34 30t23 43h-6q-69 0 -95.5 30.5t-15.5 84.5q6 26 21.5 47.5t37.5 36t48.5 22t53.5 6.5q75 -3 97 -48t5 -118q-19 -81 -79 -141.5
t-151 -89.5q169 -157 169 -412q0 -376 -266 -645q-265 -268 -668 -268zM993 1366q-222 0 -371 -276q-147 -276 -147 -644q0 -189 73 -291t208 -102q224 0 370 278q146 280 146 642q0 187 -71 290t-208 103z" />
    <glyph glyph-name="ohorn" unicode="&#x1a1;" horiz-adv-x="1303" 
d="M543 -33q-99 0 -186 26.5t-151 79.5t-101 132.5t-37 185.5q0 269 191 448t489 179q180 0 297 -69q36 5 63 12t47 19t33.5 29.5t22.5 42.5h-6q-69 0 -95.5 30.5t-15.5 84.5q6 26 21.5 47.5t37.5 36t48.5 22t53.5 6.5q75 -3 97 -48t5 -118q-18 -80 -77.5 -140.5
t-149.5 -89.5q105 -109 105 -285q0 -263 -192 -448q-192 -183 -500 -183zM729 938q-145 0 -228 -197q-81 -196 -81 -465q0 -231 155 -231q140 0 224 200q84 201 84 468q0 225 -154 225z" />
    <glyph glyph-name="Uhorn" unicode="&#x1af;" horiz-adv-x="1706" 
d="M397 1190q11 50 11 53q0 78 -181 103l19 73h760l-19 -73q-112 -8 -161 -33q-50 -24 -62 -92l-164 -699q-20 -88 -20 -174q0 -252 288 -252q94 0 171.5 32.5t136.5 89.5t99.5 133t59.5 163l113 487q27 116 27 181q0 82 -50 114q-50 34 -149 50l16 73l387 1
q-5 -15 -9.5 -30t-9.5 -31q53 11 81.5 32.5t44.5 64.5h-6q-69 0 -95.5 30.5t-15.5 84.5q6 26 21.5 47.5t37.5 36t48.5 22t53.5 6.5q75 -3 97 -48t5 -118q-11 -47 -37 -88t-64 -73.5t-88 -54.5t-109 -31q-18 -64 -34.5 -128t-30.5 -130l-123 -535q-29 -126 -93.5 -222
t-155.5 -161.5t-203.5 -99t-237.5 -33.5q-130 0 -231 25.5t-169 74.5t-103.5 120.5t-35.5 162.5q0 70 16 135z" />
    <glyph glyph-name="uhorn" unicode="&#x1b0;" horiz-adv-x="1403" 
d="M1358 61q-200 -79 -295 -79q-217 0 -260 178h-6q-201 -189 -420 -189q-48 0 -91 13.5t-74.5 39.5t-50 65.5t-18.5 90.5q0 68 23 154l76 280q24 89 24 148q0 54 -22.5 77t-85.5 23q-54 0 -123 -28l20 90q204 80 295 80q48 0 93 -12.5t79.5 -38t55 -64.5t20.5 -92
q0 -90 -18 -156l-74 -266q-23 -84 -23 -133q0 -103 99 -103q97 0 231 125l166 721l317 14l13 -14l-7 -30q54 11 84 32t46 65h-6q-69 0 -95.5 30.5t-15.5 84.5q6 26 21.5 47.5t37.5 36t48.5 22t53.5 6.5q75 -3 97 -48t5 -118q-11 -47 -37 -88t-64 -73t-87.5 -54t-108.5 -31
l-114 -496q-13 -57 -19.5 -93.5t-6.5 -54.5q0 -57 25.5 -78.5t88.5 -21.5q57 0 123 29z" />
    <glyph glyph-name="Aringacute" unicode="&#x1fa;" horiz-adv-x="1552" 
d="M731 0l19 74q217 16 217 63q0 5 -6 62l-52 278h-475q-14 -23 -30.5 -47.5t-36.5 -50.5q-119 -161 -119 -227q0 -63 190 -78l-16 -74h-596l16 74q60 4 102.5 16.5t77 35t64.5 56t65 81.5q81 113 300 432l370 542q-34 9 -61.5 25.5t-47 39t-30 50t-10.5 57.5q0 145 139 217
l160 98l24 16l24 16q108 80 141 96q32 16 65 16q108 0 108 -80q0 -73 -108 -100q-18 -4 -109 -35q131 -47 131 -166q0 -152 -129 -211q184 -1044 218 -1119q35 -74 171 -83l-16 -74h-760zM985 1599q-36 0 -66 -14t-51.5 -39t-33 -60t-11.5 -77q0 -115 115 -115q41 0 71 16.5
t49.5 44t28.5 62.5t9 72q0 110 -111 110zM891 571l-84 449l-307 -449h391z" />
    <glyph glyph-name="aringacute" unicode="&#x1fb;" horiz-adv-x="1352" 
d="M530 1526q82 76 149 142.5t121 123.5q69 76 148 76q63 0 104 -28t41 -73q0 -52 -41 -82q-42 -31 -228 -98q-57 -20 -121 -45.5t-138 -56.5zM1307 59q-195 -79 -297 -79q-195 0 -250 145h-8q-175 -156 -336 -156q-171 0 -260.5 99.5t-89.5 283.5q0 272 180 468
q148 161 344 190q-75 18 -116.5 65.5t-41.5 116.5q0 66 29 116.5t75.5 85t105 52t118.5 17.5q44 0 88.5 -11t79.5 -34t57 -59t22 -87q0 -52 -18.5 -96t-51 -78t-75.5 -56.5t-92 -32.5q103 -16 170 -71l307 61l15 -16l-148 -614q-24 -100 -24 -148q0 -57 25.5 -78.5
t88.5 -21.5q54 0 123 29zM745 1393q-41 0 -71.5 -17.5t-50.5 -46t-30 -64.5t-10 -73q0 -122 113 -122q42 0 72.5 18t50 47t28.5 65.5t9 73.5q0 119 -111 119zM879 760q8 34 -23 94q-31 61 -123 61q-126 0 -218 -170q-91 -169 -91 -397q0 -227 156 -227q77 0 172 94z" />
    <glyph glyph-name="AEacute" unicode="&#x1fc;" horiz-adv-x="2202" 
d="M1327 1526q82 76 149 142.5t121 123.5q69 76 148 76q63 0 104 -28t41 -73q0 -52 -41 -82q-42 -31 -228 -98q-57 -20 -121 -45.5t-138 -56.5zM1991 0h-1311l16 74q137 9 179 34q44 26 59 91l90 395h-487q-133 -167 -206.5 -261.5t-89.5 -119.5q-32 -50 -32 -68
q0 -55 178 -71l-16 -74h-588l16 74q40 3 74.5 10t65 20.5t59 33.5t57.5 49q25 26 108 125.5t226 276.5l578 714q-31 17 -76.5 28t-108.5 15l17 73h1446l-84 -362h-76q-12 89 -61 165q-48 76 -95 93q-46 18 -192 18h-187l-129 -555h125q66 0 114.5 17.5t85 50t64.5 78
t54 102.5h75l-137 -592h-76q6 150 -36 204q-40 54 -162 54h-125l-96 -416q-17 -76 -17 -104q0 -54 43 -70q42 -16 152 -16q32 0 73 1t83.5 6.5t81.5 16.5t66 30q16 11 38 33t47 49.5t51 59t49 61t42 55.5t30 44h74zM1196 1333h-68l-516 -645h435z" />
    <glyph glyph-name="aeacute" unicode="&#x1fd;" horiz-adv-x="1753" 
d="M778 1139q32 40 65 85.5t68 96.5q108 157 149 193q40 34 115 34q18 0 40 -5.5t41 -16.5t31.5 -27.5t12.5 -38.5q0 -62 -41 -97q-40 -34 -190 -116q-57 -32 -119 -67.5t-129 -77.5zM1018 410q3 -291 219 -291q219 0 358 190l72 -61q-45 -64 -103 -115.5t-125.5 -88.5
t-142 -57t-153.5 -20q-308 0 -418 197h-8q-185 -197 -436 -197q-51 0 -97.5 13t-82 40t-57 68t-21.5 96q0 186 164 275q83 45 215.5 82.5t318.5 68.5l24 115q13 59 13 84q0 127 -117 127q-74 0 -129 -35q0 -19 4 -42t4 -54q0 -168 -198 -168q-150 0 -150 119q0 110 158 185
t342 75q223 0 327 -88q173 88 328 88q367 0 367 -230q0 -309 -676 -376zM1020 492q182 18 265 77q83 60 83 191q0 176 -117 176q-76 0 -142 -119q-65 -119 -89 -325zM694 254q-10 36 -10 121q0 88 16 145q-340 -55 -340 -278q0 -119 113 -119q122 0 221 131z" />
    <glyph glyph-name="Oslashacute" unicode="&#x1fe;" horiz-adv-x="1679" 
d="M737 1526q82 76 149 142.5t121 123.5q69 76 148 76q63 0 104 -28t41 -73q0 -52 -41 -82q-42 -31 -228 -98q-57 -20 -121 -45.5t-138 -56.5zM252 139q-166 166 -166 406q0 378 272 645q272 268 658 268q227 0 399 -115l160 166l74 -67l-156 -162q168 -162 168 -406
q0 -376 -266 -645q-265 -268 -668 -268q-232 0 -399 115l-164 -170l-76 67zM1249 1171q-66 195 -256 195q-226 0 -374 -274t-148 -646v-41q0 -11 0.5 -20.5t1.5 -17.5zM498 252q67 -199 258 -199q227 0 374 276q148 275 148 644q0 24 -1 45.5t-3 40.5z" />
    <glyph glyph-name="oslashacute" unicode="&#x1ff;" horiz-adv-x="1303" 
d="M535 1139q32 40 65 85.5t68 96.5q108 157 149 193q40 34 115 34q18 0 40 -5.5t41 -16.5t31.5 -27.5t12.5 -38.5q0 -62 -41 -97q-40 -34 -190 -116q-57 -32 -119 -67.5t-129 -77.5zM180 104q-112 112 -112 287q0 269 191 448t489 179q176 0 301 -76l161 156l66 -62
l-156 -149q115 -112 115 -289q0 -263 -192 -448q-192 -183 -500 -183q-161 0 -291 80l-174 -168l-66 62zM883 780q-29 158 -154 158q-135 0 -219 -166q-42 -84 -65.5 -194t-28.5 -250zM420 209q20 -164 155 -164q128 0 214 170q84 169 98 449z" />
    <glyph glyph-name="uni0218" unicode="&#x218;" horiz-adv-x="1337" 
d="M43 0h-86l106 512h87q15 -85 48 -166t86 -144t126.5 -101t169.5 -38q60 0 117 15t101.5 46t71.5 79.5t27 115.5q0 154 -209 226q-249 83 -327 131q-38 24 -68.5 56.5t-52.5 71t-33.5 82t-11.5 89.5q0 198 174 339q173 142 442 142q218 0 399 -96l74 59h88l-104 -483h-86
q-65 422 -361 422q-124 0 -204 -69t-80 -171q0 -73 50 -127.5t141 -88.5l273 -101q250 -109 250 -328t-190 -366q-191 -146 -486 -146q-247 0 -446 109zM416 -381q194 12 217 117h-58q-77 0 -107 19.5t-30 64.5q0 114 156 114q151 0 151 -147q0 -57 -23.5 -100.5
t-67.5 -72.5t-107 -43.5t-141 -14.5z" />
    <glyph glyph-name="uni0219" unicode="&#x219;" horiz-adv-x="1059" 
d="M403 41q230 0 230 180q0 58 -42 89q-39 32 -185 85q-263 89 -263 293q0 138 134 233t368 95q375 0 375 -199q0 -32 -12.5 -57t-33.5 -42.5t-48.5 -26.5t-57.5 -9q-150 0 -219 262q-34 -3 -67 -15t-59 -33.5t-42 -51t-16 -66.5q0 -66 37 -96q37 -28 176 -78
q274 -94 274 -293q0 -156 -136 -250t-382 -94q-210 0 -317 59t-107 150q0 34 13 61t34.5 46t50.5 29t62 10q165 0 233 -281zM303 -381q194 12 217 117h-58q-77 0 -107 19.5t-30 64.5q0 114 156 114q151 0 151 -147q0 -57 -23.5 -100.5t-67.5 -72.5t-107 -43.5t-141 -14.5z
" />
    <glyph glyph-name="uni021A" unicode="&#x21a;" horiz-adv-x="1401" 
d="M807 231q-4 -17 -6 -30.5t-2 -24.5q0 -52 48 -73.5t142 -28.5l-16 -74h-793l19 74q147 10 188 35q41 24 57 94l263 1132h-39q-153 0 -201 -23q-34 -16 -72.5 -53t-75.5 -80.5t-68.5 -88t-51.5 -76.5h-76l92 405h1376l-94 -405h-78q-4 29 -13.5 73t-24.5 89t-35.5 83.5
t-47.5 54.5q-34 21 -186 21h-49zM416 -381q194 12 217 117h-58q-77 0 -107 19.5t-30 64.5q0 114 156 114q151 0 151 -147q0 -57 -23.5 -100.5t-67.5 -72.5t-107 -43.5t-141 -14.5z" />
    <glyph glyph-name="uni021B" unicode="&#x21b;" horiz-adv-x="854" 
d="M745 57q-189 -84 -337 -84q-47 0 -94.5 12t-85.5 37.5t-61.5 64.5t-23.5 93q0 59 23 156l123 532h-183l23 103h188l72 303h324l-70 -303h270l-22 -103h-270l-123 -532q-21 -91 -21 -121q0 -57 31.5 -78.5t97.5 -21.5q63 0 162 32zM238 -381q194 12 217 117h-58
q-77 0 -107 19.5t-30 64.5q0 114 156 114q151 0 151 -147q0 -57 -23.5 -100.5t-67.5 -72.5t-107 -43.5t-141 -14.5z" />
    <glyph glyph-name="uni0237" unicode="&#x237;" horiz-adv-x="748" 
d="M74 936q201 80 305 80q48 0 93 -12t79.5 -37.5t55 -64.5t20.5 -93q0 -86 -71 -432q-71 -344 -124 -452q-36 -73 -90.5 -140t-122.5 -118t-147 -81t-164 -30q-287 0 -287 192q0 33 12 60t33 46.5t49 30.5t60 11q141 0 243 -258q69 100 173 587q104 488 104 549
q0 100 -115 100q-33 0 -129 -28z" />
    <glyph glyph-name="circumflex" unicode="&#x2c6;" 
d="M942 1104l-278 254l-359 -254l-49 29q138 180 217.5 276t102.5 110q47 29 116 29q78 0 118 -49q20 -25 66 -116t119 -250z" />
    <glyph glyph-name="caron" unicode="&#x2c7;" 
d="M993 1522q-131 -167 -206.5 -260t-97.5 -114q-43 -42 -132 -42q-75 0 -107 30q-33 31 -196 386l53 28l277 -254l358 254z" />
    <glyph glyph-name="uni02C9" unicode="&#x2c9;" 
d="M281 1247l34 170h748l-35 -170h-747z" />
    <glyph glyph-name="breve" unicode="&#x2d8;" 
d="M1018 1532q-123 -397 -402 -397q-107 0 -166 53q-58 54 -76 127q-18 74 -18 217l74 16q8 -54 20 -98.5t35.5 -75.5t62 -48t99.5 -17q63 0 109 17t80.5 48.5t61 75.5t50.5 98z" />
    <glyph glyph-name="dotaccent" unicode="&#x2d9;" 
d="M676 1182q-37 0 -68 12.5t-53.5 34.5t-35.5 53t-13 68q0 36 13 67t36 53.5t54 35t67 12.5q35 0 65.5 -13t53 -35.5t35 -53.5t12.5 -66q0 -36 -12.5 -66.5t-34.5 -53t-52.5 -35.5t-66.5 -13z" />
    <glyph glyph-name="ring" unicode="&#x2da;" 
d="M334 1296q0 66 29 116.5t75.5 85t105 52t118.5 17.5q44 0 88.5 -11t79.5 -34t57 -59t22 -87q0 -67 -28.5 -118t-74.5 -85t-104.5 -51.5t-119.5 -17.5q-57 0 -103 13.5t-78.5 39t-49.5 61t-17 78.5zM647 1497q-41 0 -71.5 -17.5t-50.5 -46t-30 -64.5t-10 -73
q0 -122 113 -122q42 0 72.5 18t50 47t28.5 65.5t9 73.5q0 119 -111 119z" />
    <glyph glyph-name="ogonek" unicode="&#x2db;" 
d="M662 -444q-383 0 -383 161q0 169 317 322h86q-184 -172 -184 -293q0 -91 178 -113z" />
    <glyph glyph-name="tilde" unicode="&#x2dc;" 
d="M1108 1477q-20 -47 -54 -98.5t-78 -95t-96 -71.5t-108 -28q-89 0 -199 57q-101 53 -155 53q-35 0 -67 -27q-30 -25 -91 -120l-70 29q158 299 332 299q82 0 189 -56q115 -53 155 -53q59 0 93 31q38 33 83 112z" />
    <glyph glyph-name="hungarumlaut" unicode="&#x2dd;" 
d="M596 1128q92 107 204 261q24 33 47 61.5t49.5 50.5t59.5 34.5t76 12.5q18 0 33.5 -6t27 -15.5t18.5 -22.5t7 -27q0 -36 -35 -73q-36 -38 -148 -107q-91 -57 -168 -107t-142 -96zM190 1128q102 117 207 261q74 100 118 129q47 30 114 30q35 0 60.5 -21t25.5 -50
q0 -41 -44 -82q-22 -20 -75.5 -56t-141.5 -90q-45 -28 -103 -66.5t-130 -88.5z" />
    <glyph glyph-name="gravecomb" unicode="&#x300;" 
d="M766 1485q-75 34 -137 60.5t-112 46.5q-162 65 -201 92q-37 25 -37 65q0 54 39.5 86.5t109.5 32.5q76 0 137 -76q68 -77 127.5 -143t112.5 -123z" />
    <glyph glyph-name="acutecomb" unicode="&#x301;" 
d="M219 1526q82 76 149 142.5t121 123.5q69 76 148 76q63 0 104 -28t41 -73q0 -52 -41 -82q-42 -31 -228 -98q-57 -20 -121 -45.5t-138 -56.5z" />
    <glyph glyph-name="uni0302" unicode="&#x302;" 
d="M858 1485l-311 203l-383 -203l-33 28q293 302 331 328q39 27 109 27q72 0 98 -26q27 -27 92 -129q16 -25 48.5 -75t83.5 -125z" />
    <glyph glyph-name="uni0306" unicode="&#x306;" 
d="M924 1851q-114 -321 -412 -321q-82 0 -138 29t-89 78q-32 48 -40 87q-4 19 -5.5 50.5t-1.5 76.5l73 17q20 -164 236 -164q213 0 309 164z" />
    <glyph glyph-name="uni0308" unicode="&#x308;" 
d="M780 1536q-33 0 -62 13.5t-50 36.5t-33 53t-12 63t12 63t33 53t50 36.5t62 13.5t62 -14t50 -37t33.5 -53t12.5 -62q0 -33 -12 -63t-33 -53t-50 -36.5t-63 -13.5zM244 1536q-34 0 -63 13.5t-50 36t-33 53t-12 63.5t12 63.5t33 53t50 36t63 13.5q33 0 61.5 -14t50 -37
t33.5 -53t12 -62t-12 -62t-33 -53t-50 -37t-62 -14z" />
    <glyph glyph-name="uni030B" unicode="&#x30b;" 
d="M637 1526q57 51 99 90.5t71 68.5q61 60 102.5 97.5t63.5 53.5q46 32 100 32q139 0 139 -90q0 -58 -45 -90q-43 -31 -222 -93q-40 -14 -109.5 -41t-171.5 -69zM100 1526q59 54 102.5 94t72.5 68q67 64 109.5 102.5t61.5 51.5q40 26 93 26q139 0 139 -94q0 -53 -43 -84
q-40 -29 -218 -94q-67 -25 -288 -111z" />
    <glyph glyph-name="uni030C" unicode="&#x30c;" 
d="M954 1839q-54 -55 -99.5 -100.5t-82.5 -80.5t-64.5 -62t-45.5 -46q-19 -18 -35 -30t-32.5 -19t-36 -9.5t-46.5 -2.5q-72 0 -96 24q-25 26 -223 326l34 29l310 -199l385 199z" />
    <glyph glyph-name="uni0326" unicode="&#x326;" 
d="M416 -381q194 12 217 117h-58q-77 0 -107 19.5t-30 64.5q0 114 156 114q151 0 151 -147q0 -57 -23.5 -100.5t-67.5 -72.5t-107 -43.5t-141 -14.5z" />
    <glyph glyph-name="tonos" unicode="&#x384;" 
d="M1038 1526l-374 -398h-80l157 431h306z" />
    <glyph glyph-name="dieresistonos" unicode="&#x385;" 
d="M948 1587l-293 -438h-80l76 471h305zM1067 1182q-33 0 -62.5 14t-51.5 37t-35 53.5t-13 63.5t13 63.5t35 53.5t51.5 37t62.5 14q34 0 63 -14t50 -37.5t33 -53.5t12 -63t-12 -63t-33 -53.5t-50 -37.5t-63 -14zM367 1182q-34 0 -63.5 13.5t-51 36.5t-33.5 53.5t-12 64.5
q0 33 12 63.5t33.5 53.5t51 37t63.5 14q33 0 62 -14t50.5 -37.5t34 -54t12.5 -62.5q0 -33 -12.5 -63t-34 -53.5t-50.5 -37.5t-62 -14z" />
    <glyph glyph-name="Alphatonos" unicode="&#x386;" horiz-adv-x="1552" 
d="M1491 0h-760l19 74q217 15 217 65q0 26 -6 60l-52 278h-487q-174 -268 -174 -325q0 -62 190 -78l-16 -74h-596l16 74q166 11 240 101q38 46 243.5 362.5t579.5 902.5h199l182 -1047q19 -106 32 -166t21 -76q17 -31 56.5 -51.5t111.5 -25.5zM661 1389l-374 -398h-80
l157 431h306zM805 1087l-324 -516h412z" />
    <glyph glyph-name="anoteleia" unicode="&#x387;" horiz-adv-x="752" 
d="M477 604q-41 0 -77 15t-63 41.5t-42.5 62t-15.5 76.5t16 76.5t43 62t63 42t76 15.5t76 -15.5t63 -42.5t42.5 -62.5t15.5 -75.5q0 -41 -15.5 -76.5t-42.5 -62t-62.5 -41.5t-76.5 -15z" />
    <glyph glyph-name="Epsilontonos" unicode="&#x388;" horiz-adv-x="1804" 
d="M520 1389l-374 -398h-80l157 431h306zM1766 1057h-76q-12 86 -62 163q-50 79 -95 95q-46 18 -193 18h-197l-127 -555h135q68 0 116 17t84.5 49t64 78t53.5 104h76l-138 -592h-75v37q0 104 -36 162q-36 59 -163 59h-137l-90 -393q-21 -91 -21 -117q0 -54 31 -75
q32 -21 168 -21q166 0 242 18q78 20 190 161q113 143 135 177h72l-129 -442h-1321l16 74q126 0 172 27q47 29 66 94l227 993q5 22 7.5 36t2.5 19q0 78 -180 103l16 73h1248z" />
    <glyph glyph-name="Etatonos" unicode="&#x389;" horiz-adv-x="2195" 
d="M520 1389l-374 -398h-80l157 431h306zM2302 1346q-142 -13 -184 -43q-40 -28 -51 -84l-230 -994q-10 -41 -10 -55q0 -43 34 -65q33 -20 148 -31l-16 -74h-768l19 74q152 8 185 38q36 33 46 81l113 497h-596l-107 -465q-8 -37 -8 -55q0 -41 33 -64q34 -22 145 -32l-16 -74
h-768l16 74q100 0 158 23q57 22 80 98l227 993q5 22 7.5 36t2.5 19q0 78 -180 103l16 73h766l-16 -73q-147 -15 -181 -39q-33 -23 -53 -88l-98 -431h596l92 400q8 37 8 55q0 42 -41 64.5t-135 38.5l17 73h768z" />
    <glyph glyph-name="Iotatonos" unicode="&#x38a;" horiz-adv-x="1247" 
d="M520 1389l-374 -398h-80l157 431h306zM281 74q107 0 164 22t80 99l227 993q5 22 7.5 36t2.5 19q0 76 -188 103l16 73h787l-17 -73q-156 -13 -194 -41q-37 -25 -51 -86l-230 -994q-8 -37 -8 -55q0 -42 36 -65q37 -20 154 -31l-18 -74h-786z" />
    <glyph glyph-name="Omicrontonos" unicode="&#x38c;" horiz-adv-x="1888" 
d="M936 -39q-133 0 -249.5 39t-203.5 113.5t-137.5 183.5t-50.5 248q0 378 272 645q272 268 658 268q132 0 249.5 -39t205.5 -113.5t139 -183t51 -248.5q0 -376 -266 -645q-265 -268 -668 -268zM567 1389l-374 -398h-80l157 431h306zM1202 1366q-222 0 -371 -276
q-147 -276 -147 -644q0 -189 73 -291t208 -102q224 0 370 278q146 280 146 642q0 187 -71 290t-208 103z" />
    <glyph glyph-name="Upsilontonos" unicode="&#x38e;" horiz-adv-x="1915" 
d="M501 1389l-374 -398h-80l157 431h306zM2169 1346q-47 -6 -85 -20t-71.5 -34.5t-64 -47.5t-63.5 -60q-42 -42 -111 -119.5t-169 -192.5q-99 -115 -156 -184.5t-73 -95.5t-30.5 -69t-28.5 -105l-43 -187q-8 -37 -8 -55q0 -52 41 -72q40 -18 149 -30l-16 -74h-791l17 74
q147 10 188 34q40 24 60 95l57 254q8 35 12 57.5t4 30.5q0 13 -12.5 55t-31.5 99.5t-42.5 122.5t-45 124t-39 105.5t-25.5 65.5q-57 148 -109 185q-52 38 -141 44l16 73h795l-18 -73q-203 -11 -203 -58q0 -72 188 -594l412 487q61 79 61 101q0 55 -164 64l19 73h538z" />
    <glyph glyph-name="Omegatonos" unicode="&#x38f;" horiz-adv-x="1966" 
d="M1735 0h-703l23 98q288 291 369 476q81 186 81 415q0 377 -278 377q-220 0 -348 -248q-127 -247 -127 -508q0 -53 3.5 -101.5t10.5 -94.5q7 -45 35.5 -123.5t79.5 -192.5l-25 -98h-651l-51 446l71 21q66 -221 199 -221h258v18q-196 178 -248 282q-53 108 -53 228
q0 279 241 481q242 203 613 203q304 0 480 -139q177 -138 177 -354q0 -206 -116 -361q-114 -153 -430 -340v-18h245q130 0 293 213l68 -23zM567 1389l-374 -398h-80l157 431h306z" />
    <glyph glyph-name="iotadieresistonos" unicode="&#x390;" horiz-adv-x="709" 
d="M727 1587l-293 -438h-80l76 471h305zM846 1182q-33 0 -62.5 14t-51.5 37t-35 53.5t-13 63.5t13 63.5t35 53.5t51.5 37t62.5 14q34 0 63 -14t50 -37.5t33 -53.5t12 -63t-12 -63t-33 -53.5t-50 -37.5t-63 -14zM146 1182q-34 0 -63.5 13.5t-51 36.5t-33.5 53.5t-12 64.5
q0 33 12 63.5t33.5 53.5t51 37t63.5 14q33 0 62 -14t50.5 -37.5t34 -54t12.5 -62.5q0 -33 -12.5 -63t-34 -53.5t-50.5 -37.5t-62 -14zM590 999l10 -14l-139 -614q-13 -55 -19 -92t-6 -56q0 -57 25.5 -78.5t89.5 -21.5q51 0 123 29l-23 -91q-195 -79 -293 -79
q-48 0 -93.5 12.5t-80.5 38t-56.5 64.5t-21.5 93q0 71 19 156l143 639z" />
    <glyph glyph-name="Alpha" unicode="&#x391;" horiz-adv-x="1552" 
d="M1491 0h-760l19 74q217 15 217 65q0 26 -6 60l-52 278h-487q-174 -268 -174 -325q0 -62 190 -78l-16 -74h-596l16 74q166 11 240 101q38 46 243.5 362.5t579.5 902.5h199l182 -1047q19 -106 32 -166t21 -76q17 -31 56.5 -51.5t111.5 -25.5zM805 1087l-324 -516h412z" />
    <glyph glyph-name="Beta" unicode="&#x392;" horiz-adv-x="1554" 
d="M1026 1419q498 0 498 -258q0 -292 -457 -391l-2 -18q90 -10 161 -36t120 -65t74.5 -90.5t25.5 -114.5q0 -218 -184.5 -332t-540.5 -114h-776l16 74q19 0 48.5 2.5t59.5 8t56 15.5t38 25q26 32 36 70l227 993q5 22 7.5 36t2.5 19q0 78 -180 103l16 73h754zM690 795h68
q81 0 149 23t117.5 67.5t77.5 109t28 148.5q0 190 -227 190q-24 0 -46 -1t-42 -3zM549 174q-5 -23 43 -56q50 -32 131 -32q138 0 234 110t96 273q0 238 -293 238q-28 0 -50.5 -1.5t-39.5 -3.5z" />
    <glyph glyph-name="Gamma" unicode="&#x393;" horiz-adv-x="1341" 
d="M1434 993h-74q-10 64 -27.5 119t-42.5 103q-50 96 -94 106q-45 12 -182 12h-199l-256 -1108q-6 -25 -6 -55q0 -44 35 -64q17 -10 57.5 -17.5t104.5 -14.5l-17 -74h-788l16 74q130 9 176 32q45 23 62 93l227 989q8 37 8 57q0 39 -33 61q-32 22 -145 40l16 73h1260z" />
    <glyph glyph-name="uni0394" unicode="&#x394;" horiz-adv-x="1524" 
d="M1380 0h-1484l12 57l983 1383h192l310 -1383zM795 1122l-654 -927h860z" />
    <glyph glyph-name="Epsilon" unicode="&#x395;" horiz-adv-x="1477" 
d="M1438 1057h-76q-12 86 -62 163q-50 79 -95 95q-46 18 -193 18h-197l-127 -555h135q68 0 116 17t84.5 49t64 78t53.5 104h76l-138 -592h-75v37q0 104 -36 162q-36 59 -163 59h-137l-90 -393q-21 -91 -21 -117q0 -54 31 -75q32 -21 168 -21q166 0 242 18q78 20 190 161
q113 143 135 177h72l-129 -442h-1321l16 74q126 0 172 27q47 29 66 94l227 993q5 22 7.5 36t2.5 19q0 78 -180 103l16 73h1248z" />
    <glyph glyph-name="Zeta" unicode="&#x396;" horiz-adv-x="1411" 
d="M1225 0h-1323l14 61l1188 1270h-293q-180 0 -259 -46t-276 -300h-81l145 434h1223l-15 -61l-1186 -1272h340q148 0 209 12q63 14 94 33q33 21 124 121q90 99 180 227h73z" />
    <glyph glyph-name="Eta" unicode="&#x397;" horiz-adv-x="1870" 
d="M1976 1346q-142 -13 -184 -43q-40 -28 -51 -84l-230 -994q-10 -41 -10 -55q0 -43 34 -65q33 -20 148 -31l-16 -74h-768l19 74q152 8 185 38q36 33 46 81l113 497h-596l-107 -465q-8 -37 -8 -55q0 -41 33 -64q34 -22 145 -32l-16 -74h-768l16 74q100 0 158 23q57 22 80 98
l227 993q5 22 7.5 36t2.5 19q0 78 -180 103l16 73h766l-16 -73q-147 -15 -181 -39q-33 -23 -53 -88l-98 -431h596l92 400q8 37 8 55q0 42 -41 64.5t-135 38.5l17 73h768z" />
    <glyph glyph-name="Theta" unicode="&#x398;" horiz-adv-x="1686" 
d="M729 -39q-283 0 -463 162t-180 422q0 378 273 645q274 268 659 268q283 0 465 -160q184 -159 184 -424q0 -376 -269 -645q-268 -268 -669 -268zM995 1366q-228 0 -379 -271t-151 -649q0 -71 15 -141.5t49.5 -126.5t91 -90.5t139.5 -34.5q227 0 377 271q151 271 151 649
q0 71 -14.5 141.5t-48.5 126.5t-90 90.5t-140 34.5zM1079 465h-61q0 79 -13 104q-12 27 -155 27q-124 0 -158 -22q-35 -21 -69 -109h-62l113 489h61v-28q0 -70 26 -87q26 -16 142 -16q124 0 158 21q36 23 69 110h64z" />
    <glyph glyph-name="Iota" unicode="&#x399;" horiz-adv-x="924" 
d="M-43 74q107 0 164 22t80 99l227 993q5 22 7.5 36t2.5 19q0 76 -188 103l16 73h787l-17 -73q-156 -13 -194 -41q-37 -25 -51 -86l-230 -994q-8 -37 -8 -55q0 -42 36 -65q37 -20 154 -31l-18 -74h-786z" />
    <glyph glyph-name="Kappa" unicode="&#x39a;" horiz-adv-x="1673" 
d="M559 225q-4 -17 -6 -30.5t-2 -24.5q0 -41 33 -64q34 -22 145 -32l-16 -74h-768l16 74q126 0 172 27q47 29 66 94l227 993q5 22 7.5 36t2.5 19q0 78 -180 103l16 73h766l-16 -73q-65 -5 -140 -24q-75 -20 -94 -103l-110 -484h43q631 487 631 574q0 26 -140 37l19 73h616
l-16 -73q-121 -10 -239 -65t-578 -447l389 -638q74 -113 225 -122l-16 -74h-533q-43 105 -132 267.5t-226 387.5h-62z" />
    <glyph glyph-name="Lambda" unicode="&#x39b;" horiz-adv-x="1542" 
d="M1481 0h-762l16 74q217 15 217 65q0 23 -6 60l-149 884l-497 -802q-52 -88 -52 -129q0 -62 190 -78l-16 -74h-596l16 74q171 11 249 111q77 101 808 1255h199l211 -1234q21 -121 188 -132z" />
    <glyph glyph-name="Mu" unicode="&#x39c;" horiz-adv-x="2116" 
d="M2228 1346q-66 -7 -109 -16t-65 -22q-44 -26 -59 -89l-223 -994q-5 -25 -8 -38.5t-3 -16.5q0 -43 34 -65q34 -21 149 -31l-17 -74h-768l19 74q148 14 187 44q40 31 52 87l240 1065h-10l-770 -1247h-127q-1 8 -9.5 79.5t-25.5 208.5l-137 975h-11l-198 -868
q-27 -118 -27 -182q0 -39 11 -66.5t35 -46t61.5 -30t89.5 -19.5l-19 -74h-608l16 74q156 10 214 71q56 59 106 263l162 700q12 53 12 92q0 137 -189 146l17 73h649l135 -938l465 762q29 48 50.5 92t35.5 84h662z" />
    <glyph glyph-name="Nu" unicode="&#x39d;" horiz-adv-x="1700" 
d="M1866 1346l-34 -5q-136 -18 -188 -76q-51 -56 -98 -255l-235 -1018h-168l-613 1136l-161 -708q-27 -118 -27 -184q0 -76 39 -109q40 -32 158 -53l-19 -74h-608l16 74q155 13 213 70q57 56 107 264l153 667q13 55 13 82q0 155 -199 189l18 73h525l534 -999l133 579
q27 119 27 181q0 47 -15.5 76t-42 46.5t-62 27t-75.5 16.5l17 73h608z" />
    <glyph glyph-name="Xi" unicode="&#x39e;" horiz-adv-x="1571" 
d="M1513 897h-75q-43 233 -135 249q-45 8 -137 12.5t-232 4.5q-324 0 -381 -17q-55 -17 -104 -64q-25 -24 -60 -70t-82 -115h-76l158 522h1219zM1149 455h-74v32q0 30 -2 48t-10.5 29t-25 16.5t-46.5 9.5q-28 4 -74.5 6t-113.5 2q-229 0 -267 -29q-36 -28 -69 -114h-74
l121 524h74v-31q0 -71 18 -85q18 -13 79 -20t173 -7q151 0 204 10q57 11 73 24q17 12 61 109h74zM1247 0h-1181l49 543h75q8 -36 19 -78t30 -80t47.5 -66.5t70.5 -39.5q28 -7 118 -10t244 -3q128 0 219.5 3.5t150.5 10.5q117 13 285 263h76z" />
    <glyph glyph-name="Omicron" unicode="&#x39f;" horiz-adv-x="1679" 
d="M727 -39q-133 0 -249.5 39t-203.5 113.5t-137.5 183.5t-50.5 248q0 378 272 645q272 268 658 268q132 0 249.5 -39t205.5 -113.5t139 -183t51 -248.5q0 -376 -266 -645q-265 -268 -668 -268zM993 1366q-222 0 -371 -276q-147 -276 -147 -644q0 -189 73 -291t208 -102
q224 0 370 278q146 280 146 642q0 187 -71 290t-208 103z" />
    <glyph glyph-name="Pi" unicode="&#x3a0;" horiz-adv-x="1843" 
d="M1952 1346q-135 -9 -179 -37q-44 -29 -59 -90l-229 -994q-8 -37 -8 -55q0 -45 37 -66q37 -19 145 -30l-19 -74h-761l18 74q144 8 178 37q33 29 47 82l258 1126h-569l-252 -1094q-8 -37 -8 -55q0 -45 37 -66q38 -19 135 -30l-18 -74h-760l16 74q100 0 158 23q57 22 80 98
l227 993q8 37 8 55q0 39 -33 61q-33 23 -145 42l16 73h1696z" />
    <glyph glyph-name="Rho" unicode="&#x3a1;" horiz-adv-x="1446" 
d="M1040 1419q492 0 492 -299q0 -236 -204 -373q-205 -137 -535 -137h-144l-90 -385q-4 -17 -6 -30.5t-2 -24.5q0 -42 34 -64q35 -21 148 -32l-16 -74h-772l16 74q19 0 48.5 2.5t59.5 8t56 15.5t38 25q26 32 36 70l227 993q5 22 7.5 36t2.5 19q0 78 -180 103l16 73h768z
M815 1333l-145 -633h65q98 0 173 28t126 81.5t77 131.5t26 177q0 215 -248 215h-74z" />
    <glyph glyph-name="Sigma" unicode="&#x3a3;" horiz-adv-x="1393" 
d="M1346 1008h-78q-35 156 -80 226q-47 72 -85 84q-38 13 -177 13h-293l325 -510l-12 -49l-624 -508h530q136 0 182 23q45 24 95 77q53 56 143 189h78l-193 -553h-1257l14 66l737 602l-444 692l14 59h1221z" />
    <glyph glyph-name="Tau" unicode="&#x3a4;" horiz-adv-x="1401" 
d="M807 231q-4 -17 -6 -30.5t-2 -24.5q0 -52 48 -73.5t142 -28.5l-16 -74h-793l19 74q147 10 188 35q41 24 57 94l263 1132h-39q-153 0 -201 -23q-34 -16 -72.5 -53t-75.5 -80.5t-68.5 -88t-51.5 -76.5h-76l92 405h1376l-94 -405h-78q-4 29 -13.5 73t-24.5 89t-35.5 83.5
t-47.5 54.5q-34 21 -186 21h-49z" />
    <glyph glyph-name="Upsilon" unicode="&#x3a5;" horiz-adv-x="1499" 
d="M1753 1346q-47 -6 -85 -20t-71.5 -34.5t-64 -47.5t-63.5 -60q-42 -42 -111 -119.5t-169 -192.5q-99 -115 -156 -184.5t-73 -95.5t-30.5 -69t-28.5 -105l-43 -187q-8 -37 -8 -55q0 -52 41 -72q40 -18 149 -30l-16 -74h-791l17 74q147 10 188 34q40 24 60 95l57 254
q8 35 12 57.5t4 30.5q0 13 -12.5 55t-31.5 99.5t-42.5 122.5t-45 124t-39 105.5t-25.5 65.5q-57 148 -109 185q-52 38 -141 44l16 73h795l-18 -73q-203 -11 -203 -58q0 -72 188 -594l412 487q61 79 61 101q0 55 -164 64l19 73h538z" />
    <glyph glyph-name="Phi" unicode="&#x3a6;" horiz-adv-x="1868" 
d="M1030 203q-10 -44 -10 -70q0 -45 41 -60q42 -16 139 -20l-16 -73h-744l17 73q139 7 173 37q36 31 46 78l6 33q-71 0 -142.5 9t-137.5 30t-123.5 54.5t-99.5 82t-66.5 113.5t-24.5 149q0 258 207 424q206 166 584 166h41q8 38 8 49q0 36 -31 57q-31 22 -137 35l16 74h735
l-18 -74q-127 -9 -167 -33t-58 -106q144 0 255.5 -28.5t187 -83t114.5 -135t39 -185.5q0 -256 -213 -426q-212 -170 -582 -170h-39zM1053 289h37q184 0 293 175q110 176 110 398q0 283 -244 283zM862 1145q-185 0 -293 -175q-108 -174 -108 -399q0 -282 241 -282l197 856
h-37z" />
    <glyph glyph-name="Chi" unicode="&#x3a7;" horiz-adv-x="1642" 
d="M213 1419h838l-19 -73q-136 -7 -175 -26q-38 -17 -38 -46q0 -44 156 -391q134 128 214 207.5t107 111.5q54 65 54 88q0 42 -152 56l16 73h578l-16 -73q-136 0 -273 -121q-136 -121 -483 -441q109 -235 180 -380.5t105 -205.5q68 -120 235 -124l-16 -74h-834l17 74
q137 7 175 24t38 45q0 53 -177 435q-255 -240 -337 -331q-82 -89 -82 -118q0 -41 149 -55l-16 -74h-576l17 74q131 3 262 111q66 55 199 177.5t337 315.5q-44 97 -86 186.5t-84 174.5l-57 114q-23 48 -48 83t-57 58.5t-72.5 36t-94.5 15.5z" />
    <glyph glyph-name="Psi" unicode="&#x3a8;" horiz-adv-x="2071" 
d="M2236 1346q-111 -15 -155 -43q-45 -27 -60 -91l-61 -276q-33 -151 -106 -248t-175 -154t-228.5 -79t-266.5 -23l-45 -199q-5 -25 -8 -39.5t-3 -19.5q0 -45 36 -66q19 -10 57 -18.5t98 -15.5l-16 -74h-791l18 74q146 11 188 34q44 26 60 95l53 229q-559 6 -559 377
q0 68 23 152l53 231q8 37 8 55q0 86 -157 99l16 73h539l-113 -485q-18 -76 -18 -139q0 -245 229 -273l156 674q8 37 8 59q0 36 -26 56t-138 35l16 73h734l-19 -73q-51 -3 -89 -11t-64.5 -22.5t-42 -37.5t-21.5 -56l-162 -695q318 33 393 383l117 512h541z" />
    <glyph glyph-name="uni03A9" unicode="&#x3a9;" horiz-adv-x="1796" 
d="M1565 0h-703l23 98q288 291 369 476q81 186 81 415q0 377 -278 377q-220 0 -348 -248q-127 -247 -127 -508q0 -53 3.5 -101.5t10.5 -94.5q7 -45 35.5 -123.5t79.5 -192.5l-25 -98h-651l-51 446l71 21q66 -221 199 -221h258v18q-196 178 -248 282q-53 108 -53 228
q0 279 241 481q242 203 613 203q304 0 480 -139q177 -138 177 -354q0 -206 -116 -361q-114 -153 -430 -340v-18h245q130 0 293 213l68 -23z" />
    <glyph glyph-name="Iotadieresis" unicode="&#x3aa;" horiz-adv-x="924" 
d="M942 1534q-34 0 -63 13.5t-50 36t-33 53t-12 63.5t12 63t33 53t50 36.5t63 13.5q33 0 62 -14t50.5 -37t33.5 -53t12 -62t-12 -62t-33.5 -53t-50.5 -37t-62 -14zM446 1534q-34 0 -62.5 13.5t-49.5 36.5t-33 53t-12 63t12 63t33 53t50 36.5t62 13.5t62 -14t50.5 -37
t33.5 -53t12 -62t-12 -62t-33.5 -53t-50.5 -37t-62 -14zM-43 74q107 0 164 22t80 99l227 993q5 22 7.5 36t2.5 19q0 76 -188 103l16 73h787l-17 -73q-156 -13 -194 -41q-37 -25 -51 -86l-230 -994q-8 -37 -8 -55q0 -42 36 -65q37 -20 154 -31l-18 -74h-786z" />
    <glyph glyph-name="Upsilondieresis" unicode="&#x3ab;" horiz-adv-x="1499" 
d="M1337 1536q-33 0 -62 13.5t-50 36.5t-33 53t-12 63t12 63t33 53t50 36.5t62 13.5t62 -14t50 -37t33.5 -53t12.5 -62q0 -33 -12 -63t-33 -53t-50 -36.5t-63 -13.5zM801 1536q-34 0 -63 13.5t-50 36t-33 53t-12 63.5t12 63.5t33 53t50 36t63 13.5q33 0 61.5 -14t50 -37
t33.5 -53t12 -62t-12 -62t-33 -53t-50 -37t-62 -14zM1753 1346q-47 -6 -85 -20t-71.5 -34.5t-64 -47.5t-63.5 -60q-42 -42 -111 -119.5t-169 -192.5q-99 -115 -156 -184.5t-73 -95.5t-30.5 -69t-28.5 -105l-43 -187q-8 -37 -8 -55q0 -52 41 -72q40 -18 149 -30l-16 -74h-791
l17 74q147 10 188 34q40 24 60 95l57 254q8 35 12 57.5t4 30.5q0 13 -12.5 55t-31.5 99.5t-42.5 122.5t-45 124t-39 105.5t-25.5 65.5q-57 148 -109 185q-52 38 -141 44l16 73h795l-18 -73q-203 -11 -203 -58q0 -72 188 -594l412 487q61 79 61 101q0 55 -164 64l19 73h538z
" />
    <glyph glyph-name="alphatonos" unicode="&#x3ac;" horiz-adv-x="1391" 
d="M1106 1526l-374 -398h-80l157 431h306zM1374 985q-8 -23 -45 -112.5t-104 -247.5l-65 -155q-2 -4 -3.5 -18t-3.5 -34t-3.5 -43t-2.5 -43.5t-1.5 -36.5t-0.5 -23q0 -149 100 -149q64 0 125 24l-20 -90q-204 -82 -322 -82q-217 0 -217 177v28l-6 2q-134 -215 -385 -215
q-87 0 -153.5 32.5t-111 87.5t-67 128t-22.5 154q0 260 172 453q173 194 411 194q257 0 305 -209h11l65 178l332 14zM877 674q0 248 -156 248q-120 0 -209 -188q-88 -186 -88 -425q0 -223 137 -223q118 0 217 197t99 391z" />
    <glyph glyph-name="epsilontonos" unicode="&#x3ad;" horiz-adv-x="1098" 
d="M1026 1526l-374 -398h-80l157 431h306zM1038 262q-216 -295 -569 -295q-41 0 -89 4.5t-96 16t-92.5 30.5t-79 48.5t-55 69.5t-20.5 93q0 68 25.5 119t68.5 86.5t100 55t119 22.5l2 10q-205 40 -205 195q0 63 26 110t69 80.5t98.5 55t114 34t116.5 17t105 4.5
q409 0 409 -234q0 -72 -45.5 -115.5t-130.5 -43.5q-34 0 -63 8.5t-50 25t-32.5 39.5t-11.5 52q0 54 59 161q-20 29 -88 29q-52 0 -91.5 -20.5t-66.5 -54.5t-41 -78.5t-14 -92.5q0 -78 42.5 -107.5t129.5 -29.5h55l-18 -94h-80q-236 0 -236 -211q0 -158 207 -158
q198 0 363 219z" />
    <glyph glyph-name="etatonos" unicode="&#x3ae;" horiz-adv-x="1364" 
d="M1120 1526l-374 -398h-80l157 431h306zM993 -444h-331l249 1083q13 55 13 92q0 115 -99 115q-101 0 -235 -123l-164 -723h-332l142 614q24 104 24 150q0 54 -22.5 76t-85.5 22q-49 0 -123 -28l22 90q201 80 295 80q212 0 254 -177h6q212 189 426 189q234 0 234 -228
q0 -52 -15 -114z" />
    <glyph glyph-name="iotatonos" unicode="&#x3af;" horiz-adv-x="709" 
d="M809 1526l-374 -398h-80l157 431h306zM590 999l10 -14l-139 -614q-13 -55 -19 -92t-6 -56q0 -57 25.5 -78.5t89.5 -21.5q51 0 123 29l-23 -91q-195 -79 -293 -79q-48 0 -93.5 12.5t-80.5 38t-56.5 64.5t-21.5 93q0 71 19 156l143 639z" />
    <glyph glyph-name="upsilondieresistonos" unicode="&#x3b0;" horiz-adv-x="1237" 
d="M948 1587l-293 -438h-80l76 471h305zM1067 1182q-33 0 -62.5 14t-51.5 37t-35 53.5t-13 63.5t13 63.5t35 53.5t51.5 37t62.5 14q34 0 63 -14t50 -37.5t33 -53.5t12 -63t-12 -63t-33 -53.5t-50 -37.5t-63 -14zM367 1182q-34 0 -63.5 13.5t-51 36.5t-33.5 53.5t-12 64.5
q0 33 12 63.5t33.5 53.5t51 37t63.5 14q33 0 62 -14t50.5 -37.5t34 -54t12.5 -62.5q0 -33 -12.5 -63t-34 -53.5t-50.5 -37.5t-62 -14zM231 614q25 90 25 148q0 54 -23 77t-86 23q-53 0 -122 -28l20 90q204 80 297 80q48 0 92.5 -12.5t79 -38.5t55.5 -64.5t21 -91.5
q0 -75 -21 -156l-65 -250q-17 -66 -17 -119q0 -176 164 -176q129 0 239 125q111 126 111 264q0 67 -102 143q-102 77 -102 177q0 44 13.5 81.5t39 65t62 43t81.5 15.5q193 0 193 -217q0 -329 -193 -577q-193 -249 -469 -249q-67 0 -134.5 13t-122.5 45t-89.5 85t-34.5 132
q0 61 13 100z" />
    <glyph glyph-name="alpha" unicode="&#x3b1;" horiz-adv-x="1391" 
d="M1374 985q-8 -23 -45 -112.5t-104 -247.5l-65 -155q-2 -4 -3.5 -18t-3.5 -34t-3.5 -43t-2.5 -43.5t-1.5 -36.5t-0.5 -23q0 -149 100 -149q64 0 125 24l-20 -90q-204 -82 -322 -82q-217 0 -217 177v28l-6 2q-134 -215 -385 -215q-87 0 -153.5 32.5t-111 87.5t-67 128
t-22.5 154q0 260 172 453q173 194 411 194q257 0 305 -209h11l65 178l332 14zM877 674q0 248 -156 248q-120 0 -209 -188q-88 -186 -88 -425q0 -223 137 -223q118 0 217 197t99 391z" />
    <glyph glyph-name="beta" unicode="&#x3b2;" horiz-adv-x="1348" 
d="M391 41l-106 -485h-328l317 1448q18 84 43.5 153t64.5 127t94 105.5t132 88.5q134 72 328 72q45 0 93 -5.5t95 -18t89 -34t74 -52.5t50.5 -73t18.5 -97q0 -85 -34.5 -151.5t-91.5 -113.5t-130 -75t-150 -37l-2 -8q72 -5 132.5 -28t105 -64.5t69.5 -100t25 -133.5
q0 -243 -184 -415q-183 -171 -416 -171q-189 0 -281 68h-8zM672 827l24 103h47q116 0 196 107q81 107 81 266q0 172 -121 172q-54 0 -97 -26t-76.5 -78.5t-60 -130t-49.5 -181.5l-184 -836q-8 -37 44 -100q52 -64 136 -64q133 0 223 171q91 170 91 399q0 198 -176 198h-78z
" />
    <glyph glyph-name="gamma" unicode="&#x3b3;" horiz-adv-x="1169" 
d="M643 94q-12 -286 -59 -412q-46 -126 -176 -126q-156 0 -156 139q0 132 106 319q-14 115 -36 238.5t-52 260.5q-58 270 -91 309q-32 38 -77 38q-51 0 -118 -26l20 90q198 80 297 80q81 0 132 -27.5t81 -85.5q14 -25 27.5 -74.5t26 -111.5t24 -131.5t21 -134.5t16.5 -119
t10 -87q161 216 189 272q28 55 28 146q0 25 -7 63t-7 85q0 103 64 158t179 55q146 0 146 -111q0 -80 -114 -208q-58 -66 -116 -137t-118 -150q-39 -52 -78.5 -102t-79.5 -99q-22 -27 -42.5 -54.5t-39.5 -56.5z" />
    <glyph glyph-name="delta" unicode="&#x3b4;" horiz-adv-x="1303" 
d="M1018 1434q-49 34 -133 34q-42 0 -82 -12t-71.5 -36t-50.5 -59t-19 -81q0 -61 55 -112q28 -25 92 -67t166 -102q60 -36 108.5 -75.5t82 -87.5t51.5 -106.5t18 -131.5q0 -268 -194 -450q-193 -181 -482 -181q-224 0 -358 116q-133 115 -133 304q0 216 153 375
q152 158 395 190v6q-78 28 -135.5 58.5t-95.5 62.5q-76 66 -76 166q0 139 154 221q155 84 405 84q35 0 81.5 -3.5t95.5 -12t97 -24.5t85.5 -41.5t60.5 -61t23 -84.5q0 -82 -48 -131t-133 -49q-155 0 -155 125q0 58 43 166zM713 895q-123 -24 -209 -200q-84 -175 -84 -410
q0 -242 155 -242q130 0 220 179q90 180 90 384q0 207 -172 289z" />
    <glyph glyph-name="epsilon" unicode="&#x3b5;" horiz-adv-x="1098" 
d="M1038 262q-216 -295 -569 -295q-41 0 -89 4.5t-96 16t-92.5 30.5t-79 48.5t-55 69.5t-20.5 93q0 68 25.5 119t68.5 86.5t100 55t119 22.5l2 10q-205 40 -205 195q0 63 26 110t69 80.5t98.5 55t114 34t116.5 17t105 4.5q409 0 409 -234q0 -72 -45.5 -115.5t-130.5 -43.5
q-34 0 -63 8.5t-50 25t-32.5 39.5t-11.5 52q0 54 59 161q-20 29 -88 29q-52 0 -91.5 -20.5t-66.5 -54.5t-41 -78.5t-14 -92.5q0 -78 42.5 -107.5t129.5 -29.5h55l-18 -94h-80q-236 0 -236 -211q0 -158 207 -158q198 0 363 219z" />
    <glyph glyph-name="zeta" unicode="&#x3b6;" horiz-adv-x="946" 
d="M1165 1358q-161 -87 -292.5 -198t-237.5 -251q-209 -278 -209 -503q0 -177 223 -181l87 -9q44 -5 77.5 -25.5t57 -52t35.5 -71t12 -81.5q0 -147 -145 -279q-145 -133 -318 -133q-232 0 -232 129q0 24 8 46.5t23 40t36 28t46 10.5q114 0 176 -170q42 2 77.5 20.5t61 48
t40 67.5t14.5 79q0 121 -179 129q-70 3 -143.5 9.5t-139.5 29.5q-72 24 -128 103q-56 80 -56 194q0 107 43.5 209.5t115 197.5t164.5 181.5t192 161t196.5 136t179.5 107.5l2 12q-161 -13 -282 -19.5t-203 -6.5q-166 0 -166 106q0 27 9 50t26 40.5t40.5 27t51.5 9.5
q87 0 146 -56q58 -56 108 -56q237 0 508 24z" />
    <glyph glyph-name="eta" unicode="&#x3b7;" horiz-adv-x="1364" 
d="M993 -444h-331l249 1083q13 55 13 92q0 115 -99 115q-101 0 -235 -123l-164 -723h-332l142 614q24 104 24 150q0 54 -22.5 76t-85.5 22q-49 0 -123 -28l22 90q201 80 295 80q212 0 254 -177h6q212 189 426 189q234 0 234 -228q0 -52 -15 -114z" />
    <glyph glyph-name="theta" unicode="&#x3b8;" horiz-adv-x="1311" 
d="M553 -33q-124 0 -211.5 46t-142.5 123t-80 178.5t-25 213.5q0 400 206 711t538 311q123 0 210 -44.5t142.5 -120t81.5 -175.5t26 -211q0 -410 -209 -721t-536 -311zM934 836q33 194 33 333q0 306 -148 306q-53 0 -97 -37t-79 -95.5t-62.5 -131t-47.5 -143.5t-32.5 -133
t-19.5 -99h453zM918 739h-453l-4 -30q-16 -117 -23.5 -208t-7.5 -159q0 -299 137 -299q114 0 208 171q95 171 138 495z" />
    <glyph glyph-name="iota" unicode="&#x3b9;" horiz-adv-x="709" 
d="M590 999l10 -14l-139 -614q-13 -55 -19 -92t-6 -56q0 -57 25.5 -78.5t89.5 -21.5q51 0 123 29l-23 -91q-195 -79 -293 -79q-48 0 -93.5 12.5t-80.5 38t-56.5 64.5t-21.5 93q0 71 19 156l143 639z" />
    <glyph glyph-name="kappa" unicode="&#x3ba;" horiz-adv-x="1341" 
d="M545 492q156 179 258.5 288.5t153.5 151.5q102 84 198 84q158 0 158 -158q0 -37 -14.5 -70t-39 -58t-57 -39.5t-69.5 -14.5q-91 0 -211 90q-24 -13 -105 -90q171 -439 213 -501t137 -62q57 0 129 30l-22 -90q-183 -80 -305 -80q-154 0 -215 70q-63 72 -179 397l-65 -59
l-86 -381h-330l142 614q24 104 24 150q0 27 -4.5 45.5t-16.5 30.5t-33 17t-54 5q-49 0 -123 -28l22 90q201 80 295 80q117 0 181.5 -56t64.5 -153q0 -70 -21 -154l-36 -149h10z" />
    <glyph glyph-name="lambda" unicode="&#x3bb;" horiz-adv-x="1081" 
d="M1106 20q-132 -43 -191 -43q-95 0 -123 49q-27 50 -33 261q-5 148 -8.5 242.5t-7.5 138.5q-397 -554 -456 -668h-385l780 1040q-19 108 -78 191q-11 0 -43.5 -1.5t-87.5 -3.5q-176 -8 -176 140q0 40 15 74t41.5 58.5t61.5 38t74 13.5q98 0 152 -49t80 -141
q14 -51 34 -165t45 -295q5 -42 22 -141t46 -257q57 -316 94 -364q38 -50 105 -50q26 0 53 6z" />
    <glyph glyph-name="uni03BC" unicode="&#x3bc;" horiz-adv-x="1372" 
d="M270 43q-12 -54 -12 -119l6 -160q0 -208 -186 -208q-29 0 -55.5 9.5t-46.5 26.5t-32 42t-12 55q0 63 66 206q52 112 84 250l194 840l318 14l10 -14l-145 -631q-15 -64 -15 -104q0 -115 121 -115q125 0 213 111l170 739l318 14l12 -14l-141 -612q-27 -117 -27 -150
q0 -57 26 -78.5t89 -21.5q54 0 123 29l-23 -91q-195 -79 -295 -79q-225 0 -260 159h-6q-144 -166 -313 -166q-108 0 -170 68h-11z" />
    <glyph glyph-name="nu" unicode="&#x3bd;" horiz-adv-x="1149" 
d="M4 924q198 80 297 80q69 0 113 -19.5t72.5 -55t44.5 -85t28 -110.5q17 -82 36.5 -194.5t41.5 -256.5l145 188q25 32 37 80.5t12 99.5q0 8 -2 24t-6 39t-6 44t-2 41q0 103 65.5 158t180.5 55q143 0 143 -111q0 -78 -113 -208q-448 -506 -552 -701h-187q-3 24 -9.5 69
t-16 102.5t-20.5 124.5t-23.5 134.5t-25.5 132t-25.5 118t-24.5 91.5t-23 52q-32 44 -82 44q-51 0 -118 -26z" />
    <glyph glyph-name="xi" unicode="&#x3be;" horiz-adv-x="1020" 
d="M561 -342q46 2 82 21t61 49t38.5 69.5t13.5 83.5q0 123 -181 123h-176q-71 0 -135.5 19.5t-113 58t-77 96.5t-28.5 135q0 94 41 171t107.5 134.5t150 93.5t168.5 48v8q-48 8 -97.5 26.5t-90 48.5t-66 72.5t-25.5 98.5q0 231 357 327l4 17q-11 -1 -24 -1.5t-30 -2.5
q-79 -8 -123 -12.5t-52 -4.5q-164 0 -164 99q0 49 32 81.5t86 32.5q88 0 149 -54q62 -54 112 -54q161 0 307 5.5t282 16.5l-30 -125h-111q-84 0 -162.5 -17t-139.5 -57t-97.5 -105t-36.5 -161q0 -188 268 -188h127l-26 -111h-173q-78 0 -148.5 -17t-124.5 -54.5t-86 -98
t-32 -147.5q0 -166 244 -166h84q242 0 242 -219q0 -157 -144 -290q-143 -134 -319 -134q-232 0 -232 131q0 24 8 46t23 39.5t36 27.5t46 10q114 0 176 -170z" />
    <glyph glyph-name="omicron" unicode="&#x3bf;" horiz-adv-x="1303" 
d="M543 -33q-99 0 -186 26.5t-151 79.5t-101 132.5t-37 185.5q0 269 191 448t489 179q101 0 189.5 -24.5t154.5 -76t104.5 -131t38.5 -188.5q0 -263 -192 -448q-192 -183 -500 -183zM729 938q-145 0 -228 -197q-81 -196 -81 -465q0 -231 155 -231q140 0 224 200
q84 201 84 468q0 225 -154 225z" />
    <glyph glyph-name="pi" unicode="&#x3c0;" horiz-adv-x="1352" 
d="M270 225q170 232 242 598h-88q-182 0 -262 -213h-74q1 3 1.5 7.5t2.5 10.5l6 26q73 331 340 331h1000l-37 -162h-244l-104 -458q-29 -130 -29 -152q0 -31 6.5 -50.5t20.5 -30t35 -14t51 -3.5q56 0 125 28l-23 -90q-201 -80 -295 -80q-252 0 -252 207q0 62 25 156l112 487
h-204l-61 -222q-14 -50 -36 -116t-52.5 -135t-69.5 -135.5t-86 -118.5t-102 -84t-118 -32q-33 0 -61 10.5t-48 30t-31 46.5t-11 60q0 35 10 68.5t30 59.5t49 42t68 16q76 0 164 -88z" />
    <glyph glyph-name="rho" unicode="&#x3c1;" horiz-adv-x="1323" 
d="M373 43l-105 -487h-329l219 993q24 112 78.5 199.5t137 147.5t191.5 91t242 31q96 0 178 -25t142 -75.5t94 -126t34 -177.5q0 -260 -186 -451q-184 -190 -422 -190q-179 0 -264 70h-10zM758 938q-78 0 -146 -72q-68 -71 -134 -351q-66 -279 -66 -292q0 -34 14.5 -64
t38.5 -52.5t55 -35t64 -12.5q135 0 226 204q93 204 93 460q0 215 -145 215z" />
    <glyph glyph-name="uni03C2" unicode="&#x3c2;" horiz-adv-x="1051" 
d="M797 907q-13 33 -84 33q-112 0 -204 -128q-91 -127 -91 -300q0 -72 28.5 -129.5t99.5 -86.5q30 -12 83 -28.5t131 -38.5q180 -46 180 -231q0 -157 -145 -290q-146 -134 -318 -134q-233 0 -233 129q0 23 8 46t23 41t35.5 29t45.5 11q119 0 179 -172q40 2 74.5 18t59.5 42
t39.5 61t14.5 76q0 86 -133 125q-23 5 -76.5 20t-140.5 41q-172 51 -239 156q-68 106 -68 227q0 233 193 413q193 181 474 181q348 0 348 -238q0 -82 -46.5 -132t-133.5 -50q-28 0 -57.5 7.5t-53.5 23t-39.5 39.5t-15.5 57q0 63 42 142q5 11 10 20.5t10 19.5z" />
    <glyph glyph-name="sigma" unicode="&#x3c3;" horiz-adv-x="1372" 
d="M1436 823h-287v-6q86 -98 86 -248q0 -256 -195 -429q-196 -173 -489 -173q-99 0 -187 27t-153.5 81t-104 134t-38.5 186q0 272 199 434q200 162 515 162h693zM815 823q-112 0 -188 -42.5t-122.5 -113.5t-66.5 -162.5t-20 -189.5q0 -266 151 -266t242 204q92 207 92 396
q0 127 -14 174h-74z" />
    <glyph glyph-name="tau" unicode="&#x3c4;" horiz-adv-x="993" 
d="M625 336q-21 -91 -21 -121q0 -100 127 -100q53 0 154 32l-23 -90q-190 -84 -327 -84q-48 0 -95 12t-84 37t-59.5 64t-22.5 94q0 63 21 156l113 483h-66q-167 0 -233 -215h-74l11 60q26 159 111 240t210 81h725l-37 -166h-320z" />
    <glyph glyph-name="upsilon" unicode="&#x3c5;" horiz-adv-x="1237" 
d="M231 614q25 90 25 148q0 54 -23 77t-86 23q-53 0 -122 -28l20 90q204 80 297 80q48 0 92.5 -12.5t79 -38.5t55.5 -64.5t21 -91.5q0 -75 -21 -156l-65 -250q-17 -66 -17 -119q0 -176 164 -176q129 0 239 125q111 126 111 264q0 67 -102 143q-102 77 -102 177
q0 44 13.5 81.5t39 65t62 43t81.5 15.5q193 0 193 -217q0 -329 -193 -577q-193 -249 -469 -249q-67 0 -134.5 13t-122.5 45t-89.5 85t-34.5 132q0 61 13 100z" />
    </font>
</defs>
</svg>
