<?xml version="1.0" standalone="no"?>
<!DOCTYPE svg PUBLIC "-//W3C//DTD SVG 1.1//EN" "http://www.w3.org/Graphics/SVG/1.1/DTD/svg11.dtd" >
<svg xmlns="http://www.w3.org/2000/svg" xmlns:xlink="http://www.w3.org/1999/xlink" version="1.1">
<metadata>
Created by FontForge 20201107 at Thu Oct 21 09:39:15 2021
 By 
(c) 2011 Microsoft Corporation. All Rights Reserved.
</metadata>
<defs>
<font id="SVN-GeorgiaPro-Black" horiz-adv-x="1354" >
  <font-face 
    font-family="SVN-Georgia Pro Black"
    font-weight="900"
    font-stretch="normal"
    units-per-em="2048"
    panose-1="2 4 10 2 5 4 5 2 2 3"
    ascent="1638"
    descent="-410"
    x-height="995"
    cap-height="1419"
    bbox="-414 -621 2836 2277"
    underline-thickness="139"
    underline-position="-246"
    unicode-range="U+0020-FB04"
  />
<missing-glyph horiz-adv-x="2048" 
d="M256 0v1536h1536v-1536h-1536zM385 129h1280v1280h-1280v-1280z" />
    <glyph glyph-name="f_f" unicode="ff" horiz-adv-x="1667" 
d="M1905 1343q0 -91 -53 -140.5t-146 -49.5q-58 0 -97 20.5t-71 70.5q-31 48 -94 214q-29 -27 -42 -103q-13 -74 -13 -253v-111h292v-114h-288v-678q0 -33 15.5 -55t43 -35t65 -19.5t80.5 -9.5v-80h-782v80q43 0 73.5 4.5t46.5 13.5q17 11 24 26q8 18 8 69v684h-338v-678
q0 -31 4 -49.5t17 -32.5q14 -14 29 -22q16 -7 73 -15v-80h-703v80q83 0 118.5 25t35.5 88v684h-209v114h209v8q-1 116 41 214t121.5 169t194.5 110.5t259 37.5q114 0 194.5 -38.5t110.5 -111.5q164 168 465 168q152 0 234 -54t82 -151zM967 991q6 92 28 164q-70 0 -120 21.5
t-86 59.5t-60.5 90.5t-42.5 113.5q-37 -37 -49 -123t-12 -234v-92h342z" />
    <glyph glyph-name="fi" unicode="fi" horiz-adv-x="1542" 
d="M829 0v80q27 -1 48 2.5t35 15t20.5 34t5.5 58.5v570q0 101 -64 117h-245v-678q0 -32 5 -52.5t17 -33.5t33.5 -20t54.5 -13v-80h-690v80q82 0 118 24.5t36 85.5v687h-209v114h209v10q0 162 76 279t219 191q143 75 352 75q42 0 90.5 -4t96.5 -15t92.5 -30t78 -48t54 -69.5
t20.5 -95.5q0 -42 -18 -76t-47.5 -58t-67 -37t-76.5 -13q-60 0 -104.5 21t-75 64.5t-47.5 110.5t-23 160q-57 -1 -94.5 -23t-60 -69t-32 -122t-11.5 -183v-68h477l248 17l14 -15v-788q0 -36 12.5 -58.5t33.5 -36t49 -20t59 -10.5v-80h-689z" />
    <glyph glyph-name="fl" unicode="fl" horiz-adv-x="1571" 
d="M815 0v80q45 0 77 5.5t46 13.5q15 9 22 25q7 15 7 69v1007q-63 26 -86 83q-21 56 -21 171q-126 0 -180.5 -98t-54.5 -291v-74h241v-114h-237v-678q0 -36 5 -56q6 -16 30 -39q7 -5 18 -9t24 -7t25 -5t21 -3v-80h-703v80q82 0 118 24.5t36 85.5v687h-209v114h209v10
q0 164 78.5 282.5t224.5 188.5q156 74 368 74q118 0 290 -33l57 -10l155 45l15 -18v-1325q0 -70 55 -101q42 -18 96 -24v-80h-727z" />
    <glyph glyph-name="f_f_i" unicode="ffi" horiz-adv-x="2306" 
d="M1593 0v80q27 -1 48 2.5t35 15t20.5 34t5.5 58.5v570q0 101 -64 117h-245v-678q2 -37 7 -57.5t17 -31.5t32.5 -16.5t53.5 -13.5v-80h-688v80q13 0 34 0.5t42.5 4.5t39.5 11.5t25 20.5q11 20 11 73v687h-338v-678q0 -31 4 -49.5t17 -32.5q14 -14 29 -22q16 -7 73 -15v-80
h-703v80q83 0 118.5 25t35.5 88v684h-209v114h209v8q-1 116 41 214t121.5 169t194.5 110.5t259 37.5q233 0 309 -154q36 36 86 68t111.5 55t134.5 36t154 11q42 0 90.5 -4t96.5 -15t92.5 -30t78 -48t54 -69.5t20.5 -95.5q0 -42 -18 -76t-47.5 -58t-67 -37t-76.5 -13
q-60 0 -104.5 21t-75 64.5t-47.5 110.5t-23 160q-57 -1 -94.5 -22.5t-60 -68t-32 -122t-11.5 -184.5v-68h477l248 17l14 -15v-788q0 -37 12 -59.5t33 -35.5t49 -19t59 -11v-80h-688zM967 991q0 89 20 164q-69 1 -117.5 23t-83 60.5t-58 90t-42.5 111.5q-37 -37 -49 -123
t-12 -234v-92h342z" />
    <glyph glyph-name="f_f_l" unicode="ffl" horiz-adv-x="2335" 
d="M1579 0v80q52 0 81 6t43 15q8 5 13 11t8.5 15.5t5 25.5t1.5 40v1007q-63 26 -86 83q-21 56 -21 171q-126 0 -180.5 -98t-54.5 -291v-74h241v-114h-237v-678q0 -39 5.5 -58t23.5 -33t43.5 -19.5t50.5 -8.5v-80h-701v80q13 0 34 0.5t42.5 4.5t39.5 11.5t25 20.5
q11 20 11 73v687h-338v-678q0 -31 4 -49.5t17 -32.5q14 -14 29 -22q16 -7 73 -15v-80h-703v80q83 0 118.5 25t35.5 88v684h-209v114h209v8q-1 116 41 214t121.5 169t194.5 110.5t259 37.5q233 0 309 -154q94 92 219 131t291 39q118 0 290 -33l57 -10l155 45l14 -18v-1325
q0 -56 34.5 -86t117.5 -39v-80h-727zM625 991h342q0 93 20 164q-69 1 -117.5 23t-83 60.5t-58.5 90t-42 111.5q-37 -37 -49 -123t-12 -234v-92z" />
    <glyph glyph-name="f_j" unicode="fj" horiz-adv-x="1524" 
d="M629 877v-678q0 -32 5 -52.5t17 -33.5t33.5 -20t54.5 -13v-80h-690v80q82 0 118 24.5t36 85.5v687h-209v114h209v10q0 162 76 279t219 191q143 75 352 75q42 0 90.5 -4t96.5 -15t92.5 -30t78 -48t54 -69.5t20.5 -95.5q0 -42 -18 -76t-47.5 -58t-67 -37t-76.5 -13
q-60 0 -104.5 21t-75 64.5t-47.5 110.5t-23 160q-57 -1 -94.5 -23t-60 -69t-32 -122t-11.5 -183v-68h477l256 17l14 -15v-833q0 -174 -79 -316q-79 -143 -216.5 -215.5t-322.5 -72.5q-147 0 -223 52.5t-76 155.5q0 39 14 70.5t38 53t57 33t71 11.5q58 0 97.5 -27t67 -68
t44.5 -91t30 -96q64 76 64 450v660q0 101 -64 117h-245z" />
    <glyph glyph-name=".notdef" horiz-adv-x="2048" 
d="M256 0v1536h1536v-1536h-1536zM385 129h1280v1280h-1280v-1280z" />
    <glyph glyph-name=".null" horiz-adv-x="0" 
 />
    <glyph glyph-name="uni000D" horiz-adv-x="539" 
 />
    <glyph glyph-name="space" unicode=" " horiz-adv-x="539" 
 />
    <glyph glyph-name="space" unicode="&#xa0;" horiz-adv-x="539" 
 />
    <glyph glyph-name="exclam" unicode="!" horiz-adv-x="834" 
d="M655 1221q0 -37 -10 -73t-54 -151q-40 -105 -74 -233t-62 -281h-78q-59 312 -139 514q-20 51 -33.5 86.5t-19.5 55.5q-11 42 -11 82q0 48 20 89t53.5 70t77 45.5t89.5 16.5t89.5 -16.5t77 -45.5t54 -70t20.5 -89zM645 184q0 -47 -19 -87t-51 -69.5t-74 -46t-87 -16.5
q-46 0 -88 16.5t-74 45.5t-51 69t-19 88q0 47 19 87.5t51 70.5t74 47t88 17t87.5 -17t73.5 -47t51 -70.5t19 -87.5z" />
    <glyph glyph-name="quotedbl" unicode="&#x22;" horiz-adv-x="1186" 
d="M1063 1333q0 -37 -17.5 -98.5t-43 -141t-54 -173.5t-49.5 -197h-72q-22 102 -51 197t-55 175t-44 141.5t-18 96.5q0 44 15.5 80.5t42.5 62.5t64 40t81 14q43 0 80 -14.5t64 -40.5t42 -62t15 -80zM526 1333q0 -37 -17.5 -98.5t-43 -141t-54 -173.5t-49.5 -197h-73
q-23 102 -51.5 197t-54 175t-43 141.5t-17.5 96.5q0 44 15.5 80.5t42.5 62.5t64 40t81 14q43 0 79.5 -14.5t63.5 -40.5t42 -62t15 -80z" />
    <glyph glyph-name="numbersign" unicode="#" horiz-adv-x="1526" 
d="M1102 750l-86 -261h293v-184h-348l-97 -305h-176l94 305h-237l-96 -305h-175l95 305h-211v184h270l82 261h-293v184h352l101 328h176l-105 -328h242l102 328h175l-103 -328h211v-184h-266zM684 752l-82 -265h240l84 265h-242z" />
    <glyph glyph-name="dollar" unicode="$" horiz-adv-x="1317" 
d="M1237 444q0 -115 -42.5 -198.5t-114 -140t-165.5 -87t-198 -38.5v-279h-111v281q-255 7 -390.5 85.5t-135.5 221.5q0 44 15 79t41.5 60t63 38t79.5 13q97 0 155 -50.5t58 -149.5q0 -51 -12 -94.5t-31 -90.5q13 -5 32 -9t39 -6.5t39.5 -3.5t33.5 -1h13v409l-55 4
q-227 19 -334.5 111t-107.5 258q0 102 34 183.5t98 140.5t156.5 93.5t208.5 41.5v209h111v-209q471 -25 471 -281q0 -85 -45.5 -131.5t-136.5 -46.5q-103 0 -151 41t-48 129q0 72 41 174q-23 10 -55.5 16.5t-75.5 8.5v-381l49 -4q123 -10 211.5 -38.5t146.5 -77t85.5 -118
t27.5 -162.5zM606 1225q-219 -34 -219 -205q0 -53 18.5 -84.5t49 -48.5t70 -23.5t81.5 -11.5v373zM973 299q0 149 -176 172l-80 6v-405q256 28 256 227z" />
    <glyph glyph-name="percent" unicode="%" horiz-adv-x="1849" 
d="M907 1087q0 -87 -33.5 -156.5t-90.5 -117.5t-131.5 -74t-157.5 -26q-86 -2 -162.5 26.5t-133.5 79t-89.5 120t-30.5 148.5q-2 82 30 152t88 121t132 79t161 27q89 1 166 -26.5t133.5 -78t88.5 -120.5t30 -154zM420 0h-182l1185 1430h185zM573 1083q0 75 -2 125t-6 78
q-7 57 -24.5 82t-51.5 25q-42 0 -60 -56q-17 -57 -17 -237q0 -79 2 -132t6 -80q8 -54 26 -80t52 -26q41 0 58 59q17 60 17 242zM1772 342q2 -79 -30 -148.5t-88 -121.5t-132.5 -81.5t-163.5 -27.5q-85 -2 -161 26.5t-133 79.5t-90 121t-32 152q-2 81 30.5 150t89.5 118.5
t133 77.5t161 27q87 2 163.5 -25.5t133 -77t89 -118.5t30.5 -152zM1440 338q0 75 -2 126t-6 77q-8 54 -27 79t-53 25q-40 0 -60 -60q-18 -58 -18 -233q0 -79 2 -131.5t6 -79.5q8 -54 27 -79t53 -25q45 0 61 64q17 66 17 237z" />
    <glyph glyph-name="ampersand" unicode="&#x26;" horiz-adv-x="1731" 
d="M1686 821q-95 -10 -133 -24q-35 -11 -83 -56q-14 -14 -37 -46t-55 -83q-43 -69 -77 -119.5t-60 -84.5q108 -134 180 -200q41 -37 77.5 -59.5t74.5 -34.5t81 -17.5t97 -10.5v-86h-711l-102 131q-54 -46 -104.5 -78t-104 -51.5t-112.5 -28t-130 -8.5q-94 -2 -172 25
t-133.5 75t-86 113t-29.5 141q0 311 389 439q-152 182 -152 356q0 87 41.5 152t106.5 107.5t144 63.5t155 21q186 0 281 -69.5t95 -204.5q0 -61 -18 -109t-49.5 -88t-73.5 -73t-90 -64q51 -69 89 -120t64 -86q53 -66 134 -161q42 57 68 123t26 127q0 34 -34.5 53.5
t-117.5 34.5v78h562v-78zM956 1184q0 33 -9 64.5t-27.5 56t-45.5 40t-63 15.5q-121 0 -121 -129q0 -51 38 -124.5t118 -184.5q54 45 82 112.5t28 149.5zM885 203q-42 51 -135 171t-242 312q-68 -92 -68 -227q0 -64 22 -118t61.5 -92t93.5 -59.5t118 -21.5q91 0 150 35z" />
    <glyph glyph-name="quotesingle" unicode="'" horiz-adv-x="629" 
d="M514 1333q0 -37 -17.5 -98.5t-43 -141t-53.5 -174t-50 -196.5h-71q-23 102 -51.5 197t-54 175t-43 141.5t-17.5 96.5q0 45 15 81t42 62t64 40t81 14q43 0 79.5 -14.5t63 -40.5t41.5 -62t15 -80z" />
    <glyph glyph-name="parenleft" unicode="(" horiz-adv-x="1018" 
d="M950 -328q-248 33 -445 162q-197 130 -294.5 324.5t-97.5 447.5q0 119 23 228t70.5 206t121 180t173.5 150q195 129 449 162v-96q-192 -36 -291.5 -246.5t-99.5 -581.5q0 -377 99.5 -590.5t291.5 -248.5v-97z" />
    <glyph glyph-name="parenright" unicode=")" horiz-adv-x="1018" 
d="M905 606q0 -119 -24.5 -229.5t-74 -209t-124.5 -182.5t-176 -150q-197 -131 -438 -163v97q192 35 291.5 248.5t99.5 590.5q0 375 -99 583.5t-292 244.5v96q256 -35 448 -163q196 -129 292.5 -322t96.5 -441z" />
    <glyph glyph-name="asterisk" unicode="*" horiz-adv-x="1001" 
d="M924 1071q0 -48 -28 -71t-73 -23q-15 0 -37 7q-147 39 -217 48q41 -51 76 -86.5t61 -63t41 -51t15 -49.5q0 -19 -9 -35.5t-23 -29t-32 -20t-36 -7.5q-52 0 -82 55q-10 15 -31 93q-13 46 -25 84t-24 69q-12 -31 -24 -69t-23 -84l-15 -57q-11 -42 -38.5 -66.5t-59.5 -24.5
q-18 0 -36 7.5t-31.5 20t-22 29t-8.5 35.5q0 27 15 50t40.5 50.5t59.5 63t73 86.5q-54 -7 -157 -33q-84 -22 -97 -22q-43 0 -69.5 23t-26.5 71t26.5 73t69.5 25q13 0 38 -6q85 -20 139 -32t77 -15q-39 49 -73.5 84t-60 62.5t-40 50t-14.5 47.5q0 19 8.5 36t22 30t31.5 20.5
t36 7.5q50 0 84 -49q8 -15 29 -95q11 -45 22.5 -83t24.5 -72q13 35 25.5 73.5t23.5 81.5q21 80 35 102q29 42 78 42q18 0 36 -8t32 -21t23 -30t9 -35q0 -25 -15 -48t-40.5 -50t-60 -62t-73.5 -84q48 7 157 33q83 20 93 20q45 0 73 -25t28 -73z" />
    <glyph glyph-name="plus" unicode="+" horiz-adv-x="1526" 
d="M858 492v-488h-192v488h-488v186h488v489h192v-489h490v-186h-490z" />
    <glyph glyph-name="comma" unicode="," horiz-adv-x="756" 
d="M616 66q2 -62 -26.5 -131t-80.5 -134t-124 -121.5t-158 -93.5l-45 76q131 60 196.5 141t74.5 195h-62q-248 0 -248 203q0 41 16.5 77.5t44 63.5t64.5 43t78 16q129 0 199.5 -87.5t70.5 -247.5z" />
    <glyph glyph-name="hyphen" unicode="-" horiz-adv-x="782" 
d="M86 414v264h610v-264h-610z" />
    <glyph glyph-name="hyphen" unicode="&#xad;" horiz-adv-x="782" 
d="M86 414v264h610v-264h-610z" />
    <glyph glyph-name="period" unicode="." horiz-adv-x="756" 
d="M618 201q0 -48 -19.5 -91t-52 -75.5t-76 -51t-91.5 -18.5q-49 0 -93 18t-77 49.5t-52.5 75t-19.5 93.5t19.5 93.5t52.5 76t77 51t93 18.5t92.5 -19t76 -51.5t51.5 -76t19 -92.5z" />
    <glyph glyph-name="slash" unicode="/" horiz-adv-x="971" 
d="M227 -424h-217l692 1948h213z" />
    <glyph glyph-name="zero" unicode="0" horiz-adv-x="1452" 
d="M1378 711q0 -160 -37.5 -296.5t-117 -237t-203 -157.5t-295.5 -57q-175 0 -298.5 56t-202 156t-114.5 237t-36 299q-1 171 42.5 308.5t126.5 233.5t205 147t279 50q158 0 279 -50.5t204 -145.5t125.5 -232t42.5 -311zM891 711q0 131 -4 226.5t-12 158.5
q-16 127 -51.5 187t-96.5 60q-44 0 -71.5 -26t-44 -64t-24.5 -80.5t-12 -75.5q-8 -63 -12 -159t-4 -227q0 -143 4 -243t12 -160q16 -120 51.5 -180t98.5 -60q42 0 69 25.5t43.5 63t25 79t12.5 73.5q8 61 12 161t4 241z" />
    <glyph glyph-name="one" unicode="1" horiz-adv-x="1452" 
d="M199 0v82q108 7 168.5 14t76.5 15q29 9 47.5 34.5t18.5 65.5v958h-291v105h88q79 0 160 14t150 58q49 32 100 104h252q-5 -120 -8 -197t-3 -112v-920q0 -66 49 -97q50 -30 222 -42v-82h-1030z" />
    <glyph glyph-name="two" unicode="2" horiz-adv-x="1452" 
d="M111 0v238q31 59 77 106.5t95 91.5q30 26 88 71t145 109q58 42 108 87.5t86.5 98.5t57.5 115t21 138q0 46 -9 98t-31.5 96.5t-60.5 73.5t-96 29q-40 0 -63 -9q18 -40 33.5 -84t15.5 -104q0 -96 -58 -151.5t-161 -55.5q-43 0 -80.5 12t-65.5 35t-44.5 57.5t-16.5 80.5
q0 140 148 228q149 89 376 89q282 0 439 -115q159 -114 159 -313q0 -110 -47.5 -185t-138.5 -133q-48 -29 -119 -60.5t-168 -63.5l-128 -42q-198 -64 -308 -143v-10h948v-385h-1202z" />
    <glyph glyph-name="three" unicode="3" horiz-adv-x="1452" 
d="M1313 404q0 -72 -23.5 -131.5t-64.5 -107.5t-96.5 -84t-119.5 -60q-145 -54 -323 -54q-50 0 -111.5 4t-125 15.5t-123 32.5t-106 55t-75 83.5t-28.5 117.5q0 44 15.5 80t43 62t64.5 40t80 14q48 0 87 -13.5t66.5 -38.5t42.5 -61.5t15 -82.5q0 -54 -11.5 -99t-29.5 -96
q42 -14 98 -14q50 0 91.5 23t72.5 67t48 107.5t17 144.5q0 148 -50.5 212t-151.5 64h-111v125h82q102 0 147.5 73t45.5 228q0 117 -43 179.5t-119 62.5q-41 0 -80 -15q16 -40 25.5 -67t11.5 -42q6 -30 6 -71q0 -90 -55.5 -141t-149.5 -51q-43 0 -79.5 14.5t-63 40.5
t-41.5 62t-15 79q-2 61 37.5 114t110 92.5t168 61.5t211.5 21q167 0 288 -39q61 -19 109.5 -49t82 -68t51.5 -83t18 -95q0 -66 -26.5 -121t-77 -98.5t-124 -74.5t-166.5 -48v-16q81 -4 162 -24.5t146 -62t106 -107t41 -160.5z" />
    <glyph glyph-name="four" unicode="4" horiz-adv-x="1452" 
d="M1151 305v-305h-436v305h-637v246l690 926h383v-865h224v-307h-224zM715 1219l-453 -607h453v607z" />
    <glyph glyph-name="five" unicode="5" horiz-adv-x="1452" 
d="M1311 469q0 -78 -22.5 -145.5t-64 -123t-99 -98.5t-127.5 -73q-150 -62 -336 -62q-238 0 -390 87q-151 87 -151 225q0 44 16 80t43.5 61.5t64.5 40t79 14.5q44 0 82 -13t66 -38t44 -61t16 -82q0 -65 -15 -113.5t-34 -93.5q21 -8 43 -8q63 -1 118.5 27t97.5 81t66 127.5
t23 165.5q0 59 -13 116.5t-42.5 102.5t-76.5 72.5t-115 27.5q-154 0 -275 -139l-88 27l105 743h936v-344h-869l-35 -264q162 96 390 96q104 0 205 -22.5t180.5 -73.5t128.5 -134.5t49 -205.5z" />
    <glyph glyph-name="six" unicode="6" horiz-adv-x="1452" 
d="M1342 465q0 -85 -24 -155.5t-65.5 -126t-99 -97t-124.5 -69t-141.5 -41t-149.5 -13.5q-139 0 -252 42t-193 120t-124 190t-44 252q0 372 257 608q258 237 718 285l25 -102l-109 -21q-128 -34 -215.5 -107.5t-135.5 -195.5q-32 -80 -58 -243q37 35 72.5 59.5t74 39.5
t81 21.5t93.5 6.5q103 0 180.5 -34t129.5 -94.5t78 -143.5t26 -181zM865 426q0 170 -29.5 258t-95.5 88q-38 0 -75.5 -26.5t-63.5 -71.5q-2 -16 -3.5 -63.5t-1.5 -127.5q0 -215 40 -320.5t100 -105.5q66 0 97.5 89.5t31.5 279.5z" />
    <glyph glyph-name="seven" unicode="7" horiz-adv-x="1452" 
d="M645 -33h-186l637 1071h-565q-15 0 -43.5 -1.5t-59.5 -5t-57.5 -9t-38.5 -14.5q-28 -20 -48.5 -71t-33.5 -126h-82l21 606h1183v-178z" />
    <glyph glyph-name="eight" unicode="8" horiz-adv-x="1452" 
d="M1354 412q0 -211 -172 -331t-477 -120q-137 -1 -248.5 26t-190.5 76.5t-121 118t-41 150.5q0 132 89.5 210.5t281.5 108.5q-67 25 -125 64.5t-100.5 92t-67 116.5t-24.5 139q-1 86 41.5 160t121 127.5t188.5 83.5t243 28q118 2 218.5 -23.5t173.5 -71t113.5 -107.5
t38.5 -134q0 -115 -84.5 -188t-257.5 -111q195 -63 297.5 -166.5t102.5 -248.5zM862 1122q0 117 -32.5 182.5t-98.5 65.5q-37 0 -63.5 -17.5t-44 -45.5t-25.5 -61.5t-8 -65.5q0 -179 167 -253l79 -36q26 95 26 231zM922 274q0 65 -31 113t-80 85.5t-108 67.5t-115 58
q-22 -31 -36.5 -94.5t-14.5 -145.5q0 -144 51.5 -223.5t142.5 -79.5q94 0 142.5 58t48.5 161z" />
    <glyph glyph-name="nine" unicode="9" horiz-adv-x="1452" 
d="M1327 846q0 -144 -37 -260t-102.5 -208t-156.5 -161t-199 -119t-229 -82t-248 -49l-25 103l111 20q128 34 214.5 107.5t134.5 195.5q32 83 56 238q-38 -38 -76.5 -62t-80.5 -37.5t-88 -18.5t-99 -5q-95 0 -168 39t-122.5 103t-75 147.5t-25.5 171.5q0 74 21.5 138t60 117
t92 95.5t118.5 72.5q138 64 314 64q140 0 253 -42.5t192.5 -122t122 -192.5t42.5 -253zM858 870q0 246 -38.5 370t-98.5 124q-30 0 -52 -22.5t-36.5 -57.5t-23.5 -78t-13.5 -84.5t-6 -76.5t-1.5 -54q0 -20 1.5 -53.5t6.5 -72t14 -77.5t24 -70t37.5 -51t53.5 -20
q48 0 77.5 23t51.5 77z" />
    <glyph glyph-name="colon" unicode=":" horiz-adv-x="829" 
d="M655 788q0 -49 -19 -91.5t-51 -74t-75.5 -49.5t-91.5 -18t-92 18t-77.5 49t-53 74t-19.5 92q0 50 19.5 93.5t52.5 76t77 51.5t93 19t92 -19t75.5 -52t51 -76.5t18.5 -92.5zM655 201q0 -49 -19 -92t-51 -75t-75.5 -50.5t-91.5 -18.5q-49 0 -93 18.5t-77 50t-52.5 75
t-19.5 92.5q0 50 19.5 93.5t52.5 76t77 51t93 18.5t92 -19t75.5 -51.5t51 -76t18.5 -92.5z" />
    <glyph glyph-name="semicolon" unicode=";" horiz-adv-x="829" 
d="M655 788q0 -49 -19 -91.5t-51 -74t-75.5 -49.5t-91.5 -18t-92 18t-77.5 49t-53 74t-19.5 92q0 50 19.5 93.5t52.5 76t77 51.5t93 19t92 -19t75.5 -52t51 -76.5t18.5 -92.5zM653 66q1 -62 -27.5 -131t-80.5 -134t-124 -121.5t-159 -93.5l-41 76q132 61 196.5 142.5
t69.5 193.5h-59q-121 0 -185.5 50t-64.5 153q0 42 17 78.5t45.5 63.5t66 42.5t78.5 15.5q73 0 124 -28t83 -75t46.5 -107t14.5 -125z" />
    <glyph glyph-name="semicolon" unicode="&#x37e;" horiz-adv-x="829" 
d="M655 788q0 -49 -19 -91.5t-51 -74t-75.5 -49.5t-91.5 -18t-92 18t-77.5 49t-53 74t-19.5 92q0 50 19.5 93.5t52.5 76t77 51.5t93 19t92 -19t75.5 -52t51 -76.5t18.5 -92.5zM653 66q1 -62 -27.5 -131t-80.5 -134t-124 -121.5t-159 -93.5l-41 76q132 61 196.5 142.5
t69.5 193.5h-59q-121 0 -185.5 50t-64.5 153q0 42 17 78.5t45.5 63.5t66 42.5t78.5 15.5q73 0 124 -28t83 -75t46.5 -107t14.5 -125z" />
    <glyph glyph-name="less" unicode="&#x3c;" horiz-adv-x="1526" 
d="M221 508v158l1051 512v-224l-795 -366l795 -369v-225z" />
    <glyph glyph-name="equal" unicode="=" horiz-adv-x="1526" 
d="M205 713v186h1114v-186h-1114zM205 270v187h1114v-187h-1114z" />
    <glyph glyph-name="greater" unicode="&#x3e;" horiz-adv-x="1526" 
d="M254 -6v225l799 369l-799 366v224l1051 -512v-158z" />
    <glyph glyph-name="question" unicode="?" horiz-adv-x="1221" 
d="M1112 1034q0 -120 -45.5 -208t-122 -148t-176 -92t-207.5 -39l-10 -76h-86v395q139 17 213 98.5t74 209.5q0 40 -15 75t-40.5 61t-60.5 41t-75 15q-42 0 -72.5 -7t-64.5 -26l17 -44q30 -78 30 -159q0 -178 -205 -178q-44 0 -81.5 13.5t-65 39t-43 61.5t-15.5 81
q0 133 149 219t372 86q115 1 212.5 -28t168.5 -83.5t111 -132t38 -174.5zM743 184q0 -46 -19 -86.5t-50.5 -69.5t-73 -46t-86.5 -17q-46 0 -88 16.5t-74 46t-51.5 69.5t-19.5 87t19 87.5t51.5 70.5t74.5 47t88 17q45 0 86.5 -17.5t73 -47.5t50.5 -70.5t19 -86.5z" />
    <glyph glyph-name="at" unicode="@" horiz-adv-x="2036" 
d="M1673 -123q-130 -100 -285 -153.5t-329 -53.5q-122 0 -236.5 24.5t-215.5 72t-184.5 116.5t-143.5 159t-93.5 199t-33.5 236q0 126 34.5 242.5t98.5 217t153.5 183t200.5 140.5q228 120 510 120q96 0 191 -17t180.5 -54.5t158 -98t123.5 -147.5q92 -155 92 -346
q0 -74 -15.5 -148.5t-46 -143.5t-74.5 -128t-101 -103t-126.5 -69t-150.5 -25q-118 0 -198.5 29.5t-114.5 83.5h-4q-113 -104 -244 -104q-64 0 -115.5 20.5t-88 57.5t-56.5 89t-20 115q0 75 19.5 148t55.5 138.5t86.5 121t112 96t133 63.5t148.5 23q106 0 147 -80h4l25 68
h332l-209 -568q-25 -71 -25 -120q0 -72 64 -72q158 0 247 140q90 140 90 378q2 121 -42.5 221t-126.5 172t-198.5 111t-260.5 37q-103 0 -202 -27t-186.5 -77.5t-160.5 -122.5t-125 -162q-102 -178 -102 -392q-2 -162 48 -294.5t142.5 -226t222 -143.5t285.5 -48
q178 0 315 44.5t250 127.5zM1196 772q-2 45 -24 75t-54 30q-26 0 -50.5 -14.5t-46 -37.5t-39.5 -52.5t-32.5 -59.5t-25.5 -58t-17 -49q-37 -120 -37 -246q0 -54 20 -85t58 -31q19 0 43 16t39 39z" />
    <glyph glyph-name="A" unicode="A" horiz-adv-x="1634" 
d="M799 0v82q6 1 24.5 3t42 5.5t49.5 8.5t47.5 11t35.5 13.5t14 15.5q0 20 -19 70l-92 254h-479q-9 -23 -23.5 -64.5t-29 -86t-25 -85t-10.5 -63.5q0 -27 43 -46t172 -36v-82h-615v82q51 3 92.5 13t75 30.5t59.5 53t46 81.5q115 274 232 570.5t251 609.5h287
q112 -274 194.5 -480.5t137.5 -350.5q38 -100 76.5 -199t80.5 -199q14 -26 34 -49t61 -43q32 -20 68.5 -26t70.5 -11v-82h-901zM659 1077l-198 -508h395z" />
    <glyph glyph-name="B" unicode="B" horiz-adv-x="1657" 
d="M1579 385q0 -143 -68 -226t-204 -121q-138 -38 -394 -38h-860v82l77 10q32 3 57.5 8.5t43.5 18t27.5 35t9.5 59.5v985q0 35 -11 58t-44 39q-35 17 -166 42v82h830q330 0 477 -75t147 -244q0 -54 -18 -96t-48.5 -74t-70.5 -56.5t-84.5 -42.5t-91 -31t-88.5 -24v-24
q220 -21 349 -120q130 -97 130 -247zM1008 1069q0 118 -57 184t-177 66l-49 -4v-510h4q140 0 209.5 68t69.5 196zM1075 381q0 315 -313 315q-26 0 -37 -4v-530q9 -15 25.5 -26.5t36 -19.5t39.5 -12t36 -4q44 0 83 18.5t68 54.5t45.5 88.5t16.5 119.5z" />
    <glyph glyph-name="C" unicode="C" horiz-adv-x="1528" 
d="M1501 354q-78 -139 -168 -222q-91 -81 -209.5 -128t-269.5 -47q-171 0 -315.5 51t-249 146.5t-163 232.5t-58.5 309q0 179 63.5 320.5t173.5 240t258 151t316 52.5q97 0 197.5 -22.5t187.5 -65.5l73 47h88l11 -526h-90q-27 80 -63.5 162.5t-89 149.5t-124.5 109t-170 42
q-165 0 -244.5 -151.5t-79.5 -463.5q0 -157 21 -274t67 -194t119 -115.5t176 -38.5q78 0 142 24t118 65t100.5 95t88.5 113z" />
    <glyph glyph-name="D" unicode="D" horiz-adv-x="1788" 
d="M1722 700q0 -127 -35 -228.5t-96.5 -179.5t-145 -133.5t-181.5 -90.5t-206 -51.5t-218 -16.5h-787v82q124 7 148 20q40 16 53.5 42t13.5 61v993q0 78 -67 109q-9 3 -18.5 6t-19.5 5t-39.5 7t-80.5 12v82h831q111 0 217 -19t200 -57.5t173 -97t136.5 -138.5t89.5 -181.5
t32 -225.5zM1212 698q0 303 -94 463t-274 160l-119 -4v-1067q0 -72 40 -113t109 -41q176 0 257 140q81 141 81 462z" />
    <glyph glyph-name="E" unicode="E" horiz-adv-x="1534" 
d="M1456 0h-1399v82l36 3q95 9 135 34t40 90v989q0 34 -13 59.5t-54 45.5q-28 10 -63.5 18.5t-80.5 15.5v82h1329v-377h-77q-15 38 -42.5 81t-63 81t-75.5 67.5t-81 39.5q-46 12 -173 12h-149v-541h94q118 0 189 64q12 11 26 36t27 54.5t22 57.5t11 44h77v-616h-77
q-3 16 -12.5 45.5t-22 60t-26.5 57.5t-25 38q-71 65 -189 65h-94v-399q0 -60 7.5 -97.5t27.5 -59t55.5 -29t91.5 -7.5q235 0 295 54q25 27 54.5 66t58 81.5t53 85t39.5 76.5h76z" />
    <glyph glyph-name="F" unicode="F" horiz-adv-x="1436" 
d="M1327 1024q-16 35 -44 81.5t-63 90t-75.5 76t-81.5 39.5q-82 12 -170 12h-168v-549h82q47 0 82.5 7.5t63 25t49 46t39.5 70.5q16 34 25 60.5t13 46.5h76v-624h-76q-2 16 -12 46.5t-23.5 62t-29 58.5t-27.5 37q-64 64 -180 64h-82v-459q0 -62 40 -89q42 -26 161 -44v-82
h-869v82l77 11q38 6 63.5 14.5t41 22.5t22.5 34t7 49v985q0 32 -12 56q-10 25 -43 42q-33 19 -156 41v82h1348v-395h-78z" />
    <glyph glyph-name="G" unicode="G" horiz-adv-x="1716" 
d="M1733 584q-106 -8 -143 -33q-38 -26 -38 -90v-205l4 -102q-66 -49 -158.5 -86t-193 -62t-199.5 -37t-178 -12q-171 -2 -312 49t-241 147t-154 233.5t-52 307.5q0 188 61 331.5t169.5 240t257.5 145.5t325 49q48 0 100 -6.5t104 -18t102 -27.5t93 -36l78 47h88l8 -534h-88
q-42 123 -90 211.5t-103 146.5t-119 85.5t-139 27.5q-166 0 -253 -155.5t-87 -457.5q0 -331 76 -504t226 -173q69 0 132 19.5t105 55.5v314q0 51 -47 80.5t-154 48.5v82h820v-82z" />
    <glyph glyph-name="H" unicode="H" horiz-adv-x="1972" 
d="M1032 0v82q116 7 155 23q38 17 50 49q12 35 8 51v475h-520v-465q0 -80 70 -102q27 -14 145 -31v-82h-891v82q58 5 96.5 10.5t57.5 12.5q39 13 52 40.5t13 63.5v989q0 27 -7.5 45.5t-21 31.5t-33 21t-43.5 15q-61 19 -114 26v82h891v-82q-107 -14 -134 -21
q-81 -22 -81 -108v-411h520v401q0 51 -30 76t-75 38q-29 8 -55.5 14.5t-52.5 10.5v82h891v-82q-129 -17 -154 -24q-41 -16 -54 -43.5t-13 -61.5v-993q0 -77 67 -102q14 -7 52.5 -15t101.5 -16v-82h-891z" />
    <glyph glyph-name="I" unicode="I" horiz-adv-x="993" 
d="M51 0v82q135 11 154 20q40 14 51.5 41t11.5 64v991q0 71 -63 105q-10 4 -30 9t-51 11t-49 9.5t-24 4.5v82h891v-82l-34 -4q-45 -6 -74.5 -11t-45.5 -9q-41 -16 -52 -43.5t-11 -61.5v-993q0 -76 63 -102q18 -12 154 -31v-82h-891z" />
    <glyph glyph-name="J" unicode="J" horiz-adv-x="1329" 
d="M1278 1337q-109 -16 -141 -30q-31 -13 -42.5 -39t-11.5 -60v-741q0 -134 -48.5 -230t-132 -158t-195 -91t-236.5 -29q-80 0 -160.5 17.5t-145 57.5t-105 104.5t-40.5 158.5q0 53 17 98t48 77.5t75 50.5t98 18q48 0 87 -15.5t66.5 -44t42.5 -68t15 -87.5q0 -66 -36 -117.5
t-120 -93.5v-25q18 -20 60 -20q56 0 103 19.5t81 56.5t53 91.5t19 124.5v836q0 53 -23 76.5t-73 37.5q-29 8 -55.5 14.5t-51.5 10.5v82h852v-82z" />
    <glyph glyph-name="K" unicode="K" horiz-adv-x="1808" 
d="M1200 0q-108 183 -208.5 339.5t-196.5 289.5h-70v-414q0 -34 13.5 -59.5t54.5 -42.5q21 -13 120 -31v-82h-870v82q133 9 158 20q67 22 67 103v993q0 64 -43 92q-42 27 -182 47v82h911v-82q-125 -9 -164 -25t-52 -42.5t-13 -61.5v-471h55q19 18 61 59t93.5 94t106.5 112.5
t100.5 114.5t74.5 100t29 69q0 25 -33.5 35.5t-109.5 15.5v82h674v-82q-80 -11 -136.5 -25t-103.5 -36t-93 -54.5t-105 -81.5q-43 -36 -104 -95.5t-140 -143.5l98 -131q60 -85 119 -165t119 -158t108 -135t83 -95q36 -38 70 -63t66 -40.5t62.5 -22.5t60.5 -9v-82h-680z" />
    <glyph glyph-name="L" unicode="L" horiz-adv-x="1481" 
d="M1454 0h-1405v82l39 5q95 11 126 24q31 14 42.5 40t11.5 58v993q0 34 -13 58.5t-54 44.5q-35 12 -77.5 19t-74.5 13v82h905v-82l-37 -4q-15 -1 -34.5 -3t-39 -5.5t-38 -8t-31.5 -10.5q-23 -11 -36 -31.5t-13 -62.5v-921q0 -84 15 -123q16 -39 55 -55q39 -15 141 -15
q46 0 80.5 1.5t57.5 3.5q25 3 45.5 7t38.5 11.5t34.5 19.5t33.5 31q27 29 52.5 67t48.5 79t43 82t37 77h74z" />
    <glyph glyph-name="M" unicode="M" horiz-adv-x="2193" 
d="M1257 0v82q112 15 155 30q46 15 59 55q15 41 8 50v1053l-463 -1247h-178q-8 26 -21 67.5t-32 98.5q-19 58 -113 331.5t-264 763.5v-850q0 -97 11 -161.5t34 -98.5q13 -20 39 -35.5t56 -27t61 -18.5t53 -11v-82h-635v82q22 2 51.5 7t58.5 15t54.5 24t38.5 32q24 30 34 92
t10 168v688q0 61 -14 102.5t-43 68t-73.5 40t-106.5 18.5v82h772l291 -837l237 659q6 17 13 40.5t13 48t10.5 48t6.5 41.5h746v-82l-67 -9q-36 -4 -61.5 -12t-42 -22t-24.5 -35t-8 -51v-993q0 -27 7 -45.5t20.5 -31.5t33 -21.5t43.5 -15.5q59 -16 101 -19v-82h-871z" />
    <glyph glyph-name="N" unicode="N" horiz-adv-x="1774" 
d="M1755 1337l-32 -4q-105 -14 -148 -51q-21 -18 -35.5 -44t-23 -61t-12 -80.5t-3.5 -103.5v-997h-237l-863 1053v-619q0 -96 10.5 -157.5t32.5 -94.5t71 -56t134 -40v-82h-629v82q89 6 138.5 30t74 66t30 102t5.5 138v651q0 52 -14 95t-48 79q-19 22 -39.5 36.5t-43 24.5
t-47 16.5t-51.5 12.5v86h626l719 -876v440q0 122 -16 185q-15 63 -62 106q-38 30 -129 52l-43 11v82h635v-82z" />
    <glyph glyph-name="O" unicode="O" horiz-adv-x="1747" 
d="M1681 725q0 -223 -102 -402q-102 -178 -284 -271t-433 -93q-108 0 -209 22.5t-189.5 66t-161.5 106.5t-125.5 143.5t-81.5 178t-29 208.5q0 180 61.5 324.5t170 245t256.5 154.5t320 54q167 0 313.5 -51t256.5 -146.5t173.5 -232t63.5 -307.5zM1171 715q0 337 -74 490
q-73 153 -223 153q-148 0 -223.5 -165.5t-75.5 -490.5q0 -319 75 -480t224 -161q297 0 297 654z" />
    <glyph glyph-name="P" unicode="P" horiz-adv-x="1538" 
d="M1507 1063q0 -234 -179 -347.5t-546 -113.5h-57v-375q0 -29 8 -49t22 -34t35 -23.5t46 -17.5q65 -20 94 -21v-82h-881v82q63 5 118 15q28 6 47.5 14t31.5 20.5t17 31.5t5 46v987q0 27 -6.5 44.5t-19 29.5t-30.5 20t-42 16q-55 20 -115 31v82h834q317 0 467.5 -85.5
t150.5 -270.5zM1020 1010q0 79 -12 137.5t-43.5 97t-87.5 57.5t-144 19h-8v-621h4q86 0 142 17t89 54.5t46.5 96.5t13.5 142z" />
    <glyph glyph-name="Q" unicode="Q" horiz-adv-x="1747" 
d="M1681 725q0 -121 -31 -230t-91.5 -200t-149.5 -160t-205 -110q2 -49 16.5 -101.5t42.5 -96.5t70 -72.5t99 -28.5q78 0 170 26v-94q-51 -22 -107.5 -39.5t-114.5 -29.5t-116.5 -18.5t-114.5 -6.5q-90 0 -161 30t-121.5 83t-79 126t-33.5 160q-150 21 -277.5 84
t-219.5 157.5t-142.5 216.5t-48.5 263q0 180 61.5 324.5t170 245t256.5 154.5t320 54q167 0 313.5 -51t256.5 -146.5t173.5 -232t63.5 -307.5zM1171 715q0 337 -74 490q-73 153 -223 153q-148 0 -223.5 -165.5t-75.5 -490.5q0 -319 75 -480t224 -161q297 0 297 654z" />
    <glyph glyph-name="R" unicode="R" horiz-adv-x="1737" 
d="M1151 0q-118 201 -218 360t-183 279h-25v-418q0 -34 13.5 -59t54.5 -43q24 -14 58 -23t62 -14v-82h-864v82q28 2 56 5.5t56 8.5q28 6 48.5 14t33.5 21t19 32t6 46v985q0 48 -19 68q-9 11 -28.5 21.5t-46 20.5t-58.5 18.5t-67 14.5v82h893q146 0 253.5 -19.5t178 -61.5
t105 -107.5t34.5 -157.5q0 -84 -22 -143.5t-63 -102t-101 -71t-135 -51.5q12 -17 33 -47.5t46.5 -68t55 -80t59.5 -84t58.5 -79.5t52.5 -67q34 -41 57 -67t36 -39q26 -26 48 -42t44.5 -25t48.5 -14t61 -10v-82h-641zM1022 1040q0 146 -66.5 213.5t-218.5 67.5h-12v-586h37
q77 0 127.5 21t80 60.5t41 96t11.5 127.5z" />
    <glyph glyph-name="S" unicode="S" horiz-adv-x="1395" 
d="M1341 420q2 -99 -45 -185t-132 -149t-203 -98t-259 -33q-135 0 -250.5 25.5t-220.5 87.5l-88 -68h-86l-14 530h90q24 -49 54 -102.5t65.5 -105t77.5 -97.5t90.5 -81t103.5 -55.5t117 -20.5q51 0 100 13.5t88 41t62.5 69.5t23.5 99q0 72 -53 116q-52 45 -192 87
q-59 16 -140.5 42t-187.5 64q-63 24 -112 66t-82.5 95.5t-51.5 116t-18 128.5q-1 96 41 179.5t119 145t185 96.5t239 33q51 0 105 -6t107.5 -17.5t104.5 -29t96 -41.5l74 53h90l8 -491h-88q-20 44 -43 92.5t-51 96t-61 90.5t-73 75.5t-87.5 52t-104.5 19.5q-49 0 -93 -14
t-77.5 -41t-53 -67t-19.5 -93q0 -50 25 -85.5t62.5 -60t82 -40t84.5 -27.5q113 -32 190.5 -55.5t120.5 -39.5q138 -54 209 -158t71 -253z" />
    <glyph glyph-name="T" unicode="T" horiz-adv-x="1454" 
d="M1360 999q-8 21 -21.5 50.5t-31 63t-39 67t-44 61.5t-46.5 47.5t-48 24.5l-77 5l-80 3h-17v-1098q0 -51 22.5 -76.5t67.5 -39.5q8 -2 37 -8t80 -17v-82h-874v82l35 5q95 10 112 17q64 28 64 109v1108h-17l-80 -3l-79 -5q-23 -4 -46.5 -23.5t-46.5 -48t-44.5 -62.5
t-40 -67.5t-32.5 -63t-22 -49.5h-82v420h1434v-420h-84z" />
    <glyph glyph-name="U" unicode="U" horiz-adv-x="1776" 
d="M1782 1337q-140 -21 -180 -55q-46 -30 -61 -96q-15 -64 -15 -199v-467q0 -138 -44.5 -242.5t-124 -175.5t-190.5 -107t-243 -36q-337 0 -510.5 149t-173.5 445v649q0 71 -65 103q-34 19 -130 36v78h850v-78l-63 -10q-30 -4 -55 -10.5t-43.5 -19.5t-29 -34t-10.5 -55v-669
q2 -110 20 -191.5t59 -135t107.5 -80.5t166.5 -27q169 0 257.5 119.5t88.5 340.5v410q0 120 -15 184q-14 65 -59 109q-12 9 -35.5 18.5t-50 18.5t-52 16.5t-40.5 11.5v82h641v-82z" />
    <glyph glyph-name="V" unicode="V" horiz-adv-x="1655" 
d="M1696 1333q-26 -3 -55.5 -12.5t-58 -24t-53.5 -32.5t-42 -39q-14 -17 -31.5 -49t-39.5 -80q-21 -48 -64.5 -152t-109.5 -266l-284 -692h-284q-70 163 -144 339.5t-154 370.5q-64 153 -106 252.5t-63 147.5q-42 96 -68 128q-19 24 -44.5 43t-54.5 32.5t-59.5 23
t-60.5 14.5v82h893v-78q-52 -7 -87.5 -13.5t-58 -14t-32.5 -16t-10 -19.5q0 -31 16 -70q40 -108 126.5 -321.5t219.5 -532.5q100 251 162 410.5t85 229.5q24 71 38.5 117t19.5 68q11 46 11 70q0 19 -11.5 33t-37.5 24t-67 16.5t-100 10.5v86h609v-86z" />
    <glyph glyph-name="W" unicode="W" horiz-adv-x="2484" 
d="M2546 1333q-60 -4 -125 -41q-56 -29 -84 -85t-273 -734l-178 -487h-276l-367 1050l-313 -1050h-279l-140 375q-124 334 -198.5 530.5t-97.5 255.5q-37 95 -115 139q-18 14 -35 22.5t-34.5 14t-36.5 8.5t-41 6v82h883v-78q-49 -7 -82 -13t-53.5 -13.5t-29.5 -17t-9 -23.5
q0 -25 12 -66q42 -131 110 -326t164 -460l299 1012h293l369 -1035q44 118 85 236.5t80 238.5q29 88 48 152.5t29 108.5q20 89 20 118q0 32 -54 52t-182 28v86h611v-86z" />
    <glyph glyph-name="X" unicode="X" horiz-adv-x="1757" 
d="M754 0v82q200 8 200 61q0 28 -57.5 128.5t-169.5 279.5q-13 -15 -41.5 -46.5t-62.5 -71.5t-70.5 -84t-66.5 -83.5t-49 -70.5t-19 -45q0 -55 151 -68v-82h-565v82q53 4 85 18l26 11q63 24 116.5 73t110.5 109q51 47 188 200l138 148l-180 275q-44 68 -79 121t-61 91
q-63 93 -149 146t-199 63v82h1016v-82q-105 -4 -157 -17.5t-52 -43.5q0 -7 5 -29q3 -10 17.5 -39t40.5 -78t58.5 -102t70.5 -113q107 120 168 192q62 74 84 105q23 34 23 60t-32 40q-30 14 -126 25v82h570v-82q-100 -11 -183 -67q-85 -58 -281 -276l-159 -173
q106 -173 193.5 -306t156.5 -230q37 -53 72 -87t74.5 -55.5t87 -35t110.5 -25.5v-82h-1003z" />
    <glyph glyph-name="Y" unicode="Y" horiz-adv-x="1649" 
d="M1722 1337q-77 -9 -132.5 -40.5t-103.5 -90.5q-34 -40 -150 -207q-57 -83 -105.5 -155.5t-89.5 -136.5q-31 -48 -49 -84.5t-27 -72.5t-11.5 -77t-2.5 -98v-152q0 -33 8.5 -53.5t24 -33.5t38 -20.5t49.5 -14.5q31 -7 54 -12t39 -7v-82h-883v82q62 5 116 15q55 11 77 39.5
t22 76.5v184q0 36 -2 63t-7.5 51.5t-16 50t-28.5 59.5q-11 22 -47.5 86t-99.5 173t-106 180.5t-68 108.5q-24 37 -53.5 67.5t-65.5 52.5t-79.5 34.5t-96.5 13.5v82h959v-82l-62 -3q-58 -3 -94.5 -15.5t-36.5 -34.5q0 -62 309 -586q340 506 340 562q0 38 -43 55t-124 22v82
h548v-82z" />
    <glyph glyph-name="Z" unicode="Z" horiz-adv-x="1503" 
d="M1436 0h-1426v80l893 1239h-260q-187 0 -248 -41q-24 -26 -44 -51t-42.5 -59.5t-52 -83.5t-72.5 -121h-86l43 456h1315v-80l-895 -1239h332q75 0 129.5 2t89.5 6q72 9 91 40l14 22q48 69 95 152.5t95 183.5h76z" />
    <glyph glyph-name="bracketleft" unicode="[" horiz-adv-x="1018" 
d="M197 -309v1829h753v-107h-344v-1620h344v-102h-753z" />
    <glyph glyph-name="backslash" unicode="\" horiz-adv-x="971" 
d="M745 -424l-694 1948h219l686 -1948h-211z" />
    <glyph glyph-name="bracketright" unicode="]" horiz-adv-x="1018" 
d="M72 -309v102h340v1620h-340v107h751v-1829h-751z" />
    <glyph glyph-name="asciicircum" unicode="^" horiz-adv-x="1526" 
d="M1075 733l-311 508l-313 -508h-230l465 723h156l465 -723h-232z" />
    <glyph glyph-name="underscore" unicode="_" horiz-adv-x="1526" 
d="M-4 -313v133h1536v-133h-1536z" />
    <glyph glyph-name="grave" unicode="`" horiz-adv-x="1024" 
d="M702 1092l-158 72q-99 44 -166 75.5t-104 51.5t-63 38.5t-42 38.5t-23 42.5t-7 49.5q0 52 40.5 86.5t107.5 34.5q72 0 123 -35t102 -106q80 -114 231 -303z" />
    <glyph glyph-name="a" unicode="a" horiz-adv-x="1311" 
d="M1294 23q-24 -13 -60 -24t-75 -19t-76.5 -12.5t-64.5 -4.5q-67 0 -118.5 7t-89 23.5t-63.5 43t-42 65.5h-7q-40 -39 -77 -65t-76.5 -42t-85 -23t-103.5 -7q-57 0 -107 17t-87.5 49t-59.5 79t-22 107q0 106 50.5 176t170.5 113q30 11 84.5 29t133.5 42q139 41 179 60v108
q0 107 -25 151t-71 44q-59 0 -106 -31l11 -25q30 -63 30 -118q0 -79 -53 -113.5t-150 -34.5q-100 0 -154.5 42.5t-54.5 123.5q0 46 23.5 81t58.5 61t77.5 43t79.5 27q117 32 259 32q62 0 123 -3.5t117 -16t104 -35t83.5 -61t55.5 -94.5t20 -134l-2 -180l-8 -275
q0 -57 17 -85t52 -35t65 -7h44v-79zM696 541q-39 -22 -74 -41.5t-61 -46t-41.5 -65t-15.5 -97.5q0 -64 29 -101.5t71 -37.5q31 0 50.5 11t39.5 42z" />
    <glyph glyph-name="b" unicode="b" horiz-adv-x="1409" 
d="M1335 504q0 -126 -38.5 -226t-109.5 -169.5t-172.5 -106.5t-226.5 -37q-264 0 -403 127l-192 -141l-58 26q15 207 15 398v907q0 100 -89 138q-48 23 -84 24v76l584 28l19 -18v-647h6q82 78 155 109.5t148 31.5q118 0 202.5 -40.5t138.5 -111t79.5 -165.5t25.5 -203z
M872 471q0 371 -167 371q-36 0 -70.5 -18.5t-54.5 -43.5v-585q10 -70 42.5 -107t86.5 -37q79 0 121 107t42 313z" />
    <glyph glyph-name="c" unicode="c" horiz-adv-x="1178" 
d="M1157 268q-34 -73 -83.5 -129.5t-111 -95.5t-134 -59.5t-152.5 -20.5q-129 0 -239.5 31.5t-191.5 97.5t-127 167t-46 239q0 76 22 145t62 128t95.5 106.5t122.5 80.5q141 70 320 70q204 0 317 -70q115 -69 115 -188q0 -85 -47 -133.5t-147 -48.5q-105 0 -159 39.5
t-54 111.5q0 37 9.5 71.5t21.5 68.5l8 36q-15 27 -56 27q-78 0 -118.5 -105t-40.5 -302q-1 -91 17.5 -165t52.5 -126.5t81 -81t101 -27.5q42 0 78.5 9.5t70 31.5t65 57t62.5 86z" />
    <glyph glyph-name="d" unicode="d" horiz-adv-x="1464" 
d="M852 -10l-14 14v92l-9 2q-26 -28 -60.5 -52.5t-73.5 -42.5t-80 -28t-80 -10q-208 0 -336 149q-127 149 -127 398q0 69 16.5 133.5t48 121.5t77.5 105t106 83q116 69 245 69q159 0 271 -63v317q0 64 -51 110t-173 54v78l637 28l13 -18v-1297q0 -42 12 -68.5t43 -37.5
q38 -20 133 -27v-77zM836 762q-30 147 -134 147q-38 0 -65.5 -24t-46 -61.5t-29.5 -84.5t-17 -93t-7.5 -86.5t-1.5 -65.5q0 -359 174 -359q64 0 127 70v557z" />
    <glyph glyph-name="e" unicode="e" horiz-adv-x="1257" 
d="M1221 246q-43 -66 -99 -118.5t-123.5 -89t-144.5 -56t-162 -19.5q-148 0 -263 37.5t-194.5 107t-121 168.5t-41.5 222q-2 110 41.5 207.5t123 170t189.5 113.5t240 39q127 0 225 -29.5t165 -84.5t101.5 -134.5t34.5 -179.5v-65h-649q0 -84 12 -157.5t46 -128t94 -85.5
t157 -31q43 0 84.5 15t79 40t69.5 56.5t56 64.5zM748 625q0 182 -24 249q-23 68 -75 68q-55 0 -80.5 -80.5t-25.5 -243.5z" />
    <glyph glyph-name="f" unicode="f" horiz-adv-x="903" 
d="M1141 1343q0 -91 -53 -140.5t-146 -49.5q-58 0 -97 20.5t-71 70.5q-31 48 -94 214q-29 -27 -42 -103q-13 -74 -13 -253v-111h293v-114h-289v-678q0 -42 19.5 -61.5t51.5 -33.5q50 -15 134 -24v-80h-785v80q83 0 118.5 25t35.5 88v684h-209v114h209q8 135 55 239
t127.5 174.5t191.5 107t248 36.5q152 0 234 -54t82 -151z" />
    <glyph glyph-name="g" unicode="g" horiz-adv-x="1280" 
d="M1255 -61q0 -87 -44 -157.5t-127.5 -121t-205 -77.5t-276.5 -27q-289 0 -436.5 63t-147.5 191q0 75 79 117.5t239 45.5v13q-35 11 -72 30t-67.5 45.5t-50 61t-19.5 76.5q0 48 25 79.5t62.5 52t80.5 32.5t80 20v8q-57 20 -111 44.5t-97 60t-69 85t-26 117.5q0 148 146 237
q148 89 378 89q134 0 252 -33h416v-114h-207q78 -90 78 -191q0 -142 -137 -226q-137 -83 -359 -83h-172q-11 -8 -21 -25.5t-10 -29.5q0 -37 36 -54t175 -18q79 -2 156 -6.5t153 -10.5q144 -12 221.5 -88.5t77.5 -205.5zM731 690q0 125 -34 188.5t-97 63.5q-123 0 -123 -244
q0 -55 8.5 -100.5t24.5 -77.5t39 -49.5t53 -17.5q61 0 95 59.5t34 177.5zM862 -168q0 95 -74 115q-63 12 -170 12h-159q-47 -58 -47 -129q0 -47 19 -82t50 -58.5t71 -35.5t83 -12q112 0 169.5 45t57.5 145z" />
    <glyph glyph-name="h" unicode="h" horiz-adv-x="1493" 
d="M782 0v80q51 0 82 14q17 13 21 37t4 62v438q0 104 -28 149t-89 45q-42 0 -85.5 -28t-82.5 -80v-514q0 -37 7.5 -58.5t27.5 -40.5q27 -14 82 -24v-80h-696v80q81 0 117 24t36 89v1089q0 27 -9.5 56.5t-26.5 48.5q-9 11 -27 21t-39 18t-41.5 12.5t-34.5 5.5v76l590 28
l14 -18v-688h4l65 64q61 60 135.5 89t170.5 29q81 0 144.5 -24t107.5 -69t67 -109t23 -144v-477q2 -27 5 -46.5t16.5 -34t42 -24t81.5 -16.5v-80h-684z" />
    <glyph glyph-name="i" unicode="i" horiz-adv-x="813" 
d="M628 1330q0 -42 -19 -74t-49.5 -54t-68 -33t-75.5 -11q-39 0 -76.5 12t-67 34.5t-48 55.5t-18.5 75t18.5 75t48 56t67 35t76.5 12t77 -13t68 -36.5t48.5 -57.5t18.5 -76zM45 0v80q87 0 123.5 28t36.5 85v563q0 41 -22 70q-10 15 -29 28t-41.5 23t-45 16t-40.5 8v80
l587 27l17 -15v-788q0 -36 13.5 -58.5t35 -36t50 -20t58.5 -10.5v-80h-743z" />
    <glyph glyph-name="j" unicode="j" horiz-adv-x="786" 
d="M628 1330q0 -42 -19 -74t-49.5 -54t-68 -33t-75.5 -11q-39 0 -76.5 12t-67 34.5t-48 55.5t-18.5 75t18.5 75t48 56t67 35t76.5 12t77 -13t68 -36.5t48.5 -57.5t18.5 -76zM635 160q0 -171 -83 -314q-84 -144 -224.5 -217t-327.5 -73q-142 0 -221.5 54t-79.5 154
q0 87 54.5 138t150.5 51q61 0 99.5 -23t69.5 -75q17 -26 39.5 -77.5t51.5 -127.5q22 28 29 104q4 38 6 124t2 222v654q0 72 -59 107q-29 17 -55.5 26.5t-49.5 11.5v82l584 27l14 -15v-833z" />
    <glyph glyph-name="k" unicode="k" horiz-adv-x="1417" 
d="M885 0l-70 139q-38 78 -79 150t-85 141l-47 -31v-206q0 -72 44 -93q45 -20 91 -20v-80h-714v80q38 0 82 10q23 6 37 15t21.5 22t10 29.5t2.5 36.5v1091q0 39 -14.5 68.5t-39 49.5t-56.5 30.5t-68 11.5v76l590 28l14 -18v-1024q164 158 270 276q52 55 52 92q0 30 -127 48
v73h559v-71q-38 -9 -69.5 -18t-61 -20t-58.5 -25t-63 -34q-46 -26 -88 -55.5t-82 -64.5l358 -557q16 -26 53.5 -44t110.5 -26v-80h-573z" />
    <glyph glyph-name="l" unicode="l" horiz-adv-x="788" 
d="M33 0v80q75 0 111 23.5t36 89.5v1083q0 89 -59 121q-9 7 -23 15t-30.5 14.5t-34.5 11.5t-35 6v76l598 28l14 -18v-1325q0 -60 36 -88t114 -37v-80h-727z" />
    <glyph glyph-name="m" unicode="m" horiz-adv-x="2193" 
d="M1487 0v80q54 0 84 14q17 9 17.5 35t0.5 64v436q0 107 -26 151.5t-82 44.5q-24 0 -47 -9.5t-44 -24.5t-37.5 -34.5t-27.5 -39.5v-514q0 -37 4.5 -59t24.5 -38q35 -18 73 -26v-80h-639v80q56 0 89 14q15 13 15.5 37t0.5 62v436q0 107 -26 151.5t-83 44.5q-23 0 -46.5 -9
t-44.5 -24t-38 -34.5t-26 -40.5v-516q0 -37 6.5 -59t26.5 -38q30 -16 69 -24v-80h-684v80q84 0 120 26.5t36 86.5v559q0 40 -24 77t-62 52q-11 5 -32 10t-52 10v80l579 27l19 -15v-143h2l65 62q57 57 128 84.5t167 27.5q235 0 305 -186h15l62 67q110 119 298 119
q167 0 257.5 -89.5t90.5 -258.5v-477q0 -42 10 -63q11 -22 47.5 -37t84.5 -19v-80h-676z" />
    <glyph glyph-name="n" unicode="n" horiz-adv-x="1513" 
d="M805 0v80q14 0 27.5 1.5t27.5 3.5q28 6 38 25q11 20 11 83v438q0 54 -6.5 91t-20 60t-35.5 33t-52 10q-42 0 -87.5 -30t-78.5 -78v-514q0 -37 7.5 -60t27.5 -39q26 -14 79 -24v-80h-696v80q45 0 85 10q42 11 56.5 37t14.5 66v563q0 20 -7.5 40t-20.5 37t-30 30t-36 19
q-12 5 -31.5 9.5t-46.5 9.5v80l581 27l17 -15v-151h4q31 31 64.5 63.5t76.5 58.5t98.5 43t131.5 17q162 0 249.5 -90.5t87.5 -255.5v-477q0 -37 10.5 -60t41.5 -39q22 -8 46 -14t50 -8v-80h-684z" />
    <glyph glyph-name="o" unicode="o" horiz-adv-x="1403" 
d="M1329 500q2 -118 -43.5 -217.5t-129 -170.5t-202 -110t-264.5 -37q-121 0 -232.5 32.5t-196.5 98.5t-136 165.5t-51 234.5q-2 119 41.5 218t124.5 169.5t196 108.5t256 36q294 0 466 -143q171 -142 171 -385zM854 506q0 181 -15 263q-15 84 -48 128.5t-93 44.5
q-34 0 -57.5 -15t-38.5 -38t-24 -52t-15 -57q-14 -79 -14 -270q0 -106 3 -179t10 -115q14 -82 46 -123.5t90 -41.5q36 0 60 16.5t40 42t25.5 57t14.5 60.5q16 83 16 279z" />
    <glyph glyph-name="p" unicode="p" horiz-adv-x="1432" 
d="M1360 481q0 -106 -37.5 -198.5t-103.5 -161.5t-156.5 -108.5t-196.5 -39.5q-75 0 -135.5 15t-118.5 53h-8v-268q0 -37 17 -65t45 -42q30 -13 133 -26l39 -7v-77h-844v77l68 11q29 4 50.5 10.5t36 18.5t22 32t7.5 51v1008q-7 39 -19.5 61.5t-33 36t-51.5 22t-76 17.5v80
l594 27l14 -13v-110l8 -2q34 31 68.5 57t72 44.5t78.5 29t89 10.5q121 0 204.5 -44.5t135.5 -119.5t75 -173t23 -206zM897 481q0 361 -168 361q-34 0 -69.5 -15.5t-55.5 -44.5v-581q44 -125 135 -125q158 0 158 405z" />
    <glyph glyph-name="q" unicode="q" horiz-adv-x="1413" 
d="M639 -444v77q95 6 139 25q58 16 58 98v340l-9 2q-34 -30 -67 -53.5t-69 -39.5t-76 -24t-87 -8q-120 0 -206 42.5t-141.5 115t-82 170t-26.5 207.5q-2 114 39 209.5t116 164.5t179 106.5t227 35.5q255 0 430 -90l162 123l53 -15q-8 -129 -12 -205t-4 -102v-958
q0 -78 59 -111q60 -23 135 -33v-77h-817zM836 772q-17 79 -53.5 117.5t-84.5 38.5q-38 0 -64.5 -25t-44.5 -64.5t-29 -88.5t-16.5 -97t-7 -89.5t-1.5 -65.5q0 -353 167 -353q52 0 81.5 16t52.5 50v561z" />
    <glyph glyph-name="r" unicode="r" horiz-adv-x="1190" 
d="M1184 774q0 -46 -16.5 -88.5t-46 -74.5t-70 -51t-88.5 -19q-100 0 -157.5 47.5t-57.5 134.5q0 64 16 100q-61 -12 -135 -86v-530q0 -73 43 -98q5 -4 25.5 -9.5t45 -9.5t47 -7t31.5 -3v-80h-774v80q45 0 85 10q42 11 56.5 37t14.5 66v563q0 69 -62 110q-26 22 -110 35v80
l581 27l17 -15v-151h4q31 36 62.5 68.5t66.5 57t76.5 38.5t93.5 14q56 0 102 -17.5t79.5 -49.5t52 -77.5t18.5 -101.5z" />
    <glyph glyph-name="s" unicode="s" horiz-adv-x="1108" 
d="M1067 326q0 -70 -21.5 -124.5t-58 -95t-86 -69t-106 -46t-117 -25t-119.5 -7.5q-44 0 -91.5 7t-95 19t-93 29t-84.5 37l-37 -69h-80l-15 393h74q24 -63 65 -123t92 -106t108 -73.5t114 -25.5q79 0 114.5 29.5t35.5 101.5q0 48 -36 78.5t-117 55.5l-110 32
q-84 26 -142.5 60t-95.5 77t-54 95t-17 114q-2 72 32.5 133.5t97.5 106.5t150.5 70t190.5 24q47 0 89 -4.5t82.5 -12.5t81 -20.5t83.5 -28.5l21 64h77l17 -358h-74q-41 113 -131 190q-88 78 -172 78q-66 0 -104.5 -27t-38.5 -84q0 -60 47 -93q48 -32 211 -75
q313 -82 313 -327z" />
    <glyph glyph-name="t" unicode="t" horiz-adv-x="887" 
d="M887 47q-187 -78 -350 -78q-182 0 -272.5 84.5t-90.5 247.5v576h-182v114h186v301h424v-301h277v-114h-275v-512q0 -132 32 -185q32 -51 107 -51l77 3l67 5v-90z" />
    <glyph glyph-name="u" unicode="u" horiz-adv-x="1487" 
d="M901 -10l-16 14v135h-6q-38 -35 -73.5 -66.5t-78.5 -55.5t-98.5 -38t-132.5 -14q-82 0 -143 27t-100.5 75t-59 113.5t-19.5 143.5v436q0 68 -57 108q-12 12 -33 19q-11 4 -32 8t-52 8v78l594 27l10 -15v-653q0 -104 30 -147t89 -43q45 0 87.5 26.5t72.5 69.5v526
q0 66 -37.5 96t-122.5 35v78l575 27l13 -15v-764q0 -37 17.5 -63t48.5 -45q32 -18 110 -21v-77z" />
    <glyph glyph-name="v" unicode="v" horiz-adv-x="1233" 
d="M1264 915q-111 -13 -160 -118q-278 -608 -348 -805h-262l-187 421q-22 49 -67 147.5t-115 248.5q-23 48 -65 76t-93 35v75h729v-73q-60 -2 -95.5 -15.5t-35.5 -36.5q0 -9 17 -55q49 -121 99.5 -240.5t104.5 -238.5q8 18 25.5 57.5t38.5 89.5t43 105.5t40.5 105.5t30 89
t11.5 57q0 26 -43 47.5t-109 30.5v77h441v-80z" />
    <glyph glyph-name="w" unicode="w" horiz-adv-x="1901" 
d="M1911 918q-61 -13 -93.5 -39.5t-54.5 -73.5q-25 -58 -53 -127t-59 -150l-125 -317l-64 -170l-18 -51h-270l-238 655l-203 -655h-270q-88 229 -149 381.5t-95 233.5t-56 133t-33 77q-9 20 -25 38.5t-36.5 33t-43 23.5t-45.5 10v75h737v-73q-144 -22 -144 -56
q0 -10 12 -45.5t30.5 -84.5t40.5 -104.5t43 -106t37.5 -89.5t23.5 -55l194 627h269l241 -666q9 21 24.5 60t34 88t37.5 102t34.5 101t25.5 86t10 57q0 24 -34 43q-35 20 -128 39v77h443v-77z" />
    <glyph glyph-name="x" unicode="x" horiz-adv-x="1300" 
d="M545 0v80h17q21 0 39.5 2t32.5 5.5t22 8t8 10.5q0 13 -32 69q-16 28 -32.5 56t-33.5 57t-29.5 48.5t-20.5 30.5q-180 -202 -180 -246q0 -19 27.5 -30t78.5 -11v-80h-436v82q65 8 111 35t92 69l256 260q-16 24 -38.5 57.5t-47.5 71t-51.5 76.5t-51 75t-45 65.5t-34.5 48.5
q-20 27 -56 43q-33 17 -123 37v75h742v-75q-6 0 -22.5 -1.5t-34.5 -4.5t-32 -8t-14 -13q0 -9 8 -27.5t20 -41t27 -48t29 -49t26.5 -42t18.5 -28.5l119 136q45 59 45 81q0 44 -110 44v77h420v-77q-102 -20 -169 -87l-40 -38l-209 -213q4 -7 25.5 -41.5t63.5 -97.5
t76.5 -114.5t63.5 -93.5q58 -82 79 -102q48 -44 140 -51v-80h-745z" />
    <glyph glyph-name="y" unicode="y" horiz-adv-x="1241" 
d="M1272 918q-27 -6 -47 -13t-36.5 -18t-30.5 -27t-29 -39q-13 -20 -37 -67t-60 -122q-70 -148 -309 -663q-96 -204 -210 -308.5t-257 -104.5q-45 0 -84.5 15t-69.5 42t-47.5 65t-17.5 84q0 85 53.5 135t147.5 50q112 0 245 -154q69 69 105 152l-90 171q-93 180 -186 352
t-187 341q-59 98 -160 111v75h725v-73q-10 0 -31.5 -3.5t-43 -10.5t-38 -17.5t-16.5 -24.5q0 -13 11 -40q53 -112 112 -220.5t123 -214.5q9 20 25.5 56t36 79.5t39.5 91.5t36 92t26.5 80t10.5 56q0 13 -11.5 25t-32.5 21.5t-49.5 16t-62.5 9.5v77h447v-77z" />
    <glyph glyph-name="z" unicode="z" horiz-adv-x="1149" 
d="M35 0v82l565 815h-61q-214 0 -283 -29q-16 -7 -32.5 -35.5t-30.5 -63t-24.5 -67.5t-14.5 -49h-76v342h991v-75l-565 -824l151 -2q51 0 87.5 1.5t61.5 3.5q44 5 72.5 15.5t48 29t33 45.5t28.5 66q14 38 25 71.5t19 62.5h78v-389h-1073z" />
    <glyph glyph-name="braceleft" unicode="{" horiz-adv-x="1124" 
d="M1057 -334q-235 0 -357 21q-81 13 -144 40t-106 71.5t-65.5 109t-22.5 153.5q0 63 7.5 120t7.5 116q0 32 -4.5 60t-15.5 52.5t-31 44t-51 32.5q-26 11 -76.5 20t-126.5 14v166q62 3 117 9t97 27.5t66.5 64.5t24.5 120q0 59 -7.5 116t-7.5 120q0 87 20.5 150.5t61 108
t101 71.5t140.5 41q116 22 372 22v-88q-59 -5 -106.5 -17.5t-81.5 -39t-52 -71t-18 -112.5v-159q0 -49 -7.5 -94t-25 -84.5t-46.5 -74t-71 -61.5q-70 -45 -231 -78v-110q89 -18 160 -45t120 -71t75 -111t26 -166v-158q0 -68 18 -112t52 -70t81.5 -38t106.5 -16v-94z" />
    <glyph glyph-name="bar" unicode="|" horiz-adv-x="813" 
d="M305 -424v1948h203v-1948h-203z" />
    <glyph glyph-name="braceright" unicode="}" horiz-adv-x="1124" 
d="M1053 520q-149 -10 -202 -33q-52 -22 -76.5 -66.5t-24.5 -123.5q0 -60 6 -116.5t6 -119.5q0 -89 -22.5 -153.5t-65.5 -109t-106.5 -71.5t-144.5 -40q-121 -21 -351 -21v94q59 4 106.5 15.5t81.5 38t52 70t18 112.5v158q0 99 26.5 166t75 111.5t118 71t155.5 44.5v110
q-86 18 -155.5 44t-118 70.5t-75 111.5t-26.5 166v159q0 67 -18.5 111t-52.5 71.5t-81.5 40.5t-105.5 17v88q246 0 364 -21q80 -14 141 -41t102 -71.5t62 -108.5t21 -151q0 -63 -6 -119.5t-6 -116.5q0 -32 4 -61t15.5 -53.5t31.5 -43.5t52 -33q52 -22 200 -30v-166z" />
    <glyph glyph-name="asciitilde" unicode="~" horiz-adv-x="1526" 
d="M1368 750q-13 -40 -33 -83.5t-47 -84.5t-59.5 -78t-70 -64.5t-80.5 -44t-89 -16.5q-66 0 -130 24.5t-140 78.5q-43 29 -76 49t-57 31q-45 22 -88 22q-45 0 -79 -20.5t-60 -52.5t-45 -70.5t-35 -73.5l-121 49q20 61 55 126.5t83.5 120t109 90t131.5 35.5q69 0 134.5 -25
t138.5 -77q44 -31 76.5 -51t54.5 -31q46 -20 87 -20q45 0 78.5 20.5t60 51.5t46.5 69t36 72z" />
    <glyph glyph-name="exclamdown" unicode="&#xa1;" horiz-adv-x="834" 
d="M645 1229q0 -47 -19 -87.5t-51 -70.5t-73.5 -47.5t-87.5 -17.5t-88 17.5t-74 47.5t-51 70.5t-19 87.5t19 87.5t51 70t74 46.5t88 17t87.5 -17t73.5 -46.5t51 -70t19 -87.5zM655 197q0 -48 -20 -89t-54 -71t-77 -47t-90 -17t-90.5 16.5t-76.5 46.5t-53 71t-20 90
q0 38 11 80q12 40 53 142q40 100 75 227.5t64 285.5h78q56 -303 136 -514l34 -88q30 -79 30 -133z" />
    <glyph glyph-name="cent" unicode="&#xa2;" horiz-adv-x="1270" 
d="M1198 268q-27 -57 -67.5 -106t-90.5 -87t-109 -64t-124 -38v-272h-115v262q-129 1 -239 33t-190 97.5t-125.5 166t-45.5 238.5q0 75 21 142.5t59 125t91.5 104.5t118.5 81q139 73 310 77v248h115v-252q174 -18 266 -88q94 -69 94 -166q0 -85 -47 -133.5t-147 -48.5
q-110 0 -166 45v-498h29q42 0 78.5 9.5t70 31.5t65 57t62.5 86zM563 535q0 -260 129 -355v756q-63 -20 -96 -120.5t-33 -280.5z" />
    <glyph glyph-name="sterling" unicode="&#xa3;" horiz-adv-x="1470" 
d="M1335 336v-336h-1212v217q44 14 81.5 29t66 37.5t48 54.5t27.5 80q10 53 10 213h-211v127h211l-4 47q-7 70 -10.5 117t-3.5 71q-1 105 36 192t107 149t170 96t226 32q206 0 336 -78q130 -76 130 -196q0 -44 -15.5 -80t-43 -61.5t-65 -39.5t-80.5 -14q-108 0 -164.5 45.5
t-56.5 130.5q0 74 28 137l17 44q-31 12 -72 12q-48 0 -74 -60t-26 -174l10 -370h342v-127h-342q-18 -62 -37 -103.5t-45 -72.5t-63 -56t-91 -53v-10h770z" />
    <glyph glyph-name="currency" unicode="&#xa4;" horiz-adv-x="1520" 
d="M362 580q0 112 62 213l-266 266l131 125l260 -269q94 64 211 64q108 0 211 -64l262 269l131 -125l-268 -266q63 -102 63 -213q0 -112 -61 -209l266 -262l-131 -129l-264 264q-101 -62 -209 -62q-111 0 -209 62l-262 -264l-131 129l264 262q-60 96 -60 209zM559 580
q0 -44 14.5 -82.5t40.5 -67t63 -45t83 -16.5q45 0 82.5 16.5t64 45t41.5 67t15 82.5t-15 82.5t-41.5 67.5t-64 46t-82.5 17q-46 0 -83 -16.5t-63 -45.5t-40.5 -68t-14.5 -83z" />
    <glyph glyph-name="yen" unicode="&#xa5;" horiz-adv-x="1630" 
d="M1628 1337q-33 -4 -65.5 -22t-62.5 -43t-56 -53.5t-46 -53.5q-19 -25 -63.5 -94.5t-116.5 -185.5q-63 -101 -108.5 -173.5t-75.5 -117.5v-16h441v-132h-437v-223q0 -29 7 -48.5t20.5 -32.5t33.5 -21.5t46 -15.5q34 -9 58.5 -15t39.5 -8v-82h-854v82q122 9 166 38
q43 28 43 93v233h-438v132h440v8l-87 146q-102 176 -162 278.5t-80 134.5q-34 54 -73 97t-100 68q-55 23 -96 27v82h907v-82l-66 -3q-124 -6 -124 -50l-1 -19q0 -77 277 -522q11 17 36.5 57.5t57.5 92t66 109.5t62.5 109.5t46.5 91.5t18 57q0 38 -39.5 55t-124.5 22v82h510
v-82z" />
    <glyph glyph-name="brokenbar" unicode="&#xa6;" horiz-adv-x="813" 
d="M305 723v801h203v-801h-203zM305 -424v809h203v-809h-203z" />
    <glyph glyph-name="section" unicode="&#xa7;" horiz-adv-x="1243" 
d="M1122 649q0 -95 -62 -161.5t-202 -118.5q48 -18 86 -46t65 -62t41.5 -73.5t14.5 -81.5q2 -70 -35.5 -132.5t-106 -109t-164 -73t-208.5 -24.5q-95 0 -171 16.5t-128.5 45.5t-80.5 70t-28 89q0 63 39.5 102t108.5 39q55 0 92 -27t62.5 -68.5t42 -90.5t30.5 -93
q97 0 152 39.5t55 114.5q0 41 -15.5 70t-40.5 50.5t-57 37.5t-65 29l-146 59q-55 23 -105.5 50t-89.5 64t-62 86t-23 115q0 52 15.5 94.5t48.5 78t84.5 64t123.5 52.5q-221 96 -221 287q-2 65 36 123t107 100.5t163.5 67t205.5 22.5q94 0 168.5 -16.5t126.5 -45.5t80 -69
t28 -88q0 -69 -39 -108.5t-108 -39.5q-129 0 -192 192l-31 91h-17q-88 0 -139 -35t-51 -98q0 -44 15 -75.5t40 -54.5t58.5 -39.5t70.5 -31.5l133 -53q60 -24 114 -52.5t94 -67t63.5 -90.5t23.5 -124zM799 555q0 60 -23 94.5t-64.5 59.5t-97.5 47t-122 57q-43 -73 -43 -149
q0 -56 26.5 -92t69.5 -62.5t98 -47.5t113 -48q15 24 29 56t14 85z" />
    <glyph glyph-name="dieresis" unicode="&#xa8;" horiz-adv-x="1024" 
d="M971 1376q0 -38 -15.5 -71.5t-41.5 -58t-60 -38.5t-72 -14t-72.5 14t-60 38t-40.5 57.5t-15 72.5t15 72.5t40.5 58t60 38.5t72.5 14q37 0 71 -14.5t60.5 -39t42 -58t15.5 -71.5zM430 1376q0 -37 -15.5 -70.5t-41.5 -58t-60 -39t-71 -14.5q-38 0 -72 14t-60 38.5
t-41.5 57.5t-15.5 72t15.5 72t41.5 58t60 39t72 14q37 0 71 -14.5t60 -39t41.5 -58t15.5 -71.5z" />
    <glyph glyph-name="copyright" unicode="&#xa9;" horiz-adv-x="1929" 
d="M1849 604q0 -122 -31.5 -235t-89.5 -211.5t-138.5 -179t-178.5 -138.5t-210.5 -89.5t-233.5 -31.5q-123 0 -236.5 32t-212 89.5t-179.5 138.5t-138.5 179.5t-89 211.5t-31.5 234q0 122 32 235t90.5 211t140 178t180 137t211 88.5t233.5 31.5t233.5 -32t210.5 -89.5
t179 -138.5t138.5 -179t89 -210t31.5 -232zM1751 604q0 110 -27.5 211.5t-78.5 190t-122 160.5t-158 123.5t-187.5 79.5t-210.5 28q-111 0 -213 -28.5t-189.5 -80t-159 -124t-122 -160.5t-78 -189.5t-27.5 -210.5q0 -111 28 -214t78.5 -191.5t122 -161t159.5 -124.5
t189.5 -80t211.5 -28q112 0 213.5 29t188.5 81.5t157.5 125.5t120.5 162t77 190.5t27 210.5zM1405 365q-131 -248 -430 -248q-104 0 -196.5 33t-161.5 94.5t-109.5 149.5t-40.5 198q0 117 39 210.5t108.5 159t166 101t210.5 35.5q38 0 71 -3.5t64.5 -11t62.5 -19t66 -26.5
l27 41h72l2 -377h-78q-101 314 -246 314q-111 0 -167 -97.5t-56 -291.5q0 -199 54.5 -294t170.5 -95q54 0 96.5 10.5t78 32.5t65.5 54.5t59 76.5z" />
    <glyph glyph-name="ordfeminine" unicode="&#xaa;" horiz-adv-x="1163" 
d="M1118 651q-22 -12 -53.5 -21.5t-65.5 -16t-67 -10t-58 -3.5q-99 0 -155 24.5t-84 84.5h-6q-62 -59 -130.5 -83t-156.5 -24q-48 0 -90 13t-73.5 38.5t-49.5 64t-18 89.5q0 81 46.5 136.5t149.5 90.5l89 29q93 27 151 46t82 30v80q0 88 -18.5 127.5t-67.5 39.5
q-56 0 -86 -14l10 -27q16 -36 16 -96t-44 -89.5t-122 -29.5q-81 0 -124 33.5t-43 100.5q0 43 22 74.5t58 53t80.5 34.5t90.5 20t88 9.5t72 2.5q49 0 99 -2.5t96.5 -12t87.5 -27t71.5 -48t48 -75t17.5 -107.5l-4 -226l-4 -141q0 -61 29 -81q29 -19 116 -19v-68zM627 1055
q-37 -16 -68.5 -30.5t-54 -35.5t-35 -52.5t-12.5 -82.5q0 -57 25 -79.5t59 -22.5q55 0 86 43v260z" />
    <glyph glyph-name="guillemotleft" unicode="&#xab;" horiz-adv-x="1290" 
d="M649 80q-110 68 -180 112t-102 66t-68 49t-78 60q-48 36 -70 79.5t-22 112.5q0 32 4.5 58t15 48.5t28 42.5t42.5 40q116 89 238 166l192 122l51 -45l-276 -438l276 -428zM1137 80q-73 45 -130 80.5t-99 61.5t-91 62.5t-108 82.5q-24 18 -42 37.5t-29 42.5t-16.5 50.5
t-5.5 61.5t5 60.5t16 49t28.5 41.5t41.5 38q51 40 110 81.5t128 84.5l192 122l51 -45l-277 -438l277 -428z" />
    <glyph glyph-name="logicalnot" unicode="&#xac;" horiz-adv-x="1526" 
d="M1141 31v489h-963v191h1159v-680h-196z" />
    <glyph glyph-name="registered" unicode="&#xae;" horiz-adv-x="1929" 
d="M1849 604q0 -122 -31.5 -235t-89.5 -211.5t-138.5 -179t-178.5 -138.5t-210.5 -89.5t-233.5 -31.5q-123 0 -236.5 32t-212 89.5t-179.5 138.5t-138.5 179.5t-89 211.5t-31.5 234q0 122 32 235t90.5 211t140 178t180 137t211 88.5t233.5 31.5t233.5 -32t210.5 -89.5
t179 -138.5t138.5 -179t89 -210t31.5 -232zM1751 604q0 110 -27.5 211.5t-78.5 190t-122 160.5t-158 123.5t-187.5 79.5t-210.5 28q-111 0 -213 -28.5t-189.5 -80t-159 -124t-122 -160.5t-78 -189.5t-27.5 -210.5q0 -111 28 -214t78.5 -191.5t122 -161t159.5 -124.5
t189.5 -80t211.5 -28q112 0 213.5 29t188.5 81.5t157.5 125.5t120.5 162t77 190.5t27 210.5zM1182 145q-63 102 -102.5 166t-58.5 92q-18 28 -47 69.5t-69 96.5h-8v-272q0 -22 8.5 -38t23 -27.5t33 -18.5t37.5 -10v-58h-510v58q69 7 97 25.5t28 62.5v629q0 23 -8 39t-37 28
q-28 12 -48 19.5t-32 11.5v57h531q103 0 177 -13t121.5 -40.5t70 -69t22.5 -98.5q0 -95 -58 -151.5t-161 -88.5l30 -42q38 -58 89 -126.5t115 -148.5q50 -64 96 -82l61 -12v-58h-401zM1104 838q0 92 -49.5 131t-155.5 39h-2v-377h18q102 0 145.5 49t43.5 158z" />
    <glyph glyph-name="macron" unicode="&#xaf;" horiz-adv-x="1317" 
d="M-4 1604v100h1327v-100h-1327z" />
    <glyph glyph-name="degree" unicode="&#xb0;" horiz-adv-x="862" 
d="M784 1128q0 -77 -28 -138.5t-76 -104t-113 -65.5t-139 -23t-138.5 23t-112.5 65.5t-75.5 104t-27.5 138.5t27 139.5t75 106.5t112.5 68t139.5 24t140 -24t113 -68t75.5 -106.5t27.5 -139.5zM586 1120q0 120 -41.5 181t-116.5 61q-70 0 -111 -60.5t-41 -166.5
q0 -114 39 -177t117 -63q42 0 71.5 22t47.5 56t26.5 73.5t8.5 73.5z" />
    <glyph glyph-name="plusminus" unicode="&#xb1;" horiz-adv-x="1526" 
d="M174 0v190h492v390h-492v190h492v487h192v-487h494v-190h-494v-390h494v-190h-1178z" />
    <glyph glyph-name="twosuperior" unicode="&#xb2;" horiz-adv-x="1163" 
d="M143 489v183l72 50q251 170 328 262q78 93 78 204q0 44 -12 79.5t-31.5 60t-44 37.5t-50.5 13q-39 0 -57 -8q37 -75 37 -141q0 -30 -12 -55t-33 -42.5t-51 -27.5t-66 -10q-63 0 -104 36t-41 111q-1 45 27 85t79.5 69.5t123.5 46.5t159 16q209 0 319.5 -72t110.5 -204
q0 -103 -49 -170t-137 -112q-67 -34 -240 -86l-160 -52v-8h631v-265h-877z" />
    <glyph glyph-name="threesuperior" unicode="&#xb3;" horiz-adv-x="1163" 
d="M1016 758q2 -69 -35.5 -126t-102.5 -97.5t-152.5 -62.5t-184.5 -21q-191 0 -303 64q-113 65 -113 171q0 33 11 61t31.5 49t49 32.5t62.5 11.5q72 0 113.5 -40t41.5 -104q0 -24 -2 -43t-6.5 -37t-11.5 -36t-17 -39q32 -9 76 -9q100 0 148.5 55t48.5 158q0 97 -39 141
t-121 44h-76v92h51q82 0 120 49.5t38 155.5q0 33 -10.5 60.5t-28.5 47t-42.5 30.5t-51.5 11q-40 0 -61 -10l14 -32q24 -48 24 -113q0 -70 -39 -105t-108 -35q-33 0 -61 12t-48.5 33t-31.5 49.5t-11 61.5q0 61 50 111q51 51 141 80.5t199 29.5q94 0 166.5 -16.5t121.5 -46.5
t74 -71.5t25 -90.5q0 -191 -265 -234v-14q52 -1 107.5 -13.5t102 -39t76.5 -69.5t30 -105z" />
    <glyph glyph-name="acute" unicode="&#xb4;" horiz-adv-x="1024" 
d="M281 1137q152 189 231 303q51 71 102 106t123 35q69 0 108.5 -34.5t39.5 -86.5q0 -33 -11.5 -58.5t-30 -45.5t-43.5 -36t-52 -30q-75 -40 -267 -126l-159 -72z" />
    <glyph glyph-name="uni00B5" unicode="&#xb5;" horiz-adv-x="1473" 
d="M1454 23q-25 -13 -61 -24t-75 -19.5t-76.5 -13.5t-65.5 -5q-259 0 -297 174h-7q-52 -92 -111.5 -132t-131.5 -40q-91 0 -180 68h-13v-8q0 -22 42 -126t42 -155q0 -46 -17.5 -81t-47 -58t-68.5 -35t-82 -12q-97 0 -153 53t-56 147q0 67 29 154q43 129 43 242v843h422v-647
q0 -111 26 -152q27 -40 97 -40q101 0 153 90v749h424v-772q0 -65 36.5 -94t127.5 -29v-77z" />
    <glyph glyph-name="paragraph" unicode="&#xb6;" horiz-adv-x="1194" 
d="M1128 1329h-110v-1544h-137v1544h-170v-1544h-138v788q-100 0 -190 24.5t-158 76.5t-107.5 131.5t-39.5 189.5q-1 88 31.5 165.5t92 135.5t142 91.5t180.5 31.5h604v-90z" />
    <glyph glyph-name="periodcentered" unicode="&#xb7;" horiz-adv-x="776" 
d="M628 537q0 -48 -19.5 -91t-52 -75.5t-76 -51t-91.5 -18.5q-49 0 -93 18t-77 49.5t-52.5 75t-19.5 93.5t19.5 93.5t52.5 76t77 51t93 18.5t92.5 -19t76 -51.5t51.5 -76t19 -92.5z" />
    <glyph glyph-name="cedilla" unicode="&#xb8;" horiz-adv-x="1024" 
d="M741 -254q0 -44 -13.5 -74t-37.5 -49.5t-57 -31t-72 -18.5q-48 -8 -121.5 -12.5t-173.5 -4.5v82q149 0 180 6q32 6 49 21t17 46q0 34 -29 46t-92 12v247h90v-110q133 0 196.5 -42.5t63.5 -117.5z" />
    <glyph glyph-name="onesuperior" unicode="&#xb9;" horiz-adv-x="1163" 
d="M268 489v72q32 4 64.5 10.5t64.5 14.5q23 5 38.5 26t15.5 50v550h-187v88h25q61 0 119 13t109 49q37 26 79 90h176q-6 -126 -6 -219v-563q0 -60 47 -78q7 -4 24 -9t37 -9.5t38 -8t26 -4.5v-72h-670z" />
    <glyph glyph-name="ordmasculine" unicode="&#xba;" horiz-adv-x="1159" 
d="M1092 1034q1 -96 -35.5 -175.5t-104.5 -136t-164 -87.5t-215 -29q-102 0 -193.5 25.5t-160.5 78.5t-110 134t-41 192t41.5 191t111 131.5t161.5 75.5t193 24t194.5 -24t165 -75t114.5 -131.5t43 -193.5zM702 1040q0 144 -12 208q-12 66 -38 100t-72 34q-27 0 -45.5 -11
t-31 -28t-20.5 -39t-13 -45q-11 -58 -11 -215q0 -83 3 -140.5t8 -89.5q11 -64 36.5 -97t73.5 -33q29 0 48.5 12t32 31t19 43t10.5 48q12 68 12 222z" />
    <glyph glyph-name="guillemotright" unicode="&#xbb;" horiz-adv-x="1290" 
d="M590 125l276 428l-276 438l51 45l111 -71q83 -52 163.5 -105.5t157.5 -113.5q24 -19 41 -38t27.5 -40.5t15 -48t4.5 -60.5q0 -68 -22 -112t-70 -80q-51 -40 -91 -69.5t-69 -49.5q-29 -19 -95.5 -60.5t-172.5 -107.5zM102 125l277 428l-277 438l52 45l111 -71
q57 -35 97 -61t65 -43t64 -45t93 -68q24 -18 41 -37t28 -41.5t16 -49t5 -61.5q0 -34 -5 -61.5t-16.5 -50.5t-29 -42.5t-41.5 -37.5q-51 -40 -95.5 -72.5t-82.5 -57.5t-100 -64t-150 -93z" />
    <glyph glyph-name="onequarter" unicode="&#xbc;" horiz-adv-x="2224" 
d="M141 489v72q32 4 64.5 10.5t64.5 14.5q23 5 38.5 26t15.5 50v550h-187v88h25q61 0 119 13t109 49q37 26 79 90h176q-6 -126 -6 -219v-563q0 -60 47 -78q7 -4 24 -9t37 -9.5t38 -8t26 -4.5v-72h-670zM1651 1436l-873 -1436h-170l871 1436h172zM2126 240h-176v-258h-281
v258h-460v145l473 584h268v-559h176v-170zM1669 410v401l-323 -401h323z" />
    <glyph glyph-name="onehalf" unicode="&#xbd;" horiz-adv-x="2224" 
d="M141 489v72q32 4 64.5 10.5t64.5 14.5q23 5 38.5 26t15.5 50v550h-187v88h25q61 0 119 13t109 49q37 26 79 90h176q-6 -126 -6 -219v-563q0 -60 47 -78q7 -4 24 -9t37 -9.5t38 -8t26 -4.5v-72h-670zM1592 1436l-873 -1436h-170l871 1436h172zM1269 2v183l72 50
q251 170 328 262q78 93 78 204q0 44 -12 79.5t-31.5 60t-44 37.5t-50.5 13q-39 0 -57 -8q37 -75 37 -141q0 -30 -12 -55t-33 -42.5t-51 -27.5t-66 -10q-63 0 -104 36t-41 111q-1 45 27 85t79.5 69.5t123.5 46.5t159 16q209 0 319.5 -72t110.5 -204q0 -103 -49 -170
t-137 -112q-67 -34 -240 -86l-160 -52v-8h631v-265h-877z" />
    <glyph glyph-name="threequarters" unicode="&#xbe;" horiz-adv-x="2224" 
d="M985 758q2 -69 -35.5 -126t-102.5 -97.5t-152.5 -62.5t-184.5 -21q-191 0 -303 64q-113 65 -113 171q0 33 11 61t31.5 49t49 32.5t62.5 11.5q72 0 113.5 -40t41.5 -104q0 -24 -2 -43t-6.5 -37t-11.5 -36t-17 -39q32 -9 76 -9q100 0 148.5 55t48.5 158q0 97 -39 141
t-121 44h-76v92h51q82 0 120 49.5t38 155.5q0 33 -10.5 60.5t-28.5 47t-42.5 30.5t-51.5 11q-40 0 -61 -10l14 -32q24 -48 24 -113q0 -70 -39 -105t-108 -35q-33 0 -61 12t-48.5 33t-31.5 49.5t-11 61.5q0 61 50 111q51 51 141 80.5t199 29.5q94 0 166.5 -16.5t121.5 -46.5
t74 -71.5t25 -90.5q0 -191 -265 -234v-14q52 -1 107.5 -13.5t102 -39t76.5 -69.5t30 -105zM1712 1436l-873 -1436h-170l871 1436h172zM2140 240h-176v-258h-281v258h-460v145l473 584h268v-559h176v-170zM1683 410v401l-323 -401h323z" />
    <glyph glyph-name="questiondown" unicode="&#xbf;" horiz-adv-x="1221" 
d="M946 1237q0 -48 -19.5 -88.5t-52 -70.5t-75 -47t-88.5 -17t-87 17.5t-72.5 48t-50 71t-18.5 86.5t19 86t50.5 69.5t72.5 46.5t86 17t87.5 -16.5t75.5 -45.5t52.5 -69.5t19.5 -87.5zM1163 274q0 -133 -149 -219t-371 -86q-113 -1 -210.5 27.5t-168.5 82.5t-110.5 131.5
t-38.5 174.5q0 120 45 208t121 148t175.5 92t207.5 39l12 78h84v-395q-139 -17 -212 -97.5t-73 -209.5q0 -40 14 -75.5t38.5 -62t59 -42t75.5 -15.5q73 0 139 33q-16 43 -26 73.5t-14 47.5q-7 34 -7 82q0 182 204 182q44 0 81.5 -14t65 -40t43 -62t15.5 -81z" />
    <glyph glyph-name="Agrave" unicode="&#xc0;" horiz-adv-x="1634" 
d="M938 1527q-59 30 -108.5 53t-92 42t-79 36t-69.5 35q-32 22 -55 56.5t-16 79.5q2 17 11.5 35.5t25.5 34t39.5 26t53.5 10.5q28 0 58 -14t56 -42q69 -76 135 -150t132 -147zM799 0v82q6 1 24.5 3t42 5.5t49.5 8.5t47.5 11t35.5 13.5t14 15.5q0 20 -19 70l-92 254h-479
q-9 -23 -23.5 -64.5t-29 -86t-25 -85t-10.5 -63.5q0 -27 43 -46t172 -36v-82h-615v82q51 3 92.5 13t75 30.5t59.5 53t46 81.5q115 274 232 570.5t251 609.5h287q112 -274 194.5 -480.5t137.5 -350.5q38 -100 76.5 -199t80.5 -199q14 -26 34 -49t61 -43q32 -20 68.5 -26
t70.5 -11v-82h-901zM659 1077l-198 -508h395z" />
    <glyph glyph-name="Aacute" unicode="&#xc1;" horiz-adv-x="1634" 
d="M642 1582q66 73 132 147t135 150q26 28 56 42t58 14q30 0 53.5 -10.5t39.5 -26t25.5 -34t11.5 -35.5q7 -45 -16 -79.5t-55 -56.5q-33 -18 -69.5 -35t-79 -36t-92 -42t-108.5 -53zM799 0v82q6 1 24.5 3t42 5.5t49.5 8.5t47.5 11t35.5 13.5t14 15.5q0 20 -19 70l-92 254
h-479q-9 -23 -23.5 -64.5t-29 -86t-25 -85t-10.5 -63.5q0 -27 43 -46t172 -36v-82h-615v82q51 3 92.5 13t75 30.5t59.5 53t46 81.5q115 274 232 570.5t251 609.5h287q112 -274 194.5 -480.5t137.5 -350.5q38 -100 76.5 -199t80.5 -199q14 -26 34 -49t61 -43q32 -20 68.5 -26
t70.5 -11v-82h-901zM659 1077l-198 -508h395z" />
    <glyph glyph-name="Acircumflex" unicode="&#xc2;" horiz-adv-x="1634" 
d="M459 1552l231 295q47 62 134 62q88 0 135 -62l231 -295l-106 -44l-260 176l-259 -176zM799 0v82q6 1 24.5 3t42 5.5t49.5 8.5t47.5 11t35.5 13.5t14 15.5q0 20 -19 70l-92 254h-479q-9 -23 -23.5 -64.5t-29 -86t-25 -85t-10.5 -63.5q0 -27 43 -46t172 -36v-82h-615v82
q51 3 92.5 13t75 30.5t59.5 53t46 81.5q115 274 232 570.5t251 609.5h287q112 -274 194.5 -480.5t137.5 -350.5q38 -100 76.5 -199t80.5 -199q14 -26 34 -49t61 -43q32 -20 68.5 -26t70.5 -11v-82h-901zM659 1077l-198 -508h395z" />
    <glyph glyph-name="Atilde" unicode="&#xc3;" horiz-adv-x="1634" 
d="M1209 1791q-16 -43 -42.5 -84t-61 -73t-76.5 -52t-89 -22q-39 -2 -78 6t-73 28q-13 8 -27.5 16t-28.5 15.5t-26 12.5t-20 5q-27 2 -47.5 -5t-36.5 -20t-29 -31.5t-25 -38.5l-111 49q25 62 54.5 105.5t63 71.5t70.5 41t76 14q37 1 80 -8.5t79 -26.5q34 -16 64 -32t48 -16
q28 0 47 5.5t32.5 17.5t24 29.5t22.5 41.5zM799 0v82q6 1 24.5 3t42 5.5t49.5 8.5t47.5 11t35.5 13.5t14 15.5q0 20 -19 70l-92 254h-479q-9 -23 -23.5 -64.5t-29 -86t-25 -85t-10.5 -63.5q0 -27 43 -46t172 -36v-82h-615v82q51 3 92.5 13t75 30.5t59.5 53t46 81.5
q115 274 232 570.5t251 609.5h287q112 -274 194.5 -480.5t137.5 -350.5q38 -100 76.5 -199t80.5 -199q14 -26 34 -49t61 -43q32 -20 68.5 -26t70.5 -11v-82h-901zM659 1077l-198 -508h395z" />
    <glyph glyph-name="Adieresis" unicode="&#xc4;" horiz-adv-x="1634" 
d="M1333 1692q0 -37 -16 -69.5t-42 -56.5t-60 -38t-70 -14q-37 0 -71 13.5t-60.5 37t-42 56t-15.5 71.5t15.5 72t41.5 57t60.5 37.5t71.5 13.5q36 0 70 -14t60.5 -38.5t42 -57.5t15.5 -70zM768 1692q0 -37 -16 -69.5t-42 -56.5t-60.5 -38t-70.5 -14q-37 0 -71.5 13.5t-60 37
t-41 56t-15.5 71.5q0 38 15.5 71t41 57t60 38t71.5 14q36 0 70 -14t60.5 -38.5t42.5 -57.5t16 -70zM799 0v82q6 1 24.5 3t42 5.5t49.5 8.5t47.5 11t35.5 13.5t14 15.5q0 20 -19 70l-92 254h-479q-9 -23 -23.5 -64.5t-29 -86t-25 -85t-10.5 -63.5q0 -27 43 -46t172 -36v-82
h-615v82q51 3 92.5 13t75 30.5t59.5 53t46 81.5q115 274 232 570.5t251 609.5h287q112 -274 194.5 -480.5t137.5 -350.5q38 -100 76.5 -199t80.5 -199q14 -26 34 -49t61 -43q32 -20 68.5 -26t70.5 -11v-82h-901zM659 1077l-198 -508h395z" />
    <glyph glyph-name="Aring" unicode="&#xc5;" horiz-adv-x="1634" 
d="M799 0v82q6 1 24.5 3t42 5.5t49.5 8.5t47.5 11t35.5 13.5t14 15.5q0 20 -19 70l-92 254h-479q-9 -23 -23.5 -64.5t-29 -86t-25 -85t-10.5 -63.5q0 -27 43 -46t172 -36v-82h-615v82q51 3 92.5 13t75 30.5t59.5 53t46 81.5q112 268 227 557t244 594q-75 29 -115.5 85
t-40.5 134q0 61 26.5 105.5t69.5 74t96 44t107 14.5q55 0 109.5 -13.5t97.5 -42.5t69.5 -74t26.5 -108q0 -72 -35 -127.5t-104 -87.5q185 -451 324 -810q45 -115 83.5 -213.5t73.5 -180.5q14 -26 34 -49t61 -43q32 -20 68.5 -26t70.5 -11v-82h-901zM954 1626q0 78 -36.5 123
t-96.5 45q-63 0 -97 -43.5t-34 -124.5q0 -75 32.5 -120.5t98.5 -45.5t99.5 44t33.5 122zM659 1077l-198 -508h395z" />
    <glyph glyph-name="AE" unicode="&#xc6;" horiz-adv-x="2249" 
d="M2171 0h-1366v82q60 4 101 12.5t64 21.5q46 25 46 93v377h-484q-49 -87 -153 -291q-57 -111 -57 -145q0 -21 43 -36.5t110 -23.5l55 -8v-82h-614v82q46 5 83 14t68.5 25t59.5 41t55 62q26 33 171 285q74 128 186 327t264 475q-42 8 -86.5 14.5t-93.5 11.5v82h1482v-377
h-80q-15 35 -41.5 77t-60 80t-72 68t-77.5 42q-47 14 -138 14h-168v-541h70q113 0 184 64q14 11 29.5 36t28.5 53.5t22.5 56.5t12.5 46h75v-616h-75q-4 19 -14 48t-22.5 59t-27.5 56t-29 38q-59 65 -184 65h-70v-399q0 -82 13 -121q9 -27 24.5 -41.5t35.5 -21.5t43 -8t48 -1
q233 0 287 54q26 26 55.5 65t57.5 82t53 85.5t41 76.5h72zM1016 1327h-76l-350 -641h426v641z" />
    <glyph glyph-name="Ccedilla" unicode="&#xc7;" horiz-adv-x="1528" 
d="M1501 354q-78 -139 -168 -222q-91 -81 -209.5 -128t-269.5 -47h-29v-51q133 0 196.5 -42.5t63.5 -117.5q0 -44 -13.5 -74t-37.5 -49.5t-57 -31t-72 -18.5q-48 -8 -121.5 -12.5t-173.5 -4.5v82q149 0 180 6q32 6 49 21t17 46q0 34 -29 46t-92 12v194q-152 17 -275.5 77
t-210.5 155.5t-134 222.5t-47 278q0 179 63.5 320.5t173.5 240t258 151t316 52.5q97 0 197.5 -22.5t187.5 -65.5l73 47h88l11 -526h-90q-27 80 -63.5 162.5t-89 149.5t-124.5 109t-170 42q-165 0 -244.5 -151.5t-79.5 -463.5q0 -157 21 -274t67 -194t119 -115.5t176 -38.5
q78 0 142 24t118 65t100.5 95t88.5 113z" />
    <glyph glyph-name="Egrave" unicode="&#xc8;" horiz-adv-x="1534" 
d="M918 1527q-59 30 -108.5 53t-92 42t-79 36t-69.5 35q-32 22 -55 56.5t-16 79.5q2 17 11.5 35.5t25.5 34t39.5 26t53.5 10.5q28 0 58 -14t56 -42q69 -76 135 -150t132 -147zM1456 0h-1399v82l36 3q95 9 135 34t40 90v989q0 34 -13 59.5t-54 45.5q-28 10 -63.5 18.5
t-80.5 15.5v82h1329v-377h-77q-15 38 -42.5 81t-63 81t-75.5 67.5t-81 39.5q-46 12 -173 12h-149v-541h94q118 0 189 64q12 11 26 36t27 54.5t22 57.5t11 44h77v-616h-77q-3 16 -12.5 45.5t-22 60t-26.5 57.5t-25 38q-71 65 -189 65h-94v-399q0 -60 7.5 -97.5t27.5 -59
t55.5 -29t91.5 -7.5q235 0 295 54q25 27 54.5 66t58 81.5t53 85t39.5 76.5h76z" />
    <glyph glyph-name="Eacute" unicode="&#xc9;" horiz-adv-x="1534" 
d="M642 1582q66 73 132 147t135 150q26 28 56 42t58 14q30 0 53.5 -10.5t39.5 -26t25.5 -34t11.5 -35.5q7 -45 -16 -79.5t-55 -56.5q-33 -18 -69.5 -35t-79 -36t-92 -42t-108.5 -53zM1456 0h-1399v82l36 3q95 9 135 34t40 90v989q0 34 -13 59.5t-54 45.5q-28 10 -63.5 18.5
t-80.5 15.5v82h1329v-377h-77q-15 38 -42.5 81t-63 81t-75.5 67.5t-81 39.5q-46 12 -173 12h-149v-541h94q118 0 189 64q12 11 26 36t27 54.5t22 57.5t11 44h77v-616h-77q-3 16 -12.5 45.5t-22 60t-26.5 57.5t-25 38q-71 65 -189 65h-94v-399q0 -60 7.5 -97.5t27.5 -59
t55.5 -29t91.5 -7.5q235 0 295 54q25 27 54.5 66t58 81.5t53 85t39.5 76.5h76z" />
    <glyph glyph-name="Ecircumflex" unicode="&#xca;" horiz-adv-x="1534" 
d="M456 1552l231 295q47 62 134 62q88 0 135 -62l231 -295l-106 -44l-260 176l-259 -176zM1456 0h-1399v82l36 3q95 9 135 34t40 90v989q0 34 -13 59.5t-54 45.5q-28 10 -63.5 18.5t-80.5 15.5v82h1329v-377h-77q-15 38 -42.5 81t-63 81t-75.5 67.5t-81 39.5q-46 12 -173 12
h-149v-541h94q118 0 189 64q12 11 26 36t27 54.5t22 57.5t11 44h77v-616h-77q-3 16 -12.5 45.5t-22 60t-26.5 57.5t-25 38q-71 65 -189 65h-94v-399q0 -60 7.5 -97.5t27.5 -59t55.5 -29t91.5 -7.5q235 0 295 54q25 27 54.5 66t58 81.5t53 85t39.5 76.5h76z" />
    <glyph glyph-name="Edieresis" unicode="&#xcb;" horiz-adv-x="1534" 
d="M1253 1698q0 -37 -16 -69.5t-42 -56.5t-60 -38t-70 -14q-37 0 -71 13.5t-60.5 37t-42 56t-15.5 71.5t15.5 72t41.5 57t60.5 37.5t71.5 13.5q36 0 70 -14t60.5 -38.5t42 -57.5t15.5 -70zM688 1698q0 -37 -16 -69.5t-42 -56.5t-60.5 -38t-70.5 -14q-37 0 -71.5 13.5t-60 37
t-41 56t-15.5 71.5q0 38 15.5 71t41 57t60 38t71.5 14q36 0 70 -14t60.5 -38.5t42.5 -57.5t16 -70zM1456 0h-1399v82l36 3q95 9 135 34t40 90v989q0 34 -13 59.5t-54 45.5q-28 10 -63.5 18.5t-80.5 15.5v82h1329v-377h-77q-15 38 -42.5 81t-63 81t-75.5 67.5t-81 39.5
q-46 12 -173 12h-149v-541h94q118 0 189 64q12 11 26 36t27 54.5t22 57.5t11 44h77v-616h-77q-3 16 -12.5 45.5t-22 60t-26.5 57.5t-25 38q-71 65 -189 65h-94v-399q0 -60 7.5 -97.5t27.5 -59t55.5 -29t91.5 -7.5q235 0 295 54q25 27 54.5 66t58 81.5t53 85t39.5 76.5h76z
" />
    <glyph glyph-name="Igrave" unicode="&#xcc;" horiz-adv-x="993" 
d="M618 1527q-59 30 -108.5 53t-92 42t-79 36t-69.5 35q-32 22 -55 56.5t-16 79.5q2 17 11.5 35.5t25.5 34t39.5 26t53.5 10.5q28 0 58 -14t56 -42q69 -76 135 -150t132 -147zM51 0v82q135 11 154 20q40 14 51.5 41t11.5 64v991q0 71 -63 105q-10 4 -30 9t-51 11t-49 9.5
t-24 4.5v82h891v-82l-34 -4q-45 -6 -74.5 -11t-45.5 -9q-41 -16 -52 -43.5t-11 -61.5v-993q0 -76 63 -102q18 -12 154 -31v-82h-891z" />
    <glyph glyph-name="Iacute" unicode="&#xcd;" horiz-adv-x="993" 
d="M312 1582q66 73 132 147t135 150q26 28 56 42t58 14q30 0 53.5 -10.5t39.5 -26t25.5 -34t11.5 -35.5q7 -45 -16 -79.5t-55 -56.5q-33 -18 -69.5 -35t-79 -36t-92 -42t-108.5 -53zM51 0v82q135 11 154 20q40 14 51.5 41t11.5 64v991q0 71 -63 105q-10 4 -30 9t-51 11
t-49 9.5t-24 4.5v82h891v-82l-34 -4q-45 -6 -74.5 -11t-45.5 -9q-41 -16 -52 -43.5t-11 -61.5v-993q0 -76 63 -102q18 -12 154 -31v-82h-891z" />
    <glyph glyph-name="Icircumflex" unicode="&#xce;" horiz-adv-x="993" 
d="M848 1509l-348 177l-348 -177l-43 39q27 35 46.5 60.5t35.5 45.5t29.5 37t29 35t34 39.5t44.5 49.5q34 36 74.5 49.5t97.5 13.5q32 0 56.5 -3t44 -9.5t36 -18t31.5 -28.5q78 -84 106 -118q14 -17 44.5 -55t76.5 -98zM51 0v82q135 11 154 20q40 14 51.5 41t11.5 64v991
q0 71 -63 105q-10 4 -30 9t-51 11t-49 9.5t-24 4.5v82h891v-82l-34 -4q-45 -6 -74.5 -11t-45.5 -9q-41 -16 -52 -43.5t-11 -61.5v-993q0 -76 63 -102q18 -12 154 -31v-82h-891z" />
    <glyph glyph-name="Idieresis" unicode="&#xcf;" horiz-adv-x="993" 
d="M959 1695q0 -38 -15.5 -71.5t-41.5 -58t-60 -38.5t-72 -14t-72.5 14t-60 38t-40.5 57.5t-15 72.5t15 72.5t40.5 58t60 38.5t72.5 14q37 0 71 -14.5t60.5 -39t42 -58t15.5 -71.5zM418 1695q0 -37 -15.5 -70.5t-41.5 -58t-60 -39t-71 -14.5q-38 0 -72 14t-60 38.5
t-41.5 57.5t-15.5 72t15.5 72t41.5 58t60 39t72 14q37 0 71 -14.5t60 -39t41.5 -58t15.5 -71.5zM51 0v82q135 11 154 20q40 14 51.5 41t11.5 64v991q0 71 -63 105q-10 4 -30 9t-51 11t-49 9.5t-24 4.5v82h891v-82l-34 -4q-45 -6 -74.5 -11t-45.5 -9q-41 -16 -52 -43.5
t-11 -61.5v-993q0 -76 63 -102q18 -12 154 -31v-82h-891z" />
    <glyph glyph-name="Eth" unicode="&#xd0;" horiz-adv-x="1788" 
d="M1722 700q0 -127 -35 -228.5t-96.5 -179.5t-145 -133.5t-181.5 -90.5t-206 -51.5t-218 -16.5h-787v82q124 7 148 20q40 16 53.5 42t13.5 61v471h-200v108h200v414q0 78 -67 109q-9 3 -18.5 6t-19.5 5t-39.5 7t-80.5 12v82h831q111 0 217 -19t200 -57.5t173 -97
t136.5 -138.5t89.5 -181.5t32 -225.5zM1212 698q0 303 -94 463t-274 160l-119 -4v-533h303v-108h-303v-426q0 -72 40 -113t109 -41q176 0 257 140q81 141 81 462z" />
    <glyph glyph-name="Ntilde" unicode="&#xd1;" horiz-adv-x="1774" 
d="M1422 1847q-17 -56 -46 -114t-70 -105t-94.5 -77t-119.5 -30q-138 0 -250 59q-67 34 -101 46q-33 12 -69 12q-50 0 -84 -34t-68 -103l-82 35q60 161 144 238t184 77q81 0 138.5 -17.5t102.5 -39t83.5 -39t81.5 -17.5q35 0 62.5 9.5t50.5 35.5q10 11 22.5 33.5t28.5 54.5z
M1755 1337l-32 -4q-105 -14 -148 -51q-21 -18 -35.5 -44t-23 -61t-12 -80.5t-3.5 -103.5v-997h-237l-863 1053v-619q0 -96 10.5 -157.5t32.5 -94.5t71 -56t134 -40v-82h-629v82q89 6 138.5 30t74 66t30 102t5.5 138v651q0 52 -14 95t-48 79q-19 22 -39.5 36.5t-43 24.5
t-47 16.5t-51.5 12.5v86h626l719 -876v440q0 122 -16 185q-15 63 -62 106q-38 30 -129 52l-43 11v82h635v-82z" />
    <glyph glyph-name="Ograve" unicode="&#xd2;" horiz-adv-x="1747" 
d="M958 1527q-59 30 -108.5 53t-92 42t-79 36t-69.5 35q-32 22 -55 56.5t-16 79.5q2 17 11.5 35.5t25.5 34t39.5 26t53.5 10.5q28 0 58 -14t56 -42q69 -76 135 -150t132 -147zM1681 725q0 -223 -102 -402q-102 -178 -284 -271t-433 -93q-108 0 -209 22.5t-189.5 66
t-161.5 106.5t-125.5 143.5t-81.5 178t-29 208.5q0 180 61.5 324.5t170 245t256.5 154.5t320 54q167 0 313.5 -51t256.5 -146.5t173.5 -232t63.5 -307.5zM1171 715q0 337 -74 490q-73 153 -223 153q-148 0 -223.5 -165.5t-75.5 -490.5q0 -319 75 -480t224 -161
q297 0 297 654z" />
    <glyph glyph-name="Oacute" unicode="&#xd3;" horiz-adv-x="1747" 
d="M696 1582q66 73 132 147t135 150q26 28 56 42t58 14q30 0 53.5 -10.5t39.5 -26t25.5 -34t11.5 -35.5q7 -45 -16 -79.5t-55 -56.5q-33 -18 -69.5 -35t-79 -36t-92 -42t-108.5 -53zM1681 725q0 -223 -102 -402q-102 -178 -284 -271t-433 -93q-108 0 -209 22.5t-189.5 66
t-161.5 106.5t-125.5 143.5t-81.5 178t-29 208.5q0 180 61.5 324.5t170 245t256.5 154.5t320 54q167 0 313.5 -51t256.5 -146.5t173.5 -232t63.5 -307.5zM1171 715q0 337 -74 490q-73 153 -223 153q-148 0 -223.5 -165.5t-75.5 -490.5q0 -319 75 -480t224 -161
q297 0 297 654z" />
    <glyph glyph-name="Ocircumflex" unicode="&#xd4;" horiz-adv-x="1747" 
d="M508 1552l231 295q47 62 134 62q88 0 135 -62l231 -295l-106 -44l-260 176l-259 -176zM1681 725q0 -223 -102 -402q-102 -178 -284 -271t-433 -93q-108 0 -209 22.5t-189.5 66t-161.5 106.5t-125.5 143.5t-81.5 178t-29 208.5q0 180 61.5 324.5t170 245t256.5 154.5
t320 54q167 0 313.5 -51t256.5 -146.5t173.5 -232t63.5 -307.5zM1171 715q0 337 -74 490q-73 153 -223 153q-148 0 -223.5 -165.5t-75.5 -490.5q0 -319 75 -480t224 -161q297 0 297 654z" />
    <glyph glyph-name="Otilde" unicode="&#xd5;" horiz-adv-x="1747" 
d="M1271 1791q-16 -43 -42.5 -84t-61 -73t-76.5 -52t-89 -22q-39 -2 -78 6t-73 28q-13 8 -27.5 16t-28.5 15.5t-26 12.5t-20 5q-27 2 -47.5 -5t-36.5 -20t-29 -31.5t-25 -38.5l-111 49q25 62 54.5 105.5t63 71.5t70.5 41t76 14q37 1 80 -8.5t79 -26.5q34 -16 64 -32t48 -16
q28 0 47 5.5t32.5 17.5t24 29.5t22.5 41.5zM1681 725q0 -223 -102 -402q-102 -178 -284 -271t-433 -93q-108 0 -209 22.5t-189.5 66t-161.5 106.5t-125.5 143.5t-81.5 178t-29 208.5q0 180 61.5 324.5t170 245t256.5 154.5t320 54q167 0 313.5 -51t256.5 -146.5t173.5 -232
t63.5 -307.5zM1171 715q0 337 -74 490q-73 153 -223 153q-148 0 -223.5 -165.5t-75.5 -490.5q0 -319 75 -480t224 -161q297 0 297 654z" />
    <glyph glyph-name="Odieresis" unicode="&#xd6;" horiz-adv-x="1747" 
d="M1345 1698q0 -37 -16 -69.5t-42 -56.5t-60 -38t-70 -14q-37 0 -71 13.5t-60.5 37t-42 56t-15.5 71.5t15.5 72t41.5 57t60.5 37.5t71.5 13.5q36 0 70 -14t60.5 -38.5t42 -57.5t15.5 -70zM780 1698q0 -37 -16 -69.5t-42 -56.5t-60.5 -38t-70.5 -14q-37 0 -71.5 13.5t-60 37
t-41 56t-15.5 71.5q0 38 15.5 71t41 57t60 38t71.5 14q36 0 70 -14t60.5 -38.5t42.5 -57.5t16 -70zM1681 725q0 -223 -102 -402q-102 -178 -284 -271t-433 -93q-108 0 -209 22.5t-189.5 66t-161.5 106.5t-125.5 143.5t-81.5 178t-29 208.5q0 180 61.5 324.5t170 245
t256.5 154.5t320 54q167 0 313.5 -51t256.5 -146.5t173.5 -232t63.5 -307.5zM1171 715q0 337 -74 490q-73 153 -223 153q-148 0 -223.5 -165.5t-75.5 -490.5q0 -319 75 -480t224 -161q297 0 297 654z" />
    <glyph glyph-name="multiply" unicode="&#xd7;" horiz-adv-x="1526" 
d="M1159 55l-397 398l-400 -396l-133 131l402 400l-402 393l133 137l400 -401l397 401l133 -137l-399 -393l399 -400z" />
    <glyph glyph-name="Oslash" unicode="&#xd8;" horiz-adv-x="1747" 
d="M1681 725q0 -223 -102 -402q-102 -178 -284 -271t-433 -93q-288 0 -500 150l-210 -209l-78 80l202 198q-210 201 -210 506q0 180 61.5 324.5t170 245t256.5 154.5t320 54q300 0 515 -155l223 225l78 -78l-215 -219q206 -203 206 -510zM575 702q0 -60 3 -112.5t8 -97.5
l557 565q-61 301 -269 301q-148 0 -223.5 -165.5t-75.5 -490.5zM1171 715q0 62 -2 112.5t-6 92.5l-557 -564q66 -295 268 -295q297 0 297 654z" />
    <glyph glyph-name="Ugrave" unicode="&#xd9;" horiz-adv-x="1776" 
d="M1018 1527q-59 30 -108.5 53t-92 42t-79 36t-69.5 35q-32 22 -55 56.5t-16 79.5q2 17 11.5 35.5t25.5 34t39.5 26t53.5 10.5q28 0 58 -14t56 -42q69 -76 135 -150t132 -147zM1782 1337q-140 -21 -180 -55q-46 -30 -61 -96q-15 -64 -15 -199v-467q0 -138 -44.5 -242.5
t-124 -175.5t-190.5 -107t-243 -36q-337 0 -510.5 149t-173.5 445v649q0 71 -65 103q-34 19 -130 36v78h850v-78l-63 -10q-30 -4 -55 -10.5t-43.5 -19.5t-29 -34t-10.5 -55v-669q2 -110 20 -191.5t59 -135t107.5 -80.5t166.5 -27q169 0 257.5 119.5t88.5 340.5v410
q0 120 -15 184q-14 65 -59 109q-12 9 -35.5 18.5t-50 18.5t-52 16.5t-40.5 11.5v82h641v-82z" />
    <glyph glyph-name="Uacute" unicode="&#xda;" horiz-adv-x="1776" 
d="M786 1582q66 73 132 147t135 150q26 28 56 42t58 14q30 0 53.5 -10.5t39.5 -26t25.5 -34t11.5 -35.5q7 -45 -16 -79.5t-55 -56.5q-33 -18 -69.5 -35t-79 -36t-92 -42t-108.5 -53zM1782 1337q-140 -21 -180 -55q-46 -30 -61 -96q-15 -64 -15 -199v-467
q0 -138 -44.5 -242.5t-124 -175.5t-190.5 -107t-243 -36q-337 0 -510.5 149t-173.5 445v649q0 71 -65 103q-34 19 -130 36v78h850v-78l-63 -10q-30 -4 -55 -10.5t-43.5 -19.5t-29 -34t-10.5 -55v-669q2 -110 20 -191.5t59 -135t107.5 -80.5t166.5 -27q169 0 257.5 119.5
t88.5 340.5v410q0 120 -15 184q-14 65 -59 109q-12 9 -35.5 18.5t-50 18.5t-52 16.5t-40.5 11.5v82h641v-82z" />
    <glyph glyph-name="Ucircumflex" unicode="&#xdb;" horiz-adv-x="1776" 
d="M1362 1509l-348 177l-348 -177l-43 39q27 35 46.5 60.5t35.5 45.5t29.5 37t29 35t34 39.5t44.5 49.5q34 36 74.5 49.5t97.5 13.5q32 0 56.5 -3t44 -9.5t36 -18t31.5 -28.5q78 -84 106 -118q14 -17 44.5 -55t76.5 -98zM1782 1337q-140 -21 -180 -55q-46 -30 -61 -96
q-15 -64 -15 -199v-467q0 -138 -44.5 -242.5t-124 -175.5t-190.5 -107t-243 -36q-337 0 -510.5 149t-173.5 445v649q0 71 -65 103q-34 19 -130 36v78h850v-78l-63 -10q-30 -4 -55 -10.5t-43.5 -19.5t-29 -34t-10.5 -55v-669q2 -110 20 -191.5t59 -135t107.5 -80.5t166.5 -27
q169 0 257.5 119.5t88.5 340.5v410q0 120 -15 184q-14 65 -59 109q-12 9 -35.5 18.5t-50 18.5t-52 16.5t-40.5 11.5v82h641v-82z" />
    <glyph glyph-name="Udieresis" unicode="&#xdc;" horiz-adv-x="1776" 
d="M1407 1698q0 -37 -16 -69.5t-42 -56.5t-60 -38t-70 -14q-37 0 -71 13.5t-60.5 37t-42 56t-15.5 71.5t15.5 72t41.5 57t60.5 37.5t71.5 13.5q36 0 70 -14t60.5 -38.5t42 -57.5t15.5 -70zM842 1698q0 -37 -16 -69.5t-42 -56.5t-60.5 -38t-70.5 -14q-37 0 -71.5 13.5t-60 37
t-41 56t-15.5 71.5q0 38 15.5 71t41 57t60 38t71.5 14q36 0 70 -14t60.5 -38.5t42.5 -57.5t16 -70zM1782 1337q-140 -21 -180 -55q-46 -30 -61 -96q-15 -64 -15 -199v-467q0 -138 -44.5 -242.5t-124 -175.5t-190.5 -107t-243 -36q-337 0 -510.5 149t-173.5 445v649
q0 71 -65 103q-34 19 -130 36v78h850v-78l-63 -10q-30 -4 -55 -10.5t-43.5 -19.5t-29 -34t-10.5 -55v-669q2 -110 20 -191.5t59 -135t107.5 -80.5t166.5 -27q169 0 257.5 119.5t88.5 340.5v410q0 120 -15 184q-14 65 -59 109q-12 9 -35.5 18.5t-50 18.5t-52 16.5t-40.5 11.5
v82h641v-82z" />
    <glyph glyph-name="Yacute" unicode="&#xdd;" horiz-adv-x="1649" 
d="M695 1582q66 73 132 147t135 150q26 28 56 42t58 14q30 0 53.5 -10.5t39.5 -26t25.5 -34t11.5 -35.5q7 -45 -16 -79.5t-55 -56.5q-33 -18 -69.5 -35t-79 -36t-92 -42t-108.5 -53zM1722 1337q-77 -9 -132.5 -40.5t-103.5 -90.5q-34 -40 -150 -207q-57 -83 -105.5 -155.5
t-89.5 -136.5q-31 -48 -49 -84.5t-27 -72.5t-11.5 -77t-2.5 -98v-152q0 -33 8.5 -53.5t24 -33.5t38 -20.5t49.5 -14.5q31 -7 54 -12t39 -7v-82h-883v82q62 5 116 15q55 11 77 39.5t22 76.5v184q0 36 -2 63t-7.5 51.5t-16 50t-28.5 59.5q-11 22 -47.5 86t-99.5 173
t-106 180.5t-68 108.5q-24 37 -53.5 67.5t-65.5 52.5t-79.5 34.5t-96.5 13.5v82h959v-82l-62 -3q-58 -3 -94.5 -15.5t-36.5 -34.5q0 -62 309 -586q340 506 340 562q0 38 -43 55t-124 22v82h548v-82z" />
    <glyph glyph-name="Thorn" unicode="&#xde;" horiz-adv-x="1544" 
d="M1503 748q0 -73 -25.5 -132.5t-69.5 -106t-102 -80.5t-122 -56.5t-131 -33.5t-129 -11h-199v-107q0 -27 8 -45.5t22.5 -32t34 -22.5t42.5 -17q29 -10 51.5 -15.5t36.5 -6.5v-82h-871v82q132 9 176 36q43 28 43 91v989q0 51 -25 76q-13 14 -37.5 25.5t-52.5 19.5
t-55.5 12.5t-46.5 5.5v82h879v-82q-12 -1 -31 -4t-39 -7t-38 -9t-29 -10q-68 -42 -68 -107v-47h186q225 0 349 -40q126 -39 184.5 -125.5t58.5 -239.5zM1014 741q-2 86 -14.5 145t-42 96t-78.5 53.5t-123 17.5h-31v-627h8q75 0 128 18.5t87 57.5t50 98.5t16 140.5z" />
    <glyph glyph-name="germandbls" unicode="&#xdf;" horiz-adv-x="1464" 
d="M1397 498q0 -110 -33 -203.5t-95.5 -161t-152.5 -105.5t-203 -38q-22 0 -54 1t-66.5 3t-66 6t-52.5 10v88l41 -2q99 0 159 110t60 298q0 184 -48.5 278.5t-142.5 94.5h-26v96h31q45 0 73.5 29t45 70.5t22.5 87.5t6 79q0 115 -34 168t-91 53q-48 -2 -78.5 -19t-48.5 -55.5
t-25.5 -102t-9.5 -159.5v-1124h-588v80q85 0 121.5 25.5t36.5 82.5v838q0 58 5.5 111.5t22 101.5t46 91.5t76.5 81.5q81 66 195.5 102t264.5 36q109 1 204.5 -21.5t166 -64.5t110.5 -101.5t38 -131.5q0 -62 -26 -111t-68.5 -85.5t-95.5 -61t-107 -37.5v-10q83 -16 154 -52
t122.5 -90t81 -125.5t29.5 -160.5z" />
    <glyph glyph-name="agrave" unicode="&#xe0;" horiz-adv-x="1311" 
d="M704 1133q-59 30 -108.5 53t-92 42t-79 36t-69.5 35q-32 22 -55 56.5t-16 79.5q2 17 11.5 35.5t25.5 34t39.5 26t53.5 10.5q28 0 58 -14t56 -42q69 -76 135 -150t132 -147zM1294 23q-24 -13 -60 -24t-75 -19t-76.5 -12.5t-64.5 -4.5q-67 0 -118.5 7t-89 23.5t-63.5 43
t-42 65.5h-7q-40 -39 -77 -65t-76.5 -42t-85 -23t-103.5 -7q-57 0 -107 17t-87.5 49t-59.5 79t-22 107q0 106 50.5 176t170.5 113q30 11 84.5 29t133.5 42q139 41 179 60v108q0 107 -25 151t-71 44q-59 0 -106 -31l11 -25q30 -63 30 -118q0 -79 -53 -113.5t-150 -34.5
q-100 0 -154.5 42.5t-54.5 123.5q0 46 23.5 81t58.5 61t77.5 43t79.5 27q117 32 259 32q62 0 123 -3.5t117 -16t104 -35t83.5 -61t55.5 -94.5t20 -134l-2 -180l-8 -275q0 -57 17 -85t52 -35t65 -7h44v-79zM696 541q-39 -22 -74 -41.5t-61 -46t-41.5 -65t-15.5 -97.5
q0 -64 29 -101.5t71 -37.5q31 0 50.5 11t39.5 42z" />
    <glyph glyph-name="aacute" unicode="&#xe1;" horiz-adv-x="1311" 
d="M482 1188q66 73 132 147t135 150q26 28 56 42t58 14q30 0 53.5 -10.5t39.5 -26t25.5 -34t11.5 -35.5q7 -45 -16 -79.5t-55 -56.5q-33 -18 -69.5 -35t-79 -36t-92 -42t-108.5 -53zM1294 23q-24 -13 -60 -24t-75 -19t-76.5 -12.5t-64.5 -4.5q-67 0 -118.5 7t-89 23.5
t-63.5 43t-42 65.5h-7q-40 -39 -77 -65t-76.5 -42t-85 -23t-103.5 -7q-57 0 -107 17t-87.5 49t-59.5 79t-22 107q0 106 50.5 176t170.5 113q30 11 84.5 29t133.5 42q139 41 179 60v108q0 107 -25 151t-71 44q-59 0 -106 -31l11 -25q30 -63 30 -118q0 -79 -53 -113.5
t-150 -34.5q-100 0 -154.5 42.5t-54.5 123.5q0 46 23.5 81t58.5 61t77.5 43t79.5 27q117 32 259 32q62 0 123 -3.5t117 -16t104 -35t83.5 -61t55.5 -94.5t20 -134l-2 -180l-8 -275q0 -57 17 -85t52 -35t65 -7h44v-79zM696 541q-39 -22 -74 -41.5t-61 -46t-41.5 -65
t-15.5 -97.5q0 -64 29 -101.5t71 -37.5q31 0 50.5 11t39.5 42z" />
    <glyph glyph-name="acircumflex" unicode="&#xe2;" horiz-adv-x="1311" 
d="M270 1157l231 295q47 62 134 62q88 0 135 -62l231 -295l-106 -44l-260 176l-259 -176zM1294 23q-24 -13 -60 -24t-75 -19t-76.5 -12.5t-64.5 -4.5q-67 0 -118.5 7t-89 23.5t-63.5 43t-42 65.5h-7q-40 -39 -77 -65t-76.5 -42t-85 -23t-103.5 -7q-57 0 -107 17t-87.5 49
t-59.5 79t-22 107q0 106 50.5 176t170.5 113q30 11 84.5 29t133.5 42q139 41 179 60v108q0 107 -25 151t-71 44q-59 0 -106 -31l11 -25q30 -63 30 -118q0 -79 -53 -113.5t-150 -34.5q-100 0 -154.5 42.5t-54.5 123.5q0 46 23.5 81t58.5 61t77.5 43t79.5 27q117 32 259 32
q62 0 123 -3.5t117 -16t104 -35t83.5 -61t55.5 -94.5t20 -134l-2 -180l-8 -275q0 -57 17 -85t52 -35t65 -7h44v-79zM696 541q-39 -22 -74 -41.5t-61 -46t-41.5 -65t-15.5 -97.5q0 -64 29 -101.5t71 -37.5q31 0 50.5 11t39.5 42z" />
    <glyph glyph-name="atilde" unicode="&#xe3;" horiz-adv-x="1311" 
d="M1013 1397q-16 -43 -42.5 -84t-61 -73t-76.5 -52t-89 -22q-39 -2 -78 6t-73 28q-13 8 -27.5 16t-28.5 15.5t-26 12.5t-20 5q-27 2 -47.5 -5t-36.5 -20t-29 -31.5t-25 -38.5l-111 49q25 62 54.5 105.5t63 71.5t70.5 41t76 14q37 1 80 -8.5t79 -26.5q34 -16 64 -32t48 -16
q28 0 47 5.5t32.5 17.5t24 29.5t22.5 41.5zM1294 23q-24 -13 -60 -24t-75 -19t-76.5 -12.5t-64.5 -4.5q-67 0 -118.5 7t-89 23.5t-63.5 43t-42 65.5h-7q-40 -39 -77 -65t-76.5 -42t-85 -23t-103.5 -7q-57 0 -107 17t-87.5 49t-59.5 79t-22 107q0 106 50.5 176t170.5 113
q30 11 84.5 29t133.5 42q139 41 179 60v108q0 107 -25 151t-71 44q-59 0 -106 -31l11 -25q30 -63 30 -118q0 -79 -53 -113.5t-150 -34.5q-100 0 -154.5 42.5t-54.5 123.5q0 46 23.5 81t58.5 61t77.5 43t79.5 27q117 32 259 32q62 0 123 -3.5t117 -16t104 -35t83.5 -61
t55.5 -94.5t20 -134l-2 -180l-8 -275q0 -57 17 -85t52 -35t65 -7h44v-79zM696 541q-39 -22 -74 -41.5t-61 -46t-41.5 -65t-15.5 -97.5q0 -64 29 -101.5t71 -37.5q31 0 50.5 11t39.5 42z" />
    <glyph glyph-name="adieresis" unicode="&#xe4;" horiz-adv-x="1311" 
d="M1121 1376q0 -38 -15.5 -71.5t-41.5 -58t-60 -38.5t-72 -14t-72.5 14t-60 38t-40.5 57.5t-15 72.5t15 72.5t40.5 58t60 38.5t72.5 14q37 0 71 -14.5t60.5 -39t42 -58t15.5 -71.5zM580 1376q0 -37 -15.5 -70.5t-41.5 -58t-60 -39t-71 -14.5q-38 0 -72 14t-60 38.5
t-41.5 57.5t-15.5 72t15.5 72t41.5 58t60 39t72 14q37 0 71 -14.5t60 -39t41.5 -58t15.5 -71.5zM1294 23q-24 -13 -60 -24t-75 -19t-76.5 -12.5t-64.5 -4.5q-67 0 -118.5 7t-89 23.5t-63.5 43t-42 65.5h-7q-40 -39 -77 -65t-76.5 -42t-85 -23t-103.5 -7q-57 0 -107 17
t-87.5 49t-59.5 79t-22 107q0 106 50.5 176t170.5 113q30 11 84.5 29t133.5 42q139 41 179 60v108q0 107 -25 151t-71 44q-59 0 -106 -31l11 -25q30 -63 30 -118q0 -79 -53 -113.5t-150 -34.5q-100 0 -154.5 42.5t-54.5 123.5q0 46 23.5 81t58.5 61t77.5 43t79.5 27
q117 32 259 32q62 0 123 -3.5t117 -16t104 -35t83.5 -61t55.5 -94.5t20 -134l-2 -180l-8 -275q0 -57 17 -85t52 -35t65 -7h44v-79zM696 541q-39 -22 -74 -41.5t-61 -46t-41.5 -65t-15.5 -97.5q0 -64 29 -101.5t71 -37.5q31 0 50.5 11t39.5 42z" />
    <glyph glyph-name="aring" unicode="&#xe5;" horiz-adv-x="1311" 
d="M928 1321q0 -62 -25 -106.5t-66.5 -73t-94 -42t-107.5 -13.5q-56 0 -109 13t-94 41t-65.5 73t-24.5 108q0 62 25 107.5t66 75t93.5 43.5t108.5 14t109 -14t94 -43t65.5 -74.5t24.5 -108.5zM766 1321q0 75 -32.5 120.5t-98.5 45.5q-63 0 -97 -43.5t-34 -122.5
q0 -75 32.5 -118.5t98.5 -43.5t98.5 43.5t32.5 118.5zM1294 23q-24 -13 -60 -24t-75 -19t-76.5 -12.5t-64.5 -4.5q-67 0 -118.5 7t-89 23.5t-63.5 43t-42 65.5h-7q-40 -39 -77 -65t-76.5 -42t-85 -23t-103.5 -7q-57 0 -107 17t-87.5 49t-59.5 79t-22 107q0 106 50.5 176
t170.5 113q30 11 84.5 29t133.5 42q139 41 179 60v108q0 107 -25 151t-71 44q-59 0 -106 -31l11 -25q30 -63 30 -118q0 -79 -53 -113.5t-150 -34.5q-100 0 -154.5 42.5t-54.5 123.5q0 46 23.5 81t58.5 61t77.5 43t79.5 27q117 32 259 32q62 0 123 -3.5t117 -16t104 -35
t83.5 -61t55.5 -94.5t20 -134l-2 -180l-8 -275q0 -57 17 -85t52 -35t65 -7h44v-79zM696 541q-39 -22 -74 -41.5t-61 -46t-41.5 -65t-15.5 -97.5q0 -64 29 -101.5t71 -37.5q31 0 50.5 11t39.5 42z" />
    <glyph glyph-name="ae" unicode="&#xe6;" horiz-adv-x="1882" 
d="M1845 246q-44 -70 -103 -123.5t-128 -88.5t-147 -53t-160 -18q-189 0 -314 58.5t-192 158.5h-4q-44 -59 -91 -100t-100.5 -66.5t-115 -37t-134.5 -11.5q-57 0 -107 17t-87.5 49t-59.5 79t-22 107q0 106 50.5 176t170.5 113q30 11 84.5 29t133.5 42q139 41 179 60v108
q0 107 -25 151t-71 44q-59 0 -106 -31l11 -25q30 -63 30 -118q0 -79 -53 -113.5t-150 -34.5q-100 0 -154.5 42.5t-54.5 123.5q0 46 23.5 81t58.5 61t77.5 43t79.5 27q117 32 259 32q238 0 356 -72q134 72 311 72q128 0 226 -29.5t165 -85t101.5 -134.5t34.5 -179v-65h-650
q0 -210 71.5 -306t227.5 -96q44 0 87 14.5t82 38.5t72 56t58 67zM1372 625q0 188 -24 252q-24 65 -74 65q-55 0 -81 -79t-26 -245zM696 541q-39 -22 -74 -41.5t-61 -46t-41.5 -65t-15.5 -97.5q0 -64 29 -101.5t71 -37.5q31 0 55 17t35 36z" />
    <glyph glyph-name="ccedilla" unicode="&#xe7;" horiz-adv-x="1178" 
d="M1157 268q-34 -73 -83.5 -129.5t-111 -95.5t-134 -59.5t-152.5 -20.5h-27t-27 1v-58q133 0 196.5 -42.5t63.5 -117.5q0 -44 -13.5 -74t-37.5 -49.5t-57 -31t-72 -18.5q-48 -8 -121.5 -12.5t-173.5 -4.5v82q149 0 180 6q32 6 49 21t17 46q0 34 -29 46t-92 12v204
q-108 16 -193 58.5t-144.5 109t-91 156.5t-31.5 201q0 76 22 145t62 128t95.5 106.5t122.5 80.5q141 70 320 70q204 0 317 -70q115 -69 115 -188q0 -85 -47 -133.5t-147 -48.5q-105 0 -159 39.5t-54 111.5q0 37 9.5 71.5t21.5 68.5l8 36q-15 27 -56 27q-78 0 -118.5 -105
t-40.5 -302q-1 -91 17.5 -165t52.5 -126.5t81 -81t101 -27.5q42 0 78.5 9.5t70 31.5t65 57t62.5 86z" />
    <glyph glyph-name="egrave" unicode="&#xe8;" horiz-adv-x="1257" 
d="M734 1133q-59 30 -108.5 53t-92 42t-79 36t-69.5 35q-32 22 -55 56.5t-16 79.5q2 17 11.5 35.5t25.5 34t39.5 26t53.5 10.5q28 0 58 -14t56 -42q69 -76 135 -150t132 -147zM1221 246q-43 -66 -99 -118.5t-123.5 -89t-144.5 -56t-162 -19.5q-148 0 -263 37.5t-194.5 107
t-121 168.5t-41.5 222q-2 110 41.5 207.5t123 170t189.5 113.5t240 39q127 0 225 -29.5t165 -84.5t101.5 -134.5t34.5 -179.5v-65h-649q0 -84 12 -157.5t46 -128t94 -85.5t157 -31q43 0 84.5 15t79 40t69.5 56.5t56 64.5zM748 625q0 182 -24 249q-23 68 -75 68
q-55 0 -80.5 -80.5t-25.5 -243.5z" />
    <glyph glyph-name="eacute" unicode="&#xe9;" horiz-adv-x="1257" 
d="M476 1188q66 73 132 147t135 150q26 28 56 42t58 14q30 0 53.5 -10.5t39.5 -26t25.5 -34t11.5 -35.5q7 -45 -16 -79.5t-55 -56.5q-33 -18 -69.5 -35t-79 -36t-92 -42t-108.5 -53zM1221 246q-43 -66 -99 -118.5t-123.5 -89t-144.5 -56t-162 -19.5q-148 0 -263 37.5
t-194.5 107t-121 168.5t-41.5 222q-2 110 41.5 207.5t123 170t189.5 113.5t240 39q127 0 225 -29.5t165 -84.5t101.5 -134.5t34.5 -179.5v-65h-649q0 -84 12 -157.5t46 -128t94 -85.5t157 -31q43 0 84.5 15t79 40t69.5 56.5t56 64.5zM748 625q0 182 -24 249q-23 68 -75 68
q-55 0 -80.5 -80.5t-25.5 -243.5z" />
    <glyph glyph-name="ecircumflex" unicode="&#xea;" horiz-adv-x="1257" 
d="M300 1157l231 295q47 62 134 62q88 0 135 -62l231 -295l-106 -44l-260 176l-259 -176zM1221 246q-43 -66 -99 -118.5t-123.5 -89t-144.5 -56t-162 -19.5q-148 0 -263 37.5t-194.5 107t-121 168.5t-41.5 222q-2 110 41.5 207.5t123 170t189.5 113.5t240 39
q127 0 225 -29.5t165 -84.5t101.5 -134.5t34.5 -179.5v-65h-649q0 -84 12 -157.5t46 -128t94 -85.5t157 -31q43 0 84.5 15t79 40t69.5 56.5t56 64.5zM748 625q0 182 -24 249q-23 68 -75 68q-55 0 -80.5 -80.5t-25.5 -243.5z" />
    <glyph glyph-name="edieresis" unicode="&#xeb;" horiz-adv-x="1257" 
d="M1116 1376q0 -38 -15.5 -71.5t-41.5 -58t-60 -38.5t-72 -14t-72.5 14t-60 38t-40.5 57.5t-15 72.5t15 72.5t40.5 58t60 38.5t72.5 14q37 0 71 -14.5t60.5 -39t42 -58t15.5 -71.5zM575 1376q0 -37 -15.5 -70.5t-41.5 -58t-60 -39t-71 -14.5q-38 0 -72 14t-60 38.5
t-41.5 57.5t-15.5 72t15.5 72t41.5 58t60 39t72 14q37 0 71 -14.5t60 -39t41.5 -58t15.5 -71.5zM1221 246q-43 -66 -99 -118.5t-123.5 -89t-144.5 -56t-162 -19.5q-148 0 -263 37.5t-194.5 107t-121 168.5t-41.5 222q-2 110 41.5 207.5t123 170t189.5 113.5t240 39
q127 0 225 -29.5t165 -84.5t101.5 -134.5t34.5 -179.5v-65h-649q0 -84 12 -157.5t46 -128t94 -85.5t157 -31q43 0 84.5 15t79 40t69.5 56.5t56 64.5zM748 625q0 182 -24 249q-23 68 -75 68q-55 0 -80.5 -80.5t-25.5 -243.5z" />
    <glyph glyph-name="igrave" unicode="&#xec;" horiz-adv-x="813" 
d="M531 1133q-59 30 -108.5 53t-92 42t-79 36t-69.5 35q-32 22 -55 56.5t-16 79.5q2 17 11.5 35.5t25.5 34t39.5 26t53.5 10.5q28 0 58 -14t56 -42q69 -76 135 -150t132 -147zM45 0v80q87 0 123.5 28t36.5 85v563q0 41 -22 70q-10 15 -29 28t-41.5 23t-45 16t-40.5 8v80
l587 27l17 -15v-788q0 -36 13.5 -58.5t35 -36t50 -20t58.5 -10.5v-80h-743z" />
    <glyph glyph-name="iacute" unicode="&#xed;" horiz-adv-x="813" 
d="M222 1188q66 73 132 147t135 150q26 28 56 42t58 14q30 0 53.5 -10.5t39.5 -26t25.5 -34t11.5 -35.5q7 -45 -16 -79.5t-55 -56.5q-33 -18 -69.5 -35t-79 -36t-92 -42t-108.5 -53zM45 0v80q87 0 123.5 28t36.5 85v563q0 41 -22 70q-10 15 -29 28t-41.5 23t-45 16t-40.5 8
v80l587 27l17 -15v-788q0 -36 13.5 -58.5t35 -36t50 -20t58.5 -10.5v-80h-743z" />
    <glyph glyph-name="icircumflex" unicode="&#xee;" horiz-adv-x="813" 
d="M733 1094l-348 241l-348 -241l-47 32q40 66 68 113.5t52 86.5t47.5 75t55.5 80q28 38 67.5 54.5t104.5 16.5q64 0 102 -14t66 -53q42 -57 82 -118.5t81 -127.5l70 -113zM45 0v80q87 0 123.5 28t36.5 85v563q0 41 -22 70q-10 15 -29 28t-41.5 23t-45 16t-40.5 8v80l587 27
l17 -15v-788q0 -36 13.5 -58.5t35 -36t50 -20t58.5 -10.5v-80h-743z" />
    <glyph glyph-name="idieresis" unicode="&#xef;" horiz-adv-x="813" 
d="M842 1376q0 -38 -15.5 -71.5t-41.5 -58t-60 -38.5t-72 -14t-72.5 14t-60 38t-40.5 57.5t-15 72.5t15 72.5t40.5 58t60 38.5t72.5 14q37 0 71 -14.5t60.5 -39t42 -58t15.5 -71.5zM301 1376q0 -37 -15.5 -70.5t-41.5 -58t-60 -39t-71 -14.5q-38 0 -72 14t-60 38.5
t-41.5 57.5t-15.5 72t15.5 72t41.5 58t60 39t72 14q37 0 71 -14.5t60 -39t41.5 -58t15.5 -71.5zM45 0v80q87 0 123.5 28t36.5 85v563q0 41 -22 70q-10 15 -29 28t-41.5 23t-45 16t-40.5 8v80l587 27l17 -15v-788q0 -36 13.5 -58.5t35 -36t50 -20t58.5 -10.5v-80h-743z" />
    <glyph glyph-name="eth" unicode="&#xf0;" horiz-adv-x="1407" 
d="M1325 645q0 -153 -39 -278.5t-118 -214.5t-198 -138t-278 -49q-128 0 -240.5 33.5t-196.5 101.5t-132.5 170.5t-48.5 239.5q-2 116 36.5 214.5t108.5 170.5t166.5 111.5t210.5 37.5q40 0 77 -3.5t70.5 -14t63.5 -30.5t57 -52l13 2q-30 196 -119 305l-197 -131l-65 86
l188 127q-26 22 -68.5 52.5t-103.5 72.5l47 84l40 -11q114 -32 228 -97l191 127l65 -88l-147 -101q99 -59 172 -137.5t121.5 -171.5t72 -198.5t23.5 -219.5zM854 496q0 186 -15 271q-14 85 -47.5 126t-91.5 41q-35 0 -58.5 -16t-39 -41t-24.5 -55t-14 -59q-15 -82 -15 -253
q0 -255 37 -357q38 -102 114 -102q154 0 154 445z" />
    <glyph glyph-name="ntilde" unicode="&#xf1;" horiz-adv-x="1513" 
d="M1266 1485q-17 -56 -46 -114t-70 -105t-94.5 -77t-119.5 -30q-138 0 -250 59q-67 34 -101 46q-33 12 -69 12q-50 0 -84 -34t-68 -103l-82 35q60 161 144 238t184 77q81 0 138.5 -17.5t102.5 -39t83.5 -39t81.5 -17.5q35 0 62.5 9.5t50.5 35.5q10 11 22.5 33.5t28.5 54.5z
M805 0v80q14 0 27.5 1.5t27.5 3.5q28 6 38 25q11 20 11 83v438q0 54 -6.5 91t-20 60t-35.5 33t-52 10q-42 0 -87.5 -30t-78.5 -78v-514q0 -37 7.5 -60t27.5 -39q26 -14 79 -24v-80h-696v80q45 0 85 10q42 11 56.5 37t14.5 66v563q0 20 -7.5 40t-20.5 37t-30 30t-36 19
q-12 5 -31.5 9.5t-46.5 9.5v80l581 27l17 -15v-151h4q31 31 64.5 63.5t76.5 58.5t98.5 43t131.5 17q162 0 249.5 -90.5t87.5 -255.5v-477q0 -37 10.5 -60t41.5 -39q22 -8 46 -14t50 -8v-80h-684z" />
    <glyph glyph-name="ograve" unicode="&#xf2;" horiz-adv-x="1403" 
d="M785 1133q-59 30 -108.5 53t-92 42t-79 36t-69.5 35q-32 22 -55 56.5t-16 79.5q2 17 11.5 35.5t25.5 34t39.5 26t53.5 10.5q28 0 58 -14t56 -42q69 -76 135 -150t132 -147zM1329 500q2 -118 -43.5 -217.5t-129 -170.5t-202 -110t-264.5 -37q-121 0 -232.5 32.5
t-196.5 98.5t-136 165.5t-51 234.5q-2 119 41.5 218t124.5 169.5t196 108.5t256 36q294 0 466 -143q171 -142 171 -385zM854 506q0 181 -15 263q-15 84 -48 128.5t-93 44.5q-34 0 -57.5 -15t-38.5 -38t-24 -52t-15 -57q-14 -79 -14 -270q0 -106 3 -179t10 -115
q14 -82 46 -123.5t90 -41.5q36 0 60 16.5t40 42t25.5 57t14.5 60.5q16 83 16 279z" />
    <glyph glyph-name="oacute" unicode="&#xf3;" horiz-adv-x="1403" 
d="M524 1188q66 73 132 147t135 150q26 28 56 42t58 14q30 0 53.5 -10.5t39.5 -26t25.5 -34t11.5 -35.5q7 -45 -16 -79.5t-55 -56.5q-33 -18 -69.5 -35t-79 -36t-92 -42t-108.5 -53zM1329 500q2 -118 -43.5 -217.5t-129 -170.5t-202 -110t-264.5 -37q-121 0 -232.5 32.5
t-196.5 98.5t-136 165.5t-51 234.5q-2 119 41.5 218t124.5 169.5t196 108.5t256 36q294 0 466 -143q171 -142 171 -385zM854 506q0 181 -15 263q-15 84 -48 128.5t-93 44.5q-34 0 -57.5 -15t-38.5 -38t-24 -52t-15 -57q-14 -79 -14 -270q0 -106 3 -179t10 -115
q14 -82 46 -123.5t90 -41.5q36 0 60 16.5t40 42t25.5 57t14.5 60.5q16 83 16 279z" />
    <glyph glyph-name="ocircumflex" unicode="&#xf4;" horiz-adv-x="1403" 
d="M335 1157l231 295q47 62 134 62q88 0 135 -62l231 -295l-106 -44l-260 176l-259 -176zM1329 500q2 -118 -43.5 -217.5t-129 -170.5t-202 -110t-264.5 -37q-121 0 -232.5 32.5t-196.5 98.5t-136 165.5t-51 234.5q-2 119 41.5 218t124.5 169.5t196 108.5t256 36
q294 0 466 -143q171 -142 171 -385zM854 506q0 181 -15 263q-15 84 -48 128.5t-93 44.5q-34 0 -57.5 -15t-38.5 -38t-24 -52t-15 -57q-14 -79 -14 -270q0 -106 3 -179t10 -115q14 -82 46 -123.5t90 -41.5q36 0 60 16.5t40 42t25.5 57t14.5 60.5q16 83 16 279z" />
    <glyph glyph-name="otilde" unicode="&#xf5;" horiz-adv-x="1403" 
d="M1079 1397q-16 -43 -42.5 -84t-61 -73t-76.5 -52t-89 -22q-39 -2 -78 6t-73 28q-13 8 -27.5 16t-28.5 15.5t-26 12.5t-20 5q-27 2 -47.5 -5t-36.5 -20t-29 -31.5t-25 -38.5l-111 49q25 62 54.5 105.5t63 71.5t70.5 41t76 14q37 1 80 -8.5t79 -26.5q34 -16 64 -32t48 -16
q28 0 47 5.5t32.5 17.5t24 29.5t22.5 41.5zM1329 500q2 -118 -43.5 -217.5t-129 -170.5t-202 -110t-264.5 -37q-121 0 -232.5 32.5t-196.5 98.5t-136 165.5t-51 234.5q-2 119 41.5 218t124.5 169.5t196 108.5t256 36q294 0 466 -143q171 -142 171 -385zM854 506
q0 181 -15 263q-15 84 -48 128.5t-93 44.5q-34 0 -57.5 -15t-38.5 -38t-24 -52t-15 -57q-14 -79 -14 -270q0 -106 3 -179t10 -115q14 -82 46 -123.5t90 -41.5q36 0 60 16.5t40 42t25.5 57t14.5 60.5q16 83 16 279z" />
    <glyph glyph-name="odieresis" unicode="&#xf6;" horiz-adv-x="1403" 
d="M1159 1376q0 -38 -15.5 -71.5t-41.5 -58t-60 -38.5t-72 -14t-72.5 14t-60 38t-40.5 57.5t-15 72.5t15 72.5t40.5 58t60 38.5t72.5 14q37 0 71 -14.5t60.5 -39t42 -58t15.5 -71.5zM618 1376q0 -37 -15.5 -70.5t-41.5 -58t-60 -39t-71 -14.5q-38 0 -72 14t-60 38.5
t-41.5 57.5t-15.5 72t15.5 72t41.5 58t60 39t72 14q37 0 71 -14.5t60 -39t41.5 -58t15.5 -71.5zM1329 500q2 -118 -43.5 -217.5t-129 -170.5t-202 -110t-264.5 -37q-121 0 -232.5 32.5t-196.5 98.5t-136 165.5t-51 234.5q-2 119 41.5 218t124.5 169.5t196 108.5t256 36
q294 0 466 -143q171 -142 171 -385zM854 506q0 181 -15 263q-15 84 -48 128.5t-93 44.5q-34 0 -57.5 -15t-38.5 -38t-24 -52t-15 -57q-14 -79 -14 -270q0 -106 3 -179t10 -115q14 -82 46 -123.5t90 -41.5q36 0 60 16.5t40 42t25.5 57t14.5 60.5q16 83 16 279z" />
    <glyph glyph-name="divide" unicode="&#xf7;" horiz-adv-x="1526" 
d="M948 991q0 -38 -14.5 -72.5t-39 -61t-58 -42.5t-72.5 -16t-73.5 15.5t-60 42t-40.5 61t-15 73.5q0 40 14.5 75.5t39.5 62.5t60 43t75 16t73.5 -16.5t58 -44t38.5 -63t14 -73.5zM178 492v186h1170v-186h-1170zM948 174q0 -39 -14 -73.5t-38.5 -61t-58 -42t-73.5 -15.5
t-74.5 15t-60 41t-40 61t-14.5 75t14.5 75.5t39.5 62t60 42t75 15.5t73.5 -16t58 -43t38.5 -62t14 -74z" />
    <glyph glyph-name="oslash" unicode="&#xf8;" horiz-adv-x="1403" 
d="M1329 500q2 -118 -43.5 -217.5t-129 -170.5t-202 -110t-264.5 -37q-229 0 -387 101l-223 -207l-72 73l215 195q-149 143 -149 369q-2 119 41.5 218t124.5 169.5t196 108.5t256 36q243 0 410 -104l229 209l70 -74l-221 -195q149 -140 149 -364zM549 424l299 270
q-13 134 -49 191t-101 57q-34 0 -57.5 -15t-38.5 -38t-24 -52t-15 -57q-14 -79 -14 -270v-86zM854 571l-301 -276q5 -66 16 -112.5t29 -76t42.5 -42.5t57.5 -13q36 0 60 16.5t40 42t25.5 57t14.5 60.5q16 83 16 279v65z" />
    <glyph glyph-name="ugrave" unicode="&#xf9;" horiz-adv-x="1487" 
d="M799 1133q-59 30 -108.5 53t-92 42t-79 36t-69.5 35q-32 22 -55 56.5t-16 79.5q2 17 11.5 35.5t25.5 34t39.5 26t53.5 10.5q28 0 58 -14t56 -42q69 -76 135 -150t132 -147zM901 -10l-16 14v135h-6q-38 -35 -73.5 -66.5t-78.5 -55.5t-98.5 -38t-132.5 -14q-82 0 -143 27
t-100.5 75t-59 113.5t-19.5 143.5v436q0 68 -57 108q-12 12 -33 19q-11 4 -32 8t-52 8v78l594 27l10 -15v-653q0 -104 30 -147t89 -43q45 0 87.5 26.5t72.5 69.5v526q0 66 -37.5 96t-122.5 35v78l575 27l13 -15v-764q0 -37 17.5 -63t48.5 -45q32 -18 110 -21v-77z" />
    <glyph glyph-name="uacute" unicode="&#xfa;" horiz-adv-x="1487" 
d="M594 1188q66 73 132 147t135 150q26 28 56 42t58 14q30 0 53.5 -10.5t39.5 -26t25.5 -34t11.5 -35.5q7 -45 -16 -79.5t-55 -56.5q-33 -18 -69.5 -35t-79 -36t-92 -42t-108.5 -53zM901 -10l-16 14v135h-6q-38 -35 -73.5 -66.5t-78.5 -55.5t-98.5 -38t-132.5 -14
q-82 0 -143 27t-100.5 75t-59 113.5t-19.5 143.5v436q0 68 -57 108q-12 12 -33 19q-11 4 -32 8t-52 8v78l594 27l10 -15v-653q0 -104 30 -147t89 -43q45 0 87.5 26.5t72.5 69.5v526q0 66 -37.5 96t-122.5 35v78l575 27l13 -15v-764q0 -37 17.5 -63t48.5 -45q32 -18 110 -21
v-77z" />
    <glyph glyph-name="ucircumflex" unicode="&#xfb;" horiz-adv-x="1487" 
d="M1089 1094l-348 241l-348 -241l-47 32q40 66 68 113.5t52 86.5t47.5 75t55.5 80q28 38 67.5 54.5t104.5 16.5q64 0 102 -14t66 -53q42 -57 82 -118.5t81 -127.5l70 -113zM901 -10l-16 14v135h-6q-38 -35 -73.5 -66.5t-78.5 -55.5t-98.5 -38t-132.5 -14q-82 0 -143 27
t-100.5 75t-59 113.5t-19.5 143.5v436q0 68 -57 108q-12 12 -33 19q-11 4 -32 8t-52 8v78l594 27l10 -15v-653q0 -104 30 -147t89 -43q45 0 87.5 26.5t72.5 69.5v526q0 66 -37.5 96t-122.5 35v78l575 27l13 -15v-764q0 -37 17.5 -63t48.5 -45q32 -18 110 -21v-77z" />
    <glyph glyph-name="udieresis" unicode="&#xfc;" horiz-adv-x="1487" 
d="M1202 1376q0 -38 -15.5 -71.5t-41.5 -58t-60 -38.5t-72 -14t-72.5 14t-60 38t-40.5 57.5t-15 72.5t15 72.5t40.5 58t60 38.5t72.5 14q37 0 71 -14.5t60.5 -39t42 -58t15.5 -71.5zM661 1376q0 -37 -15.5 -70.5t-41.5 -58t-60 -39t-71 -14.5q-38 0 -72 14t-60 38.5
t-41.5 57.5t-15.5 72t15.5 72t41.5 58t60 39t72 14q37 0 71 -14.5t60 -39t41.5 -58t15.5 -71.5zM901 -10l-16 14v135h-6q-38 -35 -73.5 -66.5t-78.5 -55.5t-98.5 -38t-132.5 -14q-82 0 -143 27t-100.5 75t-59 113.5t-19.5 143.5v436q0 68 -57 108q-12 12 -33 19q-11 4 -32 8
t-52 8v78l594 27l10 -15v-653q0 -104 30 -147t89 -43q45 0 87.5 26.5t72.5 69.5v526q0 66 -37.5 96t-122.5 35v78l575 27l13 -15v-764q0 -37 17.5 -63t48.5 -45q32 -18 110 -21v-77z" />
    <glyph glyph-name="yacute" unicode="&#xfd;" horiz-adv-x="1241" 
d="M514 1188q66 73 132 147t135 150q26 28 56 42t58 14q30 0 53.5 -10.5t39.5 -26t25.5 -34t11.5 -35.5q7 -45 -16 -79.5t-55 -56.5q-33 -18 -69.5 -35t-79 -36t-92 -42t-108.5 -53zM1272 918q-27 -6 -47 -13t-36.5 -18t-30.5 -27t-29 -39q-13 -20 -37 -67t-60 -122
q-70 -148 -309 -663q-96 -204 -210 -308.5t-257 -104.5q-45 0 -84.5 15t-69.5 42t-47.5 65t-17.5 84q0 85 53.5 135t147.5 50q112 0 245 -154q69 69 105 152l-90 171q-93 180 -186 352t-187 341q-59 98 -160 111v75h725v-73q-10 0 -31.5 -3.5t-43 -10.5t-38 -17.5
t-16.5 -24.5q0 -13 11 -40q53 -112 112 -220.5t123 -214.5q9 20 25.5 56t36 79.5t39.5 91.5t36 92t26.5 80t10.5 56q0 13 -11.5 25t-32.5 21.5t-49.5 16t-62.5 9.5v77h447v-77z" />
    <glyph glyph-name="thorn" unicode="&#xfe;" horiz-adv-x="1403" 
d="M1333 489q0 -107 -36.5 -201t-102 -164t-156 -110.5t-198.5 -40.5q-164 0 -256 68h-9v-268q0 -16 4 -33t12.5 -31.5t20.5 -26t28 -17.5q25 -10 130 -25l39 -7v-77h-840v77q104 17 123 25q58 16 58 98v1538q0 72 -57 109q-55 36 -116 41v76l580 28l18 -18v-645l11 -2
q141 141 311 141q119 0 202 -43.5t135 -117.5t75.5 -170.5t23.5 -203.5zM870 481q0 361 -168 361q-76 0 -127 -60v-577q41 -129 144 -129q72 0 111.5 101t39.5 304z" />
    <glyph glyph-name="ydieresis" unicode="&#xff;" horiz-adv-x="1241" 
d="M1104 1376q0 -38 -15.5 -71.5t-41.5 -58t-60 -38.5t-72 -14t-72.5 14t-60 38t-40.5 57.5t-15 72.5t15 72.5t40.5 58t60 38.5t72.5 14q37 0 71 -14.5t60.5 -39t42 -58t15.5 -71.5zM563 1376q0 -37 -15.5 -70.5t-41.5 -58t-60 -39t-71 -14.5q-38 0 -72 14t-60 38.5
t-41.5 57.5t-15.5 72t15.5 72t41.5 58t60 39t72 14q37 0 71 -14.5t60 -39t41.5 -58t15.5 -71.5zM1272 918q-27 -6 -47 -13t-36.5 -18t-30.5 -27t-29 -39q-13 -20 -37 -67t-60 -122q-70 -148 -309 -663q-96 -204 -210 -308.5t-257 -104.5q-45 0 -84.5 15t-69.5 42t-47.5 65
t-17.5 84q0 85 53.5 135t147.5 50q112 0 245 -154q69 69 105 152l-90 171q-93 180 -186 352t-187 341q-59 98 -160 111v75h725v-73q-10 0 -31.5 -3.5t-43 -10.5t-38 -17.5t-16.5 -24.5q0 -13 11 -40q53 -112 112 -220.5t123 -214.5q9 20 25.5 56t36 79.5t39.5 91.5t36 92
t26.5 80t10.5 56q0 13 -11.5 25t-32.5 21.5t-49.5 16t-62.5 9.5v77h447v-77z" />
    <glyph glyph-name="Amacron" unicode="&#x100;" horiz-adv-x="1634" 
d="M444 1622v219h762v-219h-762zM799 0v82q6 1 24.5 3t42 5.5t49.5 8.5t47.5 11t35.5 13.5t14 15.5q0 20 -19 70l-92 254h-479q-9 -23 -23.5 -64.5t-29 -86t-25 -85t-10.5 -63.5q0 -27 43 -46t172 -36v-82h-615v82q51 3 92.5 13t75 30.5t59.5 53t46 81.5q115 274 232 570.5
t251 609.5h287q112 -274 194.5 -480.5t137.5 -350.5q38 -100 76.5 -199t80.5 -199q14 -26 34 -49t61 -43q32 -20 68.5 -26t70.5 -11v-82h-901zM659 1077l-198 -508h395z" />
    <glyph glyph-name="amacron" unicode="&#x101;" horiz-adv-x="1311" 
d="M274 1200v219h762v-219h-762zM1294 23q-24 -13 -60 -24t-75 -19t-76.5 -12.5t-64.5 -4.5q-67 0 -118.5 7t-89 23.5t-63.5 43t-42 65.5h-7q-40 -39 -77 -65t-76.5 -42t-85 -23t-103.5 -7q-57 0 -107 17t-87.5 49t-59.5 79t-22 107q0 106 50.5 176t170.5 113q30 11 84.5 29
t133.5 42q139 41 179 60v108q0 107 -25 151t-71 44q-59 0 -106 -31l11 -25q30 -63 30 -118q0 -79 -53 -113.5t-150 -34.5q-100 0 -154.5 42.5t-54.5 123.5q0 46 23.5 81t58.5 61t77.5 43t79.5 27q117 32 259 32q62 0 123 -3.5t117 -16t104 -35t83.5 -61t55.5 -94.5t20 -134
l-2 -180l-8 -275q0 -57 17 -85t52 -35t65 -7h44v-79zM696 541q-39 -22 -74 -41.5t-61 -46t-41.5 -65t-15.5 -97.5q0 -64 29 -101.5t71 -37.5q31 0 50.5 11t39.5 42z" />
    <glyph glyph-name="Abreve" unicode="&#x102;" horiz-adv-x="1634" 
d="M1178 1826q-38 -294 -344 -305q-309 10 -344 304l116 23q36 -79 94.5 -110t133.5 -28q73 -3 132 27t96 111zM799 0v82q6 1 24.5 3t42 5.5t49.5 8.5t47.5 11t35.5 13.5t14 15.5q0 20 -19 70l-92 254h-479q-9 -23 -23.5 -64.5t-29 -86t-25 -85t-10.5 -63.5q0 -27 43 -46
t172 -36v-82h-615v82q51 3 92.5 13t75 30.5t59.5 53t46 81.5q115 274 232 570.5t251 609.5h287q112 -274 194.5 -480.5t137.5 -350.5q38 -100 76.5 -199t80.5 -199q14 -26 34 -49t61 -43q32 -20 68.5 -26t70.5 -11v-82h-901zM659 1077l-198 -508h395z" />
    <glyph glyph-name="abreve" unicode="&#x103;" horiz-adv-x="1311" 
d="M973 1430q-38 -294 -344 -305q-309 10 -344 304l116 23q36 -79 94.5 -110t133.5 -28q73 -3 132 27t96 111zM1294 23q-24 -13 -60 -24t-75 -19t-76.5 -12.5t-64.5 -4.5q-67 0 -118.5 7t-89 23.5t-63.5 43t-42 65.5h-7q-40 -39 -77 -65t-76.5 -42t-85 -23t-103.5 -7
q-57 0 -107 17t-87.5 49t-59.5 79t-22 107q0 106 50.5 176t170.5 113q30 11 84.5 29t133.5 42q139 41 179 60v108q0 107 -25 151t-71 44q-59 0 -106 -31l11 -25q30 -63 30 -118q0 -79 -53 -113.5t-150 -34.5q-100 0 -154.5 42.5t-54.5 123.5q0 46 23.5 81t58.5 61t77.5 43
t79.5 27q117 32 259 32q62 0 123 -3.5t117 -16t104 -35t83.5 -61t55.5 -94.5t20 -134l-2 -180l-8 -275q0 -57 17 -85t52 -35t65 -7h44v-79zM696 541q-39 -22 -74 -41.5t-61 -46t-41.5 -65t-15.5 -97.5q0 -64 29 -101.5t71 -37.5q31 0 50.5 11t39.5 42z" />
    <glyph glyph-name="Aogonek" unicode="&#x104;" horiz-adv-x="1634" 
d="M799 0v82q6 1 24.5 3t42 5.5t49.5 8.5t47.5 11t35.5 13.5t14 15.5q0 20 -19 70l-92 254h-479q-9 -23 -23.5 -64.5t-29 -86t-25 -85t-10.5 -63.5q0 -27 43 -46t172 -36v-82h-615v82q51 3 92.5 13t75 30.5t59.5 53t46 81.5q115 274 232 570.5t251 609.5h287
q112 -274 194.5 -480.5t137.5 -350.5q38 -100 76.5 -199t80.5 -199q14 -26 34 -49t61 -43q32 -20 68.5 -26t70.5 -11v-82h-303l-26 -39q-80 -121 -80 -192q0 -116 210 -131v-82h-6q-91 1 -158.5 6.5t-113.5 15.5q-91 19 -138.5 59.5t-47.5 106.5q0 48 18 86t47.5 68.5
t66.5 55t75 46.5h-445zM659 1077l-198 -508h395z" />
    <glyph glyph-name="aogonek" unicode="&#x105;" horiz-adv-x="1311" 
d="M1294 23q-18 -10 -47.5 -19.5t-61.5 -17.5t-63 -13.5t-53 -6.5l-3 -5q-80 -121 -80 -192q0 -116 210 -131v-82h-6q-91 1 -158.5 6.5t-113.5 15.5q-91 19 -138.5 59.5t-47.5 106.5q0 41 13 74t34.5 60.5t50.5 50t61 42.5q-74 12 -118.5 43t-67.5 88h-7q-40 -39 -77 -65
t-76.5 -42t-85 -23t-103.5 -7q-57 0 -107 17t-87.5 49t-59.5 79t-22 107q0 106 50.5 176t170.5 113q30 11 84.5 29t133.5 42q139 41 179 60v108q0 107 -25 151t-71 44q-59 0 -106 -31l11 -25q30 -63 30 -118q0 -79 -53 -113.5t-150 -34.5q-100 0 -154.5 42.5t-54.5 123.5
q0 46 23.5 81t58.5 61t77.5 43t79.5 27q117 32 259 32q62 0 123 -3.5t117 -16t104 -35t83.5 -61t55.5 -94.5t20 -134l-2 -180l-8 -275q0 -57 17 -85t52 -35t65 -7h44v-79zM696 541q-39 -22 -74 -41.5t-61 -46t-41.5 -65t-15.5 -97.5q0 -64 29 -101.5t71 -37.5q31 0 50.5 11
t39.5 42z" />
    <glyph glyph-name="Cacute" unicode="&#x106;" horiz-adv-x="1528" 
d="M563 1552q45 35 81 66t64 57l70 61q84 75 149.5 108.5t124.5 33.5q63 0 102 -31t39 -82q0 -95 -106 -131q-20 -7 -69.5 -20t-127.5 -32l-299 -73zM1501 354q-78 -139 -168 -222q-91 -81 -209.5 -128t-269.5 -47q-171 0 -315.5 51t-249 146.5t-163 232.5t-58.5 309
q0 179 63.5 320.5t173.5 240t258 151t316 52.5q97 0 197.5 -22.5t187.5 -65.5l73 47h88l11 -526h-90q-27 80 -63.5 162.5t-89 149.5t-124.5 109t-170 42q-165 0 -244.5 -151.5t-79.5 -463.5q0 -157 21 -274t67 -194t119 -115.5t176 -38.5q78 0 142 24t118 65t100.5 95
t88.5 113z" />
    <glyph glyph-name="cacute" unicode="&#x107;" horiz-adv-x="1178" 
d="M406 1137q152 189 231 303q51 71 102 106t123 35q69 0 108.5 -34.5t39.5 -86.5q0 -33 -11.5 -58.5t-30 -45.5t-43.5 -36t-52 -30q-75 -40 -267 -126l-159 -72zM1157 268q-34 -73 -83.5 -129.5t-111 -95.5t-134 -59.5t-152.5 -20.5q-129 0 -239.5 31.5t-191.5 97.5
t-127 167t-46 239q0 76 22 145t62 128t95.5 106.5t122.5 80.5q141 70 320 70q204 0 317 -70q115 -69 115 -188q0 -85 -47 -133.5t-147 -48.5q-105 0 -159 39.5t-54 111.5q0 37 9.5 71.5t21.5 68.5l8 36q-15 27 -56 27q-78 0 -118.5 -105t-40.5 -302q-1 -91 17.5 -165
t52.5 -126.5t81 -81t101 -27.5q42 0 78.5 9.5t70 31.5t65 57t62.5 86z" />
    <glyph glyph-name="Ccircumflex" unicode="&#x108;" horiz-adv-x="1528" 
d="M1159 1509l-348 177l-348 -177l-43 39q27 35 46.5 60.5t35.5 45.5t29.5 37t29 35t34 39.5t44.5 49.5q34 36 74.5 49.5t97.5 13.5q32 0 56.5 -3t44 -9.5t36 -18t31.5 -28.5q78 -84 106 -118q14 -17 44.5 -55t76.5 -98zM1501 354q-78 -139 -168 -222q-91 -81 -209.5 -128
t-269.5 -47q-171 0 -315.5 51t-249 146.5t-163 232.5t-58.5 309q0 179 63.5 320.5t173.5 240t258 151t316 52.5q97 0 197.5 -22.5t187.5 -65.5l73 47h88l11 -526h-90q-27 80 -63.5 162.5t-89 149.5t-124.5 109t-170 42q-165 0 -244.5 -151.5t-79.5 -463.5q0 -157 21 -274
t67 -194t119 -115.5t176 -38.5q78 0 142 24t118 65t100.5 95t88.5 113z" />
    <glyph glyph-name="ccircumflex" unicode="&#x109;" horiz-adv-x="1178" 
d="M999 1094l-348 241l-348 -241l-47 32q40 66 68 113.5t52 86.5t47.5 75t55.5 80q28 38 67.5 54.5t104.5 16.5q64 0 102 -14t66 -53q42 -57 82 -118.5t81 -127.5l70 -113zM1157 268q-34 -73 -83.5 -129.5t-111 -95.5t-134 -59.5t-152.5 -20.5q-129 0 -239.5 31.5
t-191.5 97.5t-127 167t-46 239q0 76 22 145t62 128t95.5 106.5t122.5 80.5q141 70 320 70q204 0 317 -70q115 -69 115 -188q0 -85 -47 -133.5t-147 -48.5q-105 0 -159 39.5t-54 111.5q0 37 9.5 71.5t21.5 68.5l8 36q-15 27 -56 27q-78 0 -118.5 -105t-40.5 -302
q-1 -91 17.5 -165t52.5 -126.5t81 -81t101 -27.5q42 0 78.5 9.5t70 31.5t65 57t62.5 86z" />
    <glyph glyph-name="Cdotaccent" unicode="&#x10a;" horiz-adv-x="1528" 
d="M1063 1697q0 -40 -16.5 -71.5t-44 -53.5t-62.5 -33.5t-72 -11.5q-40 0 -76 11.5t-64 34t-44.5 55.5t-16.5 76q0 42 17 74t45 54.5t64 34t75 11.5t74.5 -13t62 -37t42.5 -57t16 -74zM1501 354q-78 -139 -168 -222q-91 -81 -209.5 -128t-269.5 -47q-171 0 -315.5 51
t-249 146.5t-163 232.5t-58.5 309q0 179 63.5 320.5t173.5 240t258 151t316 52.5q97 0 197.5 -22.5t187.5 -65.5l73 47h88l11 -526h-90q-27 80 -63.5 162.5t-89 149.5t-124.5 109t-170 42q-165 0 -244.5 -151.5t-79.5 -463.5q0 -157 21 -274t67 -194t119 -115.5t176 -38.5
q78 0 142 24t118 65t100.5 95t88.5 113z" />
    <glyph glyph-name="cdotaccent" unicode="&#x10b;" horiz-adv-x="1178" 
d="M844 1339q0 -40 -16.5 -71.5t-44 -53.5t-62.5 -33.5t-72 -11.5q-40 0 -76 11.5t-64 34t-44.5 55.5t-16.5 76q0 42 17 74t45 54.5t64 34t75 11.5t74.5 -13t62 -37t42.5 -57t16 -74zM1157 268q-34 -73 -83.5 -129.5t-111 -95.5t-134 -59.5t-152.5 -20.5q-129 0 -239.5 31.5
t-191.5 97.5t-127 167t-46 239q0 76 22 145t62 128t95.5 106.5t122.5 80.5q141 70 320 70q204 0 317 -70q115 -69 115 -188q0 -85 -47 -133.5t-147 -48.5q-105 0 -159 39.5t-54 111.5q0 37 9.5 71.5t21.5 68.5l8 36q-15 27 -56 27q-78 0 -118.5 -105t-40.5 -302
q-1 -91 17.5 -165t52.5 -126.5t81 -81t101 -27.5q42 0 78.5 9.5t70 31.5t65 57t62.5 86z" />
    <glyph glyph-name="Ccaron" unicode="&#x10c;" horiz-adv-x="1528" 
d="M494 1878l348 -176l348 176l43 -39l-65 -84q-24 -31 -62 -76.5t-92 -105.5q-29 -32 -68 -48t-104 -16q-37 0 -73 6t-67 28q-17 13 -75 76q-30 32 -75 87t-105 133zM1501 354q-78 -139 -168 -222q-91 -81 -209.5 -128t-269.5 -47q-171 0 -315.5 51t-249 146.5t-163 232.5
t-58.5 309q0 179 63.5 320.5t173.5 240t258 151t316 52.5q97 0 197.5 -22.5t187.5 -65.5l73 47h88l11 -526h-90q-27 80 -63.5 162.5t-89 149.5t-124.5 109t-170 42q-165 0 -244.5 -151.5t-79.5 -463.5q0 -157 21 -274t67 -194t119 -115.5t176 -38.5q78 0 142 24t118 65
t100.5 95t88.5 113z" />
    <glyph glyph-name="ccaron" unicode="&#x10d;" horiz-adv-x="1178" 
d="M1038 1520l-70 -113q-41 -66 -81 -127.5t-82 -118.5q-28 -39 -66.5 -53t-101.5 -14q-43 0 -72 6t-51.5 20t-41 36t-40.5 55l-30 45q-8 12 -47.5 77.5t-112.5 186.5l47 32l348 -241l348 241zM1157 268q-34 -73 -83.5 -129.5t-111 -95.5t-134 -59.5t-152.5 -20.5
q-129 0 -239.5 31.5t-191.5 97.5t-127 167t-46 239q0 76 22 145t62 128t95.5 106.5t122.5 80.5q141 70 320 70q204 0 317 -70q115 -69 115 -188q0 -85 -47 -133.5t-147 -48.5q-105 0 -159 39.5t-54 111.5q0 37 9.5 71.5t21.5 68.5l8 36q-15 27 -56 27q-78 0 -118.5 -105
t-40.5 -302q-1 -91 17.5 -165t52.5 -126.5t81 -81t101 -27.5q42 0 78.5 9.5t70 31.5t65 57t62.5 86z" />
    <glyph glyph-name="Dcaron" unicode="&#x10e;" horiz-adv-x="1788" 
d="M471 1878l348 -176l348 176l43 -39l-65 -84q-24 -31 -62 -76.5t-92 -105.5q-29 -32 -68 -48t-104 -16q-37 0 -73 6t-67 28q-17 13 -75 76q-30 32 -75 87t-105 133zM1722 700q0 -127 -35 -228.5t-96.5 -179.5t-145 -133.5t-181.5 -90.5t-206 -51.5t-218 -16.5h-787v82
q124 7 148 20q40 16 53.5 42t13.5 61v993q0 78 -67 109q-9 3 -18.5 6t-19.5 5t-39.5 7t-80.5 12v82h831q111 0 217 -19t200 -57.5t173 -97t136.5 -138.5t89.5 -181.5t32 -225.5zM1212 698q0 303 -94 463t-274 160l-119 -4v-1067q0 -72 40 -113t109 -41q176 0 257 140
q81 141 81 462z" />
    <glyph glyph-name="dcaron" unicode="&#x10f;" horiz-adv-x="1737" 
d="M852 -10l-14 14v92l-9 2q-26 -28 -60.5 -52.5t-73.5 -42.5t-80 -28t-80 -10q-208 0 -336 149q-127 149 -127 398q0 69 16.5 133.5t48 121.5t77.5 105t106 83q116 69 245 69q159 0 271 -63v317q0 64 -51 110t-173 54v78l637 28l13 -18v-1297q0 -42 12 -68.5t43 -37.5
q38 -20 133 -27v-77zM1737 1313q0 -128 -75.5 -217.5t-233.5 -149.5l-43 84q33 15 66 32t61 39.5t49 51.5t30 68h-22q-38 0 -76.5 9t-70 28.5t-51 50.5t-19.5 75q0 38 13.5 68.5t37.5 51.5t56 32.5t69 11.5q97 0 153 -63t56 -172zM836 762q-30 147 -134 147q-38 0 -65.5 -24
t-46 -61.5t-29.5 -84.5t-17 -93t-7.5 -86.5t-1.5 -65.5q0 -359 174 -359q64 0 127 70v557z" />
    <glyph glyph-name="Dcroat" unicode="&#x110;" horiz-adv-x="1788" 
d="M1722 700q0 -127 -35 -228.5t-96.5 -179.5t-145 -133.5t-181.5 -90.5t-206 -51.5t-218 -16.5h-787v82q124 7 148 20q40 16 53.5 42t13.5 61v471h-200v108h200v414q0 78 -67 109q-9 3 -18.5 6t-19.5 5t-39.5 7t-80.5 12v82h831q111 0 217 -19t200 -57.5t173 -97
t136.5 -138.5t89.5 -181.5t32 -225.5zM1212 698q0 303 -94 463t-274 160l-119 -4v-533h303v-108h-303v-426q0 -72 40 -113t109 -41q176 0 257 140q81 141 81 462z" />
    <glyph glyph-name="dcroat" unicode="&#x111;" horiz-adv-x="1464" 
d="M852 -10l-14 14v92l-9 2q-26 -28 -60.5 -52.5t-73.5 -42.5t-80 -28t-80 -10q-208 0 -336 147q-127 148 -127 394q0 102 38.5 194t105.5 161.5t156.5 110t192.5 40.5q75 0 140 -14t131 -50v195h-344v106h344v29q0 64 -51 110t-173 54v78l637 28l13 -18v-281h181v-106h-181
v-910q0 -42 12 -68.5t43 -37.5q38 -20 133 -27v-77zM836 752q-30 145 -134 145q-38 0 -65.5 -23.5t-46 -60.5t-29.5 -83.5t-17 -92t-7.5 -85.5t-1.5 -65q0 -352 174 -352q64 0 127 68v549z" />
    <glyph glyph-name="Emacron" unicode="&#x112;" horiz-adv-x="1534" 
d="M391 1622v219h762v-219h-762zM1456 0h-1399v82l36 3q95 9 135 34t40 90v989q0 34 -13 59.5t-54 45.5q-28 10 -63.5 18.5t-80.5 15.5v82h1329v-377h-77q-15 38 -42.5 81t-63 81t-75.5 67.5t-81 39.5q-46 12 -173 12h-149v-541h94q118 0 189 64q12 11 26 36t27 54.5
t22 57.5t11 44h77v-616h-77q-3 16 -12.5 45.5t-22 60t-26.5 57.5t-25 38q-71 65 -189 65h-94v-399q0 -60 7.5 -97.5t27.5 -59t55.5 -29t91.5 -7.5q235 0 295 54q25 27 54.5 66t58 81.5t53 85t39.5 76.5h76z" />
    <glyph glyph-name="emacron" unicode="&#x113;" horiz-adv-x="1257" 
d="M266 1200v219h762v-219h-762zM1221 246q-43 -66 -99 -118.5t-123.5 -89t-144.5 -56t-162 -19.5q-148 0 -263 37.5t-194.5 107t-121 168.5t-41.5 222q-2 110 41.5 207.5t123 170t189.5 113.5t240 39q127 0 225 -29.5t165 -84.5t101.5 -134.5t34.5 -179.5v-65h-649
q0 -84 12 -157.5t46 -128t94 -85.5t157 -31q43 0 84.5 15t79 40t69.5 56.5t56 64.5zM748 625q0 182 -24 249q-23 68 -75 68q-55 0 -80.5 -80.5t-25.5 -243.5z" />
    <glyph glyph-name="Ebreve" unicode="&#x114;" horiz-adv-x="1534" 
d="M1102 1862q-22 -177 -104 -264t-238 -87q-301 0 -342 351l84 16q19 -48 41 -81.5t52 -54t70 -29.5t95 -9q56 0 96 8.5t69.5 29t51.5 54t41 82.5zM1456 0h-1399v82l36 3q95 9 135 34t40 90v989q0 34 -13 59.5t-54 45.5q-28 10 -63.5 18.5t-80.5 15.5v82h1329v-377h-77
q-15 38 -42.5 81t-63 81t-75.5 67.5t-81 39.5q-46 12 -173 12h-149v-541h94q118 0 189 64q12 11 26 36t27 54.5t22 57.5t11 44h77v-616h-77q-3 16 -12.5 45.5t-22 60t-26.5 57.5t-25 38q-71 65 -189 65h-94v-399q0 -60 7.5 -97.5t27.5 -59t55.5 -29t91.5 -7.5q235 0 295 54
q25 27 54.5 66t58 81.5t53 85t39.5 76.5h76z" />
    <glyph glyph-name="ebreve" unicode="&#x115;" horiz-adv-x="1257" 
d="M993 1559q-46 -418 -342 -418q-147 0 -234 105t-108 313l84 18q16 -54 33.5 -98.5t46 -77t71 -50.5t107.5 -18q66 0 109 17.5t70.5 49.5t45 77t33.5 100zM1221 246q-43 -66 -99 -118.5t-123.5 -89t-144.5 -56t-162 -19.5q-148 0 -263 37.5t-194.5 107t-121 168.5
t-41.5 222q-2 110 41.5 207.5t123 170t189.5 113.5t240 39q127 0 225 -29.5t165 -84.5t101.5 -134.5t34.5 -179.5v-65h-649q0 -84 12 -157.5t46 -128t94 -85.5t157 -31q43 0 84.5 15t79 40t69.5 56.5t56 64.5zM748 625q0 182 -24 249q-23 68 -75 68q-55 0 -80.5 -80.5
t-25.5 -243.5z" />
    <glyph glyph-name="Edotaccent" unicode="&#x116;" horiz-adv-x="1534" 
d="M971 1697q0 -40 -16.5 -71.5t-44 -53.5t-62.5 -33.5t-72 -11.5q-40 0 -76 11.5t-64 34t-44.5 55.5t-16.5 76q0 42 17 74t45 54.5t64 34t75 11.5t74.5 -13t62 -37t42.5 -57t16 -74zM1456 0h-1399v82l36 3q95 9 135 34t40 90v989q0 34 -13 59.5t-54 45.5q-28 10 -63.5 18.5
t-80.5 15.5v82h1329v-377h-77q-15 38 -42.5 81t-63 81t-75.5 67.5t-81 39.5q-46 12 -173 12h-149v-541h94q118 0 189 64q12 11 26 36t27 54.5t22 57.5t11 44h77v-616h-77q-3 16 -12.5 45.5t-22 60t-26.5 57.5t-25 38q-71 65 -189 65h-94v-399q0 -60 7.5 -97.5t27.5 -59
t55.5 -29t91.5 -7.5q235 0 295 54q25 27 54.5 66t58 81.5t53 85t39.5 76.5h76z" />
    <glyph glyph-name="edotaccent" unicode="&#x117;" horiz-adv-x="1257" 
d="M850 1339q0 -40 -16.5 -71.5t-44 -53.5t-62.5 -33.5t-72 -11.5q-40 0 -76 11.5t-64 34t-44.5 55.5t-16.5 76q0 42 17 74t45 54.5t64 34t75 11.5t74.5 -13t62 -37t42.5 -57t16 -74zM1221 246q-43 -66 -99 -118.5t-123.5 -89t-144.5 -56t-162 -19.5q-148 0 -263 37.5
t-194.5 107t-121 168.5t-41.5 222q-2 110 41.5 207.5t123 170t189.5 113.5t240 39q127 0 225 -29.5t165 -84.5t101.5 -134.5t34.5 -179.5v-65h-649q0 -84 12 -157.5t46 -128t94 -85.5t157 -31q43 0 84.5 15t79 40t69.5 56.5t56 64.5zM748 625q0 182 -24 249q-23 68 -75 68
q-55 0 -80.5 -80.5t-25.5 -243.5z" />
    <glyph glyph-name="Eogonek" unicode="&#x118;" horiz-adv-x="1534" 
d="M1456 0h-110l-26 -39q-80 -121 -80 -192q0 -116 210 -131v-82h-6q-91 1 -158.5 6.5t-113.5 15.5q-91 19 -138.5 59.5t-47.5 106.5q0 48 18 86t47.5 68.5t66.5 55t75 46.5h-1136v82l36 3q95 9 135 34t40 90v989q0 34 -13 59.5t-54 45.5q-28 10 -63.5 18.5t-80.5 15.5v82
h1329v-377h-77q-15 38 -42.5 81t-63 81t-75.5 67.5t-81 39.5q-46 12 -173 12h-149v-541h94q118 0 189 64q12 11 26 36t27 54.5t22 57.5t11 44h77v-616h-77q-3 16 -12.5 45.5t-22 60t-26.5 57.5t-25 38q-71 65 -189 65h-94v-399q0 -60 7.5 -97.5t27.5 -59t55.5 -29t91.5 -7.5
q235 0 295 54q25 27 54.5 66t58 81.5t53 85t39.5 76.5h76z" />
    <glyph glyph-name="eogonek" unicode="&#x119;" horiz-adv-x="1257" 
d="M1221 246q-88 -134 -224 -208l-50 -77q-80 -121 -80 -192q0 -116 210 -131v-82h-6q-91 1 -158.5 6.5t-113.5 15.5q-91 19 -138.5 59.5t-47.5 106.5q0 40 12 72.5t33 59t48.5 49t58.5 42.5q-18 -2 -36 -3t-37 -1q-148 0 -263 37.5t-194.5 107t-121 168.5t-41.5 222
q-2 110 41.5 207.5t123 170t189.5 113.5t240 39q127 0 225 -29.5t165 -84.5t101.5 -134.5t34.5 -179.5v-65h-649q0 -84 12 -157.5t46 -128t94 -85.5t157 -31q43 0 84.5 15t79 40t69.5 56.5t56 64.5zM748 625q0 182 -24 249q-23 68 -75 68q-55 0 -80.5 -80.5t-25.5 -243.5z
" />
    <glyph glyph-name="Ecaron" unicode="&#x11a;" horiz-adv-x="1534" 
d="M408 1878l348 -176l348 176l43 -39l-65 -84q-24 -31 -62 -76.5t-92 -105.5q-29 -32 -68 -48t-104 -16q-37 0 -73 6t-67 28q-17 13 -75 76q-30 32 -75 87t-105 133zM1456 0h-1399v82l36 3q95 9 135 34t40 90v989q0 34 -13 59.5t-54 45.5q-28 10 -63.5 18.5t-80.5 15.5v82
h1329v-377h-77q-15 38 -42.5 81t-63 81t-75.5 67.5t-81 39.5q-46 12 -173 12h-149v-541h94q118 0 189 64q12 11 26 36t27 54.5t22 57.5t11 44h77v-616h-77q-3 16 -12.5 45.5t-22 60t-26.5 57.5t-25 38q-71 65 -189 65h-94v-399q0 -60 7.5 -97.5t27.5 -59t55.5 -29t91.5 -7.5
q235 0 295 54q25 27 54.5 66t58 81.5t53 85t39.5 76.5h76z" />
    <glyph glyph-name="ecaron" unicode="&#x11b;" horiz-adv-x="1257" 
d="M1040 1520l-70 -113q-41 -66 -81 -127.5t-82 -118.5q-28 -39 -66.5 -53t-101.5 -14q-43 0 -72 6t-51.5 20t-41 36t-40.5 55l-30 45q-8 12 -47.5 77.5t-112.5 186.5l47 32l348 -241l348 241zM1221 246q-43 -66 -99 -118.5t-123.5 -89t-144.5 -56t-162 -19.5
q-148 0 -263 37.5t-194.5 107t-121 168.5t-41.5 222q-2 110 41.5 207.5t123 170t189.5 113.5t240 39q127 0 225 -29.5t165 -84.5t101.5 -134.5t34.5 -179.5v-65h-649q0 -84 12 -157.5t46 -128t94 -85.5t157 -31q43 0 84.5 15t79 40t69.5 56.5t56 64.5zM748 625
q0 182 -24 249q-23 68 -75 68q-55 0 -80.5 -80.5t-25.5 -243.5z" />
    <glyph glyph-name="Gcircumflex" unicode="&#x11c;" horiz-adv-x="1716" 
d="M1184 1509l-348 177l-348 -177l-43 39q27 35 46.5 60.5t35.5 45.5t29.5 37t29 35t34 39.5t44.5 49.5q34 36 74.5 49.5t97.5 13.5q32 0 56.5 -3t44 -9.5t36 -18t31.5 -28.5q78 -84 106 -118q14 -17 44.5 -55t76.5 -98zM1733 584q-106 -8 -143 -33q-38 -26 -38 -90v-205
l4 -102q-66 -49 -158.5 -86t-193 -62t-199.5 -37t-178 -12q-171 -2 -312 49t-241 147t-154 233.5t-52 307.5q0 188 61 331.5t169.5 240t257.5 145.5t325 49q48 0 100 -6.5t104 -18t102 -27.5t93 -36l78 47h88l8 -534h-88q-42 123 -90 211.5t-103 146.5t-119 85.5t-139 27.5
q-166 0 -253 -155.5t-87 -457.5q0 -331 76 -504t226 -173q69 0 132 19.5t105 55.5v314q0 51 -47 80.5t-154 48.5v82h820v-82z" />
    <glyph glyph-name="gcircumflex" unicode="&#x11d;" horiz-adv-x="1280" 
d="M954 1094l-348 241l-348 -241l-47 32q40 66 68 113.5t52 86.5t47.5 75t55.5 80q28 38 67.5 54.5t104.5 16.5q64 0 102 -14t66 -53q42 -57 82 -118.5t81 -127.5l70 -113zM1255 -61q0 -87 -44 -157.5t-127.5 -121t-205 -77.5t-276.5 -27q-289 0 -436.5 63t-147.5 191
q0 75 79 117.5t239 45.5v13q-35 11 -72 30t-67.5 45.5t-50 61t-19.5 76.5q0 48 25 79.5t62.5 52t80.5 32.5t80 20v8q-57 20 -111 44.5t-97 60t-69 85t-26 117.5q0 148 146 237q148 89 378 89q134 0 252 -33h416v-114h-207q78 -90 78 -191q0 -142 -137 -226
q-137 -83 -359 -83h-172q-11 -8 -21 -25.5t-10 -29.5q0 -37 36 -54t175 -18q79 -2 156 -6.5t153 -10.5q144 -12 221.5 -88.5t77.5 -205.5zM731 690q0 125 -34 188.5t-97 63.5q-123 0 -123 -244q0 -55 8.5 -100.5t24.5 -77.5t39 -49.5t53 -17.5q61 0 95 59.5t34 177.5z
M862 -168q0 95 -74 115q-63 12 -170 12h-159q-47 -58 -47 -129q0 -47 19 -82t50 -58.5t71 -35.5t83 -12q112 0 169.5 45t57.5 145z" />
    <glyph glyph-name="Gbreve" unicode="&#x11e;" horiz-adv-x="1716" 
d="M1214 1862q-22 -177 -104 -264t-238 -87q-301 0 -342 351l84 16q19 -48 41 -81.5t52 -54t70 -29.5t95 -9q56 0 96 8.5t69.5 29t51.5 54t41 82.5zM1733 584q-106 -8 -143 -33q-38 -26 -38 -90v-205l4 -102q-66 -49 -158.5 -86t-193 -62t-199.5 -37t-178 -12
q-171 -2 -312 49t-241 147t-154 233.5t-52 307.5q0 188 61 331.5t169.5 240t257.5 145.5t325 49q48 0 100 -6.5t104 -18t102 -27.5t93 -36l78 47h88l8 -534h-88q-42 123 -90 211.5t-103 146.5t-119 85.5t-139 27.5q-166 0 -253 -155.5t-87 -457.5q0 -331 76 -504t226 -173
q69 0 132 19.5t105 55.5v314q0 51 -47 80.5t-154 48.5v82h820v-82z" />
    <glyph glyph-name="gbreve" unicode="&#x11f;" horiz-adv-x="1280" 
d="M952 1559q-46 -418 -342 -418q-147 0 -234 105t-108 313l84 18q16 -54 33.5 -98.5t46 -77t71 -50.5t107.5 -18q66 0 109 17.5t70.5 49.5t45 77t33.5 100zM1255 -61q0 -87 -44 -157.5t-127.5 -121t-205 -77.5t-276.5 -27q-289 0 -436.5 63t-147.5 191q0 75 79 117.5
t239 45.5v13q-35 11 -72 30t-67.5 45.5t-50 61t-19.5 76.5q0 48 25 79.5t62.5 52t80.5 32.5t80 20v8q-57 20 -111 44.5t-97 60t-69 85t-26 117.5q0 148 146 237q148 89 378 89q134 0 252 -33h416v-114h-207q78 -90 78 -191q0 -142 -137 -226q-137 -83 -359 -83h-172
q-11 -8 -21 -25.5t-10 -29.5q0 -37 36 -54t175 -18q79 -2 156 -6.5t153 -10.5q144 -12 221.5 -88.5t77.5 -205.5zM731 690q0 125 -34 188.5t-97 63.5q-123 0 -123 -244q0 -55 8.5 -100.5t24.5 -77.5t39 -49.5t53 -17.5q61 0 95 59.5t34 177.5zM862 -168q0 95 -74 115
q-63 12 -170 12h-159q-47 -58 -47 -129q0 -47 19 -82t50 -58.5t71 -35.5t83 -12q112 0 169.5 45t57.5 145z" />
    <glyph glyph-name="Gdotaccent" unicode="&#x120;" horiz-adv-x="1716" 
d="M1059 1697q0 -40 -16.5 -71.5t-44 -53.5t-62.5 -33.5t-72 -11.5q-40 0 -76 11.5t-64 34t-44.5 55.5t-16.5 76q0 42 17 74t45 54.5t64 34t75 11.5t74.5 -13t62 -37t42.5 -57t16 -74zM1733 584q-106 -8 -143 -33q-38 -26 -38 -90v-205l4 -102q-66 -49 -158.5 -86t-193 -62
t-199.5 -37t-178 -12q-171 -2 -312 49t-241 147t-154 233.5t-52 307.5q0 188 61 331.5t169.5 240t257.5 145.5t325 49q48 0 100 -6.5t104 -18t102 -27.5t93 -36l78 47h88l8 -534h-88q-42 123 -90 211.5t-103 146.5t-119 85.5t-139 27.5q-166 0 -253 -155.5t-87 -457.5
q0 -331 76 -504t226 -173q69 0 132 19.5t105 55.5v314q0 51 -47 80.5t-154 48.5v82h820v-82z" />
    <glyph glyph-name="gdotaccent" unicode="&#x121;" horiz-adv-x="1280" 
d="M813 1339q0 -40 -16.5 -71.5t-44 -53.5t-62.5 -33.5t-72 -11.5q-40 0 -76 11.5t-64 34t-44.5 55.5t-16.5 76q0 42 17 74t45 54.5t64 34t75 11.5t74.5 -13t62 -37t42.5 -57t16 -74zM1255 -61q0 -87 -44 -157.5t-127.5 -121t-205 -77.5t-276.5 -27q-289 0 -436.5 63
t-147.5 191q0 75 79 117.5t239 45.5v13q-35 11 -72 30t-67.5 45.5t-50 61t-19.5 76.5q0 48 25 79.5t62.5 52t80.5 32.5t80 20v8q-57 20 -111 44.5t-97 60t-69 85t-26 117.5q0 148 146 237q148 89 378 89q134 0 252 -33h416v-114h-207q78 -90 78 -191q0 -142 -137 -226
q-137 -83 -359 -83h-172q-11 -8 -21 -25.5t-10 -29.5q0 -37 36 -54t175 -18q79 -2 156 -6.5t153 -10.5q144 -12 221.5 -88.5t77.5 -205.5zM731 690q0 125 -34 188.5t-97 63.5q-123 0 -123 -244q0 -55 8.5 -100.5t24.5 -77.5t39 -49.5t53 -17.5q61 0 95 59.5t34 177.5z
M862 -168q0 95 -74 115q-63 12 -170 12h-159q-47 -58 -47 -129q0 -47 19 -82t50 -58.5t71 -35.5t83 -12q112 0 169.5 45t57.5 145z" />
    <glyph glyph-name="uni0122" unicode="&#x122;" horiz-adv-x="1716" 
d="M1733 584q-106 -8 -143 -33q-38 -26 -38 -90v-205l4 -102q-66 -49 -158.5 -86t-193 -62t-199.5 -37t-178 -12q-171 -2 -312 49t-241 147t-154 233.5t-52 307.5q0 188 61 331.5t169.5 240t257.5 145.5t325 49q48 0 100 -6.5t104 -18t102 -27.5t93 -36l78 47h88l8 -534h-88
q-42 123 -90 211.5t-103 146.5t-119 85.5t-139 27.5q-166 0 -253 -155.5t-87 -457.5q0 -331 76 -504t226 -173q69 0 132 19.5t105 55.5v314q0 51 -47 80.5t-154 48.5v82h820v-82zM1084 -231q0 -108 -88.5 -160.5t-253.5 -52.5v67q30 1 65 5t66.5 15t55 32t32.5 57h-58
q-94 0 -129 18q-34 16 -34 86q0 24 12 42.5t33 31t50 18.5t62 6q95 0 141 -46t46 -119z" />
    <glyph glyph-name="uni0123" unicode="&#x123;" horiz-adv-x="1280" 
d="M401 1331q0 72 28.5 133t75 111t104.5 88.5t118 65.5l43 -84q-87 -39 -146.5 -98t-76.5 -126h22q105 0 161.5 -41t56.5 -110q0 -34 -12.5 -62.5t-35.5 -48.5t-55.5 -31.5t-73.5 -11.5q-103 0 -156 55t-53 160zM1255 -61q0 -87 -44 -157.5t-127.5 -121t-205 -77.5
t-276.5 -27q-289 0 -436.5 63t-147.5 191q0 75 79 117.5t239 45.5v13q-35 11 -72 30t-67.5 45.5t-50 61t-19.5 76.5q0 48 25 79.5t62.5 52t80.5 32.5t80 20v8q-57 20 -111 44.5t-97 60t-69 85t-26 117.5q0 148 146 237q148 89 378 89q134 0 252 -33h416v-114h-207
q78 -90 78 -191q0 -142 -137 -226q-137 -83 -359 -83h-172q-11 -8 -21 -25.5t-10 -29.5q0 -37 36 -54t175 -18q79 -2 156 -6.5t153 -10.5q144 -12 221.5 -88.5t77.5 -205.5zM731 690q0 125 -34 188.5t-97 63.5q-123 0 -123 -244q0 -55 8.5 -100.5t24.5 -77.5t39 -49.5
t53 -17.5q61 0 95 59.5t34 177.5zM862 -168q0 95 -74 115q-63 12 -170 12h-159q-47 -58 -47 -129q0 -47 19 -82t50 -58.5t71 -35.5t83 -12q112 0 169.5 45t57.5 145z" />
    <glyph glyph-name="Hcircumflex" unicode="&#x124;" horiz-adv-x="1972" 
d="M1331 1509l-348 177l-348 -177l-43 39q27 35 46.5 60.5t35.5 45.5t29.5 37t29 35t34 39.5t44.5 49.5q34 36 74.5 49.5t97.5 13.5q32 0 56.5 -3t44 -9.5t36 -18t31.5 -28.5q78 -84 106 -118q14 -17 44.5 -55t76.5 -98zM1032 0v82q116 7 155 23q38 17 50 49q12 35 8 51v475
h-520v-465q0 -80 70 -102q27 -14 145 -31v-82h-891v82q58 5 96.5 10.5t57.5 12.5q39 13 52 40.5t13 63.5v989q0 27 -7.5 45.5t-21 31.5t-33 21t-43.5 15q-61 19 -114 26v82h891v-82q-107 -14 -134 -21q-81 -22 -81 -108v-411h520v401q0 51 -30 76t-75 38q-29 8 -55.5 14.5
t-52.5 10.5v82h891v-82q-129 -17 -154 -24q-41 -16 -54 -43.5t-13 -61.5v-993q0 -77 67 -102q14 -7 52.5 -15t101.5 -16v-82h-891z" />
    <glyph glyph-name="hcircumflex" unicode="&#x125;" horiz-adv-x="1493" 
d="M1055 1509l-348 177l-349 -177l-43 39l66 85q32 42 70.5 87t83.5 95q29 32 68 47.5t104 15.5q26 0 48.5 -2t42.5 -8t38.5 -17.5t37.5 -31.5q47 -49 87 -94.5t74 -90.5l67 -86zM782 0v80q51 0 82 14q17 13 21 37t4 62v438q0 104 -28 149t-89 45q-42 0 -85.5 -28t-82.5 -80
v-514q0 -37 7.5 -58.5t27.5 -40.5q27 -14 82 -24v-80h-696v80q81 0 117 24t36 89v966q0 27 -9 55.5t-26 48.5q-10 12 -28 22.5t-38.5 18t-41 12t-35.5 5.5v76l590 28l14 -18v-565h4l65 64q61 60 135.5 89t170.5 29q81 0 144.5 -24t107.5 -69t67 -109t23 -144v-477
q2 -27 5 -46.5t16.5 -34t42 -24t81.5 -16.5v-80h-684z" />
    <glyph glyph-name="Hbar" unicode="&#x126;" horiz-adv-x="1972" 
d="M68 1006v110h200v82q0 27 -7.5 45.5t-21 31.5t-33 21t-43.5 15q-61 19 -114 26v82h891v-82q-107 -14 -134 -21q-81 -22 -81 -108v-92h520v82q0 51 -30 76t-75 38q-29 8 -55.5 14.5t-52.5 10.5v82h891v-82q-129 -17 -154 -24q-41 -16 -54 -43.5t-13 -61.5v-92h201v-110
h-201v-791q0 -77 67 -102q14 -7 52.5 -15t101.5 -16v-82h-891v82q116 7 155 23q38 17 50 49q12 35 8 51v475h-520v-465q0 -80 70 -102q27 -14 145 -31v-82h-891v82q58 5 96.5 10.5t57.5 12.5q39 13 52 40.5t13 63.5v797h-200zM725 1006v-209h520v209h-520z" />
    <glyph glyph-name="hbar" unicode="&#x127;" horiz-adv-x="1493" 
d="M782 0v80q51 0 82 14q17 13 21 37t4 62v430q0 104 -28 149t-89 45q-42 0 -85.5 -28t-82.5 -80v-506q0 -37 7.5 -58.5t27.5 -40.5q27 -14 82 -24v-80h-696v80q81 0 117 24t36 89v950h-231v106h231v33q0 27 -9.5 56.5t-26.5 48.5q-9 11 -27 21t-39 18t-41.5 12.5t-34.5 5.5
v76l590 28l14 -18v-281h352v-106h-352v-309h4l65 64q61 60 135.5 89t170.5 29q81 0 144.5 -24t107.5 -69t67 -109t23 -144v-469q2 -27 5 -46.5t16.5 -34t42 -24t81.5 -16.5v-80h-684z" />
    <glyph glyph-name="Itilde" unicode="&#x128;" horiz-adv-x="993" 
d="M885 1791q-16 -43 -42.5 -84t-61 -73t-76.5 -52t-89 -22q-39 -2 -78 6t-73 28q-13 8 -27.5 16t-28.5 15.5t-26 12.5t-20 5q-27 2 -47.5 -5t-36.5 -20t-29 -31.5t-25 -38.5l-111 49q25 62 54.5 105.5t63 71.5t70.5 41t76 14q37 1 80 -8.5t79 -26.5q34 -16 64 -32t48 -16
q28 0 47 5.5t32.5 17.5t24 29.5t22.5 41.5zM51 0v82q135 11 154 20q40 14 51.5 41t11.5 64v991q0 71 -63 105q-10 4 -30 9t-51 11t-49 9.5t-24 4.5v82h891v-82l-34 -4q-45 -6 -74.5 -11t-45.5 -9q-41 -16 -52 -43.5t-11 -61.5v-993q0 -76 63 -102q18 -12 154 -31v-82h-891z
" />
    <glyph glyph-name="itilde" unicode="&#x129;" horiz-adv-x="813" 
d="M797 1397q-16 -43 -42.5 -84t-61 -73t-76.5 -52t-89 -22q-39 -2 -78 6t-73 28q-13 8 -27.5 16t-28.5 15.5t-26 12.5t-20 5q-27 2 -47.5 -5t-36.5 -20t-29 -31.5t-25 -38.5l-111 49q25 62 54.5 105.5t63 71.5t70.5 41t76 14q37 1 80 -8.5t79 -26.5q34 -16 64 -32t48 -16
q28 0 47 5.5t32.5 17.5t24 29.5t22.5 41.5zM45 0v80q87 0 123.5 28t36.5 85v563q0 41 -22 70q-10 15 -29 28t-41.5 23t-45 16t-40.5 8v80l587 27l17 -15v-788q0 -36 13.5 -58.5t35 -36t50 -20t58.5 -10.5v-80h-743z" />
    <glyph glyph-name="Imacron" unicode="&#x12a;" horiz-adv-x="993" 
d="M51 1622v219h891v-219h-891zM51 0v82q135 11 154 20q40 14 51.5 41t11.5 64v991q0 71 -63 105q-10 4 -30 9t-51 11t-49 9.5t-24 4.5v82h891v-82l-34 -4q-45 -6 -74.5 -11t-45.5 -9q-41 -16 -52 -43.5t-11 -61.5v-993q0 -76 63 -102q18 -12 154 -31v-82h-891z" />
    <glyph glyph-name="imacron" unicode="&#x12b;" horiz-adv-x="813" 
d="M18 1200v219h762v-219h-762zM45 0v80q87 0 123.5 28t36.5 85v563q0 41 -22 70q-10 15 -29 28t-41.5 23t-45 16t-40.5 8v80l587 27l17 -15v-788q0 -36 13.5 -58.5t35 -36t50 -20t58.5 -10.5v-80h-743z" />
    <glyph glyph-name="Ibreve" unicode="&#x12c;" horiz-adv-x="993" 
d="M840 1862q-22 -177 -104 -264t-238 -87q-301 0 -342 351l84 16q19 -48 41 -81.5t52 -54t70 -29.5t95 -9q56 0 96 8.5t69.5 29t51.5 54t41 82.5zM51 0v82q135 11 154 20q40 14 51.5 41t11.5 64v991q0 71 -63 105q-10 4 -30 9t-51 11t-49 9.5t-24 4.5v82h891v-82l-34 -4
q-45 -6 -74.5 -11t-45.5 -9q-41 -16 -52 -43.5t-11 -61.5v-993q0 -76 63 -102q18 -12 154 -31v-82h-891z" />
    <glyph glyph-name="ibreve" unicode="&#x12d;" horiz-adv-x="813" 
d="M737 1559q-46 -418 -342 -418q-147 0 -234 105t-108 313l84 18q16 -54 33.5 -98.5t46 -77t71 -50.5t107.5 -18q66 0 109 17.5t70.5 49.5t45 77t33.5 100zM45 0v80q87 0 123.5 28t36.5 85v563q0 41 -22 70q-10 15 -29 28t-41.5 23t-45 16t-40.5 8v80l587 27l17 -15v-788
q0 -36 13.5 -58.5t35 -36t50 -20t58.5 -10.5v-80h-743z" />
    <glyph glyph-name="Iogonek" unicode="&#x12e;" horiz-adv-x="993" 
d="M51 0v82q135 11 154 20q40 14 51.5 41t11.5 64v991q0 71 -63 105q-10 4 -30 9t-51 11t-49 9.5t-24 4.5v82h891v-82l-34 -4q-45 -6 -74.5 -11t-45.5 -9q-41 -16 -52 -43.5t-11 -61.5v-993q0 -76 63 -102q18 -12 154 -31v-82h-285l-26 -39q-80 -121 -80 -192
q0 -116 210 -131v-82h-6q-91 1 -158.5 6.5t-113.5 15.5q-91 19 -138.5 59.5t-47.5 106.5q0 48 18 86t47.5 68.5t66.5 55t75 46.5h-453z" />
    <glyph glyph-name="iogonek" unicode="&#x12f;" horiz-adv-x="813" 
d="M628 1330q0 -42 -19 -74t-49.5 -54t-68 -33t-75.5 -11q-39 0 -76.5 12t-67 34.5t-48 55.5t-18.5 75t18.5 75t48 56t67 35t76.5 12t77 -13t68 -36.5t48.5 -57.5t18.5 -76zM45 0v80q87 0 123.5 28t36.5 85v563q0 41 -22 70q-10 15 -29 28t-41.5 23t-45 16t-40.5 8v80
l587 27l17 -15v-788q0 -36 13.5 -58.5t35 -36t50 -20t58.5 -10.5v-80h-182l-26 -39q-80 -121 -80 -192q0 -116 210 -131v-82h-6q-91 1 -158.5 6.5t-113.5 15.5q-91 19 -138.5 59.5t-47.5 106.5q0 48 18 86t47.5 68.5t66.5 55t75 46.5h-408z" />
    <glyph glyph-name="Idotaccent" unicode="&#x130;" horiz-adv-x="993" 
d="M697 1697q0 -40 -16.5 -71.5t-44 -53.5t-62.5 -33.5t-72 -11.5q-40 0 -76 11.5t-64 34t-44.5 55.5t-16.5 76q0 42 17 74t45 54.5t64 34t75 11.5t74.5 -13t62 -37t42.5 -57t16 -74zM51 0v82q135 11 154 20q40 14 51.5 41t11.5 64v991q0 71 -63 105q-10 4 -30 9t-51 11
t-49 9.5t-24 4.5v82h891v-82l-34 -4q-45 -6 -74.5 -11t-45.5 -9q-41 -16 -52 -43.5t-11 -61.5v-993q0 -76 63 -102q18 -12 154 -31v-82h-891z" />
    <glyph glyph-name="dotlessi" unicode="&#x131;" horiz-adv-x="813" 
d="M45 0v80q87 0 123.5 28t36.5 85v563q0 41 -22 70q-10 15 -29 28t-41.5 23t-45 16t-40.5 8v80l587 27l17 -15v-788q0 -36 13.5 -58.5t35 -36t50 -20t58.5 -10.5v-80h-743z" />
    <glyph glyph-name="IJ" unicode="&#x132;" horiz-adv-x="2281" 
d="M51 0v82q135 11 154 20q40 14 51.5 41t11.5 64v991q0 71 -63 105q-10 4 -30 9t-51 11t-49 9.5t-24 4.5v82h891v-82l-34 -4q-45 -6 -74.5 -11t-45.5 -9q-41 -16 -52 -43.5t-11 -61.5v-993q0 -76 63 -102q18 -12 154 -31v-82h-891zM2230 1337q-109 -16 -141 -30
q-31 -13 -42.5 -39t-11.5 -60v-741q0 -134 -48.5 -230t-132 -158t-195 -91t-236.5 -29q-80 0 -160.5 17.5t-145 57.5t-105 104.5t-40.5 158.5q0 53 17 98t48 77.5t75 50.5t98 18q48 0 87 -15.5t66.5 -44t42.5 -68t15 -87.5q0 -66 -36 -117.5t-120 -93.5v-25q18 -20 60 -20
q56 0 103 19.5t81 56.5t53 91.5t19 124.5v836q0 53 -23 76.5t-73 37.5q-29 8 -55.5 14.5t-51.5 10.5v82h852v-82z" />
    <glyph glyph-name="ij" unicode="&#x133;" horiz-adv-x="1561" 
d="M628 1330q0 -42 -19 -74t-49.5 -54t-68 -33t-75.5 -11q-39 0 -76.5 12t-67 34.5t-48 55.5t-18.5 75t18.5 75t48 56t67 35t76.5 12t77 -13t68 -36.5t48.5 -57.5t18.5 -76zM1402 1330q0 -42 -19 -74t-49.5 -54t-68 -33t-75.5 -11q-39 0 -76.5 12t-67 34.5t-48 55.5
t-18.5 75t18.5 75t48 56t67 35t76.5 12t77 -13t68 -36.5t48.5 -57.5t18.5 -76zM45 0v80q87 0 123.5 28t36.5 85v563q0 41 -22 70q-10 15 -29 28t-41.5 23t-45 16t-40.5 8v80l587 27l17 -15v-788q0 -36 13.5 -58.5t35 -36t50 -20t58.5 -10.5v-80h-743zM1409 160
q0 -171 -83 -314q-84 -144 -224.5 -217t-327.5 -73q-142 0 -221.5 54t-79.5 154q0 87 54.5 138t150.5 51q31 0 55 -5.5t44.5 -17.5t37 -30.5t32.5 -44.5q17 -26 39.5 -77.5t51.5 -127.5q22 28 29 104q4 38 6 124t2 222v654q0 72 -59 107q-29 17 -55.5 26.5t-49.5 11.5v82
l584 27l14 -15v-833z" />
    <glyph glyph-name="Jcircumflex" unicode="&#x134;" horiz-adv-x="1329" 
d="M1190 1509l-348 177l-348 -177l-43 39q27 35 46.5 60.5t35.5 45.5t29.5 37t29 35t34 39.5t44.5 49.5q34 36 74.5 49.5t97.5 13.5q32 0 56.5 -3t44 -9.5t36 -18t31.5 -28.5q78 -84 106 -118q14 -17 44.5 -55t76.5 -98zM1278 1337q-109 -16 -141 -30q-31 -13 -42.5 -39
t-11.5 -60v-741q0 -134 -48.5 -230t-132 -158t-195 -91t-236.5 -29q-80 0 -160.5 17.5t-145 57.5t-105 104.5t-40.5 158.5q0 53 17 98t48 77.5t75 50.5t98 18q48 0 87 -15.5t66.5 -44t42.5 -68t15 -87.5q0 -66 -36 -117.5t-120 -93.5v-25q18 -20 60 -20q56 0 103 19.5
t81 56.5t53 91.5t19 124.5v836q0 53 -23 76.5t-73 37.5q-29 8 -55.5 14.5t-51.5 10.5v82h852v-82z" />
    <glyph glyph-name="jcircumflex" unicode="&#x135;" horiz-adv-x="786" 
d="M735 1094l-348 241l-348 -241l-47 32q40 66 68 113.5t52 86.5t47.5 75t55.5 80q28 38 67.5 54.5t104.5 16.5q64 0 102 -14t66 -53q42 -57 82 -118.5t81 -127.5l70 -113zM635 160q0 -171 -83 -314q-84 -144 -224.5 -217t-327.5 -73q-142 0 -221.5 54t-79.5 154
q0 87 54.5 138t150.5 51q61 0 99.5 -23t69.5 -75q17 -26 39.5 -77.5t51.5 -127.5q22 28 29 104q4 38 6 124t2 222v654q0 72 -59 107q-29 17 -55.5 26.5t-49.5 11.5v82l584 27l14 -15v-833z" />
    <glyph glyph-name="uni0136" unicode="&#x136;" horiz-adv-x="1808" 
d="M1200 0q-108 183 -208.5 339.5t-196.5 289.5h-70v-414q0 -34 13.5 -59.5t54.5 -42.5q21 -13 120 -31v-82h-870v82q133 9 158 20q67 22 67 103v993q0 64 -43 92q-42 27 -182 47v82h911v-82q-125 -9 -164 -25t-52 -42.5t-13 -61.5v-471h55q19 18 61 59t93.5 94t106.5 112.5
t100.5 114.5t74.5 100t29 69q0 25 -33.5 35.5t-109.5 15.5v82h674v-82q-80 -11 -136.5 -25t-103.5 -36t-93 -54.5t-105 -81.5q-43 -36 -104 -95.5t-140 -143.5l98 -131q60 -85 119 -165t119 -158t108 -135t83 -95q36 -38 70 -63t66 -40.5t62.5 -22.5t60.5 -9v-82h-680z
M1153 -231q0 -108 -88.5 -160.5t-253.5 -52.5v67q30 1 65 5t66.5 15t55 32t32.5 57h-58q-94 0 -129 18q-34 16 -34 86q0 24 12 42.5t33 31t50 18.5t62 6q95 0 141 -46t46 -119z" />
    <glyph glyph-name="uni0137" unicode="&#x137;" horiz-adv-x="1417" 
d="M885 0l-70 139q-38 78 -79 150t-85 141l-47 -31v-206q0 -72 44 -93q45 -20 91 -20v-80h-714v80q38 0 82 10q23 6 37 15t21.5 22t10 29.5t2.5 36.5v1091q0 39 -14.5 68.5t-39 49.5t-56.5 30.5t-68 11.5v76l590 28l14 -18v-1024q164 158 270 276q52 55 52 92q0 30 -127 48
v73h559v-71q-38 -9 -69.5 -18t-61 -20t-58.5 -25t-63 -34q-46 -26 -88 -55.5t-82 -64.5l358 -557q16 -26 53.5 -44t110.5 -26v-80h-573zM971 -231q0 -108 -88.5 -160.5t-253.5 -52.5v67q30 1 65 5t66.5 15t55 32t32.5 57h-58q-94 0 -129 18q-34 16 -34 86q0 24 12 42.5
t33 31t50 18.5t62 6q95 0 141 -46t46 -119z" />
    <glyph glyph-name="kgreenlandic" unicode="&#x138;" horiz-adv-x="1417" 
d="M885 0l-70 139q-38 78 -79 150t-85 141l-47 -31v-206q0 -72 44 -93q45 -20 91 -20v-80h-714v80q38 0 82 10q23 6 37 15t21.5 22t10 29.5t2.5 36.5v555q-2 23 -8.5 47t-24 45t-50.5 37.5t-89 23.5v80l584 27l14 -19v-483q164 158 270 276q52 55 52 92q0 30 -127 48v73h559
v-71q-38 -9 -69.5 -18t-61 -20t-58.5 -25t-63 -34q-46 -26 -88 -55.5t-82 -64.5l358 -557q16 -26 53.5 -44t110.5 -26v-80h-573z" />
    <glyph glyph-name="Lacute" unicode="&#x139;" horiz-adv-x="1481" 
d="M461 1552q45 35 81 66t64 57l70 61q84 75 149.5 108.5t124.5 33.5q63 0 102 -31t39 -82q0 -95 -106 -131q-20 -7 -69.5 -20t-127.5 -32l-299 -73zM1454 0h-1405v82l39 5q95 11 126 24q31 14 42.5 40t11.5 58v993q0 34 -13 58.5t-54 44.5q-35 12 -77.5 19t-74.5 13v82h905
v-82l-37 -4q-15 -1 -34.5 -3t-39 -5.5t-38 -8t-31.5 -10.5q-23 -11 -36 -31.5t-13 -62.5v-921q0 -84 15 -123q16 -39 55 -55q39 -15 141 -15q46 0 80.5 1.5t57.5 3.5q25 3 45.5 7t38.5 11.5t34.5 19.5t33.5 31q27 29 52.5 67t48.5 79t43 82t37 77h74z" />
    <glyph glyph-name="lacute" unicode="&#x13a;" horiz-adv-x="788" 
d="M113 1552q45 35 81 66t64 57l70 61q84 75 149.5 108.5t124.5 33.5q63 0 102 -31t39 -82q0 -94 -106 -131q-20 -7 -69.5 -20t-127.5 -32l-299 -73zM33 0v80q75 0 111 23.5t36 89.5v960q0 84 -59 123q-63 38 -123 45v76l598 28l14 -18v-1202q0 -60 36 -88t114 -37v-80h-727
z" />
    <glyph glyph-name="uni013B" unicode="&#x13b;" horiz-adv-x="1481" 
d="M1454 0h-1405v82l39 5q95 11 126 24q31 14 42.5 40t11.5 58v993q0 34 -13 58.5t-54 44.5q-35 12 -77.5 19t-74.5 13v82h905v-82l-37 -4q-15 -1 -34.5 -3t-39 -5.5t-38 -8t-31.5 -10.5q-23 -11 -36 -31.5t-13 -62.5v-921q0 -84 15 -123q16 -39 55 -55q39 -15 141 -15
q46 0 80.5 1.5t57.5 3.5q25 3 45.5 7t38.5 11.5t34.5 19.5t33.5 31q27 29 52.5 67t48.5 79t43 82t37 77h74zM1008 -231q0 -108 -88.5 -160.5t-253.5 -52.5v67q30 1 65 5t66.5 15t55 32t32.5 57h-58q-94 0 -129 18q-34 16 -34 86q0 24 12 42.5t33 31t50 18.5t62 6
q95 0 141 -46t46 -119z" />
    <glyph glyph-name="uni013C" unicode="&#x13c;" horiz-adv-x="788" 
d="M33 0v80q75 0 111 23.5t36 89.5v1083q0 89 -59 121q-9 7 -23 15t-30.5 14.5t-34.5 11.5t-35 6v76l598 28l14 -18v-1325q0 -60 36 -88t114 -37v-80h-727zM572 -231q0 -108 -88.5 -160.5t-253.5 -52.5v67q30 1 65 5t66.5 15t55 32t32.5 57h-58q-94 0 -129 18q-34 16 -34 86
q0 24 12 42.5t33 31t50 18.5t62 6q95 0 141 -46t46 -119z" />
    <glyph glyph-name="Lcaron" unicode="&#x13d;" horiz-adv-x="1481" 
d="M1436 1200q0 -128 -75.5 -217.5t-233.5 -149.5l-43 84q33 15 66 32t61 39.5t49 51.5t30 68h-22q-38 0 -76.5 9t-70 28.5t-51 50.5t-19.5 75q0 38 13.5 68.5t37.5 51.5t56 32.5t69 11.5q97 0 153 -63t56 -172zM1454 0h-1405v82l39 5q95 11 126 24q31 14 42.5 40t11.5 58
v993q0 34 -13 58.5t-54 44.5q-35 12 -77.5 19t-74.5 13v82h905v-82l-37 -4q-15 -1 -34.5 -3t-39 -5.5t-38 -8t-31.5 -10.5q-23 -11 -36 -31.5t-13 -62.5v-921q0 -84 15 -123q16 -39 55 -55q39 -15 141 -15q46 0 80.5 1.5t57.5 3.5q25 3 45.5 7t38.5 11.5t34.5 19.5t33.5 31
q27 29 52.5 67t48.5 79t43 82t37 77h74z" />
    <glyph glyph-name="lcaron" unicode="&#x13e;" horiz-adv-x="1085" 
d="M33 0v80q75 0 111 23.5t36 89.5v1083q0 89 -59 121q-9 7 -23 15t-30.5 14.5t-34.5 11.5t-35 6v76l598 28l14 -18v-1325q0 -60 36 -88t114 -37v-80h-727zM1086 1313q0 -128 -75.5 -217.5t-233.5 -149.5l-43 84q33 15 66 32t61 39.5t49 51.5t30 68h-22q-38 0 -76.5 9
t-70 28.5t-51 50.5t-19.5 75q0 38 13.5 68.5t37.5 51.5t56 32.5t69 11.5q97 0 153 -63t56 -172z" />
    <glyph glyph-name="Ldot" unicode="&#x13f;" horiz-adv-x="1481" 
d="M1454 0h-1405v82l39 5q95 11 126 24q31 14 42.5 40t11.5 58v993q0 34 -13 58.5t-54 44.5q-35 12 -77.5 19t-74.5 13v82h905v-82l-37 -4q-15 -1 -34.5 -3t-39 -5.5t-38 -8t-31.5 -10.5q-23 -11 -36 -31.5t-13 -62.5v-921q0 -84 15 -123q16 -39 55 -55q39 -15 141 -15
q46 0 80.5 1.5t57.5 3.5q25 3 45.5 7t38.5 11.5t34.5 19.5t33.5 31q27 29 52.5 67t48.5 79t43 82t37 77h74zM1370 758q0 -48 -19.5 -91t-52 -75.5t-76 -51t-91.5 -18.5q-49 0 -93 18t-77 49.5t-52.5 75t-19.5 93.5t19.5 93.5t52.5 76t77 51t93 18.5t92.5 -19t76 -51.5
t51.5 -76t19 -92.5z" />
    <glyph glyph-name="ldot" unicode="&#x140;" horiz-adv-x="1214" 
d="M33 0v80q75 0 111 23.5t36 89.5v1083q0 89 -59 121q-9 7 -23 15t-30.5 14.5t-34.5 11.5t-35 6v76l598 28l14 -18v-1325q0 -60 36 -88t114 -37v-80h-727zM1236 670q0 -48 -19.5 -91t-52 -75.5t-76 -51t-91.5 -18.5q-49 0 -93 18t-77 49.5t-52.5 75t-19.5 93.5t19.5 93.5
t52.5 76t77 51t93 18.5t92.5 -19t76 -51.5t51.5 -76t19 -92.5z" />
    <glyph glyph-name="Lslash" unicode="&#x141;" horiz-adv-x="1481" 
d="M725 291q0 -94 16 -129q17 -37 57 -50q42 -14 158 -14q56 0 97 3t69 8q32 7 56.5 22.5t45 36.5t37.5 46.5t33 50.5q23 35 51 87.5t62 124.5h74l-27 -477h-1405v82l39 5q95 11 126 24q31 14 42.5 40t11.5 58v387l-172 -70l-45 101l217 88v487q0 34 -13 58.5t-54 44.5
q-35 12 -77.5 19t-74.5 13v82h909v-82l-38 -4q-119 -11 -157 -35t-38 -86v-315l250 102l45 -94l-295 -123v-491z" />
    <glyph glyph-name="lslash" unicode="&#x142;" horiz-adv-x="788" 
d="M610 772v-567q0 -60 36 -88t114 -37v-80h-727v80q75 0 111 23.5t36 89.5v419l-123 -49l-34 101l157 61v551q0 86 -67 125q-67 40 -115 43v76l598 28l14 -18v-641l129 49l35 -100z" />
    <glyph glyph-name="Nacute" unicode="&#x143;" horiz-adv-x="1774" 
d="M715 1552q45 35 81 66t64 57l70 61q84 75 149.5 108.5t124.5 33.5q63 0 102 -31t39 -82q0 -95 -106 -131q-20 -7 -69.5 -20t-127.5 -32l-299 -73zM1755 1337l-32 -4q-105 -14 -148 -51q-21 -18 -35.5 -44t-23 -61t-12 -80.5t-3.5 -103.5v-997h-237l-863 1053v-619
q0 -96 10.5 -157.5t32.5 -94.5t71 -56t134 -40v-82h-629v82q89 6 138.5 30t74 66t30 102t5.5 138v651q0 52 -14 95t-48 79q-19 22 -39.5 36.5t-43 24.5t-47 16.5t-51.5 12.5v86h626l719 -876v440q0 122 -16 185q-15 63 -62 106q-38 30 -129 52l-43 11v82h635v-82z" />
    <glyph glyph-name="nacute" unicode="&#x144;" horiz-adv-x="1513" 
d="M488 1137q152 189 231 303q51 71 102 106t123 35q69 0 108.5 -34.5t39.5 -86.5q0 -33 -11.5 -58.5t-30 -45.5t-43.5 -36t-52 -30q-75 -40 -267 -126l-159 -72zM805 0v80q14 0 27.5 1.5t27.5 3.5q28 6 38 25q11 20 11 83v438q0 54 -6.5 91t-20 60t-35.5 33t-52 10
q-42 0 -87.5 -30t-78.5 -78v-514q0 -37 7.5 -60t27.5 -39q26 -14 79 -24v-80h-696v80q45 0 85 10q42 11 56.5 37t14.5 66v563q0 20 -7.5 40t-20.5 37t-30 30t-36 19q-12 5 -31.5 9.5t-46.5 9.5v80l581 27l17 -15v-151h4q31 31 64.5 63.5t76.5 58.5t98.5 43t131.5 17
q162 0 249.5 -90.5t87.5 -255.5v-477q0 -37 10.5 -60t41.5 -39q22 -8 46 -14t50 -8v-80h-684z" />
    <glyph glyph-name="uni0145" unicode="&#x145;" horiz-adv-x="1774" 
d="M1755 1337l-32 -4q-105 -14 -148 -51q-21 -18 -35.5 -44t-23 -61t-12 -80.5t-3.5 -103.5v-997h-237l-863 1053v-619q0 -96 10.5 -157.5t32.5 -94.5t71 -56t134 -40v-82h-629v82q89 6 138.5 30t74 66t30 102t5.5 138v651q0 52 -14 95t-48 79q-19 22 -39.5 36.5t-43 24.5
t-47 16.5t-51.5 12.5v86h626l719 -876v440q0 122 -16 185q-15 63 -62 106q-38 30 -129 52l-43 11v82h635v-82zM1055 -231q0 -108 -88.5 -160.5t-253.5 -52.5v67q30 1 65 5t66.5 15t55 32t32.5 57h-58q-94 0 -129 18q-34 16 -34 86q0 24 12 42.5t33 31t50 18.5t62 6
q95 0 141 -46t46 -119z" />
    <glyph glyph-name="uni0146" unicode="&#x146;" horiz-adv-x="1513" 
d="M805 0v80q14 0 27.5 1.5t27.5 3.5q28 6 38 25q11 20 11 83v438q0 54 -6.5 91t-20 60t-35.5 33t-52 10q-42 0 -87.5 -30t-78.5 -78v-514q0 -37 7.5 -60t27.5 -39q26 -14 79 -24v-80h-696v80q45 0 85 10q42 11 56.5 37t14.5 66v563q0 20 -7.5 40t-20.5 37t-30 30t-36 19
q-12 5 -31.5 9.5t-46.5 9.5v80l581 27l17 -15v-151h4q31 31 64.5 63.5t76.5 58.5t98.5 43t131.5 17q162 0 249.5 -90.5t87.5 -255.5v-477q0 -37 10.5 -60t41.5 -39q22 -8 46 -14t50 -8v-80h-684zM961 -231q0 -108 -88.5 -160.5t-253.5 -52.5v67q30 1 65 5t66.5 15t55 32
t32.5 57h-58q-94 0 -129 18q-34 16 -34 86q0 24 12 42.5t33 31t50 18.5t62 6q95 0 141 -46t46 -119z" />
    <glyph glyph-name="Ncaron" unicode="&#x147;" horiz-adv-x="1774" 
d="M551 1878l348 -176l348 176l43 -39l-65 -84q-24 -31 -62 -76.5t-92 -105.5q-29 -32 -68 -48t-104 -16q-37 0 -73 6t-67 28q-17 13 -75 76q-30 32 -75 87t-105 133zM1755 1337l-32 -4q-105 -14 -148 -51q-21 -18 -35.5 -44t-23 -61t-12 -80.5t-3.5 -103.5v-997h-237
l-863 1053v-619q0 -96 10.5 -157.5t32.5 -94.5t71 -56t134 -40v-82h-629v82q89 6 138.5 30t74 66t30 102t5.5 138v651q0 52 -14 95t-48 79q-19 22 -39.5 36.5t-43 24.5t-47 16.5t-51.5 12.5v86h626l719 -876v440q0 122 -16 185q-15 63 -62 106q-38 30 -129 52l-43 11v82h635
v-82z" />
    <glyph glyph-name="ncaron" unicode="&#x148;" horiz-adv-x="1513" 
d="M1173 1520l-70 -113q-41 -66 -81 -127.5t-82 -118.5q-28 -39 -66.5 -53t-101.5 -14q-43 0 -72 6t-51.5 20t-41 36t-40.5 55l-30 45q-8 12 -47.5 77.5t-112.5 186.5l47 32l348 -241l348 241zM805 0v80q14 0 27.5 1.5t27.5 3.5q28 6 38 25q11 20 11 83v438q0 54 -6.5 91
t-20 60t-35.5 33t-52 10q-42 0 -87.5 -30t-78.5 -78v-514q0 -37 7.5 -60t27.5 -39q26 -14 79 -24v-80h-696v80q45 0 85 10q42 11 56.5 37t14.5 66v563q0 20 -7.5 40t-20.5 37t-30 30t-36 19q-12 5 -31.5 9.5t-46.5 9.5v80l581 27l17 -15v-151h4q31 31 64.5 63.5t76.5 58.5
t98.5 43t131.5 17q162 0 249.5 -90.5t87.5 -255.5v-477q0 -37 10.5 -60t41.5 -39q22 -8 46 -14t50 -8v-80h-684z" />
    <glyph glyph-name="napostrophe" unicode="&#x149;" horiz-adv-x="1939" 
d="M483 1206q2 -65 -28.5 -137.5t-85 -140t-128.5 -124t-161 -89.5l-50 80q63 29 114 66.5t87.5 82t58 94t25.5 103.5h-61q-258 0 -258 198q0 42 18.5 77t48.5 60.5t68.5 39.5t77.5 14q131 0 202.5 -85.5t71.5 -238.5zM1229 0v80q14 0 27.5 1.5t27.5 3.5q28 6 38 25
q11 20 11 83v438q0 54 -6.5 91t-20 60t-35.5 33t-52 10q-42 0 -87.5 -30t-78.5 -78v-514q0 -37 7.5 -60t27.5 -39q26 -14 79 -24v-80h-696v80q45 0 85 10q42 11 56.5 37t14.5 66v563q0 20 -7.5 40t-20.5 37t-30 30t-36 19q-12 5 -31.5 9.5t-46.5 9.5v80l581 27l17 -15v-151
h4q31 31 64.5 63.5t76.5 58.5t98.5 43t131.5 17q162 0 249.5 -90.5t87.5 -255.5v-477q0 -37 10.5 -60t41.5 -39q22 -8 46 -14t50 -8v-80h-684z" />
    <glyph glyph-name="Eng" unicode="&#x14a;" horiz-adv-x="1780" 
d="M408 430q0 -124 18 -195q19 -69 70 -100q52 -31 159 -53v-82h-628v82l34 5q63 5 110.5 28t66.5 57t27.5 93t8.5 153v651q0 52 -14 95t-48 79q-19 22 -39.5 36.5t-43 24.5t-47 16.5t-51.5 12.5v86h608l737 -813v377q0 101 -10.5 161.5t-37.5 96.5q-25 35 -60 52
q-17 8 -52 19t-90 25v82h635v-82l-32 -4q-105 -14 -148 -51q-21 -18 -35.5 -44t-23 -61t-12 -80.5t-3.5 -103.5v-852q1 -129 -32 -236.5t-95.5 -185t-150.5 -119.5t-197 -40q-51 0 -103 11t-94 36t-68 66.5t-26 101.5q0 40 11.5 73.5t33 57.5t51.5 37.5t66 13.5
q171 0 244 -258q45 5 82 32.5t63 66.5t41 84t17 87l-942 1080v-619z" />
    <glyph glyph-name="eng" unicode="&#x14b;" horiz-adv-x="1497" 
d="M911 501q0 157 -9 214q-9 58 -34 84t-71 26q-43 0 -87.5 -28.5t-80.5 -79.5v-514q0 -37 7.5 -60t27.5 -39q26 -14 79 -24v-80h-696v80q45 0 85 10q42 11 56.5 37t14.5 66v563q0 20 -7.5 40t-20.5 37t-30 30t-36 19q-12 5 -31.5 9.5t-46.5 9.5v80l581 27l17 -15v-151h4
q41 44 80.5 77.5t83 57t94 35.5t113.5 12q137 0 217.5 -66t109.5 -194q19 -83 19 -344q0 -138 -6 -235t-17 -154q-23 -115 -74 -203.5t-127 -149t-175.5 -91.5t-219.5 -31q-149 0 -226 52t-77 152q0 40 13.5 71.5t37.5 54t57 34.5t72 12q58 0 98 -26.5t67.5 -68t44.5 -91.5
t30 -96q37 48 50 193t13 389v269z" />
    <glyph glyph-name="Omacron" unicode="&#x14c;" horiz-adv-x="1747" 
d="M496 1622v219h762v-219h-762zM1681 725q0 -223 -102 -402q-102 -178 -284 -271t-433 -93q-108 0 -209 22.5t-189.5 66t-161.5 106.5t-125.5 143.5t-81.5 178t-29 208.5q0 180 61.5 324.5t170 245t256.5 154.5t320 54q167 0 313.5 -51t256.5 -146.5t173.5 -232
t63.5 -307.5zM1171 715q0 337 -74 490q-73 153 -223 153q-148 0 -223.5 -165.5t-75.5 -490.5q0 -319 75 -480t224 -161q297 0 297 654z" />
    <glyph glyph-name="omacron" unicode="&#x14d;" horiz-adv-x="1403" 
d="M319 1200v219h762v-219h-762zM1329 500q2 -118 -43.5 -217.5t-129 -170.5t-202 -110t-264.5 -37q-121 0 -232.5 32.5t-196.5 98.5t-136 165.5t-51 234.5q-2 119 41.5 218t124.5 169.5t196 108.5t256 36q294 0 466 -143q171 -142 171 -385zM854 506q0 181 -15 263
q-15 84 -48 128.5t-93 44.5q-34 0 -57.5 -15t-38.5 -38t-24 -52t-15 -57q-14 -79 -14 -270q0 -106 3 -179t10 -115q14 -82 46 -123.5t90 -41.5q36 0 60 16.5t40 42t25.5 57t14.5 60.5q16 83 16 279z" />
    <glyph glyph-name="Obreve" unicode="&#x14e;" horiz-adv-x="1747" 
d="M1214 1862q-22 -177 -104 -264t-238 -87q-301 0 -342 351l84 16q19 -48 41 -81.5t52 -54t70 -29.5t95 -9q56 0 96 8.5t69.5 29t51.5 54t41 82.5zM1681 725q0 -223 -102 -402q-102 -178 -284 -271t-433 -93q-108 0 -209 22.5t-189.5 66t-161.5 106.5t-125.5 143.5
t-81.5 178t-29 208.5q0 180 61.5 324.5t170 245t256.5 154.5t320 54q167 0 313.5 -51t256.5 -146.5t173.5 -232t63.5 -307.5zM1171 715q0 337 -74 490q-73 153 -223 153q-148 0 -223.5 -165.5t-75.5 -490.5q0 -319 75 -480t224 -161q297 0 297 654z" />
    <glyph glyph-name="obreve" unicode="&#x14f;" horiz-adv-x="1403" 
d="M1042 1559q-46 -418 -342 -418q-147 0 -234 105t-108 313l84 18q16 -54 33.5 -98.5t46 -77t71 -50.5t107.5 -18q66 0 109 17.5t70.5 49.5t45 77t33.5 100zM1329 500q2 -118 -43.5 -217.5t-129 -170.5t-202 -110t-264.5 -37q-121 0 -232.5 32.5t-196.5 98.5t-136 165.5
t-51 234.5q-2 119 41.5 218t124.5 169.5t196 108.5t256 36q294 0 466 -143q171 -142 171 -385zM854 506q0 181 -15 263q-15 84 -48 128.5t-93 44.5q-34 0 -57.5 -15t-38.5 -38t-24 -52t-15 -57q-14 -79 -14 -270q0 -106 3 -179t10 -115q14 -82 46 -123.5t90 -41.5
q36 0 60 16.5t40 42t25.5 57t14.5 60.5q16 83 16 279z" />
    <glyph glyph-name="Ohungarumlaut" unicode="&#x150;" horiz-adv-x="1747" 
d="M502 1546q54 57 96 103t71 81q62 72 92 97q33 27 68 39t78 12q60 0 95.5 -26.5t35.5 -63.5q0 -27 -9.5 -47t-34.5 -39q-24 -18 -90 -48q-32 -15 -123 -51t-242 -94zM948 1546q62 65 112.5 121.5t92.5 106.5q50 56 95.5 80t105.5 24t95.5 -26.5t35.5 -63.5
q0 -40 -22.5 -65.5t-65.5 -47.5q-19 -9 -39 -18t-41 -18q-20 -9 -103 -41t-229 -89zM1681 725q0 -223 -102 -402q-102 -178 -284 -271t-433 -93q-108 0 -209 22.5t-189.5 66t-161.5 106.5t-125.5 143.5t-81.5 178t-29 208.5q0 180 61.5 324.5t170 245t256.5 154.5t320 54
q167 0 313.5 -51t256.5 -146.5t173.5 -232t63.5 -307.5zM1171 715q0 337 -74 490q-73 153 -223 153q-148 0 -223.5 -165.5t-75.5 -490.5q0 -319 75 -480t224 -161q297 0 297 654z" />
    <glyph glyph-name="ohungarumlaut" unicode="&#x151;" horiz-adv-x="1403" 
d="M314 1137q54 75 95 135.5t72 109.5q63 98 93 131q33 36 68 52t77 16q60 0 95.5 -34.5t35.5 -86.5q0 -72 -49 -118q-25 -23 -101.5 -67.5t-207.5 -110.5l-141 -72zM760 1137q57 79 108 154.5t97 148.5q26 39 49 65.5t47 43.5t49.5 24.5t55.5 7.5q60 0 95.5 -34.5
t35.5 -86.5q-2 -42 -15.5 -72t-51.5 -60.5t-108 -68t-184 -95.5l-141 -72zM1329 500q2 -118 -43.5 -217.5t-129 -170.5t-202 -110t-264.5 -37q-121 0 -232.5 32.5t-196.5 98.5t-136 165.5t-51 234.5q-2 119 41.5 218t124.5 169.5t196 108.5t256 36q294 0 466 -143
q171 -142 171 -385zM854 506q0 181 -15 263q-15 84 -48 128.5t-93 44.5q-34 0 -57.5 -15t-38.5 -38t-24 -52t-15 -57q-14 -79 -14 -270q0 -106 3 -179t10 -115q14 -82 46 -123.5t90 -41.5q36 0 60 16.5t40 42t25.5 57t14.5 60.5q16 83 16 279z" />
    <glyph glyph-name="OE" unicode="&#x152;" horiz-adv-x="2320" 
d="M2241 0h-1317q-237 0 -445 92q-206 92 -309.5 248.5t-103.5 361.5q0 128 34.5 233.5t100 188.5t158.5 143.5t210 97.5q164 54 330 54h1272v-377h-76q-16 37 -43 79.5t-61.5 81t-74 68t-79.5 40.5q-54 12 -131 12h-168v-541h66q52 0 97.5 14t90.5 50q14 11 28.5 36
t27 53.5t21.5 56.5t13 46h78v-616h-78q-3 17 -13 46.5t-23 60t-27.5 56.5t-26.5 38q-71 65 -188 65h-66v-399q0 -104 13 -136q6 -16 17 -27t29 -18t44 -9.5t63 -2.5q228 0 285 54q48 51 112 150q32 49 55.5 88.5t38.5 70.5h72zM1083 1321h-96q-193 0 -302 -166
q-110 -166 -110 -453q0 -65 7 -135.5t24 -138t46.5 -128t73.5 -106t105.5 -72t143.5 -26.5q38 0 65 1t43 3v1221z" />
    <glyph glyph-name="oe" unicode="&#x153;" horiz-adv-x="2013" 
d="M1976 244q-90 -137 -225 -209t-295 -72q-217 0 -387 88q-167 -86 -395 -86q-121 0 -230 33t-191.5 99t-130.5 166t-48 233q0 134 47 234t128.5 166t191 99t235.5 33q123 0 223 -22.5t184 -79.5q72 49 153 75.5t189 26.5q125 0 222.5 -28t164 -82.5t101.5 -135.5t35 -186
v-61h-643v-11q0 -391 290 -391q84 0 161 46t140 128zM1511 625q0 160 -18.5 238.5t-75.5 78.5q-56 0 -82 -69q-24 -69 -30 -255zM842 514q0 114 -9.5 195t-28 132.5t-46.5 76t-66 24.5q-34 0 -57.5 -16t-38.5 -41t-23.5 -55t-13.5 -58q-7 -40 -10.5 -105t-3.5 -157
q0 -106 3.5 -178.5t10.5 -113.5q14 -81 45 -124t88 -43q76 0 113 102t37 361z" />
    <glyph glyph-name="Racute" unicode="&#x154;" horiz-adv-x="1737" 
d="M568 1552q45 35 81 66t64 57l70 61q84 75 149.5 108.5t124.5 33.5q63 0 102 -31t39 -82q0 -95 -106 -131q-20 -7 -69.5 -20t-127.5 -32l-299 -73zM1151 0q-118 201 -218 360t-183 279h-25v-418q0 -34 13.5 -59t54.5 -43q24 -14 58 -23t62 -14v-82h-864v82q28 2 56 5.5
t56 8.5q28 6 48.5 14t33.5 21t19 32t6 46v985q0 48 -19 68q-9 11 -28.5 21.5t-46 20.5t-58.5 18.5t-67 14.5v82h893q146 0 253.5 -19.5t178 -61.5t105 -107.5t34.5 -157.5q0 -84 -22 -143.5t-63 -102t-101 -71t-135 -51.5q12 -17 33 -47.5t46.5 -68t55 -80t59.5 -84
t58.5 -79.5t52.5 -67q34 -41 57 -67t36 -39q26 -26 48 -42t44.5 -25t48.5 -14t61 -10v-82h-641zM1022 1040q0 146 -66.5 213.5t-218.5 67.5h-12v-586h37q77 0 127.5 21t80 60.5t41 96t11.5 127.5z" />
    <glyph glyph-name="racute" unicode="&#x155;" horiz-adv-x="1190" 
d="M377 1137q152 189 231 303q51 71 102 106t123 35q69 0 108.5 -34.5t39.5 -86.5q0 -33 -11.5 -58.5t-30 -45.5t-43.5 -36t-52 -30q-75 -40 -267 -126l-159 -72zM1184 774q0 -46 -16.5 -88.5t-46 -74.5t-70 -51t-88.5 -19q-100 0 -157.5 47.5t-57.5 134.5q0 64 16 100
q-61 -12 -135 -86v-530q0 -73 43 -98q5 -4 25.5 -9.5t45 -9.5t47 -7t31.5 -3v-80h-774v80q45 0 85 10q42 11 56.5 37t14.5 66v563q0 69 -62 110q-26 22 -110 35v80l581 27l17 -15v-151h4q31 36 62.5 68.5t66.5 57t76.5 38.5t93.5 14q56 0 102 -17.5t79.5 -49.5t52 -77.5
t18.5 -101.5z" />
    <glyph glyph-name="uni0156" unicode="&#x156;" horiz-adv-x="1737" 
d="M1151 0q-118 201 -218 360t-183 279h-25v-418q0 -34 13.5 -59t54.5 -43q24 -14 58 -23t62 -14v-82h-864v82q28 2 56 5.5t56 8.5q28 6 48.5 14t33.5 21t19 32t6 46v985q0 48 -19 68q-9 11 -28.5 21.5t-46 20.5t-58.5 18.5t-67 14.5v82h893q146 0 253.5 -19.5t178 -61.5
t105 -107.5t34.5 -157.5q0 -84 -22 -143.5t-63 -102t-101 -71t-135 -51.5q12 -17 33 -47.5t46.5 -68t55 -80t59.5 -84t58.5 -79.5t52.5 -67q34 -41 57 -67t36 -39q26 -26 48 -42t44.5 -25t48.5 -14t61 -10v-82h-641zM1022 1040q0 146 -66.5 213.5t-218.5 67.5h-12v-586h37
q77 0 127.5 21t80 60.5t41 96t11.5 127.5zM1123 -231q0 -108 -88.5 -160.5t-253.5 -52.5v67q30 1 65 5t66.5 15t55 32t32.5 57h-58q-94 0 -129 18q-34 16 -34 86q0 24 12 42.5t33 31t50 18.5t62 6q95 0 141 -46t46 -119z" />
    <glyph glyph-name="uni0157" unicode="&#x157;" horiz-adv-x="1190" 
d="M1184 774q0 -46 -16.5 -88.5t-46 -74.5t-70 -51t-88.5 -19q-100 0 -157.5 47.5t-57.5 134.5q0 64 16 100q-61 -12 -135 -86v-530q0 -73 43 -98q5 -4 25.5 -9.5t45 -9.5t47 -7t31.5 -3v-80h-774v80q45 0 85 10q42 11 56.5 37t14.5 66v563q0 69 -62 110q-26 22 -110 35v80
l581 27l17 -15v-151h4q31 36 62.5 68.5t66.5 57t76.5 38.5t93.5 14q56 0 102 -17.5t79.5 -49.5t52 -77.5t18.5 -101.5zM627 -231q0 -108 -88.5 -160.5t-253.5 -52.5v67q30 1 65 5t66.5 15t55 32t32.5 57h-58q-94 0 -129 18q-34 16 -34 86q0 24 12 42.5t33 31t50 18.5t62 6
q95 0 141 -46t46 -119z" />
    <glyph glyph-name="Rcaron" unicode="&#x158;" horiz-adv-x="1737" 
d="M469 1878l348 -176l348 176l43 -39l-65 -84q-24 -31 -62 -76.5t-92 -105.5q-29 -32 -68 -48t-104 -16q-37 0 -73 6t-67 28q-17 13 -75 76q-30 32 -75 87t-105 133zM1151 0q-118 201 -218 360t-183 279h-25v-418q0 -34 13.5 -59t54.5 -43q24 -14 58 -23t62 -14v-82h-864
v82q28 2 56 5.5t56 8.5q28 6 48.5 14t33.5 21t19 32t6 46v985q0 48 -19 68q-9 11 -28.5 21.5t-46 20.5t-58.5 18.5t-67 14.5v82h893q146 0 253.5 -19.5t178 -61.5t105 -107.5t34.5 -157.5q0 -84 -22 -143.5t-63 -102t-101 -71t-135 -51.5q12 -17 33 -47.5t46.5 -68t55 -80
t59.5 -84t58.5 -79.5t52.5 -67q34 -41 57 -67t36 -39q26 -26 48 -42t44.5 -25t48.5 -14t61 -10v-82h-641zM1022 1040q0 146 -66.5 213.5t-218.5 67.5h-12v-586h37q77 0 127.5 21t80 60.5t41 96t11.5 127.5z" />
    <glyph glyph-name="rcaron" unicode="&#x159;" horiz-adv-x="1190" 
d="M948 1520l-70 -113q-41 -66 -81 -127.5t-82 -118.5q-28 -39 -66.5 -53t-101.5 -14q-43 0 -72 6t-51.5 20t-41 36t-40.5 55l-30 45q-8 12 -47.5 77.5t-112.5 186.5l47 32l348 -241l348 241zM1184 774q0 -46 -16.5 -88.5t-46 -74.5t-70 -51t-88.5 -19q-100 0 -157.5 47.5
t-57.5 134.5q0 64 16 100q-61 -12 -135 -86v-530q0 -73 43 -98q5 -4 25.5 -9.5t45 -9.5t47 -7t31.5 -3v-80h-774v80q45 0 85 10q42 11 56.5 37t14.5 66v563q0 69 -62 110q-26 22 -110 35v80l581 27l17 -15v-151h4q31 36 62.5 68.5t66.5 57t76.5 38.5t93.5 14q56 0 102 -17.5
t79.5 -49.5t52 -77.5t18.5 -101.5z" />
    <glyph glyph-name="Sacute" unicode="&#x15a;" horiz-adv-x="1395" 
d="M441 1552q45 35 81 66t64 57l70 61q84 75 149.5 108.5t124.5 33.5q63 0 102 -31t39 -82q0 -95 -106 -131q-20 -7 -69.5 -20t-127.5 -32l-299 -73zM1341 420q2 -99 -45 -185t-132 -149t-203 -98t-259 -33q-135 0 -250.5 25.5t-220.5 87.5l-88 -68h-86l-14 530h90
q24 -49 54 -102.5t65.5 -105t77.5 -97.5t90.5 -81t103.5 -55.5t117 -20.5q51 0 100 13.5t88 41t62.5 69.5t23.5 99q0 72 -53 116q-52 45 -192 87q-59 16 -140.5 42t-187.5 64q-63 24 -112 66t-82.5 95.5t-51.5 116t-18 128.5q-1 96 41 179.5t119 145t185 96.5t239 33
q51 0 105 -6t107.5 -17.5t104.5 -29t96 -41.5l74 53h90l8 -491h-88q-20 44 -43 92.5t-51 96t-61 90.5t-73 75.5t-87.5 52t-104.5 19.5q-49 0 -93 -14t-77.5 -41t-53 -67t-19.5 -93q0 -50 25 -85.5t62.5 -60t82 -40t84.5 -27.5q113 -32 190.5 -55.5t120.5 -39.5
q138 -54 209 -158t71 -253z" />
    <glyph glyph-name="sacute" unicode="&#x15b;" horiz-adv-x="1108" 
d="M328 1137q152 189 231 303q51 71 102 106t123 35q69 0 108.5 -34.5t39.5 -86.5q0 -33 -11.5 -58.5t-30 -45.5t-43.5 -36t-52 -30q-75 -40 -267 -126l-159 -72zM1067 326q0 -70 -21.5 -124.5t-58 -95t-86 -69t-106 -46t-117 -25t-119.5 -7.5q-44 0 -91.5 7t-95 19t-93 29
t-84.5 37l-37 -69h-80l-15 393h74q24 -63 65 -123t92 -106t108 -73.5t114 -25.5q79 0 114.5 29.5t35.5 101.5q0 48 -36 78.5t-117 55.5l-110 32q-84 26 -142.5 60t-95.5 77t-54 95t-17 114q-2 72 32.5 133.5t97.5 106.5t150.5 70t190.5 24q47 0 89 -4.5t82.5 -12.5t81 -20.5
t83.5 -28.5l21 64h77l17 -358h-74q-41 113 -131 190q-88 78 -172 78q-66 0 -104.5 -27t-38.5 -84q0 -60 47 -93q48 -32 211 -75q313 -82 313 -327z" />
    <glyph glyph-name="Scircumflex" unicode="&#x15c;" horiz-adv-x="1395" 
d="M1020 1509l-348 177l-348 -177l-43 39q27 35 46.5 60.5t35.5 45.5t29.5 37t29 35t34 39.5t44.5 49.5q34 36 74.5 49.5t97.5 13.5q32 0 56.5 -3t44 -9.5t36 -18t31.5 -28.5q78 -84 106 -118q14 -17 44.5 -55t76.5 -98zM1341 420q2 -99 -45 -185t-132 -149t-203 -98
t-259 -33q-135 0 -250.5 25.5t-220.5 87.5l-88 -68h-86l-14 530h90q24 -49 54 -102.5t65.5 -105t77.5 -97.5t90.5 -81t103.5 -55.5t117 -20.5q51 0 100 13.5t88 41t62.5 69.5t23.5 99q0 72 -53 116q-52 45 -192 87q-59 16 -140.5 42t-187.5 64q-63 24 -112 66t-82.5 95.5
t-51.5 116t-18 128.5q-1 96 41 179.5t119 145t185 96.5t239 33q51 0 105 -6t107.5 -17.5t104.5 -29t96 -41.5l74 53h90l8 -491h-88q-20 44 -43 92.5t-51 96t-61 90.5t-73 75.5t-87.5 52t-104.5 19.5q-49 0 -93 -14t-77.5 -41t-53 -67t-19.5 -93q0 -50 25 -85.5t62.5 -60
t82 -40t84.5 -27.5q113 -32 190.5 -55.5t120.5 -39.5q138 -54 209 -158t71 -253z" />
    <glyph glyph-name="scircumflex" unicode="&#x15d;" horiz-adv-x="1108" 
d="M911 1094l-348 241l-348 -241l-47 32q40 66 68 113.5t52 86.5t47.5 75t55.5 80q28 38 67.5 54.5t104.5 16.5q64 0 102 -14t66 -53q42 -57 82 -118.5t81 -127.5l70 -113zM1067 326q0 -70 -21.5 -124.5t-58 -95t-86 -69t-106 -46t-117 -25t-119.5 -7.5q-44 0 -91.5 7
t-95 19t-93 29t-84.5 37l-37 -69h-80l-15 393h74q24 -63 65 -123t92 -106t108 -73.5t114 -25.5q79 0 114.5 29.5t35.5 101.5q0 48 -36 78.5t-117 55.5l-110 32q-84 26 -142.5 60t-95.5 77t-54 95t-17 114q-2 72 32.5 133.5t97.5 106.5t150.5 70t190.5 24q47 0 89 -4.5
t82.5 -12.5t81 -20.5t83.5 -28.5l21 64h77l17 -358h-74q-41 113 -131 190q-88 78 -172 78q-66 0 -104.5 -27t-38.5 -84q0 -60 47 -93q48 -32 211 -75q313 -82 313 -327z" />
    <glyph glyph-name="Scedilla" unicode="&#x15e;" horiz-adv-x="1395" 
d="M1341 420q2 -99 -45 -185t-132 -149t-203 -98t-259 -33h-24t-23 1v-50q133 0 196.5 -42.5t63.5 -117.5q0 -44 -13.5 -74t-37.5 -49.5t-57 -31t-72 -18.5q-48 -8 -121.5 -12.5t-173.5 -4.5v82q149 0 180 6q32 6 49 21t17 46q0 34 -29 46t-92 12v193q-92 10 -174 35
t-160 71l-88 -68h-86l-14 530h90q24 -49 54 -102.5t65.5 -105t77.5 -97.5t90.5 -81t103.5 -55.5t117 -20.5q51 0 100 13.5t88 41t62.5 69.5t23.5 99q0 72 -53 116q-52 45 -192 87q-59 16 -140.5 42t-187.5 64q-63 24 -112 66t-82.5 95.5t-51.5 116t-18 128.5q-1 96 41 179.5
t119 145t185 96.5t239 33q51 0 105 -6t107.5 -17.5t104.5 -29t96 -41.5l74 53h90l8 -491h-88q-20 44 -43 92.5t-51 96t-61 90.5t-73 75.5t-87.5 52t-104.5 19.5q-49 0 -93 -14t-77.5 -41t-53 -67t-19.5 -93q0 -50 25 -85.5t62.5 -60t82 -40t84.5 -27.5q113 -32 190.5 -55.5
t120.5 -39.5q138 -54 209 -158t71 -253z" />
    <glyph glyph-name="scedilla" unicode="&#x15f;" horiz-adv-x="1108" 
d="M1067 326q0 -68 -20 -121.5t-55 -93.5t-82.5 -68.5t-101.5 -46.5t-112.5 -27t-116.5 -10v-53q133 0 196.5 -42.5t63.5 -117.5q0 -44 -13.5 -74t-37.5 -49.5t-57 -31t-72 -18.5q-48 -8 -121.5 -12.5t-173.5 -4.5v82q149 0 180 6q32 6 49 21t17 46q0 34 -29 46t-92 12v194
q-74 8 -151 31t-143 57l-37 -69h-80l-15 393h74q24 -63 65 -123t92 -106t108 -73.5t114 -25.5q79 0 114.5 29.5t35.5 101.5q0 48 -36 78.5t-117 55.5l-110 32q-84 26 -142.5 60t-95.5 77t-54 95t-17 114q-2 72 32.5 133.5t97.5 106.5t150.5 70t190.5 24q47 0 89 -4.5
t82.5 -12.5t81 -20.5t83.5 -28.5l21 64h77l17 -358h-74q-41 113 -131 190q-88 78 -172 78q-66 0 -104.5 -27t-38.5 -84q0 -60 47 -93q48 -32 211 -75q313 -82 313 -327z" />
    <glyph glyph-name="Scaron" unicode="&#x160;" horiz-adv-x="1395" 
d="M363 1878l348 -176l348 176l43 -39l-65 -84q-24 -31 -62 -76.5t-92 -105.5q-29 -32 -68 -48t-104 -16q-37 0 -73 6t-67 28q-17 13 -75 76q-30 32 -75 87t-105 133zM1341 420q2 -99 -45 -185t-132 -149t-203 -98t-259 -33q-135 0 -250.5 25.5t-220.5 87.5l-88 -68h-86
l-14 530h90q24 -49 54 -102.5t65.5 -105t77.5 -97.5t90.5 -81t103.5 -55.5t117 -20.5q51 0 100 13.5t88 41t62.5 69.5t23.5 99q0 72 -53 116q-52 45 -192 87q-59 16 -140.5 42t-187.5 64q-63 24 -112 66t-82.5 95.5t-51.5 116t-18 128.5q-1 96 41 179.5t119 145t185 96.5
t239 33q51 0 105 -6t107.5 -17.5t104.5 -29t96 -41.5l74 53h90l8 -491h-88q-20 44 -43 92.5t-51 96t-61 90.5t-73 75.5t-87.5 52t-104.5 19.5q-49 0 -93 -14t-77.5 -41t-53 -67t-19.5 -93q0 -50 25 -85.5t62.5 -60t82 -40t84.5 -27.5q113 -32 190.5 -55.5t120.5 -39.5
q138 -54 209 -158t71 -253z" />
    <glyph glyph-name="scaron" unicode="&#x161;" horiz-adv-x="1108" 
d="M958 1520l-70 -113q-41 -66 -81 -127.5t-82 -118.5q-28 -39 -66.5 -53t-101.5 -14q-43 0 -72 6t-51.5 20t-41 36t-40.5 55l-30 45q-8 12 -47.5 77.5t-112.5 186.5l47 32l348 -241l348 241zM1067 326q0 -70 -21.5 -124.5t-58 -95t-86 -69t-106 -46t-117 -25t-119.5 -7.5
q-44 0 -91.5 7t-95 19t-93 29t-84.5 37l-37 -69h-80l-15 393h74q24 -63 65 -123t92 -106t108 -73.5t114 -25.5q79 0 114.5 29.5t35.5 101.5q0 48 -36 78.5t-117 55.5l-110 32q-84 26 -142.5 60t-95.5 77t-54 95t-17 114q-2 72 32.5 133.5t97.5 106.5t150.5 70t190.5 24
q47 0 89 -4.5t82.5 -12.5t81 -20.5t83.5 -28.5l21 64h77l17 -358h-74q-41 113 -131 190q-88 78 -172 78q-66 0 -104.5 -27t-38.5 -84q0 -60 47 -93q48 -32 211 -75q313 -82 313 -327z" />
    <glyph glyph-name="uni0162" unicode="&#x162;" horiz-adv-x="1454" 
d="M1360 999q-8 21 -21.5 50.5t-31 63t-39 67t-44 61.5t-46.5 47.5t-48 24.5l-77 5l-80 3h-17v-1098q0 -51 22.5 -76.5t67.5 -39.5q8 -2 37 -8t80 -17v-82h-418v-94q133 0 196.5 -42.5t63.5 -117.5q0 -44 -13.5 -74t-37.5 -49.5t-57 -31t-72 -18.5q-48 -8 -121.5 -12.5
t-173.5 -4.5v82q149 0 180 6q32 6 49 21t17 46q0 34 -29 46t-92 12v231h-366v82l35 5q95 10 112 17q64 28 64 109v1108h-17l-80 -3l-79 -5q-23 -4 -46.5 -23.5t-46.5 -48t-44.5 -62.5t-40 -67.5t-32.5 -63t-22 -49.5h-82v420h1434v-420h-84z" />
    <glyph glyph-name="uni0163" unicode="&#x163;" horiz-adv-x="887" 
d="M887 47q-91 -38 -181.5 -58t-189.5 -20v-63q133 0 196.5 -42.5t63.5 -117.5q0 -44 -13.5 -74t-37.5 -49.5t-57 -31t-72 -18.5q-48 -8 -121.5 -12.5t-173.5 -4.5v82q149 0 180 6q32 6 49 21t17 46q0 34 -29 46t-92 12v210q-126 24 -189 105t-63 217v576h-182v114h186v301
h424v-301h277v-114h-275v-512q0 -132 32 -185q32 -51 107 -51l77 3l67 5v-90z" />
    <glyph glyph-name="Tcaron" unicode="&#x164;" horiz-adv-x="1454" 
d="M381 1878l348 -176l348 176l43 -39l-65 -84q-24 -31 -62 -76.5t-92 -105.5q-29 -32 -68 -48t-104 -16q-37 0 -73 6t-67 28q-17 13 -75 76q-30 32 -75 87t-105 133zM1360 999q-8 21 -21.5 50.5t-31 63t-39 67t-44 61.5t-46.5 47.5t-48 24.5l-77 5l-80 3h-17v-1098
q0 -51 22.5 -76.5t67.5 -39.5q8 -2 37 -8t80 -17v-82h-874v82l35 5q95 10 112 17q64 28 64 109v1108h-17l-80 -3l-79 -5q-23 -4 -46.5 -23.5t-46.5 -48t-44.5 -62.5t-40 -67.5t-32.5 -63t-22 -49.5h-82v420h1434v-420h-84z" />
    <glyph glyph-name="tcaron" unicode="&#x165;" horiz-adv-x="887" 
d="M1022 1430q0 -128 -75.5 -217.5t-233.5 -149.5l-43 84q33 15 66 32t61 39.5t49 51.5t30 68h-22q-38 0 -76.5 9t-70 28.5t-51 50.5t-19.5 75q0 38 13.5 68.5t37.5 51.5t56 32.5t69 11.5q97 0 153 -63t56 -172zM887 47q-187 -78 -350 -78q-182 0 -272.5 84.5t-90.5 247.5
v576h-182v114h186v301h424v-301h277v-114h-275v-512q0 -132 32 -185q32 -51 107 -51l77 3l67 5v-90z" />
    <glyph glyph-name="Tbar" unicode="&#x166;" horiz-adv-x="1454" 
d="M1360 999q-8 21 -21.5 50.5t-31 63t-39 67t-44 61.5t-46.5 47.5t-48 24.5l-77 5l-80 3h-17v-543h299v-110h-299v-445q0 -51 22.5 -76.5t67.5 -39.5q8 -2 37 -8t80 -17v-82h-874v82l35 5q95 10 112 17q64 28 64 109v455h-299v110h299v543h-17l-80 -3l-79 -5
q-23 -4 -46.5 -23.5t-46.5 -48t-44.5 -62.5t-40 -67.5t-32.5 -63t-22 -49.5h-82v420h1434v-420h-84z" />
    <glyph glyph-name="tbar" unicode="&#x167;" horiz-adv-x="887" 
d="M604 365q0 -132 32 -185q32 -51 107 -51l75 3l69 5v-90q-187 -78 -350 -78q-182 0 -272.5 84.5t-90.5 247.5v170h-170v107h170v299h-182v114h186v301h424v-301h277v-114h-275v-299h232v-107h-232v-106z" />
    <glyph glyph-name="Utilde" unicode="&#x168;" horiz-adv-x="1776" 
d="M1316 1791q-16 -43 -42.5 -84t-61 -73t-76.5 -52t-89 -22q-39 -2 -78 6t-73 28q-13 8 -27.5 16t-28.5 15.5t-26 12.5t-20 5q-27 2 -47.5 -5t-36.5 -20t-29 -31.5t-25 -38.5l-111 49q25 62 54.5 105.5t63 71.5t70.5 41t76 14q37 1 80 -8.5t79 -26.5q34 -16 64 -32t48 -16
q28 0 47 5.5t32.5 17.5t24 29.5t22.5 41.5zM1782 1337q-140 -21 -180 -55q-46 -30 -61 -96q-15 -64 -15 -199v-467q0 -138 -44.5 -242.5t-124 -175.5t-190.5 -107t-243 -36q-337 0 -510.5 149t-173.5 445v649q0 71 -65 103q-34 19 -130 36v78h850v-78l-63 -10
q-30 -4 -55 -10.5t-43.5 -19.5t-29 -34t-10.5 -55v-669q2 -110 20 -191.5t59 -135t107.5 -80.5t166.5 -27q169 0 257.5 119.5t88.5 340.5v410q0 120 -15 184q-14 65 -59 109q-12 9 -35.5 18.5t-50 18.5t-52 16.5t-40.5 11.5v82h641v-82z" />
    <glyph glyph-name="utilde" unicode="&#x169;" horiz-adv-x="1487" 
d="M1105 1397q-16 -43 -42.5 -84t-61 -73t-76.5 -52t-89 -22q-39 -2 -78 6t-73 28q-13 8 -27.5 16t-28.5 15.5t-26 12.5t-20 5q-27 2 -47.5 -5t-36.5 -20t-29 -31.5t-25 -38.5l-111 49q25 62 54.5 105.5t63 71.5t70.5 41t76 14q37 1 80 -8.5t79 -26.5q34 -16 64 -32t48 -16
q28 0 47 5.5t32.5 17.5t24 29.5t22.5 41.5zM901 -10l-16 14v135h-6q-38 -35 -73.5 -66.5t-78.5 -55.5t-98.5 -38t-132.5 -14q-82 0 -143 27t-100.5 75t-59 113.5t-19.5 143.5v436q0 68 -57 108q-12 12 -33 19q-11 4 -32 8t-52 8v78l594 27l10 -15v-653q0 -104 30 -147
t89 -43q45 0 87.5 26.5t72.5 69.5v526q0 66 -37.5 96t-122.5 35v78l575 27l13 -15v-764q0 -37 17.5 -63t48.5 -45q32 -18 110 -21v-77z" />
    <glyph glyph-name="Umacron" unicode="&#x16a;" horiz-adv-x="1776" 
d="M543 1622v219h762v-219h-762zM1782 1337q-140 -21 -180 -55q-46 -30 -61 -96q-15 -64 -15 -199v-467q0 -138 -44.5 -242.5t-124 -175.5t-190.5 -107t-243 -36q-337 0 -510.5 149t-173.5 445v649q0 71 -65 103q-34 19 -130 36v78h850v-78l-63 -10q-30 -4 -55 -10.5
t-43.5 -19.5t-29 -34t-10.5 -55v-669q2 -110 20 -191.5t59 -135t107.5 -80.5t166.5 -27q169 0 257.5 119.5t88.5 340.5v410q0 120 -15 184q-14 65 -59 109q-12 9 -35.5 18.5t-50 18.5t-52 16.5t-40.5 11.5v82h641v-82z" />
    <glyph glyph-name="umacron" unicode="&#x16b;" horiz-adv-x="1487" 
d="M358 1200v219h762v-219h-762zM901 -10l-16 14v135h-6q-38 -35 -73.5 -66.5t-78.5 -55.5t-98.5 -38t-132.5 -14q-82 0 -143 27t-100.5 75t-59 113.5t-19.5 143.5v436q0 68 -57 108q-12 12 -33 19q-11 4 -32 8t-52 8v78l594 27l10 -15v-653q0 -104 30 -147t89 -43
q45 0 87.5 26.5t72.5 69.5v526q0 66 -37.5 96t-122.5 35v78l575 27l13 -15v-764q0 -37 17.5 -63t48.5 -45q32 -18 110 -21v-77z" />
    <glyph glyph-name="Ubreve" unicode="&#x16c;" horiz-adv-x="1776" 
d="M1274 1862q-22 -177 -104 -264t-238 -87q-301 0 -342 351l84 16q19 -48 41 -81.5t52 -54t70 -29.5t95 -9q56 0 96 8.5t69.5 29t51.5 54t41 82.5zM1782 1337q-140 -21 -180 -55q-46 -30 -61 -96q-15 -64 -15 -199v-467q0 -138 -44.5 -242.5t-124 -175.5t-190.5 -107
t-243 -36q-337 0 -510.5 149t-173.5 445v649q0 71 -65 103q-34 19 -130 36v78h850v-78l-63 -10q-30 -4 -55 -10.5t-43.5 -19.5t-29 -34t-10.5 -55v-669q2 -110 20 -191.5t59 -135t107.5 -80.5t166.5 -27q169 0 257.5 119.5t88.5 340.5v410q0 120 -15 184q-14 65 -59 109
q-12 9 -35.5 18.5t-50 18.5t-52 16.5t-40.5 11.5v82h641v-82z" />
    <glyph glyph-name="ubreve" unicode="&#x16d;" horiz-adv-x="1487" 
d="M1055 1559q-46 -418 -342 -418q-147 0 -234 105t-108 313l84 18q16 -54 33.5 -98.5t46 -77t71 -50.5t107.5 -18q66 0 109 17.5t70.5 49.5t45 77t33.5 100zM901 -10l-16 14v135h-6q-38 -35 -73.5 -66.5t-78.5 -55.5t-98.5 -38t-132.5 -14q-82 0 -143 27t-100.5 75
t-59 113.5t-19.5 143.5v436q0 68 -57 108q-12 12 -33 19q-11 4 -32 8t-52 8v78l594 27l10 -15v-653q0 -104 30 -147t89 -43q45 0 87.5 26.5t72.5 69.5v526q0 66 -37.5 96t-122.5 35v78l575 27l13 -15v-764q0 -37 17.5 -63t48.5 -45q32 -18 110 -21v-77z" />
    <glyph glyph-name="Uring" unicode="&#x16e;" horiz-adv-x="1776" 
d="M1782 1337q-140 -21 -180 -55q-46 -30 -61 -96q-15 -64 -15 -199v-467q0 -138 -44.5 -242.5t-124 -175.5t-190.5 -107t-243 -36q-337 0 -510.5 149t-173.5 445v649q0 71 -65 103q-34 19 -130 36v78h769q-78 23 -124.5 78.5t-46.5 140.5q0 62 25 107.5t66 75t93.5 43.5
t108.5 14t109 -14t94 -43t65.5 -74.5t24.5 -108.5q0 -62 -25 -106.5t-66.5 -73t-94 -42t-107.5 -13.5q-11 0 -21 0.5t-20 1.5v-64l-63 -10q-30 -4 -55 -10.5t-43.5 -19.5t-29 -34t-10.5 -55v-669q2 -110 20 -191.5t59 -135t107.5 -80.5t166.5 -27q169 0 257.5 119.5
t88.5 340.5v410q0 120 -15 184q-14 65 -59 109q-12 9 -35.5 18.5t-50 18.5t-52 16.5t-40.5 11.5v82h641v-82zM1067 1638q0 75 -32.5 120.5t-98.5 45.5q-63 0 -97 -43.5t-34 -122.5q0 -75 32.5 -118.5t98.5 -43.5t98.5 43.5t32.5 118.5z" />
    <glyph glyph-name="uring" unicode="&#x16f;" horiz-adv-x="1487" 
d="M1010 1333q0 -62 -25 -106.5t-66.5 -73t-94 -42t-107.5 -13.5q-56 0 -109 13t-94 41t-65.5 73t-24.5 108q0 62 25 107.5t66 75t93.5 43.5t108.5 14t109 -14t94 -43t65.5 -74.5t24.5 -108.5zM848 1333q0 75 -32.5 120.5t-98.5 45.5q-63 0 -97 -43.5t-34 -122.5
q0 -75 32.5 -118.5t98.5 -43.5t98.5 43.5t32.5 118.5zM901 -10l-16 14v135h-6q-38 -35 -73.5 -66.5t-78.5 -55.5t-98.5 -38t-132.5 -14q-82 0 -143 27t-100.5 75t-59 113.5t-19.5 143.5v436q0 68 -57 108q-12 12 -33 19q-11 4 -32 8t-52 8v78l594 27l10 -15v-653
q0 -104 30 -147t89 -43q45 0 87.5 26.5t72.5 69.5v526q0 66 -37.5 96t-122.5 35v78l575 27l13 -15v-764q0 -37 17.5 -63t48.5 -45q32 -18 110 -21v-77z" />
    <glyph glyph-name="Uhungarumlaut" unicode="&#x170;" horiz-adv-x="1776" 
d="M584 1546q54 57 96 103t71 81q62 72 92 97q33 27 68 39t78 12q60 0 95.5 -26.5t35.5 -63.5q0 -27 -9.5 -47t-34.5 -39q-24 -18 -90 -48q-32 -15 -123 -51t-242 -94zM1030 1546q62 65 112.5 121.5t92.5 106.5q50 56 95.5 80t105.5 24t95.5 -26.5t35.5 -63.5
q0 -40 -22.5 -65.5t-65.5 -47.5q-19 -9 -39 -18t-41 -18q-20 -9 -103 -41t-229 -89zM1782 1337q-140 -21 -180 -55q-46 -30 -61 -96q-15 -64 -15 -199v-467q0 -138 -44.5 -242.5t-124 -175.5t-190.5 -107t-243 -36q-337 0 -510.5 149t-173.5 445v649q0 71 -65 103
q-34 19 -130 36v78h850v-78l-63 -10q-30 -4 -55 -10.5t-43.5 -19.5t-29 -34t-10.5 -55v-669q2 -110 20 -191.5t59 -135t107.5 -80.5t166.5 -27q169 0 257.5 119.5t88.5 340.5v410q0 120 -15 184q-14 65 -59 109q-12 9 -35.5 18.5t-50 18.5t-52 16.5t-40.5 11.5v82h641v-82z
" />
    <glyph glyph-name="uhungarumlaut" unicode="&#x171;" horiz-adv-x="1487" 
d="M361 1137q54 75 95 135.5t72 109.5q63 98 93 131q33 36 68 52t77 16q60 0 95.5 -34.5t35.5 -86.5q0 -72 -49 -118q-25 -23 -101.5 -67.5t-207.5 -110.5l-141 -72zM807 1137q57 79 108 154.5t97 148.5q26 39 49 65.5t47 43.5t49.5 24.5t55.5 7.5q60 0 95.5 -34.5
t35.5 -86.5q-2 -42 -15.5 -72t-51.5 -60.5t-108 -68t-184 -95.5l-141 -72zM901 -10l-16 14v135h-6q-38 -35 -73.5 -66.5t-78.5 -55.5t-98.5 -38t-132.5 -14q-82 0 -143 27t-100.5 75t-59 113.5t-19.5 143.5v436q0 68 -57 108q-12 12 -33 19q-11 4 -32 8t-52 8v78l594 27
l10 -15v-653q0 -104 30 -147t89 -43q45 0 87.5 26.5t72.5 69.5v526q0 66 -37.5 96t-122.5 35v78l575 27l13 -15v-764q0 -37 17.5 -63t48.5 -45q32 -18 110 -21v-77z" />
    <glyph glyph-name="Uogonek" unicode="&#x172;" horiz-adv-x="1776" 
d="M1782 1337q-140 -21 -180 -55q-46 -30 -61 -96q-15 -64 -15 -199v-467q0 -92 -22 -174.5t-66.5 -150t-110.5 -118.5t-154 -81l-23 -35q-80 -121 -80 -192q0 -116 210 -131v-82h-6q-91 1 -158.5 6.5t-113.5 15.5q-91 19 -138.5 59.5t-47.5 106.5q0 38 11 69t30 57t45 48
t55 42q-8 -1 -16.5 -1h-16.5q-337 0 -510.5 149t-173.5 445v649q0 71 -65 103q-34 19 -130 36v78h850v-78l-63 -10q-30 -4 -55 -10.5t-43.5 -19.5t-29 -34t-10.5 -55v-669q2 -110 20 -191.5t59 -135t107.5 -80.5t166.5 -27q169 0 257.5 119.5t88.5 340.5v410q0 120 -15 184
q-14 65 -59 109q-12 9 -35.5 18.5t-50 18.5t-52 16.5t-40.5 11.5v82h641v-82z" />
    <glyph glyph-name="uogonek" unicode="&#x173;" horiz-adv-x="1487" 
d="M901 -10l-16 14v135h-6q-38 -35 -73.5 -66.5t-78.5 -55.5t-98.5 -38t-132.5 -14q-82 0 -143 27t-100.5 75t-59 113.5t-19.5 143.5v436q0 68 -57 108q-12 12 -33 19q-11 4 -32 8t-52 8v78l594 27l10 -15v-653q0 -104 30 -147t89 -43q45 0 87.5 26.5t72.5 69.5v526
q0 66 -37.5 96t-122.5 35v78l575 27l13 -15v-764q0 -37 17.5 -63t48.5 -45q32 -18 110 -21v-77l-247 -14l-31 -48q-80 -121 -80 -192q0 -116 210 -131v-82h-6q-91 1 -158.5 6.5t-113.5 15.5q-91 19 -138.5 59.5t-47.5 106.5q0 48 18.5 86t47.5 68.5t66.5 55t74.5 46.5z" />
    <glyph glyph-name="Wcircumflex" unicode="&#x174;" horiz-adv-x="2484" 
d="M1722 1509l-348 177l-348 -177l-43 39q27 35 46.5 60.5t35.5 45.5t29.5 37t29 35t34 39.5t44.5 49.5q34 36 74.5 49.5t97.5 13.5q32 0 56.5 -3t44 -9.5t36 -18t31.5 -28.5q78 -84 106 -118q14 -17 44.5 -55t76.5 -98zM2546 1333q-60 -4 -125 -41q-56 -29 -84 -85
t-273 -734l-178 -487h-276l-367 1050l-313 -1050h-279l-140 375q-124 334 -198.5 530.5t-97.5 255.5q-37 95 -115 139q-18 14 -35 22.5t-34.5 14t-36.5 8.5t-41 6v82h883v-78q-49 -7 -82 -13t-53.5 -13.5t-29.5 -17t-9 -23.5q0 -25 12 -66q42 -131 110 -326t164 -460
l299 1012h293l369 -1035q44 118 85 236.5t80 238.5q29 88 48 152.5t29 108.5q20 89 20 118q0 32 -54 52t-182 28v86h611v-86z" />
    <glyph glyph-name="wcircumflex" unicode="&#x175;" horiz-adv-x="1901" 
d="M1413 1094l-348 241l-348 -241l-47 32q40 66 68 113.5t52 86.5t47.5 75t55.5 80q28 38 67.5 54.5t104.5 16.5q64 0 102 -14t66 -53q42 -57 82 -118.5t81 -127.5l70 -113zM1911 918q-61 -13 -93.5 -39.5t-54.5 -73.5q-25 -58 -53 -127t-59 -150l-125 -317l-64 -170
l-18 -51h-270l-238 655l-203 -655h-270q-88 229 -149 381.5t-95 233.5t-56 133t-33 77q-9 20 -25 38.5t-36.5 33t-43 23.5t-45.5 10v75h737v-73q-144 -22 -144 -56q0 -10 12 -45.5t30.5 -84.5t40.5 -104.5t43 -106t37.5 -89.5t23.5 -55l194 627h269l241 -666q9 21 24.5 60
t34 88t37.5 102t34.5 101t25.5 86t10 57q0 24 -34 43q-35 20 -128 39v77h443v-77z" />
    <glyph glyph-name="Ycircumflex" unicode="&#x176;" horiz-adv-x="1649" 
d="M1227 1509l-348 177l-348 -177l-43 39q27 35 46.5 60.5t35.5 45.5t29.5 37t29 35t34 39.5t44.5 49.5q34 36 74.5 49.5t97.5 13.5q32 0 56.5 -3t44 -9.5t36 -18t31.5 -28.5q78 -84 106 -118q14 -17 44.5 -55t76.5 -98zM1722 1337q-77 -9 -132.5 -40.5t-103.5 -90.5
q-34 -40 -150 -207q-57 -83 -105.5 -155.5t-89.5 -136.5q-31 -48 -49 -84.5t-27 -72.5t-11.5 -77t-2.5 -98v-152q0 -33 8.5 -53.5t24 -33.5t38 -20.5t49.5 -14.5q31 -7 54 -12t39 -7v-82h-883v82q62 5 116 15q55 11 77 39.5t22 76.5v184q0 36 -2 63t-7.5 51.5t-16 50
t-28.5 59.5q-11 22 -47.5 86t-99.5 173t-106 180.5t-68 108.5q-24 37 -53.5 67.5t-65.5 52.5t-79.5 34.5t-96.5 13.5v82h959v-82l-62 -3q-58 -3 -94.5 -15.5t-36.5 -34.5q0 -62 309 -586q340 506 340 562q0 38 -43 55t-124 22v82h548v-82z" />
    <glyph glyph-name="ycircumflex" unicode="&#x177;" horiz-adv-x="1241" 
d="M1032 1094l-348 241l-348 -241l-47 32q40 66 68 113.5t52 86.5t47.5 75t55.5 80q28 38 67.5 54.5t104.5 16.5q64 0 102 -14t66 -53q42 -57 82 -118.5t81 -127.5l70 -113zM1272 918q-27 -6 -47 -13t-36.5 -18t-30.5 -27t-29 -39q-13 -20 -37 -67t-60 -122
q-70 -148 -309 -663q-96 -204 -210 -308.5t-257 -104.5q-45 0 -84.5 15t-69.5 42t-47.5 65t-17.5 84q0 85 53.5 135t147.5 50q112 0 245 -154q69 69 105 152l-90 171q-93 180 -186 352t-187 341q-59 98 -160 111v75h725v-73q-10 0 -31.5 -3.5t-43 -10.5t-38 -17.5
t-16.5 -24.5q0 -13 11 -40q53 -112 112 -220.5t123 -214.5q9 20 25.5 56t36 79.5t39.5 91.5t36 92t26.5 80t10.5 56q0 13 -11.5 25t-32.5 21.5t-49.5 16t-62.5 9.5v77h447v-77z" />
    <glyph glyph-name="Ydieresis" unicode="&#x178;" horiz-adv-x="1649" 
d="M1352 1698q0 -37 -16 -69.5t-42 -56.5t-60 -38t-70 -14q-37 0 -71 13.5t-60.5 37t-42 56t-15.5 71.5t15.5 72t41.5 57t60.5 37.5t71.5 13.5q36 0 70 -14t60.5 -38.5t42 -57.5t15.5 -70zM787 1698q0 -37 -16 -69.5t-42 -56.5t-60.5 -38t-70.5 -14q-37 0 -71.5 13.5t-60 37
t-41 56t-15.5 71.5q0 38 15.5 71t41 57t60 38t71.5 14q36 0 70 -14t60.5 -38.5t42.5 -57.5t16 -70zM1722 1337q-77 -9 -132.5 -40.5t-103.5 -90.5q-34 -40 -150 -207q-57 -83 -105.5 -155.5t-89.5 -136.5q-31 -48 -49 -84.5t-27 -72.5t-11.5 -77t-2.5 -98v-152
q0 -33 8.5 -53.5t24 -33.5t38 -20.5t49.5 -14.5q31 -7 54 -12t39 -7v-82h-883v82q62 5 116 15q55 11 77 39.5t22 76.5v184q0 36 -2 63t-7.5 51.5t-16 50t-28.5 59.5q-11 22 -47.5 86t-99.5 173t-106 180.5t-68 108.5q-24 37 -53.5 67.5t-65.5 52.5t-79.5 34.5t-96.5 13.5v82
h959v-82l-62 -3q-58 -3 -94.5 -15.5t-36.5 -34.5q0 -62 309 -586q340 506 340 562q0 38 -43 55t-124 22v82h548v-82z" />
    <glyph glyph-name="Zacute" unicode="&#x179;" horiz-adv-x="1503" 
d="M547 1552q45 35 81 66t64 57l70 61q84 75 149.5 108.5t124.5 33.5q63 0 102 -31t39 -82q0 -95 -106 -131q-20 -7 -69.5 -20t-127.5 -32l-299 -73zM1436 0h-1426v80l893 1239h-260q-187 0 -248 -41q-24 -26 -44 -51t-42.5 -59.5t-52 -83.5t-72.5 -121h-86l43 456h1315v-80
l-895 -1239h332q75 0 129.5 2t89.5 6q72 9 91 40l14 22q48 69 95 152.5t95 183.5h76z" />
    <glyph glyph-name="zacute" unicode="&#x17a;" horiz-adv-x="1149" 
d="M349 1137q152 189 231 303q51 71 102 106t123 35q69 0 108.5 -34.5t39.5 -86.5q0 -33 -11.5 -58.5t-30 -45.5t-43.5 -36t-52 -30q-75 -40 -267 -126l-159 -72zM35 0v82l565 815h-61q-214 0 -283 -29q-16 -7 -32.5 -35.5t-30.5 -63t-24.5 -67.5t-14.5 -49h-76v342h991v-75
l-565 -824l151 -2q51 0 87.5 1.5t61.5 3.5q44 5 72.5 15.5t48 29t33 45.5t28.5 66q14 38 25 71.5t19 62.5h78v-389h-1073z" />
    <glyph glyph-name="Zdotaccent" unicode="&#x17b;" horiz-adv-x="1503" 
d="M975 1697q0 -40 -16.5 -71.5t-44 -53.5t-62.5 -33.5t-72 -11.5q-40 0 -76 11.5t-64 34t-44.5 55.5t-16.5 76q0 42 17 74t45 54.5t64 34t75 11.5t74.5 -13t62 -37t42.5 -57t16 -74zM1436 0h-1426v80l893 1239h-260q-187 0 -248 -41q-24 -26 -44 -51t-42.5 -59.5t-52 -83.5
t-72.5 -121h-86l43 456h1315v-80l-895 -1239h332q75 0 129.5 2t89.5 6q72 9 91 40l14 22q48 69 95 152.5t95 183.5h76z" />
    <glyph glyph-name="zdotaccent" unicode="&#x17c;" horiz-adv-x="1149" 
d="M764 1339q0 -40 -16.5 -71.5t-44 -53.5t-62.5 -33.5t-72 -11.5q-40 0 -76 11.5t-64 34t-44.5 55.5t-16.5 76q0 42 17 74t45 54.5t64 34t75 11.5t74.5 -13t62 -37t42.5 -57t16 -74zM35 0v82l565 815h-61q-214 0 -283 -29q-16 -7 -32.5 -35.5t-30.5 -63t-24.5 -67.5
t-14.5 -49h-76v342h991v-75l-565 -824l151 -2q51 0 87.5 1.5t61.5 3.5q44 5 72.5 15.5t48 29t33 45.5t28.5 66q14 38 25 71.5t19 62.5h78v-389h-1073z" />
    <glyph glyph-name="Zcaron" unicode="&#x17d;" horiz-adv-x="1503" 
d="M467 1878l348 -176l348 176l43 -39l-65 -84q-24 -31 -62 -76.5t-92 -105.5q-29 -32 -68 -48t-104 -16q-37 0 -73 6t-67 28q-17 13 -75 76q-30 32 -75 87t-105 133zM1436 0h-1426v80l893 1239h-260q-187 0 -248 -41q-24 -26 -44 -51t-42.5 -59.5t-52 -83.5t-72.5 -121h-86
l43 456h1315v-80l-895 -1239h332q75 0 129.5 2t89.5 6q72 9 91 40l14 22q48 69 95 152.5t95 183.5h76z" />
    <glyph glyph-name="zcaron" unicode="&#x17e;" horiz-adv-x="1149" 
d="M1015 1520l-70 -113q-41 -66 -81 -127.5t-82 -118.5q-28 -39 -66.5 -53t-101.5 -14q-43 0 -72 6t-51.5 20t-41 36t-40.5 55l-30 45q-8 12 -47.5 77.5t-112.5 186.5l47 32l348 -241l348 241zM35 0v82l565 815h-61q-214 0 -283 -29q-16 -7 -32.5 -35.5t-30.5 -63
t-24.5 -67.5t-14.5 -49h-76v342h991v-75l-565 -824l151 -2q51 0 87.5 1.5t61.5 3.5q44 5 72.5 15.5t48 29t33 45.5t28.5 66q14 38 25 71.5t19 62.5h78v-389h-1073z" />
    <glyph glyph-name="longs" unicode="&#x17f;" horiz-adv-x="811" 
d="M1118 1343q0 -91 -53.5 -140.5t-144.5 -49.5q-32 0 -57 5.5t-46 17.5t-38 31t-34 46q-34 56 -90 205q-32 -32 -42.5 -82.5t-10.5 -113.5l6 -267v-796q0 -43 23 -66q24 -21 59 -33q36 -11 121 -20v-80h-784v80q82 0 117.5 24.5t35.5 88.5v761q-1 131 42 241t124 189
t197 122.5t260 41.5q152 0 233.5 -54t81.5 -151z" />
    <glyph glyph-name="florin" unicode="&#x192;" horiz-adv-x="1272" 
d="M1278 1118q0 -91 -47 -139.5t-135 -48.5q-60 0 -100.5 21.5t-75.5 69.5q-17 25 -41.5 70.5t-55.5 112.5q-15 -54 -51 -426h297v-131h-311l-6 -56q-39 -391 -86 -534q-72 -215 -226 -320.5t-385 -105.5q-48 0 -99.5 10t-94 34t-70 63.5t-27.5 97.5q0 81 52.5 129.5
t142.5 48.5q56 0 93.5 -19t69.5 -64q16 -23 40.5 -70.5t56.5 -122.5q14 47 34 267l11 118l58 524h-203v131h223q6 50 28 104.5t52.5 106.5t68 97.5t74.5 77.5q88 75 195.5 112t230.5 37q46 0 96.5 -9.5t93 -32t70 -60t27.5 -93.5z" />
    <glyph glyph-name="Ohorn" unicode="&#x1a0;" horiz-adv-x="1747" 
d="M1681 725q0 -223 -102 -402q-102 -178 -284 -271t-433 -93q-108 0 -209 22.5t-189.5 66t-161.5 106.5t-125.5 143.5t-81.5 178t-29 208.5q0 180 61.5 324.5t170 245t256.5 154.5t320 54q209 0 389 -83q39 5 67.5 12.5t47 19.5t29.5 30t15 44h-7q-69 0 -109 28t-40 91
q0 31 14 54t36 38t49.5 22t53.5 6q42 -2 71.5 -15.5t48 -36.5t26 -54.5t6.5 -68.5q-3 -91 -50.5 -151t-131.5 -91q146 -103 219 -253.5t73 -328.5zM1171 715q0 337 -74 490q-73 153 -223 153q-148 0 -223.5 -165.5t-75.5 -490.5q0 -319 75 -480t224 -161q297 0 297 654z" />
    <glyph glyph-name="ohorn" unicode="&#x1a1;" horiz-adv-x="1403" 
d="M1329 500q2 -118 -43.5 -217.5t-129 -170.5t-202 -110t-264.5 -37q-121 0 -232.5 32.5t-196.5 98.5t-136 165.5t-51 234.5q-2 119 41.5 218t124.5 169.5t196 108.5t256 36q206 0 353 -71q39 5 66.5 13t46 20t29.5 30t15 43h-7q-69 0 -109 28t-40 91q0 31 14 54t36 38
t49.5 22t53.5 6q42 -2 71.5 -15.5t48 -36.5t26 -54.5t6.5 -68.5q-3 -93 -52.5 -154t-137.5 -90q168 -142 168 -383zM854 506q0 181 -15 263q-15 84 -48 128.5t-93 44.5q-34 0 -57.5 -15t-38.5 -38t-24 -52t-15 -57q-14 -79 -14 -270q0 -106 3 -179t10 -115q14 -82 46 -123.5
t90 -41.5q36 0 60 16.5t40 42t25.5 57t14.5 60.5q16 83 16 279z" />
    <glyph glyph-name="Uhorn" unicode="&#x1af;" horiz-adv-x="1776" 
d="M1550 1420q-1 -9 -1.5 -17.5t-1.5 -16.5q56 11 83.5 33t34.5 66h-7q-69 0 -109 28t-40 91q0 31 14 54t36 38t49.5 22t53.5 6q42 -2 71.5 -15.5t48 -36.5t26 -54.5t6.5 -68.5q-4 -114 -76.5 -179.5t-198.5 -84.5q-7 -99 -10 -173t-3 -125v-467q0 -138 -44.5 -242.5
t-124 -175.5t-190.5 -107t-243 -36q-337 0 -510.5 149t-173.5 445v649q0 71 -65 103q-34 19 -130 36v78h850v-78l-63 -10q-30 -4 -55 -10.5t-43.5 -19.5t-29 -34t-10.5 -55v-669q2 -110 20 -191.5t59 -135t107.5 -80.5t166.5 -27q169 0 257.5 119.5t88.5 340.5v410
q0 120 -15 184q-14 65 -59 109q-12 9 -35.5 18.5t-50 18.5t-52 16.5t-40.5 11.5v82z" />
    <glyph glyph-name="uhorn" unicode="&#x1b0;" horiz-adv-x="1487" 
d="M901 -10l-16 14v135h-6q-38 -35 -73.5 -66.5t-78.5 -55.5t-98.5 -38t-132.5 -14q-82 0 -143 27t-100.5 75t-59 113.5t-19.5 143.5v436q0 68 -57 108q-12 12 -33 19q-11 4 -32 8t-52 8v78l594 27l10 -15v-653q0 -104 30 -147t89 -43q45 0 87.5 26.5t72.5 69.5v526
q0 66 -37.5 96t-122.5 35v78l575 27l13 -15v-24q44 12 65 33.5t28 60.5h-7q-69 0 -109 28t-40 91q0 31 14 54t36 38t49.5 22t53.5 6q42 -2 71.5 -15.5t48 -36.5t26 -54.5t6.5 -68.5q-4 -106 -67.5 -170.5t-174.5 -88.5v-639q0 -37 17.5 -63t48.5 -45q32 -18 110 -21v-77z
" />
    <glyph glyph-name="Aringacute" unicode="&#x1fa;" horiz-adv-x="1634" 
d="M1118 1432q0 -57 -25.5 -102.5t-68.5 -69.5q169 -409 278.5 -670t159.5 -375q52 -114 221 -133v-82h-890v82q6 1 24.5 3t42 5.5t49.5 8.5t47.5 11t35.5 13.5t14 15.5q0 22 -19 70l-100 254h-465l-13 -31q-10 -23 -23.5 -59t-26.5 -74t-22 -74.5t-9 -60.5q0 -27 43 -46
t172 -36v-82h-611v82q95 4 163 43.5t106 128.5q103 232 208 483t222 516q-99 62 -99 179q0 107 103 180l32 23l51 40q67 57 119 95.5t90 61.5q74 46 148 46q63 0 97 -27.5t34 -72.5q0 -78 -98 -111q-17 -7 -137 -33q147 -60 147 -202zM956 1432q0 69 -32.5 111t-98.5 42
q-63 0 -97 -40.5t-34 -112.5q0 -70 32.5 -111t98.5 -41t98.5 40t32.5 112zM662 1036l-197 -463h377z" />
    <glyph glyph-name="aringacute" unicode="&#x1fb;" horiz-adv-x="1311" 
d="M404 1552q45 35 81 66t64 57l70 61q84 75 149.5 108.5t124.5 33.5q63 0 102 -31t39 -82q0 -95 -106 -131q-20 -7 -69.5 -20t-127.5 -32l-299 -73zM1294 23q-24 -13 -60 -24t-75 -19t-76.5 -12.5t-64.5 -4.5q-67 0 -118.5 7t-89 23.5t-63.5 43t-42 65.5h-7
q-40 -39 -77 -65t-76.5 -42t-85 -23t-103.5 -7q-57 0 -107 17t-87.5 49t-59.5 79t-22 107q0 106 50.5 176t170.5 113q30 11 84.5 29t133.5 42q139 41 179 60v108q0 107 -25 151t-71 44q-59 0 -106 -31l11 -25q30 -63 30 -118q0 -79 -53 -113.5t-150 -34.5
q-100 0 -154.5 42.5t-54.5 123.5q0 42 18.5 74.5t49.5 57.5t70.5 43t81.5 31t83 20.5t74 11.5q-75 24 -117.5 79t-42.5 136q0 62 25 107.5t66 75t93.5 43.5t108.5 14t109 -14t94 -43t65.5 -74.5t24.5 -108.5q0 -80 -44 -135t-117 -80q79 -7 145 -27t113.5 -59t74 -100
t26.5 -152l-2 -180l-8 -275q0 -57 17 -85t52 -35t65 -7h44v-79zM766 1237q0 75 -32.5 120.5t-98.5 45.5q-63 0 -97 -43.5t-34 -122.5q0 -75 32.5 -118.5t98.5 -43.5t98.5 43.5t32.5 118.5zM696 541q-39 -22 -74 -41.5t-61 -46t-41.5 -65t-15.5 -97.5q0 -64 29 -101.5
t71 -37.5q31 0 50.5 11t39.5 42z" />
    <glyph glyph-name="AEacute" unicode="&#x1fc;" horiz-adv-x="2249" 
d="M1143 1552q45 35 81 66t64 57l70 61q84 75 149.5 108.5t124.5 33.5q63 0 102 -31t39 -82q0 -95 -106 -131q-20 -7 -69.5 -20t-127.5 -32l-299 -73zM2171 0h-1366v82q60 4 101 12.5t64 21.5q46 25 46 93v377h-484q-49 -87 -153 -291q-57 -111 -57 -145q0 -21 43 -36.5
t110 -23.5l55 -8v-82h-614v82q46 5 83 14t68.5 25t59.5 41t55 62q26 33 171 285q74 128 186 327t264 475q-42 8 -86.5 14.5t-93.5 11.5v82h1482v-377h-80q-15 35 -41.5 77t-60 80t-72 68t-77.5 42q-47 14 -138 14h-168v-541h70q113 0 184 64q14 11 29.5 36t28.5 53.5
t22.5 56.5t12.5 46h75v-616h-75q-4 19 -14 48t-22.5 59t-27.5 56t-29 38q-59 65 -184 65h-70v-399q0 -82 13 -121q9 -27 24.5 -41.5t35.5 -21.5t43 -8t48 -1q233 0 287 54q26 26 55.5 65t57.5 82t53 85.5t41 76.5h72zM1016 1327h-76l-350 -641h426v641z" />
    <glyph glyph-name="aeacute" unicode="&#x1fd;" horiz-adv-x="1882" 
d="M791 1137q152 189 231 303q51 71 102 106t123 35q69 0 108.5 -34.5t39.5 -86.5q0 -33 -11.5 -58.5t-30 -45.5t-43.5 -36t-52 -30q-75 -40 -267 -126l-159 -72zM1845 246q-44 -70 -103 -123.5t-128 -88.5t-147 -53t-160 -18q-189 0 -314 58.5t-192 158.5h-4
q-44 -59 -91 -100t-100.5 -66.5t-115 -37t-134.5 -11.5q-57 0 -107 17t-87.5 49t-59.5 79t-22 107q0 106 50.5 176t170.5 113q30 11 84.5 29t133.5 42q139 41 179 60v108q0 107 -25 151t-71 44q-59 0 -106 -31l11 -25q30 -63 30 -118q0 -79 -53 -113.5t-150 -34.5
q-100 0 -154.5 42.5t-54.5 123.5q0 46 23.5 81t58.5 61t77.5 43t79.5 27q117 32 259 32q238 0 356 -72q134 72 311 72q128 0 226 -29.5t165 -85t101.5 -134.5t34.5 -179v-65h-650q0 -210 71.5 -306t227.5 -96q44 0 87 14.5t82 38.5t72 56t58 67zM1372 625q0 188 -24 252
q-24 65 -74 65q-55 0 -81 -79t-26 -245zM696 541q-39 -22 -74 -41.5t-61 -46t-41.5 -65t-15.5 -97.5q0 -64 29 -101.5t71 -37.5q31 0 55 17t35 36z" />
    <glyph glyph-name="Oslashacute" unicode="&#x1fe;" horiz-adv-x="1747" 
d="M654 1552q45 35 81 66t64 57l70 61q84 75 149.5 108.5t124.5 33.5q63 0 102 -31t39 -82q0 -95 -106 -131q-20 -7 -69.5 -20t-127.5 -32l-299 -73zM1681 725q0 -223 -102 -402q-102 -178 -284 -271t-433 -93q-288 0 -500 150l-210 -209l-78 80l202 198q-210 201 -210 506
q0 180 61.5 324.5t170 245t256.5 154.5t320 54q300 0 515 -155l223 225l78 -78l-215 -219q206 -203 206 -510zM575 702q0 -60 3 -112.5t8 -97.5l557 565q-61 301 -269 301q-148 0 -223.5 -165.5t-75.5 -490.5zM1171 715q0 62 -2 112.5t-6 92.5l-557 -564q66 -295 268 -295
q297 0 297 654z" />
    <glyph glyph-name="oslashacute" unicode="&#x1ff;" horiz-adv-x="1403" 
d="M537 1137q152 189 231 303q51 71 102 106t123 35q69 0 108.5 -34.5t39.5 -86.5q0 -33 -11.5 -58.5t-30 -45.5t-43.5 -36t-52 -30q-75 -40 -267 -126l-159 -72zM1329 500q2 -118 -43.5 -217.5t-129 -170.5t-202 -110t-264.5 -37q-229 0 -387 101l-223 -207l-72 73l215 195
q-149 143 -149 369q-2 119 41.5 218t124.5 169.5t196 108.5t256 36q243 0 410 -104l229 209l70 -74l-221 -195q149 -140 149 -364zM549 424l299 270q-13 134 -49 191t-101 57q-34 0 -57.5 -15t-38.5 -38t-24 -52t-15 -57q-14 -79 -14 -270v-86zM854 571l-301 -276
q5 -66 16 -112.5t29 -76t42.5 -42.5t57.5 -13q36 0 60 16.5t40 42t25.5 57t14.5 60.5q16 83 16 279v65z" />
    <glyph glyph-name="uni0218" unicode="&#x218;" horiz-adv-x="1395" 
d="M1341 420q2 -99 -45 -185t-132 -149t-203 -98t-259 -33q-135 0 -250.5 25.5t-220.5 87.5l-88 -68h-86l-14 530h90q24 -49 54 -102.5t65.5 -105t77.5 -97.5t90.5 -81t103.5 -55.5t117 -20.5q51 0 100 13.5t88 41t62.5 69.5t23.5 99q0 72 -53 116q-52 45 -192 87
q-59 16 -140.5 42t-187.5 64q-63 24 -112 66t-82.5 95.5t-51.5 116t-18 128.5q-1 96 41 179.5t119 145t185 96.5t239 33q51 0 105 -6t107.5 -17.5t104.5 -29t96 -41.5l74 53h90l8 -491h-88q-20 44 -43 92.5t-51 96t-61 90.5t-73 75.5t-87.5 52t-104.5 19.5q-49 0 -93 -14
t-77.5 -41t-53 -67t-19.5 -93q0 -50 25 -85.5t62.5 -60t82 -40t84.5 -27.5q113 -32 190.5 -55.5t120.5 -39.5q138 -54 209 -158t71 -253zM871 -231q0 -108 -88.5 -160.5t-253.5 -52.5v67q30 1 65 5t66.5 15t55 32t32.5 57h-58q-94 0 -129 18q-34 16 -34 86q0 24 12 42.5
t33 31t50 18.5t62 6q95 0 141 -46t46 -119z" />
    <glyph glyph-name="uni0219" unicode="&#x219;" horiz-adv-x="1108" 
d="M1067 326q0 -70 -21.5 -124.5t-58 -95t-86 -69t-106 -46t-117 -25t-119.5 -7.5q-44 0 -91.5 7t-95 19t-93 29t-84.5 37l-37 -69h-80l-15 393h74q24 -63 65 -123t92 -106t108 -73.5t114 -25.5q79 0 114.5 29.5t35.5 101.5q0 48 -36 78.5t-117 55.5l-110 32
q-84 26 -142.5 60t-95.5 77t-54 95t-17 114q-2 72 32.5 133.5t97.5 106.5t150.5 70t190.5 24q47 0 89 -4.5t82.5 -12.5t81 -20.5t83.5 -28.5l21 64h77l17 -358h-74q-41 113 -131 190q-88 78 -172 78q-66 0 -104.5 -27t-38.5 -84q0 -60 47 -93q48 -32 211 -75
q313 -82 313 -327zM742 -231q0 -108 -88.5 -160.5t-253.5 -52.5v67q30 1 65 5t66.5 15t55 32t32.5 57h-58q-94 0 -129 18q-34 16 -34 86q0 24 12 42.5t33 31t50 18.5t62 6q95 0 141 -46t46 -119z" />
    <glyph glyph-name="uni021A" unicode="&#x21a;" horiz-adv-x="1454" 
d="M1360 999q-8 21 -21.5 50.5t-31 63t-39 67t-44 61.5t-46.5 47.5t-48 24.5l-77 5l-80 3h-17v-1098q0 -51 22.5 -76.5t67.5 -39.5q8 -2 37 -8t80 -17v-82h-874v82l35 5q95 10 112 17q64 28 64 109v1108h-17l-80 -3l-79 -5q-23 -4 -46.5 -23.5t-46.5 -48t-44.5 -62.5
t-40 -67.5t-32.5 -63t-22 -49.5h-82v420h1434v-420h-84zM918 -231q0 -108 -88.5 -160.5t-253.5 -52.5v67q30 1 65 5t66.5 15t55 32t32.5 57h-58q-94 0 -129 18q-34 16 -34 86q0 24 12 42.5t33 31t50 18.5t62 6q95 0 141 -46t46 -119z" />
    <glyph glyph-name="uni021B" unicode="&#x21b;" horiz-adv-x="887" 
d="M887 47q-187 -78 -350 -78q-182 0 -272.5 84.5t-90.5 247.5v576h-182v114h186v301h424v-301h277v-114h-275v-512q0 -132 32 -185q32 -51 107 -51l77 3l67 5v-90zM692 -231q0 -108 -88.5 -160.5t-253.5 -52.5v67q30 1 65 5t66.5 15t55 32t32.5 57h-58q-94 0 -129 18
q-34 16 -34 86q0 24 12 42.5t33 31t50 18.5t62 6q95 0 141 -46t46 -119z" />
    <glyph glyph-name="uni0237" unicode="&#x237;" horiz-adv-x="786" 
d="M635 160q0 -171 -83 -314q-84 -144 -224.5 -217t-327.5 -73q-142 0 -221.5 54t-79.5 154q0 87 54.5 138t150.5 51q61 0 99.5 -23t69.5 -75q17 -26 39.5 -77.5t51.5 -127.5q22 28 29 104q4 38 6 124t2 222v654q0 72 -59 107q-29 17 -55.5 26.5t-49.5 11.5v82l584 27
l14 -15v-833z" />
    <glyph glyph-name="circumflex" unicode="&#x2c6;" horiz-adv-x="1024" 
d="M858 1094l-348 241l-348 -241l-47 32q40 66 68 113.5t52 86.5t47.5 75t55.5 80q28 38 67.5 54.5t104.5 16.5q64 0 102 -14t66 -53q42 -57 82 -118.5t81 -127.5l70 -113z" />
    <glyph glyph-name="caron" unicode="&#x2c7;" horiz-adv-x="1024" 
d="M911 1520l-70 -113q-41 -66 -81 -127.5t-82 -118.5q-28 -39 -66.5 -53t-101.5 -14q-43 0 -72 6t-51.5 20t-41 36t-40.5 55l-30 45q-8 12 -47.5 77.5t-112.5 186.5l47 32l348 -241l348 241z" />
    <glyph glyph-name="uni02C9" unicode="&#x2c9;" horiz-adv-x="1024" 
d="M131 1200v219h762v-219h-762z" />
    <glyph glyph-name="breve" unicode="&#x2d8;" horiz-adv-x="1024" 
d="M854 1559q-46 -418 -342 -418q-147 0 -234 105t-108 313l84 18q16 -54 33.5 -98.5t46 -77t71 -50.5t107.5 -18q66 0 109 17.5t70.5 49.5t45 77t33.5 100z" />
    <glyph glyph-name="dotaccent" unicode="&#x2d9;" horiz-adv-x="1024" 
d="M711 1339q0 -40 -16.5 -71.5t-44 -53.5t-62.5 -33.5t-72 -11.5q-40 0 -76 11.5t-64 34t-44.5 55.5t-16.5 76q0 42 17 74t45 54.5t64 34t75 11.5t74.5 -13t62 -37t42.5 -57t16 -74z" />
    <glyph glyph-name="ring" unicode="&#x2da;" horiz-adv-x="1024" 
d="M805 1333q0 -62 -25 -106.5t-66.5 -73t-94 -42t-107.5 -13.5q-56 0 -109 13t-94 41t-65.5 73t-24.5 108q0 62 25 107.5t66 75t93.5 43.5t108.5 14t109 -14t94 -43t65.5 -74.5t24.5 -108.5zM643 1333q0 75 -32.5 120.5t-98.5 45.5q-63 0 -97 -43.5t-34 -122.5
q0 -75 32.5 -118.5t98.5 -43.5t98.5 43.5t32.5 118.5z" />
    <glyph glyph-name="ogonek" unicode="&#x2db;" horiz-adv-x="1024" 
d="M739 -444q-91 1 -158.5 6.5t-113.5 15.5q-91 19 -138.5 59.5t-47.5 106.5q0 80 56 145q57 64 222 150h107l-51 -78q-80 -121 -80 -192q0 -116 210 -131v-82h-6z" />
    <glyph glyph-name="tilde" unicode="&#x2dc;" horiz-adv-x="1024" 
d="M1004 1485q-17 -56 -46 -114t-70 -105t-94.5 -77t-119.5 -30q-138 0 -250 59q-67 34 -101 46q-33 12 -69 12q-50 0 -84 -34t-68 -103l-82 35q60 161 144 238t184 77q81 0 138.5 -17.5t102.5 -39t83.5 -39t81.5 -17.5q35 0 62.5 9.5t50.5 35.5q10 11 22.5 33.5t28.5 54.5z
" />
    <glyph glyph-name="hungarumlaut" unicode="&#x2dd;" horiz-adv-x="1024" 
d="M121 1137q54 75 95 135.5t72 109.5q63 98 93 131q33 36 68 52t77 16q60 0 95.5 -34.5t35.5 -86.5q0 -72 -49 -118q-25 -23 -101.5 -67.5t-207.5 -110.5l-141 -72zM567 1137q57 79 108 154.5t97 148.5q26 39 49 65.5t47 43.5t49.5 24.5t55.5 7.5q60 0 95.5 -34.5
t35.5 -86.5q-2 -42 -15.5 -72t-51.5 -60.5t-108 -68t-184 -95.5l-141 -72z" />
    <glyph glyph-name="gravecomb" unicode="&#x300;" horiz-adv-x="1024" 
d="M803 1509l-156 39q-298 70 -340 86q-106 37 -106 131q0 51 39 82t102 31q61 0 127 -34.5t148 -107.5l69 -61q28 -26 64 -57t81 -66z" />
    <glyph glyph-name="acutecomb" unicode="&#x301;" horiz-adv-x="1024" 
d="M201 1552q45 35 81 66t64 57l70 61q84 75 149.5 108.5t124.5 33.5q63 0 102 -31t39 -82q0 -95 -106 -131q-20 -7 -69.5 -20t-127.5 -32l-299 -73z" />
    <glyph glyph-name="uni0302" unicode="&#x302;" horiz-adv-x="1024" 
d="M858 1509l-348 177l-348 -177l-43 39q27 35 46.5 60.5t35.5 45.5t29.5 37t29 35t34 39.5t44.5 49.5q34 36 74.5 49.5t97.5 13.5q32 0 56.5 -3t44 -9.5t36 -18t31.5 -28.5q78 -84 106 -118q14 -17 44.5 -55t76.5 -98z" />
    <glyph glyph-name="uni0306" unicode="&#x306;" horiz-adv-x="1024" 
d="M854 1862q-22 -177 -104 -264t-238 -87q-301 0 -342 351l84 16q19 -48 41 -81.5t52 -54t70 -29.5t95 -9q56 0 96 8.5t69.5 29t51.5 54t41 82.5z" />
    <glyph glyph-name="uni0308" unicode="&#x308;" horiz-adv-x="1024" 
d="M983 1698q0 -37 -16 -69.5t-42 -56.5t-60 -38t-70 -14q-37 0 -71 13.5t-60.5 37t-42 56t-15.5 71.5t15.5 72t41.5 57t60.5 37.5t71.5 13.5q36 0 70 -14t60.5 -38.5t42 -57.5t15.5 -70zM418 1698q0 -37 -16 -69.5t-42 -56.5t-60.5 -38t-70.5 -14q-37 0 -71.5 13.5t-60 37
t-41 56t-15.5 71.5q0 38 15.5 71t41 57t60 38t71.5 14q36 0 70 -14t60.5 -38.5t42.5 -57.5t16 -70z" />
    <glyph glyph-name="uni030B" unicode="&#x30b;" horiz-adv-x="1024" 
d="M121 1546q54 57 96 103t71 81q62 72 92 97q33 27 68 39t78 12q60 0 95.5 -26.5t35.5 -63.5q0 -27 -9.5 -47t-34.5 -39q-24 -18 -90 -48q-32 -15 -123 -51t-242 -94zM567 1546q62 65 112.5 121.5t92.5 106.5q50 56 95.5 80t105.5 24t95.5 -26.5t35.5 -63.5
q0 -40 -22.5 -65.5t-65.5 -47.5q-19 -9 -39 -18t-41 -18q-20 -9 -103 -41t-229 -89z" />
    <glyph glyph-name="uni030C" unicode="&#x30c;" horiz-adv-x="1024" 
d="M166 1878l348 -176l348 176l43 -39l-65 -84q-24 -31 -62 -76.5t-92 -105.5q-29 -32 -68 -48t-104 -16q-37 0 -73 6t-67 28q-17 13 -75 76q-30 32 -75 87t-105 133z" />
    <glyph glyph-name="uni0326" unicode="&#x326;" horiz-adv-x="1024" 
d="M756 -231q0 -108 -88.5 -160.5t-253.5 -52.5v67q30 1 65 5t66.5 15t55 32t32.5 57h-58q-94 0 -129 18q-34 16 -34 86q0 24 12 42.5t33 31t50 18.5t62 6q95 0 141 -46t46 -119z" />
    <glyph glyph-name="tonos" unicode="&#x384;" horiz-adv-x="1024" 
d="M758 1520l-336 -398h-88l51 437h373v-39z" />
    <glyph glyph-name="dieresistonos" unicode="&#x385;" horiz-adv-x="1024" 
d="M745 1632l-274 -489h-94l18 530h350v-41zM1100 1360q0 -39 -14.5 -74.5t-40 -63.5t-60 -44.5t-74.5 -16.5t-74.5 16.5t-60 44t-39.5 63.5t-14 75t14 75t39.5 63.5t60 44t74.5 16.5q39 0 73.5 -16.5t60 -44.5t40.5 -64t15 -74zM301 1360q0 -38 -14.5 -74t-40 -63.5
t-60 -44.5t-73.5 -17q-40 0 -74.5 16.5t-60 44t-40 63.5t-14.5 75t14.5 75t39.5 63.5t60 44t75 16.5q39 0 73.5 -16.5t60 -44.5t40 -64t14.5 -74z" />
    <glyph glyph-name="Alphatonos" unicode="&#x386;" horiz-adv-x="1634" 
d="M799 0v82q6 1 24.5 3t42 5.5t49.5 8.5t47.5 11t35.5 13.5t14 15.5q0 20 -19 70l-92 254h-479q-9 -23 -23.5 -64.5t-29 -86t-25 -85t-10.5 -63.5q0 -27 43 -46t172 -36v-82h-615v82q51 3 92.5 13t75 30.5t59.5 53t46 81.5q115 274 232 570.5t251 609.5h287
q112 -274 194.5 -480.5t137.5 -350.5q38 -100 76.5 -199t80.5 -199q14 -26 34 -49t61 -43q32 -20 68.5 -26t70.5 -11v-82h-901zM502 1383l-336 -398h-88l51 437h373v-39zM659 1077l-198 -508h395z" />
    <glyph glyph-name="anoteleia" unicode="&#x387;" horiz-adv-x="788" 
d="M634 760q0 -48 -19.5 -91t-52 -75.5t-76 -51t-91.5 -18.5q-49 0 -93 18t-77 49.5t-52.5 75t-19.5 93.5t19.5 93.5t52.5 76t77 51t93 18.5t92.5 -19t76 -51.5t51.5 -76t19 -92.5z" />
    <glyph glyph-name="Epsilontonos" unicode="&#x388;" horiz-adv-x="1966" 
d="M426 1383l-336 -398h-88l51 437h373v-39zM1888 0h-1399v82l36 3q95 9 135 34t40 90v989q0 34 -13 59.5t-54 45.5q-28 10 -63.5 18.5t-80.5 15.5v82h1329v-377h-77q-15 38 -42.5 81t-63 81t-75.5 67.5t-81 39.5q-46 12 -173 12h-149v-541h94q118 0 189 64q12 11 26 36
t27 54.5t22 57.5t11 44h77v-616h-77q-3 16 -12.5 45.5t-22 60t-26.5 57.5t-25 38q-71 65 -189 65h-94v-399q0 -60 7.5 -97.5t27.5 -59t55.5 -29t91.5 -7.5q235 0 295 54q25 27 54.5 66t58 81.5t53 85t39.5 76.5h76z" />
    <glyph glyph-name="Etatonos" unicode="&#x389;" horiz-adv-x="2404" 
d="M426 1383l-336 -398h-88l51 437h373v-39zM1464 0v82q116 7 155 23q38 17 50 49q12 35 8 51v475h-520v-465q0 -80 70 -102q27 -14 145 -31v-82h-891v82q58 5 96.5 10.5t57.5 12.5q39 13 52 40.5t13 63.5v989q0 27 -7.5 45.5t-21 31.5t-33 21t-43.5 15q-61 19 -114 26v82
h891v-82q-107 -14 -134 -21q-81 -22 -81 -108v-411h520v401q0 51 -30 76t-75 38q-29 8 -55.5 14.5t-52.5 10.5v82h891v-82q-129 -17 -154 -24q-41 -16 -54 -43.5t-13 -61.5v-993q0 -77 67 -102q14 -7 52.5 -15t101.5 -16v-82h-891z" />
    <glyph glyph-name="Iotatonos" unicode="&#x38a;" horiz-adv-x="1425" 
d="M426 1383l-336 -398h-88l51 437h373v-39zM483 0v82q135 11 154 20q40 14 51.5 41t11.5 64v991q0 71 -63 105q-10 4 -30 9t-51 11t-49 9.5t-24 4.5v82h891v-82l-34 -4q-45 -6 -74.5 -11t-45.5 -9q-41 -16 -52 -43.5t-11 -61.5v-993q0 -76 63 -102q18 -12 154 -31v-82h-891
z" />
    <glyph glyph-name="Omicrontonos" unicode="&#x38c;" horiz-adv-x="1939" 
d="M1874 725q0 -223 -102 -402q-102 -178 -284 -271t-433 -93q-108 0 -209 22.5t-189.5 66t-161.5 106.5t-125.5 143.5t-81.5 178t-29 208.5q0 180 61.5 324.5t170 245t256.5 154.5t320 54q167 0 313.5 -51t256.5 -146.5t173.5 -232t63.5 -307.5zM426 1383l-336 -398h-88
l51 437h373v-39zM1364 715q0 337 -74 490q-73 153 -223 153q-148 0 -223.5 -165.5t-75.5 -490.5q0 -319 75 -480t224 -161q297 0 297 654z" />
    <glyph glyph-name="Upsilontonos" unicode="&#x38e;" horiz-adv-x="2185" 
d="M426 1383l-336 -398h-88l51 437h373v-39zM2259 1337q-77 -9 -132.5 -40.5t-103.5 -90.5q-34 -40 -150 -207q-57 -83 -105.5 -155.5t-89.5 -136.5q-31 -48 -49 -84.5t-27 -72.5t-11.5 -77t-2.5 -98v-152q0 -33 8.5 -53.5t24 -33.5t38 -20.5t49.5 -14.5q31 -7 54 -12t39 -7
v-82h-883v82q62 5 116 15q55 11 77 39.5t22 76.5v184q0 36 -2 63t-7.5 51.5t-16 50t-28.5 59.5q-11 22 -47.5 86t-99.5 173t-106 180.5t-68 108.5q-24 37 -53.5 67.5t-65.5 52.5t-79.5 34.5t-96.5 13.5v82h959v-82l-62 -3q-58 -3 -94.5 -15.5t-36.5 -34.5q0 -62 309 -586
q340 506 340 562q0 38 -43 55t-124 22v82h548v-82z" />
    <glyph glyph-name="Omegatonos" unicode="&#x38f;" horiz-adv-x="2052" 
d="M1716 283q47 0 85.5 19t71 49.5t58.5 67.5t48 73l77 -25l-141 -467h-762v119l70 116q48 78 79.5 144.5t50 132.5t26.5 139t8 164q0 45 -3.5 103t-14 118.5t-29.5 118t-50 103t-76 73t-108 27.5q-136 0 -206 -137t-70 -406q0 -90 8 -163t26.5 -140.5t49.5 -134t77 -143.5
l68 -115v-119h-760l-143 467l82 25q114 -209 262 -209h276v14q-184 128 -238 172q-55 45 -95.5 88.5t-66.5 93t-39 108.5t-13 134q0 89 30 165t81 138.5t119.5 110.5t146.5 80q180 75 405 75q93 0 190 -14t188 -46.5t171 -86t139 -131.5q99 -130 99 -291q0 -94 -23.5 -165
t-65.5 -128t-100.5 -106t-128.5 -99l-135 -98v-14h276zM426 1383l-336 -398h-88l51 437h373v-39z" />
    <glyph glyph-name="iotadieresistonos" unicode="&#x390;" horiz-adv-x="795" 
d="M649 1632l-274 -489h-94l18 530h350v-41zM1004 1360q0 -39 -14.5 -74.5t-40 -63.5t-60 -44.5t-74.5 -16.5t-74.5 16.5t-60 44t-39.5 63.5t-14 75t14 75t39.5 63.5t60 44t74.5 16.5q39 0 73.5 -16.5t60 -44.5t40.5 -64t15 -74zM205 1360q0 -38 -14.5 -74t-40 -63.5
t-60 -44.5t-73.5 -17q-40 0 -74.5 16.5t-60 44t-40 63.5t-14.5 75t14.5 75t39.5 63.5t59.5 44t75.5 16.5q39 0 73.5 -16.5t60 -44.5t40 -64t14.5 -74zM858 61q-186 -92 -328 -92q-92 0 -158 19.5t-109 61.5t-63 107.5t-20 157.5l2 439q0 60 -40.5 95.5t-133.5 51.5v80
l588 27l18 -15v-559q0 -163 10 -207q10 -46 34 -65t75 -19q50 0 125 15v-97z" />
    <glyph glyph-name="Alpha" unicode="&#x391;" horiz-adv-x="1634" 
d="M799 0v82q6 1 24.5 3t42 5.5t49.5 8.5t47.5 11t35.5 13.5t14 15.5q0 20 -19 70l-92 254h-479q-9 -23 -23.5 -64.5t-29 -86t-25 -85t-10.5 -63.5q0 -27 43 -46t172 -36v-82h-615v82q51 3 92.5 13t75 30.5t59.5 53t46 81.5q115 274 232 570.5t251 609.5h287
q112 -274 194.5 -480.5t137.5 -350.5q38 -100 76.5 -199t80.5 -199q14 -26 34 -49t61 -43q32 -20 68.5 -26t70.5 -11v-82h-901zM659 1077l-198 -508h395z" />
    </font>
</defs>
</svg>
