<?xml version="1.0" standalone="no"?>
<!DOCTYPE svg PUBLIC "-//W3C//DTD SVG 1.1//EN" "http://www.w3.org/Graphics/SVG/1.1/DTD/svg11.dtd" >
<svg xmlns="http://www.w3.org/2000/svg" xmlns:xlink="http://www.w3.org/1999/xlink" version="1.1">
<metadata>
Created by FontForge 20201107 at Thu Oct 21 09:39:50 2021
 By 
(c) 2011 Microsoft Corporation. All Rights Reserved.
</metadata>
<defs>
<font id="SVN-GeorgiaPro-Regular" horiz-adv-x="1024" >
  <font-face 
    font-family="SVN-Georgia Pro"
    font-weight="400"
    font-stretch="normal"
    units-per-em="2048"
    panose-1="2 4 5 2 5 4 5 2 3 3"
    ascent="1638"
    descent="-410"
    x-height="985"
    cap-height="1419"
    bbox="-354 -621 2390 2223"
    underline-thickness="101"
    underline-position="-229"
    unicode-range="U+0020-FB04"
  />
<missing-glyph horiz-adv-x="2048" 
d="M256 0v1536h1536v-1536h-1536zM385 129h1280v1280h-1280v-1280z" />
    <glyph glyph-name="f_f" unicode="ff" horiz-adv-x="1270" 
d="M1149 1464q-139 -9 -139 -381v-102h254v-94h-254v-709q0 -61 40 -83q42 -22 148 -29v-66h-520v66l48 5q97 7 97 97v719h-417v-709q0 -61 40 -83q42 -22 148 -29v-66h-520v66l48 5q97 7 97 97v719h-194v94h194v41q0 224 115 363q116 141 293 141q89 0 134.5 -34.5
t45.5 -84.5q0 -107 -98 -107q-79 0 -164 142q-139 -9 -139 -381v-80h417v63q0 224 115 363q116 141 293 141q89 0 134.5 -34.5t45.5 -83.5q0 -107 -98 -107q-80 0 -164 141z" />
    <glyph glyph-name="fi" unicode="fi" horiz-adv-x="1194" 
d="M672 0v66q30 2 55.5 5.5t44 14t29 30.5t10.5 54v631q0 52 -29 90h-376v-713q0 -54 32 -78q35 -24 123 -34v-66h-487v66q106 8 125 36q20 29 20 68v717h-194v94h194v25q0 250 138 397t327 147q146 0 221.5 -45t75.5 -123q0 -19 -6.5 -38.5t-18.5 -35t-29 -25t-38 -9.5
q-108 0 -142 130l-20 66h-53q-126 0 -197 -103.5t-71 -301.5v-84h329l248 16l14 -14v-803q0 -98 148 -114v-66h-473z" />
    <glyph glyph-name="fl" unicode="fl" horiz-adv-x="1208" 
d="M676 0v66l49 5q98 8 98 97v1192q0 21 -9.5 41t-28 35.5t-46 24.5t-63.5 9q-270 0 -270 -405v-84h243v-94h-243v-709q0 -54 32 -78q35 -24 123 -34v-66h-487v66q106 8 125 36q20 29 20 68v717h-194v94h194v25q0 259 139 401q140 143 326 143q135 0 229 -41l82 39l15 -14
v-1354q0 -101 145 -114v-66h-479z" />
    <glyph glyph-name="f_f_i" unicode="ffi" horiz-adv-x="1810" 
d="M1288 0v66q30 2 55.5 5.5t44 14t29 30.5t10.5 54v631q0 50 -28 90h-389v-713q0 -54 32 -78q35 -24 123 -34v-66h-487v66q106 8 125 36q20 29 20 68v717h-417v-709q0 -61 40 -83q42 -22 148 -29v-66h-520v66l48 5q97 7 97 97v719h-194v94h194v51q0 215 125 355
q124 139 303 139q84 0 132 -32.5t48 -86.5q0 -107 -98 -107q-79 0 -164 142q-159 -7 -159 -371v-90h417v25q0 250 138 397t327 147q146 0 221.5 -45t75.5 -123q0 -19 -6.5 -38.5t-18.5 -35t-29 -25t-38 -9.5q-108 0 -142 130l-20 66h-53q-126 0 -197 -103.5t-71 -301.5v-84
h342l247 16l15 -14v-803q0 -97 147 -114v-66h-473z" />
    <glyph glyph-name="f_f_l" unicode="ffl" horiz-adv-x="1810" 
d="M1280 0v66l49 5q98 8 98 97v1192q0 21 -10 41t-29 35.5t-46 24.5t-62 9q-270 0 -270 -405v-84h243v-94h-243v-709q0 -54 32 -78q35 -24 123 -34v-66h-487v66q106 8 125 36q20 29 20 68v717h-417v-709q0 -61 40 -83q42 -22 148 -29v-66h-520v66l48 5q97 7 97 97v719h-194
v94h194v51q0 215 125 355q124 139 303 139q84 0 132 -32.5t48 -86.5q0 -107 -98 -107q-79 0 -164 142q-159 -7 -159 -371v-90h417v25q0 259 139 401q140 143 326 143q134 0 230 -41l81 39l15 -14v-1354q0 -101 145 -114v-66h-479z" />
    <glyph glyph-name="f_j" unicode="fj" horiz-adv-x="1165" 
d="M997 59q0 -220 -116 -362q-115 -141 -287 -141q-85 0 -132.5 33.5t-47.5 84.5q0 109 94 109q40 0 72 -22t90 -121q75 0 108 93.5t33 293.5v774q0 52 -29 90h-376v-713q0 -54 32 -78q35 -24 123 -34v-66h-487v66q106 8 125 36q20 29 20 68v717h-194v94h194v25
q0 250 138 397t327 147q146 0 221.5 -45t75.5 -123q0 -19 -6.5 -38.5t-18.5 -35t-29 -25t-38 -9.5q-108 0 -142 130l-20 66h-53q-126 0 -197 -103.5t-71 -301.5v-84h329l248 16l14 -14v-924z" />
    <glyph glyph-name=".notdef" horiz-adv-x="2048" 
d="M256 0v1536h1536v-1536h-1536zM385 129h1280v1280h-1280v-1280z" />
    <glyph glyph-name=".null" horiz-adv-x="0" 
 />
    <glyph glyph-name="uni000D" horiz-adv-x="1176" 
 />
    <glyph glyph-name="space" unicode=" " horiz-adv-x="494" 
 />
    <glyph glyph-name="space" unicode="&#xa0;" horiz-adv-x="494" 
 />
    <glyph glyph-name="exclam" unicode="!" horiz-adv-x="678" 
d="M381 432h-78q-11 133 -24.5 271.5t-30.5 285.5q-33 282 -33 332q0 28 9.5 52.5t26.5 43t40.5 29t52.5 10.5q27 0 50 -10t40.5 -27.5t27 -42.5t9.5 -55t-7.5 -113t-23.5 -221zM344 -20q-28 0 -53 10.5t-44 28.5t-29.5 42.5t-10.5 53.5q0 28 11 53t29.5 43.5t43.5 29.5
t53 11t53 -11t43.5 -29.5t29.5 -43.5t11 -53q0 -29 -10.5 -53.5t-29.5 -42.5t-43.5 -28.5t-53.5 -10.5z" />
    <glyph glyph-name="quotedbl" unicode="&#x22;" horiz-adv-x="844" 
d="M641 967h-61q-10 62 -23 133.5t-30 155.5q-27 129 -27 161q0 48 28.5 80.5t83.5 32.5q56 0 84.5 -33t28.5 -80q0 -29 -27 -160zM258 967h-59q-10 62 -23 133.5t-30 155.5q-27 129 -27 161q0 48 28.5 80.5t83.5 32.5q54 0 82.5 -32.5t28.5 -80.5q0 -29 -27 -160z" />
    <glyph glyph-name="numbersign" unicode="#" horiz-adv-x="1317" 
d="M913 745l-71 -251h262v-123h-297l-107 -371h-110l106 371h-217l-106 -371h-113l109 371h-215v123h249l72 251h-262v123h297l104 363h111l-104 -363h217l104 363h113l-107 -363h215v-123h-250zM586 748l-74 -256h219l76 256h-221z" />
    <glyph glyph-name="dollar" unicode="$" horiz-adv-x="1249" 
d="M682 -299h-84v281q-193 3 -318 93q-124 90 -124 224q0 123 98 123q57 0 85 -26.5t28 -61.5q0 -28 -33 -124q-4 -11 -6 -19t-4 -15q65 -113 274 -117v506q-279 99 -342 187q-63 89 -63 198q0 140 115 240q114 99 290 104v230h84v-230q183 -5 288 -89q107 -84 107 -187
q0 -109 -90 -109q-17 0 -37 5t-37.5 15.5t-29 25.5t-11.5 36q0 40 17 110q5 17 6 27q-59 86 -213 86v-462l65 -25q237 -91 297 -176q60 -82 60 -186q0 -153 -116 -260q-117 -108 -306 -121v-283zM598 1214q-42 0 -82.5 -12.5t-72.5 -36.5t-52 -59.5t-20 -81.5q0 -86 42 -142
q44 -55 185 -108v440zM682 61q233 14 233 224q0 175 -211 251q-12 4 -22 9v-484z" />
    <glyph glyph-name="percent" unicode="%" horiz-adv-x="1673" 
d="M449 713q-84 0 -147.5 28t-106 77.5t-64.5 117t-22 147.5q0 79 22.5 146.5t65.5 117t106.5 77.5t145.5 28q83 0 146 -28t106 -77.5t65 -117t22 -146.5t-21.5 -147t-64.5 -117.5t-106.5 -77.5t-146.5 -28zM319 0h-137l1176 1423h141zM449 1378q-41 0 -72.5 -20.5
t-53.5 -59t-33 -93t-11 -122.5q0 -138 44 -217.5t126 -79.5q81 0 125 78t44 219q0 138 -44 216.5t-125 78.5zM1225 -33q-84 0 -147.5 28t-105.5 77.5t-63.5 117.5t-21.5 148q0 79 22 146.5t65 117.5t106.5 78.5t146.5 28.5q82 0 145 -28.5t106 -79t65 -118t22 -145.5
q0 -79 -22 -147t-65 -117.5t-106.5 -78t-146.5 -28.5zM1227 635q-82 0 -127 -79t-45 -218q0 -67 11 -122t32.5 -93t53 -59t73.5 -21q81 0 126.5 78.5t45.5 216.5q0 68 -11 123t-33 93.5t-53.5 59.5t-72.5 21z" />
    <glyph glyph-name="ampersand" unicode="&#x26;" horiz-adv-x="1454" 
d="M1454 827q-48 -4 -85.5 -12t-68.5 -24.5t-55 -44.5t-45 -73q-135 -291 -192 -360q119 -134 193 -183q74 -47 239 -58v-72h-414l-147 170q-189 -205 -394 -205q-87 0 -161.5 25.5t-129.5 74t-86.5 119t-31.5 160.5q0 80 25 143.5t67 115.5t98 95.5t119 83.5
q-122 161 -147 223t-25 138q0 74 29.5 131t78 97t112 60.5t132.5 20.5q147 0 229 -82q83 -81 83 -196q0 -214 -281 -363q49 -66 114 -146.5t149 -177.5q22 -26 45 -54t48 -58q142 221 142 366q0 53 -174 86v72h534v-72zM553 870q195 108 195 283q0 211 -175 211
q-37 0 -68 -15.5t-53 -41t-34 -59t-12 -68.5q0 -116 147 -310zM825 227q-28 35 -79.5 99.5t-128.5 158.5q-136 167 -189 240q-147 -102 -147 -305q0 -64 19 -121.5t55 -101t89 -68.5t121 -25q166 0 260 123z" />
    <glyph glyph-name="quotesingle" unicode="'" horiz-adv-x="440" 
d="M250 967h-62q-8 51 -20.5 123t-31.5 166q-27 132 -27 161q0 113 112 113q56 0 84.5 -33t28.5 -80q0 -29 -27 -160z" />
    <glyph glyph-name="parenleft" unicode="(" horiz-adv-x="768" 
d="M700 -328q-276 35 -430 278q-153 243 -153 646q0 99 11 203t37.5 202.5t70 188.5t108 160.5t153 118.5t203.5 63v-82q-391 -73 -391 -856q0 -770 391 -840v-82z" />
    <glyph glyph-name="parenright" unicode=")" horiz-adv-x="768" 
d="M68 -246q391 70 391 840q0 783 -391 856v82q116 -16 204 -64t152.5 -118.5t108 -160t70 -188t37.5 -202.5t11 -203q0 -403 -153 -646q-153 -244 -430 -278v82z" />
    <glyph glyph-name="asterisk" unicode="*" horiz-adv-x="967" 
d="M514 1083q23 -32 60.5 -75t89.5 -98q57 -61 57 -99q0 -13 -6.5 -25t-17.5 -21t-24.5 -14.5t-27.5 -5.5q-33 0 -50 23q-15 21 -46 122q-31 102 -66 177q-19 -43 -39.5 -103t-43.5 -139q-23 -80 -76 -80q-14 0 -27.5 5.5t-24.5 14.5t-17.5 21t-6.5 25q0 38 58 99
q102 108 149 173q-81 -7 -251 -48q-25 -7 -42 -7q-76 0 -76 72q0 69 76 69q15 0 42 -6q94 -20 156.5 -32t94.5 -15q-25 35 -62 78t-87 96q-58 61 -58 99q0 12 6.5 24t17.5 21t24.5 14.5t27.5 5.5q54 0 76 -79q23 -78 43.5 -138t39.5 -102q34 74 66 176q30 99 46 120
q17 23 50 23q14 0 27.5 -5.5t24.5 -14.5t17.5 -21t6.5 -24q0 -37 -57 -99q-100 -105 -150 -174q29 2 91.5 14t159.5 33q27 6 42 6q76 0 76 -69q0 -72 -76 -72q-17 0 -42 7q-176 41 -251 48z" />
    <glyph glyph-name="plus" unicode="+" horiz-adv-x="1317" 
d="M723 498v-453h-127v453h-453v125h453v450h127v-450h451v-125h-451z" />
    <glyph glyph-name="comma" unicode="," horiz-adv-x="553" 
d="M96 -287q206 123 228 289h-52q-67 0 -105 35.5t-38 93.5q0 26 10.5 48t28 38.5t40.5 25.5t48 9q172 0 172 -217q0 -63 -25.5 -120.5t-66.5 -107.5t-91.5 -91t-101.5 -70z" />
    <glyph glyph-name="hyphen" unicode="-" horiz-adv-x="766" 
d="M86 465v158h596v-158h-596z" />
    <glyph glyph-name="hyphen" unicode="&#xad;" horiz-adv-x="766" 
d="M86 465v158h596v-158h-596z" />
    <glyph glyph-name="period" unicode="." horiz-adv-x="553" 
d="M279 -20q-28 0 -53.5 10.5t-44 28.5t-29.5 42.5t-11 53.5t11 53.5t29.5 43.5t44 29.5t53.5 10.5t53 -11t43.5 -29.5t29.5 -43.5t11 -53t-11 -52.5t-29.5 -43t-43.5 -29t-53 -10.5z" />
    <glyph glyph-name="slash" unicode="/" horiz-adv-x="961" 
d="M178 -424h-129l688 1948h133z" />
    <glyph glyph-name="zero" unicode="0" horiz-adv-x="1153" 
d="M575 -33q-102 0 -178.5 32t-132.5 87t-93 128.5t-59 156.5t-31 170t-9 170q0 343 133 540q133 199 373 199q99 0 175 -32t132 -87.5t93.5 -128.5t60.5 -155.5t32.5 -168.5t9.5 -167q0 -355 -135 -550q-134 -194 -371 -194zM578 1382q-67 0 -114.5 -37t-79.5 -97t-50 -134
t-27 -149t-11.5 -142t-2.5 -112q0 -162 18.5 -288t54 -211.5t88 -130t121.5 -44.5t122.5 44.5t89.5 130.5t54.5 211.5t18.5 287.5q0 44 -2.5 111t-11.5 141.5t-27.5 149t-49.5 134.5t-78 97.5t-113 37.5z" />
    <glyph glyph-name="one" unicode="1" horiz-adv-x="1153" 
d="M207 72q287 5 287 133v1034h-291v84h96q39 0 83.5 8t87.5 24t81 40t63 55h84q-5 -131 -7.5 -207.5t-2.5 -101.5v-936q0 -63 51 -95q51 -30 224 -38v-72h-756v72z" />
    <glyph glyph-name="two" unicode="2" horiz-adv-x="1153" 
d="M98 0v135q52 92 381 371q90 75 149 138t90 114q62 103 62 289q0 77 -18.5 136.5t-52.5 100.5t-82 62.5t-107 21.5q-142 0 -209 -94q2 -8 4 -16.5t4 -18.5q21 -82 21 -129q0 -40 -34.5 -68t-92.5 -28q-102 0 -102 127q0 121 120 215q119 94 316 94q97 0 180.5 -23.5
t145 -72.5t96.5 -124.5t35 -180.5q0 -53 -7.5 -100t-23.5 -90t-42 -82.5t-64 -77.5q-32 -33 -97 -86t-162 -128q-265 -202 -356 -309h803v-176h-957z" />
    <glyph glyph-name="three" unicode="3" horiz-adv-x="1153" 
d="M274 135q68 -84 238 -84q136 0 220 95q85 94 85 264q0 286 -274 286h-131v115h88q260 0 260 305q0 252 -228 252q-123 0 -183 -69q-7 -8 -12 -13.5t-9 -9.5q26 -106 26 -166q0 -39 -33 -67.5t-90 -28.5q-102 0 -102 125q0 116 124 213q125 98 318 98q201 0 305 -100
q105 -100 105 -228q0 -256 -297 -342v-14q77 -9 142 -35.5t112 -71.5t73.5 -108t26.5 -145q0 -190 -154 -314q-153 -123 -384 -123q-184 0 -303 86q-119 87 -119 201q0 127 100 127q55 0 89 -27t34 -69q0 -56 -27 -152z" />
    <glyph glyph-name="four" unicode="4" horiz-adv-x="1153" 
d="M891 428v-428h-193v428h-639v156l701 854h131v-879h203v-131h-203zM698 1214l-538 -655h538v655z" />
    <glyph glyph-name="five" unicode="5" horiz-adv-x="1153" 
d="M279 123q79 -70 221 -70q139 0 221 109t82 303q0 63 -19.5 122t-56 104.5t-90 72.5t-121.5 27q-173 0 -272 -129l-68 24l84 733h717v-178h-635l-51 -434q133 94 278 94q192 0 321 -117q130 -117 130 -317q0 -112 -40.5 -203.5t-111 -156.5t-165 -100.5t-203.5 -35.5
q-171 0 -295 82q-123 83 -123 195q0 58 28 92.5t74 34.5q27 0 49.5 -8t39 -21.5t25.5 -32t9 -39.5q0 -46 -28 -151z" />
    <glyph glyph-name="six" unicode="6" horiz-adv-x="1153" 
d="M896 1364l-90 -16q-28 -5 -72.5 -25.5t-107.5 -57.5q-125 -72 -203.5 -198.5t-105.5 -296.5q157 137 348 137q167 0 285 -129q118 -128 118 -317q0 -103 -36.5 -193t-101 -157t-153 -105.5t-192.5 -38.5q-223 0 -356 160q-134 161 -134 430q0 355 211 600
q211 247 572 297zM308 547q0 -233 76 -366q77 -134 203 -134q119 0 191 104q73 104 73 283q0 65 -14.5 129t-47.5 115t-85 83t-127 32q-155 0 -265 -123z" />
    <glyph glyph-name="seven" unicode="7" horiz-adv-x="1153" 
d="M432 -20h-125l670 1269h-494q-134 0 -187 -14q-36 -10 -59.5 -31.5t-38 -50.5t-22 -62t-12.5 -65h-62v391h1043v-63z" />
    <glyph glyph-name="eight" unicode="8" horiz-adv-x="1153" 
d="M382 725q-254 143 -254 348q0 158 136 270q137 113 335 113q194 0 312 -103q120 -102 120 -261q0 -220 -260 -340q65 -28 121.5 -61.5t98.5 -77.5t66.5 -101.5t24.5 -134.5q0 -171 -148 -292q-148 -120 -376 -120q-221 0 -355 110q-133 111 -133 287q0 243 312 363z
M699 786q141 86 141 316q0 58 -18 108t-51.5 87t-81 58t-107.5 21q-56 0 -103 -19t-81 -53t-53 -81t-19 -103q0 -110 88 -182q90 -73 285 -152zM451 690q-186 -100 -186 -315q0 -72 22 -132.5t63 -104.5t99.5 -68.5t132.5 -24.5q65 0 120.5 19t96 56t63 90t22.5 120
q0 105 -83 179q-81 72 -350 181z" />
    <glyph glyph-name="nine" unicode="9" horiz-adv-x="1153" 
d="M254 65l88 17q129 26 285 155q158 131 209 412q-154 -135 -349 -135q-166 0 -285 128q-118 128 -118 318q0 103 36.5 192.5t101 156t153 105t192.5 38.5q223 0 356 -160q134 -161 134 -430q0 -351 -210 -593q-208 -241 -577 -294zM844 872q0 233 -76 366
q-77 134 -203 134q-118 0 -191 -103t-73 -282q0 -64 15 -128t47.5 -115t84.5 -83t127 -32q159 0 265 120z" />
    <glyph glyph-name="colon" unicode=":" horiz-adv-x="641" 
d="M319 717q-28 0 -53 10.5t-44 29t-29.5 43.5t-10.5 54q0 28 11 52.5t30 43t43.5 29t52.5 10.5t53 -10.5t44 -28.5t30 -42.5t11 -53.5t-10.5 -54t-29.5 -43.5t-44 -29t-54 -10.5zM319 -20q-28 0 -53 10.5t-44 28.5t-29.5 43t-10.5 53t11 53t29.5 43.5t43.5 29.5t53 11
t53 -11t44 -29.5t30 -43.5t11 -53t-11 -53t-30 -43t-44 -28.5t-53 -10.5z" />
    <glyph glyph-name="semicolon" unicode=";" horiz-adv-x="641" 
d="M319 717q-28 0 -53 10.5t-44 29t-29.5 43.5t-10.5 54q0 28 11 52.5t30 43t43.5 29t52.5 10.5t53 -10.5t44 -28.5t30 -42.5t11 -53.5t-10.5 -54t-29.5 -43.5t-44 -29t-54 -10.5zM141 -287q206 123 228 289h-52q-67 0 -105 35.5t-38 93.5q0 26 10.5 48t28 38.5t40.5 25.5
t48 9q172 0 172 -217q0 -63 -25.5 -120.5t-66.5 -107.5t-91.5 -91t-101.5 -70z" />
    <glyph glyph-name="semicolon" unicode="&#x37e;" horiz-adv-x="641" 
d="M319 717q-28 0 -53 10.5t-44 29t-29.5 43.5t-10.5 54q0 28 11 52.5t30 43t43.5 29t52.5 10.5t53 -10.5t44 -28.5t30 -42.5t11 -53.5t-10.5 -54t-29.5 -43.5t-44 -29t-54 -10.5zM141 -287q206 123 228 289h-52q-67 0 -105 35.5t-38 93.5q0 26 10.5 48t28 38.5t40.5 25.5
t48 9q172 0 172 -217q0 -63 -25.5 -120.5t-66.5 -107.5t-91.5 -91t-101.5 -70z" />
    <glyph glyph-name="less" unicode="&#x3c;" horiz-adv-x="1317" 
d="M193 504v112l925 482v-137l-770 -402l770 -399v-137z" />
    <glyph glyph-name="equal" unicode="=" horiz-adv-x="1317" 
d="M154 682v127h1009v-127h-1009zM154 311v125h1009v-125h-1009z" />
    <glyph glyph-name="greater" unicode="&#x3e;" horiz-adv-x="1317" 
d="M199 23v137l770 399l-770 402v137l925 -482v-112z" />
    <glyph glyph-name="question" unicode="?" horiz-adv-x="981" 
d="M436 377h-92v379q344 23 344 307q0 309 -248 309q-81 0 -131 -39q23 -103 23 -137q0 -20 -9.5 -37.5t-26 -31t-39.5 -21.5t-50 -8q-101 0 -101 123q0 87 98 159q99 72 245 72q199 0 314 -117q116 -116 116 -295q0 -100 -34 -177.5t-94 -132t-141 -87.5t-174 -45v-221z
M393 -20q-28 0 -53 10.5t-44 28.5t-29.5 42.5t-10.5 53.5q0 28 11 53t29.5 43.5t43.5 29.5t53 11t53 -11t43.5 -29.5t29.5 -43.5t11 -53q0 -29 -10.5 -53.5t-29.5 -42.5t-43.5 -28.5t-53.5 -10.5z" />
    <glyph glyph-name="at" unicode="@" horiz-adv-x="1903" 
d="M1530 -119q-226 -194 -545 -194q-340 0 -579 215q-238 214 -238 575q0 363 256 628t645 265q312 0 491 -185t179 -468q0 -243 -134 -413q-133 -169 -339 -169q-39 0 -75 10t-64.5 30.5t-47 51t-22.5 72.5h-8q-109 -160 -234 -160q-109 0 -170 71.5t-61 205.5
q0 170 138 354q140 186 329 186q130 0 153 -125h6l43 113h150l-191 -538q-18 -51 -18 -109q0 -98 92 -98q155 0 259 146t104 382q0 132 -43.5 236t-121.5 176t-186 110.5t-237 38.5q-293 0 -512 -222q-219 -220 -219 -572q0 -343 179 -537q178 -193 484 -193q301 0 506 168z
M1182 741q-25 156 -135 156q-114 0 -203 -164q-88 -163 -88 -334q0 -176 88 -176q120 0 223 180z" />
    <glyph glyph-name="A" unicode="A" horiz-adv-x="1374" 
d="M829 0v72q183 11 183 57q0 21 -8 43l-119 320h-498q-98 -255 -98 -332q0 -75 205 -88v-72h-535v72q66 5 121 32t87 87q26 48 186 459l306 790h80l473 -1225q51 -132 209 -143v-72h-592zM635 1130l-211 -550h426z" />
    <glyph glyph-name="B" unicode="B" horiz-adv-x="1339" 
d="M94 0v72q120 9 157 34q38 26 38 87v1019q0 121 -187 136v71h656q73 0 146 -16.5t132 -53t96 -95.5t37 -144q0 -264 -335 -344v-8q413 -62 413 -373q0 -97 -42.5 -169.5t-110.5 -120.5t-153.5 -71.5t-172.5 -23.5h-674zM502 791h127q301 0 301 299q0 249 -266 249
q-45 0 -85.5 -1t-76.5 -3v-544zM502 207q0 -127 192 -127q307 0 307 342q0 72 -25.5 126.5t-69.5 90.5t-103 54t-127 18q-59 0 -102 -1t-72 -3v-500z" />
    <glyph glyph-name="C" unicode="C" horiz-adv-x="1315" 
d="M1288 358q-156 -391 -565 -391q-270 0 -458 203q-187 203 -187 526q0 331 192 542q194 212 484 212q194 0 352 -98l41 67h80l10 -506h-84q-97 453 -387 453q-204 0 -327 -174q-122 -175 -122 -481q0 -272 135 -452q135 -179 345 -179q296 0 417 315z" />
    <glyph glyph-name="D" unicode="D" horiz-adv-x="1534" 
d="M94 0v72q34 0 69 2t63 12.5t45.5 34.5t17.5 67v1024q0 33 -10 56.5t-32.5 39t-58 25t-86.5 15.5v71h621q301 0 516 -187q217 -186 217 -532q0 -324 -224 -512t-550 -188h-588zM502 244q0 -45 13 -76t39.5 -50t67 -27.5t95.5 -8.5q121 0 213.5 40.5t155 119.5t94.5 194.5
t32 265.5q0 283 -150 458q-148 177 -392 177q-52 0 -94 -1t-74 -3v-1089z" />
    <glyph glyph-name="E" unicode="E" horiz-adv-x="1337" 
d="M1264 0h-1178v72q132 10 168 34q35 24 35 87v1019q0 35 -13.5 59t-40 40t-64 24.5t-85.5 12.5v71h1098v-342h-74q-21 78 -80 152q-59 75 -100 92q-42 18 -205 18h-223v-563h160q62 0 103 14.5t67 43.5t40 72.5t23 101.5h74v-555h-74q-2 25 -9.5 54t-18.5 63
q-13 40 -32 64t-44.5 37.5t-57.5 18t-71 4.5h-160v-426q0 -122 38 -154q40 -32 203 -32h87q141 0 189 22q30 14 61 53t58.5 87t48.5 95.5t32 78.5h71z" />
    <glyph glyph-name="F" unicode="F" horiz-adv-x="1227" 
d="M1124 1065q-18 77 -79 156q-60 80 -102 99q-39 19 -204 19h-237v-569h162q132 0 181 57q50 59 62 174h76v-557h-76q-12 113 -56 179q-44 65 -187 65h-162v-487q0 -52 29 -84q28 -31 169 -45v-72h-614v72q57 5 91.5 8t46.5 5q25 5 45 31t20 72v1024q0 35 -13.5 59t-40 40
t-64 24.5t-85.5 12.5v71h1112v-354h-74z" />
    <glyph glyph-name="G" unicode="G" horiz-adv-x="1485" 
d="M1470 567q-6 -1 -13.5 -2t-15.5 -2q-90 -13 -123 -39q-32 -26 -32 -92v-193q0 -57 1 -94t3 -55q-268 -123 -522 -123q-292 0 -491 205t-199 526q0 325 203 539q204 213 510 213q200 0 366 -98l41 67h80l8 -495h-82q-106 442 -420 442q-210 0 -336 -175
q-126 -174 -126 -482q0 -292 133 -473t358 -181q159 0 264 84l8 96v179q0 82 -42 112q-43 31 -193 41v74h620v-74z" />
    <glyph glyph-name="H" unicode="H" horiz-adv-x="1669" 
d="M979 0v72q118 11 137 19q22 9 36.5 30.5t14.5 66.5v506h-665v-493q0 -61 37 -91q38 -29 147 -38v-72h-588v72q137 6 164 37q27 32 27 79v1024q0 119 -191 136v71h588v-71q-103 -9 -145 -32q-39 -22 -39 -93v-441h665v430q0 119 -188 136v71h588v-71q-106 -9 -147 -33
q-40 -24 -40 -92v-1022q0 -42 16.5 -66t43 -37t60 -18t67.5 -8v-72h-588z" />
    <glyph glyph-name="I" unicode="I" horiz-adv-x="799" 
d="M80 0v72q143 11 177 29q36 20 36 85v1028q0 41 -21.5 66t-54 39t-69.5 20t-68 9v71h639v-71q-135 -10 -174 -36q-39 -25 -39 -87v-1026q0 -53 34 -84t179 -43v-72h-639z" />
    <glyph glyph-name="J" unicode="J" horiz-adv-x="1061" 
d="M1006 1348q-126 -10 -162 -36q-35 -24 -35 -89v-840q0 -158 -119 -289q-118 -129 -313 -129q-78 0 -145.5 22t-116.5 65t-77 106t-28 145q0 32 8 63t25 55.5t42.5 40t61.5 15.5q63 0 98.5 -34.5t35.5 -88.5q0 -56 -76 -174q-18 -27 -27 -55v-2q63 -82 184 -82t176 93
q56 95 56 329v749q0 121 -213 136v71h625v-71z" />
    <glyph glyph-name="K" unicode="K" horiz-adv-x="1421" 
d="M1077 0q-215 339 -551 694h-24v-493q0 -53 30 -85q32 -32 158 -44v-72h-588v72q116 11 136 19q21 9 36 33t15 64v1024q0 120 -187 136v71h588v-71q-105 -9 -147 -32q-41 -23 -41 -93v-490h18q216 183 351 340q137 160 137 225q0 41 -148 50v71h533v-71q-21 0 -49 -4
t-57.5 -11t-55.5 -17.5t-43 -23.5q-21 -17 -142 -156q-91 -103 -171 -187.5t-152 -153.5q76 -87 162.5 -190t183.5 -225q137 -172 176 -212q27 -26 52.5 -43t52.5 -28t57.5 -16.5t67.5 -8.5v-72h-398z" />
    <glyph glyph-name="L" unicode="L" horiz-adv-x="1237" 
d="M1206 0h-1108v72q126 11 157 32q34 22 34 89v1015q0 70 -55 101q-56 32 -136 39v71h598v-71q-127 -11 -160 -38q-34 -27 -34 -91v-953q0 -128 36 -158t195 -30q108 0 169 12.5t85 31.5q13 10 34 39.5t51 78.5q59 97 93 182h72z" />
    <glyph glyph-name="M" unicode="M" horiz-adv-x="1898" 
d="M1180 0v72q103 9 136 15t59 37t26 77v1032h-17l-483 -1210h-49l-463 1234h-12v-847q0 -128 20 -208q21 -76 105 -102q42 -13 72 -19.5t47 -8.5v-72h-574v72q154 13 194 71t40 256v725q0 212 -224 224v71h484l405 -1065l348 891q17 45 28.5 88t18.5 86h463v-71
q-123 -11 -157 -35q-35 -26 -35 -90v-1022q0 -64 40 -92q40 -26 154 -37v-72h-626z" />
    <glyph glyph-name="N" unicode="N" horiz-adv-x="1571" 
d="M1554 1348q-146 -20 -189 -64q-42 -45 -42 -260v-1038h-86l-860 1161v-731q0 -25 1 -64t6.5 -80t16.5 -77t30 -56q14 -13 39.5 -24.5t55 -20.5t58 -14.5t47.5 -7.5v-72h-584v72q119 17 176 54q58 37 58 277v701q0 207 -256 244v71h403l799 -1081v674q0 229 -57 272
q-55 44 -193 64v71h577v-71z" />
    <glyph glyph-name="O" unicode="O" horiz-adv-x="1524" 
d="M762 -35q-293 0 -488 210q-194 212 -194 534q0 325 197 534q198 209 485 209q292 0 487 -208t195 -535t-198 -536q-196 -208 -484 -208zM762 1364q-209 0 -325 -177q-115 -175 -115 -478q0 -71 8.5 -147t28 -148.5t52 -138t81.5 -114.5t116 -77.5t154 -28.5
q88 0 154.5 28.5t115.5 77.5t81.5 114t52.5 137.5t28 149t8 147.5q0 303 -116 479t-324 176z" />
    <glyph glyph-name="P" unicode="P" horiz-adv-x="1249" 
d="M502 623v-430q0 -71 36 -92q37 -22 169 -29v-72h-609v72q126 11 157 32q34 22 34 89v1024q0 61 -31 89q-30 30 -168 42v71h649q197 0 321 -97q124 -96 124 -253q0 -112 -43.5 -195.5t-116.5 -139t-168 -83.5t-197 -28h-157zM502 1337v-626h100q168 0 251 86t83 223
q0 317 -295 317h-139z" />
    <glyph glyph-name="Q" unicode="Q" horiz-adv-x="1524" 
d="M977 4q3 -113 80 -199q78 -86 166 -86q99 0 163 12q8 2 15.5 3t15.5 2v-78q-139 -43 -299 -43q-82 0 -148.5 25t-115 71t-78 111t-37.5 145q-154 7 -276.5 68t-207.5 161t-130 232t-45 281q0 325 197 534q198 209 485 209q292 0 487 -208t195 -535q0 -120 -30 -229.5
t-88.5 -201t-146 -162t-202.5 -112.5zM762 1364q-209 0 -325 -177q-115 -175 -115 -478q0 -71 8.5 -147t28 -148.5t52 -138t81.5 -114.5t116 -77.5t154 -28.5q88 0 154.5 28.5t115.5 77.5t81.5 114t52.5 137.5t28 149t8 147.5q0 303 -116 479t-324 176z" />
    <glyph glyph-name="R" unicode="R" horiz-adv-x="1438" 
d="M1098 0q-110 174 -222.5 333.5t-230.5 309.5h-143v-450q0 -71 33 -91q35 -20 163 -30v-72h-600v72q126 11 157 32q34 22 34 89v1026q0 65 -36 92q-35 26 -155 37v71h656q81 0 161 -17.5t143.5 -57t102.5 -104t39 -159.5q0 -283 -346 -383q35 -45 105 -138.5t176 -237.5
q110 -150 138 -173q30 -22 51.5 -36t43 -22.5t48 -12.5t65.5 -6v-72h-383zM502 1337v-608h131q73 0 132.5 24.5t101.5 68.5t64.5 104.5t22.5 132.5q0 133 -75 205.5t-207 72.5h-170z" />
    <glyph glyph-name="S" unicode="S" horiz-adv-x="1149" 
d="M188 0h-79l-15 485h80q122 -428 430 -428q268 0 268 250q0 34 -8.5 67t-24 63.5t-38 56.5t-51.5 45q-48 32 -148 70q-195 72 -281 119q-84 48 -136 133t-52 204q0 161 126 273q127 112 304 112q155 0 318 -98l41 67h79l9 -471h-82q-13 51 -29.5 101t-38 96.5t-49.5 86.5
t-65.5 69t-85.5 46t-109 17q-45 0 -86.5 -15t-73 -43t-50.5 -67t-19 -86q0 -104 56 -172q58 -69 254 -139q252 -91 345 -187q92 -95 92 -252q0 -102 -39.5 -182t-106 -135.5t-154 -85t-183.5 -29.5q-185 0 -355 101z" />
    <glyph glyph-name="T" unicode="T" horiz-adv-x="1268" 
d="M1182 1034q-8 29 -27 72t-44 85t-54 77.5t-57 49.5q-43 23 -201 23h-60v-1134q0 -56 36 -88q37 -32 194 -47v-72h-670v72q146 10 187 33q40 22 40 92v1144h-57q-144 0 -188 -15q-42 -13 -105 -105q-62 -90 -90 -187h-72v385h1237v-385h-69z" />
    <glyph glyph-name="U" unicode="U" horiz-adv-x="1548" 
d="M1534 1348q-150 -12 -191 -68q-40 -55 -40 -248v-616q0 -210 -154 -331q-153 -120 -358 -120q-242 0 -387 118q-144 119 -144 292v837q0 117 -186 136v71h592v-71q-122 -11 -156 -35q-35 -26 -35 -90v-785q0 -360 352 -360q184 0 280 103q97 103 97 255v584
q0 212 -53 262t-199 66v71h582v-71z" />
    <glyph glyph-name="V" unicode="V" horiz-adv-x="1366" 
d="M1407 1348q-144 -15 -194 -111q-24 -48 -149.5 -361.5t-352.5 -893.5h-82l-464 1238q-51 118 -204 128v71h588v-71q-178 -12 -178 -54q0 -28 366 -999q64 154 120 294t106 271q51 131 78.5 207t34.5 101q14 51 14 92q0 69 -211 88v71h528v-71z" />
    <glyph glyph-name="W" unicode="W" horiz-adv-x="1999" 
d="M2028 1348q-48 -4 -90.5 -23.5t-70.5 -49.5q-27 -29 -35 -49q-4 -10 -26 -80t-62 -201l-296 -963h-92l-359 1091l-372 -1091h-88l-352 1240q-34 111 -189 126v71h579v-71q-184 -12 -184 -52q0 -22 20 -100q11 -37 71.5 -249.5t172.5 -600.5l355 1053h98l356 -1075
q246 836 246 936q0 71 -197 88v71h515v-71z" />
    <glyph glyph-name="X" unicode="X" horiz-adv-x="1454" 
d="M793 0v72q184 7 184 57q0 53 -287 481q-311 -410 -311 -471q0 -62 164 -67v-72h-531v72q111 9 166 43q28 17 70.5 65.5t101.5 127.5l285 384q-372 547 -419 596q-46 48 -189 60v71h657v-71q-182 -12 -182 -54q0 -39 84 -168l41 -65q29 -46 64 -99.5t77 -115.5
q276 374 276 436q0 56 -163 66v71h528v-71q-136 -7 -200 -71q-63 -61 -388 -507l176 -256q104 -155 163 -240.5t74 -102.5q29 -34 74 -66q43 -31 148 -33v-72h-663z" />
    <glyph glyph-name="Y" unicode="Y" horiz-adv-x="1260" 
d="M1315 1348q-40 -4 -72.5 -18t-59.5 -35.5t-50 -49t-46 -59.5q-69 -96 -194 -311q-63 -108 -99 -173.5t-46 -88.5q-19 -45 -19 -134v-270q0 -57 38 -90q40 -34 189 -47v-72h-663v72q149 11 185 32q38 23 38 95v344q0 34 -169 350q-85 159 -140.5 254t-83.5 127
q-54 65 -166 74v71h604v-71q-186 -9 -186 -48q0 -28 311 -591q324 521 324 565q0 31 -36 47q-34 18 -153 27v71h494v-71z" />
    <glyph glyph-name="Z" unicode="Z" horiz-adv-x="1233" 
d="M1167 0h-1140v35l893 1304h-326q-157 0 -210 -25q-33 -16 -68 -51.5t-66.5 -78.5t-56.5 -87.5t-39 -78.5h-70l43 401h1063v-35l-893 -1304h338q154 0 218 16q67 16 103 51q25 23 53 60t54 78.5t47.5 83t34.5 73.5h69z" />
    <glyph glyph-name="bracketleft" unicode="[" horiz-adv-x="768" 
d="M168 -309v1829h532v-93h-354v-1644h354v-92h-532z" />
    <glyph glyph-name="backslash" unicode="\" horiz-adv-x="961" 
d="M780 -424l-690 1948h131l690 -1948h-131z" />
    <glyph glyph-name="bracketright" unicode="]" horiz-adv-x="768" 
d="M68 -309v92h354v1644h-354v93h532v-1829h-532z" />
    <glyph glyph-name="asciicircum" unicode="^" horiz-adv-x="1317" 
d="M981 797l-322 524l-323 -524h-146l412 659h115l409 -659h-145z" />
    <glyph glyph-name="underscore" unicode="_" horiz-adv-x="1317" 
d="M-4 -283v103h1327v-103h-1327z" />
    <glyph glyph-name="grave" unicode="`" 
d="M700 1110q-53 43 -115.5 91.5t-136.5 105.5q-82 62 -101 87t-19 66q0 31 24 54.5t58 23.5q75 0 127 -88q45 -72 95 -148t107 -159z" />
    <glyph glyph-name="a" unicode="a" horiz-adv-x="1032" 
d="M1006 18q-105 -38 -162 -38q-156 0 -185 143h-6q-133 -148 -319 -148q-55 0 -102 17t-80.5 49t-52.5 77.5t-19 102.5q0 124 68 189q67 65 234 121q239 79 273 100v98q0 43 -12 81.5t-36 67t-59 45.5t-81 17q-96 0 -141 -47q0 -24 9 -59q9 -34 9 -72q0 -19 -9 -36
t-25 -29.5t-38 -19.5t-47 -7q-96 0 -96 114q0 89 112 159q113 71 238 71q89 0 157 -16t114 -53.5t70 -100t24 -156.5l-6 -493q0 -55 25 -80t46 -30q21 -3 97 -3v-64zM657 547q-217 -64 -297 -132q-79 -67 -79 -169q0 -160 153 -160q118 0 217 115z" />
    <glyph glyph-name="b" unicode="b" horiz-adv-x="1147" 
d="M227 -53l-61 14q4 110 6 204t2 175v977q0 46 -15 73t-41 41.5t-60.5 20t-73.5 8.5v66l362 22l14 -14v-651l7 -2q124 133 280 133q182 0 304 -146t122 -374q0 -223 -139 -374t-326 -151q-149 0 -307 92zM360 225q0 -33 62 -107q63 -73 170 -73q121 0 196 118
q76 118 76 324q0 45 -6 93.5t-19.5 94.5t-35 87t-53.5 72t-74.5 49t-97.5 18q-128 0 -218 -100v-576z" />
    <glyph glyph-name="c" unicode="c" horiz-adv-x="930" 
d="M926 229q-30 -53 -72 -100t-94 -81.5t-110.5 -54.5t-121.5 -20q-117 0 -203 41.5t-142.5 112.5t-83.5 166.5t-27 204.5q0 102 33 195t94 164.5t148 114t194 42.5q60 0 119 -14.5t105 -46t74.5 -80t28.5 -117.5q0 -127 -102 -127q-29 0 -52 8t-39.5 21t-25 30.5t-8.5 36.5
q0 41 12 90q12 51 15 72q-28 51 -131 51q-113 0 -186 -112q-72 -111 -72 -320q0 -188 83 -306q84 -116 216 -116q171 0 282 188z" />
    <glyph glyph-name="d" unicode="d" horiz-adv-x="1176" 
d="M809 -4l-16 14v92l-9 2q-126 -133 -284 -133q-180 0 -304 148t-124 377q0 221 138 369q138 149 331 149q143 0 250 -64v344q0 62 -35 111q-35 48 -197 57v64l404 22l16 -14v-1331q0 -44 23 -75q25 -30 45 -34q11 -2 37 -4.5t69 -5.5v-66zM791 768q0 29 -60 99
q-60 71 -170 71q-122 0 -202 -123q-78 -121 -78 -332q0 -45 6.5 -92.5t20.5 -92t36.5 -84.5t54.5 -69.5t74 -47t96 -17.5q126 0 222 110v578z" />
    <glyph glyph-name="e" unicode="e" horiz-adv-x="989" 
d="M948 231q-138 -258 -405 -258q-119 0 -207.5 41t-147 112t-87.5 168t-29 208q0 98 31 190.5t89 164t141.5 114.5t188.5 43q99 0 174 -30t126 -85.5t76.5 -134t25.5 -174.5v-66h-654q0 -105 22 -187t64 -138t103.5 -85.5t140.5 -29.5q53 0 94 13t73.5 38t59.5 60t52 79z
M727 608q0 330 -207 330q-104 0 -174 -88t-76 -242h457z" />
    <glyph glyph-name="f" unicode="f" horiz-adv-x="666" 
d="M545 1464q-139 -9 -139 -381v-102h253v-94h-253v-709q0 -61 40 -83q42 -22 148 -29v-66h-520v66l48 5q97 7 97 97v719h-194v94h194v63q0 224 115 363q116 141 293 141q89 0 134.5 -34.5t45.5 -83.5q0 -107 -98 -107q-80 0 -164 141z" />
    <glyph glyph-name="g" unicode="g" horiz-adv-x="1042" 
d="M326 51q-174 53 -174 174q0 112 149 174v17q-201 92 -201 278q0 78 31 138t82.5 100.5t118.5 61t139 20.5q77 0 180 -33h344v-94h-231v-6q74 -89 74 -199q0 -69 -31 -126t-81 -97.5t-113 -63t-128 -22.5h-120q-72 -30 -72 -86q0 -32 13 -49t42 -29q32 -13 132 -18
l214 -10q170 -9 240 -97q70 -86 70 -186q0 -156 -136 -249t-381 -93q-444 0 -444 258q0 59 25 100.5t65.5 68.5t91 40t101.5 16v12zM467 942q-172 0 -172 -250q0 -40 9 -84t29.5 -81t54 -61t81.5 -24q50 0 84 22.5t55 57.5t30 78.5t9 85.5q0 59 -12 106t-35 80.5t-56.5 51.5
t-76.5 18zM418 14q-50 0 -126 -46q-75 -47 -75 -150q0 -42 20 -76t59 -59t96 -38.5t130 -13.5q318 0 318 230q0 37 -11 62.5t-31.5 42.5t-48.5 26.5t-62 12.5q-85 9 -269 9z" />
    <glyph glyph-name="h" unicode="h" horiz-adv-x="1192" 
d="M659 0v66q14 2 27 3t25 2q100 6 100 97v508q0 39 -9.5 78t-30.5 70.5t-53 51t-77 19.5q-170 0 -256 -150v-567q0 -101 152 -112v-66h-484v66l49 5q97 7 97 97v1149q0 16 -4.5 35.5t-13.5 37.5t-21.5 32t-29.5 20q-30 11 -124 18v66l365 22l14 -14v-688h4q39 39 75 70
t75 53t84 33.5t102 11.5q274 0 274 -326v-512q0 -99 144 -110v-66h-484z" />
    <glyph glyph-name="i" unicode="i" horiz-adv-x="600" 
d="M311 1177q-26 0 -49.5 9.5t-41 26.5t-28 40t-10.5 50t10.5 50t28 40.5t41 27.5t49.5 10t49.5 -10t41 -27.5t27.5 -41t10 -49.5t-10 -49t-27.5 -40t-41 -27t-49.5 -10zM74 0v66l48 5q97 7 97 97v608q0 121 -176 135v66l348 20l15 -14v-803q0 -57 35 -81t110 -33v-66h-477z
" />
    <glyph glyph-name="j" unicode="j" horiz-adv-x="598" 
d="M339 1177q-26 0 -49.5 9.5t-41 26.5t-28 40t-10.5 50t10.5 50t28 40.5t41 27.5t49.5 10t49.5 -10t41 -27.5t27.5 -41t10 -49.5t-10 -49t-27.5 -40t-41 -27t-49.5 -10zM430 59q0 -223 -115 -362q-114 -141 -286 -141q-42 0 -75.5 9t-57 24.5t-36 37t-12.5 47.5
q0 109 95 109q76 0 131 -93q8 -13 15 -25.5t15 -24.5q76 0 109 93.5t33 293.5v741q0 46 -36 89q-35 45 -190 56v64l398 20l12 -14v-924z" />
    <glyph glyph-name="k" unicode="k" horiz-adv-x="1098" 
d="M819 0q-140 200 -227 322.5t-125 171.5l-82 -78v-234q0 -29 8 -49t26 -33.5t47 -21t71 -12.5v-66h-484v66l49 5q97 7 97 97v1147q0 47 -32 94q-32 48 -161 51v66l365 22l14 -14v-1045l292 291q56 59 56 84q0 42 -127 58v63h434v-61q-55 -16 -98.5 -35t-75.5 -41
q-65 -44 -200 -176q-15 -15 -31 -30.5t-33 -31.5q104 -124 264 -348q94 -133 131 -162q39 -30 119 -34v-66h-297z" />
    <glyph glyph-name="l" unicode="l" horiz-adv-x="586" 
d="M53 0v66l50 5q98 6 98 97v1143q0 46 -32 93q-31 46 -167 56v66l371 22l14 -14v-1354q0 -102 148 -114v-66h-482z" />
    <glyph glyph-name="m" unicode="m" horiz-adv-x="1804" 
d="M1280 0v66l47 5q96 8 96 97v510q0 39 -9 77.5t-29 69.5t-51.5 50.5t-76.5 19.5q-162 0 -249 -147v-570q0 -101 143 -112v-66h-471v66l45 5q94 7 94 97v510q0 39 -9 77.5t-29 69.5t-51.5 50.5t-76.5 19.5q-160 0 -250 -150v-565q0 -102 148 -114v-66h-479v66l48 5
q97 7 97 97v612q0 119 -160 131v66l330 20l14 -14v-139h7q30 29 60 60q110 110 269 110q187 0 264 -176q39 39 75.5 71t76.5 55.5t85.5 36.5t102.5 13q132 0 201.5 -86.5t69.5 -247.5v-502q0 -35 12.5 -56t33 -32.5t47.5 -16t56 -7.5v-66h-481z" />
    <glyph glyph-name="n" unicode="n" horiz-adv-x="1210" 
d="M678 0v66l51 5q100 6 100 97v508q0 39 -9.5 78.5t-30.5 70.5t-53 50.5t-77 19.5q-170 0 -256 -150v-567q0 -100 152 -112v-66h-483v66l48 5q97 7 97 97v608q0 129 -156 135v66l328 20l14 -14v-137h5q39 40 74 71t73.5 52.5t82.5 33t101 11.5q279 0 279 -326v-512
q0 -99 143 -110v-66h-483z" />
    <glyph glyph-name="o" unicode="o" horiz-adv-x="1104" 
d="M543 -31q-198 0 -336 146q-137 146 -137 374q0 110 33 206t95.5 167t153 111.5t205.5 40.5q111 0 199 -39.5t149.5 -108.5t94 -162t32.5 -200q0 -111 -32.5 -208.5t-95 -170t-153.5 -114.5t-208 -42zM555 938q-56 0 -99 -19.5t-74 -52.5t-51.5 -76.5t-32.5 -91.5
t-17 -97.5t-5 -94.5q0 -44 4.5 -95.5t16.5 -103t32 -99t51 -83.5t74 -58t101 -22q56 0 97.5 22t71.5 58.5t49.5 84t31 98t16 101t4.5 93.5q0 44 -4.5 93t-16 97.5t-30.5 93t-49 78.5t-72 54t-98 20z" />
    <glyph glyph-name="p" unicode="p" horiz-adv-x="1169" 
d="M385 41v-297q0 -52 33 -80q35 -29 166 -41v-67h-551v67q119 5 142 34q24 28 24 75v1048q0 124 -166 131v66l336 20l14 -12v-111l8 -2q130 142 283 142q177 0 300 -147q124 -145 124 -371t-139 -374q-138 -149 -326 -149q-154 0 -240 68h-8zM385 209q0 -28 62 -96
q62 -66 167 -66q122 0 198 117q77 118 77 323q0 69 -14 142t-47.5 133.5t-89 99.5t-138.5 39q-123 0 -215 -108v-584z" />
    <glyph glyph-name="q" unicode="q" horiz-adv-x="1147" 
d="M621 -444v67q122 6 146 34t24 75v364l-7 2q-122 -125 -276 -125q-187 0 -311 148q-125 149 -125 383q0 214 142 362t331 148q150 0 266 -77q13 -9 24 -16t19 -12l84 131l57 -8q-8 -141 -12 -233t-4 -137v-914q0 -53 29 -82q31 -30 145 -43v-67h-532zM791 772q0 30 -61 97
q-60 69 -173 69q-120 0 -198 -124q-78 -123 -78 -331q0 -72 15 -143.5t50.5 -129t92.5 -93t141 -35.5q117 0 211 100v590z" />
    <glyph glyph-name="r" unicode="r" horiz-adv-x="840" 
d="M621 897q-133 -8 -218 -145v-574q0 -54 34 -79t155 -33v-66h-520v66l48 5q97 7 97 97v608q0 131 -156 135v66l328 20l14 -14v-137h5q129 164 276 164q63 0 103 -40t40 -112q0 -57 -27 -93t-75 -36q-52 0 -83.5 26.5t-31.5 65.5q0 15 3 34t8 42z" />
    <glyph glyph-name="s" unicode="s" horiz-adv-x="885" 
d="M158 -2h-74l-10 342h67q14 -54 42 -106t68.5 -92.5t92 -65.5t111.5 -25q200 0 200 168q0 69 -50 114q-49 44 -204 91q-303 89 -303 301q0 70 27.5 124t74 90.5t106.5 55.5t124 19q123 0 217 -51l23 53h71l17 -318h-70q-55 240 -260 240q-32 0 -63.5 -8.5t-56.5 -26
t-40.5 -44t-15.5 -62.5q0 -77 46 -114q23 -19 74 -41t130 -48q59 -19 114.5 -43t98.5 -59.5t68.5 -85.5t25.5 -121q0 -77 -31 -135.5t-83 -97.5t-118 -59t-137 -20q-147 0 -262 88z" />
    <glyph glyph-name="t" unicode="t" horiz-adv-x="707" 
d="M682 43q-144 -63 -266 -63q-226 0 -226 237v670h-178v94h183v307h182v-307h282v-94h-280v-551q0 -138 31 -187t129 -49q83 0 143 17v-74z" />
    <glyph glyph-name="u" unicode="u" horiz-adv-x="1178" 
d="M809 -4l-16 14v125h-7q-142 -160 -327 -160q-269 0 -269 334v471q0 123 -155 129v66l330 22l14 -14v-684q0 -50 12 -90t34 -67.5t52 -42.5t66 -15q157 0 248 145v559q0 17 -6 35.5t-16.5 35t-25 28t-32.5 14.5q-14 2 -40.5 4t-66.5 4v66l359 22l16 -14v-782
q0 -119 149 -117v-66z" />
    <glyph glyph-name="v" unicode="v" horiz-adv-x="1018" 
d="M1047 926q-44 -10 -82.5 -32.5t-61.5 -62.5q-8 -14 -37 -80.5t-80 -184.5l-146 -341q-44 -102 -85 -233h-80q-154 385 -242 594.5t-108 244.5q-41 71 -143 89v65h454v-70q-119 -8 -119 -43l252 -624l170 407q68 165 68 191q0 53 -137 76v63h377v-59z" />
    <glyph glyph-name="w" unicode="w" horiz-adv-x="1509" 
d="M1540 922q-69 -10 -108 -46.5t-57 -94.5q-9 -29 -40.5 -121.5t-85.5 -251.5q-54 -158 -87 -261t-46 -153h-86l-264 725l-268 -725h-82l-268 807q-30 95 -152 119v65h438v-70q-108 -4 -108 -43q0 -16 188 -616l252 711h96l256 -701q180 540 180 586q0 18 -15.5 31
t-37.5 21.5t-44 13t-36 4.5v63h375v-63z" />
    <glyph glyph-name="x" unicode="x" horiz-adv-x="1034" 
d="M569 0v66q109 10 109 36q0 34 -205 324q-211 -271 -211 -305q0 -45 115 -58v-63h-365v61q113 29 187 121q38 47 94.5 121.5t134.5 177.5l-198 286q-79 114 -114 133q-35 20 -87 20v65h428v-65q-95 0 -95 -23q0 -27 191 -299q25 33 52 71t57 81q31 44 47 68.5t18 29.5
q4 9 4 22q0 31 -69 46q-18 3 -29 6v63h362v-61q-102 -25 -149 -68q-23 -20 -84.5 -97.5t-163.5 -213.5l278 -402q50 -72 146 -77v-66h-453z" />
    <glyph glyph-name="y" unicode="y" horiz-adv-x="1008" 
d="M1038 924q-15 -2 -35.5 -11t-40 -22t-36 -27.5t-24.5 -28.5q-14 -23 -89 -202l-138 -330q-71 -171 -123 -290t-87 -188q-69 -139 -146 -204t-155 -65q-28 0 -57.5 7t-53.5 21.5t-39.5 37.5t-15.5 56q0 48 25.5 80.5t68.5 32.5q86 0 156 -127q20 10 41.5 33.5t43.5 54.5
t43 66.5t39 69.5t32 64.5t22 51.5l-336 820q-33 74 -151 96v65h448v-70q-113 -8 -113 -43q0 -1 5 -14l10 -31l237 -583l201 491q2 6 4.5 12.5t6.5 14.5q24 54 24 84q0 51 -133 76v63h366v-61z" />
    <glyph glyph-name="z" unicode="z" horiz-adv-x="909" 
d="M55 0v53l557 852h-137q-202 0 -249 -39q-45 -39 -72 -184h-62v303h756v-41l-567 -862l90 -2q291 -6 328 22q39 29 94 246h61v-348h-799z" />
    <glyph glyph-name="braceleft" unicode="{" horiz-adv-x="881" 
d="M813 -334q-102 0 -184.5 13.5t-140.5 53t-89.5 110t-31.5 184.5q0 32 2 64t6 65t6 64.5t2 60.5q0 76 -23.5 123.5t-65 75.5t-98.5 40t-124 17v129q66 5 123 17t99 40t65.5 75.5t23.5 123.5q0 29 -2 60.5t-6 65.5t-6 66t-2 64q0 112 32 182t90.5 109t141 53t182.5 14v-82
q-61 -1 -109 -10t-81 -33t-50.5 -66t-17.5 -108v-233q0 -93 -20 -158.5t-62 -111t-106.5 -73.5t-153.5 -45v-30q89 -17 153.5 -45t106.5 -73t62 -110.5t20 -158.5v-234q0 -66 18 -107.5t51 -65t81 -33.5t108 -13v-80z" />
    <glyph glyph-name="bar" unicode="|" horiz-adv-x="768" 
d="M322 -424v1948h127v-1948h-127z" />
    <glyph glyph-name="braceright" unicode="}" horiz-adv-x="881" 
d="M809 537q-67 -5 -123.5 -17t-98 -40t-64.5 -75.5t-23 -123.5q0 -29 1.5 -60.5t5.5 -64.5t5.5 -65t1.5 -64q0 -113 -31.5 -183.5t-90 -110t-140.5 -53.5t-184 -14v80q60 3 108 13t81 33.5t51 65t18 107.5v234q0 93 20.5 159t62.5 111t107 72.5t154 44.5v30q-89 17 -154 45
t-107 73t-62.5 111t-20.5 159v233q0 66 -18 107.5t-51.5 65t-81 33t-107.5 11.5v82q100 0 182 -14t140.5 -53.5t91 -109.5t32.5 -181q0 -32 -1.5 -64t-5.5 -66t-5.5 -65.5t-1.5 -60.5q0 -76 23 -124t64.5 -75.5t98 -39.5t123.5 -17v-129z" />
    <glyph glyph-name="asciitilde" unicode="~" horiz-adv-x="1317" 
d="M1188 715q-20 -52 -53.5 -104.5t-77 -95t-97 -69t-114.5 -26.5q-103 0 -242 68q-137 67 -201 67q-39 0 -68.5 -16t-52 -41t-40 -56t-33.5 -61l-80 31q20 52 53.5 104t77.5 94t97.5 68.5t113.5 26.5q116 0 244 -68q127 -68 198 -68q39 0 69 16t53 41.5t41 56.5t34 62z" />
    <glyph glyph-name="exclamdown" unicode="&#xa1;" horiz-adv-x="678" 
d="M344 1174q-28 0 -53 10.5t-44 28.5t-29.5 42.5t-10.5 53.5q0 28 11 53t29.5 43.5t43.5 29.5t53 11t53 -11t43.5 -29.5t29.5 -43.5t11 -53q0 -29 -10.5 -53.5t-29.5 -42.5t-43.5 -28.5t-53.5 -10.5zM381 991q10 -103 23.5 -233.5t30.5 -290.5q36 -316 36 -365
q0 -29 -9.5 -53.5t-26.5 -42.5t-40.5 -28.5t-50.5 -10.5q-29 0 -52.5 10.5t-40.5 29t-26.5 43t-9.5 52.5q0 50 33 333q17 147 30.5 285t24.5 271h78z" />
    <glyph glyph-name="cent" unicode="&#xa2;" horiz-adv-x="1137" 
d="M1040 233q-140 -230 -389 -251v-281h-82v281q-108 9 -188.5 52.5t-133.5 113t-79.5 160t-26.5 192.5q0 96 30.5 183t86.5 155.5t135 114t176 57.5v266h82v-260q161 -5 251 -78q91 -73 91 -182q0 -127 -106 -127q-121 0 -121 96q0 42 24 130q2 9 4 17t3 15q-34 49 -146 57
v-856l10 -2q39 -7 132 21q93 30 188 174zM569 938q-225 -66 -225 -430q0 -328 225 -408v838z" />
    <glyph glyph-name="sterling" unicode="&#xa3;" horiz-adv-x="1274" 
d="M1165 176v-176h-1048v147q219 74 219 474h-166v96h166q-7 117 -10.5 179.5t-3.5 72.5q0 102 31 191t89.5 154.5t143 103.5t190.5 38q156 0 257 -89q100 -88 100 -208q0 -125 -105 -125q-63 0 -95 30t-32 69q0 47 31 159q-48 84 -160 84q-115 0 -180.5 -75.5t-65.5 -217.5
q0 -59 6 -175q2 -58 3.5 -105.5t1.5 -85.5h395v-96h-395q0 -279 -238 -435v-10h866z" />
    <glyph glyph-name="currency" unicode="&#xa4;" horiz-adv-x="1169" 
d="M920 141l-189 185q-70 -43 -145 -43q-79 0 -146 43l-188 -187l-84 90l182 187q-41 73 -41 143q0 72 41 143l-182 191l88 86l184 -186q67 43 146 43q70 0 143 -41l186 184l91 -86l-187 -191q43 -65 43 -143q0 -76 -43 -143l187 -189zM586 725q-36 0 -65.5 -13t-51 -35.5
t-33.5 -52.5t-12 -65q0 -34 12.5 -64t34 -52.5t51.5 -36t64 -13.5q35 0 64.5 13t51 35.5t34 53t12.5 64.5t-12.5 64t-34.5 52.5t-51.5 36t-63.5 13.5z" />
    <glyph glyph-name="yen" unicode="&#xa5;" horiz-adv-x="1260" 
d="M1282 1348q-88 -15 -155 -69t-402 -636v-84h393v-94h-393v-258q0 -56 34 -89q36 -33 171 -46v-72h-611v72q66 5 107.5 13t58.5 18q35 21 35 94v268h-391v94h391v66q-292 579 -360 647q-67 68 -172 76v71h579v-71q-168 -9 -168 -48q0 -25 289 -542q291 491 291 516
q0 61 -168 74v71h471v-71z" />
    <glyph glyph-name="brokenbar" unicode="&#xa6;" horiz-adv-x="768" 
d="M322 723v801h127v-801h-127zM322 -424v809h127v-809h-127z" />
    <glyph glyph-name="section" unicode="&#xa7;" 
d="M653 317q207 -85 207 -266q0 -134 -111 -221q-110 -88 -292 -88q-143 0 -222 50q-77 50 -77 122q0 100 98 100q76 0 127 -122q7 -17 13.5 -32.5t13.5 -29.5q27 -10 84 -10q90 0 152 55q63 54 63 125q0 69 -55 123t-224 121q-309 119 -309 352q0 201 241 303
q-204 98 -204 262q0 128 109 210q110 83 292 83q146 0 222 -51q77 -50 77 -123q0 -98 -98 -98q-76 0 -126 123q-7 16 -14 31.5t-14 29.5q-27 10 -84 10q-39 0 -77 -11.5t-68 -34t-48 -56t-18 -76.5q0 -66 56 -110t251 -125q285 -118 285 -328q0 -57 -20 -106.5t-54.5 -90
t-79.5 -71t-96 -50.5zM446 862q-172 -69 -172 -225q0 -94 70 -158q35 -32 94 -65.5t144 -67.5q166 91 166 242q0 169 -302 274z" />
    <glyph glyph-name="dieresis" unicode="&#xa8;" 
d="M727 1241q-26 0 -48 10t-37.5 26.5t-24.5 39t-9 47.5t9 47.5t25 39t38 26.5t47 10q26 0 47.5 -10t37.5 -26.5t25 -39t9 -47.5q0 -24 -9.5 -46.5t-25.5 -39.5t-37.5 -27t-46.5 -10zM297 1241q-25 0 -47 10t-38 26.5t-25 39t-9 47.5t9 47.5t25 39t38 26.5t47 10t46.5 -10
t37.5 -27t25.5 -39.5t9.5 -46.5q0 -25 -9 -47t-25 -39t-38 -27t-47 -10z" />
    <glyph glyph-name="copyright" unicode="&#xa9;" horiz-adv-x="1929" 
d="M967 -281q-365 0 -626 261t-261 624q0 361 261 620q263 261 626 261q362 0 621 -261q261 -261 261 -620q0 -361 -260 -623q-259 -262 -622 -262zM967 1397q-328 0 -559 -232q-230 -233 -230 -561q0 -334 230 -567q229 -232 559 -232q327 0 555 233q229 232 229 566
q0 329 -229 561t-555 232zM1374 403q-123 -292 -393 -292q-109 0 -199.5 33.5t-154.5 96t-99.5 151.5t-35.5 200t40.5 203t111 158t165.5 102.5t203 36.5q122 0 219 -64l45 66h57l6 -363h-55q-19 62 -43.5 114.5t-60.5 91.5t-86 61t-121 22q-119 0 -197 -111
q-78 -109 -78 -307q0 -75 19.5 -146.5t60 -126.5t101.5 -88.5t145 -33.5q200 0 293 221z" />
    <glyph glyph-name="ordfeminine" unicode="&#xaa;" 
d="M934 647q-94 -31 -143 -31q-131 0 -152 121h-6q-120 -125 -268 -125q-44 0 -82 14.5t-66.5 41t-44.5 63.5t-16 82q0 120 59 167q60 46 275 117q51 16 86.5 30t58.5 26v55q0 66 -39 118q-39 54 -119 54q-69 0 -108 -39q3 -18 9 -45q2 -14 3.5 -27t1.5 -26
q0 -29 -30.5 -50.5t-78.5 -21.5q-79 0 -79 97q0 73 91 128q92 56 201 56q71 0 128 -12t97.5 -42t62.5 -80.5t22 -127.5l-6 -391q0 -56 47 -82l42 -8h54v-62zM637 1075q-190 -55 -247 -103q-58 -48 -58 -122q0 -127 117 -127q110 0 184 86z" />
    <glyph glyph-name="guillemotleft" unicode="&#xab;" horiz-adv-x="1190" 
d="M948 121l-354 332q-43 40 -43 75q0 40 45 80l352 330l49 -41l-260 -369l260 -368zM567 121l-354 332q-43 40 -43 75t45 80l352 330l49 -41l-260 -369l260 -368z" />
    <glyph glyph-name="logicalnot" unicode="&#xac;" horiz-adv-x="1317" 
d="M1030 76v450h-887v125h1020v-575h-133z" />
    <glyph glyph-name="registered" unicode="&#xae;" horiz-adv-x="1929" 
d="M967 -281q-365 0 -626 261t-261 624q0 361 261 620q263 261 626 261q362 0 621 -261q261 -261 261 -620q0 -361 -260 -623q-259 -262 -622 -262zM967 1397q-328 0 -559 -232q-230 -233 -230 -561q0 -334 230 -567q229 -232 559 -232q327 0 555 233q229 232 229 566
q0 329 -229 561t-555 232zM1255 145q-79 111 -156 211t-153 193h-104v-262q0 -33 18 -54q20 -19 123 -30v-58h-438v58q89 11 112 26t23 58v643q0 46 -31 62q-31 17 -104 26v57h491q53 0 107 -11t98 -37t72 -68.5t28 -104.5q0 -198 -235 -264q55 -66 101 -121.5t83 -103.5
q72 -94 116 -124q40 -27 136 -38v-58h-287zM842 1004v-379h88q52 0 93.5 15t71 42t45 65.5t15.5 86.5q0 170 -197 170h-116z" />
    <glyph glyph-name="macron" unicode="&#xaf;" horiz-adv-x="1317" 
d="M-4 1604v100h1327v-100h-1327z" />
    <glyph glyph-name="degree" unicode="&#xb0;" horiz-adv-x="858" 
d="M428 803q-71 0 -130.5 24.5t-102.5 67.5t-67 103t-24 130t24.5 129.5t67.5 102.5t102.5 67.5t129.5 24.5q71 0 131 -24t104 -67t68.5 -102.5t24.5 -130.5t-24.5 -131t-68.5 -103t-104 -67t-131 -24zM428 1378q-40 0 -73 -17t-55.5 -49.5t-35 -78.5t-12.5 -103
q0 -118 46 -184.5t134 -66.5q74 0 124 65t50 176q0 128 -48 193t-130 65z" />
    <glyph glyph-name="plusminus" unicode="&#xb1;" horiz-adv-x="1317" 
d="M150 0v125h446v401h-446v125h446v453h127v-453h444v-125h-444v-401h444v-125h-1017z" />
    <glyph glyph-name="twosuperior" unicode="&#xb2;" 
d="M147 489v111q62 101 228 207q170 107 229 182q60 77 60 193q0 98 -49.5 147t-129.5 49q-108 0 -155 -65q10 -43 15 -72.5t5 -46.5q0 -29 -28 -52.5t-80 -23.5q-88 0 -88 103q0 86 100 158q100 73 246 73q159 0 256 -76q98 -77 98 -200q0 -72 -19.5 -124.5t-55 -93
t-84.5 -72.5t-109 -63q-233 -113 -307 -188h620v-146h-752z" />
    <glyph glyph-name="threesuperior" unicode="&#xb3;" 
d="M297 582q66 -54 168 -54t162.5 59t60.5 169q0 178 -205 178h-106v92h76q192 0 192 201q0 153 -162 153q-91 0 -141 -57q18 -76 18 -109q0 -26 -28.5 -47.5t-77.5 -21.5q-88 0 -88 92q0 79 98 147q100 68 252 68q159 0 240 -69q82 -67 82 -154q0 -168 -215 -230v-10
q258 -33 258 -237q0 -132 -120 -215q-118 -82 -302 -82q-144 0 -238 61t-94 139q0 42 22 71.5t62 29.5q54 0 80 -23t26 -51q0 -24 -7 -51q-4 -14 -7.5 -26t-5.5 -23z" />
    <glyph glyph-name="acute" unicode="&#xb4;" 
d="M285 1143q57 83 107 159t95 148q52 88 127 88q34 0 58 -23.5t24 -54.5q0 -57 -43 -91q-22 -17 -76.5 -60.5t-144.5 -113.5q-23 -18 -50 -39t-58 -46z" />
    <glyph glyph-name="uni00B5" unicode="&#xb5;" horiz-adv-x="1159" 
d="M1133 18q-105 -36 -164 -36q-166 0 -195 153h-6q-36 -41 -69 -70.5t-69 -48t-78 -27.5t-97 -9q-125 0 -191 79h-6v-57q0 -66 27 -186q26 -122 26 -158q0 -45 -28 -73.5t-70 -28.5q-92 0 -92 100q0 28 8 86.5t24 149.5q21 119 21 243v850h191v-676q0 -103 45 -160t118 -57
q165 0 244 139v754h191v-782q0 -61 25 -86t49 -30q23 -3 96 -3v-66z" />
    <glyph glyph-name="paragraph" unicode="&#xb6;" 
d="M999 1346h-110v-1561h-103v1561h-159v-1561h-105v922q-84 0 -161 20t-135.5 62.5t-93 109t-34.5 160.5q0 81 30.5 147.5t83 114t122.5 73t149 25.5h516v-73z" />
    <glyph glyph-name="periodcentered" unicode="&#xb7;" horiz-adv-x="571" 
d="M289 424q-28 0 -53.5 10.5t-44 28.5t-29.5 42.5t-11 53.5t11 53.5t29.5 43.5t44 29.5t53.5 10.5t53 -11t43.5 -29.5t29.5 -43.5t11 -53t-11 -52.5t-29.5 -43t-43.5 -29t-53 -10.5z" />
    <glyph glyph-name="cedilla" unicode="&#xb8;" 
d="M307 -373q172 0 212 24q42 22 42 66q0 76 -164 76v223h78v-114q232 0 232 -150q0 -196 -400 -196v71z" />
    <glyph glyph-name="onesuperior" unicode="&#xb9;" 
d="M223 489v72q74 0 138 9q65 11 65 71v631h-207v78h64q153 0 247 96h72q-6 -168 -6 -238v-559q0 -88 192 -88v-72h-565z" />
    <glyph glyph-name="ordmasculine" unicode="&#xba;" 
d="M504 606q-160 0 -274 117q-113 119 -113 303q0 90 27 168t78.5 135.5t125.5 90t168 32.5q91 0 163.5 -31.5t123 -87t77.5 -131.5t27 -164q0 -91 -27.5 -169.5t-79.5 -137t-127 -92t-169 -33.5zM514 1378q-44 0 -77 -15.5t-56.5 -41.5t-39.5 -60t-25 -71.5t-13 -76
t-4 -73.5q0 -34 3.5 -74t12.5 -80t24.5 -77.5t39.5 -66t57 -45.5t78 -17q43 0 75 17.5t55.5 46t38.5 65.5t24 76.5t12.5 78.5t3.5 72q0 80 -13.5 143t-40 107.5t-65.5 68t-90 23.5z" />
    <glyph glyph-name="guillemotright" unicode="&#xbb;" horiz-adv-x="1190" 
d="M623 121l-50 39l261 368l-261 369l50 41l352 -330q45 -42 45 -80q0 -37 -30 -64zM242 121l-49 39l260 368l-260 369l49 41l352 -330q45 -42 45 -80q0 -37 -30 -64z" />
    <glyph glyph-name="onequarter" unicode="&#xbc;" horiz-adv-x="2150" 
d="M137 489v72q74 0 138 9q65 11 65 71v631h-207v78h64q153 0 247 96h72q-6 -168 -6 -238v-559q0 -88 192 -88v-72h-565zM1446 1419l-737 -1419h-135l737 1419h135zM1986 215h-157v-233h-166v233h-496v125l543 623h119v-639h157v-109zM1663 324v453l-394 -453h394z" />
    <glyph glyph-name="onehalf" unicode="&#xbd;" horiz-adv-x="2150" 
d="M137 489v72q74 0 138 9q65 11 65 71v631h-207v78h64q153 0 247 96h72q-6 -168 -6 -238v-559q0 -88 192 -88v-72h-565zM1436 1419l-737 -1419h-135l737 1419h135zM1292 2v111q62 101 228 207q170 107 229 182q60 77 60 193q0 98 -49.5 147t-129.5 49q-108 0 -155 -65
q10 -43 15 -72.5t5 -46.5q0 -29 -28 -52.5t-80 -23.5q-88 0 -88 103q0 86 100 158q100 73 246 73q159 0 256 -76q98 -77 98 -200q0 -72 -19.5 -124.5t-55 -93t-84.5 -72.5t-109 -63q-233 -113 -307 -188h620v-146h-752z" />
    <glyph glyph-name="threequarters" unicode="&#xbe;" horiz-adv-x="2150" 
d="M289 582q66 -54 168 -54t162.5 59t60.5 169q0 178 -205 178h-106v92h76q192 0 192 201q0 153 -162 153q-91 0 -141 -57q18 -76 18 -109q0 -26 -28.5 -47.5t-77.5 -21.5q-88 0 -88 92q0 79 98 147q100 68 252 68q159 0 240 -69q82 -67 82 -154q0 -168 -215 -230v-10
q258 -33 258 -237q0 -132 -120 -215q-118 -82 -302 -82q-144 0 -238 61t-94 139q0 42 22 71.5t62 29.5q54 0 80 -23t26 -51q0 -24 -7 -51q-4 -14 -7.5 -26t-5.5 -23zM1597 1419l-737 -1419h-135l737 1419h135zM2076 215h-157v-233h-166v233h-496v125l543 623h119v-639h157
v-109zM1753 324v453l-394 -453h394z" />
    <glyph glyph-name="questiondown" unicode="&#xbf;" horiz-adv-x="981" 
d="M586 1174q-29 0 -54 10.5t-43.5 29t-29 43.5t-10.5 54t11 53.5t29.5 42.5t43.5 28.5t53 10.5t53 -10.5t43.5 -28.5t29.5 -42.5t11 -53.5q0 -28 -11 -53t-29.5 -43.5t-43.5 -29.5t-53 -11zM543 1049h92v-379q-344 -26 -344 -308q0 -309 250 -309q73 0 131 39
q-11 52 -17 86t-6 51q0 20 9 37.5t25 31.5t39.5 22t51.5 8q100 0 100 -123q0 -85 -98 -159q-97 -73 -244 -73q-200 0 -316 117q-116 119 -116 295q0 101 34 178.5t93.5 132t140.5 87.5t175 44v222z" />
    <glyph glyph-name="Agrave" unicode="&#xc0;" horiz-adv-x="1374" 
d="M831 1528q-85 51 -168 101.5t-167 102.5q-56 37 -46 100q21 58 82 57q46 0 90 -50q23 -25 84 -92.5t162 -179.5zM829 0v72q183 11 183 57q0 21 -8 43l-119 320h-498q-98 -255 -98 -332q0 -75 205 -88v-72h-535v72q66 5 121 32t87 87q26 48 186 459l306 790h80l473 -1225
q51 -132 209 -143v-72h-592zM635 1130l-211 -550h426z" />
    <glyph glyph-name="Aacute" unicode="&#xc1;" horiz-adv-x="1374" 
d="M522 1567q203 224 245 272q45 50 91 50q61 1 82 -57q10 -63 -46 -100q-57 -35 -141.5 -87.5t-193.5 -116.5zM829 0v72q183 11 183 57q0 21 -8 43l-119 320h-498q-98 -255 -98 -332q0 -75 205 -88v-72h-535v72q66 5 121 32t87 87q26 48 186 459l306 790h80l473 -1225
q51 -132 209 -143v-72h-592zM635 1130l-211 -550h426z" />
    <glyph glyph-name="Acircumflex" unicode="&#xc2;" horiz-adv-x="1374" 
d="M381 1538l228 289q32 41 89 41h1q57 0 89 -41l228 -289l-50 -31l-268 210l-267 -210zM829 0v72q183 11 183 57q0 21 -8 43l-119 320h-498q-98 -255 -98 -332q0 -75 205 -88v-72h-535v72q66 5 121 32t87 87q26 48 186 459l306 790h80l473 -1225q51 -132 209 -143v-72h-592
zM635 1130l-211 -550h426z" />
    <glyph glyph-name="Atilde" unicode="&#xc3;" horiz-adv-x="1374" 
d="M1038 1764q-31 -86 -98 -145q-65 -57 -138 -53t-149 52q-80 50 -115 51q-34 2 -55 -11q-24 -14 -77 -100l-50 25q93 206 231 199q71 -5 146 -53q76 -48 110 -50q82 -4 117 61q5 11 11.5 23t14.5 26zM829 0v72q183 11 183 57q0 21 -8 43l-119 320h-498q-98 -255 -98 -332
q0 -75 205 -88v-72h-535v72q66 5 121 32t87 87q26 48 186 459l306 790h80l473 -1225q51 -132 209 -143v-72h-592zM635 1130l-211 -550h426z" />
    <glyph glyph-name="Adieresis" unicode="&#xc4;" horiz-adv-x="1374" 
d="M919 1598q-26 0 -48 10t-37.5 26.5t-24.5 39t-9 47.5t9 47t25 38.5t38 26.5t47 10t46.5 -10t37 -26.5t24.5 -38.5t9 -47q0 -26 -9 -48.5t-25 -39t-37.5 -26t-45.5 -9.5zM469 1598q-24 0 -45.5 9.5t-37.5 26t-25 39t-9 48.5q0 25 9 47t24.5 38.5t37 26.5t46.5 10t47 -10
t38 -26.5t25 -38.5t9 -47t-9 -47.5t-24.5 -39t-37.5 -26.5t-48 -10zM829 0v72q183 11 183 57q0 21 -8 43l-119 320h-498q-98 -255 -98 -332q0 -75 205 -88v-72h-535v72q66 5 121 32t87 87q26 48 186 459l306 790h80l473 -1225q51 -132 209 -143v-72h-592zM635 1130
l-211 -550h426z" />
    <glyph glyph-name="Aring" unicode="&#xc5;" horiz-adv-x="1374" 
d="M829 0v72q183 11 183 57q0 21 -8 43l-119 320h-498q-98 -255 -98 -332q0 -75 205 -88v-72h-535v72q66 5 121 32t87 87q26 48 186 459l300 773q-46 5 -85.5 21.5t-68.5 44.5t-45 67t-16 88q0 53 22 94.5t58 70t82.5 43t95.5 14.5q51 0 97.5 -14t82.5 -41.5t57 -69
t21 -97.5q0 -47 -16 -85t-44 -66t-66.5 -45.5t-82.5 -23.5l467 -1209q51 -132 209 -143v-72h-592zM696 1802q-131 0 -131 -158q0 -69 33 -114t98 -45q131 0 131 159q0 72 -35 115t-96 43zM635 1130l-211 -550h426z" />
    <glyph glyph-name="AE" unicode="&#xc6;" horiz-adv-x="1989" 
d="M1915 0h-1170v72q148 7 175 38q28 29 28 83v409h-479q-211 -361 -211 -432q0 -87 168 -98v-72h-522v72q141 13 209 108q69 96 653 1145q-51 17 -170 23v71h1239v-342h-76q-18 76 -76 150q-58 75 -102 93q-42 19 -207 19h-213v-563h150q63 0 104.5 14t67 43t39 72.5
t22.5 102.5h76v-555h-76q-2 24 -9 56.5t-19 64t-29.5 58t-40.5 38.5q-45 24 -135 24h-150v-426q0 -128 42 -157q44 -29 202 -29h84q135 0 180 22q20 10 40 31t40 49.5t38.5 61t34.5 64t28.5 60t19.5 48.5h72zM948 1331h-78l-354 -641h432v641z" />
    <glyph glyph-name="Ccedilla" unicode="&#xc7;" horiz-adv-x="1315" 
d="M1288 358q-151 -379 -541 -391v-65q232 0 232 -150q0 -196 -400 -196v71q172 0 212 24q42 22 42 66q0 76 -164 76v176q-235 18 -404 201q-187 203 -187 526q0 331 192 542q194 212 484 212q194 0 352 -98l41 67h80l10 -506h-84q-97 453 -387 453q-204 0 -327 -174
q-122 -175 -122 -481q0 -272 135 -452q135 -179 345 -179q296 0 417 315z" />
    <glyph glyph-name="Egrave" unicode="&#xc8;" horiz-adv-x="1337" 
d="M831 1528q-85 51 -168 101.5t-167 102.5q-56 37 -46 100q21 58 82 57q46 0 90 -50q23 -25 84 -92.5t162 -179.5zM1264 0h-1178v72q132 10 168 34q35 24 35 87v1019q0 35 -13.5 59t-40 40t-64 24.5t-85.5 12.5v71h1098v-342h-74q-21 78 -80 152q-59 75 -100 92
q-42 18 -205 18h-223v-563h160q62 0 103 14.5t67 43.5t40 72.5t23 101.5h74v-555h-74q-2 25 -9.5 54t-18.5 63q-13 40 -32 64t-44.5 37.5t-57.5 18t-71 4.5h-160v-426q0 -122 38 -154q40 -32 203 -32h87q141 0 189 22q30 14 61 53t58.5 87t48.5 95.5t32 78.5h71z" />
    <glyph glyph-name="Eacute" unicode="&#xc9;" horiz-adv-x="1337" 
d="M592 1567q203 224 245 272q45 50 91 50q61 1 82 -57q10 -63 -46 -100q-57 -35 -141.5 -87.5t-193.5 -116.5zM1264 0h-1178v72q132 10 168 34q35 24 35 87v1019q0 35 -13.5 59t-40 40t-64 24.5t-85.5 12.5v71h1098v-342h-74q-21 78 -80 152q-59 75 -100 92q-42 18 -205 18
h-223v-563h160q62 0 103 14.5t67 43.5t40 72.5t23 101.5h74v-555h-74q-2 25 -9.5 54t-18.5 63q-13 40 -32 64t-44.5 37.5t-57.5 18t-71 4.5h-160v-426q0 -122 38 -154q40 -32 203 -32h87q141 0 189 22q30 14 61 53t58.5 87t48.5 95.5t32 78.5h71z" />
    <glyph glyph-name="Ecircumflex" unicode="&#xca;" horiz-adv-x="1337" 
d="M413 1538l228 289q32 41 89 41h1q57 0 89 -41l228 -289l-50 -31l-268 210l-267 -210zM1264 0h-1178v72q132 10 168 34q35 24 35 87v1019q0 35 -13.5 59t-40 40t-64 24.5t-85.5 12.5v71h1098v-342h-74q-21 78 -80 152q-59 75 -100 92q-42 18 -205 18h-223v-563h160
q62 0 103 14.5t67 43.5t40 72.5t23 101.5h74v-555h-74q-2 25 -9.5 54t-18.5 63q-13 40 -32 64t-44.5 37.5t-57.5 18t-71 4.5h-160v-426q0 -122 38 -154q40 -32 203 -32h87q141 0 189 22q30 14 61 53t58.5 87t48.5 95.5t32 78.5h71z" />
    <glyph glyph-name="Edieresis" unicode="&#xcb;" horiz-adv-x="1337" 
d="M913 1608q-26 0 -48 10t-37.5 26.5t-24.5 39t-9 47.5t9 47t25 38.5t38 26.5t47 10t46.5 -10t37 -26.5t24.5 -38.5t9 -47q0 -26 -9 -48.5t-25 -39t-37.5 -26t-45.5 -9.5zM463 1608q-24 0 -45.5 9.5t-37.5 26t-25 39t-9 48.5q0 25 9 47t24.5 38.5t37 26.5t46.5 10t47 -10
t38 -26.5t25 -38.5t9 -47t-9 -47.5t-24.5 -39t-37.5 -26.5t-48 -10zM1264 0h-1178v72q132 10 168 34q35 24 35 87v1019q0 35 -13.5 59t-40 40t-64 24.5t-85.5 12.5v71h1098v-342h-74q-21 78 -80 152q-59 75 -100 92q-42 18 -205 18h-223v-563h160q62 0 103 14.5t67 43.5
t40 72.5t23 101.5h74v-555h-74q-2 25 -9.5 54t-18.5 63q-13 40 -32 64t-44.5 37.5t-57.5 18t-71 4.5h-160v-426q0 -122 38 -154q40 -32 203 -32h87q141 0 189 22q30 14 61 53t58.5 87t48.5 95.5t32 78.5h71z" />
    <glyph glyph-name="Igrave" unicode="&#xcc;" horiz-adv-x="799" 
d="M551 1528q-85 51 -168 101.5t-167 102.5q-56 37 -46 100q21 58 82 57q46 0 90 -50q23 -25 84 -92.5t162 -179.5zM80 0v72q143 11 177 29q36 20 36 85v1028q0 41 -21.5 66t-54 39t-69.5 20t-68 9v71h639v-71q-135 -10 -174 -36q-39 -25 -39 -87v-1026q0 -53 34 -84
t179 -43v-72h-639z" />
    <glyph glyph-name="Iacute" unicode="&#xcd;" horiz-adv-x="799" 
d="M222 1567q203 224 245 272q45 50 91 50q61 1 82 -57q10 -63 -46 -100q-57 -35 -141.5 -87.5t-193.5 -116.5zM80 0v72q143 11 177 29q36 20 36 85v1028q0 41 -21.5 66t-54 39t-69.5 20t-68 9v71h639v-71q-135 -10 -174 -36q-39 -25 -39 -87v-1026q0 -53 34 -84t179 -43
v-72h-639z" />
    <glyph glyph-name="Icircumflex" unicode="&#xce;" horiz-adv-x="799" 
d="M677 1507l-278 211l-274 -211l-50 31l236 285q11 14 20 22.5t19 13.5t22.5 7t30.5 2q54 0 86 -41l238 -289zM80 0v72q143 11 177 29q36 20 36 85v1028q0 41 -21.5 66t-54 39t-69.5 20t-68 9v71h639v-71q-135 -10 -174 -36q-39 -25 -39 -87v-1026q0 -53 34 -84t179 -43
v-72h-639z" />
    <glyph glyph-name="Idieresis" unicode="&#xcf;" horiz-adv-x="799" 
d="M616 1608q-26 0 -48 10t-37.5 26.5t-24.5 39t-9 47.5t9 47.5t25 39t38 26.5t47 10q26 0 47.5 -10t37.5 -26.5t25 -39t9 -47.5q0 -24 -9.5 -46.5t-25.5 -39.5t-37.5 -27t-46.5 -10zM186 1608q-25 0 -47 10t-38 26.5t-25 39t-9 47.5t9 47.5t25 39t38 26.5t47 10t46.5 -10
t37.5 -27t25.5 -39.5t9.5 -46.5q0 -25 -9 -47t-25 -39t-38 -27t-47 -10zM80 0v72q143 11 177 29q36 20 36 85v1028q0 41 -21.5 66t-54 39t-69.5 20t-68 9v71h639v-71q-135 -10 -174 -36q-39 -25 -39 -87v-1026q0 -53 34 -84t179 -43v-72h-639z" />
    <glyph glyph-name="Eth" unicode="&#xd0;" horiz-adv-x="1534" 
d="M94 0v72q34 0 69 2t63 12.5t45.5 34.5t17.5 67v512h-187v99h187v413q0 33 -10 56.5t-32.5 39t-58 25t-86.5 15.5v71h621q301 0 516 -187q217 -186 217 -532q0 -323 -222 -512q-221 -188 -552 -188h-588zM502 799h301v-99h-301v-456q0 -45 13 -76t39.5 -50t67 -27.5
t95.5 -8.5q121 0 213.5 40.5t155 119.5t94.5 194.5t32 265.5q0 283 -150 458q-148 177 -392 177q-52 0 -94 -1t-74 -3v-534z" />
    <glyph glyph-name="Ntilde" unicode="&#xd1;" horiz-adv-x="1571" 
d="M1194 1835q-13 -42 -36.5 -85t-56 -77.5t-74 -56.5t-89.5 -22q-83 0 -175 51q-91 51 -134 51q-36 0 -61 -16q-26 -17 -81 -119l-59 25q93 241 250 241q80 0 171 -51q92 -51 128 -51q96 0 130 78q5 13 11.5 27t14.5 30zM1554 1348q-146 -20 -189 -64q-42 -45 -42 -260
v-1038h-86l-860 1161v-731q0 -25 1 -64t6.5 -80t16.5 -77t30 -56q14 -13 39.5 -24.5t55 -20.5t58 -14.5t47.5 -7.5v-72h-584v72q119 17 176 54q58 37 58 277v701q0 207 -256 244v71h403l799 -1081v674q0 229 -57 272q-55 44 -193 64v71h577v-71z" />
    <glyph glyph-name="Ograve" unicode="&#xd2;" horiz-adv-x="1524" 
d="M888 1528q-85 51 -168 101.5t-167 102.5q-56 37 -46 100q21 58 82 57q46 0 90 -50q23 -25 84 -92.5t162 -179.5zM762 -35q-293 0 -488 210q-194 212 -194 534q0 325 197 534q198 209 485 209q292 0 487 -208t195 -535t-198 -536q-196 -208 -484 -208zM762 1364
q-209 0 -325 -177q-115 -175 -115 -478q0 -71 8.5 -147t28 -148.5t52 -138t81.5 -114.5t116 -77.5t154 -28.5q88 0 154.5 28.5t115.5 77.5t81.5 114t52.5 137.5t28 149t8 147.5q0 303 -116 479t-324 176z" />
    <glyph glyph-name="Oacute" unicode="&#xd3;" horiz-adv-x="1524" 
d="M600 1567q203 224 245 272q45 50 91 50q61 1 82 -57q10 -63 -46 -100q-57 -35 -141.5 -87.5t-193.5 -116.5zM762 -35q-293 0 -488 210q-194 212 -194 534q0 325 197 534q198 209 485 209q292 0 487 -208t195 -535t-198 -536q-196 -208 -484 -208zM762 1364
q-209 0 -325 -177q-115 -175 -115 -478q0 -71 8.5 -147t28 -148.5t52 -138t81.5 -114.5t116 -77.5t154 -28.5q88 0 154.5 28.5t115.5 77.5t81.5 114t52.5 137.5t28 149t8 147.5q0 303 -116 479t-324 176z" />
    <glyph glyph-name="Ocircumflex" unicode="&#xd4;" horiz-adv-x="1524" 
d="M445 1538l228 289q32 41 89 41h1q57 0 89 -41l228 -289l-50 -31l-268 210l-267 -210zM762 -35q-293 0 -488 210q-194 212 -194 534q0 325 197 534q198 209 485 209q292 0 487 -208t195 -535t-198 -536q-196 -208 -484 -208zM762 1364q-209 0 -325 -177
q-115 -175 -115 -478q0 -71 8.5 -147t28 -148.5t52 -138t81.5 -114.5t116 -77.5t154 -28.5q88 0 154.5 28.5t115.5 77.5t81.5 114t52.5 137.5t28 149t8 147.5q0 303 -116 479t-324 176z" />
    <glyph glyph-name="Otilde" unicode="&#xd5;" horiz-adv-x="1524" 
d="M1108 1764q-31 -86 -98 -145q-65 -57 -138 -53t-149 52q-80 50 -115 51q-34 2 -55 -11q-24 -14 -77 -100l-50 25q93 206 231 199q71 -5 146 -53q76 -48 110 -50q82 -4 117 61q5 11 11.5 23t14.5 26zM762 -35q-293 0 -488 210q-194 212 -194 534q0 325 197 534
q198 209 485 209q292 0 487 -208t195 -535t-198 -536q-196 -208 -484 -208zM762 1364q-209 0 -325 -177q-115 -175 -115 -478q0 -71 8.5 -147t28 -148.5t52 -138t81.5 -114.5t116 -77.5t154 -28.5q88 0 154.5 28.5t115.5 77.5t81.5 114t52.5 137.5t28 149t8 147.5
q0 303 -116 479t-324 176z" />
    <glyph glyph-name="Odieresis" unicode="&#xd6;" horiz-adv-x="1524" 
d="M987 1608q-26 0 -48 10t-37.5 26.5t-24.5 39t-9 47.5t9 47t25 38.5t38 26.5t47 10t46.5 -10t37 -26.5t24.5 -38.5t9 -47q0 -26 -9 -48.5t-25 -39t-37.5 -26t-45.5 -9.5zM537 1608q-24 0 -45.5 9.5t-37.5 26t-25 39t-9 48.5q0 25 9 47t24.5 38.5t37 26.5t46.5 10t47 -10
t38 -26.5t25 -38.5t9 -47t-9 -47.5t-24.5 -39t-37.5 -26.5t-48 -10zM762 -35q-293 0 -488 210q-194 212 -194 534q0 325 197 534q198 209 485 209q292 0 487 -208t195 -535t-198 -536q-196 -208 -484 -208zM762 1364q-209 0 -325 -177q-115 -175 -115 -478q0 -71 8.5 -147
t28 -148.5t52 -138t81.5 -114.5t116 -77.5t154 -28.5q88 0 154.5 28.5t115.5 77.5t81.5 114t52.5 137.5t28 149t8 147.5q0 303 -116 479t-324 176z" />
    <glyph glyph-name="multiply" unicode="&#xd7;" horiz-adv-x="1317" 
d="M1020 111l-363 362l-360 -364l-88 90l362 360l-362 363l88 88l360 -363l363 363l88 -88l-365 -363l365 -360z" />
    <glyph glyph-name="Oslash" unicode="&#xd8;" horiz-adv-x="1524" 
d="M156 -84l-66 49l182 215q-192 215 -192 529q0 325 197 534q198 209 485 209q251 0 432 -160l152 185l65 -54l-158 -186q191 -220 191 -528q0 -327 -198 -536q-196 -208 -484 -208q-243 0 -432 162zM1098 1176q-117 188 -336 188q-88 0 -155 -28.5t-116 -77.5t-82 -114
t-53 -138t-28.5 -149.5t-8.5 -147.5q0 -235 66 -394zM426 244q120 -189 336 -189q210 0 325 175q117 176 117 479q0 237 -63 393z" />
    <glyph glyph-name="Ugrave" unicode="&#xd9;" horiz-adv-x="1548" 
d="M881 1528q-85 51 -168 101.5t-167 102.5q-56 37 -46 100q21 58 82 57q46 0 90 -50q23 -25 84 -92.5t162 -179.5zM1534 1348q-150 -12 -191 -68q-40 -55 -40 -248v-616q0 -210 -154 -331q-153 -120 -358 -120q-242 0 -387 118q-144 119 -144 292v837q0 117 -186 136v71
h592v-71q-122 -11 -156 -35q-35 -26 -35 -90v-785q0 -360 352 -360q184 0 280 103q97 103 97 255v584q0 212 -53 262t-199 66v71h582v-71z" />
    <glyph glyph-name="Uacute" unicode="&#xda;" horiz-adv-x="1548" 
d="M692 1567q203 224 245 272q45 50 91 50q61 1 82 -57q10 -63 -46 -100q-57 -35 -141.5 -87.5t-193.5 -116.5zM1534 1348q-150 -12 -191 -68q-40 -55 -40 -248v-616q0 -210 -154 -331q-153 -120 -358 -120q-242 0 -387 118q-144 119 -144 292v837q0 117 -186 136v71h592
v-71q-122 -11 -156 -35q-35 -26 -35 -90v-785q0 -360 352 -360q184 0 280 103q97 103 97 255v584q0 212 -53 262t-199 66v71h582v-71z" />
    <glyph glyph-name="Ucircumflex" unicode="&#xdb;" horiz-adv-x="1548" 
d="M1087 1507l-278 211l-274 -211l-50 31l236 285q11 14 20 22.5t19 13.5t22.5 7t30.5 2q54 0 86 -41l238 -289zM1534 1348q-150 -12 -191 -68q-40 -55 -40 -248v-616q0 -210 -154 -331q-153 -120 -358 -120q-242 0 -387 118q-144 119 -144 292v837q0 117 -186 136v71h592
v-71q-122 -11 -156 -35q-35 -26 -35 -90v-785q0 -360 352 -360q184 0 280 103q97 103 97 255v584q0 212 -53 262t-199 66v71h582v-71z" />
    <glyph glyph-name="Udieresis" unicode="&#xdc;" horiz-adv-x="1548" 
d="M1040 1608q-26 0 -48 10t-37.5 26.5t-24.5 39t-9 47.5t9 47t25 38.5t38 26.5t47 10t46.5 -10t37 -26.5t24.5 -38.5t9 -47q0 -26 -9 -48.5t-25 -39t-37.5 -26t-45.5 -9.5zM590 1608q-24 0 -45.5 9.5t-37.5 26t-25 39t-9 48.5q0 25 9 47t24.5 38.5t37 26.5t46.5 10t47 -10
t38 -26.5t25 -38.5t9 -47t-9 -47.5t-24.5 -39t-37.5 -26.5t-48 -10zM1534 1348q-150 -12 -191 -68q-40 -55 -40 -248v-616q0 -210 -154 -331q-153 -120 -358 -120q-242 0 -387 118q-144 119 -144 292v837q0 117 -186 136v71h592v-71q-122 -11 -156 -35q-35 -26 -35 -90v-785
q0 -360 352 -360q184 0 280 103q97 103 97 255v584q0 212 -53 262t-199 66v71h582v-71z" />
    <glyph glyph-name="Yacute" unicode="&#xdd;" horiz-adv-x="1260" 
d="M580 1567q203 224 245 272q45 50 91 50q61 1 82 -57q10 -63 -46 -100q-57 -35 -141.5 -87.5t-193.5 -116.5zM1315 1348q-40 -4 -72.5 -18t-59.5 -35.5t-50 -49t-46 -59.5q-69 -96 -194 -311q-63 -108 -99 -173.5t-46 -88.5q-19 -45 -19 -134v-270q0 -57 38 -90
q40 -34 189 -47v-72h-663v72q149 11 185 32q38 23 38 95v344q0 34 -169 350q-85 159 -140.5 254t-83.5 127q-54 65 -166 74v71h604v-71q-186 -9 -186 -48q0 -28 311 -591q324 521 324 565q0 31 -36 47q-34 18 -153 27v71h494v-71z" />
    <glyph glyph-name="Thorn" unicode="&#xde;" horiz-adv-x="1257" 
d="M502 324v-131q0 -70 36 -93q37 -21 167 -28v-72h-607v72q126 11 157 32q34 22 34 89v1021q0 39 -18.5 64t-46.5 39.5t-62 21t-66 9.5v71h596v-71q-121 -11 -155 -35q-35 -26 -35 -88v-92h252q84 0 163 -24.5t139.5 -71.5t97 -117t36.5 -162q0 -113 -42.5 -195
t-114.5 -135t-166 -78.5t-197 -25.5h-168zM502 1049v-637h108q82 0 144 22t103 62.5t62 98.5t21 130q0 156 -76 240t-223 84h-139z" />
    <glyph glyph-name="germandbls" unicode="&#xdf;" horiz-adv-x="1122" 
d="M489 82q36 -10 89 -10q258 0 258 432q0 69 -14.5 138t-48 124.5t-88.5 90t-136 34.5h-21v86h37q97 0 164 69q68 71 68 193q0 115 -50 175.5t-135 60.5q-227 0 -227 -414v-1061h-326v66q107 8 123 39q17 32 17 67v834q0 70 7 137t27 128t58 114.5t99 95.5q102 69 233 69
q72 0 135 -19t110.5 -57t75 -95t27.5 -134q0 -58 -20 -110.5t-56 -93.5t-85.5 -67.5t-107.5 -33.5v-8q79 -19 142.5 -58.5t107.5 -96t68 -127.5t24 -152q0 -225 -125 -367q-124 -141 -309 -141q-35 0 -65.5 2.5t-55.5 7.5v82z" />
    <glyph glyph-name="agrave" unicode="&#xe0;" horiz-adv-x="1032" 
d="M561 1132q-85 51 -168 101.5t-167 102.5q-56 37 -46 100q21 58 82 57q46 0 90 -50q23 -25 84 -92.5t162 -179.5zM1006 18q-105 -38 -162 -38q-156 0 -185 143h-6q-133 -148 -319 -148q-55 0 -102 17t-80.5 49t-52.5 77.5t-19 102.5q0 124 68 189q67 65 234 121
q239 79 273 100v98q0 43 -12 81.5t-36 67t-59 45.5t-81 17q-96 0 -141 -47q0 -24 9 -59q9 -34 9 -72q0 -19 -9 -36t-25 -29.5t-38 -19.5t-47 -7q-96 0 -96 114q0 89 112 159q113 71 238 71q89 0 157 -16t114 -53.5t70 -100t24 -156.5l-6 -493q0 -55 25 -80t46 -30
q21 -3 97 -3v-64zM657 547q-217 -64 -297 -132q-79 -67 -79 -169q0 -160 153 -160q118 0 217 115z" />
    <glyph glyph-name="aacute" unicode="&#xe1;" horiz-adv-x="1032" 
d="M370 1171q203 224 245 272q45 50 91 50q61 1 82 -57q10 -63 -46 -100q-57 -35 -141.5 -87.5t-193.5 -116.5zM1006 18q-105 -38 -162 -38q-156 0 -185 143h-6q-133 -148 -319 -148q-55 0 -102 17t-80.5 49t-52.5 77.5t-19 102.5q0 124 68 189q67 65 234 121
q239 79 273 100v98q0 43 -12 81.5t-36 67t-59 45.5t-81 17q-96 0 -141 -47q0 -24 9 -59q9 -34 9 -72q0 -19 -9 -36t-25 -29.5t-38 -19.5t-47 -7q-96 0 -96 114q0 89 112 159q113 71 238 71q89 0 157 -16t114 -53.5t70 -100t24 -156.5l-6 -493q0 -55 25 -80t46 -30
q21 -3 97 -3v-64zM657 547q-217 -64 -297 -132q-79 -67 -79 -169q0 -160 153 -160q118 0 217 115z" />
    <glyph glyph-name="acircumflex" unicode="&#xe2;" horiz-adv-x="1032" 
d="M167 1144l228 289q32 41 89 41h1q57 0 89 -41l228 -289l-50 -31l-268 210l-267 -210zM1006 18q-105 -38 -162 -38q-156 0 -185 143h-6q-133 -148 -319 -148q-55 0 -102 17t-80.5 49t-52.5 77.5t-19 102.5q0 124 68 189q67 65 234 121q239 79 273 100v98q0 43 -12 81.5
t-36 67t-59 45.5t-81 17q-96 0 -141 -47q0 -24 9 -59q9 -34 9 -72q0 -19 -9 -36t-25 -29.5t-38 -19.5t-47 -7q-96 0 -96 114q0 89 112 159q113 71 238 71q89 0 157 -16t114 -53.5t70 -100t24 -156.5l-6 -493q0 -55 25 -80t46 -30q21 -3 97 -3v-64zM657 547
q-217 -64 -297 -132q-79 -67 -79 -169q0 -160 153 -160q118 0 217 115z" />
    <glyph glyph-name="atilde" unicode="&#xe3;" horiz-adv-x="1032" 
d="M846 1369q-31 -86 -98 -145q-65 -57 -138 -53t-149 52q-80 50 -115 51q-34 2 -55 -11q-24 -14 -77 -100l-50 25q93 206 231 199q71 -5 146 -53q76 -48 110 -50q82 -4 117 61q5 11 11.5 23t14.5 26zM1006 18q-105 -38 -162 -38q-156 0 -185 143h-6q-133 -148 -319 -148
q-55 0 -102 17t-80.5 49t-52.5 77.5t-19 102.5q0 124 68 189q67 65 234 121q239 79 273 100v98q0 43 -12 81.5t-36 67t-59 45.5t-81 17q-96 0 -141 -47q0 -24 9 -59q9 -34 9 -72q0 -19 -9 -36t-25 -29.5t-38 -19.5t-47 -7q-96 0 -96 114q0 89 112 159q113 71 238 71
q89 0 157 -16t114 -53.5t70 -100t24 -156.5l-6 -493q0 -55 25 -80t46 -30q21 -3 97 -3v-64zM657 547q-217 -64 -297 -132q-79 -67 -79 -169q0 -160 153 -160q118 0 217 115z" />
    <glyph glyph-name="adieresis" unicode="&#xe4;" horiz-adv-x="1032" 
d="M711 1241q-26 0 -48 10t-37.5 26.5t-24.5 39t-9 47.5t9 47.5t25 39t38 26.5t47 10q26 0 47.5 -10t37.5 -26.5t25 -39t9 -47.5q0 -24 -9.5 -46.5t-25.5 -39.5t-37.5 -27t-46.5 -10zM281 1241q-25 0 -47 10t-38 26.5t-25 39t-9 47.5t9 47.5t25 39t38 26.5t47 10t46.5 -10
t37.5 -27t25.5 -39.5t9.5 -46.5q0 -25 -9 -47t-25 -39t-38 -27t-47 -10zM1006 18q-105 -38 -162 -38q-156 0 -185 143h-6q-133 -148 -319 -148q-55 0 -102 17t-80.5 49t-52.5 77.5t-19 102.5q0 124 68 189q67 65 234 121q239 79 273 100v98q0 43 -12 81.5t-36 67t-59 45.5
t-81 17q-96 0 -141 -47q0 -24 9 -59q9 -34 9 -72q0 -19 -9 -36t-25 -29.5t-38 -19.5t-47 -7q-96 0 -96 114q0 89 112 159q113 71 238 71q89 0 157 -16t114 -53.5t70 -100t24 -156.5l-6 -493q0 -55 25 -80t46 -30q21 -3 97 -3v-64zM657 547q-217 -64 -297 -132
q-79 -67 -79 -169q0 -160 153 -160q118 0 217 115z" />
    <glyph glyph-name="aring" unicode="&#xe5;" horiz-adv-x="1032" 
d="M496 1114q-52 0 -99 13.5t-82.5 41t-56 69.5t-20.5 99q0 53 22 94.5t58 70t82.5 43t95.5 14.5q51 0 97.5 -14t82.5 -41.5t57 -69t21 -97.5q0 -55 -21 -97t-57 -70t-82.5 -42t-97.5 -14zM496 1495q-131 0 -131 -158q0 -69 33 -114t98 -45q131 0 131 159q0 72 -35 115
t-96 43zM1006 18q-105 -38 -162 -38q-156 0 -185 143h-6q-133 -148 -319 -148q-55 0 -102 17t-80.5 49t-52.5 77.5t-19 102.5q0 124 68 189q67 65 234 121q239 79 273 100v98q0 43 -12 81.5t-36 67t-59 45.5t-81 17q-96 0 -141 -47q0 -24 9 -59q9 -34 9 -72q0 -19 -9 -36
t-25 -29.5t-38 -19.5t-47 -7q-96 0 -96 114q0 89 112 159q113 71 238 71q89 0 157 -16t114 -53.5t70 -100t24 -156.5l-6 -493q0 -55 25 -80t46 -30q21 -3 97 -3v-64zM657 547q-217 -64 -297 -132q-79 -67 -79 -169q0 -160 153 -160q118 0 217 115z" />
    <glyph glyph-name="ae" unicode="&#xe6;" horiz-adv-x="1509" 
d="M1468 233q-128 -260 -385 -260q-242 0 -370 189h-6q-142 -189 -367 -189q-57 0 -104.5 16.5t-81.5 48t-53 77.5t-19 104q0 130 78 209q80 80 481 195v106q0 80 -44 145q-43 66 -128 66q-100 0 -145 -47q0 -24 9 -59q9 -34 9 -72q0 -39 -33.5 -65.5t-85.5 -26.5
q-96 0 -96 114q0 87 110 158q110 72 234 72q229 0 311 -121q124 121 281 121q94 0 165.5 -29.5t119.5 -83.5t72 -129t24 -166v-57h-619q0 -465 305 -465q175 0 269 192zM1245 631q0 307 -194 307q-97 0 -162 -87q-64 -86 -64 -220h420zM643 537q-362 -71 -362 -289
q0 -162 145 -162q132 0 217 109v342z" />
    <glyph glyph-name="ccedilla" unicode="&#xe7;" horiz-adv-x="930" 
d="M926 229q-29 -52 -70.5 -98t-92 -80.5t-108 -55.5t-119.5 -22v-71q232 0 232 -150q0 -196 -400 -196v71q172 0 212 24q42 22 42 66q0 76 -164 76v184q-102 12 -175.5 59.5t-120 118.5t-68.5 159.5t-22 183.5q0 102 33 195t94 164.5t148 114t194 42.5q60 0 119 -14.5
t105 -46t74.5 -80t28.5 -117.5q0 -127 -102 -127q-29 0 -52 8t-39.5 21t-25 30.5t-8.5 36.5q0 41 12 90q12 51 15 72q-28 51 -131 51q-113 0 -186 -112q-72 -111 -72 -320q0 -188 83 -306q84 -116 216 -116q171 0 282 188z" />
    <glyph glyph-name="egrave" unicode="&#xe8;" horiz-adv-x="989" 
d="M632 1132q-85 51 -168 101.5t-167 102.5q-56 37 -46 100q21 58 82 57q46 0 90 -50q23 -25 84 -92.5t162 -179.5zM948 231q-138 -258 -405 -258q-119 0 -207.5 41t-147 112t-87.5 168t-29 208q0 98 31 190.5t89 164t141.5 114.5t188.5 43q99 0 174 -30t126 -85.5
t76.5 -134t25.5 -174.5v-66h-654q0 -105 22 -187t64 -138t103.5 -85.5t140.5 -29.5q53 0 94 13t73.5 38t59.5 60t52 79zM727 608q0 330 -207 330q-104 0 -174 -88t-76 -242h457z" />
    <glyph glyph-name="eacute" unicode="&#xe9;" horiz-adv-x="989" 
d="M420 1171q203 224 245 272q45 50 91 50q61 1 82 -57q10 -63 -46 -100q-57 -35 -141.5 -87.5t-193.5 -116.5zM948 231q-138 -258 -405 -258q-119 0 -207.5 41t-147 112t-87.5 168t-29 208q0 98 31 190.5t89 164t141.5 114.5t188.5 43q99 0 174 -30t126 -85.5t76.5 -134
t25.5 -174.5v-66h-654q0 -105 22 -187t64 -138t103.5 -85.5t140.5 -29.5q53 0 94 13t73.5 38t59.5 60t52 79zM727 608q0 330 -207 330q-104 0 -174 -88t-76 -242h457z" />
    <glyph glyph-name="ecircumflex" unicode="&#xea;" horiz-adv-x="989" 
d="M209 1144l228 289q32 41 89 41h1q57 0 89 -41l228 -289l-50 -31l-268 210l-267 -210zM948 231q-138 -258 -405 -258q-119 0 -207.5 41t-147 112t-87.5 168t-29 208q0 98 31 190.5t89 164t141.5 114.5t188.5 43q99 0 174 -30t126 -85.5t76.5 -134t25.5 -174.5v-66h-654
q0 -105 22 -187t64 -138t103.5 -85.5t140.5 -29.5q53 0 94 13t73.5 38t59.5 60t52 79zM727 608q0 330 -207 330q-104 0 -174 -88t-76 -242h457z" />
    <glyph glyph-name="edieresis" unicode="&#xeb;" horiz-adv-x="989" 
d="M743 1241q-26 0 -48 10t-37.5 26.5t-24.5 39t-9 47.5t9 47.5t25 39t38 26.5t47 10q26 0 47.5 -10t37.5 -26.5t25 -39t9 -47.5q0 -24 -9.5 -46.5t-25.5 -39.5t-37.5 -27t-46.5 -10zM313 1241q-25 0 -47 10t-38 26.5t-25 39t-9 47.5t9 47.5t25 39t38 26.5t47 10t46.5 -10
t37.5 -27t25.5 -39.5t9.5 -46.5q0 -25 -9 -47t-25 -39t-38 -27t-47 -10zM948 231q-138 -258 -405 -258q-119 0 -207.5 41t-147 112t-87.5 168t-29 208q0 98 31 190.5t89 164t141.5 114.5t188.5 43q99 0 174 -30t126 -85.5t76.5 -134t25.5 -174.5v-66h-654q0 -105 22 -187
t64 -138t103.5 -85.5t140.5 -29.5q53 0 94 13t73.5 38t59.5 60t52 79zM727 608q0 330 -207 330q-104 0 -174 -88t-76 -242h457z" />
    <glyph glyph-name="igrave" unicode="&#xec;" horiz-adv-x="600" 
d="M411 1132q-85 51 -168 101.5t-167 102.5q-56 37 -46 100q21 58 82 57q46 0 90 -50q23 -25 84 -92.5t162 -179.5zM74 0v66l48 5q97 7 97 97v608q0 121 -176 135v66l348 20l15 -14v-803q0 -57 35 -81t110 -33v-66h-477z" />
    <glyph glyph-name="iacute" unicode="&#xed;" horiz-adv-x="600" 
d="M150 1171q203 224 245 272q45 50 91 50q61 1 82 -57q10 -63 -46 -100q-57 -35 -141.5 -87.5t-193.5 -116.5zM74 0v66l48 5q97 7 97 97v608q0 121 -176 135v66l348 20l15 -14v-803q0 -57 35 -81t110 -33v-66h-477z" />
    <glyph glyph-name="icircumflex" unicode="&#xee;" horiz-adv-x="600" 
d="M538 1118l-278 273l-274 -273l-50 33l238 346q11 15 19 23.5t18 13.5t22.5 6.5t30.5 1.5q55 0 84 -41l240 -350zM74 0v66l48 5q97 7 97 97v608q0 121 -176 135v66l348 20l15 -14v-803q0 -57 35 -81t110 -33v-66h-477z" />
    <glyph glyph-name="idieresis" unicode="&#xef;" horiz-adv-x="600" 
d="M485 1241q-26 0 -48 10t-37.5 26.5t-24.5 39t-9 47.5t9 47.5t25 39t38 26.5t47 10q26 0 47.5 -10t37.5 -26.5t25 -39t9 -47.5q0 -24 -9.5 -46.5t-25.5 -39.5t-37.5 -27t-46.5 -10zM55 1241q-25 0 -46.5 10t-37.5 27t-25.5 39.5t-9.5 46.5q0 25 9 47.5t25 39t38 26.5
t47 10t46.5 -10t37.5 -27t25.5 -39.5t9.5 -46.5q0 -25 -9 -47t-25 -39t-38 -27t-47 -10zM74 0v66l48 5q97 7 97 97v608q0 121 -176 135v66l348 20l15 -14v-803q0 -57 35 -81t110 -33v-66h-477z" />
    <glyph glyph-name="eth" unicode="&#xf0;" horiz-adv-x="1090" 
d="M803 848q-26 220 -174 434l-232 -137l-49 78l227 131q-57 75 -165 145l51 57q110 -55 213 -147l203 123l51 -80l-191 -109q277 -292 277 -733q0 -295 -129 -468t-353 -173q-192 0 -327 143q-135 144 -135 373q0 222 127 361t327 139q177 0 271 -139zM545 905
q-66 0 -116 -27.5t-84 -79t-51.5 -127t-17.5 -171.5q0 -455 267 -455q56 0 97 23t70 61t47.5 87t29 101t14.5 102.5t4 92.5q0 176 -71 285q-70 108 -189 108z" />
    <glyph glyph-name="ntilde" unicode="&#xf1;" horiz-adv-x="1210" 
d="M987 1466q-13 -42 -36.5 -85t-56 -77.5t-74 -56.5t-89.5 -22q-83 0 -175 51q-91 51 -134 51q-36 0 -61 -16q-26 -17 -81 -119l-59 25q93 241 250 241q80 0 171 -51q92 -51 128 -51q96 0 130 78q5 13 11.5 27t14.5 30zM678 0v66l51 5q100 6 100 97v508q0 39 -9.5 78.5
t-30.5 70.5t-53 50.5t-77 19.5q-170 0 -256 -150v-567q0 -100 152 -112v-66h-483v66l48 5q97 7 97 97v608q0 129 -156 135v66l328 20l14 -14v-137h5q39 40 74 71t73.5 52.5t82.5 33t101 11.5q279 0 279 -326v-512q0 -99 143 -110v-66h-483z" />
    <glyph glyph-name="ograve" unicode="&#xf2;" horiz-adv-x="1104" 
d="M659 1132q-85 51 -168 101.5t-167 102.5q-56 37 -46 100q21 58 82 57q46 0 90 -50q23 -25 84 -92.5t162 -179.5zM543 -31q-198 0 -336 146q-137 146 -137 374q0 110 33 206t95.5 167t153 111.5t205.5 40.5q111 0 199 -39.5t149.5 -108.5t94 -162t32.5 -200
q0 -111 -32.5 -208.5t-95 -170t-153.5 -114.5t-208 -42zM555 938q-56 0 -99 -19.5t-74 -52.5t-51.5 -76.5t-32.5 -91.5t-17 -97.5t-5 -94.5q0 -44 4.5 -95.5t16.5 -103t32 -99t51 -83.5t74 -58t101 -22q56 0 97.5 22t71.5 58.5t49.5 84t31 98t16 101t4.5 93.5q0 44 -4.5 93
t-16 97.5t-30.5 93t-49 78.5t-72 54t-98 20z" />
    <glyph glyph-name="oacute" unicode="&#xf3;" horiz-adv-x="1104" 
d="M405 1171q203 224 245 272q45 50 91 50q61 1 82 -57q10 -63 -46 -100q-57 -35 -141.5 -87.5t-193.5 -116.5zM543 -31q-198 0 -336 146q-137 146 -137 374q0 110 33 206t95.5 167t153 111.5t205.5 40.5q111 0 199 -39.5t149.5 -108.5t94 -162t32.5 -200
q0 -111 -32.5 -208.5t-95 -170t-153.5 -114.5t-208 -42zM555 938q-56 0 -99 -19.5t-74 -52.5t-51.5 -76.5t-32.5 -91.5t-17 -97.5t-5 -94.5q0 -44 4.5 -95.5t16.5 -103t32 -99t51 -83.5t74 -58t101 -22q56 0 97.5 22t71.5 58.5t49.5 84t31 98t16 101t4.5 93.5q0 44 -4.5 93
t-16 97.5t-30.5 93t-49 78.5t-72 54t-98 20z" />
    <glyph glyph-name="ocircumflex" unicode="&#xf4;" horiz-adv-x="1104" 
d="M235 1144l228 289q32 41 89 41h1q57 0 89 -41l228 -289l-50 -31l-268 210l-267 -210zM543 -31q-198 0 -336 146q-137 146 -137 374q0 110 33 206t95.5 167t153 111.5t205.5 40.5q111 0 199 -39.5t149.5 -108.5t94 -162t32.5 -200q0 -111 -32.5 -208.5t-95 -170
t-153.5 -114.5t-208 -42zM555 938q-56 0 -99 -19.5t-74 -52.5t-51.5 -76.5t-32.5 -91.5t-17 -97.5t-5 -94.5q0 -44 4.5 -95.5t16.5 -103t32 -99t51 -83.5t74 -58t101 -22q56 0 97.5 22t71.5 58.5t49.5 84t31 98t16 101t4.5 93.5q0 44 -4.5 93t-16 97.5t-30.5 93t-49 78.5
t-72 54t-98 20z" />
    <glyph glyph-name="otilde" unicode="&#xf5;" horiz-adv-x="1104" 
d="M895 1369q-31 -86 -98 -145q-65 -57 -138 -53t-149 52q-80 50 -115 51q-34 2 -55 -11q-24 -14 -77 -100l-50 25q93 206 231 199q71 -5 146 -53q76 -48 110 -50q82 -4 117 61q5 11 11.5 23t14.5 26zM543 -31q-198 0 -336 146q-137 146 -137 374q0 110 33 206t95.5 167
t153 111.5t205.5 40.5q111 0 199 -39.5t149.5 -108.5t94 -162t32.5 -200q0 -111 -32.5 -208.5t-95 -170t-153.5 -114.5t-208 -42zM555 938q-56 0 -99 -19.5t-74 -52.5t-51.5 -76.5t-32.5 -91.5t-17 -97.5t-5 -94.5q0 -44 4.5 -95.5t16.5 -103t32 -99t51 -83.5t74 -58
t101 -22q56 0 97.5 22t71.5 58.5t49.5 84t31 98t16 101t4.5 93.5q0 44 -4.5 93t-16 97.5t-30.5 93t-49 78.5t-72 54t-98 20z" />
    <glyph glyph-name="odieresis" unicode="&#xf6;" horiz-adv-x="1104" 
d="M774 1241q-26 0 -48 10t-37.5 26.5t-24.5 39t-9 47.5t9 47.5t25 39t38 26.5t47 10q26 0 47.5 -10t37.5 -26.5t25 -39t9 -47.5q0 -24 -9.5 -46.5t-25.5 -39.5t-37.5 -27t-46.5 -10zM344 1241q-25 0 -47 10t-38 26.5t-25 39t-9 47.5t9 47.5t25 39t38 26.5t47 10t46.5 -10
t37.5 -27t25.5 -39.5t9.5 -46.5q0 -25 -9 -47t-25 -39t-38 -27t-47 -10zM543 -31q-198 0 -336 146q-137 146 -137 374q0 110 33 206t95.5 167t153 111.5t205.5 40.5q111 0 199 -39.5t149.5 -108.5t94 -162t32.5 -200q0 -111 -32.5 -208.5t-95 -170t-153.5 -114.5t-208 -42z
M555 938q-56 0 -99 -19.5t-74 -52.5t-51.5 -76.5t-32.5 -91.5t-17 -97.5t-5 -94.5q0 -44 4.5 -95.5t16.5 -103t32 -99t51 -83.5t74 -58t101 -22q56 0 97.5 22t71.5 58.5t49.5 84t31 98t16 101t4.5 93.5q0 44 -4.5 93t-16 97.5t-30.5 93t-49 78.5t-72 54t-98 20z" />
    <glyph glyph-name="divide" unicode="&#xf7;" horiz-adv-x="1317" 
d="M659 838q-28 0 -51.5 10t-40.5 27t-27 40.5t-10 51.5q0 27 10 50t27.5 40t41 27t50.5 10q26 0 49 -10t41 -27.5t28.5 -40.5t10.5 -49q0 -27 -10 -50.5t-27.5 -41t-41 -27.5t-50.5 -10zM143 498v125h1031v-125h-1031zM659 27q-27 0 -50.5 9.5t-41 26.5t-27.5 40.5
t-10 50.5t10 50.5t27.5 41t41 27.5t50.5 10q26 0 49.5 -10.5t41 -28t28 -41t10.5 -49.5t-10.5 -49t-28 -40.5t-41 -27.5t-49.5 -10z" />
    <glyph glyph-name="oslash" unicode="&#xf8;" horiz-adv-x="1104" 
d="M256 76q-11 -13 -43 -52.5t-84 -105.5l-57 43l133 164q-135 152 -135 364q0 110 33 206t95.5 167t153 111.5t205.5 40.5q166 0 289 -96l110 141l60 -45l-119 -146q135 -145 135 -364q0 -111 -32.5 -208.5t-95 -170t-153.5 -114.5t-208 -42q-156 0 -287 107zM764 815
q-69 123 -209 123q-56 0 -99 -19.5t-74.5 -52t-52.5 -76t-33.5 -91.5t-18 -97.5t-5.5 -95.5q0 -141 35 -258zM340 178q73 -133 215 -133q56 0 98 22t72.5 58.5t50.5 83.5t32 98t16.5 101.5t4.5 93.5q0 142 -32 246z" />
    <glyph glyph-name="ugrave" unicode="&#xf9;" horiz-adv-x="1178" 
d="M659 1132q-85 51 -168 101.5t-167 102.5q-56 37 -46 100q21 58 82 57q46 0 90 -50q23 -25 84 -92.5t162 -179.5zM809 -4l-16 14v125h-7q-142 -160 -327 -160q-269 0 -269 334v471q0 123 -155 129v66l330 22l14 -14v-684q0 -50 12 -90t34 -67.5t52 -42.5t66 -15
q157 0 248 145v559q0 17 -6 35.5t-16.5 35t-25 28t-32.5 14.5q-14 2 -40.5 4t-66.5 4v66l359 22l16 -14v-782q0 -119 149 -117v-66z" />
    <glyph glyph-name="uacute" unicode="&#xfa;" horiz-adv-x="1178" 
d="M465 1171q203 224 245 272q45 50 91 50q61 1 82 -57q10 -63 -46 -100q-57 -35 -141.5 -87.5t-193.5 -116.5zM809 -4l-16 14v125h-7q-142 -160 -327 -160q-269 0 -269 334v471q0 123 -155 129v66l330 22l14 -14v-684q0 -50 12 -90t34 -67.5t52 -42.5t66 -15q157 0 248 145
v559q0 17 -6 35.5t-16.5 35t-25 28t-32.5 14.5q-14 2 -40.5 4t-66.5 4v66l359 22l16 -14v-782q0 -119 149 -117v-66z" />
    <glyph glyph-name="ucircumflex" unicode="&#xfb;" horiz-adv-x="1178" 
d="M849 1118l-278 273l-274 -273l-50 33l238 346q11 15 19 23.5t18 13.5t22.5 6.5t30.5 1.5q55 0 84 -41l240 -350zM809 -4l-16 14v125h-7q-142 -160 -327 -160q-269 0 -269 334v471q0 123 -155 129v66l330 22l14 -14v-684q0 -50 12 -90t34 -67.5t52 -42.5t66 -15
q157 0 248 145v559q0 17 -6 35.5t-16.5 35t-25 28t-32.5 14.5q-14 2 -40.5 4t-66.5 4v66l359 22l16 -14v-782q0 -119 149 -117v-66z" />
    <glyph glyph-name="udieresis" unicode="&#xfc;" horiz-adv-x="1178" 
d="M788 1241q-26 0 -48 10t-37.5 26.5t-24.5 39t-9 47.5t9 47.5t25 39t38 26.5t47 10q26 0 47.5 -10t37.5 -26.5t25 -39t9 -47.5q0 -24 -9.5 -46.5t-25.5 -39.5t-37.5 -27t-46.5 -10zM358 1241q-25 0 -47 10t-38 26.5t-25 39t-9 47.5t9 47.5t25 39t38 26.5t47 10t46.5 -10
t37.5 -27t25.5 -39.5t9.5 -46.5q0 -25 -9 -47t-25 -39t-38 -27t-47 -10zM809 -4l-16 14v125h-7q-142 -160 -327 -160q-269 0 -269 334v471q0 123 -155 129v66l330 22l14 -14v-684q0 -50 12 -90t34 -67.5t52 -42.5t66 -15q157 0 248 145v559q0 17 -6 35.5t-16.5 35t-25 28
t-32.5 14.5q-14 2 -40.5 4t-66.5 4v66l359 22l16 -14v-782q0 -119 149 -117v-66z" />
    <glyph glyph-name="yacute" unicode="&#xfd;" horiz-adv-x="1008" 
d="M425 1171q203 224 245 272q45 50 91 50q61 1 82 -57q10 -63 -46 -100q-57 -35 -141.5 -87.5t-193.5 -116.5zM1038 924q-15 -2 -35.5 -11t-40 -22t-36 -27.5t-24.5 -28.5q-14 -23 -89 -202l-138 -330q-71 -171 -123 -290t-87 -188q-69 -139 -146 -204t-155 -65
q-28 0 -57.5 7t-53.5 21.5t-39.5 37.5t-15.5 56q0 48 25.5 80.5t68.5 32.5q86 0 156 -127q20 10 41.5 33.5t43.5 54.5t43 66.5t39 69.5t32 64.5t22 51.5l-336 820q-33 74 -151 96v65h448v-70q-113 -8 -113 -43q0 -1 5 -14l10 -31l237 -583l201 491q2 6 4.5 12.5t6.5 14.5
q24 54 24 84q0 51 -133 76v63h366v-61z" />
    <glyph glyph-name="thorn" unicode="&#xfe;" horiz-adv-x="1145" 
d="M360 41v-297q0 -52 35 -81q35 -28 164 -40v-67h-551v67q121 6 143 34q23 29 23 75v1585q0 14 -4.5 33.5t-13 37.5t-20.5 33t-27 20q-14 5 -45.5 10t-81.5 9v66l364 22l14 -14v-660l7 -2q129 142 278 142q182 0 304 -149t122 -380q0 -216 -139 -364t-326 -148
q-151 0 -237 68h-9zM360 209q0 -27 60 -95q61 -67 170 -67q119 0 196 116q76 116 76 324q0 68 -14 141.5t-47 134t-88 99.5t-138 39q-123 0 -215 -108v-584z" />
    <glyph glyph-name="ydieresis" unicode="&#xff;" horiz-adv-x="1008" 
d="M758 1241q-26 0 -48 10t-37.5 26.5t-24.5 39t-9 47.5t9 47.5t25 39t38 26.5t47 10q26 0 47.5 -10t37.5 -26.5t25 -39t9 -47.5q0 -24 -9.5 -46.5t-25.5 -39.5t-37.5 -27t-46.5 -10zM328 1241q-25 0 -47 10t-38 26.5t-25 39t-9 47.5t9 47.5t25 39t38 26.5t47 10t46.5 -10
t37.5 -27t25.5 -39.5t9.5 -46.5q0 -25 -9 -47t-25 -39t-38 -27t-47 -10zM1038 924q-15 -2 -35.5 -11t-40 -22t-36 -27.5t-24.5 -28.5q-14 -23 -89 -202l-138 -330q-71 -171 -123 -290t-87 -188q-69 -139 -146 -204t-155 -65q-28 0 -57.5 7t-53.5 21.5t-39.5 37.5t-15.5 56
q0 48 25.5 80.5t68.5 32.5q86 0 156 -127q20 10 41.5 33.5t43.5 54.5t43 66.5t39 69.5t32 64.5t22 51.5l-336 820q-33 74 -151 96v65h448v-70q-113 -8 -113 -43q0 -1 5 -14l10 -31l237 -583l201 491q2 6 4.5 12.5t6.5 14.5q24 54 24 84q0 51 -133 76v63h366v-61z" />
    <glyph glyph-name="Amacron" unicode="&#x100;" horiz-adv-x="1374" 
d="M358 1644v129h684v-129h-684zM829 0v72q183 11 183 57q0 21 -8 43l-119 320h-498q-98 -255 -98 -332q0 -75 205 -88v-72h-535v72q66 5 121 32t87 87q26 48 186 459l306 790h80l473 -1225q51 -132 209 -143v-72h-592zM635 1130l-211 -550h426z" />
    <glyph glyph-name="amacron" unicode="&#x101;" horiz-adv-x="1032" 
d="M164 1290v129h684v-129h-684zM1006 18q-105 -38 -162 -38q-156 0 -185 143h-6q-133 -148 -319 -148q-55 0 -102 17t-80.5 49t-52.5 77.5t-19 102.5q0 124 68 189q67 65 234 121q239 79 273 100v98q0 43 -12 81.5t-36 67t-59 45.5t-81 17q-96 0 -141 -47q0 -24 9 -59
q9 -34 9 -72q0 -19 -9 -36t-25 -29.5t-38 -19.5t-47 -7q-96 0 -96 114q0 89 112 159q113 71 238 71q89 0 157 -16t114 -53.5t70 -100t24 -156.5l-6 -493q0 -55 25 -80t46 -30q21 -3 97 -3v-64zM657 547q-217 -64 -297 -132q-79 -67 -79 -169q0 -160 153 -160q118 0 217 115z
" />
    <glyph glyph-name="Abreve" unicode="&#x102;" horiz-adv-x="1374" 
d="M1001 1806q-53 -284 -303 -284q-253 0 -303 284l61 9q37 -91 96 -129.5t146 -38.5q85 0 144.5 37.5t97.5 130.5zM829 0v72q183 11 183 57q0 21 -8 43l-119 320h-498q-98 -255 -98 -332q0 -75 205 -88v-72h-535v72q66 5 121 32t87 87q26 48 186 459l306 790h80l473 -1225
q51 -132 209 -143v-72h-592zM635 1130l-211 -550h426z" />
    <glyph glyph-name="abreve" unicode="&#x103;" horiz-adv-x="1032" 
d="M803 1410q-53 -284 -303 -284q-253 0 -303 284l61 9q37 -91 96 -129.5t146 -38.5q85 0 144.5 37.5t97.5 130.5zM1006 18q-105 -38 -162 -38q-156 0 -185 143h-6q-133 -148 -319 -148q-55 0 -102 17t-80.5 49t-52.5 77.5t-19 102.5q0 124 68 189q67 65 234 121
q239 79 273 100v98q0 43 -12 81.5t-36 67t-59 45.5t-81 17q-96 0 -141 -47q0 -24 9 -59q9 -34 9 -72q0 -19 -9 -36t-25 -29.5t-38 -19.5t-47 -7q-96 0 -96 114q0 89 112 159q113 71 238 71q89 0 157 -16t114 -53.5t70 -100t24 -156.5l-6 -493q0 -55 25 -80t46 -30
q21 -3 97 -3v-64zM657 547q-217 -64 -297 -132q-79 -67 -79 -169q0 -160 153 -160q118 0 217 115z" />
    <glyph glyph-name="Aogonek" unicode="&#x104;" horiz-adv-x="1374" 
d="M829 0v72q183 11 183 57q0 21 -8 43l-119 320h-498q-98 -255 -98 -332q0 -75 205 -88v-72h-535v72q66 5 121 32t87 87q26 48 186 459l306 790h80l473 -1225q51 -132 209 -143v-72h-230q-93 -95 -93 -217q0 -87 56 -121.5t167 -34.5v-71h-115q-131 0 -199.5 51.5
t-68.5 142.5q0 134 174 250h-283zM635 1130l-211 -550h426z" />
    <glyph glyph-name="aogonek" unicode="&#x105;" horiz-adv-x="1032" 
d="M1006 18q-105 -38 -162 -38q-31 0 -57 6q-80 -91 -80 -203q0 -87 56 -121.5t167 -34.5v-71h-115q-131 0 -199.5 51.5t-68.5 142.5q0 139 185 257q-57 36 -73 116h-6q-133 -148 -319 -148q-55 0 -102 17t-80.5 49t-52.5 77.5t-19 102.5q0 124 68 189q67 65 234 121
q239 79 273 100v98q0 43 -12 81.5t-36 67t-59 45.5t-81 17q-96 0 -141 -47q0 -24 9 -59q9 -34 9 -72q0 -19 -9 -36t-25 -29.5t-38 -19.5t-47 -7q-96 0 -96 114q0 89 112 159q113 71 238 71q89 0 157 -16t114 -53.5t70 -100t24 -156.5l-6 -493q0 -55 25 -80t46 -30
q21 -3 97 -3v-64zM657 547q-217 -64 -297 -132q-79 -67 -79 -169q0 -160 153 -160q118 0 217 115z" />
    <glyph glyph-name="Cacute" unicode="&#x106;" horiz-adv-x="1315" 
d="M502 1546q84 79 149 143t113 115q60 64 115 64q39 0 65.5 -22.5t26.5 -57.5q0 -48 -35 -77q-17 -14 -65.5 -39.5t-127.5 -62.5q-94 -43 -210 -102zM1288 358q-156 -391 -565 -391q-270 0 -458 203q-187 203 -187 526q0 331 192 542q194 212 484 212q194 0 352 -98l41 67
h80l10 -506h-84q-97 453 -387 453q-204 0 -327 -174q-122 -175 -122 -481q0 -272 135 -452q135 -179 345 -179q296 0 417 315z" />
    <glyph glyph-name="cacute" unicode="&#x107;" horiz-adv-x="930" 
d="M310 1143q57 83 107 159t95 148q52 88 127 88q34 0 58 -23.5t24 -54.5q0 -57 -43 -91q-22 -17 -76.5 -60.5t-144.5 -113.5q-23 -18 -50 -39t-58 -46zM926 229q-30 -53 -72 -100t-94 -81.5t-110.5 -54.5t-121.5 -20q-117 0 -203 41.5t-142.5 112.5t-83.5 166.5t-27 204.5
q0 102 33 195t94 164.5t148 114t194 42.5q60 0 119 -14.5t105 -46t74.5 -80t28.5 -117.5q0 -127 -102 -127q-29 0 -52 8t-39.5 21t-25 30.5t-8.5 36.5q0 41 12 90q12 51 15 72q-28 51 -131 51q-113 0 -186 -112q-72 -111 -72 -320q0 -188 83 -306q84 -116 216 -116
q171 0 282 188z" />
    <glyph glyph-name="Ccircumflex" unicode="&#x108;" horiz-adv-x="1315" 
d="M1013 1507l-278 211l-274 -211l-50 31l236 285q11 14 20 22.5t19 13.5t22.5 7t30.5 2q54 0 86 -41l238 -289zM1288 358q-156 -391 -565 -391q-270 0 -458 203q-187 203 -187 526q0 331 192 542q194 212 484 212q194 0 352 -98l41 67h80l10 -506h-84q-97 453 -387 453
q-204 0 -327 -174q-122 -175 -122 -481q0 -272 135 -452q135 -179 345 -179q296 0 417 315z" />
    <glyph glyph-name="ccircumflex" unicode="&#x109;" horiz-adv-x="930" 
d="M798 1118l-278 273l-274 -273l-50 33l238 346q11 15 19 23.5t18 13.5t22.5 6.5t30.5 1.5q55 0 84 -41l240 -350zM926 229q-30 -53 -72 -100t-94 -81.5t-110.5 -54.5t-121.5 -20q-117 0 -203 41.5t-142.5 112.5t-83.5 166.5t-27 204.5q0 102 33 195t94 164.5t148 114
t194 42.5q60 0 119 -14.5t105 -46t74.5 -80t28.5 -117.5q0 -127 -102 -127q-29 0 -52 8t-39.5 21t-25 30.5t-8.5 36.5q0 41 12 90q12 51 15 72q-28 51 -131 51q-113 0 -186 -112q-72 -111 -72 -320q0 -188 83 -306q84 -116 216 -116q171 0 282 188z" />
    <glyph glyph-name="Cdotaccent" unicode="&#x10a;" horiz-adv-x="1315" 
d="M748 1597q-27 0 -49.5 11t-39.5 29t-26.5 41.5t-9.5 49.5t9.5 50.5t26 43t39.5 30t50 11.5t51 -9.5t41.5 -26.5t28 -40.5t10.5 -50.5q0 -28 -10 -53t-27 -44t-41 -30.5t-53 -11.5zM1288 358q-156 -391 -565 -391q-270 0 -458 203q-187 203 -187 526q0 331 192 542
q194 212 484 212q194 0 352 -98l41 67h80l10 -506h-84q-97 453 -387 453q-204 0 -327 -174q-122 -175 -122 -481q0 -272 135 -452q135 -179 345 -179q296 0 417 315z" />
    <glyph glyph-name="cdotaccent" unicode="&#x10b;" horiz-adv-x="930" 
d="M516 1247q-27 0 -49.5 11t-39.5 29t-26.5 41.5t-9.5 49.5t9.5 50.5t26 43t39.5 30t50 11.5t51 -9.5t41.5 -26.5t28 -40.5t10.5 -50.5q0 -28 -10 -53t-27 -44t-41 -30.5t-53 -11.5zM926 229q-30 -53 -72 -100t-94 -81.5t-110.5 -54.5t-121.5 -20q-117 0 -203 41.5
t-142.5 112.5t-83.5 166.5t-27 204.5q0 102 33 195t94 164.5t148 114t194 42.5q60 0 119 -14.5t105 -46t74.5 -80t28.5 -117.5q0 -127 -102 -127q-29 0 -52 8t-39.5 21t-25 30.5t-8.5 36.5q0 41 12 90q12 51 15 72q-28 51 -131 51q-113 0 -186 -112q-72 -111 -72 -320
q0 -188 83 -306q84 -116 216 -116q171 0 282 188z" />
    <glyph glyph-name="Ccaron" unicode="&#x10c;" horiz-adv-x="1315" 
d="M1076 1835l-236 -283q-29 -35 -40 -40q-12 -5 -52 -5q-54 0 -86 41l-238 287l50 33l278 -213l274 213zM1288 358q-156 -391 -565 -391q-270 0 -458 203q-187 203 -187 526q0 331 192 542q194 212 484 212q194 0 352 -98l41 67h80l10 -506h-84q-97 453 -387 453
q-204 0 -327 -174q-122 -175 -122 -481q0 -272 135 -452q135 -179 345 -179q296 0 417 315z" />
    <glyph glyph-name="ccaron" unicode="&#x10d;" horiz-adv-x="930" 
d="M608 1159q-29 -41 -84 -41q-18 0 -30.5 1.5t-22.5 6t-18.5 13.5t-18.5 24l-238 346l50 33l274 -272l278 272l50 -33zM926 229q-30 -53 -72 -100t-94 -81.5t-110.5 -54.5t-121.5 -20q-117 0 -203 41.5t-142.5 112.5t-83.5 166.5t-27 204.5q0 102 33 195t94 164.5t148 114
t194 42.5q60 0 119 -14.5t105 -46t74.5 -80t28.5 -117.5q0 -127 -102 -127q-29 0 -52 8t-39.5 21t-25 30.5t-8.5 36.5q0 41 12 90q12 51 15 72q-28 51 -131 51q-113 0 -186 -112q-72 -111 -72 -320q0 -188 83 -306q84 -116 216 -116q171 0 282 188z" />
    <glyph glyph-name="Dcaron" unicode="&#x10e;" horiz-adv-x="1534" 
d="M1037 1835l-236 -283q-29 -35 -40 -40q-12 -5 -52 -5q-54 0 -86 41l-238 287l50 33l278 -213l274 213zM94 0v72q34 0 69 2t63 12.5t45.5 34.5t17.5 67v1024q0 33 -10 56.5t-32.5 39t-58 25t-86.5 15.5v71h621q301 0 516 -187q217 -186 217 -532q0 -324 -224 -512
t-550 -188h-588zM502 244q0 -45 13 -76t39.5 -50t67 -27.5t95.5 -8.5q121 0 213.5 40.5t155 119.5t94.5 194.5t32 265.5q0 283 -150 458q-148 177 -392 177q-52 0 -94 -1t-74 -3v-1089z" />
    <glyph glyph-name="dcaron" unicode="&#x10f;" horiz-adv-x="1362" 
d="M809 -4l-16 14v92l-9 2q-126 -133 -284 -133q-180 0 -304 148t-124 377q0 221 138 369q138 149 331 149q143 0 250 -64v344q0 62 -35 111q-35 48 -197 57v64l404 22l16 -14v-1331q0 -44 23 -75q25 -30 45 -34q11 -2 37 -4.5t69 -5.5v-66zM1085 1063q193 100 199 245h-47
q-133 0 -133 121q0 24 9.5 45t25.5 36.5t37.5 24.5t45.5 9q160 0 160 -205q0 -191 -262 -336zM791 768q0 29 -60 99q-60 71 -170 71q-122 0 -202 -123q-78 -121 -78 -332q0 -45 6.5 -92.5t20.5 -92t36.5 -84.5t54.5 -69.5t74 -47t96 -17.5q126 0 222 110v578z" />
    <glyph glyph-name="Dcroat" unicode="&#x110;" horiz-adv-x="1534" 
d="M94 0v72q34 0 69 2t63 12.5t45.5 34.5t17.5 67v452h-187v99h187v473q0 33 -10 56.5t-32.5 39t-58 25t-86.5 15.5v71h621q301 0 516 -187q217 -186 217 -532q0 -323 -222 -512q-221 -188 -552 -188h-588zM502 739h301v-99h-301v-396q0 -45 13 -76t39.5 -50t67 -27.5
t95.5 -8.5q121 0 213.5 40.5t155 119.5t94.5 194.5t32 265.5q0 283 -150 458q-148 177 -392 177q-52 0 -94 -1t-74 -3v-594z" />
    <glyph glyph-name="dcroat" unicode="&#x111;" horiz-adv-x="1176" 
d="M430 1169v86h363v50q0 52 -21 82.5t-54 46t-75 21t-84 7.5v64l404 22l16 -14v-279h155v-86h-155v-966q0 -44 23 -75q25 -30 45 -34q11 -2 37 -4.5t69 -5.5v-66l-344 -22l-16 14v92l-9 2q-126 -133 -284 -133q-180 0 -304 148t-124 377q0 221 138 369q138 149 331 149
q143 0 250 -64v219h-361zM791 768q0 29 -60 99q-60 71 -170 71q-122 0 -202 -123q-78 -121 -78 -332q0 -45 6.5 -92.5t20.5 -92t36.5 -84.5t54.5 -69.5t74 -47t96 -17.5q126 0 222 110v578z" />
    <glyph glyph-name="Emacron" unicode="&#x112;" horiz-adv-x="1337" 
d="M377 1657v129h684v-129h-684zM1264 0h-1178v72q132 10 168 34q35 24 35 87v1019q0 35 -13.5 59t-40 40t-64 24.5t-85.5 12.5v71h1098v-342h-74q-21 78 -80 152q-59 75 -100 92q-42 18 -205 18h-223v-563h160q62 0 103 14.5t67 43.5t40 72.5t23 101.5h74v-555h-74
q-2 25 -9.5 54t-18.5 63q-13 40 -32 64t-44.5 37.5t-57.5 18t-71 4.5h-160v-426q0 -122 38 -154q40 -32 203 -32h87q141 0 189 22q30 14 61 53t58.5 87t48.5 95.5t32 78.5h71z" />
    <glyph glyph-name="emacron" unicode="&#x113;" horiz-adv-x="989" 
d="M176 1290v129h684v-129h-684zM948 231q-138 -258 -405 -258q-119 0 -207.5 41t-147 112t-87.5 168t-29 208q0 98 31 190.5t89 164t141.5 114.5t188.5 43q99 0 174 -30t126 -85.5t76.5 -134t25.5 -174.5v-66h-654q0 -105 22 -187t64 -138t103.5 -85.5t140.5 -29.5
q53 0 94 13t73.5 38t59.5 60t52 79zM727 608q0 330 -207 330q-104 0 -174 -88t-76 -242h457z" />
    <glyph glyph-name="Ebreve" unicode="&#x114;" horiz-adv-x="1337" 
d="M1036 1851q-51 -321 -317 -321q-267 0 -317 321l55 17q59 -191 262 -191t262 191zM1264 0h-1178v72q132 10 168 34q35 24 35 87v1019q0 35 -13.5 59t-40 40t-64 24.5t-85.5 12.5v71h1098v-342h-74q-21 78 -80 152q-59 75 -100 92q-42 18 -205 18h-223v-563h160
q62 0 103 14.5t67 43.5t40 72.5t23 101.5h74v-555h-74q-2 25 -9.5 54t-18.5 63q-13 40 -32 64t-44.5 37.5t-57.5 18t-71 4.5h-160v-426q0 -122 38 -154q40 -32 203 -32h87q141 0 189 22q30 14 61 53t58.5 87t48.5 95.5t32 78.5h71z" />
    <glyph glyph-name="ebreve" unicode="&#x115;" horiz-adv-x="989" 
d="M831 1495q-52 -369 -313 -369q-263 0 -313 369l55 12q17 -52 37 -94.5t49.5 -72.5t71 -46t100.5 -16t100.5 16t71 46t50 72.5t36.5 94.5zM948 231q-138 -258 -405 -258q-119 0 -207.5 41t-147 112t-87.5 168t-29 208q0 98 31 190.5t89 164t141.5 114.5t188.5 43
q99 0 174 -30t126 -85.5t76.5 -134t25.5 -174.5v-66h-654q0 -105 22 -187t64 -138t103.5 -85.5t140.5 -29.5q53 0 94 13t73.5 38t59.5 60t52 79zM727 608q0 330 -207 330q-104 0 -174 -88t-76 -242h457z" />
    <glyph glyph-name="Edotaccent" unicode="&#x116;" horiz-adv-x="1337" 
d="M674 1597q-27 0 -49.5 11t-39.5 29t-26.5 41.5t-9.5 49.5t9.5 50.5t26 43t39.5 30t50 11.5t51 -9.5t41.5 -26.5t28 -40.5t10.5 -50.5q0 -28 -10 -53t-27 -44t-41 -30.5t-53 -11.5zM1264 0h-1178v72q132 10 168 34q35 24 35 87v1019q0 35 -13.5 59t-40 40t-64 24.5
t-85.5 12.5v71h1098v-342h-74q-21 78 -80 152q-59 75 -100 92q-42 18 -205 18h-223v-563h160q62 0 103 14.5t67 43.5t40 72.5t23 101.5h74v-555h-74q-2 25 -9.5 54t-18.5 63q-13 40 -32 64t-44.5 37.5t-57.5 18t-71 4.5h-160v-426q0 -122 38 -154q40 -32 203 -32h87
q141 0 189 22q30 14 61 53t58.5 87t48.5 95.5t32 78.5h71z" />
    <glyph glyph-name="edotaccent" unicode="&#x117;" horiz-adv-x="989" 
d="M516 1247q-27 0 -49.5 11t-39.5 29t-26.5 41.5t-9.5 49.5t9.5 50.5t26 43t39.5 30t50 11.5t51 -9.5t41.5 -26.5t28 -40.5t10.5 -50.5q0 -28 -10 -53t-27 -44t-41 -30.5t-53 -11.5zM948 231q-138 -258 -405 -258q-119 0 -207.5 41t-147 112t-87.5 168t-29 208
q0 98 31 190.5t89 164t141.5 114.5t188.5 43q99 0 174 -30t126 -85.5t76.5 -134t25.5 -174.5v-66h-654q0 -105 22 -187t64 -138t103.5 -85.5t140.5 -29.5q53 0 94 13t73.5 38t59.5 60t52 79zM727 608q0 330 -207 330q-104 0 -174 -88t-76 -242h457z" />
    <glyph glyph-name="Eogonek" unicode="&#x118;" horiz-adv-x="1337" 
d="M1264 0h-192q-93 -95 -93 -217q0 -87 56 -121.5t167 -34.5v-71h-115q-131 0 -199.5 51.5t-68.5 142.5q0 134 174 250h-907v72q132 10 168 34q35 24 35 87v1019q0 35 -13.5 59t-40 40t-64 24.5t-85.5 12.5v71h1098v-342h-74q-21 78 -80 152q-59 75 -100 92q-42 18 -205 18
h-223v-563h160q62 0 103 14.5t67 43.5t40 72.5t23 101.5h74v-555h-74q-2 25 -9.5 54t-18.5 63q-13 40 -32 64t-44.5 37.5t-57.5 18t-71 4.5h-160v-426q0 -122 38 -154q40 -32 203 -32h87q141 0 189 22q30 14 61 53t58.5 87t48.5 95.5t32 78.5h71z" />
    <glyph glyph-name="eogonek" unicode="&#x119;" horiz-adv-x="989" 
d="M948 231q-82 -153 -210 -216q-109 -100 -109 -232q0 -87 56 -121.5t167 -34.5v-71h-115q-131 0 -199.5 51.5t-68.5 142.5q0 122 142 227q-17 -2 -34 -3t-34 -1q-119 0 -207.5 41t-147 112t-87.5 168t-29 208q0 98 31 190.5t89 164t141.5 114.5t188.5 43q99 0 174 -30
t126 -85.5t76.5 -134t25.5 -174.5v-66h-654q0 -105 22 -187t64 -138t103.5 -85.5t140.5 -29.5q53 0 94 13t73.5 38t59.5 60t52 79zM727 608q0 330 -207 330q-104 0 -174 -88t-76 -242h457z" />
    <glyph glyph-name="Ecaron" unicode="&#x11a;" horiz-adv-x="1337" 
d="M1018 1835l-236 -283q-29 -35 -40 -40q-12 -5 -52 -5q-54 0 -86 41l-238 287l50 33l278 -213l274 213zM1264 0h-1178v72q132 10 168 34q35 24 35 87v1019q0 35 -13.5 59t-40 40t-64 24.5t-85.5 12.5v71h1098v-342h-74q-21 78 -80 152q-59 75 -100 92q-42 18 -205 18h-223
v-563h160q62 0 103 14.5t67 43.5t40 72.5t23 101.5h74v-555h-74q-2 25 -9.5 54t-18.5 63q-13 40 -32 64t-44.5 37.5t-57.5 18t-71 4.5h-160v-426q0 -122 38 -154q40 -32 203 -32h87q141 0 189 22q30 14 61 53t58.5 87t48.5 95.5t32 78.5h71z" />
    <glyph glyph-name="ecaron" unicode="&#x11b;" horiz-adv-x="989" 
d="M608 1159q-29 -41 -84 -41q-18 0 -30.5 1.5t-22.5 6t-18.5 13.5t-18.5 24l-238 346l50 33l274 -272l278 272l50 -33zM948 231q-138 -258 -405 -258q-119 0 -207.5 41t-147 112t-87.5 168t-29 208q0 98 31 190.5t89 164t141.5 114.5t188.5 43q99 0 174 -30t126 -85.5
t76.5 -134t25.5 -174.5v-66h-654q0 -105 22 -187t64 -138t103.5 -85.5t140.5 -29.5q53 0 94 13t73.5 38t59.5 60t52 79zM727 608q0 330 -207 330q-104 0 -174 -88t-76 -242h457z" />
    <glyph glyph-name="Gcircumflex" unicode="&#x11c;" horiz-adv-x="1485" 
d="M1054 1507l-278 211l-274 -211l-50 31l236 285q11 14 20 22.5t19 13.5t22.5 7t30.5 2q54 0 86 -41l238 -289zM1470 567q-6 -1 -13.5 -2t-15.5 -2q-90 -13 -123 -39q-32 -26 -32 -92v-193q0 -57 1 -94t3 -55q-268 -123 -522 -123q-292 0 -491 205t-199 526q0 325 203 539
q204 213 510 213q200 0 366 -98l41 67h80l8 -495h-82q-106 442 -420 442q-210 0 -336 -175q-126 -174 -126 -482q0 -292 133 -473t358 -181q159 0 264 84l8 96v179q0 82 -42 112q-43 31 -193 41v74h620v-74z" />
    <glyph glyph-name="gcircumflex" unicode="&#x11d;" horiz-adv-x="1042" 
d="M763 1118l-278 273l-274 -273l-50 33l238 346q11 15 19 23.5t18 13.5t22.5 6.5t30.5 1.5q55 0 84 -41l240 -350zM326 51q-174 53 -174 174q0 112 149 174v17q-201 92 -201 278q0 78 31 138t82.5 100.5t118.5 61t139 20.5q77 0 180 -33h344v-94h-231v-6q74 -89 74 -199
q0 -69 -31 -126t-81 -97.5t-113 -63t-128 -22.5h-120q-72 -30 -72 -86q0 -32 13 -49t42 -29q32 -13 132 -18l214 -10q170 -9 240 -97q70 -86 70 -186q0 -156 -136 -249t-381 -93q-444 0 -444 258q0 59 25 100.5t65.5 68.5t91 40t101.5 16v12zM467 942q-172 0 -172 -250
q0 -40 9 -84t29.5 -81t54 -61t81.5 -24q50 0 84 22.5t55 57.5t30 78.5t9 85.5q0 59 -12 106t-35 80.5t-56.5 51.5t-76.5 18zM418 14q-50 0 -126 -46q-75 -47 -75 -150q0 -42 20 -76t59 -59t96 -38.5t130 -13.5q318 0 318 230q0 37 -11 62.5t-31.5 42.5t-48.5 26.5t-62 12.5
q-85 9 -269 9z" />
    <glyph glyph-name="Gbreve" unicode="&#x11e;" horiz-adv-x="1485" 
d="M1099 1851q-51 -321 -317 -321q-267 0 -317 321l55 17q59 -191 262 -191t262 191zM1470 567q-6 -1 -13.5 -2t-15.5 -2q-90 -13 -123 -39q-32 -26 -32 -92v-193q0 -57 1 -94t3 -55q-268 -123 -522 -123q-292 0 -491 205t-199 526q0 325 203 539q204 213 510 213
q200 0 366 -98l41 67h80l8 -495h-82q-106 442 -420 442q-210 0 -336 -175q-126 -174 -126 -482q0 -292 133 -473t358 -181q159 0 264 84l8 96v179q0 82 -42 112q-43 31 -193 41v74h620v-74z" />
    <glyph glyph-name="gbreve" unicode="&#x11f;" horiz-adv-x="1042" 
d="M809 1495q-52 -369 -313 -369q-263 0 -313 369l55 12q17 -52 37 -94.5t49.5 -72.5t71 -46t100.5 -16t100.5 16t71 46t50 72.5t36.5 94.5zM326 51q-174 53 -174 174q0 112 149 174v17q-201 92 -201 278q0 78 31 138t82.5 100.5t118.5 61t139 20.5q77 0 180 -33h344v-94
h-231v-6q74 -89 74 -199q0 -69 -31 -126t-81 -97.5t-113 -63t-128 -22.5h-120q-72 -30 -72 -86q0 -32 13 -49t42 -29q32 -13 132 -18l214 -10q170 -9 240 -97q70 -86 70 -186q0 -156 -136 -249t-381 -93q-444 0 -444 258q0 59 25 100.5t65.5 68.5t91 40t101.5 16v12z
M467 942q-172 0 -172 -250q0 -40 9 -84t29.5 -81t54 -61t81.5 -24q50 0 84 22.5t55 57.5t30 78.5t9 85.5q0 59 -12 106t-35 80.5t-56.5 51.5t-76.5 18zM418 14q-50 0 -126 -46q-75 -47 -75 -150q0 -42 20 -76t59 -59t96 -38.5t130 -13.5q318 0 318 230q0 37 -11 62.5
t-31.5 42.5t-48.5 26.5t-62 12.5q-85 9 -269 9z" />
    <glyph glyph-name="Gdotaccent" unicode="&#x120;" horiz-adv-x="1485" 
d="M776 1597q-27 0 -49.5 11t-39.5 29t-26.5 41.5t-9.5 49.5t9.5 50.5t26 43t39.5 30t50 11.5t51 -9.5t41.5 -26.5t28 -40.5t10.5 -50.5q0 -28 -10 -53t-27 -44t-41 -30.5t-53 -11.5zM1470 567q-6 -1 -13.5 -2t-15.5 -2q-90 -13 -123 -39q-32 -26 -32 -92v-193q0 -57 1 -94
t3 -55q-268 -123 -522 -123q-292 0 -491 205t-199 526q0 325 203 539q204 213 510 213q200 0 366 -98l41 67h80l8 -495h-82q-106 442 -420 442q-210 0 -336 -175q-126 -174 -126 -482q0 -292 133 -473t358 -181q159 0 264 84l8 96v179q0 82 -42 112q-43 31 -193 41v74h620
v-74z" />
    <glyph glyph-name="gdotaccent" unicode="&#x121;" horiz-adv-x="1042" 
d="M489 1247q-27 0 -49.5 11t-39.5 29t-26.5 41.5t-9.5 49.5t9.5 50.5t26 43t39.5 30t50 11.5t51 -9.5t41.5 -26.5t28 -40.5t10.5 -50.5q0 -28 -10 -53t-27 -44t-41 -30.5t-53 -11.5zM326 51q-174 53 -174 174q0 112 149 174v17q-201 92 -201 278q0 78 31 138t82.5 100.5
t118.5 61t139 20.5q77 0 180 -33h344v-94h-231v-6q74 -89 74 -199q0 -69 -31 -126t-81 -97.5t-113 -63t-128 -22.5h-120q-72 -30 -72 -86q0 -32 13 -49t42 -29q32 -13 132 -18l214 -10q170 -9 240 -97q70 -86 70 -186q0 -156 -136 -249t-381 -93q-444 0 -444 258
q0 59 25 100.5t65.5 68.5t91 40t101.5 16v12zM467 942q-172 0 -172 -250q0 -40 9 -84t29.5 -81t54 -61t81.5 -24q50 0 84 22.5t55 57.5t30 78.5t9 85.5q0 59 -12 106t-35 80.5t-56.5 51.5t-76.5 18zM418 14q-50 0 -126 -46q-75 -47 -75 -150q0 -42 20 -76t59 -59t96 -38.5
t130 -13.5q318 0 318 230q0 37 -11 62.5t-31.5 42.5t-48.5 26.5t-62 12.5q-85 9 -269 9z" />
    <glyph glyph-name="uni0122" unicode="&#x122;" horiz-adv-x="1485" 
d="M1470 567q-6 -1 -13.5 -2t-15.5 -2q-90 -13 -123 -39q-32 -26 -32 -92v-193q0 -57 1 -94t3 -55q-268 -123 -522 -123q-292 0 -491 205t-199 526q0 325 203 539q204 213 510 213q200 0 366 -98l41 67h80l8 -495h-82q-106 442 -420 442q-210 0 -336 -175
q-126 -174 -126 -482q0 -292 133 -473t358 -181q159 0 264 84l8 96v179q0 82 -42 112q-43 31 -193 41v74h620v-74zM662 -387q176 9 174 129h-55q-119 0 -119 94q0 20 8.5 37.5t24 31t37 21.5t46.5 8q33 0 60.5 -12t47 -33.5t30 -52t10.5 -67.5q0 -51 -18.5 -90.5t-52.5 -67
t-83 -41.5t-110 -14v57z" />
    <glyph glyph-name="uni0123" unicode="&#x123;" horiz-adv-x="1042" 
d="M616 1438q-175 -7 -174 -129h55q119 0 119 -95q0 -40 -32.5 -69t-84.5 -29q-66 0 -106.5 45.5t-40.5 120.5q0 103 69.5 158t194.5 55v-57zM326 51q-174 53 -174 174q0 112 149 174v17q-201 92 -201 278q0 78 31 138t82.5 100.5t118.5 61t139 20.5q77 0 180 -33h344v-94
h-231v-6q74 -89 74 -199q0 -69 -31 -126t-81 -97.5t-113 -63t-128 -22.5h-120q-72 -30 -72 -86q0 -32 13 -49t42 -29q32 -13 132 -18l214 -10q170 -9 240 -97q70 -86 70 -186q0 -156 -136 -249t-381 -93q-444 0 -444 258q0 59 25 100.5t65.5 68.5t91 40t101.5 16v12z
M467 942q-172 0 -172 -250q0 -40 9 -84t29.5 -81t54 -61t81.5 -24q50 0 84 22.5t55 57.5t30 78.5t9 85.5q0 59 -12 106t-35 80.5t-56.5 51.5t-76.5 18zM418 14q-50 0 -126 -46q-75 -47 -75 -150q0 -42 20 -76t59 -59t96 -38.5t130 -13.5q318 0 318 230q0 37 -11 62.5
t-31.5 42.5t-48.5 26.5t-62 12.5q-85 9 -269 9z" />
    <glyph glyph-name="Hcircumflex" unicode="&#x124;" horiz-adv-x="1669" 
d="M1112 1507l-278 211l-274 -211l-50 31l236 285q11 14 20 22.5t19 13.5t22.5 7t30.5 2q54 0 86 -41l238 -289zM979 0v72q118 11 137 19q22 9 36.5 30.5t14.5 66.5v506h-665v-493q0 -61 37 -91q38 -29 147 -38v-72h-588v72q137 6 164 37q27 32 27 79v1024q0 119 -191 136
v71h588v-71q-103 -9 -145 -32q-39 -22 -39 -93v-441h665v430q0 119 -188 136v71h588v-71q-106 -9 -147 -33q-40 -24 -40 -92v-1022q0 -42 16.5 -66t43 -37t60 -18t67.5 -8v-72h-588z" />
    <glyph glyph-name="hcircumflex" unicode="&#x125;" horiz-adv-x="1192" 
d="M883 1507l-281 211l-274 -211l-47 31l233 285q38 45 92 45q52 0 88 -41l236 -289zM659 0v66q14 2 27 3t25 2q100 6 100 97v508q0 39 -9.5 78t-30.5 70.5t-53 51t-77 19.5q-170 0 -256 -150v-567q0 -101 152 -112v-66h-484v66l49 5q97 7 97 97v1020q0 16 -4.5 35.5
t-13.5 37.5t-21.5 32t-29.5 20q-30 11 -124 18v66l365 22l14 -14v-559h4q39 39 75 70t75 53t84 33.5t102 11.5q274 0 274 -326v-512q0 -99 144 -110v-66h-484z" />
    <glyph glyph-name="Hbar" unicode="&#x126;" horiz-adv-x="1669" 
d="M102 1012v88h187v112q0 119 -191 136v71h588v-71q-103 -9 -145 -32q-39 -22 -39 -93v-123h665v112q0 119 -188 136v71h588v-71q-106 -9 -147 -33q-40 -24 -40 -92v-123h187v-88h-187v-811q0 -42 16.5 -66t43 -37t60 -18t67.5 -8v-72h-588v72q118 11 137 19
q22 9 36.5 30.5t14.5 66.5v506h-665v-493q0 -61 37 -91q38 -29 147 -38v-72h-588v72q137 6 164 37q27 32 27 79v824h-187zM502 1012v-230h665v230h-665z" />
    <glyph glyph-name="hbar" unicode="&#x127;" horiz-adv-x="1192" 
d="M385 846h4q39 39 75 70t75 53t84 33.5t102 11.5q274 0 274 -326v-512q0 -99 144 -110v-66h-484v66q14 2 27 3t25 2q100 6 100 97v508q0 39 -9.5 78t-30.5 70.5t-53 51t-77 19.5q-170 0 -256 -150v-567q0 -101 152 -112v-66h-484v66l49 5q97 7 97 97v1001h-228v86h228v62
q0 16 -4.5 35.5t-13.5 37.5t-21.5 32t-29.5 20q-30 11 -124 18v66l365 22l14 -14v-279h350v-86h-350v-323z" />
    <glyph glyph-name="Itilde" unicode="&#x128;" horiz-adv-x="799" 
d="M734 1764q-31 -86 -98 -145q-65 -57 -138 -53t-149 52q-80 50 -115 51q-34 2 -55 -11q-24 -14 -77 -100l-50 25q93 206 231 199q71 -5 146 -53q76 -48 110 -50q82 -4 117 61q5 11 11.5 23t14.5 26zM80 0v72q143 11 177 29q36 20 36 85v1028q0 41 -21.5 66t-54 39
t-69.5 20t-68 9v71h639v-71q-135 -10 -174 -36q-39 -25 -39 -87v-1026q0 -53 34 -84t179 -43v-72h-639z" />
    <glyph glyph-name="itilde" unicode="&#x129;" horiz-adv-x="600" 
d="M624 1369q-31 -86 -98 -145q-65 -57 -138 -53t-149 52q-80 50 -115 51q-34 2 -55 -11q-24 -14 -77 -100l-50 25q93 206 231 199q71 -5 146 -53q76 -48 110 -50q82 -4 117 61q5 11 11.5 23t14.5 26zM74 0v66l48 5q97 7 97 97v608q0 121 -176 135v66l348 20l15 -14v-803
q0 -57 35 -81t110 -33v-66h-477z" />
    <glyph glyph-name="Imacron" unicode="&#x12a;" horiz-adv-x="799" 
d="M59 1657v129h684v-129h-684zM80 0v72q143 11 177 29q36 20 36 85v1028q0 41 -21.5 66t-54 39t-69.5 20t-68 9v71h639v-71q-135 -10 -174 -36q-39 -25 -39 -87v-1026q0 -53 34 -84t179 -43v-72h-639z" />
    <glyph glyph-name="imacron" unicode="&#x12b;" horiz-adv-x="600" 
d="M-70 1290v129h684v-129h-684zM74 0v66l48 5q97 7 97 97v608q0 121 -176 135v66l348 20l15 -14v-803q0 -57 35 -81t110 -33v-66h-477z" />
    <glyph glyph-name="Ibreve" unicode="&#x12c;" horiz-adv-x="799" 
d="M716 1851q-51 -321 -317 -321q-267 0 -317 321l55 17q59 -191 262 -191t262 191zM80 0v72q143 11 177 29q36 20 36 85v1028q0 41 -21.5 66t-54 39t-69.5 20t-68 9v71h639v-71q-135 -10 -174 -36q-39 -25 -39 -87v-1026q0 -53 34 -84t179 -43v-72h-639z" />
    <glyph glyph-name="ibreve" unicode="&#x12d;" horiz-adv-x="600" 
d="M551 1495q-40 -369 -272 -369q-238 0 -273 369l51 12q13 -49 28 -91t39 -73t61 -48t94 -17q83 0 132 40q51 42 91 189zM74 0v66l48 5q97 7 97 97v608q0 121 -176 135v66l348 20l15 -14v-803q0 -57 35 -81t110 -33v-66h-477z" />
    <glyph glyph-name="Iogonek" unicode="&#x12e;" horiz-adv-x="799" 
d="M80 0v72q143 11 177 29q36 20 36 85v1028q0 41 -21.5 66t-54 39t-69.5 20t-68 9v71h639v-71q-135 -10 -174 -36q-39 -25 -39 -87v-1026q0 -53 34 -84t179 -43v-72h-241q-93 -95 -93 -217q0 -87 56 -121.5t167 -34.5v-71h-115q-131 0 -199.5 51.5t-68.5 142.5
q0 134 174 250h-319z" />
    <glyph glyph-name="iogonek" unicode="&#x12f;" horiz-adv-x="600" 
d="M311 1177q-26 0 -49.5 9.5t-41 26.5t-28 40t-10.5 50t10.5 50t28 40.5t41 27.5t49.5 10t49.5 -10t41 -27.5t27.5 -41t10 -49.5t-10 -49t-27.5 -40t-41 -27t-49.5 -10zM74 0v66l48 5q97 7 97 97v608q0 121 -176 135v66l348 20l15 -14v-803q0 -57 35 -81t110 -33v-66h-167
q-93 -95 -93 -217q0 -87 56 -121.5t167 -34.5v-71h-115q-131 0 -199.5 51.5t-68.5 142.5q0 134 174 250h-231z" />
    <glyph glyph-name="Idotaccent" unicode="&#x130;" horiz-adv-x="799" 
d="M399 1597q-27 0 -49.5 11t-39.5 29t-26.5 41.5t-9.5 49.5t9.5 50.5t26 43t39.5 30t50 11.5t51 -9.5t41.5 -26.5t28 -40.5t10.5 -50.5q0 -28 -10 -53t-27 -44t-41 -30.5t-53 -11.5zM80 0v72q143 11 177 29q36 20 36 85v1028q0 41 -21.5 66t-54 39t-69.5 20t-68 9v71h639
v-71q-135 -10 -174 -36q-39 -25 -39 -87v-1026q0 -53 34 -84t179 -43v-72h-639z" />
    <glyph glyph-name="dotlessi" unicode="&#x131;" horiz-adv-x="600" 
d="M74 0v66l48 5q97 7 97 97v608q0 121 -176 135v66l348 20l15 -14v-803q0 -57 35 -81t110 -33v-66h-477z" />
    <glyph glyph-name="IJ" unicode="&#x132;" horiz-adv-x="1819" 
d="M80 0v72q143 11 177 29q36 20 36 85v1028q0 41 -21.5 66t-54 39t-69.5 20t-68 9v71h639v-71q-135 -10 -174 -36q-39 -25 -39 -87v-1026q0 -53 34 -84t179 -43v-72h-639zM1764 1348q-126 -10 -162 -36q-35 -24 -35 -89v-840q0 -158 -119 -289q-118 -129 -313 -129
q-78 0 -145.5 22t-116.5 65t-77 106t-28 145q0 32 8 63t25 55.5t42.5 40t61.5 15.5q63 0 98.5 -34.5t35.5 -88.5q0 -56 -76 -174q-18 -27 -27 -55v-2q63 -82 184 -82t176 93q56 95 56 329v749q0 121 -213 136v71h625v-71z" />
    <glyph glyph-name="ij" unicode="&#x133;" horiz-adv-x="1171" 
d="M311 1177q-26 0 -49.5 9.5t-41 26.5t-28 40t-10.5 50t10.5 50t28 40.5t41 27.5t49.5 10t49.5 -10t41 -27.5t27.5 -41t10 -49.5t-10 -49t-27.5 -40t-41 -27t-49.5 -10zM912 1177q-26 0 -49.5 9.5t-41 26.5t-28 40t-10.5 50t10.5 50t28 40.5t41 27.5t49.5 10t49.5 -10
t41 -27.5t27.5 -41t10 -49.5t-10 -49t-27.5 -40t-41 -27t-49.5 -10zM74 0v66l48 5q97 7 97 97v608q0 121 -176 135v66l348 20l15 -14v-803q0 -57 35 -81t110 -33v-66h-477zM1003 59q0 -223 -115 -362q-114 -141 -286 -141q-42 0 -75.5 9t-57 24.5t-36 37t-12.5 47.5
q0 109 95 109q76 0 131 -93q8 -13 15 -25.5t15 -24.5q76 0 109 93.5t33 293.5v741q0 46 -36 89q-35 45 -190 56v64l398 20l12 -14v-924z" />
    <glyph glyph-name="Jcircumflex" unicode="&#x134;" horiz-adv-x="1061" 
d="M958 1507l-278 211l-274 -211l-50 31l236 285q11 14 20 22.5t19 13.5t22.5 7t30.5 2q54 0 86 -41l238 -289zM1006 1348q-126 -10 -162 -36q-35 -24 -35 -89v-840q0 -158 -119 -289q-118 -129 -313 -129q-78 0 -145.5 22t-116.5 65t-77 106t-28 145q0 32 8 63t25 55.5
t42.5 40t61.5 15.5q63 0 98.5 -34.5t35.5 -88.5q0 -56 -76 -174q-18 -27 -27 -55v-2q63 -82 184 -82t176 93q56 95 56 329v749q0 121 -213 136v71h625v-71z" />
    <glyph glyph-name="jcircumflex" unicode="&#x135;" horiz-adv-x="598" 
d="M554 1118l-278 273l-274 -273l-50 33l238 346q11 15 19 23.5t18 13.5t22.5 6.5t30.5 1.5q55 0 84 -41l240 -350zM430 59q0 -223 -115 -362q-114 -141 -286 -141q-42 0 -75.5 9t-57 24.5t-36 37t-12.5 47.5q0 109 95 109q76 0 131 -93q8 -13 15 -25.5t15 -24.5
q76 0 109 93.5t33 293.5v741q0 46 -36 89q-35 45 -190 56v64l398 20l12 -14v-924z" />
    <glyph glyph-name="uni0136" unicode="&#x136;" horiz-adv-x="1421" 
d="M1077 0q-215 339 -551 694h-24v-493q0 -53 30 -85q32 -32 158 -44v-72h-588v72q116 11 136 19q21 9 36 33t15 64v1024q0 120 -187 136v71h588v-71q-105 -9 -147 -32q-41 -23 -41 -93v-490h18q216 183 351 340q137 160 137 225q0 41 -148 50v71h533v-71q-21 0 -49 -4
t-57.5 -11t-55.5 -17.5t-43 -23.5q-21 -17 -142 -156q-91 -103 -171 -187.5t-152 -153.5q76 -87 162.5 -190t183.5 -225q137 -172 176 -212q27 -26 52.5 -43t52.5 -28t57.5 -16.5t67.5 -8.5v-72h-398zM686 -387q176 9 174 129h-55q-119 0 -119 94q0 20 8.5 37.5t24 31
t37 21.5t46.5 8q33 0 60.5 -12t47 -33.5t30 -52t10.5 -67.5q0 -51 -18.5 -90.5t-52.5 -67t-83 -41.5t-110 -14v57z" />
    <glyph glyph-name="uni0137" unicode="&#x137;" horiz-adv-x="1098" 
d="M819 0q-140 200 -227 322.5t-125 171.5l-82 -78v-234q0 -29 8 -49t26 -33.5t47 -21t71 -12.5v-66h-484v66l49 5q97 7 97 97v1147q0 47 -32 94q-32 48 -161 51v66l365 22l14 -14v-1045l292 291q56 59 56 84q0 42 -127 58v63h434v-61q-55 -16 -98.5 -35t-75.5 -41
q-65 -44 -200 -176q-15 -15 -31 -30.5t-33 -31.5q104 -124 264 -348q94 -133 131 -162q39 -30 119 -34v-66h-297zM500 -387q176 9 174 129h-55q-119 0 -119 94q0 20 8.5 37.5t24 31t37 21.5t46.5 8q33 0 60.5 -12t47 -33.5t30 -52t10.5 -67.5q0 -51 -18.5 -90.5t-52.5 -67
t-83 -41.5t-110 -14v57z" />
    <glyph glyph-name="kgreenlandic" unicode="&#x138;" horiz-adv-x="1114" 
d="M217 776q0 129 -156 135v66l328 20l14 -14v-494q349 339 349 375q0 42 -127 58v63h434v-61q-53 -15 -95 -33.5t-78.5 -42t-71.5 -53.5t-74 -69q-71 -71 -119 -116q52 -64 117.5 -150.5t144.5 -197.5q95 -133 132 -162q39 -30 120 -34v-66h-297q-298 428 -353 494l-82 -78
v-234q0 -59 36 -83t116 -33v-66h-483v66l48 5q97 7 97 97v608z" />
    <glyph glyph-name="Lacute" unicode="&#x139;" horiz-adv-x="1237" 
d="M414 1546q84 79 149 143t113 115q60 64 115 64q39 0 65.5 -22.5t26.5 -57.5q0 -48 -35 -77q-17 -14 -65.5 -39.5t-127.5 -62.5q-94 -43 -210 -102zM1206 0h-1108v72q126 11 157 32q34 22 34 89v1015q0 70 -55 101q-56 32 -136 39v71h598v-71q-127 -11 -160 -38
q-34 -27 -34 -91v-953q0 -128 36 -158t195 -30q108 0 169 12.5t85 31.5q13 10 34 39.5t51 78.5q59 97 93 182h72z" />
    <glyph glyph-name="lacute" unicode="&#x13a;" horiz-adv-x="586" 
d="M98 1546q79 75 144 140t118 120q58 64 115 64q20 0 37 -6.5t29 -17.5t19 -25.5t7 -30.5q0 -65 -59 -97q-29 -16 -92.5 -46.5t-162.5 -77.5q-27 -13 -58 -28.5t-66 -33.5zM53 0v66l50 5q98 6 98 97v1014q0 46 -32 93q-31 46 -167 56v66l371 22l14 -14v-1225
q0 -102 148 -114v-66h-482z" />
    <glyph glyph-name="uni013B" unicode="&#x13b;" horiz-adv-x="1237" 
d="M1206 0h-1108v72q126 11 157 32q34 22 34 89v1015q0 70 -55 101q-56 32 -136 39v71h598v-71q-127 -11 -160 -38q-34 -27 -34 -91v-953q0 -128 36 -158t195 -30q108 0 169 12.5t85 31.5q13 10 34 39.5t51 78.5q59 97 93 182h72zM584 -387q176 9 174 129h-55
q-119 0 -119 94q0 20 8.5 37.5t24 31t37 21.5t46.5 8q33 0 60.5 -12t47 -33.5t30 -52t10.5 -67.5q0 -51 -18.5 -90.5t-52.5 -67t-83 -41.5t-110 -14v57z" />
    <glyph glyph-name="uni013C" unicode="&#x13c;" horiz-adv-x="586" 
d="M53 0v66l50 5q98 6 98 97v1143q0 46 -32 93q-31 46 -167 56v66l371 22l14 -14v-1354q0 -102 148 -114v-66h-482zM189 -387q176 9 174 129h-55q-119 0 -119 94q0 20 8.5 37.5t24 31t37 21.5t46.5 8q33 0 60.5 -12t47 -33.5t30 -52t10.5 -67.5q0 -51 -18.5 -90.5t-52.5 -67
t-83 -41.5t-110 -14v57z" />
    <glyph glyph-name="Lcaron" unicode="&#x13d;" horiz-adv-x="1237" 
d="M844 955q193 100 199 245h-47q-133 0 -133 121q0 24 9.5 45t25.5 36.5t37.5 24.5t45.5 9q160 0 160 -205q0 -191 -262 -336zM1206 0h-1108v72q126 11 157 32q34 22 34 89v1015q0 70 -55 101q-56 32 -136 39v71h598v-71q-127 -11 -160 -38q-34 -27 -34 -91v-953
q0 -128 36 -158t195 -30q108 0 169 12.5t85 31.5q13 10 34 39.5t51 78.5q59 97 93 182h72z" />
    <glyph glyph-name="lcaron" unicode="&#x13e;" horiz-adv-x="770" 
d="M53 0v66l50 5q98 6 98 97v1143q0 46 -32 93q-31 46 -167 56v66l371 22l14 -14v-1354q0 -102 148 -114v-66h-482zM496 1063q193 100 199 245h-47q-133 0 -133 121q0 24 9.5 45t25.5 36.5t37.5 24.5t45.5 9q160 0 160 -205q0 -191 -262 -336z" />
    <glyph glyph-name="Ldot" unicode="&#x13f;" horiz-adv-x="1237" 
d="M1206 0h-1108v72q126 11 157 32q34 22 34 89v1015q0 70 -55 101q-56 32 -136 39v71h598v-71q-127 -11 -160 -38q-34 -27 -34 -91v-953q0 -128 36 -158t195 -30q108 0 169 12.5t85 31.5q13 10 34 39.5t51 78.5q59 97 93 182h72zM1014 590q-28 0 -53.5 10.5t-44 28.5
t-29.5 42.5t-11 53.5t11 53.5t29.5 43.5t44 29.5t53.5 10.5t53 -11t43.5 -29.5t29.5 -43.5t11 -53t-11 -52.5t-29.5 -43t-43.5 -29t-53 -10.5z" />
    <glyph glyph-name="ldot" unicode="&#x140;" horiz-adv-x="860" 
d="M53 0v66l50 5q98 6 98 97v1143q0 46 -32 93q-31 46 -167 56v66l371 22l14 -14v-1354q0 -102 148 -114v-66h-482zM723 537q-28 0 -53.5 10.5t-44 28.5t-29.5 42.5t-11 53.5t11 53.5t29.5 43.5t44 29.5t53.5 10.5t53 -11t43.5 -29.5t29.5 -43.5t11 -53t-11 -52.5t-29.5 -43
t-43.5 -29t-53 -10.5z" />
    <glyph glyph-name="Lslash" unicode="&#x141;" horiz-adv-x="1237" 
d="M502 266q0 -128 36 -158t195 -30q108 0 169 12.5t85 31.5q13 10 34 39.5t51 78.5q59 97 93 182h72l-31 -422h-1108v72q126 11 157 32q34 22 34 89v432l-164 -68l-35 86l199 82v483q0 70 -55 101q-56 32 -136 39v71h598v-71q-127 -11 -160 -38q-34 -27 -34 -91v-412
l270 113l35 -89l-305 -124v-441z" />
    <glyph glyph-name="lslash" unicode="&#x142;" horiz-adv-x="586" 
d="M387 686v-506q0 -102 148 -114v-66h-482v66l50 5q98 6 98 97v448l-138 -59l-34 82l172 72v600q0 46 -32 93q-31 46 -167 56v66l371 22l14 -14v-754l137 60l35 -82z" />
    <glyph glyph-name="Nacute" unicode="&#x143;" horiz-adv-x="1571" 
d="M625 1546q84 79 149 143t113 115q60 64 115 64q39 0 65.5 -22.5t26.5 -57.5q0 -48 -35 -77q-17 -14 -65.5 -39.5t-127.5 -62.5q-94 -43 -210 -102zM1554 1348q-146 -20 -189 -64q-42 -45 -42 -260v-1038h-86l-860 1161v-731q0 -25 1 -64t6.5 -80t16.5 -77t30 -56
q14 -13 39.5 -24.5t55 -20.5t58 -14.5t47.5 -7.5v-72h-584v72q119 17 176 54q58 37 58 277v701q0 207 -256 244v71h403l799 -1081v674q0 229 -57 272q-55 44 -193 64v71h577v-71z" />
    <glyph glyph-name="nacute" unicode="&#x144;" horiz-adv-x="1210" 
d="M428 1143q57 83 107 159t95 148q52 88 127 88q34 0 58 -23.5t24 -54.5q0 -57 -43 -91q-22 -17 -76.5 -60.5t-144.5 -113.5q-23 -18 -50 -39t-58 -46zM678 0v66l51 5q100 6 100 97v508q0 39 -9.5 78.5t-30.5 70.5t-53 50.5t-77 19.5q-170 0 -256 -150v-567
q0 -100 152 -112v-66h-483v66l48 5q97 7 97 97v608q0 129 -156 135v66l328 20l14 -14v-137h5q39 40 74 71t73.5 52.5t82.5 33t101 11.5q279 0 279 -326v-512q0 -99 143 -110v-66h-483z" />
    <glyph glyph-name="uni0145" unicode="&#x145;" horiz-adv-x="1571" 
d="M1554 1348q-146 -20 -189 -64q-42 -45 -42 -260v-1038h-86l-860 1161v-731q0 -25 1 -64t6.5 -80t16.5 -77t30 -56q14 -13 39.5 -24.5t55 -20.5t58 -14.5t47.5 -7.5v-72h-584v72q119 17 176 54q58 37 58 277v701q0 207 -256 244v71h403l799 -1081v674q0 229 -57 272
q-55 44 -193 64v71h577v-71zM668 -387q176 9 174 129h-55q-119 0 -119 94q0 20 8.5 37.5t24 31t37 21.5t46.5 8q33 0 60.5 -12t47 -33.5t30 -52t10.5 -67.5q0 -51 -18.5 -90.5t-52.5 -67t-83 -41.5t-110 -14v57z" />
    <glyph glyph-name="uni0146" unicode="&#x146;" horiz-adv-x="1210" 
d="M678 0v66l51 5q100 6 100 97v508q0 39 -9.5 78.5t-30.5 70.5t-53 50.5t-77 19.5q-170 0 -256 -150v-567q0 -100 152 -112v-66h-483v66l48 5q97 7 97 97v608q0 129 -156 135v66l328 20l14 -14v-137h5q39 40 74 71t73.5 52.5t82.5 33t101 11.5q279 0 279 -326v-512
q0 -99 143 -110v-66h-483zM510 -387q176 9 174 129h-55q-119 0 -119 94q0 20 8.5 37.5t24 31t37 21.5t46.5 8q33 0 60.5 -12t47 -33.5t30 -52t10.5 -67.5q0 -51 -18.5 -90.5t-52.5 -67t-83 -41.5t-110 -14v57z" />
    <glyph glyph-name="Ncaron" unicode="&#x147;" horiz-adv-x="1571" 
d="M1106 1835l-236 -283q-29 -35 -40 -40q-12 -5 -52 -5q-54 0 -86 41l-238 287l50 33l278 -213l274 213zM1554 1348q-146 -20 -189 -64q-42 -45 -42 -260v-1038h-86l-860 1161v-731q0 -25 1 -64t6.5 -80t16.5 -77t30 -56q14 -13 39.5 -24.5t55 -20.5t58 -14.5t47.5 -7.5
v-72h-584v72q119 17 176 54q58 37 58 277v701q0 207 -256 244v71h403l799 -1081v674q0 229 -57 272q-55 44 -193 64v71h577v-71z" />
    <glyph glyph-name="ncaron" unicode="&#x148;" horiz-adv-x="1210" 
d="M694 1159q-29 -41 -84 -41q-18 0 -30.5 1.5t-22.5 6t-18.5 13.5t-18.5 24l-238 346l50 33l274 -272l278 272l50 -33zM678 0v66l51 5q100 6 100 97v508q0 39 -9.5 78.5t-30.5 70.5t-53 50.5t-77 19.5q-170 0 -256 -150v-567q0 -100 152 -112v-66h-483v66l48 5q97 7 97 97
v608q0 129 -156 135v66l328 20l14 -14v-137h5q39 40 74 71t73.5 52.5t82.5 33t101 11.5q279 0 279 -326v-512q0 -99 143 -110v-66h-483z" />
    <glyph glyph-name="napostrophe" unicode="&#x149;" horiz-adv-x="1321" 
d="M-21 1049q193 100 199 245h-47q-133 0 -133 121q0 24 9.5 45t25.5 36.5t37.5 24.5t45.5 9q160 0 160 -205q0 -191 -262 -336zM789 0v66l51 5q100 6 100 97v508q0 39 -9.5 78.5t-30.5 70.5t-53 50.5t-77 19.5q-170 0 -256 -150v-567q0 -100 152 -112v-66h-483v66l48 5
q97 7 97 97v608q0 129 -156 135v66l328 20l14 -14v-137h5q39 40 74 71t73.5 52.5t82.5 33t101 11.5q279 0 279 -326v-512q0 -99 143 -110v-66h-483z" />
    <glyph glyph-name="Eng" unicode="&#x14a;" horiz-adv-x="1571" 
d="M377 416q0 -25 1 -64t6.5 -80t16.5 -77t30 -56q14 -13 39.5 -24.5t55 -20.5t58 -14.5t47.5 -7.5v-72h-584v72q119 17 176 54q58 37 58 277v701q0 207 -256 244v71h403l799 -1081v674q0 229 -57 272q-55 44 -193 64v71h577v-71q-146 -20 -189 -64q-42 -45 -42 -260v-969
q0 -120 -27 -213t-79 -156.5t-127.5 -96.5t-171.5 -33q-30 0 -65.5 6.5t-65.5 22.5t-50 41t-20 63q0 24 7.5 45.5t22 37.5t35 25.5t45.5 9.5q71 0 131 -95q17 -27 39 -54q67 2 111 35.5t70 84t36.5 111t10.5 115.5l-848 1143v-731z" />
    <glyph glyph-name="eng" unicode="&#x14b;" horiz-adv-x="1186" 
d="M403 178q0 -100 152 -112v-66h-483v66l48 5q97 7 97 97v608q0 129 -156 135v66l328 20l14 -14v-137h5q38 39 74 70.5t74.5 53t83.5 33t101 11.5q136 0 206.5 -85t70.5 -241q2 -145 3 -222.5t1 -90.5q0 -174 -3.5 -281.5t-10.5 -150.5q-12 -77 -44.5 -147.5t-83.5 -123.5
t-118.5 -84.5t-149.5 -31.5q-85 0 -132.5 33.5t-47.5 84.5q0 21 6.5 41t18.5 35t29.5 24t39.5 9q40 0 72 -22t90 -121q89 0 117 127q29 128 29 600q0 140 -1.5 228t-5.5 126q-3 35 -16 66.5t-35 55.5t-52 38t-67 14q-170 0 -254 -150v-567z" />
    <glyph glyph-name="Omacron" unicode="&#x14c;" horiz-adv-x="1524" 
d="M422 1657v129h684v-129h-684zM762 -35q-293 0 -488 210q-194 212 -194 534q0 325 197 534q198 209 485 209q292 0 487 -208t195 -535t-198 -536q-196 -208 -484 -208zM762 1364q-209 0 -325 -177q-115 -175 -115 -478q0 -71 8.5 -147t28 -148.5t52 -138t81.5 -114.5
t116 -77.5t154 -28.5q88 0 154.5 28.5t115.5 77.5t81.5 114t52.5 137.5t28 149t8 147.5q0 303 -116 479t-324 176z" />
    <glyph glyph-name="omacron" unicode="&#x14d;" horiz-adv-x="1104" 
d="M211 1290v129h684v-129h-684zM543 -31q-198 0 -336 146q-137 146 -137 374q0 110 33 206t95.5 167t153 111.5t205.5 40.5q111 0 199 -39.5t149.5 -108.5t94 -162t32.5 -200q0 -111 -32.5 -208.5t-95 -170t-153.5 -114.5t-208 -42zM555 938q-56 0 -99 -19.5t-74 -52.5
t-51.5 -76.5t-32.5 -91.5t-17 -97.5t-5 -94.5q0 -44 4.5 -95.5t16.5 -103t32 -99t51 -83.5t74 -58t101 -22q56 0 97.5 22t71.5 58.5t49.5 84t31 98t16 101t4.5 93.5q0 44 -4.5 93t-16 97.5t-30.5 93t-49 78.5t-72 54t-98 20z" />
    <glyph glyph-name="Obreve" unicode="&#x14e;" horiz-adv-x="1524" 
d="M1079 1851q-51 -321 -317 -321q-267 0 -317 321l55 17q59 -191 262 -191t262 191zM762 -35q-293 0 -488 210q-194 212 -194 534q0 325 197 534q198 209 485 209q292 0 487 -208t195 -535t-198 -536q-196 -208 -484 -208zM762 1364q-209 0 -325 -177q-115 -175 -115 -478
q0 -71 8.5 -147t28 -148.5t52 -138t81.5 -114.5t116 -77.5t154 -28.5q88 0 154.5 28.5t115.5 77.5t81.5 114t52.5 137.5t28 149t8 147.5q0 303 -116 479t-324 176z" />
    <glyph glyph-name="obreve" unicode="&#x14f;" horiz-adv-x="1104" 
d="M866 1495q-52 -369 -313 -369q-263 0 -313 369l55 12q17 -52 37 -94.5t49.5 -72.5t71 -46t100.5 -16t100.5 16t71 46t50 72.5t36.5 94.5zM543 -31q-198 0 -336 146q-137 146 -137 374q0 110 33 206t95.5 167t153 111.5t205.5 40.5q111 0 199 -39.5t149.5 -108.5t94 -162
t32.5 -200q0 -111 -32.5 -208.5t-95 -170t-153.5 -114.5t-208 -42zM555 938q-56 0 -99 -19.5t-74 -52.5t-51.5 -76.5t-32.5 -91.5t-17 -97.5t-5 -94.5q0 -44 4.5 -95.5t16.5 -103t32 -99t51 -83.5t74 -58t101 -22q56 0 97.5 22t71.5 58.5t49.5 84t31 98t16 101t4.5 93.5
q0 44 -4.5 93t-16 97.5t-30.5 93t-49 78.5t-72 54t-98 20z" />
    <glyph glyph-name="Ohungarumlaut" unicode="&#x150;" horiz-adv-x="1524" 
d="M506 1542q61 69 114 131t99 119q61 76 110 76q21 0 37 -7.5t27.5 -19.5t17.5 -27t6 -30q0 -64 -82 -107q-124 -66 -198.5 -108t-102.5 -62zM889 1542l219 250q61 76 110 76q21 0 37 -7.5t27.5 -19.5t17.5 -27t6 -30q0 -64 -82 -107l-139 -72q-32 -17 -74 -41.5t-94 -56.5
zM762 -35q-293 0 -488 210q-194 212 -194 534q0 325 197 534q198 209 485 209q292 0 487 -208t195 -535t-198 -536q-196 -208 -484 -208zM762 1364q-209 0 -325 -177q-115 -175 -115 -478q0 -71 8.5 -147t28 -148.5t52 -138t81.5 -114.5t116 -77.5t154 -28.5
q88 0 154.5 28.5t115.5 77.5t81.5 114t52.5 137.5t28 149t8 147.5q0 303 -116 479t-324 176z" />
    <glyph glyph-name="ohungarumlaut" unicode="&#x151;" horiz-adv-x="1104" 
d="M686 1110l-35 29q144 232 182 307q56 92 113 92q34 0 58 -23.5t24 -54.5q0 -39 -18 -65q-9 -13 -37 -39t-76 -67zM295 1139q54 90 96 166t73 141q47 92 111 92q17 0 31.5 -7t26 -18t18 -25.5t6.5 -29.5q0 -46 -26 -78q-25 -30 -300 -270zM543 -31q-198 0 -336 146
q-137 146 -137 374q0 110 33 206t95.5 167t153 111.5t205.5 40.5q111 0 199 -39.5t149.5 -108.5t94 -162t32.5 -200q0 -111 -32.5 -208.5t-95 -170t-153.5 -114.5t-208 -42zM555 938q-56 0 -99 -19.5t-74 -52.5t-51.5 -76.5t-32.5 -91.5t-17 -97.5t-5 -94.5q0 -44 4.5 -95.5
t16.5 -103t32 -99t51 -83.5t74 -58t101 -22q56 0 97.5 22t71.5 58.5t49.5 84t31 98t16 101t4.5 93.5q0 44 -4.5 93t-16 97.5t-30.5 93t-49 78.5t-72 54t-98 20z" />
    <glyph glyph-name="OE" unicode="&#x152;" horiz-adv-x="2044" 
d="M1968 0h-1153q-301 0 -518 187t-217 532q0 325 221 513q221 187 549 187h1038v-342h-73q-21 80 -79 153t-101 91q-42 18 -205 18h-213v-563h149q122 0 168 55q47 56 65 177h74v-555h-74q-2 25 -9.5 58.5t-20.5 65.5t-31.5 58.5t-44.5 37.5q-43 21 -127 21h-149v-426
q0 -120 37 -153q38 -33 204 -33h86q133 0 182 23q29 14 60 53t58 87t48.5 95.5t30.5 77.5h74zM1004 1331q-35 2 -74 3t-82 1q-247 0 -387 -159q-139 -158 -139 -459q0 -281 149 -459q150 -176 393 -176l140 4v1245z" />
    <glyph glyph-name="oe" unicode="&#x153;" horiz-adv-x="1671" 
d="M1630 233q-26 -57 -65 -105t-88.5 -82.5t-107.5 -53.5t-122 -19q-237 0 -360 197q-133 -201 -357 -201q-193 0 -326 145q-134 146 -134 375q0 109 31.5 204.5t92.5 167t150.5 112.5t204.5 41q211 0 346 -193q124 193 330 193q96 0 167.5 -31t119 -86.5t71 -132
t23.5 -168.5v-72h-625q6 -440 313 -440q53 0 92.5 13.5t71 38.5t56.5 60.5t47 79.5zM1409 608q0 330 -197 330q-100 0 -166 -95q-65 -95 -65 -235h428zM539 938q-55 0 -95.5 -20.5t-70 -54t-48.5 -78t-29.5 -92.5t-15 -96.5t-4.5 -90.5t4 -92.5t14.5 -102t29 -99.5t47.5 -85
t70.5 -59.5t97.5 -22.5q249 0 249 444q0 449 -249 449z" />
    <glyph glyph-name="Racute" unicode="&#x154;" horiz-adv-x="1438" 
d="M524 1546q84 79 149 143t113 115q60 64 115 64q39 0 65.5 -22.5t26.5 -57.5q0 -48 -35 -77q-17 -14 -65.5 -39.5t-127.5 -62.5q-94 -43 -210 -102zM1098 0q-110 174 -222.5 333.5t-230.5 309.5h-143v-450q0 -71 33 -91q35 -20 163 -30v-72h-600v72q126 11 157 32
q34 22 34 89v1026q0 65 -36 92q-35 26 -155 37v71h656q81 0 161 -17.5t143.5 -57t102.5 -104t39 -159.5q0 -283 -346 -383q35 -45 105 -138.5t176 -237.5q110 -150 138 -173q30 -22 51.5 -36t43 -22.5t48 -12.5t65.5 -6v-72h-383zM502 1337v-608h131q73 0 132.5 24.5
t101.5 68.5t64.5 104.5t22.5 132.5q0 133 -75 205.5t-207 72.5h-170z" />
    <glyph glyph-name="racute" unicode="&#x155;" horiz-adv-x="840" 
d="M285 1143q57 83 107 159t95 148q52 88 127 88q34 0 58 -23.5t24 -54.5q0 -57 -43 -91q-22 -17 -76.5 -60.5t-144.5 -113.5q-23 -18 -50 -39t-58 -46zM621 897q-133 -8 -218 -145v-574q0 -54 34 -79t155 -33v-66h-520v66l48 5q97 7 97 97v608q0 131 -156 135v66l328 20
l14 -14v-137h5q129 164 276 164q63 0 103 -40t40 -112q0 -57 -27 -93t-75 -36q-52 0 -83.5 26.5t-31.5 65.5q0 15 3 34t8 42z" />
    <glyph glyph-name="uni0156" unicode="&#x156;" horiz-adv-x="1438" 
d="M1098 0q-110 174 -222.5 333.5t-230.5 309.5h-143v-450q0 -71 33 -91q35 -20 163 -30v-72h-600v72q126 11 157 32q34 22 34 89v1026q0 65 -36 92q-35 26 -155 37v71h656q81 0 161 -17.5t143.5 -57t102.5 -104t39 -159.5q0 -283 -346 -383q35 -45 105 -138.5t176 -237.5
q110 -150 138 -173q30 -22 51.5 -36t43 -22.5t48 -12.5t65.5 -6v-72h-383zM502 1337v-608h131q73 0 132.5 24.5t101.5 68.5t64.5 104.5t22.5 132.5q0 133 -75 205.5t-207 72.5h-170zM672 -387q176 9 174 129h-55q-119 0 -119 94q0 20 8.5 37.5t24 31t37 21.5t46.5 8
q33 0 60.5 -12t47 -33.5t30 -52t10.5 -67.5q0 -51 -18.5 -90.5t-52.5 -67t-83 -41.5t-110 -14v57z" />
    <glyph glyph-name="uni0157" unicode="&#x157;" horiz-adv-x="840" 
d="M621 897q-133 -8 -218 -145v-574q0 -54 34 -79t155 -33v-66h-520v66l48 5q97 7 97 97v608q0 131 -156 135v66l328 20l14 -14v-137h5q129 164 276 164q63 0 103 -40t40 -112q0 -57 -27 -93t-75 -36q-52 0 -83.5 26.5t-31.5 65.5q0 15 3 34t8 42zM264 -387q176 9 174 129
h-55q-119 0 -119 94q0 20 8.5 37.5t24 31t37 21.5t46.5 8q33 0 60.5 -12t47 -33.5t30 -52t10.5 -67.5q0 -51 -18.5 -90.5t-52.5 -67t-83 -41.5t-110 -14v57z" />
    <glyph glyph-name="Rcaron" unicode="&#x158;" horiz-adv-x="1438" 
d="M985 1835l-236 -283q-29 -35 -40 -40q-12 -5 -52 -5q-54 0 -86 41l-238 287l50 33l278 -213l274 213zM1098 0q-110 174 -222.5 333.5t-230.5 309.5h-143v-450q0 -71 33 -91q35 -20 163 -30v-72h-600v72q126 11 157 32q34 22 34 89v1026q0 65 -36 92q-35 26 -155 37v71
h656q81 0 161 -17.5t143.5 -57t102.5 -104t39 -159.5q0 -283 -346 -383q35 -45 105 -138.5t176 -237.5q110 -150 138 -173q30 -22 51.5 -36t43 -22.5t48 -12.5t65.5 -6v-72h-383zM502 1337v-608h131q73 0 132.5 24.5t101.5 68.5t64.5 104.5t22.5 132.5q0 133 -75 205.5
t-207 72.5h-170z" />
    <glyph glyph-name="rcaron" unicode="&#x159;" horiz-adv-x="840" 
d="M512 1159q-29 -41 -84 -41q-18 0 -30.5 1.5t-22.5 6t-18.5 13.5t-18.5 24l-238 346l50 33l274 -272l278 272l50 -33zM621 897q-133 -8 -218 -145v-574q0 -54 34 -79t155 -33v-66h-520v66l48 5q97 7 97 97v608q0 131 -156 135v66l328 20l14 -14v-137h5q129 164 276 164
q63 0 103 -40t40 -112q0 -57 -27 -93t-75 -36q-52 0 -83.5 26.5t-31.5 65.5q0 15 3 34t8 42z" />
    <glyph glyph-name="Sacute" unicode="&#x15a;" horiz-adv-x="1149" 
d="M381 1546q84 79 149 143t113 115q60 64 115 64q39 0 65.5 -22.5t26.5 -57.5q0 -48 -35 -77q-17 -14 -65.5 -39.5t-127.5 -62.5q-94 -43 -210 -102zM188 0h-79l-15 485h80q122 -428 430 -428q268 0 268 250q0 34 -8.5 67t-24 63.5t-38 56.5t-51.5 45q-48 32 -148 70
q-195 72 -281 119q-84 48 -136 133t-52 204q0 161 126 273q127 112 304 112q155 0 318 -98l41 67h79l9 -471h-82q-13 51 -29.5 101t-38 96.5t-49.5 86.5t-65.5 69t-85.5 46t-109 17q-45 0 -86.5 -15t-73 -43t-50.5 -67t-19 -86q0 -104 56 -172q58 -69 254 -139
q252 -91 345 -187q92 -95 92 -252q0 -102 -39.5 -182t-106 -135.5t-154 -85t-183.5 -29.5q-185 0 -355 101z" />
    <glyph glyph-name="sacute" unicode="&#x15b;" horiz-adv-x="885" 
d="M285 1143q57 83 107 159t95 148q52 88 127 88q34 0 58 -23.5t24 -54.5q0 -57 -43 -91q-22 -17 -76.5 -60.5t-144.5 -113.5q-23 -18 -50 -39t-58 -46zM158 -2h-74l-10 342h67q14 -54 42 -106t68.5 -92.5t92 -65.5t111.5 -25q200 0 200 168q0 69 -50 114q-49 44 -204 91
q-303 89 -303 301q0 70 27.5 124t74 90.5t106.5 55.5t124 19q123 0 217 -51l23 53h71l17 -318h-70q-55 240 -260 240q-32 0 -63.5 -8.5t-56.5 -26t-40.5 -44t-15.5 -62.5q0 -77 46 -114q23 -19 74 -41t130 -48q59 -19 114.5 -43t98.5 -59.5t68.5 -85.5t25.5 -121
q0 -77 -31 -135.5t-83 -97.5t-118 -59t-137 -20q-147 0 -262 88z" />
    <glyph glyph-name="Scircumflex" unicode="&#x15c;" horiz-adv-x="1149" 
d="M868 1507l-278 211l-274 -211l-50 31l236 285q11 14 20 22.5t19 13.5t22.5 7t30.5 2q54 0 86 -41l238 -289zM188 0h-79l-15 485h80q122 -428 430 -428q268 0 268 250q0 34 -8.5 67t-24 63.5t-38 56.5t-51.5 45q-48 32 -148 70q-195 72 -281 119q-84 48 -136 133t-52 204
q0 161 126 273q127 112 304 112q155 0 318 -98l41 67h79l9 -471h-82q-13 51 -29.5 101t-38 96.5t-49.5 86.5t-65.5 69t-85.5 46t-109 17q-45 0 -86.5 -15t-73 -43t-50.5 -67t-19 -86q0 -104 56 -172q58 -69 254 -139q252 -91 345 -187q92 -95 92 -252q0 -102 -39.5 -182
t-106 -135.5t-154 -85t-183.5 -29.5q-185 0 -355 101z" />
    <glyph glyph-name="scircumflex" unicode="&#x15d;" horiz-adv-x="885" 
d="M733 1118l-278 273l-274 -273l-50 33l238 346q11 15 19 23.5t18 13.5t22.5 6.5t30.5 1.5q55 0 84 -41l240 -350zM158 -2h-74l-10 342h67q14 -54 42 -106t68.5 -92.5t92 -65.5t111.5 -25q200 0 200 168q0 69 -50 114q-49 44 -204 91q-303 89 -303 301q0 70 27.5 124
t74 90.5t106.5 55.5t124 19q123 0 217 -51l23 53h71l17 -318h-70q-55 240 -260 240q-32 0 -63.5 -8.5t-56.5 -26t-40.5 -44t-15.5 -62.5q0 -77 46 -114q23 -19 74 -41t130 -48q59 -19 114.5 -43t98.5 -59.5t68.5 -85.5t25.5 -121q0 -77 -31 -135.5t-83 -97.5t-118 -59
t-137 -20q-147 0 -262 88z" />
    <glyph glyph-name="Scedilla" unicode="&#x15e;" horiz-adv-x="1149" 
d="M188 0h-79l-15 485h80q122 -428 430 -428q268 0 268 250q0 34 -8.5 67t-24 63.5t-38 56.5t-51.5 45q-48 32 -148 70q-195 72 -281 119q-84 48 -136 133t-52 204q0 161 126 273q127 112 304 112q155 0 318 -98l41 67h79l9 -471h-82q-13 51 -29.5 101t-38 96.5t-49.5 86.5
t-65.5 69t-85.5 46t-109 17q-45 0 -86.5 -15t-73 -43t-50.5 -67t-19 -86q0 -104 56 -172q58 -69 254 -139q252 -91 345 -187q92 -95 92 -252q0 -101 -39.5 -181.5t-105.5 -136t-153 -85t-183 -29.5v-69q232 0 232 -150q0 -196 -400 -196v71q172 0 212 24q42 22 42 66
q0 76 -164 76v182q-145 18 -279 97z" />
    <glyph glyph-name="scedilla" unicode="&#x15f;" horiz-adv-x="885" 
d="M158 -2h-74l-10 342h67q14 -54 42 -106t68.5 -92.5t92 -65.5t111.5 -25q200 0 200 168q0 69 -50 114q-49 44 -204 91q-303 89 -303 301q0 70 27.5 124t74 90.5t106.5 55.5t124 19q123 0 217 -51l23 53h71l17 -318h-70q-55 240 -260 240q-32 0 -63.5 -8.5t-56.5 -26
t-40.5 -44t-15.5 -62.5q0 -77 46 -114q23 -19 74 -41t130 -48q59 -19 114.5 -43t98.5 -59.5t68.5 -85.5t25.5 -121q0 -77 -31 -135.5t-83 -97.5t-118 -59t-137 -20v-71q232 0 232 -150q0 -196 -400 -196v71q172 0 212 24q42 22 42 66q0 76 -164 76v187q-100 16 -184 81z" />
    <glyph glyph-name="Scaron" unicode="&#x160;" horiz-adv-x="1149" 
d="M910 1835l-236 -283q-29 -35 -40 -40q-12 -5 -52 -5q-54 0 -86 41l-238 287l50 33l278 -213l274 213zM188 0h-79l-15 485h80q122 -428 430 -428q268 0 268 250q0 34 -8.5 67t-24 63.5t-38 56.5t-51.5 45q-48 32 -148 70q-195 72 -281 119q-84 48 -136 133t-52 204
q0 161 126 273q127 112 304 112q155 0 318 -98l41 67h79l9 -471h-82q-13 51 -29.5 101t-38 96.5t-49.5 86.5t-65.5 69t-85.5 46t-109 17q-45 0 -86.5 -15t-73 -43t-50.5 -67t-19 -86q0 -104 56 -172q58 -69 254 -139q252 -91 345 -187q92 -95 92 -252q0 -102 -39.5 -182
t-106 -135.5t-154 -85t-183.5 -29.5q-185 0 -355 101z" />
    <glyph glyph-name="scaron" unicode="&#x161;" horiz-adv-x="885" 
d="M539 1159q-29 -41 -84 -41q-18 0 -30.5 1.5t-22.5 6t-18.5 13.5t-18.5 24l-238 346l50 33l274 -272l278 272l50 -33zM158 -2h-74l-10 342h67q14 -54 42 -106t68.5 -92.5t92 -65.5t111.5 -25q200 0 200 168q0 69 -50 114q-49 44 -204 91q-303 89 -303 301q0 70 27.5 124
t74 90.5t106.5 55.5t124 19q123 0 217 -51l23 53h71l17 -318h-70q-55 240 -260 240q-32 0 -63.5 -8.5t-56.5 -26t-40.5 -44t-15.5 -62.5q0 -77 46 -114q23 -19 74 -41t130 -48q59 -19 114.5 -43t98.5 -59.5t68.5 -85.5t25.5 -121q0 -77 -31 -135.5t-83 -97.5t-118 -59
t-137 -20q-147 0 -262 88z" />
    <glyph glyph-name="uni0162" unicode="&#x162;" horiz-adv-x="1268" 
d="M1182 1034q-8 29 -27 72t-44 85t-54 77.5t-57 49.5q-43 23 -201 23h-60v-1134q0 -56 36 -88q37 -32 194 -47v-72h-369v-98q232 0 232 -150q0 -196 -400 -196v71q172 0 212 24q42 22 42 66q0 76 -164 76v207h-223v72q146 10 187 33q40 22 40 92v1144h-57q-144 0 -188 -15
q-42 -13 -105 -105q-62 -90 -90 -187h-72v385h1237v-385h-69z" />
    <glyph glyph-name="uni0163" unicode="&#x163;" horiz-adv-x="707" 
d="M682 43q-144 -63 -266 -63q-10 0 -19 0.5t-18 1.5v-80q232 0 232 -150q0 -196 -400 -196v71q172 0 212 24q42 22 42 66q0 76 -164 76v208q-111 50 -111 216v670h-178v94h183v307h182v-307h282v-94h-280v-551q0 -138 31 -187t129 -49q83 0 143 17v-74z" />
    <glyph glyph-name="Tcaron" unicode="&#x164;" horiz-adv-x="1268" 
d="M961 1835l-236 -283q-29 -35 -40 -40q-12 -5 -52 -5q-54 0 -86 41l-238 287l50 33l278 -213l274 213zM1182 1034q-8 29 -27 72t-44 85t-54 77.5t-57 49.5q-43 23 -201 23h-60v-1134q0 -56 36 -88q37 -32 194 -47v-72h-670v72q146 10 187 33q40 22 40 92v1144h-57
q-144 0 -188 -15q-42 -13 -105 -105q-62 -90 -90 -187h-72v385h1237v-385h-69z" />
    <glyph glyph-name="tcaron" unicode="&#x165;" horiz-adv-x="707" 
d="M498 1130q189 92 196 207h-45q-133 0 -133 111q0 24 10 44t27 35t38.5 23.5t43.5 8.5q160 0 160 -191q0 -180 -263 -297zM682 43q-144 -63 -266 -63q-226 0 -226 237v670h-178v94h183v307h182v-307h282v-94h-280v-551q0 -138 31 -187t129 -49q83 0 143 17v-74z" />
    <glyph glyph-name="Tbar" unicode="&#x166;" horiz-adv-x="1268" 
d="M1051 784v-92h-312v-485q0 -56 36 -88q37 -32 194 -47v-72h-670v72q146 10 187 33q40 22 40 92v495h-311v92h311v557h-57q-144 0 -188 -15q-42 -13 -105 -105q-62 -90 -90 -187h-72v385h1237v-385h-69q-8 29 -27 72t-44 85t-54 77.5t-57 49.5q-43 23 -201 23h-60v-557
h312z" />
    <glyph glyph-name="tbar" unicode="&#x167;" horiz-adv-x="707" 
d="M379 336q0 -138 31 -187t129 -49q83 0 143 17v-74q-144 -63 -266 -63q-226 0 -226 237v266h-170v84h170v320h-178v94h183v307h182v-307h282v-94h-280v-320h233v-84h-233v-147z" />
    <glyph glyph-name="Utilde" unicode="&#x168;" horiz-adv-x="1548" 
d="M1168 1744q-31 -86 -98 -145q-65 -57 -138 -53t-149 52q-80 50 -115 51q-34 2 -55 -11q-24 -14 -77 -100l-50 25q93 206 231 199q71 -5 146 -53q76 -48 110 -50q82 -4 117 61q5 11 11.5 23t14.5 26zM1534 1348q-150 -12 -191 -68q-40 -55 -40 -248v-616q0 -210 -154 -331
q-153 -120 -358 -120q-242 0 -387 118q-144 119 -144 292v837q0 117 -186 136v71h592v-71q-122 -11 -156 -35q-35 -26 -35 -90v-785q0 -360 352 -360q184 0 280 103q97 103 97 255v584q0 212 -53 262t-199 66v71h582v-71z" />
    <glyph glyph-name="utilde" unicode="&#x169;" horiz-adv-x="1178" 
d="M934 1369q-31 -86 -98 -145q-65 -57 -138 -53t-149 52q-80 50 -115 51q-34 2 -55 -11q-24 -14 -77 -100l-50 25q93 206 231 199q71 -5 146 -53q76 -48 110 -50q82 -4 117 61q5 11 11.5 23t14.5 26zM809 -4l-16 14v125h-7q-142 -160 -327 -160q-269 0 -269 334v471
q0 123 -155 129v66l330 22l14 -14v-684q0 -50 12 -90t34 -67.5t52 -42.5t66 -15q157 0 248 145v559q0 17 -6 35.5t-16.5 35t-25 28t-32.5 14.5q-14 2 -40.5 4t-66.5 4v66l359 22l16 -14v-782q0 -119 149 -117v-66z" />
    <glyph glyph-name="Umacron" unicode="&#x16a;" horiz-adv-x="1548" 
d="M469 1657v129h684v-129h-684zM1534 1348q-150 -12 -191 -68q-40 -55 -40 -248v-616q0 -210 -154 -331q-153 -120 -358 -120q-242 0 -387 118q-144 119 -144 292v837q0 117 -186 136v71h592v-71q-122 -11 -156 -35q-35 -26 -35 -90v-785q0 -360 352 -360q184 0 280 103
q97 103 97 255v584q0 212 -53 262t-199 66v71h582v-71z" />
    <glyph glyph-name="umacron" unicode="&#x16b;" horiz-adv-x="1178" 
d="M227 1290v129h684v-129h-684zM809 -4l-16 14v125h-7q-142 -160 -327 -160q-269 0 -269 334v471q0 123 -155 129v66l330 22l14 -14v-684q0 -50 12 -90t34 -67.5t52 -42.5t66 -15q157 0 248 145v559q0 17 -6 35.5t-16.5 35t-25 28t-32.5 14.5q-14 2 -40.5 4t-66.5 4v66
l359 22l16 -14v-782q0 -119 149 -117v-66z" />
    <glyph glyph-name="Ubreve" unicode="&#x16c;" horiz-adv-x="1548" 
d="M1134 1851q-51 -321 -317 -321q-267 0 -317 321l55 17q59 -191 262 -191t262 191zM1534 1348q-150 -12 -191 -68q-40 -55 -40 -248v-616q0 -210 -154 -331q-153 -120 -358 -120q-242 0 -387 118q-144 119 -144 292v837q0 117 -186 136v71h592v-71q-122 -11 -156 -35
q-35 -26 -35 -90v-785q0 -360 352 -360q184 0 280 103q97 103 97 255v584q0 212 -53 262t-199 66v71h582v-71z" />
    <glyph glyph-name="ubreve" unicode="&#x16d;" horiz-adv-x="1178" 
d="M862 1495q-52 -369 -313 -369q-263 0 -313 369l55 12q17 -52 37 -94.5t49.5 -72.5t71 -46t100.5 -16t100.5 16t71 46t50 72.5t36.5 94.5zM809 -4l-16 14v125h-7q-142 -160 -327 -160q-269 0 -269 334v471q0 123 -155 129v66l330 22l14 -14v-684q0 -50 12 -90t34 -67.5
t52 -42.5t66 -15q157 0 248 145v559q0 17 -6 35.5t-16.5 35t-25 28t-32.5 14.5q-14 2 -40.5 4t-66.5 4v66l359 22l16 -14v-782q0 -119 149 -117v-66z" />
    <glyph glyph-name="Uring" unicode="&#x16e;" horiz-adv-x="1548" 
d="M809 1419q-52 0 -99 13.5t-82.5 41t-56 69.5t-20.5 99q0 53 22 94.5t58 70t82.5 43t95.5 14.5q51 0 97.5 -14t82.5 -41.5t57 -69t21 -97.5q0 -55 -21 -97t-57 -70t-82.5 -42t-97.5 -14zM809 1800q-131 0 -131 -158q0 -69 33 -114t98 -45q131 0 131 159q0 72 -35 115
t-96 43zM1534 1348q-150 -12 -191 -68q-40 -55 -40 -248v-616q0 -210 -154 -331q-153 -120 -358 -120q-242 0 -387 118q-144 119 -144 292v837q0 117 -186 136v71h592v-71q-122 -11 -156 -35q-35 -26 -35 -90v-785q0 -360 352 -360q184 0 280 103q97 103 97 255v584
q0 212 -53 262t-199 66v71h582v-71z" />
    <glyph glyph-name="uring" unicode="&#x16f;" horiz-adv-x="1178" 
d="M565 1114q-52 0 -99 13.5t-82.5 41t-56 69.5t-20.5 99q0 53 22 94.5t58 70t82.5 43t95.5 14.5q51 0 97.5 -14t82.5 -41.5t57 -69t21 -97.5q0 -55 -21 -97t-57 -70t-82.5 -42t-97.5 -14zM565 1495q-131 0 -131 -158q0 -69 33 -114t98 -45q131 0 131 159q0 72 -35 115
t-96 43zM809 -4l-16 14v125h-7q-142 -160 -327 -160q-269 0 -269 334v471q0 123 -155 129v66l330 22l14 -14v-684q0 -50 12 -90t34 -67.5t52 -42.5t66 -15q157 0 248 145v559q0 17 -6 35.5t-16.5 35t-25 28t-32.5 14.5q-14 2 -40.5 4t-66.5 4v66l359 22l16 -14v-782
q0 -119 149 -117v-66z" />
    <glyph glyph-name="Uhungarumlaut" unicode="&#x170;" horiz-adv-x="1548" 
d="M490 1542q61 69 114 131t99 119q61 76 110 76q21 0 37 -7.5t27.5 -19.5t17.5 -27t6 -30q0 -64 -82 -107q-124 -66 -198.5 -108t-102.5 -62zM873 1542l219 250q61 76 110 76q21 0 37 -7.5t27.5 -19.5t17.5 -27t6 -30q0 -64 -82 -107l-139 -72q-32 -17 -74 -41.5t-94 -56.5
zM1534 1348q-150 -12 -191 -68q-40 -55 -40 -248v-616q0 -210 -154 -331q-153 -120 -358 -120q-242 0 -387 118q-144 119 -144 292v837q0 117 -186 136v71h592v-71q-122 -11 -156 -35q-35 -26 -35 -90v-785q0 -360 352 -360q184 0 280 103q97 103 97 255v584q0 212 -53 262
t-199 66v71h582v-71z" />
    <glyph glyph-name="uhungarumlaut" unicode="&#x171;" horiz-adv-x="1178" 
d="M684 1110l-35 29q144 232 182 307q56 92 113 92q34 0 58 -23.5t24 -54.5q0 -39 -18 -65q-9 -13 -37 -39t-76 -67zM293 1139q54 90 96 166t73 141q47 92 111 92q17 0 31.5 -7t26 -18t18 -25.5t6.5 -29.5q0 -46 -26 -78q-25 -30 -300 -270zM809 -4l-16 14v125h-7
q-142 -160 -327 -160q-269 0 -269 334v471q0 123 -155 129v66l330 22l14 -14v-684q0 -50 12 -90t34 -67.5t52 -42.5t66 -15q157 0 248 145v559q0 17 -6 35.5t-16.5 35t-25 28t-32.5 14.5q-14 2 -40.5 4t-66.5 4v66l359 22l16 -14v-782q0 -119 149 -117v-66z" />
    <glyph glyph-name="Uogonek" unicode="&#x172;" horiz-adv-x="1548" 
d="M1534 1348q-150 -12 -191 -68q-40 -55 -40 -248v-616q0 -132 -58.5 -225t-170.5 -156q-132 -105 -132 -252q0 -87 56 -121.5t167 -34.5v-71h-115q-131 0 -199.5 51.5t-68.5 142.5q0 122 144 229q-67 -14 -135 -14q-242 0 -387 118q-144 119 -144 292v837q0 117 -186 136
v71h592v-71q-122 -11 -156 -35q-35 -26 -35 -90v-785q0 -360 352 -360q184 0 280 103q97 103 97 255v584q0 212 -53 262t-199 66v71h582v-71z" />
    <glyph glyph-name="uogonek" unicode="&#x173;" horiz-adv-x="1178" 
d="M809 -4l-16 14v125h-7q-142 -160 -327 -160q-269 0 -269 334v471q0 123 -155 129v66l330 22l14 -14v-684q0 -50 12 -90t34 -67.5t52 -42.5t66 -15q157 0 248 145v559q0 17 -6 35.5t-16.5 35t-25 28t-32.5 14.5q-14 2 -40.5 4t-66.5 4v66l359 22l16 -14v-782
q0 -119 149 -117v-66l-175 -12q-99 -96 -99 -223q0 -87 56 -121.5t167 -34.5v-71h-115q-131 0 -199.5 51.5t-68.5 142.5q0 134 174 250z" />
    <glyph glyph-name="Wcircumflex" unicode="&#x174;" horiz-adv-x="1999" 
d="M1335 1507l-278 211l-274 -211l-50 31l236 285q11 14 20 22.5t19 13.5t22.5 7t30.5 2q54 0 86 -41l238 -289zM2028 1348q-48 -4 -90.5 -23.5t-70.5 -49.5q-27 -29 -35 -49q-4 -10 -26 -80t-62 -201l-296 -963h-92l-359 1091l-372 -1091h-88l-352 1240q-34 111 -189 126
v71h579v-71q-184 -12 -184 -52q0 -22 20 -100q11 -37 71.5 -249.5t172.5 -600.5l355 1053h98l356 -1075q246 836 246 936q0 71 -197 88v71h515v-71z" />
    <glyph glyph-name="wcircumflex" unicode="&#x175;" horiz-adv-x="1509" 
d="M1091 1118l-278 273l-274 -273l-50 33l238 346q11 15 19 23.5t18 13.5t22.5 6.5t30.5 1.5q55 0 84 -41l240 -350zM1540 922q-69 -10 -108 -46.5t-57 -94.5q-9 -29 -40.5 -121.5t-85.5 -251.5q-54 -158 -87 -261t-46 -153h-86l-264 725l-268 -725h-82l-268 807
q-30 95 -152 119v65h438v-70q-108 -4 -108 -43q0 -16 188 -616l252 711h96l256 -701q180 540 180 586q0 18 -15.5 31t-37.5 21.5t-44 13t-36 4.5v63h375v-63z" />
    <glyph glyph-name="Ycircumflex" unicode="&#x176;" horiz-adv-x="1260" 
d="M954 1507l-278 211l-274 -211l-50 31l236 285q11 14 20 22.5t19 13.5t22.5 7t30.5 2q54 0 86 -41l238 -289zM1315 1348q-40 -4 -72.5 -18t-59.5 -35.5t-50 -49t-46 -59.5q-69 -96 -194 -311q-63 -108 -99 -173.5t-46 -88.5q-19 -45 -19 -134v-270q0 -57 38 -90
q40 -34 189 -47v-72h-663v72q149 11 185 32q38 23 38 95v344q0 34 -169 350q-85 159 -140.5 254t-83.5 127q-54 65 -166 74v71h604v-71q-186 -9 -186 -48q0 -28 311 -591q324 521 324 565q0 31 -36 47q-34 18 -153 27v71h494v-71z" />
    <glyph glyph-name="ycircumflex" unicode="&#x177;" horiz-adv-x="1008" 
d="M804 1118l-278 273l-274 -273l-50 33l238 346q11 15 19 23.5t18 13.5t22.5 6.5t30.5 1.5q55 0 84 -41l240 -350zM1038 924q-15 -2 -35.5 -11t-40 -22t-36 -27.5t-24.5 -28.5q-14 -23 -89 -202l-138 -330q-71 -171 -123 -290t-87 -188q-69 -139 -146 -204t-155 -65
q-28 0 -57.5 7t-53.5 21.5t-39.5 37.5t-15.5 56q0 48 25.5 80.5t68.5 32.5q86 0 156 -127q20 10 41.5 33.5t43.5 54.5t43 66.5t39 69.5t32 64.5t22 51.5l-336 820q-33 74 -151 96v65h448v-70q-113 -8 -113 -43q0 -1 5 -14l10 -31l237 -583l201 491q2 6 4.5 12.5t6.5 14.5
q24 54 24 84q0 51 -133 76v63h366v-61z" />
    <glyph glyph-name="Ydieresis" unicode="&#x178;" horiz-adv-x="1260" 
d="M895 1608q-26 0 -48 10t-37.5 26.5t-24.5 39t-9 47.5t9 47t25 38.5t38 26.5t47 10t46.5 -10t37 -26.5t24.5 -38.5t9 -47q0 -26 -9 -48.5t-25 -39t-37.5 -26t-45.5 -9.5zM445 1608q-24 0 -45.5 9.5t-37.5 26t-25 39t-9 48.5q0 25 9 47t24.5 38.5t37 26.5t46.5 10t47 -10
t38 -26.5t25 -38.5t9 -47t-9 -47.5t-24.5 -39t-37.5 -26.5t-48 -10zM1315 1348q-40 -4 -72.5 -18t-59.5 -35.5t-50 -49t-46 -59.5q-69 -96 -194 -311q-63 -108 -99 -173.5t-46 -88.5q-19 -45 -19 -134v-270q0 -57 38 -90q40 -34 189 -47v-72h-663v72q149 11 185 32
q38 23 38 95v344q0 34 -169 350q-85 159 -140.5 254t-83.5 127q-54 65 -166 74v71h604v-71q-186 -9 -186 -48q0 -28 311 -591q324 521 324 565q0 31 -36 47q-34 18 -153 27v71h494v-71z" />
    <glyph glyph-name="Zacute" unicode="&#x179;" horiz-adv-x="1233" 
d="M469 1546q84 79 149 143t113 115q60 64 115 64q39 0 65.5 -22.5t26.5 -57.5q0 -48 -35 -77q-17 -14 -65.5 -39.5t-127.5 -62.5q-94 -43 -210 -102zM1167 0h-1140v35l893 1304h-326q-157 0 -210 -25q-33 -16 -68 -51.5t-66.5 -78.5t-56.5 -87.5t-39 -78.5h-70l43 401h1063
v-35l-893 -1304h338q154 0 218 16q67 16 103 51q25 23 53 60t54 78.5t47.5 83t34.5 73.5h69z" />
    <glyph glyph-name="zacute" unicode="&#x17a;" horiz-adv-x="909" 
d="M320 1143q57 83 107 159t95 148q52 88 127 88q34 0 58 -23.5t24 -54.5q0 -57 -43 -91q-22 -17 -76.5 -60.5t-144.5 -113.5q-23 -18 -50 -39t-58 -46zM55 0v53l557 852h-137q-202 0 -249 -39q-45 -39 -72 -184h-62v303h756v-41l-567 -862l90 -2q291 -6 328 22
q39 29 94 246h61v-348h-799z" />
    <glyph glyph-name="Zdotaccent" unicode="&#x17b;" horiz-adv-x="1233" 
d="M635 1597q-27 0 -49.5 11t-39.5 29t-26.5 41.5t-9.5 49.5t9.5 50.5t26 43t39.5 30t50 11.5t51 -9.5t41.5 -26.5t28 -40.5t10.5 -50.5q0 -28 -10 -53t-27 -44t-41 -30.5t-53 -11.5zM1167 0h-1140v35l893 1304h-326q-157 0 -210 -25q-33 -16 -68 -51.5t-66.5 -78.5
t-56.5 -87.5t-39 -78.5h-70l43 401h1063v-35l-893 -1304h338q154 0 218 16q67 16 103 51q25 23 53 60t54 78.5t47.5 83t34.5 73.5h69z" />
    <glyph glyph-name="zdotaccent" unicode="&#x17c;" horiz-adv-x="909" 
d="M467 1247q-27 0 -49.5 11t-39.5 29t-26.5 41.5t-9.5 49.5t9.5 50.5t26 43t39.5 30t50 11.5t51 -9.5t41.5 -26.5t28 -40.5t10.5 -50.5q0 -28 -10 -53t-27 -44t-41 -30.5t-53 -11.5zM55 0v53l557 852h-137q-202 0 -249 -39q-45 -39 -72 -184h-62v303h756v-41l-567 -862
l90 -2q291 -6 328 22q39 29 94 246h61v-348h-799z" />
    <glyph glyph-name="Zcaron" unicode="&#x17d;" horiz-adv-x="1233" 
d="M955 1835l-236 -283q-29 -35 -40 -40q-12 -5 -52 -5q-54 0 -86 41l-238 287l50 33l278 -213l274 213zM1167 0h-1140v35l893 1304h-326q-157 0 -210 -25q-33 -16 -68 -51.5t-66.5 -78.5t-56.5 -87.5t-39 -78.5h-70l43 401h1063v-35l-893 -1304h338q154 0 218 16
q67 16 103 51q25 23 53 60t54 78.5t47.5 83t34.5 73.5h69z" />
    <glyph glyph-name="zcaron" unicode="&#x17e;" horiz-adv-x="909" 
d="M545 1159q-29 -41 -84 -41q-18 0 -30.5 1.5t-22.5 6t-18.5 13.5t-18.5 24l-238 346l50 33l274 -272l278 272l50 -33zM55 0v53l557 852h-137q-202 0 -249 -39q-45 -39 -72 -184h-62v303h756v-41l-567 -862l90 -2q291 -6 328 22q39 29 94 246h61v-348h-799z" />
    <glyph glyph-name="longs" unicode="&#x17f;" horiz-adv-x="612" 
d="M199 1051q0 214 116 356q116 141 291 141q89 0 133.5 -34.5t44.5 -83.5q0 -107 -96 -107q-76 0 -133 93l-31 48q-139 -7 -139 -391v-895q0 -45 27 -74q27 -27 153 -38v-66h-512v66l49 5q97 7 97 97v883z" />
    <glyph glyph-name="florin" unicode="&#x192;" horiz-adv-x="1063" 
d="M784 1235q-162 -24 -209 -395l-14 -121h258v-96h-266q-37 -454 -102 -637q-32 -92 -76 -158.5t-98 -110.5t-117 -65t-133 -21q-48 0 -85.5 11t-64 29.5t-40 44t-13.5 55.5q0 104 96 104q95 0 174 -172q87 7 147 150q61 141 121 770h-204v96h213q28 279 156 434
q127 154 325 154q95 0 149 -42t54 -102q0 -104 -99 -104q-95 0 -172 176z" />
    <glyph glyph-name="Ohorn" unicode="&#x1a0;" horiz-adv-x="1524" 
d="M762 -35q-293 0 -488 210q-194 212 -194 534q0 325 197 534q198 209 485 209q188 0 336 -87q11 1 17.5 1t8.5 1q129 21 143 117h-29q-109 0 -109 93q0 18 8.5 35t23.5 29.5t35.5 20.5t44.5 8q113 -8 108 -146q-4 -151 -180 -207q72 -57 124 -124.5t85.5 -145t49.5 -162.5
t16 -176q0 -327 -198 -536q-196 -208 -484 -208zM762 1364q-209 0 -325 -177q-115 -175 -115 -478q0 -71 8.5 -147t28 -148.5t52 -138t81.5 -114.5t116 -77.5t154 -28.5q88 0 154.5 28.5t115.5 77.5t81.5 114t52.5 137.5t28 149t8 147.5q0 303 -116 479t-324 176z" />
    <glyph glyph-name="ohorn" unicode="&#x1a1;" horiz-adv-x="1104" 
d="M543 -31q-198 0 -336 146q-137 146 -137 374q0 110 33 206t95.5 167t153 111.5t205.5 40.5q146 0 253 -68q142 20 155 119h-29q-109 0 -109 93q0 18 8.5 35t23.5 29.5t35.5 20.5t44.5 8q113 -8 108 -146q-5 -149 -175 -206q85 -77 122.5 -179.5t37.5 -215.5
q0 -111 -32.5 -208.5t-95 -170t-153.5 -114.5t-208 -42zM555 938q-56 0 -99 -19.5t-74 -52.5t-51.5 -76.5t-32.5 -91.5t-17 -97.5t-5 -94.5q0 -44 4.5 -95.5t16.5 -103t32 -99t51 -83.5t74 -58t101 -22q56 0 97.5 22t71.5 58.5t49.5 84t31 98t16 101t4.5 93.5q0 44 -4.5 93
t-16 97.5t-30.5 93t-49 78.5t-72 54t-98 20z" />
    <glyph glyph-name="Uhorn" unicode="&#x1af;" horiz-adv-x="1548" 
d="M1303 416q0 -210 -154 -331q-153 -120 -358 -120q-242 0 -387 118q-144 119 -144 292v837q0 117 -186 136v71h592v-71q-122 -11 -156 -35q-35 -26 -35 -90v-785q0 -360 352 -360q184 0 280 103q97 103 97 255v584q0 212 -53 262t-199 66v71h366l-3 -47q107 26 119 112
h-29q-109 0 -109 93q0 18 8.5 35t23.5 29.5t35.5 20.5t44.5 8q113 -8 108 -146q-5 -162 -205 -215q-4 -57 -6 -126t-2 -151v-616z" />
    <glyph glyph-name="uhorn" unicode="&#x1b0;" horiz-adv-x="1178" 
d="M809 -4l-16 14v125h-7q-142 -160 -327 -160q-269 0 -269 334v471q0 123 -155 129v66l330 22l14 -14v-684q0 -50 12 -90t34 -67.5t52 -42.5t66 -15q157 0 248 145v559q0 17 -6 35.5t-16.5 35t-25 28t-32.5 14.5q-14 2 -40.5 4t-66.5 4v66l359 22l16 -14v-28q99 27 111 110
h-29q-109 0 -109 93q0 18 8.5 35t23.5 29.5t35.5 20.5t44.5 8q113 -8 108 -146q-4 -157 -193 -211v-693q0 -119 149 -117v-66z" />
    <glyph glyph-name="Aringacute" unicode="&#x1fa;" horiz-adv-x="1374" 
d="M829 0v72q183 11 183 57q0 29 -8 43l-134 320h-469q-112 -258 -112 -332q0 -76 205 -88v-72h-535v72q86 7 136 42q49 36 72 74q11 20 50.5 108.5t106.5 249.5l286 679q-172 43 -172 207q0 113 113 178q61 48 123 98.5t125 106.5q64 53 106 53q45 0 72 -24t27 -56
q0 -37 -24 -66q-22 -28 -198 -90q172 -48 172 -200q0 -160 -168 -205l424 -1012q60 -143 211 -143v-72h-592zM696 1579q-30 0 -54 -11t-41.5 -30.5t-26.5 -46.5t-9 -59q0 -69 36.5 -110.5t94.5 -41.5q63 0 98 41.5t35 110.5q0 64 -35 105.5t-98 41.5zM637 1047l-199 -467
h396z" />
    <glyph glyph-name="aringacute" unicode="&#x1fb;" horiz-adv-x="1032" 
d="M299 1522q80 77 144.5 141t115.5 117q62 63 117 63q39 0 65.5 -23t26.5 -57q0 -55 -36 -79q-36 -22 -402 -201zM389 1004q-153 51 -153 208q0 54 22 95.5t58 69.5t82.5 42.5t95.5 14.5q50 0 96.5 -14t82.5 -42t57.5 -69.5t21.5 -96.5q0 -152 -152 -206q244 -36 244 -318
l-6 -493q0 -55 25 -80t46 -30q21 -3 97 -3v-64q-105 -38 -162 -38q-156 0 -185 143h-6q-133 -148 -319 -148q-55 0 -102 17t-80.5 49t-52.5 77.5t-19 102.5q0 124 68 189q67 65 234 121q239 79 273 100v98q0 43 -12 81.5t-36 67t-59 45.5t-81 17q-96 0 -141 -47q0 -24 9 -59
q9 -34 9 -72q0 -19 -9 -36t-25 -29.5t-38 -19.5t-47 -7q-96 0 -96 114q0 46 26.5 82.5t66 64.5t85 46t82.5 27zM494 1370q-63 0 -98.5 -42.5t-35.5 -115.5q0 -69 34 -114t100 -45q131 0 131 159q0 72 -35 115t-96 43zM657 547q-217 -64 -297 -132q-79 -67 -79 -169
q0 -160 153 -160q118 0 217 115z" />
    <glyph glyph-name="AEacute" unicode="&#x1fc;" horiz-adv-x="1989" 
d="M1047 1546q84 79 149 143t113 115q60 64 115 64q39 0 65.5 -22.5t26.5 -57.5q0 -48 -35 -77q-17 -14 -65.5 -39.5t-127.5 -62.5q-94 -43 -210 -102zM1915 0h-1170v72q148 7 175 38q28 29 28 83v409h-479q-211 -361 -211 -432q0 -87 168 -98v-72h-522v72q141 13 209 108
q69 96 653 1145q-51 17 -170 23v71h1239v-342h-76q-18 76 -76 150q-58 75 -102 93q-42 19 -207 19h-213v-563h150q63 0 104.5 14t67 43t39 72.5t22.5 102.5h76v-555h-76q-2 24 -9 56.5t-19 64t-29.5 58t-40.5 38.5q-45 24 -135 24h-150v-426q0 -128 42 -157q44 -29 202 -29
h84q135 0 180 22q20 10 40 31t40 49.5t38.5 61t34.5 64t28.5 60t19.5 48.5h72zM948 1331h-78l-354 -641h432v641z" />
    <glyph glyph-name="aeacute" unicode="&#x1fd;" horiz-adv-x="1509" 
d="M670 1143q57 83 107 159t95 148q52 88 127 88q34 0 58 -23.5t24 -54.5q0 -57 -43 -91q-22 -17 -76.5 -60.5t-144.5 -113.5q-23 -18 -50 -39t-58 -46zM1468 233q-128 -260 -385 -260q-242 0 -370 189h-6q-142 -189 -367 -189q-57 0 -104.5 16.5t-81.5 48t-53 77.5t-19 104
q0 130 78 209q80 80 481 195v106q0 80 -44 145q-43 66 -128 66q-100 0 -145 -47q0 -24 9 -59q9 -34 9 -72q0 -39 -33.5 -65.5t-85.5 -26.5q-96 0 -96 114q0 87 110 158q110 72 234 72q229 0 311 -121q124 121 281 121q94 0 165.5 -29.5t119.5 -83.5t72 -129t24 -166v-57
h-619q0 -465 305 -465q175 0 269 192zM1245 631q0 307 -194 307q-97 0 -162 -87q-64 -86 -64 -220h420zM643 537q-362 -71 -362 -289q0 -162 145 -162q132 0 217 109v342z" />
    <glyph glyph-name="Oslashacute" unicode="&#x1fe;" horiz-adv-x="1524" 
d="M537 1546q84 79 149 143t113 115q60 64 115 64q39 0 65.5 -22.5t26.5 -57.5q0 -48 -35 -77q-17 -14 -65.5 -39.5t-127.5 -62.5q-94 -43 -210 -102zM156 -84l-66 49l182 215q-192 215 -192 529q0 325 197 534q198 209 485 209q251 0 432 -160l152 185l65 -54l-158 -186
q191 -220 191 -528q0 -327 -198 -536q-196 -208 -484 -208q-243 0 -432 162zM1098 1176q-117 188 -336 188q-88 0 -155 -28.5t-116 -77.5t-82 -114t-53 -138t-28.5 -149.5t-8.5 -147.5q0 -235 66 -394zM426 244q120 -189 336 -189q210 0 325 175q117 176 117 479
q0 237 -63 393z" />
    <glyph glyph-name="oslashacute" unicode="&#x1ff;" horiz-adv-x="1104" 
d="M332 1143q57 83 107 159t95 148q52 88 127 88q34 0 58 -23.5t24 -54.5q0 -57 -43 -91q-22 -17 -76.5 -60.5t-144.5 -113.5q-23 -18 -50 -39t-58 -46zM256 76q-11 -13 -43 -52.5t-84 -105.5l-57 43l133 164q-135 152 -135 364q0 110 33 206t95.5 167t153 111.5t205.5 40.5
q166 0 289 -96l110 141l60 -45l-119 -146q135 -145 135 -364q0 -111 -32.5 -208.5t-95 -170t-153.5 -114.5t-208 -42q-156 0 -287 107zM764 815q-69 123 -209 123q-56 0 -99 -19.5t-74.5 -52t-52.5 -76t-33.5 -91.5t-18 -97.5t-5.5 -95.5q0 -141 35 -258zM340 178
q73 -133 215 -133q56 0 98 22t72.5 58.5t50.5 83.5t32 98t16.5 101.5t4.5 93.5q0 142 -32 246z" />
    <glyph glyph-name="uni0218" unicode="&#x218;" horiz-adv-x="1149" 
d="M188 0h-79l-15 485h80q122 -428 430 -428q268 0 268 250q0 34 -8.5 67t-24 63.5t-38 56.5t-51.5 45q-48 32 -148 70q-195 72 -281 119q-84 48 -136 133t-52 204q0 161 126 273q127 112 304 112q155 0 318 -98l41 67h79l9 -471h-82q-13 51 -29.5 101t-38 96.5t-49.5 86.5
t-65.5 69t-85.5 46t-109 17q-45 0 -86.5 -15t-73 -43t-50.5 -67t-19 -86q0 -104 56 -172q58 -69 254 -139q252 -91 345 -187q92 -95 92 -252q0 -102 -39.5 -182t-106 -135.5t-154 -85t-183.5 -29.5q-185 0 -355 101zM473 -387q176 9 174 129h-55q-119 0 -119 94
q0 20 8.5 37.5t24 31t37 21.5t46.5 8q33 0 60.5 -12t47 -33.5t30 -52t10.5 -67.5q0 -51 -18.5 -90.5t-52.5 -67t-83 -41.5t-110 -14v57z" />
    <glyph glyph-name="uni0219" unicode="&#x219;" horiz-adv-x="885" 
d="M158 -2h-74l-10 342h67q14 -54 42 -106t68.5 -92.5t92 -65.5t111.5 -25q200 0 200 168q0 69 -50 114q-49 44 -204 91q-303 89 -303 301q0 70 27.5 124t74 90.5t106.5 55.5t124 19q123 0 217 -51l23 53h71l17 -318h-70q-55 240 -260 240q-32 0 -63.5 -8.5t-56.5 -26
t-40.5 -44t-15.5 -62.5q0 -77 46 -114q23 -19 74 -41t130 -48q59 -19 114.5 -43t98.5 -59.5t68.5 -85.5t25.5 -121q0 -77 -31 -135.5t-83 -97.5t-118 -59t-137 -20q-147 0 -262 88zM326 -387q176 9 174 129h-55q-119 0 -119 94q0 20 8.5 37.5t24 31t37 21.5t46.5 8
q33 0 60.5 -12t47 -33.5t30 -52t10.5 -67.5q0 -51 -18.5 -90.5t-52.5 -67t-83 -41.5t-110 -14v57z" />
    <glyph glyph-name="uni021A" unicode="&#x21a;" horiz-adv-x="1268" 
d="M1182 1034q-8 29 -27 72t-44 85t-54 77.5t-57 49.5q-43 23 -201 23h-60v-1134q0 -56 36 -88q37 -32 194 -47v-72h-670v72q146 10 187 33q40 22 40 92v1144h-57q-144 0 -188 -15q-42 -13 -105 -105q-62 -90 -90 -187h-72v385h1237v-385h-69zM533 -387q176 9 174 129h-55
q-119 0 -119 94q0 20 8.5 37.5t24 31t37 21.5t46.5 8q33 0 60.5 -12t47 -33.5t30 -52t10.5 -67.5q0 -51 -18.5 -90.5t-52.5 -67t-83 -41.5t-110 -14v57z" />
    <glyph glyph-name="uni021B" unicode="&#x21b;" horiz-adv-x="707" 
d="M682 43q-144 -63 -266 -63q-226 0 -226 237v670h-178v94h183v307h182v-307h282v-94h-280v-551q0 -138 31 -187t129 -49q83 0 143 17v-74zM316 -387q176 9 174 129h-55q-119 0 -119 94q0 20 8.5 37.5t24 31t37 21.5t46.5 8q33 0 60.5 -12t47 -33.5t30 -52t10.5 -67.5
q0 -51 -18.5 -90.5t-52.5 -67t-83 -41.5t-110 -14v57z" />
    <glyph glyph-name="uni0237" unicode="&#x237;" horiz-adv-x="598" 
d="M430 59q0 -223 -115 -362q-114 -141 -286 -141q-42 0 -75.5 9t-57 24.5t-36 37t-12.5 47.5q0 109 95 109q76 0 131 -93q8 -13 15 -25.5t15 -24.5q76 0 109 93.5t33 293.5v741q0 46 -36 89q-35 45 -190 56v64l398 20l12 -14v-924z" />
    <glyph glyph-name="circumflex" unicode="&#x2c6;" 
d="M788 1118l-278 273l-274 -273l-50 33l238 346q11 15 19 23.5t18 13.5t22.5 6.5t30.5 1.5q55 0 84 -41l240 -350z" />
    <glyph glyph-name="caron" unicode="&#x2c7;" 
d="M598 1159q-29 -41 -84 -41q-18 0 -30.5 1.5t-22.5 6t-18.5 13.5t-18.5 24l-238 346l50 33l274 -272l278 272l50 -33z" />
    <glyph glyph-name="uni02C9" unicode="&#x2c9;" 
d="M170 1290v129h684v-129h-684z" />
    <glyph glyph-name="breve" unicode="&#x2d8;" 
d="M825 1495q-52 -369 -313 -369q-263 0 -313 369l55 12q17 -52 37 -94.5t49.5 -72.5t71 -46t100.5 -16t100.5 16t71 46t50 72.5t36.5 94.5z" />
    <glyph glyph-name="dotaccent" unicode="&#x2d9;" 
d="M510 1247q-27 0 -49.5 11t-39.5 29t-26.5 41.5t-9.5 49.5t9.5 50.5t26 43t39.5 30t50 11.5t51 -9.5t41.5 -26.5t28 -40.5t10.5 -50.5q0 -28 -10 -53t-27 -44t-41 -30.5t-53 -11.5z" />
    <glyph glyph-name="ring" unicode="&#x2da;" 
d="M512 1114q-52 0 -99 13.5t-82.5 41t-56 69.5t-20.5 99q0 53 22 94.5t58 70t82.5 43t95.5 14.5q51 0 97.5 -14t82.5 -41.5t57 -69t21 -97.5q0 -55 -21 -97t-57 -70t-82.5 -42t-97.5 -14zM512 1495q-131 0 -131 -158q0 -69 33 -114t98 -45q131 0 131 159q0 72 -35 115
t-96 43z" />
    <glyph glyph-name="ogonek" unicode="&#x2db;" 
d="M573 -444q-131 0 -199.5 51.5t-68.5 142.5q0 157 238 289h59q-137 -107 -137 -256q0 -87 56 -121.5t167 -34.5v-71h-115z" />
    <glyph glyph-name="tilde" unicode="&#x2dc;" 
d="M895 1466q-13 -42 -36.5 -85t-56 -77.5t-74 -56.5t-89.5 -22q-83 0 -175 51q-91 51 -134 51q-36 0 -61 -16q-26 -17 -81 -119l-59 25q93 241 250 241q80 0 171 -51q92 -51 128 -51q96 0 130 78q5 13 11.5 27t14.5 30z" />
    <glyph glyph-name="hungarumlaut" unicode="&#x2dd;" 
d="M584 1110l-35 29q144 232 182 307q56 92 113 92q34 0 58 -23.5t24 -54.5q0 -39 -18 -65q-9 -13 -37 -39t-76 -67zM193 1139q54 90 96 166t73 141q47 92 111 92q17 0 31.5 -7t26 -18t18 -25.5t6.5 -29.5q0 -46 -26 -78q-25 -30 -300 -270z" />
    <glyph glyph-name="gravecomb" unicode="&#x300;" 
d="M737 1507q-58 29 -110 54.5t-99 47.5q-52 24 -93 44t-73 37q-63 33 -63 98q0 80 92 80q55 0 102 -50q23 -25 91.5 -92.5t183.5 -179.5z" />
    <glyph glyph-name="acutecomb" unicode="&#x301;" 
d="M256 1546q84 79 149 143t113 115q60 64 115 64q39 0 65.5 -22.5t26.5 -57.5q0 -48 -35 -77q-17 -14 -65.5 -39.5t-127.5 -62.5q-94 -43 -210 -102z" />
    <glyph glyph-name="uni0302" unicode="&#x302;" 
d="M788 1507l-278 211l-274 -211l-50 31l236 285q11 14 20 22.5t19 13.5t22.5 7t30.5 2q54 0 86 -41l238 -289z" />
    <glyph glyph-name="uni0306" unicode="&#x306;" 
d="M829 1851q-51 -321 -317 -321q-267 0 -317 321l55 17q59 -191 262 -191t262 191z" />
    <glyph glyph-name="uni0308" unicode="&#x308;" 
d="M737 1608q-26 0 -48 10t-37.5 26.5t-24.5 39t-9 47.5t9 47t25 38.5t38 26.5t47 10t46.5 -10t37 -26.5t24.5 -38.5t9 -47q0 -26 -9 -48.5t-25 -39t-37.5 -26t-45.5 -9.5zM287 1608q-24 0 -45.5 9.5t-37.5 26t-25 39t-9 48.5q0 25 9 47t24.5 38.5t37 26.5t46.5 10t47 -10
t38 -26.5t25 -38.5t9 -47t-9 -47.5t-24.5 -39t-37.5 -26.5t-48 -10z" />
    <glyph glyph-name="uni030B" unicode="&#x30b;" 
d="M154 1542q61 69 114 131t99 119q61 76 110 76q21 0 37 -7.5t27.5 -19.5t17.5 -27t6 -30q0 -64 -82 -107q-124 -66 -198.5 -108t-102.5 -62zM537 1542l219 250q61 76 110 76q21 0 37 -7.5t27.5 -19.5t17.5 -27t6 -30q0 -64 -82 -107l-139 -72q-32 -17 -74 -41.5t-94 -56.5
z" />
    <glyph glyph-name="uni030C" unicode="&#x30c;" 
d="M838 1835l-236 -283q-29 -35 -40 -40q-12 -5 -52 -5q-54 0 -86 41l-238 287l50 33l278 -213l274 213z" />
    <glyph glyph-name="uni0326" unicode="&#x326;" 
d="M373 -387q176 9 174 129h-55q-119 0 -119 94q0 20 8.5 37.5t24 31t37 21.5t46.5 8q33 0 60.5 -12t47 -33.5t30 -52t10.5 -67.5q0 -51 -18.5 -90.5t-52.5 -67t-83 -41.5t-110 -14v57z" />
    <glyph glyph-name="tonos" unicode="&#x384;" 
d="M752 1534l-207 -395h-68l66 420h209v-25z" />
    <glyph glyph-name="dieresistonos" unicode="&#x385;" 
d="M672 1528l-205 -385h-59l73 405h191v-20zM788 1214q-25 0 -46.5 10t-37 27t-24 39.5t-8.5 46.5t8.5 46.5t24 39.5t37 27t46.5 10t46 -9.5t36.5 -26.5t24 -39t8.5 -48q0 -24 -8.5 -46.5t-23.5 -39.5t-36 -27t-47 -10zM238 1214q-25 0 -46.5 10t-36.5 27t-23.5 39.5
t-8.5 46.5q0 26 8.5 48t24 39t36.5 26.5t46 9.5t46.5 -10t37 -27t24 -39.5t8.5 -46.5t-9 -46t-24.5 -39.5t-36.5 -27.5t-46 -10z" />
    <glyph glyph-name="Alphatonos" unicode="&#x386;" horiz-adv-x="1374" 
d="M829 0v72q183 11 183 57q0 21 -8 43l-119 320h-498q-98 -255 -98 -332q0 -75 205 -88v-72h-535v72q66 5 121 32t87 87q26 48 186 459l306 790h80l473 -1225q51 -132 209 -143v-72h-592zM346 1397l-207 -395h-68l66 420h209v-25zM635 1130l-211 -550h426z" />
    <glyph glyph-name="anoteleia" unicode="&#x387;" horiz-adv-x="641" 
d="M319 717q-28 0 -53 10.5t-44 29t-29.5 43.5t-10.5 54q0 28 11 52.5t30 43t43.5 29t52.5 10.5t53 -10.5t44 -28.5t30 -42.5t11 -53.5t-10.5 -54t-29.5 -43.5t-44 -29t-54 -10.5z" />
    <glyph glyph-name="Epsilontonos" unicode="&#x388;" horiz-adv-x="1628" 
d="M297 1397l-207 -395h-68l66 420h209v-25zM1555 0h-1178v72q132 10 168 34q35 24 35 87v1019q0 35 -13.5 59t-40 40t-64 24.5t-85.5 12.5v71h1098v-342h-74q-21 78 -80 152q-59 75 -100 92q-42 18 -205 18h-223v-563h160q62 0 103 14.5t67 43.5t40 72.5t23 101.5h74v-555
h-74q-2 25 -9.5 54t-18.5 63q-13 40 -32 64t-44.5 37.5t-57.5 18t-71 4.5h-160v-426q0 -122 38 -154q40 -32 203 -32h87q141 0 189 22q30 14 61 53t58.5 87t48.5 95.5t32 78.5h71z" />
    <glyph glyph-name="Etatonos" unicode="&#x389;" horiz-adv-x="1966" 
d="M297 1397l-207 -395h-68l66 420h209v-25zM1276 0v72q118 11 137 19q22 9 36.5 30.5t14.5 66.5v506h-665v-493q0 -61 37 -91q38 -29 147 -38v-72h-588v72q137 6 164 37q27 32 27 79v1024q0 119 -191 136v71h588v-71q-103 -9 -145 -32q-39 -22 -39 -93v-441h665v430
q0 119 -188 136v71h588v-71q-106 -9 -147 -33q-40 -24 -40 -92v-1022q0 -42 16.5 -66t43 -37t60 -18t67.5 -8v-72h-588z" />
    <glyph glyph-name="Iotatonos" unicode="&#x38a;" horiz-adv-x="1085" 
d="M297 1397l-207 -395h-68l66 420h209v-25zM367 0v72q143 11 177 29q36 20 36 85v1028q0 41 -21.5 66t-54 39t-69.5 20t-68 9v71h639v-71q-135 -10 -174 -36q-39 -25 -39 -87v-1026q0 -53 34 -84t179 -43v-72h-639z" />
    <glyph glyph-name="Omicrontonos" unicode="&#x38c;" horiz-adv-x="1741" 
d="M979 -35q-293 0 -488 210q-194 212 -194 534q0 325 197 534q198 209 485 209q292 0 487 -208t195 -535t-198 -536q-196 -208 -484 -208zM297 1397l-207 -395h-68l66 420h209v-25zM979 1364q-209 0 -325 -177q-115 -175 -115 -478q0 -71 8.5 -147t28 -148.5t52 -138
t81.5 -114.5t116 -77.5t154 -28.5q88 0 154.5 28.5t115.5 77.5t81.5 114t52.5 137.5t28 149t8 147.5q0 303 -116 479t-324 176z" />
    <glyph glyph-name="Upsilontonos" unicode="&#x38e;" horiz-adv-x="1647" 
d="M297 1397l-207 -395h-68l66 420h209v-25zM1702 1348q-40 -4 -72.5 -18t-59.5 -35.5t-50 -49t-46 -59.5q-69 -96 -194 -311q-63 -108 -99 -173.5t-46 -88.5q-19 -45 -19 -134v-270q0 -57 38 -90q40 -34 189 -47v-72h-663v72q149 11 185 32q38 23 38 95v344q0 34 -169 350
q-85 159 -140.5 254t-83.5 127q-54 65 -166 74v71h604v-71q-186 -9 -186 -48q0 -28 311 -591q324 521 324 565q0 31 -36 47q-34 18 -153 27v71h494v-71z" />
    <glyph glyph-name="Omegatonos" unicode="&#x38f;" horiz-adv-x="1784" 
d="M219 387h67q8 -17 15.5 -34t15.5 -36q59 -141 150 -141h229v33q-234 254 -296 391q-62 139 -62 293q0 231 186 394q188 165 463 165q282 0 466 -165q185 -165 185 -394q0 -148 -59 -286q-29 -69 -103.5 -167.5t-195.5 -230.5v-33h227q88 0 148 141q8 19 15 36t15 34h70
l-70 -387h-590v68q196 273 248 412q53 144 53 300q0 68 -7.5 137.5t-26 134t-48.5 121.5t-75.5 99.5t-107.5 67t-144 24.5q-81 0 -142.5 -24.5t-107 -67.5t-76 -100t-48.5 -122t-26 -134t-8 -136q0 -154 51 -297q26 -72 88 -175t162 -240v-68h-594zM297 1397l-207 -395h-68
l66 420h209v-25z" />
    <glyph glyph-name="iotadieresistonos" unicode="&#x390;" horiz-adv-x="604" 
d="M463 1528l-205 -385h-59l73 405h191v-20zM579 1214q-25 0 -46.5 10t-37 27t-24 39.5t-8.5 46.5t8.5 46.5t24 39.5t37 27t46.5 10t46 -9.5t36.5 -26.5t24 -39t8.5 -48q0 -24 -8.5 -46.5t-23.5 -39.5t-36 -27t-47 -10zM29 1214q-25 0 -46.5 10t-36.5 27t-23.5 39.5
t-8.5 46.5q0 26 8.5 48t24 39t36.5 26.5t46 9.5t46.5 -10t37 -27t24 -39.5t8.5 -46.5t-9 -46t-24.5 -39.5t-36.5 -27.5t-46 -10zM598 16q-106 -36 -207 -36q-188 0 -188 215l2 583q0 39 -14.5 63.5t-38.5 39t-55 21t-64 9.5v66l344 20l12 -14v-774q0 -131 143 -131
q19 0 35.5 1t30.5 3v-66z" />
    <glyph glyph-name="Alpha" unicode="&#x391;" horiz-adv-x="1374" 
d="M829 0v72q183 11 183 57q0 21 -8 43l-119 320h-498q-98 -255 -98 -332q0 -75 205 -88v-72h-535v72q66 5 121 32t87 87q26 48 186 459l306 790h80l473 -1225q51 -132 209 -143v-72h-592zM635 1130l-211 -550h426z" />
    <glyph glyph-name="Beta" unicode="&#x392;" horiz-adv-x="1339" 
d="M94 0v72q120 9 157 34q38 26 38 87v1019q0 121 -187 136v71h656q73 0 146 -16.5t132 -53t96 -95.5t37 -144q0 -264 -335 -344v-8q413 -62 413 -373q0 -97 -42.5 -169.5t-110.5 -120.5t-153.5 -71.5t-172.5 -23.5h-674zM502 791h127q301 0 301 299q0 249 -266 249
q-45 0 -85.5 -1t-76.5 -3v-544zM502 207q0 -127 192 -127q307 0 307 342q0 72 -25.5 126.5t-69.5 90.5t-103 54t-127 18q-59 0 -102 -1t-72 -3v-500z" />
    <glyph glyph-name="Gamma" unicode="&#x393;" horiz-adv-x="1194" 
d="M1104 1022q-8 31 -25.5 75.5t-41.5 88t-52.5 80t-58.5 50.5q-49 23 -221 23h-203v-1136q0 -59 43 -90q42 -30 178 -41v-72h-637v72q57 5 91.5 8t46.5 5q25 5 45 31t20 72v1024q0 35 -13.5 59t-40 40t-64 24.5t-85.5 12.5v71h1094v-397h-76z" />
    <glyph glyph-name="uni0394" unicode="&#x394;" horiz-adv-x="1354" 
d="M18 0v49l641 1391h78l596 -1391v-49h-1315zM629 1163l-453 -991h877z" />
    <glyph glyph-name="Epsilon" unicode="&#x395;" horiz-adv-x="1337" 
d="M1264 0h-1178v72q132 10 168 34q35 24 35 87v1019q0 35 -13.5 59t-40 40t-64 24.5t-85.5 12.5v71h1098v-342h-74q-21 78 -80 152q-59 75 -100 92q-42 18 -205 18h-223v-563h160q62 0 103 14.5t67 43.5t40 72.5t23 101.5h74v-555h-74q-2 25 -9.5 54t-18.5 63
q-13 40 -32 64t-44.5 37.5t-57.5 18t-71 4.5h-160v-426q0 -122 38 -154q40 -32 203 -32h87q141 0 189 22q30 14 61 53t58.5 87t48.5 95.5t32 78.5h71z" />
    <glyph glyph-name="Zeta" unicode="&#x396;" horiz-adv-x="1233" 
d="M1167 0h-1140v35l893 1304h-326q-157 0 -210 -25q-33 -16 -68 -51.5t-66.5 -78.5t-56.5 -87.5t-39 -78.5h-70l43 401h1063v-35l-893 -1304h338q154 0 218 16q67 16 103 51q25 23 53 60t54 78.5t47.5 83t34.5 73.5h69z" />
    <glyph glyph-name="Eta" unicode="&#x397;" horiz-adv-x="1669" 
d="M979 0v72q118 11 137 19q22 9 36.5 30.5t14.5 66.5v506h-665v-493q0 -61 37 -91q38 -29 147 -38v-72h-588v72q137 6 164 37q27 32 27 79v1024q0 119 -191 136v71h588v-71q-103 -9 -145 -32q-39 -22 -39 -93v-441h665v430q0 119 -188 136v71h588v-71q-106 -9 -147 -33
q-40 -24 -40 -92v-1022q0 -42 16.5 -66t43 -37t60 -18t67.5 -8v-72h-588z" />
    <glyph glyph-name="Theta" unicode="&#x398;" horiz-adv-x="1524" 
d="M762 -35q-293 0 -488 210q-194 212 -194 534q0 325 197 534q198 209 485 209q292 0 487 -208t195 -535t-198 -536q-196 -208 -484 -208zM762 1364q-87 0 -154 -28.5t-116.5 -78t-82.5 -114.5t-53 -137.5t-28.5 -149t-8.5 -147.5t8.5 -147.5t28.5 -149t53 -137.5t82 -114
t116 -77.5t155 -28.5q87 0 154 28.5t116 77.5t82 114.5t53 138t28.5 148.5t8.5 147q0 309 -118 481q-117 174 -324 174zM981 481q-23 112 -53 131q-30 21 -166 21q-135 0 -166 -20q-28 -19 -51 -132h-68v455h68q23 -112 52 -131t165 -19q135 0 166 20q30 20 53 130h66v-455
h-66z" />
    <glyph glyph-name="Iota" unicode="&#x399;" horiz-adv-x="799" 
d="M80 0v72q143 11 177 29q36 20 36 85v1028q0 41 -21.5 66t-54 39t-69.5 20t-68 9v71h639v-71q-135 -10 -174 -36q-39 -25 -39 -87v-1026q0 -53 34 -84t179 -43v-72h-639z" />
    <glyph glyph-name="Kappa" unicode="&#x39a;" horiz-adv-x="1421" 
d="M1077 0q-215 339 -551 694h-24v-493q0 -53 30 -85q32 -32 158 -44v-72h-588v72q116 11 136 19q21 9 36 33t15 64v1024q0 120 -187 136v71h588v-71q-105 -9 -147 -32q-41 -23 -41 -93v-490h18q216 183 351 340q137 160 137 225q0 41 -148 50v71h533v-71q-21 0 -49 -4
t-57.5 -11t-55.5 -17.5t-43 -23.5q-21 -17 -142 -156q-91 -103 -171 -187.5t-152 -153.5q76 -87 162.5 -190t183.5 -225q137 -172 176 -212q27 -26 52.5 -43t52.5 -28t57.5 -16.5t67.5 -8.5v-72h-398z" />
    <glyph glyph-name="Lambda" unicode="&#x39b;" horiz-adv-x="1380" 
d="M836 0v72q180 11 180 57q0 29 -8 43l-371 956l-310 -806q-38 -108 -38 -162q0 -75 205 -88v-72h-535v72q69 5 124.5 34t87.5 92q14 26 61.5 145t131.5 333l298 764h79l478 -1225q52 -133 208 -143v-72h-591z" />
    <glyph glyph-name="Mu" unicode="&#x39c;" horiz-adv-x="1898" 
d="M1180 0v72q103 9 136 15t59 37t26 77v1032h-17l-483 -1210h-49l-463 1234h-12v-847q0 -128 20 -208q21 -76 105 -102q42 -13 72 -19.5t47 -8.5v-72h-574v72q154 13 194 71t40 256v725q0 212 -224 224v71h484l405 -1065l348 891q17 45 28.5 88t18.5 86h463v-71
q-123 -11 -157 -35q-35 -26 -35 -90v-1022q0 -64 40 -92q40 -26 154 -37v-72h-626z" />
    <glyph glyph-name="Nu" unicode="&#x39d;" horiz-adv-x="1571" 
d="M1554 1348q-146 -20 -189 -64q-42 -45 -42 -260v-1038h-86l-860 1161v-731q0 -25 1 -64t6.5 -80t16.5 -77t30 -56q14 -13 39.5 -24.5t55 -20.5t58 -14.5t47.5 -7.5v-72h-584v72q119 17 176 54q58 37 58 277v701q0 207 -256 244v71h403l799 -1081v674q0 229 -57 272
q-55 44 -193 64v71h577v-71z" />
    <glyph glyph-name="Xi" unicode="&#x39e;" horiz-adv-x="1419" 
d="M1204 989q-41 154 -76 193q-37 43 -67 53q-31 12 -354 12q-321 0 -348 -13q-29 -12 -64 -50q-33 -36 -80 -195h-70l27 430h1075l27 -430h-70zM956 469q-24 132 -68 147q-43 15 -177 15q-123 0 -174 -14q-49 -13 -74 -148h-70v479h70q26 -131 72 -146q48 -14 176 -14
q140 0 179 16q42 17 66 144h70v-479h-70zM1257 0h-1093l-47 432h69q50 -148 90 -191q42 -43 73 -55q32 -12 358 -12q334 0 364 11q30 12 69 51t95 196h70z" />
    <glyph glyph-name="Omicron" unicode="&#x39f;" horiz-adv-x="1524" 
d="M762 -35q-293 0 -488 210q-194 212 -194 534q0 325 197 534q198 209 485 209q292 0 487 -208t195 -535t-198 -536q-196 -208 -484 -208zM762 1364q-209 0 -325 -177q-115 -175 -115 -478q0 -71 8.5 -147t28 -148.5t52 -138t81.5 -114.5t116 -77.5t154 -28.5
q88 0 154.5 28.5t115.5 77.5t81.5 114t52.5 137.5t28 149t8 147.5q0 303 -116 479t-324 176z" />
    <glyph glyph-name="Pi" unicode="&#x3a0;" horiz-adv-x="1655" 
d="M502 201q0 -61 37 -91q38 -29 147 -38v-72h-588v72q137 6 164 37q27 32 27 79v1024q0 119 -191 136v71h1454v-71q-63 -4 -125 -24q-61 -18 -61 -101v-1022q0 -41 16.5 -65.5t43 -37.5t60 -18t66.5 -8v-72h-587v72q118 11 137 19q22 9 36.5 30.5t14.5 66.5v1141h-651
v-1128z" />
    <glyph glyph-name="Rho" unicode="&#x3a1;" horiz-adv-x="1249" 
d="M502 623v-430q0 -71 36 -92q37 -22 169 -29v-72h-609v72q126 11 157 32q34 22 34 89v1024q0 61 -31 89q-30 30 -168 42v71h649q197 0 321 -97q124 -96 124 -253q0 -112 -43.5 -195.5t-116.5 -139t-168 -83.5t-197 -28h-157zM502 1337v-626h100q168 0 251 86t83 223
q0 317 -295 317h-139z" />
    <glyph glyph-name="Sigma" unicode="&#x3a3;" horiz-adv-x="1237" 
d="M1153 0h-1128v35l571 637l-555 712v35h1069v-377h-72q-23 104 -83 188q-57 81 -112 95q-54 14 -194 14h-309l444 -571v-16l-520 -576h654q128 0 212 266h70z" />
    <glyph glyph-name="Tau" unicode="&#x3a4;" horiz-adv-x="1268" 
d="M1182 1034q-8 29 -27 72t-44 85t-54 77.5t-57 49.5q-43 23 -201 23h-60v-1134q0 -56 36 -88q37 -32 194 -47v-72h-670v72q146 10 187 33q40 22 40 92v1144h-57q-144 0 -188 -15q-42 -13 -105 -105q-62 -90 -90 -187h-72v385h1237v-385h-69z" />
    <glyph glyph-name="Upsilon" unicode="&#x3a5;" horiz-adv-x="1260" 
d="M1315 1348q-40 -4 -72.5 -18t-59.5 -35.5t-50 -49t-46 -59.5q-69 -96 -194 -311q-63 -108 -99 -173.5t-46 -88.5q-19 -45 -19 -134v-270q0 -57 38 -90q40 -34 189 -47v-72h-663v72q149 11 185 32q38 23 38 95v344q0 34 -169 350q-85 159 -140.5 254t-83.5 127
q-54 65 -166 74v71h604v-71q-186 -9 -186 -48q0 -28 311 -591q324 521 324 565q0 31 -36 47q-34 18 -153 27v71h494v-71z" />
    <glyph glyph-name="Phi" unicode="&#x3a6;" horiz-adv-x="1571" 
d="M889 174q0 -57 31 -82q31 -24 172 -33v-69h-600v69q136 11 162 38q28 28 28 77v45q-124 0 -235.5 30.5t-195.5 94t-133.5 162t-49.5 233.5q0 215 158 343t446 128h10v27q0 33 -13.5 55.5t-38.5 37.5t-60.5 23t-80.5 11v70h592v-70q-129 -9 -161 -35q-31 -25 -31 -82v-37
h8q291 0 448 -129q158 -129 158 -342q0 -133 -50 -231t-135 -162.5t-196 -95.5t-233 -31v-45zM889 1133v-834q187 0 281 118q96 119 96 298q0 80 -18 155.5t-58 134t-103.5 93.5t-154.5 35h-43zM682 1133h-43q-91 0 -154.5 -35t-104 -93.5t-59 -133.5t-18.5 -156
q0 -90 23.5 -166t71 -131.5t118.5 -87t166 -31.5v834z" />
    <glyph glyph-name="Chi" unicode="&#x3a7;" horiz-adv-x="1454" 
d="M793 0v72q184 7 184 57q0 53 -287 481q-311 -410 -311 -471q0 -62 164 -67v-72h-531v72q111 9 166 43q28 17 70.5 65.5t101.5 127.5l285 384q-372 547 -419 596q-46 48 -189 60v71h657v-71q-182 -12 -182 -54q0 -39 84 -168l41 -65q29 -46 64 -99.5t77 -115.5
q276 374 276 436q0 56 -163 66v71h528v-71q-136 -7 -200 -71q-63 -61 -388 -507l176 -256q104 -155 163 -240.5t74 -102.5q29 -34 74 -66q43 -31 148 -33v-72h-663z" />
    <glyph glyph-name="Psi" unicode="&#x3a8;" horiz-adv-x="1792" 
d="M1001 209q0 -59 39 -91q42 -33 183 -46v-72h-654v72q141 11 180 33q39 23 39 94v250q-571 18 -571 481v282q0 118 -184 136v71h397v-508q0 -360 358 -379v680q0 38 -17 63t-44 40t-59.5 22.5t-63.5 10.5v71h580v-71q-26 -2 -55.5 -7.5t-62.5 -15.5q-65 -18 -65 -102v-691
q359 20 359 379v508h399v-71q-116 -12 -151 -36q-33 -24 -33 -89v-293q0 -462 -574 -481v-240z" />
    <glyph glyph-name="uni03A9" unicode="&#x3a9;" horiz-adv-x="1595" 
d="M31 387h67q8 -17 15.5 -34t15.5 -36q59 -141 150 -141h229v33q-234 254 -296 391q-62 139 -62 293q0 231 186 394q188 165 463 165q282 0 466 -165q185 -165 185 -394q0 -148 -59 -286q-29 -69 -103.5 -167.5t-195.5 -230.5v-33h227q88 0 148 141q8 19 15 36t15 34h70
l-70 -387h-590v68q196 273 248 412q53 144 53 300q0 68 -7.5 137.5t-26 134t-48.5 121.5t-75.5 99.5t-107.5 67t-144 24.5q-81 0 -142.5 -24.5t-107 -67.5t-76 -100t-48.5 -122t-26 -134t-8 -136q0 -154 51 -297q26 -72 88 -175t162 -240v-68h-594z" />
    <glyph glyph-name="Iotadieresis" unicode="&#x3aa;" horiz-adv-x="799" 
d="M616 1608q-26 0 -48 10t-37.5 26.5t-24.5 39t-9 47.5t9 47.5t25 39t38 26.5t47 10q26 0 47.5 -10t37.5 -26.5t25 -39t9 -47.5q0 -24 -9.5 -46.5t-25.5 -39.5t-37.5 -27t-46.5 -10zM186 1608q-25 0 -47 10t-38 26.5t-25 39t-9 47.5t9 47.5t25 39t38 26.5t47 10t46.5 -10
t37.5 -27t25.5 -39.5t9.5 -46.5q0 -25 -9 -47t-25 -39t-38 -27t-47 -10zM80 0v72q143 11 177 29q36 20 36 85v1028q0 41 -21.5 66t-54 39t-69.5 20t-68 9v71h639v-71q-135 -10 -174 -36q-39 -25 -39 -87v-1026q0 -53 34 -84t179 -43v-72h-639z" />
    <glyph glyph-name="Upsilondieresis" unicode="&#x3ab;" horiz-adv-x="1260" 
d="M895 1608q-26 0 -48 10t-37.5 26.5t-24.5 39t-9 47.5t9 47t25 38.5t38 26.5t47 10t46.5 -10t37 -26.5t24.5 -38.5t9 -47q0 -26 -9 -48.5t-25 -39t-37.5 -26t-45.5 -9.5zM445 1608q-24 0 -45.5 9.5t-37.5 26t-25 39t-9 48.5q0 25 9 47t24.5 38.5t37 26.5t46.5 10t47 -10
t38 -26.5t25 -38.5t9 -47t-9 -47.5t-24.5 -39t-37.5 -26.5t-48 -10zM1315 1348q-40 -4 -72.5 -18t-59.5 -35.5t-50 -49t-46 -59.5q-69 -96 -194 -311q-63 -108 -99 -173.5t-46 -88.5q-19 -45 -19 -134v-270q0 -57 38 -90q40 -34 189 -47v-72h-663v72q149 11 185 32
q38 23 38 95v344q0 34 -169 350q-85 159 -140.5 254t-83.5 127q-54 65 -166 74v71h604v-71q-186 -9 -186 -48q0 -28 311 -591q324 521 324 565q0 31 -36 47q-34 18 -153 27v71h494v-71z" />
    <glyph glyph-name="alphatonos" unicode="&#x3ac;" horiz-adv-x="1225" 
d="M783 1534l-207 -395h-68l66 420h209v-25zM1229 18q-120 -38 -195 -38q-92 0 -133.5 58t-52.5 163q-143 -230 -354 -230q-173 0 -298 146q-124 146 -124 377q0 219 135 369q135 151 328 151q238 0 323 -219l25 190h186q-1 -20 -11.5 -90.5t-32.5 -192.5l-42 -235
q0 -35 4 -79.5t12 -89.5t21.5 -86.5t32.5 -71.5q33 -51 59 -54q14 -1 43 -1.5t74 -0.5v-66zM281 481q0 -66 13.5 -137t45.5 -130.5t85.5 -97.5t133.5 -38q145 0 206 139q62 141 62 305q0 127 -65 271q-65 143 -207 143q-123 0 -199 -124q-75 -124 -75 -331z" />
    <glyph glyph-name="epsilontonos" unicode="&#x3ad;" horiz-adv-x="958" 
d="M725 1534l-207 -395h-68l66 420h209v-25zM940 252q-137 -281 -430 -281q-189 0 -307 79q-119 80 -119 212q0 63 22.5 109t61.5 77t90.5 48t108.5 20v10q-248 44 -248 234q0 101 103 177q104 77 290 77q87 0 154.5 -16t114.5 -46t71.5 -73t24.5 -97q0 -123 -101 -123
q-27 0 -49 7t-38 20t-25 30t-9 36q0 16 2 33.5t6 37.5l13 72q-68 43 -162 43q-39 0 -74.5 -12t-62 -34.5t-42.5 -55.5t-16 -74q0 -104 48.5 -152.5t164.5 -48.5h84v-92h-108q-219 0 -219 -193q0 -96 65 -149t183 -53q219 0 333 221z" />
    <glyph glyph-name="etatonos" unicode="&#x3ae;" horiz-adv-x="1169" 
d="M799 1534l-207 -395h-68l66 420h209v-25zM815 -444v1120q0 51 -13.5 92t-37 69t-55.5 43t-70 15q-162 0 -252 -150v-745h-186v776q0 129 -156 135v66l328 20l14 -14v-137h4q156 168 330 168q136 0 209.5 -86t73.5 -240v-1132h-189z" />
    <glyph glyph-name="iotatonos" unicode="&#x3af;" horiz-adv-x="604" 
d="M508 1534l-207 -395h-68l66 420h209v-25zM598 16q-106 -36 -207 -36q-188 0 -188 215l2 583q0 39 -14.5 63.5t-38.5 39t-55 21t-64 9.5v66l344 20l12 -14v-774q0 -131 143 -131q19 0 35.5 1t30.5 3v-66z" />
    <glyph glyph-name="upsilondieresistonos" unicode="&#x3b0;" horiz-adv-x="1108" 
d="M740 1528l-205 -385h-59l73 405h191v-20zM856 1214q-25 0 -46.5 10t-37 27t-24 39.5t-8.5 46.5t8.5 46.5t24 39.5t37 27t46.5 10t46 -9.5t36.5 -26.5t24 -39t8.5 -48q0 -24 -8.5 -46.5t-23.5 -39.5t-36 -27t-47 -10zM306 1214q-25 0 -46.5 10t-36.5 27t-23.5 39.5
t-8.5 46.5q0 26 8.5 48t24 39t36.5 26.5t46 9.5t46.5 -10t37 -27t24 -39.5t8.5 -46.5t-9 -46t-24.5 -39.5t-36.5 -27.5t-46 -10zM6 942q134 57 205 57q57 0 93 -17t56.5 -47.5t27.5 -73t7 -93.5l-4 -416q-1 -125 46 -197q47 -69 173 -69q134 0 219 118q86 119 86 308
q0 161 -96 234q-23 17 -41 33t-30 34.5t-18.5 41t-6.5 52.5q0 46 31.5 71.5t79.5 25.5q188 0 188 -369q0 -293 -127 -478q-127 -186 -336 -186q-80 0 -146 22t-113.5 65.5t-73.5 107t-25 145.5l2 467q0 109 -99 109q-12 0 -36.5 -2t-61.5 -6v63z" />
    <glyph glyph-name="alpha" unicode="&#x3b1;" horiz-adv-x="1225" 
d="M1229 18q-120 -38 -195 -38q-92 0 -133.5 58t-52.5 163q-143 -230 -354 -230q-173 0 -298 146q-124 146 -124 377q0 219 135 369q135 151 328 151q238 0 323 -219l25 190h186q-1 -20 -11.5 -90.5t-32.5 -192.5l-42 -235q0 -35 4 -79.5t12 -89.5t21.5 -86.5t32.5 -71.5
q33 -51 59 -54q14 -1 43 -1.5t74 -0.5v-66zM281 481q0 -66 13.5 -137t45.5 -130.5t85.5 -97.5t133.5 -38q145 0 206 139q62 141 62 305q0 127 -65 271q-65 143 -207 143q-123 0 -199 -124q-75 -124 -75 -331z" />
    <glyph glyph-name="beta" unicode="&#x3b2;" horiz-adv-x="1157" 
d="M358 43v-487h-186v1448q0 74 6.5 140t27 124.5t59 110.5t101.5 97q106 74 263 74q78 0 149 -19t124.5 -58.5t85.5 -101.5t32 -148q0 -66 -22.5 -120.5t-62 -95.5t-93.5 -67.5t-117 -36.5l4 -8q83 -10 148 -45.5t110.5 -90.5t69.5 -126t24 -152q0 -221 -139 -363
q-138 -143 -334 -143q-147 0 -241 68h-9zM512 842v94h70q108 0 182 74t74 207q0 51 -13 97.5t-39.5 82.5t-67.5 57t-97 21q-263 0 -263 -416v-850q70 -160 234 -160q126 0 203 113t77 315q0 71 -10 137t-38.5 116.5t-81 81t-136.5 30.5h-94z" />
    <glyph glyph-name="gamma" unicode="&#x3b3;" horiz-adv-x="1053" 
d="M483 14q-69 215 -186 483q-58 135 -95.5 219t-54.5 119q-34 70 -159 76v66l297 20l14 -14q5 -11 10 -23l10 -24l70 -165q190 -434 203 -589q16 49 119 260q80 165 80 230q0 49 -15 122q-16 71 -16 103q0 24 9.5 45.5t26 37.5t38 25t45.5 9q114 0 114 -117
q0 -111 -167 -415q-157 -283 -210 -429q6 -52 12 -93q10 -64 14.5 -110t4.5 -75q0 -138 -28 -178q-29 -41 -80 -41q-105 0 -105 131q0 137 49 327z" />
    <glyph glyph-name="delta" unicode="&#x3b4;" horiz-adv-x="1104" 
d="M764 1434q-61 41 -176 41q-39 0 -79.5 -12t-73.5 -35t-54 -57.5t-21 -78.5q0 -73 53 -126q52 -51 265 -167q185 -99 269 -210q85 -109 85 -308q0 -104 -34 -197t-97 -163t-151.5 -111t-196.5 -41q-111 0 -200 39t-152 107.5t-97 161t-34 200.5q0 99 30.5 182t86.5 145
t135 103t176 56v6q-179 65 -258 136q-78 72 -78 175q0 111 110 191q109 79 312 79q172 0 275 -61q104 -62 104 -162q0 -125 -103 -125q-60 0 -90.5 27.5t-30.5 64.5q0 42 10 75q5 17 8.5 33t6.5 32zM571 903q-134 0 -213 -118q-79 -116 -79 -312q0 -187 74 -308
q74 -120 198 -120q54 0 95.5 20t71.5 53t51 76.5t33 91.5t17.5 96t5.5 91q0 51 -6.5 105.5t-23 105.5t-46 95t-75.5 74q-76 50 -103 50z" />
    <glyph glyph-name="epsilon" unicode="&#x3b5;" horiz-adv-x="958" 
d="M940 252q-137 -281 -430 -281q-189 0 -307 79q-119 80 -119 212q0 63 22.5 109t61.5 77t90.5 48t108.5 20v10q-248 44 -248 234q0 101 103 177q104 77 290 77q87 0 154.5 -16t114.5 -46t71.5 -73t24.5 -97q0 -123 -101 -123q-27 0 -49 7t-38 20t-25 30t-9 36q0 16 2 33.5
t6 37.5l13 72q-68 43 -162 43q-39 0 -74.5 -12t-62 -34.5t-42.5 -55.5t-16 -74q0 -104 48.5 -152.5t164.5 -48.5h84v-92h-108q-219 0 -219 -193q0 -96 65 -149t183 -53q219 0 333 221z" />
    <glyph glyph-name="zeta" unicode="&#x3b6;" horiz-adv-x="827" 
d="M895 1354q-614 -440 -614 -885q0 -288 266 -299q201 0 264 -71q63 -70 63 -183q0 -125 -105 -225q-106 -101 -251 -101q-192 0 -192 101q0 88 96 88q51 0 128 -67q10 -8 20.5 -15.5t23.5 -13.5q36 2 66.5 17t52.5 39t34.5 56t12.5 68q0 50 -23.5 84.5t-73.5 47.5
q-20 5 -57 8.5t-94 5.5q-225 9 -326 126q-100 116 -100 281q0 208 136 414q69 105 189 228t294 269v10l-367 -4q-195 -1 -195 111q0 96 95 96q67 0 137 -57q70 -58 127 -58q95 0 393 21v-92z" />
    <glyph glyph-name="eta" unicode="&#x3b7;" horiz-adv-x="1169" 
d="M815 -444v1120q0 51 -13.5 92t-37 69t-55.5 43t-70 15q-162 0 -252 -150v-745h-186v776q0 129 -156 135v66l328 20l14 -14v-137h4q156 168 330 168q136 0 209.5 -86t73.5 -240v-1132h-189z" />
    <glyph glyph-name="theta" unicode="&#x3b8;" horiz-adv-x="1139" 
d="M569 -31q-225 0 -353 219q-128 221 -128 572q0 363 129 576q129 214 352 214t352 -215q130 -214 130 -573q0 -361 -131 -578q-131 -215 -351 -215zM846 831q-5 644 -277 644q-269 0 -274 -644h551zM846 743h-551v-34q0 -664 274 -664q277 0 277 664v34z" />
    <glyph glyph-name="iota" unicode="&#x3b9;" horiz-adv-x="604" 
d="M598 16q-106 -36 -207 -36q-188 0 -188 215l2 583q0 39 -14.5 63.5t-38.5 39t-55 21t-64 9.5v66l344 20l12 -14v-774q0 -131 143 -131q19 0 35.5 1t30.5 3v-66z" />
    <glyph glyph-name="kappa" unicode="&#x3ba;" horiz-adv-x="1098" 
d="M1118 31q-125 -49 -219 -49q-99 0 -149 48q-48 47 -173 286l-92 173l-98 -108v-381h-186v776q0 129 -156 135v66l328 20l14 -14v-504q317 396 389 459q71 63 137 63q121 0 121 -124q0 -23 -8.5 -43t-23.5 -34.5t-35.5 -23t-44.5 -8.5q-47 0 -146 43q-37 -25 -114 -117
q-11 -14 -24.5 -29t-29.5 -32q221 -412 287 -481q66 -66 131 -66q17 0 40 2t52 6v-63z" />
    <glyph glyph-name="lambda" unicode="&#x3bb;" horiz-adv-x="999" 
d="M336 1321q-23 2 -50.5 2.5t-61.5 -0.5q-66 0 -96 35t-30 76q0 27 12 48.5t31 36.5t43 23t49 8q161 0 236 -221l290 -815q131 -364 168 -398q38 -34 99 -34h45v-64q-119 -38 -174 -38q-82 0 -119 67q-37 66 -118 388q-37 146 -93 333l-166 -343q-166 -346 -186 -425h-227
l487 987q-59 203 -139 334z" />
    <glyph glyph-name="uni03BC" unicode="&#x3bc;" horiz-adv-x="1186" 
d="M1163 18q-106 -36 -174 -36q-169 0 -192 153h-6q-37 -41 -70 -70.5t-69 -48.5t-78.5 -27.5t-98.5 -8.5q-122 0 -186 79h-6v-57q0 -36 6.5 -83t19.5 -107q25 -116 25 -150q0 -23 -9 -42.5t-25 -33.5t-36 -22t-43 -8q-40 0 -69 26t-29 74t30 219q21 120 21 260v850h191
v-676q0 -41 11.5 -80t34 -69.5t56 -49t78.5 -18.5q162 0 250 139v754h190v-782q0 -59 24 -85q26 -26 49 -30t105 -4v-66z" />
    <glyph glyph-name="nu" unicode="&#x3bd;" horiz-adv-x="1026" 
d="M305 983q8 -43 29.5 -109.5t56.5 -158.5l184 -484q64 130 102.5 212t52.5 118q28 72 28 113q0 60 -9 127q-5 33 -7.5 57t-2.5 39q0 24 10.5 45.5t27.5 37.5t39 25t46 9q111 0 111 -113q0 -69 -75 -206q-11 -19 -21 -39.5t-21 -43.5q-31 -61 -82 -158.5t-123 -232.5
q-44 -87 -96 -229h-86l-116 304q-185 494 -217 549q-33 59 -150 66v66l307 20z" />
    <glyph glyph-name="xi" unicode="&#x3be;" horiz-adv-x="903" 
d="M860 1341h-129q-70 0 -139 -14.5t-123 -48.5t-87.5 -89.5t-33.5 -137.5q0 -115 82 -178.5t232 -63.5h145v-107h-197q-334 0 -334 -282q0 -61 18.5 -108.5t53 -80t83.5 -49t110 -16.5h133q123 0 187.5 -66t64.5 -184q0 -124 -107 -225t-252 -101q-192 0 -192 101
q0 88 96 88q54 0 130 -67q19 -18 42 -29q38 2 68.5 16.5t52 38.5t33.5 56t12 69q0 143 -180 143h-156q-81 0 -152 25.5t-124 73t-84 115t-31 151.5q0 82 31 149t83.5 117t121.5 81.5t145 43.5v6q-311 53 -311 279q0 217 292 296v17q-145 -6 -215 -6q-182 0 -182 100
q0 96 90 96q63 0 139 -56t130 -56q63 0 176 4t278 12v-113z" />
    <glyph glyph-name="omicron" unicode="&#x3bf;" horiz-adv-x="1104" 
d="M543 -31q-198 0 -336 146q-137 146 -137 374q0 110 33 206t95.5 167t153 111.5t205.5 40.5q111 0 199 -39.5t149.5 -108.5t94 -162t32.5 -200q0 -111 -32.5 -208.5t-95 -170t-153.5 -114.5t-208 -42zM555 938q-56 0 -99 -19.5t-74 -52.5t-51.5 -76.5t-32.5 -91.5
t-17 -97.5t-5 -94.5q0 -44 4.5 -95.5t16.5 -103t32 -99t51 -83.5t74 -58t101 -22q56 0 97.5 22t71.5 58.5t49.5 84t31 98t16 101t4.5 93.5q0 44 -4.5 93t-16 97.5t-30.5 93t-49 78.5t-72 54t-98 20z" />
    <glyph glyph-name="pi" unicode="&#x3c0;" horiz-adv-x="1231" 
d="M299 174q107 240 107 553q0 28 -1.5 61.5t-3.5 73.5h-61q-163 0 -178 -200h-64q-4 35 -6 64t-2 52q0 78 63 142q63 65 164 65h859v-123h-226v-653q0 -131 146 -131q20 0 36.5 1t30.5 3v-66q-106 -36 -211 -36q-190 0 -190 215v667h-262l2 -71q9 -330 -80 -573
q-88 -241 -236 -241q-54 0 -84 34t-30 85q0 21 7.5 40.5t21.5 34t33 23.5t42 9q33 0 123 -29z" />
    <glyph glyph-name="rho" unicode="&#x3c1;" horiz-adv-x="1143" 
d="M350 41v-485h-186v991q0 108 31 194t90 147t144 93.5t194 32.5q199 0 321 -137q123 -136 123 -371q0 -224 -138 -379q-138 -154 -325 -154q-146 0 -246 68h-8zM604 936q-89 0 -146 -46.5t-84 -129.5q-26 -84 -26 -363q0 -137 3 -184q5 -48 74 -107q71 -59 165 -59
q120 0 195 125q75 126 75 336q0 428 -256 428z" />
    <glyph glyph-name="uni03C2" unicode="&#x3c2;" horiz-adv-x="913" 
d="M586 -317q36 3 68.5 19t57 41.5t38.5 58.5t14 71q0 119 -181 141q-67 8 -130.5 22t-120 39t-105.5 65t-88 100q-71 110 -71 252q0 239 140 381q140 141 322 141q157 0 254 -65q97 -64 97 -167q0 -123 -101 -123q-54 0 -87.5 26.5t-33.5 66.5q0 16 2 33.5t6 37.5l13 72
q-67 43 -150 43q-111 0 -193 -103q-81 -103 -81 -294q0 -144 71 -236q72 -89 267 -118q110 -16 162 -39q26 -11 49 -30.5t40.5 -47t27.5 -63.5t10 -79q0 -137 -108 -236q-106 -100 -263 -100q-205 0 -205 105q0 86 96 86q52 0 137 -70q22 -17 46 -30z" />
    <glyph glyph-name="sigma" unicode="&#x3c3;" horiz-adv-x="1174" 
d="M1153 862h-276v-4q155 -161 155 -371q0 -108 -34 -202t-97 -164.5t-153 -111t-201 -40.5q-204 0 -340 136q-137 137 -137 356q0 123 37 220t105.5 164.5t166 103.5t219.5 36h555v-123zM598 862q-322 0 -322 -401q0 -44 5.5 -92t18.5 -94t34 -88t52 -73.5t73 -50t96 -18.5
q55 0 96.5 22t71.5 58t50 83t31.5 97t16 100.5t4.5 92.5q0 219 -84 364h-143z" />
    <glyph glyph-name="tau" unicode="&#x3c4;" horiz-adv-x="924" 
d="M903 862h-340v-528q0 -144 26 -191q26 -45 122 -45q74 0 131 19v-74q-141 -63 -254 -63q-211 0 -211 237v645h-90q-164 0 -178 -200h-64q-6 80 -6 116q0 47 18.5 85t49 65t71.5 42t86 15h639v-123z" />
    <glyph glyph-name="upsilon" unicode="&#x3c5;" horiz-adv-x="1108" 
d="M6 942q134 57 205 57q57 0 93 -17t56.5 -47.5t27.5 -73t7 -93.5l-4 -416q-1 -125 46 -197q47 -69 173 -69q134 0 219 118q86 119 86 308q0 161 -96 234q-23 17 -41 33t-30 34.5t-18.5 41t-6.5 52.5q0 46 31.5 71.5t79.5 25.5q188 0 188 -369q0 -293 -127 -478
q-127 -186 -336 -186q-80 0 -146 22t-113.5 65.5t-73.5 107t-25 145.5l2 467q0 109 -99 109q-12 0 -36.5 -2t-61.5 -6v63z" />
    <glyph glyph-name="phi" unicode="&#x3c6;" horiz-adv-x="1425" 
d="M805 -444h-187v415q-258 13 -404 156q-144 143 -144 362q0 413 424 519l14 -82q-229 -82 -229 -437q0 -81 18.5 -159t59.5 -140t105.5 -101t155.5 -42v725q0 63 24.5 109t66 75.5t94.5 43.5t110 14q176 0 309 -133q134 -134 134 -357q0 -121 -42 -220t-116 -171
t-175 -114t-218 -48v-415zM805 47q98 7 163.5 52t105.5 112.5t56.5 151.5t16.5 169q0 190 -65 297t-162 107q-23 0 -44 -8t-36.5 -23t-25 -37t-9.5 -49v-772z" />
    <glyph glyph-name="chi" unicode="&#x3c7;" horiz-adv-x="1036" 
d="M612 256q154 -319 219 -428q67 -112 105 -140q41 -30 111 -30h51v-64q-117 -38 -183 -38q-67 0 -119 50q-51 49 -243 546q-142 -263 -219 -412.5t-88 -183.5h-226l439 759q-207 429 -274 502q-68 74 -189 74v63q119 45 184 45q77 0 115 -56q39 -55 138 -312
q23 -63 44 -115t39 -96l176 333q35 66 63.5 123.5t51.5 108.5h225z" />
    <glyph glyph-name="psi" unicode="&#x3c8;" horiz-adv-x="1495" 
d="M887 -444h-187v415q-120 6 -214 35t-158 81t-97 124.5t-32 165.5l4 401q1 109 -101 109q-14 0 -38 -2t-58 -6v63q131 57 203 57q49 0 84.5 -12.5t58 -40t32.5 -71.5t9 -107l-2 -401q-1 -145 87 -224t222 -88v930h187v-930q185 16 295 153q110 139 110 324q0 151 -86 220
q-20 16 -36 30t-27 29.5t-17 35t-6 46.5q0 111 115 111q174 0 174 -326q0 -130 -28.5 -250.5t-91 -216.5t-161.5 -159.5t-241 -80.5v-415z" />
    <glyph glyph-name="omega" unicode="&#x3c9;" horiz-adv-x="1464" 
d="M934 997q110 -10 195 -52.5t143.5 -110.5t88.5 -159.5t30 -199.5q0 -222 -109 -364t-278 -142q-165 0 -273 168q-105 -168 -270 -168q-171 0 -279 142q-108 143 -108 364q0 108 30 199.5t88 159.5t143 110.5t195 52.5l17 -79q-268 -31 -268 -476q0 -30 2.5 -71t9.5 -84.5
t20.5 -85.5t35 -75.5t52.5 -54t74 -20.5q166 0 166 236v368h186v-368q0 -236 164 -236q43 0 74.5 20.5t53 53.5t35.5 75t21.5 85.5t10 84.5t2.5 72q0 442 -268 476z" />
    <glyph glyph-name="iotadieresis" unicode="&#x3ca;" horiz-adv-x="604" 
d="M487 1241q-26 0 -48 10t-37.5 26.5t-24.5 39t-9 47.5t9 47.5t25 39t38 26.5t47 10q26 0 47.5 -10t37.5 -26.5t25 -39t9 -47.5q0 -24 -9.5 -46.5t-25.5 -39.5t-37.5 -27t-46.5 -10zM57 1241q-25 0 -46.5 10t-37.5 27t-25.5 39.5t-9.5 46.5q0 25 9 47.5t25 39t38 26.5
t47 10t46.5 -10t37.5 -27t25.5 -39.5t9.5 -46.5q0 -25 -9 -47t-25 -39t-38 -27t-47 -10zM598 16q-106 -36 -207 -36q-188 0 -188 215l2 583q0 39 -14.5 63.5t-38.5 39t-55 21t-64 9.5v66l344 20l12 -14v-774q0 -131 143 -131q19 0 35.5 1t30.5 3v-66z" />
    <glyph glyph-name="upsilondieresis" unicode="&#x3cb;" horiz-adv-x="1108" 
d="M774 1241q-26 0 -48 10t-37.5 26.5t-24.5 39t-9 47.5t9 47.5t25 39t38 26.5t47 10q26 0 47.5 -10t37.5 -26.5t25 -39t9 -47.5q0 -24 -9.5 -46.5t-25.5 -39.5t-37.5 -27t-46.5 -10zM344 1241q-25 0 -47 10t-38 26.5t-25 39t-9 47.5t9 47.5t25 39t38 26.5t47 10t46.5 -10
t37.5 -27t25.5 -39.5t9.5 -46.5q0 -25 -9 -47t-25 -39t-38 -27t-47 -10zM6 942q134 57 205 57q57 0 93 -17t56.5 -47.5t27.5 -73t7 -93.5l-4 -416q-1 -125 46 -197q47 -69 173 -69q134 0 219 118q86 119 86 308q0 161 -96 234q-23 17 -41 33t-30 34.5t-18.5 41t-6.5 52.5
q0 46 31.5 71.5t79.5 25.5q188 0 188 -369q0 -293 -127 -478q-127 -186 -336 -186q-80 0 -146 22t-113.5 65.5t-73.5 107t-25 145.5l2 467q0 109 -99 109q-12 0 -36.5 -2t-61.5 -6v63z" />
    <glyph glyph-name="omicrontonos" unicode="&#x3cc;" horiz-adv-x="1104" 
d="M772 1534l-207 -395h-68l66 420h209v-25zM543 -31q-198 0 -336 146q-137 146 -137 374q0 110 33 206t95.5 167t153 111.5t205.5 40.5q111 0 199 -39.5t149.5 -108.5t94 -162t32.5 -200q0 -111 -32.5 -208.5t-95 -170t-153.5 -114.5t-208 -42zM555 938q-56 0 -99 -19.5
t-74 -52.5t-51.5 -76.5t-32.5 -91.5t-17 -97.5t-5 -94.5q0 -44 4.5 -95.5t16.5 -103t32 -99t51 -83.5t74 -58t101 -22q56 0 97.5 22t71.5 58.5t49.5 84t31 98t16 101t4.5 93.5q0 44 -4.5 93t-16 97.5t-30.5 93t-49 78.5t-72 54t-98 20z" />
    <glyph glyph-name="upsilontonos" unicode="&#x3cd;" horiz-adv-x="1108" 
d="M779 1534l-207 -395h-68l66 420h209v-25zM6 942q134 57 205 57q57 0 93 -17t56.5 -47.5t27.5 -73t7 -93.5l-4 -416q-1 -125 46 -197q47 -69 173 -69q134 0 219 118q86 119 86 308q0 161 -96 234q-23 17 -41 33t-30 34.5t-18.5 41t-6.5 52.5q0 46 31.5 71.5t79.5 25.5
q188 0 188 -369q0 -293 -127 -478q-127 -186 -336 -186q-80 0 -146 22t-113.5 65.5t-73.5 107t-25 145.5l2 467q0 109 -99 109q-12 0 -36.5 -2t-61.5 -6v63z" />
    <glyph glyph-name="omegatonos" unicode="&#x3ce;" horiz-adv-x="1464" 
d="M947 1534l-207 -395h-68l66 420h209v-25zM934 997q110 -10 195 -52.5t143.5 -110.5t88.5 -159.5t30 -199.5q0 -222 -109 -364t-278 -142q-165 0 -273 168q-105 -168 -270 -168q-171 0 -279 142q-108 143 -108 364q0 108 30 199.5t88 159.5t143 110.5t195 52.5l17 -79
q-268 -31 -268 -476q0 -30 2.5 -71t9.5 -84.5t20.5 -85.5t35 -75.5t52.5 -54t74 -20.5q166 0 166 236v368h186v-368q0 -236 164 -236q43 0 74.5 20.5t53 53.5t35.5 75t21.5 85.5t10 84.5t2.5 72q0 442 -268 476z" />
    <glyph glyph-name="uni0401" unicode="&#x401;" horiz-adv-x="1337" 
d="M913 1608q-26 0 -48 10t-37.5 26.5t-24.5 39t-9 47.5t9 47t25 38.5t38 26.5t47 10t46.5 -10t37 -26.5t24.5 -38.5t9 -47q0 -26 -9 -48.5t-25 -39t-37.5 -26t-45.5 -9.5zM463 1608q-24 0 -45.5 9.5t-37.5 26t-25 39t-9 48.5q0 25 9 47t24.5 38.5t37 26.5t46.5 10t47 -10
t38 -26.5t25 -38.5t9 -47t-9 -47.5t-24.5 -39t-37.5 -26.5t-48 -10zM1264 0h-1178v72q132 10 168 34q35 24 35 87v1019q0 35 -13.5 59t-40 40t-64 24.5t-85.5 12.5v71h1098v-342h-74q-21 78 -80 152q-59 75 -100 92q-42 18 -205 18h-223v-563h160q62 0 103 14.5t67 43.5
t40 72.5t23 101.5h74v-555h-74q-2 25 -9.5 54t-18.5 63q-13 40 -32 64t-44.5 37.5t-57.5 18t-71 4.5h-160v-426q0 -122 38 -154q40 -32 203 -32h87q141 0 189 22q30 14 61 53t58.5 87t48.5 95.5t32 78.5h71z" />
    <glyph glyph-name="uni0402" unicode="&#x402;" horiz-adv-x="1608" 
d="M727 0h-426v72q134 11 173 33q40 24 40 92v1144h-45q-144 0 -188 -15q-42 -13 -105 -105q-62 -90 -90 -187h-72v385h1225v-375h-70q-19 83 -82 170q-62 87 -103 107q-42 20 -198 20h-59v-573q212 119 379 119q100 0 181 -30t138 -86.5t88 -136.5t31 -181
q0 -184 -123 -333q-123 -147 -317 -147q-118 0 -181 39t-63 105q0 46 26.5 77t71.5 31q97 0 151 -124l26 -58q184 40 184 363q0 166 -78.5 259t-226.5 93q-126 0 -287 -70v-688z" />
    <glyph glyph-name="uni0403" unicode="&#x403;" horiz-adv-x="1194" 
d="M485 1546q84 79 149 143t113 115q60 64 115 64q39 0 65.5 -22.5t26.5 -57.5q0 -48 -35 -77q-17 -14 -65.5 -39.5t-127.5 -62.5q-94 -43 -210 -102zM1104 1022q-8 31 -25.5 75.5t-41.5 88t-52.5 80t-58.5 50.5q-49 23 -221 23h-203v-1136q0 -59 43 -90q42 -30 178 -41v-72
h-637v72q57 5 91.5 8t46.5 5q25 5 45 31t20 72v1024q0 35 -13.5 59t-40 40t-64 24.5t-85.5 12.5v71h1094v-397h-76z" />
    <glyph glyph-name="uni0404" unicode="&#x404;" horiz-adv-x="1346" 
d="M309 631q21 -268 149 -425q128 -155 320 -155q176 0 297 96q-4 60 -6 97.5t-2 54.5q0 60 33.5 95.5t91.5 35.5q111 0 111 -135q0 -130 -155 -229q-154 -99 -390 -99q-305 0 -493 198q-187 197 -187 531q0 330 194 542q195 212 484 212q194 0 352 -98l39 67h80l10 -506
h-84q-97 453 -385 453q-208 0 -334 -171q-126 -172 -127 -486q173 125 275 125q66 0 168 -41q100 -41 161 -41q62 0 136 59l43 -53q-148 -148 -283 -148q-67 0 -166 41t-154 41q-87 0 -178 -61z" />
    <glyph glyph-name="uni0405" unicode="&#x405;" horiz-adv-x="1149" 
d="M188 0h-79l-15 485h80q122 -428 430 -428q268 0 268 250q0 34 -8.5 67t-24 63.5t-38 56.5t-51.5 45q-48 32 -148 70q-195 72 -281 119q-84 48 -136 133t-52 204q0 161 126 273q127 112 304 112q155 0 318 -98l41 67h79l9 -471h-82q-13 51 -29.5 101t-38 96.5t-49.5 86.5
t-65.5 69t-85.5 46t-109 17q-45 0 -86.5 -15t-73 -43t-50.5 -67t-19 -86q0 -104 56 -172q58 -69 254 -139q252 -91 345 -187q92 -95 92 -252q0 -102 -39.5 -182t-106 -135.5t-154 -85t-183.5 -29.5q-185 0 -355 101z" />
    <glyph glyph-name="uni0406" unicode="&#x406;" horiz-adv-x="799" 
d="M80 0v72q143 11 177 29q36 20 36 85v1028q0 41 -21.5 66t-54 39t-69.5 20t-68 9v71h639v-71q-135 -10 -174 -36q-39 -25 -39 -87v-1026q0 -53 34 -84t179 -43v-72h-639z" />
    <glyph glyph-name="uni0407" unicode="&#x407;" horiz-adv-x="799" 
d="M616 1608q-26 0 -48 10t-37.5 26.5t-24.5 39t-9 47.5t9 47.5t25 39t38 26.5t47 10q26 0 47.5 -10t37.5 -26.5t25 -39t9 -47.5q0 -24 -9.5 -46.5t-25.5 -39.5t-37.5 -27t-46.5 -10zM186 1608q-25 0 -47 10t-38 26.5t-25 39t-9 47.5t9 47.5t25 39t38 26.5t47 10t46.5 -10
t37.5 -27t25.5 -39.5t9.5 -46.5q0 -25 -9 -47t-25 -39t-38 -27t-47 -10zM80 0v72q143 11 177 29q36 20 36 85v1028q0 41 -21.5 66t-54 39t-69.5 20t-68 9v71h639v-71q-135 -10 -174 -36q-39 -25 -39 -87v-1026q0 -53 34 -84t179 -43v-72h-639z" />
    <glyph glyph-name="uni0408" unicode="&#x408;" horiz-adv-x="1061" 
d="M1006 1348q-126 -10 -162 -36q-35 -24 -35 -89v-840q0 -158 -119 -289q-118 -129 -313 -129q-78 0 -145.5 22t-116.5 65t-77 106t-28 145q0 32 8 63t25 55.5t42.5 40t61.5 15.5q63 0 98.5 -34.5t35.5 -88.5q0 -56 -76 -174q-18 -27 -27 -55v-2q63 -82 184 -82t176 93
q56 95 56 329v749q0 121 -213 136v71h625v-71z" />
    <glyph glyph-name="uni0409" unicode="&#x409;" horiz-adv-x="2073" 
d="M666 1335q0 -649 -154 -1002q-155 -353 -358 -353q-32 0 -64 8.5t-57 26.5t-40.5 45t-15.5 63q0 25 8.5 48t23.5 40.5t36 28t47 10.5q89 0 144 -91q12 -22 22 -34q105 88 195 370t90 607q0 110 -24 165q-22 57 -200 81v71h1139v-71q-126 -11 -161 -38t-35 -91v-404
q50 2 97.5 3t94.5 1q134 0 238 -25.5t175.5 -76t108.5 -125.5t37 -174q0 -196 -141 -307t-344 -111h-670v72q137 6 164 37q27 32 27 79v1147h-383zM1262 209q0 -71 45 -100t147 -29q311 0 311 354q0 74 -26 129.5t-71 93t-106 56t-130 18.5q-58 0 -100.5 -1t-69.5 -3v-518z
" />
    <glyph glyph-name="uni040A" unicode="&#x40a;" horiz-adv-x="2181" 
d="M502 711v-510q0 -61 37 -91q38 -29 147 -38v-72h-588v72q137 6 164 37q27 32 27 79v1024q0 119 -191 136v71h588v-71q-103 -9 -145 -32q-39 -22 -39 -93v-424h655v409q0 40 -17 65.5t-44 41t-60.5 23t-66.5 10.5v71h600v-71q-127 -10 -163 -39q-36 -27 -36 -90v-404
q52 2 100.5 3t94.5 1q134 0 238 -25.5t175.5 -76t108.5 -125.5t37 -174q0 -196 -142 -307q-141 -111 -346 -111h-671v72q122 11 156 34q36 24 36 87v518h-655zM1370 209q0 -72 46 -100.5t149 -28.5q311 0 311 354q0 74 -26.5 129.5t-71.5 93t-106 56t-130 18.5
q-57 0 -100 -1t-72 -3v-518z" />
    <glyph glyph-name="uni040B" unicode="&#x40b;" horiz-adv-x="1720" 
d="M727 760q221 127 379 127q196 0 294 -79q99 -78 99 -292v-309q0 -118 191 -135v-72h-590v72q121 11 151 35q33 26 33 90v272q0 107 -18 162q-17 55 -73 90t-163 35q-158 0 -303 -76v-479q0 -63 39 -92q40 -27 158 -37v-72h-627v72q137 11 177 33q40 24 40 92v1144h-45
q-144 0 -188 -15q-42 -13 -105 -105q-62 -90 -90 -187h-72v385h1225v-375h-70q-19 83 -82 170q-62 87 -103 107q-42 20 -198 20h-59v-581z" />
    <glyph glyph-name="uni040C" unicode="&#x40c;" horiz-adv-x="1423" 
d="M598 1546q84 79 149 143t113 115q60 64 115 64q39 0 65.5 -22.5t26.5 -57.5q0 -48 -35 -77q-17 -14 -65.5 -39.5t-127.5 -62.5q-94 -43 -210 -102zM502 201q0 -53 30 -85q32 -32 158 -44v-72h-588v72q116 11 136 19q21 9 36 33t15 64v1024q0 120 -187 136v71h588v-71
q-105 -9 -147 -32q-41 -23 -41 -93v-486h92q59 0 102.5 33.5t74 83t51.5 106t35 101.5q20 66 48 132t69 119t98.5 86.5t137.5 33.5q81 0 124.5 -36t43.5 -93q0 -48 -26.5 -81.5t-75.5 -33.5q-34 0 -58.5 11t-43 30t-32.5 43.5t-28 52.5q-69 -41 -133 -255
q-68 -224 -188 -331v-14q112 -31 181 -96q71 -65 106 -134q18 -35 52.5 -108.5t86.5 -185.5q37 -81 72 -100q34 -18 155 -29v-72h-391q-22 63 -53.5 142.5t-73.5 178.5q-83 198 -152 264q-71 68 -203 68h-71v-452z" />
    <glyph glyph-name="uni040E" unicode="&#x40e;" horiz-adv-x="1346" 
d="M913 1661q-37 80 -37 119q0 46 31 72t76 26t72.5 -32t27.5 -83q0 -94 -100 -164q-100 -69 -285 -69q-184 0 -283 69q-98 69 -98 164q0 51 27.5 83t70.5 32q107 0 107 -98q0 -35 -13 -64q-7 -15 -12 -28.5t-10 -26.5q63 -64 211 -64q151 0 215 64zM-35 1419h598v-71
q-176 -14 -176 -50q0 -17 21 -55q9 -17 22 -42t30 -59q60 -118 137 -265.5t173 -327.5q291 629 291 719q0 60 -197 80v71h531v-71q-157 -16 -210 -119q-52 -102 -285 -615q-63 -138 -112 -235.5t-84 -156.5q-70 -118 -159.5 -180t-198.5 -62q-31 0 -65 9.5t-61.5 28
t-45.5 46t-18 63.5q0 24 7.5 46.5t21 40t34 28t45.5 10.5q83 0 139 -104q13 -26 29 -50q113 25 223 228l-479 907q-61 100 -211 115v71z" />
    <glyph glyph-name="uni040F" unicode="&#x40f;" horiz-adv-x="1659" 
d="M788 -344q-48 335 -155 344h-535v72q137 6 164 37q27 32 27 79v1024q0 119 -191 136v71h584v-71q-100 -8 -140 -30t-40 -95v-1026q0 -81 77 -104q36 -11 261 -11q110 0 176.5 1.5t91.5 5.5q49 7 49 85v1038q0 72 -51 100q-49 28 -131 36v71h581v-71q-63 -4 -125 -24
q-61 -18 -61 -101v-1022q0 -42 17.5 -66t45 -37.5t61.5 -18t67 -7.5v-72h-537q-110 0 -158 -344h-78z" />
    <glyph glyph-name="uni0410" unicode="&#x410;" horiz-adv-x="1374" 
d="M829 0v72q183 11 183 57q0 21 -8 43l-119 320h-498q-98 -255 -98 -332q0 -75 205 -88v-72h-535v72q66 5 121 32t87 87q26 48 186 459l306 790h80l473 -1225q51 -132 209 -143v-72h-592zM635 1130l-211 -550h426z" />
    <glyph glyph-name="uni0411" unicode="&#x411;" horiz-adv-x="1333" 
d="M94 0v72q120 9 157 34q38 26 38 87v1019q0 121 -187 136v71h1065v-348h-73q-21 79 -80 156q-57 75 -100 94q-40 18 -205 18h-207v-524q50 2 97.5 3t94.5 1q134 0 238 -25.5t175.5 -76t108.5 -125.5t37 -174q0 -196 -141 -307t-344 -111h-674zM502 209q0 -71 45 -100
t147 -29q312 0 312 354q0 74 -26.5 129.5t-71.5 92.5t-106 56t-130 19q-57 0 -99.5 -1t-70.5 -3v-518z" />
    <glyph glyph-name="uni0412" unicode="&#x412;" horiz-adv-x="1339" 
d="M94 0v72q120 9 157 34q38 26 38 87v1019q0 121 -187 136v71h656q73 0 146 -16.5t132 -53t96 -95.5t37 -144q0 -264 -335 -344v-8q413 -62 413 -373q0 -97 -42.5 -169.5t-110.5 -120.5t-153.5 -71.5t-172.5 -23.5h-674zM502 791h127q301 0 301 299q0 249 -266 249
q-45 0 -85.5 -1t-76.5 -3v-544zM502 207q0 -127 192 -127q307 0 307 342q0 72 -25.5 126.5t-69.5 90.5t-103 54t-127 18q-59 0 -102 -1t-72 -3v-500z" />
    <glyph glyph-name="uni0413" unicode="&#x413;" horiz-adv-x="1194" 
d="M1104 1022q-8 31 -25.5 75.5t-41.5 88t-52.5 80t-58.5 50.5q-49 23 -221 23h-203v-1136q0 -59 43 -90q42 -30 178 -41v-72h-637v72q57 5 91.5 8t46.5 5q25 5 45 31t20 72v1024q0 35 -13.5 59t-40 40t-64 24.5t-85.5 12.5v71h1094v-397h-76z" />
    <glyph glyph-name="uni0414" unicode="&#x414;" horiz-adv-x="1479" 
d="M299 2q-49 0 -117 -92q-67 -93 -108 -242h-74v418h137q43 68 83.5 150.5t76 173t65 186t51 190.5t33 185.5t11.5 171.5q0 126 -43 157q-42 33 -181 48v71h1143v-71q-102 -9 -144 -32q-40 -22 -40 -93v-1039q0 -98 117 -98h84v-418h-74q-93 315 -217 334h-803zM979 1335
h-399q0 -151 -19.5 -316.5t-59 -329t-99 -318.5t-138.5 -285h621q94 0 94 90v1159z" />
    <glyph glyph-name="uni0415" unicode="&#x415;" horiz-adv-x="1337" 
d="M1264 0h-1178v72q132 10 168 34q35 24 35 87v1019q0 35 -13.5 59t-40 40t-64 24.5t-85.5 12.5v71h1098v-342h-74q-21 78 -80 152q-59 75 -100 92q-42 18 -205 18h-223v-563h160q62 0 103 14.5t67 43.5t40 72.5t23 101.5h74v-555h-74q-2 25 -9.5 54t-18.5 63
q-13 40 -32 64t-44.5 37.5t-57.5 18t-71 4.5h-160v-426q0 -122 38 -154q40 -32 203 -32h87q141 0 189 22q30 14 61 53t58.5 87t48.5 95.5t32 78.5h71z" />
    </font>
</defs>
</svg>
