<?xml version="1.0" standalone="no"?>
<!DOCTYPE svg PUBLIC "-//W3C//DTD SVG 1.1//EN" "http://www.w3.org/Graphics/SVG/1.1/DTD/svg11.dtd" >
<svg xmlns="http://www.w3.org/2000/svg" xmlns:xlink="http://www.w3.org/1999/xlink" version="1.1">
<metadata>
Created by FontForge 20201107 at Thu Oct 21 09:40:03 2021
 By 
(c) 2011 Microsoft Corporation. All Rights Reserved.
</metadata>
<defs>
<font id="SVN-GeorgiaPro-LightItalic" horiz-adv-x="1038" >
  <font-face 
    font-family="SVN-Georgia Pro Light"
    font-weight="300"
    font-style="italic"
    font-stretch="normal"
    units-per-em="2048"
    panose-1="2 4 3 2 5 4 5 9 3 3"
    ascent="1638"
    descent="-410"
    x-height="979"
    cap-height="1419"
    bbox="-420 -621 2318 2201"
    underline-thickness="101"
    underline-position="-229"
    slope="-13"
    unicode-range="U+0020-FB04"
  />
<missing-glyph horiz-adv-x="2048" 
d="M256 0v1536h1536v-1536h-1536zM385 129h1280v1280h-1280v-1280z" />
    <glyph glyph-name="f_f" unicode="ff" horiz-adv-x="1155" 
d="M1237 981l-23 -84h-247l-168 -799q-20 -105 -66 -197.5t-109 -161.5t-138.5 -108t-155.5 -37q-24 0 -45.5 7t-38 19.5t-26 30t-9.5 38.5q0 29 18 52t62 23q15 0 28 -4t26.5 -13.5t29 -26.5t33.5 -44q94 7 162 106t106 279l176 836h-420l-176 -838q-21 -105 -67 -197.5
t-108.5 -161t-137.5 -107.5t-156 -37q-52 0 -85.5 27t-33.5 67q0 29 18.5 52.5t61.5 23.5q15 0 28 -4t26.5 -13.5t29 -26.5t33.5 -44q93 5 161 103.5t107 281.5l184 874h-194l18 84h195q59 254 188 389q131 137 291 137q50 0 84.5 -23t34.5 -61q0 -35 -20.5 -60.5
t-55.5 -25.5q-67 0 -129 93q-184 -13 -266 -392l-12 -57h419l15 61q53 228 181 367q130 139 294 139q50 0 84.5 -23t34.5 -61q0 -35 -20.5 -60.5t-55.5 -25.5q-42 0 -73 27.5t-56 64.5q-91 -4 -156 -100t-110 -289l-23 -100h252z" />
    <glyph glyph-name="fi" unicode="fi" horiz-adv-x="1071" 
d="M336 981q15 65 30.5 120t38 104.5t54.5 96t79 93.5q75 73 163.5 113t172.5 40q207 0 207 -118q0 -33 -19.5 -52.5t-49.5 -19.5q-82 0 -140 121h-24q-144 0 -238 -103t-139 -303l-20 -92h274l246 8l10 -12l-154 -655q-30 -139 -30 -170q0 -42 26 -56t64 -14q68 0 119 16
l-11 -53q-113 -61 -217 -61q-108 0 -108 112q0 45 18 117l146 600q6 29 6 47q0 22 -4 37h-404l-176 -838q-21 -105 -67 -197.5t-108.5 -161t-137.5 -107.5t-156 -37q-52 0 -85.5 27t-33.5 67q0 29 18.5 52.5t61.5 23.5q15 0 28 -4t26.5 -13.5t29 -26.5t33.5 -44
q93 5 161 103.5t107 281.5l184 874h-194l18 84h195z" />
    <glyph glyph-name="fl" unicode="fl" horiz-adv-x="1112" 
d="M123 897l18 84h195q14 63 30 119t38.5 107t55 98.5t79.5 92.5q78 75 167.5 112.5t170.5 37.5q26 0 47 -2t40.5 -7t39.5 -13t43 -19l69 41l10 -12l-282 -1223q-14 -60 -21.5 -100t-7.5 -63q0 -68 86 -68q84 0 123 16l-10 -53q-19 -12 -46.5 -23t-57.5 -19.5t-59 -13.5
t-52 -5q-111 0 -111 110q0 42 19 117l249 1081q15 66 15 109q0 36 -31.5 58t-91.5 22q-290 0 -381 -424l-16 -76h251l-22 -84h-248l-176 -838q-21 -105 -67 -197.5t-108.5 -161t-137.5 -107.5t-156 -37q-52 0 -85.5 27t-33.5 67q0 29 18.5 52.5t61.5 23.5q15 0 28 -4
t26.5 -13.5t29 -26.5t33.5 -44q93 5 161 103.5t107 281.5l184 874h-194z" />
    <glyph glyph-name="f_f_i" unicode="ffi" horiz-adv-x="1606" 
d="M432 897l-176 -838q-21 -105 -67 -197.5t-108.5 -161t-137.5 -107.5t-156 -37q-52 0 -85.5 27t-33.5 67q0 29 18.5 52.5t61.5 23.5q15 0 28 -4t26.5 -13.5t29 -26.5t33.5 -44q93 5 161 103.5t107 281.5l184 874h-194l18 84h195q59 254 188 389q131 137 291 137
q50 0 84.5 -23t34.5 -61q0 -35 -20.5 -60.5t-55.5 -25.5q-67 0 -129 93q-184 -13 -266 -392l-12 -57h419l9 35q14 60 30 111t38 96.5t53 88.5t76 86q75 73 163 111.5t170 38.5q207 0 207 -118q0 -26 -17.5 -49t-52.5 -23q-45 0 -78 32t-61 89h-25q-286 0 -376 -406l-21 -92
h275l245 8l11 -12l-154 -655q-31 -143 -31 -170q0 -42 26 -56t64 -14q68 0 119 16l-10 -53q-115 -61 -217 -61q-109 0 -109 112q0 42 19 117l145 600q6 29 6 47q0 22 -4 37h-403l-168 -799q-20 -105 -66 -197.5t-109 -161.5t-138.5 -108t-155.5 -37q-24 0 -45.5 7t-38 19.5
t-26 30t-9.5 38.5q0 29 18 52t62 23q15 0 28 -4t26.5 -13.5t29 -26.5t33.5 -44q94 7 162 106t106 279l176 836h-420z" />
    <glyph glyph-name="f_f_l" unicode="ffl" horiz-adv-x="1647" 
d="M1237 981l-23 -84h-247l-168 -799q-20 -105 -66 -197.5t-109 -161.5t-138.5 -108t-155.5 -37q-24 0 -45.5 7t-38 19.5t-26 30t-9.5 38.5q0 29 18 52t62 23q15 0 28 -4t26.5 -13.5t29 -26.5t33.5 -44q94 7 162 106t106 279l176 836h-420l-176 -838q-21 -105 -67 -197.5
t-108.5 -161t-137.5 -107.5t-156 -37q-52 0 -85.5 27t-33.5 67q0 29 18.5 52.5t61.5 23.5q15 0 28 -4t26.5 -13.5t29 -26.5t33.5 -44q93 5 161 103.5t107 281.5l184 874h-194l18 84h195q59 254 188 389q131 137 291 137q50 0 84.5 -23t34.5 -61q0 -35 -20.5 -60.5
t-55.5 -25.5q-67 0 -129 93q-184 -13 -266 -392l-12 -57h419l7 27q13 59 29 111.5t39 101t55 92.5t76 86q78 75 166 112t169 37q22 0 41.5 -1.5t39.5 -6t41.5 -12.5t47.5 -21l70 41l10 -12l-283 -1223q-28 -112 -28 -163q0 -68 86 -68q84 0 123 16l-11 -53
q-19 -12 -46.5 -23t-57.5 -19.5t-59 -13.5t-52 -5q-110 0 -110 110q0 45 18 117l250 1081q7 31 10.5 58t3.5 51q0 38 -32.5 59t-90.5 21q-290 0 -381 -424l-16 -76h252z" />
    <glyph glyph-name="f_j" unicode="fj" horiz-adv-x="1051" 
d="M840 860q0 22 -4 37h-404l-176 -838q-21 -105 -67 -197.5t-108.5 -161t-137.5 -107.5t-156 -37q-52 0 -85.5 27t-33.5 67q0 29 18.5 52.5t61.5 23.5q15 0 28 -4t26.5 -13.5t29 -26.5t33.5 -44q94 5 162.5 104.5t105.5 280.5l184 874h-194l18 84h195q15 65 30.5 120
t38 104.5t54.5 96t79 93.5q75 73 163.5 113t172.5 40q207 0 207 -118q0 -33 -19.5 -52.5t-49.5 -19.5q-82 0 -140 121h-24q-144 0 -238 -103t-139 -303l-20 -92h274l246 8l10 -12l-106 -526l-76 -355q-21 -108 -69.5 -200.5t-113.5 -160.5t-140 -106t-150 -37q-49 0 -81 25
t-32 70q0 32 18.5 53.5t53.5 21.5q38 0 64 -25t50 -63q79 0 133 55t96 170q21 58 52.5 186.5t74.5 329.5q85 400 85 445z" />
    <glyph glyph-name=".notdef" horiz-adv-x="2048" 
d="M256 0v1536h1536v-1536h-1536zM385 129h1280v1280h-1280v-1280z" />
    <glyph glyph-name=".null" horiz-adv-x="0" 
 />
    <glyph glyph-name="uni000D" horiz-adv-x="479" 
 />
    <glyph glyph-name="space" unicode=" " horiz-adv-x="479" 
 />
    <glyph glyph-name="space" unicode="&#xa0;" horiz-adv-x="479" 
 />
    <glyph glyph-name="exclam" unicode="!" horiz-adv-x="631" 
d="M629 1382q0 -42 -31 -147q-15 -54 -43 -141t-70 -212l-155 -466h-60l58 344q36 227 61 376t39 222q9 49 40 75.5t79 26.5q40 0 61 -21t21 -57zM358 94q0 -24 -8.5 -44t-23.5 -34.5t-34.5 -23t-41.5 -8.5q-48 0 -78.5 31t-30.5 79q0 23 8.5 43.5t23 36t34.5 24.5t43 9
t43 -9t34.5 -25t22.5 -36t8 -43z" />
    <glyph glyph-name="quotedbl" unicode="&#x22;" horiz-adv-x="743" 
d="M336 1038h-57l6 155q2 78 4.5 131.5t5.5 82.5q3 26 8 48t16 39t30 26.5t50 9.5q70 0 70 -70q0 -40 -43 -160zM664 1038h-60l7 155q4 111 7 174.5t6 81.5q7 37 32 59t65 22q38 0 56 -20.5t18 -49.5q0 -38 -81 -271z" />
    <glyph glyph-name="numbersign" unicode="#" horiz-adv-x="1255" 
d="M889 743l-92 -247h254l-39 -105h-250l-146 -391h-94l144 391h-209l-142 -391h-94l144 391h-218l41 105h215l93 247h-256l43 105h249l138 373h92l-139 -373h211l139 373h90l-137 -373h219l-43 -105h-213zM584 743l-95 -249h218l96 249h-219z" />
    <glyph glyph-name="dollar" unicode="$" horiz-adv-x="1217" 
d="M602 612l-78 31q-231 92 -231 281q0 163 133 265q132 102 336 107l53 228h72l-56 -234q64 -9 119 -31t95 -52.5t62.5 -67t22.5 -74.5q0 -20 -5.5 -44.5t-17 -45.5t-29 -35t-42.5 -14q-38 0 -58 20t-20 43q0 48 56 127q-5 35 -62 67q-56 32 -135 40l-121 -516l23 -9
q313 -109 313 -317q0 -60 -20 -112.5t-54 -96t-79.5 -78t-97.5 -58.5q-117 -54 -255 -54l-65 -281h-72l66 276q-57 4 -114 22t-103.5 51t-75.5 81.5t-29 112.5q0 26 7 54t22 51t37.5 37.5t52.5 14.5q31 0 50.5 -20.5t19.5 -46.5q0 -64 -91 -131q25 -136 238 -154zM745 1225
q-153 -3 -234 -73.5t-81 -188.5q0 -42 10.5 -75t34.5 -60.5t62.5 -49.5t93.5 -41zM881 342q0 52 -17 89.5t-46 65t-67.5 48t-82.5 37.5l-125 -535l25 -1q68 0 125.5 20t99 58t65 93t23.5 125z" />
    <glyph glyph-name="percent" unicode="%" horiz-adv-x="1610" 
d="M434 713q-121 0 -185.5 64.5t-64.5 195.5q0 89 26 174t77 152t126 108t173 41q121 0 184.5 -67t63.5 -195q0 -88 -26 -173t-76.5 -151.5t-125 -107.5t-172.5 -41zM178 0h-137l1460 1421h139zM717 1184q0 94 -39 147t-105 53q-117 0 -192 -116q-74 -116 -74 -291
q0 -94 36.5 -146.5t102.5 -52.5q46 0 84 19.5t68.5 51.5t52.5 74t37 87t22 90t7 84zM1094 -29q-123 0 -187.5 64.5t-64.5 195.5q0 88 26.5 173t78 152.5t126.5 109t172 41.5q118 0 182 -66t64 -197q0 -59 -11 -117t-33 -110.5t-55.5 -97.5t-77.5 -78t-99 -51.5t-121 -18.5z
M1372 442q0 94 -36 146.5t-105 52.5q-57 2 -106.5 -30t-85.5 -88t-56.5 -131.5t-19.5 -160.5q0 -88 38 -141t107 -53q44 0 80 19t65 49t50 67.5t34 74.5q35 99 35 195z" />
    <glyph glyph-name="ampersand" unicode="&#x26;" horiz-adv-x="1403" 
d="M946 0l-129 193q-45 -46 -93.5 -87.5t-102 -73t-113.5 -49.5t-127 -18q-76 0 -142 23.5t-114.5 67.5t-76.5 107t-28 142q0 106 38.5 186t119.5 148q83 71 254 160q-21 40 -38.5 76.5t-29.5 73t-19 76t-7 85.5q-2 71 28.5 134t83.5 109.5t124 72.5t149 24q55 0 104 -15.5
t85.5 -46t57.5 -75t21 -103.5q0 -46 -12.5 -85t-34 -72.5t-52 -62t-66.5 -54.5q-82 -59 -265 -141q110 -193 303 -465q21 23 48 55.5t55.5 71t56 80.5t49 82.5t34.5 78t13 66.5q0 26 -38.5 43t-116.5 31l16 61h522l-16 -61q-55 -5 -96.5 -15t-75 -29t-62.5 -48.5t-59 -74.5
q-64 -93 -109 -157t-73 -101t-56 -70t-57 -62q12 -19 29 -43t36 -47.5t39.5 -44.5t38.5 -33q16 -12 42 -22t54.5 -17t56.5 -11t48 -4l-16 -59h-281zM872 1208q0 79 -46.5 122.5t-125.5 43.5q-55 0 -101 -18.5t-79 -52t-51 -80t-18 -101.5q0 -38 7.5 -73.5t19.5 -69.5t28 -67
t33 -66q59 26 118.5 58.5t107 75.5t77.5 99t30 129zM705 361q-90 130 -151.5 225.5t-96.5 158.5q-132 -66 -205.5 -170t-73.5 -239q0 -55 16.5 -102.5t47.5 -82.5t76 -55t102 -20q94 0 187.5 44t174.5 128z" />
    <glyph glyph-name="quotesingle" unicode="'" horiz-adv-x="385" 
d="M319 1038h-57l6 155q5 152 9 210q3 26 8 49t16 40t31 27.5t51 10.5q70 0 70 -70q0 -47 -82 -271z" />
    <glyph glyph-name="parenleft" unicode="(" horiz-adv-x="694" 
d="M479 -328q-364 40 -364 588q0 135 17.5 281.5t57.5 289t105 273t161 231.5q161 168 373 197l-10 -78q-71 -12 -131.5 -47.5t-111.5 -87.5t-92 -116t-73.5 -132.5t-57 -137t-41.5 -129.5q-79 -283 -79 -591q0 -211 65.5 -331t197.5 -144z" />
    <glyph glyph-name="parenright" unicode=")" horiz-adv-x="694" 
d="M643 944q0 -89 -7.5 -185t-24.5 -193t-43.5 -193.5t-64.5 -186t-89 -170.5t-115 -147q-161 -168 -371 -197l11 74q71 12 131 49t110.5 89.5t92 117t74 133t56.5 137t41 129.5q78 287 78 590q0 427 -260 475l17 66q364 -45 364 -588z" />
    <glyph glyph-name="asterisk" unicode="*" horiz-adv-x="956" 
d="M993 1108q0 -64 -65 -64q-8 0 -36 5.5t-76 16.5q-54 13 -102 21t-91 13q47 -66 85.5 -109t65.5 -73t42 -52t15 -47t-21.5 -41t-47.5 -16q-45 0 -68 77q-49 164 -92 251q-16 -35 -33 -81t-35 -103q-28 -94 -39 -111q-20 -33 -55 -33q-23 0 -43 16t-20 41t15 47t42.5 52
t65.5 73t84 109q-42 -5 -90.5 -13t-103.5 -21q-95 -22 -111 -22q-64 0 -64 64q0 61 64 61q15 0 43 -6q90 -19 155 -30.5t107 -16.5q-46 66 -84 109t-65.5 73t-42.5 52t-15 47t20 41t43 16q36 0 56 -35q5 -8 14.5 -35t23.5 -72q17 -57 34 -102.5t34 -81.5q20 42 37.5 87.5
t33.5 96.5l21 66q22 76 68 76q26 0 47.5 -16t21.5 -41q0 -24 -15.5 -46t-43 -52.5t-65.5 -73.5t-84 -109q66 7 193 33q49 10 76.5 15t35.5 5q28 0 46.5 -15t18.5 -46z" />
    <glyph glyph-name="plus" unicode="+" horiz-adv-x="1255" 
d="M711 500v-443h-109v443h-438v106h438v438h109v-438h438v-106h-438z" />
    <glyph glyph-name="comma" unicode="," horiz-adv-x="494" 
d="M-4 -270q214 121 268 274h-41q-42 0 -66 24.5t-24 69.5q0 48 31.5 78.5t85.5 30.5q115 0 115 -125q0 -65 -25.5 -123.5t-67 -108t-93.5 -90t-106 -70.5l-46 -26z" />
    <glyph glyph-name="hyphen" unicode="-" horiz-adv-x="762" 
d="M88 487l27 117h590l-27 -117h-590z" />
    <glyph glyph-name="hyphen" unicode="&#xad;" horiz-adv-x="762" 
d="M88 487l27 117h590l-27 -117h-590z" />
    <glyph glyph-name="period" unicode="." horiz-adv-x="494" 
d="M346 88q0 -45 -30 -74.5t-76 -29.5q-45 0 -74 29.5t-29 74.5q0 48 29 78.5t74 30.5q46 0 76 -30.5t30 -78.5z" />
    <glyph glyph-name="slash" unicode="/" horiz-adv-x="956" 
d="M16 -424h-116l1032 1948h117z" />
    <glyph glyph-name="zero" unicode="0" horiz-adv-x="1126" 
d="M461 -33q-179 0 -272 116t-93 333q0 87 14.5 184.5t40.5 194t63 187t83 165.5q90 146 207 222.5t260 76.5q170 0 258 -113t88 -327q0 -224 -86 -494q-87 -271 -228.5 -408t-334.5 -137zM971 1040q0 334 -211 334q-90 0 -164 -53.5t-132 -140.5t-101 -196t-71 -220.5
t-42 -214t-14 -176.5q0 -167 58.5 -250.5t172.5 -83.5q62 0 113.5 26t94 69.5t77 99.5t61 115.5t46.5 117.5t34 106q78 269 78 467z" />
    <glyph glyph-name="one" unicode="1" horiz-adv-x="1126" 
d="M117 0l14 61l55 4q49 3 83.5 6t55.5 7q42 8 66.5 35t34.5 69l258 1090h-281l17 74h115q168 0 274 100h45l-78 -305l-219 -938l-6 -41q0 -38 20.5 -57.5t55.5 -26.5q20 -4 64.5 -8t113.5 -9l-17 -61h-671z" />
    <glyph glyph-name="two" unicode="2" horiz-adv-x="1126" 
d="M895 0h-877l25 111q47 74 101.5 138t115.5 121t127.5 109.5t136.5 102.5q49 35 99 71t96.5 76t87 84t70.5 95t47.5 108.5t17.5 124.5q0 108 -58.5 168.5t-164.5 60.5q-88 0 -156 -29.5t-106 -80.5q1 -26 1.5 -44t0.5 -26q0 -69 -30 -114.5t-93 -45.5q-37 0 -57.5 19.5
t-20.5 56.5q0 52 22.5 97t58.5 82t80 65.5t87 47.5q111 48 223 48q73 0 137 -18.5t112 -56.5t75.5 -95.5t27.5 -136.5q0 -60 -9.5 -109t-29.5 -92t-51 -82.5t-74 -80.5q-92 -89 -317 -238q-63 -43 -124.5 -88t-118.5 -95t-107.5 -106.5t-91.5 -122.5h766z" />
    <glyph glyph-name="three" unicode="3" horiz-adv-x="1126" 
d="M746 1442q72 0 128.5 -21t95.5 -58t59 -87.5t20 -108.5q0 -293 -336 -397l-4 -10q130 -18 201 -92t71 -189q0 -118 -45 -211.5t-121 -159t-176.5 -100t-210.5 -34.5q-147 0 -257 68q-109 67 -109 167q0 34 9 62.5t25 49.5t38 32.5t49 11.5q34 0 55 -20t21 -46
q0 -45 -22.5 -81t-51.5 -68q15 -32 47.5 -52.5t71.5 -32.5t79.5 -17t71.5 -5q92 0 166 38t125.5 100.5t79.5 143t28 165.5q0 211 -256 211h-139l23 96h110q65 -2 124 28.5t103.5 83.5t70.5 122.5t24 144.5q0 192 -186 192q-40 0 -79 -7.5t-73.5 -22t-62.5 -34.5t-48 -44
q9 -54 9 -88q0 -146 -115 -146q-38 0 -61 22t-23 68q0 47 22.5 90t58 79t77.5 64t81 45q108 48 232 48z" />
    <glyph glyph-name="four" unicode="4" horiz-adv-x="1126" 
d="M813 451l-100 -451h-129l106 451h-639l29 110l895 879h67l-202 -877h225l-29 -112h-223zM870 1235l-684 -672h531z" />
    <glyph glyph-name="five" unicode="5" horiz-adv-x="1126" 
d="M401 -14q-155 0 -252 65q-96 66 -96 166q0 60 30.5 97.5t84.5 37.5q37 0 57.5 -20t20.5 -47q0 -67 -72 -142q23 -35 83.5 -61.5t164.5 -26.5q60 0 115 18.5t102 51.5t84.5 78t63.5 98q57 114 57 248q0 59 -17.5 107t-50 82.5t-79.5 53.5t-107 19q-170 0 -297 -127l-60 27
l228 708h647l-33 -127h-569l-154 -469q142 88 285 88q74 1 136.5 -23.5t108.5 -70t71.5 -109.5t23.5 -141q0 -122 -44.5 -228t-122.5 -184.5t-183 -123.5t-226 -45z" />
    <glyph glyph-name="six" unicode="6" horiz-adv-x="1126" 
d="M495 -31q-88 0 -157 30t-117 87.5t-73 142t-25 193.5q0 128 32.5 248t91.5 228t141.5 201t183 165t215.5 120t239 68l-4 -80l-80 -18q-109 -30 -208.5 -86t-181.5 -133t-144.5 -172t-98.5 -203q191 143 383 143q140 0 234 -102q96 -102 96 -258q0 -74 -18 -145t-51 -135
t-80 -118t-105.5 -93t-127.5 -61t-145 -22zM888 508q0 141 -68.5 220t-191.5 79q-174 0 -333 -135q-11 -24 -18.5 -57.5t-12 -69t-6.5 -70t-2 -61.5q0 -185 65 -279t193 -94q56 0 105 18.5t90.5 50t74 74t54.5 91.5q50 111 50 233z" />
    <glyph glyph-name="seven" unicode="7" horiz-adv-x="1126" 
d="M242 0h-113l956 1309h-432q-81 0 -138 -3.5t-95 -17.5q-31 -11 -69 -66t-70 -143h-62l78 340h958l-6 -33z" />
    <glyph glyph-name="eight" unicode="8" horiz-adv-x="1126" 
d="M458 -33q-78 0 -148 20t-123 61.5t-84.5 104t-31.5 146.5q0 90 31.5 160t84 124t121.5 95.5t144 75.5q-85 62 -130.5 128t-45.5 152q0 60 18.5 114.5t51 101.5t77.5 84.5t97 62.5q116 57 248 57q70 0 130.5 -19t105 -56.5t70 -93.5t25.5 -130q0 -129 -81 -241t-234 -191
q116 -65 167.5 -140.5t51.5 -166.5q0 -65 -20.5 -123.5t-56.5 -108t-84.5 -89t-104.5 -67.5q-123 -61 -279 -61zM977 1163q0 50 -18 91.5t-49.5 70.5t-74.5 45t-92 16q-68 2 -131.5 -22.5t-112 -67t-76.5 -98.5t-26 -117q0 -70 29.5 -121.5t76 -89t105 -64.5t115.5 -48
q60 27 107 69.5t79.5 95.5t50 114t17.5 126zM878 385q0 77 -33.5 128t-96.5 92q-67 45 -234 114q-314 -132 -314 -410q0 -64 21.5 -114.5t60 -85.5t91 -53.5t114.5 -18.5q78 0 148.5 23.5t124.5 68t86 109t32 147.5z" />
    <glyph glyph-name="nine" unicode="9" horiz-adv-x="1126" 
d="M1073 1010q0 -129 -32 -253t-91 -236t-142.5 -208t-185.5 -169.5t-221 -120.5t-248 -60v88l89 13q482 134 636 571q-176 -131 -383 -131q-76 0 -135.5 28.5t-101 77.5t-63 113.5t-21.5 136.5q0 71 18.5 141.5t52 134.5t81 118.5t106 95t126.5 63.5t142 23q94 0 164 -34
t116.5 -92t69.5 -135.5t23 -164.5zM938 1024q0 60 -13.5 121.5t-44 111t-79 80.5t-119.5 31q-60 0 -111.5 -22t-93.5 -59t-74 -86t-54 -104t-33 -112t-11 -110q0 -61 17 -111.5t50 -86.5t81.5 -55.5t111.5 -19.5q191 0 336 123q37 112 37 299z" />
    <glyph glyph-name="colon" unicode=":" horiz-adv-x="805" 
d="M582 883q0 -24 -8.5 -44t-23 -34.5t-34.5 -22.5t-43 -8q-21 0 -40 8t-33.5 22.5t-22.5 34.5t-8 44q0 23 8.5 41.5t22.5 32t33 21t40 7.5t41 -7.5t35 -21t24 -32t9 -41.5zM401 88q0 -45 -30.5 -74.5t-75.5 -29.5q-21 0 -40.5 8t-34.5 21.5t-23.5 33t-8.5 41.5
q0 23 8.5 42.5t22.5 34.5t34 23.5t42 8.5q23 0 42 -8.5t33.5 -23t22.5 -34.5t8 -43z" />
    <glyph glyph-name="semicolon" unicode=";" horiz-adv-x="805" 
d="M582 883q0 -24 -8.5 -44t-23 -34.5t-34.5 -22.5t-43 -8q-21 0 -40 8t-33.5 22.5t-22.5 34.5t-8 44q0 23 8.5 41.5t22.5 32t33 21t40 7.5t41 -7.5t35 -21t24 -32t9 -41.5zM55 -270q217 126 269 274h-41q-45 0 -69 24.5t-24 69.5q0 48 32.5 78.5t86.5 30.5q115 0 115 -125
q0 -66 -26 -124t-67.5 -107.5t-94 -90t-105.5 -70.5l-45 -26z" />
    <glyph glyph-name="semicolon" unicode="&#x37e;" horiz-adv-x="805" 
d="M582 883q0 -24 -8.5 -44t-23 -34.5t-34.5 -22.5t-43 -8q-21 0 -40 8t-33.5 22.5t-22.5 34.5t-8 44q0 23 8.5 41.5t22.5 32t33 21t40 7.5t41 -7.5t35 -21t24 -32t9 -41.5zM55 -270q217 126 269 274h-41q-45 0 -69 24.5t-24 69.5q0 48 32.5 78.5t86.5 30.5q115 0 115 -125
q0 -66 -26 -124t-67.5 -107.5t-94 -90t-105.5 -70.5l-45 -26z" />
    <glyph glyph-name="less" unicode="&#x3c;" horiz-adv-x="1255" 
d="M209 502v100l889 471v-110l-758 -412l758 -410v-110z" />
    <glyph glyph-name="equal" unicode="=" horiz-adv-x="1255" 
d="M164 672v110h979v-110h-979zM164 324v106h979v-106h-979z" />
    <glyph glyph-name="greater" unicode="&#x3e;" horiz-adv-x="1255" 
d="M207 31v110l764 410l-764 412v110l889 -471v-100z" />
    <glyph glyph-name="question" unicode="?" horiz-adv-x="909" 
d="M588 1452q77 0 140.5 -20.5t108.5 -61t70 -100.5t25 -140q0 -115 -38.5 -205.5t-106 -156.5t-159.5 -107.5t-200 -58.5l-78 -254h-80l82 375q443 44 443 424q0 111 -57 174t-163 63q-18 0 -37 -3.5t-37 -8.5t-34 -12t-27 -14q-9 -107 -25 -139t-40 -49t-64 -17
q-35 0 -52 18.5t-17 38.5q-1 42 26 88t74.5 83.5t111 61t134.5 21.5zM395 94q0 -48 -31 -79t-79 -31q-22 0 -42 8.5t-35 23t-23.5 34.5t-8.5 44q0 23 8.5 43.5t23 36t34.5 24.5t43 9t43 -9t35 -24.5t23.5 -36t8.5 -43.5z" />
    <glyph glyph-name="at" unicode="@" horiz-adv-x="1847" 
d="M1520 -119q-97 -87 -228.5 -138.5t-296.5 -51.5q-106 0 -208.5 25t-193 73.5t-166 120.5t-127.5 167q-97 178 -97 400q0 124 30.5 238t86.5 213t135 180t176 139t210 89.5t236 31.5q149 0 268.5 -47.5t203.5 -134t129.5 -206t45.5 -263.5q0 -69 -12.5 -138t-38 -132.5
t-63.5 -118.5t-88.5 -95.5t-114 -64t-139.5 -23.5q-39 0 -72 13t-56.5 37t-36.5 57t-13 72h-11q-18 -32 -43.5 -64t-57 -57t-67.5 -40.5t-75 -15.5q-56 0 -95.5 24t-65 62.5t-37 87t-11.5 97.5q0 56 15 117.5t42.5 120.5t66.5 112.5t87.5 93.5t105 64t119.5 24
q61 0 106.5 -37.5t59.5 -101.5h8l47 127h113l-185 -532q-18 -55 -18 -109q0 -48 22 -74t76 -26q71 -2 135.5 38t113.5 111.5t77.5 169t26.5 211.5q0 128 -41 232.5t-116.5 178.5t-182 115t-236.5 41q-102 0 -197.5 -29t-178 -81.5t-150 -127t-113.5 -164.5
q-94 -184 -94 -411q-2 -166 46 -300t136.5 -227.5t212 -143.5t273.5 -48q76 0 142.5 10t126 30t113 50.5t103.5 71.5zM1208 733q-15 91 -52 130.5t-97 39.5q-49 0 -89.5 -25.5t-73 -63.5t-56.5 -83.5t-39 -84.5q-47 -124 -47 -236q0 -91 25.5 -142t76.5 -51q67 0 128 52.5
t128 174.5z" />
    <glyph glyph-name="A" unicode="A" horiz-adv-x="1284" 
d="M1249 0h-489l12 61q48 6 79 11t47 9q31 9 47 23.5t16 38.5q0 34 -9 95l-32 264h-531l-143 -238q-51 -91 -51 -125q0 -31 50 -52.5t134 -25.5l-12 -61h-519l13 61q88 7 152 50t112 127l772 1202h18l177 -1227q12 -79 63 -113t107 -39zM823 1192l-389 -614h473z" />
    <glyph glyph-name="B" unicode="B" horiz-adv-x="1272" 
d="M463 1284q0 20 -19.5 33t-46 21.5t-53.5 13t-41 6.5l12 61h590q81 0 159 -34q81 -33 122 -87.5t41 -126.5q0 -87 -32 -155t-86.5 -118.5t-125.5 -83.5t-149 -50l2 -2q162 -27 250 -107.5t88 -197.5q0 -76 -28 -141.5t-74.5 -118t-107.5 -92.5t-127 -66q-100 -39 -182 -39
h-663l12 61l37 3q34 3 62 7.5t49 16t36 33t23 57.5l246 1057q6 30 6 49zM1063 1165q0 90 -64 138.5t-184 48.5l-194 -4l-127 -564h174q89 -2 162 27.5t125 81.5t80.5 122.5t27.5 149.5zM1012 492q0 95 -86 160t-211 65l-240 -4l-104 -457q-13 -55 -13 -88q0 -51 57 -78
t169 -27q122 0 215 54t153 161q60 108 60 214z" />
    <glyph glyph-name="C" unicode="C" horiz-adv-x="1280" 
d="M1229 352q-115 -198 -262 -289.5t-336 -91.5q-121 0 -217.5 43t-164 117.5t-104 175t-36.5 215.5q0 116 27 230t78 218t125.5 194t170.5 157q186 129 391 129q231 0 371 -104l47 73h78l-109 -499h-69v51q1 112 -19.5 187.5t-61 122.5t-101 68t-140.5 23
q-92 0 -175.5 -32.5t-153.5 -87.5t-125.5 -127.5t-91.5 -152.5q-83 -183 -83 -399q0 -93 26 -184t78 -163t130.5 -116t183.5 -44q80 0 151 25.5t131 69t109 102.5t86 126z" />
    <glyph glyph-name="D" unicode="D" horiz-adv-x="1446" 
d="M463 1284q0 20 -19.5 33t-46 21.5t-53.5 13t-41 6.5l12 61h545q163 0 299 -71q137 -70 204 -189.5t67 -279.5q0 -121 -29 -233.5t-85 -210t-138 -178.5t-189 -141q-209 -116 -446 -116h-557l12 61q109 6 145 21q50 21 68 96l246 1057q6 30 6 49zM1274 850q0 111 -33 203
t-95 158t-151 102.5t-202 36.5l-170 -4l-252 -1090q-7 -32 -10 -51.5t-3 -24.5q0 -30 12.5 -50.5t41 -32.5t73.5 -17.5t109 -5.5q107 0 199 30t168 83.5t134 126.5t98 159.5t60.5 182.5t20.5 194z" />
    <glyph glyph-name="E" unicode="E" horiz-adv-x="1309" 
d="M1364 1419l-80 -332h-61q-7 244 -136 259q-108 6 -210 6h-252l-133 -580h213q85 0 133 20q47 20 83.5 75.5t63.5 129.5h64l-123 -534h-62l2 76q0 79 -10 98q-18 35 -59 48t-111 13h-213l-100 -436q-13 -55 -13 -96q0 -53 43 -72q45 -20 177 -20q156 0 260.5 15t138.5 42
q82 64 192 275h68l-121 -406h-1145l13 61q122 7 157 21q50 21 68 96l246 1057q6 30 6 49q0 52 -144 70l-30 4l12 61h1063z" />
    <glyph glyph-name="F" unicode="F" horiz-adv-x="1194" 
d="M1374 1419l-80 -342h-63v10q0 32 -6 74t-21.5 81t-41 68t-64.5 36q-42 6 -168 6h-305l-136 -584h228q76 0 123 16q48 17 88.5 64t75.5 145h65l-125 -536h-65l4 38l2 42q0 65 -13 92q-13 20 -27 32.5t-33 20t-46 11t-68 5.5h-227l-100 -448q-17 -70 -17 -105
q0 -21 12 -35.5t35 -24t56 -15t75 -9.5l-14 -61h-543l11 61q122 7 157 21q50 21 68 96l246 1057q6 30 6 49q0 52 -144 70l-30 4l12 61h1073z" />
    <glyph glyph-name="G" unicode="G" horiz-adv-x="1442" 
d="M659 -29q-128 0 -230 43.5t-173 120.5t-109 181.5t-38 226.5q0 117 29 230t83.5 214.5t132.5 188t177 149.5q196 125 409 125q48 0 103 -5.5t109.5 -17.5t105 -32t90.5 -49l49 73h65l-104 -483h-68q1 26 1.5 43t0.5 25q-3 190 -101 279t-280 89q-96 0 -182 -32.5
t-158 -88t-128.5 -130.5t-94.5 -159q-84 -187 -84 -413q0 -105 30 -197t87.5 -160t143 -107.5t196.5 -39.5q167 0 280 80q10 15 19.5 41.5t18.5 60t17 70t14.5 71.5t11 64.5t5.5 48.5q0 22 -8.5 35.5t-22 21t-31 11t-35.5 6.5q-30 5 -56.5 7.5t-49.5 2.5h-10l13 68h551
l-13 -68l-31 -3q-38 -4 -67.5 -10t-51 -20.5t-37 -39.5t-26.5 -66q-36 -157 -54 -237q-18 -79 -21 -117q-58 -20 -116.5 -38.5t-118.5 -32.5t-120.5 -22t-122.5 -8z" />
    <glyph glyph-name="H" unicode="H" horiz-adv-x="1610" 
d="M1346 1284q0 19 -19.5 32.5t-46 22t-53.5 13t-41 6.5l12 61h502l-14 -61q-95 -9 -142 -30q-45 -19 -63 -93l-234 -1018q-5 -23 -7.5 -40t-2.5 -27q0 -18 5 -30t14 -20.5t22 -14.5t28 -11q39 -13 80 -13l-16 -61h-496l13 61l37 3q34 3 62 7.5t49 16t36 33t23 57.5l120 522
h-739l-110 -483q-11 -39 -11 -67q0 -18 5 -30t14 -20.5t21.5 -14.5t28.5 -11q40 -13 81 -13l-17 -61h-495l12 61l37 3q34 3 62 7.5t49 16t36 33t23 57.5l246 1057q6 30 6 49q0 20 -19.5 33t-46 21.5t-53.5 13t-41 6.5l12 61h502l-14 -61q-99 -9 -144 -31t-61 -92l-104 -459
h739l106 459q4 17 5.5 29.5t1.5 19.5z" />
    <glyph glyph-name="I" unicode="I" horiz-adv-x="729" 
d="M463 1276q0 24 -23.5 39t-55 24.5t-63.5 13.5t-49 5l13 61h565l-14 -61q-105 -7 -164 -29q-57 -20 -74 -92l-233 -1016q-11 -39 -11 -69q0 -45 51 -65.5t134 -25.5l-13 -61h-565l12 61q129 9 152 17q69 26 86 98l244 1051q8 30 8 49z" />
    <glyph glyph-name="J" unicode="J" horiz-adv-x="1022" 
d="M788 1276q0 23 -23 38.5t-54.5 24.5t-63.5 13.5t-49 5.5l12 61h551l-14 -61q-18 -1 -46.5 -5t-57 -11t-53.5 -18t-37 -26q-19 -25 -27 -63l-193 -827q-21 -90 -62 -170.5t-101.5 -140.5t-140.5 -95t-179 -35q-59 0 -113.5 14.5t-96 45t-66.5 77.5t-25 113q0 37 9 79.5
t28.5 78.5t51.5 60t77 24q34 0 56 -23t22 -57q0 -37 -16.5 -71t-39.5 -65.5t-48.5 -61.5t-43.5 -60q12 -21 33.5 -38.5t49.5 -29.5t62 -19t70 -7q62 0 109 20.5t83 55.5t61.5 81t44 96.5t32 103.5t24.5 101l168 750q6 18 6 41z" />
    <glyph glyph-name="K" unicode="K" horiz-adv-x="1335" 
d="M487 717q140 88 278.5 199t257.5 226q120 116 120 167q0 15 -17 24.5t-39.5 15t-44.5 7.5t-32 2l12 61h491l-16 -57q-26 0 -52.5 -4t-51.5 -11.5t-46 -18t-36 -23.5q-80 -74 -156 -141t-150 -130q-146 -122 -364 -286q82 -114 148 -209.5t117 -174.5l67 -104
q66 -103 117 -147q52 -43 167 -52l-20 -61h-274q-40 76 -91 162t-114 184q-63 99 -121 182.5t-113 155.5h-53l-106 -467q-11 -39 -11 -67q0 -18 5 -30t14 -20.5t21.5 -14.5t28.5 -11q40 -13 81 -13l-17 -61h-495l12 61l37 3q34 3 62 7.5t49 16t36 33t23 57.5l246 1057
q6 30 6 49q0 20 -19.5 33t-46 21.5t-53.5 13t-41 6.5l12 61h502l-14 -61q-99 -9 -144 -31t-61 -92l-119 -518h8z" />
    <glyph glyph-name="L" unicode="L" horiz-adv-x="1194" 
d="M825 1419l-12 -61q-72 -6 -137 -27q-60 -19 -80 -102l-223 -977q-17 -76 -17 -107q0 -48 37 -63q39 -14 164 -14q28 0 74.5 2t96 7.5t93.5 16.5t66 29q23 18 53.5 55t61 79t58.5 83t44 66h59l-123 -406h-1048l12 61l37 3q34 3 62 7.5t49 16t36 33t23 57.5l246 1057
q6 30 6 49q0 20 -19.5 33t-46 21.5t-53.5 13t-41 6.5l12 61h510z" />
    <glyph glyph-name="M" unicode="M" horiz-adv-x="1831" 
d="M1452 150q0 -19 8.5 -32t21.5 -22t29 -14.5t31 -9.5q25 -5 43 -8t31 -3l-17 -61h-534l14 61q15 0 34.5 2t40 5t39.5 7t33 9q30 10 54.5 33t36.5 71l258 1086h-10l-795 -1251h-22l-68 454l-133 797h-8l-205 -875q-27 -108 -27 -186q0 -64 25 -90q31 -42 166 -62l-13 -61
h-555l17 61l33 5q32 4 61.5 10.5t55 18.5t46.5 31.5t36 50.5q14 27 30 78.5t35 129.5l176 758q8 40 8 78q0 35 -13 59.5t-36.5 41t-55.5 25t-71 11.5l14 61h389l185 -1140l608 960q43 75 66.5 120t27.5 60h385l-12 -61q-108 -9 -153 -31q-45 -21 -62 -92l-227 -967
q-21 -94 -21 -118z" />
    <glyph glyph-name="N" unicode="N" horiz-adv-x="1546" 
d="M1362 1206q0 64 -25 90q-26 40 -186 62l12 61h576l-17 -61l-33 -5q-34 -4 -63 -10t-54 -18t-45.5 -32t-37.5 -52q-28 -54 -64 -207l-243 -1052h-47l-611 1230l-190 -813q-5 -18 -10 -42.5t-8.5 -50t-6 -50t-2.5 -43.5q0 -64 25 -90q26 -40 186 -62l-12 -61h-576l17 61
l33 5q32 4 61.5 10.5t55 18.5t46.5 31.5t36 50.5q14 27 30 78.5t35 129.5l178 766q8 34 8 63q0 45 -45 90q-45 47 -174 54l16 61h348l582 -1165l178 766q5 19 10 43t8.5 49.5t6 50t2.5 43.5z" />
    <glyph glyph-name="O" unicode="O" horiz-adv-x="1446" 
d="M1425 870q0 -116 -28 -226.5t-80.5 -210t-128 -184.5t-171.5 -151q-193 -131 -388 -131q-127 0 -224 44.5t-163 121.5t-99.5 181.5t-33.5 224.5q0 115 27.5 228t80 215t128 189.5t172.5 151.5q188 125 388 125q237 0 378 -159q142 -157 142 -419zM1266 911q0 93 -20 176
t-65 146t-117 100t-175 37t-189.5 -38t-156 -103t-121.5 -150.5t-86.5 -180t-52 -192.5t-17.5 -188q0 -229 97 -350t280 -121q107 0 194.5 39t156.5 104.5t120 152.5t85 183t50.5 195t16.5 190z" />
    <glyph glyph-name="P" unicode="P" horiz-adv-x="1192" 
d="M893 1419q72 0 135.5 -19t111.5 -57t75.5 -95.5t27.5 -135.5q0 -71 -23 -134.5t-62.5 -116.5t-93 -95t-115 -71t-128.5 -44.5t-133 -15.5h-227l-96 -418q-11 -39 -11 -67q0 -22 8 -36t21 -22.5t30.5 -13t35.5 -8.5q54 -9 86 -9l-17 -61h-526l12 61l37 3q34 3 62 7.5
t49 16t36 33t23 57.5l246 1057q6 30 6 49q0 18 -21.5 31t-50 22t-56 14.5t-40.5 6.5l12 61h586zM1073 1108q0 112 -67 175t-185 63h-200l-142 -633h176q57 0 111 11t101.5 34t87 60.5t66.5 89.5q52 97 52 200z" />
    <glyph glyph-name="Q" unicode="Q" horiz-adv-x="1446" 
d="M1425 870q0 -102 -21.5 -199.5t-63 -187.5t-101 -170t-136.5 -147q-150 -132 -325 -178q-6 -35 -6 -80q0 -47 16.5 -82.5t45.5 -60.5t68 -37.5t83 -12.5q58 0 116.5 5t115.5 18l-17 -74q-31 -8 -66.5 -14t-72 -10.5t-72.5 -6.5t-69 -2q-148 0 -226 72t-78 207q0 44 7 57
q-116 -1 -211 40.5t-163 117.5t-104.5 181.5t-35.5 232.5q0 115 27.5 228t80 215t128 189.5t172.5 151.5q188 125 388 125q237 0 378 -159q142 -157 142 -419zM1266 911q0 93 -20 176t-65 146t-117 100t-175 37t-189.5 -38t-156 -103t-121.5 -150.5t-86.5 -180t-52 -192.5
t-17.5 -188q0 -229 97 -350t280 -121q107 0 194.5 39t156.5 104.5t120 152.5t85 183t50.5 195t16.5 190z" />
    <glyph glyph-name="R" unicode="R" horiz-adv-x="1339" 
d="M348 145q0 -52 31 -65q5 -4 24.5 -7.5t42.5 -6t44 -4t30 -1.5l-16 -61h-516l16 61q110 9 131 21q62 26 80 102l242 1059q4 7 4 35q0 20 -6 32t-16.5 19t-25.5 11t-32 7q-55 11 -73 11h-5l12 61h568q73 0 135.5 -18t108.5 -52.5t72 -84t24 -111.5q0 -101 -35.5 -179.5
t-96.5 -136t-142.5 -95.5t-172.5 -58l131 -251l107 -212q42 -79 80 -105l26 -20q46 -29 140 -35l-17 -61h-278q-42 102 -100.5 225.5t-136.5 270.5l-79 151h-188l-109 -477zM1051 1130q0 51 -16 92t-46 69.5t-71.5 43.5t-92.5 15h-204l-140 -625h164q82 0 156 32.5t129.5 88
t88 129t32.5 155.5z" />
    <glyph glyph-name="S" unicode="S" horiz-adv-x="1102" 
d="M504 -23q-129 0 -220.5 25.5t-160.5 79.5l-47 -82h-66l90 471h70q3 -90 18 -167.5t53.5 -134.5t106 -89.5t174.5 -32.5q79 0 144.5 23.5t113 67.5t73.5 108t26 145q0 79 -38.5 138.5t-101.5 86.5q-29 13 -66.5 28t-85.5 32q-155 54 -219 101q-63 48 -94.5 112t-31.5 139
q0 93 41 169.5t107 132t150 86t171 30.5q193 0 329 -98l43 71h68l-98 -465h-68v21q0 84 -9 157t-40.5 127t-92 84.5t-163.5 30.5q-66 0 -121.5 -22.5t-96.5 -62t-64 -95t-23 -121.5q0 -65 18.5 -107.5t51.5 -71t78 -48t98 -37.5q71 -25 141 -54t125.5 -71.5t90 -103
t34.5 -148.5q0 -100 -44 -183.5t-116 -144t-163 -94t-185 -33.5z" />
    <glyph glyph-name="T" unicode="T" horiz-adv-x="1241" 
d="M739 1352h-61q-130 0 -189 -9q-51 -7 -96 -38t-82 -74.5t-64.5 -93t-43.5 -93.5h-70l88 375h1204l-84 -375h-65v14q0 30 -3 69t-13 77.5t-27 71.5t-46 51q-40 25 -239 25h-67l-260 -1131q-11 -39 -11 -71q0 -47 61 -66q31 -10 66.5 -15.5t77.5 -7.5l-12 -61h-606l12 61
l40 3q107 6 142 18q60 23 76 94z" />
    <glyph glyph-name="U" unicode="U" horiz-adv-x="1597" 
d="M657 -33q-94 -2 -176 23.5t-142 70t-94 103t-32 123.5q0 58 18 131l191 815q6 30 6 51q0 20 -19.5 33t-46 21.5t-53.5 13t-41 6.5l13 61h501l-14 -61q-107 -11 -149 -34q-43 -22 -58 -91l-192 -838q-13 -46 -13 -100q0 -48 22 -90.5t64 -74.5t102.5 -50.5t137.5 -18.5
q83 0 162 19t146 58.5t116 101.5t72 147q12 44 36.5 147.5t61.5 268.5q74 332 74 403q0 64 -25 90q-13 20 -64.5 37.5t-121.5 24.5l12 61h575l-16 -61l-33 -5q-33 -4 -63 -10.5t-55.5 -19t-47 -33t-36.5 -52.5q-25 -52 -58 -196l-47 -222q-11 -50 -35.5 -153.5t-62.5 -263.5
q-30 -113 -87.5 -195.5t-137 -136t-178.5 -79t-212 -25.5z" />
    <glyph glyph-name="V" unicode="V" horiz-adv-x="1309" 
d="M504 -20q-17 136 -40 311.5t-54 395.5t-51 357.5t-31 194.5q-9 41 -30.5 65.5t-61.5 38.5q-40 15 -70 15l14 61h494l-17 -61q-108 0 -148 -14q-38 -14 -38 -48l4 -48q7 -67 24.5 -198.5t45.5 -331.5t44 -313.5t21 -144.5l298 471l225 363q75 131 75 182q0 22 -22 37
t-51.5 25t-59.5 14.5t-45 5.5l12 61h517l-13 -61q-45 0 -81 -13t-65.5 -35.5t-54.5 -53t-49 -66.5q-198 -301 -389.5 -602t-380.5 -608h-22z" />
    <glyph glyph-name="W" unicode="W" horiz-adv-x="1886" 
d="M1235 -20h-33l-133 1128l-661 -1128h-31q-16 915 -33 1230q-4 69 -24 95q-9 13 -23 23t-30.5 16.5t-33.5 10t-32 3.5l12 61h485l-12 -61q-203 0 -203 -66v-62l2 -91l27 -826l635 1076h31l135 -1092q93 183 189 378t196 406q44 98 57 138q14 42 14 65q0 62 -161 74l12 61
h494l-13 -61q-54 0 -127 -37q-74 -47 -123 -137z" />
    <glyph glyph-name="X" unicode="X" horiz-adv-x="1401" 
d="M260 1419h506l-12 -61q-104 0 -139 -15q-33 -13 -33 -49q0 -33 30 -110q16 -38 58 -129.5t112 -237.5l94 99q30 31 66 69t79 83q43 46 71.5 76.5t42.5 47.5q30 33 47.5 62t17.5 46q0 27 -40.5 42.5t-115.5 15.5l17 61h504l-13 -61l-26 -2q-48 -3 -84 -13.5t-66 -29
t-58 -45t-61 -60.5l-97 -101q-125 -125 -210.5 -214t-136.5 -143q66 -144 108 -234t60 -128q36 -75 78 -159q10 -19 23.5 -44t30 -48.5t36.5 -42t43 -25.5q30 -8 82 -8l-14 -61h-521l13 61q174 0 174 60q0 59 -57 194q-28 69 -65 150t-85 178q-48 -46 -141.5 -146.5
t-235.5 -256.5q-35 -39 -57.5 -73t-22.5 -48q0 -58 70 -58h88l-12 -61h-514l16 61l24 3q80 6 146 47t119 98q37 40 99 103.5t150 153.5t147.5 152t90.5 97l-233 491q-22 50 -52 84.5t-84 50.5q-54 17 -73 17z" />
    <glyph glyph-name="Y" unicode="Y" horiz-adv-x="1180" 
d="M567 143q0 -31 40 -50q42 -20 167 -32l-12 -61h-606l12 61l40 3q108 6 144 18q58 23 74 94l72 307q14 65 14 82q0 59 -58 249q-29 97 -59.5 191t-62.5 187q-13 38 -26.5 67t-32.5 49.5t-47 33t-72 16.5l16 61h473l-14 -61l-54 -3q-116 -6 -116 -50q0 -54 176 -621
q67 82 136 166t130.5 159.5t111 137.5t77.5 100q16 22 16 45q0 54 -116 62l-60 4l16 61h486l-17 -61q-29 -4 -53 -10t-45.5 -15t-41.5 -23t-41 -35q-21 -20 -62.5 -65.5t-104.5 -117.5t-121.5 -142.5t-115.5 -140.5t-90.5 -114t-45.5 -62q-23 -37 -36 -73q-6 -19 -26 -105
t-54 -242q-11 -42 -11 -70z" />
    <glyph glyph-name="Z" unicode="Z" horiz-adv-x="1184" 
d="M1001 0h-1087l6 20l1206 1330h-364q-114 0 -182 -9q-52 -8 -102 -40t-93.5 -76t-77.5 -95t-55 -96h-64l129 385h1022l-6 -20l-1204 -1329h322q18 0 49 1t68 3t77 5.5t75.5 9t63.5 13t41 17.5q29 21 58.5 48.5t56.5 58.5t51 63.5t43 62.5l47 72h66z" />
    <glyph glyph-name="bracketleft" unicode="[" horiz-adv-x="694" 
d="M-35 -309l422 1829h467l-18 -88h-359l-381 -1651h361l-25 -90h-467z" />
    <glyph glyph-name="backslash" unicode="\" horiz-adv-x="956" 
d="M551 -424l-184 1948h110l185 -1948h-111z" />
    <glyph glyph-name="bracketright" unicode="]" horiz-adv-x="694" 
d="M762 1520l-422 -1829h-467l18 88h359l381 1651h-361l25 90h467z" />
    <glyph glyph-name="asciicircum" unicode="^" horiz-adv-x="1255" 
d="M1008 815l-326 531l-326 -531h-120l395 641h102l393 -641h-118z" />
    <glyph glyph-name="underscore" unicode="_" horiz-adv-x="1255" 
d="M-180 -274l20 94h1268l-23 -94h-1265z" />
    <glyph glyph-name="grave" unicode="`" horiz-adv-x="1024" 
d="M930 1114l-256 242q-64 55 -64 110q0 26 16.5 47t45.5 21q34 0 59 -24q24 -22 80 -115q35 -60 74.5 -122t83.5 -128z" />
    <glyph glyph-name="a" unicode="a" horiz-adv-x="1124" 
d="M707 143l-62 -54q-128 -116 -262 -116q-82 0 -140.5 30.5t-96.5 82t-56 119t-18 141.5q0 84 21 165t60 154t94 136t124 111q136 94 286 94q105 0 195 -38l39 -18l123 39l8 -12l-154 -662q-12 -55 -21 -96.5t-9 -68.5q0 -68 86 -68q84 0 123 16l-11 -53q-19 -12 -46.5 -23
t-57.5 -19.5t-59 -13.5t-52 -5q-110 0 -110 110q0 29 4 49h-8zM412 66q34 0 70 9t75 28.5t82.5 51t93.5 76.5l127 543q0 43 -17 75t-45 53.5t-65 32.5t-76 11q-67 0 -128 -28t-111.5 -73.5t-89.5 -102.5t-64 -114q-61 -140 -61 -296q0 -123 52 -194.5t157 -71.5z" />
    <glyph glyph-name="b" unicode="b" horiz-adv-x="1077" 
d="M371 866q89 78 159.5 109t135.5 31q84 0 147.5 -30.5t106.5 -82.5t64.5 -121.5t21.5 -148.5q0 -81 -19 -160t-55 -150.5t-87.5 -134t-117.5 -110.5q-131 -97 -272 -97q-72 0 -129 11t-102 32t-79.5 51.5t-60.5 69.5l264 1157q14 58 14 103q0 39 -28 52q-30 14 -129 26
l12 55l291 20l12 -12l-158 -670h9zM874 627q0 135 -60 213t-183 78q-42 0 -80.5 -13t-74.5 -33.5t-69 -46t-63 -51.5l-139 -618q17 -47 83 -84q67 -37 154 -37q66 0 124 25t105 66.5t84 95t61 110.5q58 135 58 295z" />
    <glyph glyph-name="c" unicode="c" horiz-adv-x="897" 
d="M877 811q0 -23 -5 -51.5t-17 -53t-31.5 -41t-49.5 -16.5q-42 0 -61 21.5t-19 50.5q0 39 51 166q-9 15 -27.5 25t-40.5 16t-44 9t-37 3q-61 0 -114 -25t-96.5 -65.5t-76.5 -92t-54 -103.5q-54 -132 -54 -289q0 -60 16 -114t48 -95t80.5 -65.5t113.5 -24.5q176 0 329 202
l50 -32q-33 -51 -80.5 -98.5t-103 -84t-117.5 -58.5t-125 -22q-87 0 -151 28t-106 77.5t-62.5 118.5t-20.5 151q0 78 16 157t47 152t76.5 136.5t105 111t132.5 74.5t159 27q46 0 93.5 -10t86.5 -33t64 -60.5t25 -91.5z" />
    <glyph glyph-name="d" unicode="d" horiz-adv-x="1124" 
d="M838 150q0 -68 86 -68q84 0 123 16l-11 -53q-19 -12 -46.5 -23t-57.5 -19.5t-59 -13.5t-52 -5q-110 0 -110 110q0 29 4 49h-8l-62 -54q-128 -116 -262 -116q-82 0 -140.5 30.5t-96.5 82t-56 119t-18 141.5q0 84 21 165t60 154t94 136t124 111q136 94 286 94
q71 0 128 -14.5t122 -43.5l80 346q14 58 14 101q0 40 -34 55q-34 16 -140 23l15 55l303 20l10 -12l-287 -1221q-12 -55 -21 -96.5t-9 -68.5zM412 66q34 0 70 9t75 28.5t82.5 51t93.5 76.5l127 543q0 77 -49 124.5t-154 47.5q-67 0 -128 -28t-111.5 -73.5t-89.5 -102.5
t-64 -114q-61 -140 -61 -296q0 -123 52 -194.5t157 -71.5z" />
    <glyph glyph-name="e" unicode="e" horiz-adv-x="922" 
d="M881 809q0 -108 -71 -188q-35 -39 -93 -72t-136.5 -59.5t-176 -47.5t-211.5 -36v-18q0 -157 63 -239.5t188 -82.5q179 0 336 204l49 -34q-36 -54 -84 -102t-104 -83.5t-119.5 -56.5t-130.5 -21q-155 0 -238 97.5t-83 277.5q0 80 19 160t54 153t86 136t115 109.5t140 73
t161 26.5q115 0 175.5 -53t60.5 -144zM641 940q-57 0 -109 -19t-98 -51t-83.5 -74.5t-65.5 -89.5q-64 -109 -84 -237q56 8 110.5 16.5t108 22t105 33.5t99.5 50q73 46 107.5 102.5t34.5 123.5q0 57 -32.5 90t-92.5 33z" />
    <glyph glyph-name="f" unicode="f" horiz-adv-x="621" 
d="M702 981l-22 -84h-248l-176 -838q-21 -105 -67 -197.5t-108.5 -161t-137.5 -107.5t-156 -37q-52 0 -85.5 27t-33.5 67q0 29 18.5 52.5t61.5 23.5q15 0 28 -4t26.5 -13.5t29 -26.5t33.5 -44q93 5 161 103.5t107 281.5l184 874h-194l18 84h195l14 61q56 232 184 368
q129 138 291 138q50 0 84.5 -23t34.5 -61q0 -35 -20.5 -60.5t-55.5 -25.5q-42 0 -73 27.5t-56 64.5q-179 -9 -266 -389l-22 -100h251z" />
    <glyph glyph-name="g" unicode="g" horiz-adv-x="1116" 
d="M1016 989l8 -12l-168 -776q-29 -135 -74.5 -253t-118.5 -205t-180.5 -137t-261.5 -50q-100 0 -155.5 33t-55.5 96q0 31 17.5 56.5t58.5 25.5q61 0 96 -104l17 -48h43q183 0 307 133t178 395h-10l-62 -52q-127 -111 -262 -111q-81 0 -140 29.5t-97 79.5t-56 116.5
t-18 140.5q0 84 21.5 165.5t61.5 156t96 138t126 109.5q134 91 281 91q57 0 111 -12t122 -44zM422 72q146 0 321 159l121 543q0 85 -50 128.5t-146 43.5q-67 0 -127 -27.5t-110 -72t-89 -100.5t-65 -113q-64 -141 -64 -301q0 -125 51.5 -192.5t157.5 -67.5z" />
    <glyph glyph-name="h" unicode="h" 
d="M520 1536l-168 -696h4q36 33 81 63t95.5 53t103 36.5t101.5 13.5q43 0 80 -14t64 -39.5t42 -61.5t15 -80q0 -62 -25 -158q-51 -197 -78 -305t-32 -129q-8 -43 -8 -69q0 -68 86 -68q84 0 123 16l-11 -53q-19 -12 -46.5 -23t-57.5 -19.5t-59 -13.5t-52 -5q-110 0 -110 110
q0 47 18 117l105 399q28 111 28 174q0 31 -12.5 55t-33.5 40.5t-47.5 25t-55.5 8.5q-45 0 -92 -15t-91.5 -40t-83.5 -56t-69 -63l-170 -739h-113l297 1292q14 58 14 103q0 39 -28 52q-30 14 -129 26l12 55l291 20z" />
    <glyph glyph-name="i" unicode="i" horiz-adv-x="537" 
d="M435 1177q-23 0 -43.5 8.5t-36 23t-24.5 34.5t-9 44t9 44.5t24.5 35.5t36 23.5t43.5 8.5t43.5 -9t35.5 -24t24 -35.5t9 -43.5t-9 -43t-24 -35t-35.5 -23.5t-43.5 -8.5zM262 150q0 -68 86 -68q84 0 123 16l-10 -53q-19 -12 -46.5 -23t-57.5 -19.5t-59 -13.5t-52 -5
q-111 0 -111 110q0 42 19 117l110 465q29 118 29 164q0 67 -82 67q-59 0 -119 -16l10 53q20 12 47 23t56 19.5t58 14t52 5.5q105 0 105 -111q0 -42 -19 -117l-110 -465q-29 -113 -29 -163z" />
    <glyph glyph-name="j" unicode="j" horiz-adv-x="520" 
d="M435 1177q-23 0 -43.5 8.5t-36 23t-24.5 34.5t-9 44t9 44.5t24.5 35.5t36 23.5t43.5 8.5t43.5 -9t35.5 -24t24 -35.5t9 -43.5t-9 -43t-24 -35t-35.5 -23.5t-43.5 -8.5zM299 838q0 32 -17.5 50.5t-68.5 18.5q-11 0 -27 -1.5t-33.5 -4.5t-33 -6.5t-25.5 -7.5l10 55
q29 15 58.5 27t57 20.5t52 12.5t43.5 4q111 0 111 -111q0 -26 -4 -57t-12 -68q-48 -238 -150 -711q-14 -63 -38 -126.5t-58.5 -121t-79.5 -106.5t-101 -85q-98 -64 -198 -64q-51 0 -81 26t-30 68q0 32 18.5 54t53.5 22q20 0 36.5 -8t30.5 -21t25.5 -28.5t22.5 -30.5
q102 0 167 96t107 289l70 311q94 412 94 504z" />
    <glyph glyph-name="k" unicode="k" horiz-adv-x="1014" 
d="M274 492q66 63 182.5 166t286.5 247q57 48 95 68t75 20q42 0 64 -26.5t22 -61.5q0 -38 -23 -63t-65 -25q-39 0 -104 17q-68 -42 -147 -100t-171 -136q29 -69 60 -137t65 -137q68 -135 98 -174q57 -72 130 -72q14 0 31 1.5t35 4t35 5.5t30 7l-10 -53q-109 -53 -205 -53
q-56 0 -97 37.5t-81 119.5q-104 203 -170 373l-160 -131l-86 -389h-113l297 1292q14 58 14 103q0 39 -28 52q-30 14 -129 26l12 55l291 20l12 -12l-250 -1044h4z" />
    <glyph glyph-name="l" unicode="l" horiz-adv-x="512" 
d="M215 150q0 -68 86 -68q84 0 123 16l-10 -53q-19 -12 -46.5 -23t-57.5 -19.5t-59 -13.5t-52 -5q-111 0 -111 110q0 45 18 117l250 1081q15 60 15 103q0 39 -28 52q-30 14 -130 26l12 55l291 20l10 -12l-282 -1223q-29 -125 -29 -163z" />
    <glyph glyph-name="m" unicode="m" horiz-adv-x="1720" 
d="M1378 1006q44 0 81 -13.5t63.5 -39t41.5 -61.5t15 -81q0 -62 -25 -158q-51 -197 -78 -305t-32 -129q-8 -43 -8 -69q0 -68 86 -68q84 0 123 16l-11 -53q-19 -12 -46.5 -23t-57.5 -19.5t-59 -13.5t-52 -5q-110 0 -110 110q0 47 18 117l105 399q28 111 28 174q0 27 -10 50.5
t-28.5 41t-45.5 27.5t-61 10q-69 0 -153 -41t-169 -129l-174 -743h-114l163 696q11 61 11 88q0 57 -39 93t-109 36q-45 0 -91 -15.5t-89.5 -40t-81.5 -55.5t-68 -63l-170 -739h-112l158 695q18 78 18 126q0 45 -17.5 60.5t-60.5 15.5q-57 0 -111 -16l11 53q124 59 213 59
q51 0 70.5 -28.5t19.5 -83.5l-2 -41h6q36 33 80.5 63t94 53t101.5 36.5t101 13.5q41 0 76 -12t61 -35t42 -55.5t19 -74.5h2q42 35 85 67t88.5 56.5t96 39t107.5 14.5z" />
    <glyph glyph-name="n" unicode="n" horiz-adv-x="1147" 
d="M846 -16q-111 0 -111 110q0 53 19 117l104 399q29 118 29 174q0 31 -12.5 55t-33.5 40.5t-48 25t-56 8.5q-45 0 -92 -15.5t-91 -40t-83.5 -55.5t-69.5 -63l-170 -739h-112l158 695q18 78 18 126q0 45 -17.5 60.5t-60.5 15.5q-57 0 -111 -16l11 53q124 59 213 59
q51 0 70.5 -28.5t19.5 -83.5l-2 -41h6q35 33 81 63t96 53t102.5 36.5t101.5 13.5q44 0 81 -13.5t63.5 -39t41.5 -61.5t15 -81q0 -27 -6 -66.5t-19 -91.5q-51 -196 -78 -303.5t-32 -128.5q-9 -42 -9 -71q0 -68 86 -68q84 0 123 16l-10 -53q-19 -12 -46.5 -23t-57.5 -19.5
t-59 -13.5t-52 -5z" />
    <glyph glyph-name="o" unicode="o" 
d="M971 627q0 -81 -17.5 -161.5t-51 -153.5t-82.5 -135.5t-112 -108t-139.5 -71.5t-165.5 -26q-83 0 -145.5 30.5t-104.5 82t-63.5 120.5t-21.5 146q0 82 17.5 162t51 153t82.5 135.5t111.5 108t138 71.5t162.5 26q83 0 146.5 -30t106.5 -81.5t65 -120.5t22 -147zM844 623
q0 155 -59.5 235t-174.5 80q-74 0 -133.5 -25.5t-105.5 -69t-79 -101t-54.5 -122t-32 -131.5t-10.5 -129q0 -161 60 -241t175 -80q90 -2 166.5 43t132 124.5t86.5 187t29 229.5z" />
    <glyph glyph-name="p" unicode="p" horiz-adv-x="1143" 
d="M170 -309q0 -21 9 -33t39 -24t72 -15l50 -4l-14 -59h-465l14 59q88 8 107 12q58 19 73 92l215 945q23 103 23 141q0 26 -3.5 44t-13 28.5t-27 15t-44.5 4.5q-19 0 -101 -20l11 53q134 63 213 63q48 0 74 -33.5t26 -93.5h8q33 27 66.5 52.5t69.5 45t75 31t84 11.5
q84 0 147.5 -30.5t106.5 -82.5t64.5 -121.5t21.5 -148.5q0 -81 -19 -160t-55 -150.5t-87.5 -134t-117.5 -110.5q-131 -97 -272 -97q-174 0 -282 72q-34 -160 -52 -244t-16 -108zM940 627q0 135 -60.5 213t-183.5 78q-41 0 -79.5 -13t-74.5 -33.5t-69 -46t-63 -51.5
l-140 -618q13 -31 40 -54t60.5 -38t70 -22t67.5 -7q66 0 124 25.5t105.5 67t84 95.5t60.5 111q58 135 58 293z" />
    <glyph glyph-name="q" unicode="q" horiz-adv-x="1075" 
d="M709 143l-62 -54q-131 -116 -264 -116q-82 0 -140.5 30.5t-96.5 82t-56 119t-18 141.5q0 84 21 165t60 154t94 136t124 111q136 94 286 94q105 0 195 -38l39 -18l115 39l10 -12l-266 -1186q-8 -40 -12.5 -65.5t-4.5 -38.5q0 -32 35 -48t121 -24l-15 -59h-464l12 59l65 4
q29 2 50 7t36.5 16t25.5 29.5t17 47.5l101 424h-8zM412 66q34 0 70 9t75 28.5t82.5 51t93.5 76.5l127 543q0 43 -17 75t-45 53.5t-65 32.5t-76 11q-67 0 -128 -28t-111.5 -73.5t-89.5 -102.5t-64 -114q-61 -140 -61 -296q0 -123 52 -194.5t157 -71.5z" />
    <glyph glyph-name="r" unicode="r" horiz-adv-x="909" 
d="M231 0h-112l151 664q25 99 25 157q0 45 -17.5 60.5t-60.5 15.5q-57 0 -111 -16l11 53q124 59 213 59q53 0 69 -36q17 -37 17 -89l-2 -47h6q97 85 178.5 135t157.5 50q75 0 109 -34t34 -106q0 -30 -7.5 -56.5t-20.5 -46t-31 -31t-39 -11.5q-44 0 -62 21t-18 49
q0 43 41 133q-79 0 -170.5 -46.5t-190.5 -142.5z" />
    <glyph glyph-name="s" unicode="s" horiz-adv-x="834" 
d="M246 754q0 -33 10.5 -60t34 -49.5t61.5 -42.5t92 -39q45 -16 94.5 -36t91 -49t68.5 -69.5t27 -97.5q0 -82 -30.5 -145t-83 -106t-121.5 -65t-146 -22q-136 0 -231 54q-93 56 -93 131q0 40 22 63t56 23q39 0 65 -38.5t34 -113.5q64 -49 186 -49q48 0 92 13.5t77.5 39.5
t54 65t20.5 91q0 68 -55.5 115t-155.5 82q-138 43 -200 104.5t-62 144.5q0 72 32 129t83.5 96.5t116 61t130.5 21.5q116 0 196 -41q81 -40 81 -103q0 -35 -17.5 -59.5t-52.5 -24.5q-42 0 -70 31.5t-49 108.5q-52 18 -121 18q-41 0 -83 -10.5t-76.5 -33t-56 -57t-21.5 -81.5z
" />
    <glyph glyph-name="t" unicode="t" horiz-adv-x="639" 
d="M244 176q0 -49 24 -70.5t84 -21.5q83 0 160 20l-12 -61q-116 -59 -230 -59q-69 0 -111 38.5t-42 104.5q0 51 14 115l154 655h-174l18 84h176l70 287h108l-65 -287h282l-18 -84h-285l-129 -561q-24 -97 -24 -160z" />
    <glyph glyph-name="u" unicode="u" horiz-adv-x="1106" 
d="M809 -14q-52 0 -81.5 30.5t-29.5 85.5l2 27h-6q-40 -32 -80 -59.5t-82 -48t-88.5 -32.5t-99.5 -12q-45 0 -83 13.5t-65.5 39t-43 62t-15.5 82.5q0 55 23 156l78 334q13 61 19.5 101t6.5 60q0 35 -15.5 53.5t-60.5 18.5q-34 0 -116 -20l14 53q126 63 207 63q98 0 98 -100
q0 -57 -20 -139l-86 -383q-27 -108 -27 -166q0 -60 41 -96.5t111 -36.5q41 0 85 15t86.5 38t80 51.5t65.5 56.5l176 746l103 10l12 -14l-158 -658q-5 -24 -10.5 -48.5t-10 -46.5t-7.5 -40.5t-3 -29.5q0 -42 26.5 -56t80.5 -14q9 0 22.5 1t27.5 3t27 4.5t21 5.5l-10 -51
q-116 -59 -215 -59z" />
    <glyph glyph-name="v" unicode="v" horiz-adv-x="1067" 
d="M821 924q0 32 22 57t62 25q88 0 88 -154q0 -100 -19.5 -205t-58.5 -205t-97 -188.5t-135 -156.5q-142 -126 -304 -126q-54 0 -99 15t-77.5 44.5t-51 72.5t-18.5 98q0 66 25 151l64 232q48 168 48 241q0 72 -71 72q-11 0 -28.5 -2t-36 -5t-35.5 -7t-27 -9l12 54
q133 65 219 65q96 0 96 -104q0 -46 -12 -105l-117 -452q-8 -35 -12 -65.5t-4 -55.5q0 -66 43.5 -102.5t124.5 -36.5q83 0 151 35.5t122 92.5t93.5 128t64.5 141q44 123 44 205q0 53 -12 85t-26 56.5t-26 48.5t-12 60z" />
    <glyph glyph-name="w" unicode="w" horiz-adv-x="1595" 
d="M950 -29q-97 0 -157 46.5t-82 136.5h-6q-114 -93 -162 -120t-96.5 -42t-102.5 -15q-45 0 -83 13.5t-65.5 39t-43 62t-15.5 82.5q0 55 23 156l78 334q13 61 19.5 101t6.5 60q0 35 -15.5 53.5t-60.5 18.5q-34 0 -116 -20l14 53q126 63 207 63q98 0 98 -100q0 -57 -20 -139
l-86 -383q-27 -108 -27 -166q0 -60 41 -96.5t111 -36.5q39 0 80.5 15t81 38.5t74.5 52t61 55.5l176 746l102 10l12 -14l-155 -643q-17 -70 -17 -121q0 -66 43.5 -102.5t124.5 -36.5q82 0 148 35t117.5 91t88.5 126t60 139q41 123 41 211q0 53 -12 85t-26 56.5t-26 48.5
t-12 60q0 32 22 57t62 25q88 0 88 -154q0 -99 -18.5 -205t-56 -206.5t-94 -190.5t-132.5 -158q-136 -121 -293 -121z" />
    <glyph glyph-name="x" unicode="x" horiz-adv-x="983" 
d="M518 571q132 203 244 328q85 94 190 94q35 0 58.5 -21t23.5 -57q-4 -73 -96 -73q-57 0 -111 22q-40 -36 -76.5 -75.5t-71 -84t-68.5 -95t-70 -109.5q7 -25 18 -58.5t27 -78.5q32 -87 51 -138q15 -39 30.5 -66.5t34 -44.5t41 -24.5t50.5 -7.5q57 0 122 14l-16 -53
q-86 -53 -176 -53q-48 0 -80 18.5t-57 56.5q-24 38 -57 134q-16 48 -32 96.5t-32 99.5q-48 -69 -106.5 -150t-139.5 -169q-86 -92 -182 -92q-38 0 -64 21.5t-26 60.5q0 30 23 51.5t71 21.5q50 0 113 -30q140 122 288 358q-26 91 -66 203q-40 113 -62 152q-21 38 -43.5 54.5
t-61.5 16.5q-56 0 -125 -23l16 58q24 15 48.5 27t47.5 20.5t43 13t35 4.5q43 0 72.5 -20t52.5 -65q25 -45 65 -167q41 -121 54 -170z" />
    <glyph glyph-name="y" unicode="y" horiz-adv-x="1075" 
d="M707 137q-40 -32 -82 -61t-86.5 -51t-93 -35t-101.5 -13q-45 0 -83 13.5t-65.5 39t-43 62t-15.5 82.5q0 55 23 156l78 334q13 61 19.5 101t6.5 60q0 35 -15.5 53.5t-60.5 18.5q-34 0 -116 -20l14 53q126 63 207 63q98 0 98 -100q0 -57 -20 -139l-86 -383
q-27 -108 -27 -166q0 -60 41 -96.5t111 -36.5q41 0 86 14t88.5 36.5t82 50.5t66.5 56l172 750l101 10l10 -12l-170 -766q-21 -94 -45.5 -179t-59 -157.5t-81.5 -131.5t-111.5 -100.5t-150 -64t-197.5 -22.5q-199 0 -199 118q0 40 20 62t54 22q64 0 106 -97l19 -46h22
q191 0 316 132.5t176 389.5h-8z" />
    <glyph glyph-name="z" unicode="z" horiz-adv-x="874" 
d="M133 78q66 -1 109 -1.5t63 -0.5q145 0 244 6q42 0 72 35q31 38 71 130l43 93h53l-65 -340h-750l15 61l745 840h-174q-112 0 -175.5 -8t-86.5 -27q-23 -18 -48 -65t-54 -117h-56l58 295h704l-10 -51z" />
    <glyph glyph-name="braceleft" unicode="{" horiz-adv-x="809" 
d="M539 -334q-59 0 -115.5 6.5t-100.5 29t-71 65t-27 114.5q0 51 16.5 114t37 127.5t37 125t16.5 108.5q0 42 -14.5 74t-46 54.5t-81 36.5t-120.5 20l26 118q111 11 182.5 36.5t115 73t66 119t36.5 173.5q15 115 42.5 203.5t80 149t137 91.5t215.5 31l-19 -80
q-60 -2 -110 -10t-88.5 -30t-66 -62.5t-42.5 -108.5l-59 -254q-21 -87 -55 -155.5t-84.5 -117t-119.5 -77t-161 -37.5l-2 -8q138 -12 200 -73t62 -173q0 -59 -18 -139l-60 -254q-5 -22 -7.5 -40.5t-2.5 -33.5q0 -44 19.5 -74t61.5 -45q36 -14 138 -22z" />
    <glyph glyph-name="bar" unicode="|" horiz-adv-x="754" 
d="M356 -424v1948h103v-1948h-103z" />
    <glyph glyph-name="braceright" unicode="}" horiz-adv-x="809" 
d="M297 1536q84 0 143.5 -12t97 -38.5t55 -67t17.5 -97.5q0 -51 -16.5 -114t-36.5 -127.5t-36.5 -125t-16.5 -108.5q0 -43 14.5 -75.5t46 -55t81.5 -35.5t120 -18l-27 -119q-70 -7 -131 -21.5t-109 -44.5t-82 -78.5t-52 -122.5q-5 -20 -11 -53.5t-14 -80.5q-7 -47 -17 -101
t-27 -106t-42.5 -98.5t-64.5 -79.5q-54 -48 -133.5 -69.5t-190.5 -21.5l18 80q60 2 110 10t88.5 30.5t66 63t42.5 107.5l60 254q21 88 54.5 156t84 117t120 77.5t161.5 36.5l2 8q-72 8 -121.5 26.5t-81 49t-45.5 73t-14 97.5q0 60 18 139l59 254q11 50 11 74
q0 48 -19.5 74.5t-50.5 40t-70 18t-79 8.5z" />
    <glyph glyph-name="asciitilde" unicode="~" horiz-adv-x="1255" 
d="M1159 705q-21 -54 -55 -103.5t-77.5 -87t-94 -60t-103.5 -22.5q-64 0 -118 18t-105 39.5t-100.5 39.5t-104.5 18q-34 0 -63 -13.5t-51 -38.5q-11 -13 -29 -40t-43 -70l-65 25q18 50 50.5 98t75.5 86.5t94 62t107 23.5q66 0 121 -18t105.5 -39.5t99 -39.5t102.5 -18
q53 0 93 31t98 133z" />
    <glyph glyph-name="exclamdown" unicode="&#xa1;" horiz-adv-x="631" 
d="M600 1352q0 -51 -30 -82t-76 -31q-51 0 -80 31t-29 82q0 46 29 76t80 30q46 0 76 -30t30 -76zM483 1028q-19 -68 -45.5 -196t-60.5 -320q-22 -158 -36 -252t-19 -128q-4 -28 -12 -54.5t-22.5 -47.5t-37 -33.5t-55.5 -12.5q-74 0 -74 77q0 22 14 86q22 84 70 242.5
t123 395.5l75 243h80z" />
    <glyph glyph-name="cent" unicode="&#xa2;" horiz-adv-x="1024" 
d="M942 811q0 -36 -7.5 -66t-21 -51t-32.5 -33t-41 -12q-42 0 -61 21.5t-19 50.5q0 54 51 166q-11 17 -41.5 31.5t-75.5 19.5l-207 -870q14 -1 23 -1.5t14 -0.5q177 0 330 202l49 -32q-33 -51 -80 -98.5t-103 -84t-118 -58.5t-125 -22h-12l-64 -272h-82l68 281
q-58 12 -104.5 43t-79 78.5t-49.5 109t-17 135.5q0 73 14.5 148t42.5 145t70 132.5t96.5 111.5t122 80t146.5 39l63 272h82l-65 -272q54 -3 97 -18.5t73.5 -41t46.5 -59t16 -74.5zM266 365q0 -48 10 -90.5t28.5 -78t46 -62.5t61.5 -44l200 846q-70 -12 -133.5 -62.5
t-111.5 -128t-75.5 -175.5t-25.5 -205z" />
    <glyph glyph-name="sterling" unicode="&#xa3;" horiz-adv-x="1206" 
d="M1083 1257q-3 32 -20 56t-42 39.5t-55 23.5t-59 8q-67 0 -120.5 -23.5t-94 -64t-68 -94t-44.5 -112.5q-12 -46 -29 -142.5t-39 -245.5h399l-18 -84h-395q-28 -163 -104 -282.5t-216 -196.5v-8h866l-28 -131h-985l24 127q69 23 123.5 78t94 125t64.5 146t36 142h-158
l18 84h154l37 273q42 220 177 349q134 130 317 130q66 1 119 -18t90.5 -52t57 -77.5t19.5 -94.5q0 -78 -30 -121.5t-84 -43.5q-76 0 -76 53q0 46 47 120z" />
    <glyph glyph-name="currency" unicode="&#xa4;" 
d="M836 188l-166 162q-61 -39 -127 -39q-71 0 -127 39l-164 -164l-74 78l158 164q-35 58 -35 125t35 125l-158 168l78 74l160 -164q56 39 127 39q66 0 127 -37l161 162l80 -74l-163 -168q36 -52 36 -125q0 -72 -36 -125l163 -166zM686 553q0 30 -11 56t-30.5 46t-45.5 31.5
t-56 11.5q-31 0 -56.5 -11.5t-44 -31t-29 -46t-10.5 -56.5t10.5 -56t29 -46t44.5 -31.5t56 -11.5q31 0 57 11.5t45 31t30 46t11 56.5z" />
    <glyph glyph-name="yen" unicode="&#xa5;" horiz-adv-x="1143" 
d="M643 547h385l-18 -82h-385l-64 -279q-4 -15 -4 -34q0 -22 12 -37.5t34.5 -26t54.5 -17t71 -10.5l-12 -61h-520l16 61q109 9 144 23q34 15 49.5 38.5t25.5 65.5l66 277h-365l21 82h362l21 92l-50 201q-22 80 -41.5 147t-36.5 124t-29.5 93t-20.5 52q-16 32 -42 58
q-25 26 -51 33.5t-63 10.5l12 61h449l-13 -61q-72 -3 -113.5 -14.5t-41.5 -43.5q0 -23 42 -187q21 -82 46.5 -176t56.5 -200l303 391q35 45 57 74.5t32 45.5q20 32 20 46q0 29 -33 44t-117 20l15 61h462l-16 -61q-28 -6 -52 -13t-46 -16t-43 -22t-43 -33q-27 -25 -163 -187
t-236 -293l-111 -143z" />
    <glyph glyph-name="brokenbar" unicode="&#xa6;" horiz-adv-x="754" 
d="M356 723v801h103v-801h-103zM356 -424v809h103v-809h-103z" />
    <glyph glyph-name="section" unicode="&#xa7;" horiz-adv-x="961" 
d="M51 -121q0 40 19 67t59 27q27 0 47.5 -16t34.5 -39t22 -50.5t9 -49.5q42 -21 123 -21q120 0 188 57t68 162q0 43 -16.5 74t-45.5 56.5t-70 48.5t-90 49q-154 80 -206 144q-52 65 -52 165q0 226 318 358q-172 88 -172 232q0 133 112 221q113 90 285 90q118 0 191 -42
q75 -42 75 -105q0 -42 -18 -69.5t-60 -27.5q-95 0 -116 158q-44 16 -113 16q-49 0 -94.5 -12t-81 -37.5t-57 -65t-21.5 -93.5q0 -64 54 -114q27 -25 74 -52t114 -58q66 -30 113 -61.5t77 -66t44 -72.5t14 -82q0 -118 -81.5 -213t-238.5 -164q45 -24 75.5 -48.5t50 -52
t28 -59t8.5 -67.5q0 -83 -31 -146t-84 -106t-123 -64.5t-147 -21.5q-23 0 -53 2.5t-61.5 8.5t-62.5 17t-55 28t-38.5 40.5t-14.5 54.5zM766 639q0 48 -24.5 85t-61.5 65.5t-80 50t-80 37.5q-274 -93 -274 -295q0 -77 54 -133q55 -54 200 -125q135 63 200.5 138t65.5 177z
" />
    <glyph glyph-name="dieresis" unicode="&#xa8;" horiz-adv-x="1024" 
d="M596 1370q0 -42 -23 -71t-65 -29t-65 29t-23 71q0 43 23 73t65 30t65 -30t23 -73zM1004 1370q0 -42 -23.5 -71t-65.5 -29t-65 29t-23 71q0 43 23 73t65 30t65.5 -30t23.5 -73z" />
    <glyph glyph-name="copyright" unicode="&#xa9;" horiz-adv-x="1929" 
d="M1874 604q0 -122 -32 -235t-89.5 -211.5t-138.5 -179.5t-179 -138.5t-210.5 -89t-233.5 -31.5q-123 0 -236.5 32t-212 89.5t-179.5 138.5t-138.5 179.5t-89 211.5t-31.5 234q0 122 32 235t90.5 211t140 178t180 137t211 88.5t233.5 31.5q122 0 234.5 -32t210.5 -89.5
t178.5 -138t138.5 -178.5t89.5 -210t31.5 -233zM1776 604q0 110 -28 211.5t-78.5 190t-122 160.5t-158.5 123.5t-188 79.5t-210 28q-111 0 -212.5 -28.5t-189 -80t-159 -124.5t-122 -161t-78 -189t-27.5 -210q0 -111 27.5 -213.5t78.5 -191.5t122.5 -161.5t159 -124t189 -80
t211.5 -28.5q112 0 213.5 29t189 81t158 125t120.5 162t77 191t27 211zM1364 369q-57 -136 -145.5 -198t-217.5 -62q-102 0 -184 40t-139.5 107.5t-88 155.5t-30.5 184q0 65 14 128.5t42 121t70 106t99 83.5q106 65 226 65q141 0 247 -70l23 49h47l6 -334h-57
q-6 53 -23.5 105.5t-49 94t-76.5 67.5t-105 26q-149 0 -239 -120q-89 -119 -89 -318q0 -178 94 -294q95 -116 242 -116q96 0 165 46t118 155z" />
    <glyph glyph-name="ordfeminine" unicode="&#xaa;" horiz-adv-x="971" 
d="M782 625q-42 0 -68 23.5t-26 68.5l4 35h-4l-45 -39q-112 -99 -213 -99q-66 0 -111.5 27t-74 70.5t-41.5 99.5t-13 113q0 66 18 130.5t50.5 122t77 107.5t98.5 87q113 79 234 79q103 0 188 -43l96 33l11 -13l-132 -497q-28 -105 -28 -156q0 -65 78 -65q35 0 84 16l-9 -49
q-102 -51 -174 -51zM811 1257q0 78 -35 111t-110 33q-51 0 -97.5 -22.5t-85.5 -58.5t-69 -80t-50 -87q-51 -111 -51 -225q0 -111 40 -171.5t118 -60.5q35 0 66.5 12t59.5 30.5t53 42.5t48 48z" />
    <glyph glyph-name="guillemotleft" unicode="&#xab;" horiz-adv-x="1214" 
d="M485 133l-278 356q-10 10 -10 25q0 17 10 27q5 5 121.5 97.5t343.5 270.5l41 -45l-353 -348l179 -354zM852 133l-254 326q-15 20 -25 30t-10 25q0 16 11 27t32 28l432 340l41 -45l-352 -348l178 -354z" />
    <glyph glyph-name="logicalnot" unicode="&#xac;" horiz-adv-x="1255" 
d="M1022 90v438h-864v105h975v-543h-111z" />
    <glyph glyph-name="registered" unicode="&#xae;" horiz-adv-x="1929" 
d="M1874 604q0 -122 -32 -235t-89.5 -211.5t-138.5 -179.5t-179 -138.5t-210.5 -89t-233.5 -31.5q-123 0 -236.5 32t-212 89.5t-179.5 138.5t-138.5 179.5t-89 211.5t-31.5 234q0 122 32 235t90.5 211t140 178t180 137t211 88.5t233.5 31.5q122 0 234.5 -32t210.5 -89.5
t178.5 -138t138.5 -178.5t89.5 -210t31.5 -233zM1776 604q0 110 -28 211.5t-78.5 190t-122 160.5t-158.5 123.5t-188 79.5t-210 28q-111 0 -212.5 -28.5t-189 -80t-159 -124.5t-122 -161t-78 -189t-27.5 -210q0 -111 27.5 -213.5t78.5 -191.5t122.5 -161.5t159 -124t189 -80
t211.5 -28.5q112 0 213.5 29t189 81t158 125t120.5 162t77 191t27 211zM1262 135q-103 164 -224 323l-75 99h-138v-287q0 -56 33 -67q21 -10 100 -10v-58h-370v58l84 10q37 16 37 69v674q0 62 -37 72q-2 1 -5 1t-7 1q-3 1 -21 3.5t-51 6.5v57h416q53 0 107.5 -12t98.5 -39
t71.5 -70.5t27.5 -105.5q0 -96 -54.5 -162.5t-177.5 -105.5l126 -159q23 -29 50 -63.5t56 -74.5q46 -66 90 -82q22 -12 94 -20v-58h-231zM1171 846q0 90 -51 134t-145 44h-150v-401h119q48 0 89.5 16.5t72 46t48 70.5t17.5 90z" />
    <glyph glyph-name="macron" unicode="&#xaf;" horiz-adv-x="1180" 
d="M193 1606l20 94h1268l-23 -94h-1265z" />
    <glyph glyph-name="degree" unicode="&#xb0;" horiz-adv-x="858" 
d="M831 1128q0 -70 -23.5 -129t-66 -102t-101 -67.5t-128.5 -24.5t-128 24.5t-99.5 68t-64.5 102.5t-23 128t23 128t64.5 101.5t99.5 66.5t128 24t128.5 -24t101 -66.5t66 -101t23.5 -128.5zM696 1120q0 129 -49.5 195.5t-134.5 66.5q-51 0 -86 -23.5t-56 -60t-30.5 -81
t-9.5 -87.5q0 -121 49.5 -188.5t136.5 -67.5q77 0 128 66q52 65 52 180z" />
    <glyph glyph-name="plusminus" unicode="&#xb1;" horiz-adv-x="1255" 
d="M164 0v106h432v406h-432v104h432v445h109v-445h430v-104h-430v-406h430v-106h-971z" />
    <glyph glyph-name="twosuperior" unicode="&#xb2;" horiz-adv-x="971" 
d="M131 489l23 99q35 48 74 86t82.5 70t91.5 59.5t100 54.5q137 74 192 120q55 48 83 104t28 128q0 38 -12.5 69t-35 53t-53.5 34t-67 12q-128 0 -203 -90q0 -164 -102 -164q-29 0 -43.5 18.5t-14.5 43.5q0 62 37.5 111t94 83t121 52t118.5 18q57 0 109.5 -15t92 -45
t63.5 -76t24 -108q0 -76 -29.5 -133.5t-76.5 -101.5t-106.5 -77.5t-119.5 -62.5q-64 -31 -108 -53.5t-69 -37.5q-49 -29 -92.5 -62.5t-76.5 -71.5h618l-26 -117h-717z" />
    <glyph glyph-name="threesuperior" unicode="&#xb3;" horiz-adv-x="971" 
d="M877 780q2 -70 -32.5 -130t-93 -103.5t-137 -68t-165.5 -23.5q-138 0 -227 53q-87 53 -87 131q0 23 7 43.5t19 36t29 24.5t37 9q31 0 48.5 -18.5t17.5 -47.5q0 -36 -33 -96q10 -19 33.5 -32t52 -20.5t56.5 -10.5t47 -3q60 0 112.5 18.5t92 53t62.5 84t23 111.5
q0 143 -200 143h-107l21 92h84q50 0 97.5 12.5t85 38.5t60.5 66t23 96q0 70 -41 107.5t-111 37.5q-109 0 -180 -59q0 -166 -96 -166q-34 0 -51 19t-17 47q0 38 17.5 69.5t46.5 56.5t66.5 43.5t77.5 31t78.5 18.5t70.5 6q130 0 203 -57q75 -55 75 -146t-63 -152.5
t-205 -101.5l-2 -8q97 -18 151 -72.5t54 -132.5z" />
    <glyph glyph-name="acute" unicode="&#xb4;" horiz-adv-x="1024" 
d="M872 1468q0 -40 -25 -74q-24 -34 -135 -135l-159 -145l-37 31l117 188q95 155 120 177q26 24 58 24q29 0 45 -20t16 -46z" />
    <glyph glyph-name="uni00B5" unicode="&#xb5;" horiz-adv-x="1079" 
d="M137 98q-12 -50 -21 -97.5t-15 -94.5t-9.5 -95t-5.5 -100q-5 -155 -88 -155q-32 0 -50 19t-18 48q0 31 15 78q8 23 21 57.5t32 80.5q22 52 46.5 137t53.5 204l187 799l102 10l12 -14l-141 -600q-27 -126 -27 -166q0 -60 37 -98.5t115 -38.5q41 0 85 15t86.5 38t80 51.5
t65.5 56.5l177 746l102 10l12 -14l-157 -658q-31 -123 -31 -165t26 -56t80 -14q9 0 22.5 1t28 3t27.5 4.5t21 5.5l-11 -51q-116 -59 -215 -59q-52 0 -81 30.5t-29 88.5l2 28h-6q-37 -31 -75 -59t-79 -49t-85.5 -33t-94.5 -12q-73 0 -125 30.5t-68 87.5h-4z" />
    <glyph glyph-name="paragraph" unicode="&#xb6;" horiz-adv-x="975" 
d="M1102 1350h-111l-362 -1565h-92l362 1565h-158l-362 -1565h-94l223 960q-64 3 -122.5 20.5t-103.5 51.5t-71.5 85.5t-26.5 121.5q-2 87 33.5 160t98.5 126t147.5 82t179.5 27h475z" />
    <glyph glyph-name="periodcentered" unicode="&#xb7;" horiz-adv-x="512" 
d="M385 565q0 -45 -30 -74.5t-76 -29.5q-45 0 -74 29.5t-29 74.5q0 48 29 78.5t74 30.5q46 0 76 -30.5t30 -78.5z" />
    <glyph glyph-name="cedilla" unicode="&#xb8;" horiz-adv-x="1024" 
d="M545 -242q0 -202 -412 -202l14 69q66 0 118 7t88 20t55.5 31t19.5 41q0 40 -37.5 58.5t-118.5 18.5l41 215h72l-23 -118q183 -11 183 -140z" />
    <glyph glyph-name="onesuperior" unicode="&#xb9;" horiz-adv-x="971" 
d="M197 489l16 68q14 0 38.5 0.5t51 2t49.5 4.5t35 7q44 16 55 60l154 661h-217l16 72h74q81 0 145.5 24t104.5 56h37q-9 -31 -24.5 -91t-37.5 -151l-127 -545l-6 -39q0 -34 43 -47.5t144 -13.5l-17 -68h-534z" />
    <glyph glyph-name="ordmasculine" unicode="&#xba;" horiz-adv-x="971" 
d="M965 1141q0 -96 -32.5 -191.5t-92.5 -172t-144 -124t-188 -47.5q-69 0 -121.5 26t-88.5 70t-54.5 102t-18.5 122q0 65 15 130t44 124t71.5 110t97.5 88q105 72 225 72q67 0 120.5 -24t90.5 -66t56.5 -98t19.5 -121zM838 1145q0 112 -45.5 176.5t-126.5 64.5
q-54 0 -98.5 -22t-79.5 -58.5t-61 -84.5t-43 -99.5t-25.5 -104t-8.5 -97.5q0 -42 9 -86t29.5 -80t54 -59t83.5 -23t92.5 22.5t77 57.5t59.5 79t41 86q42 110 42 228z" />
    <glyph glyph-name="guillemotright" unicode="&#xbb;" horiz-adv-x="1214" 
d="M729 905l254 -325q16 -20 25.5 -30t9.5 -26q0 -15 -10.5 -26.5t-32.5 -28.5l-432 -340l-41 45l352 348l-178 355zM362 905l254 -325q16 -20 25.5 -30t9.5 -26q0 -15 -10.5 -26.5t-32.5 -28.5l-432 -340l-41 45l352 348l-178 355z" />
    <glyph glyph-name="onequarter" unicode="&#xbc;" horiz-adv-x="2128" 
d="M156 489l16 68q14 0 38.5 0.5t51 2t49.5 4.5t35 7q44 16 55 60l154 661h-217l16 72h74q81 0 145.5 24t104.5 56h37q-9 -31 -24.5 -91t-37.5 -151l-127 -545l-6 -39q0 -34 43 -47.5t144 -13.5l-17 -68h-534zM604 0h-127l1022 1419h127zM1881 209h-158l-53 -227h-134
l54 227h-498l25 105l698 647h82l-152 -651h158zM1612 310l113 477l-506 -477h393z" />
    <glyph glyph-name="onehalf" unicode="&#xbd;" horiz-adv-x="2128" 
d="M156 489l16 68q14 0 38.5 0.5t51 2t49.5 4.5t35 7q44 16 55 60l154 661h-217l16 72h74q81 0 145.5 24t104.5 56h37q-9 -31 -24.5 -91t-37.5 -151l-127 -545l-6 -39q0 -34 43 -47.5t144 -13.5l-17 -68h-534zM604 0h-127l1022 1419h127zM1210 2l23 99q35 48 74 86t82.5 70
t91.5 59.5t100 54.5q137 74 192 120q55 48 83 104t28 128q0 38 -12.5 69t-35 53t-53.5 34t-67 12q-128 0 -203 -90q0 -164 -102 -164q-29 0 -43.5 18.5t-14.5 43.5q0 62 37.5 111t94 83t121 52t118.5 18q57 0 109.5 -15t92 -45t63.5 -76t24 -108q0 -76 -29.5 -133.5
t-76.5 -101.5t-106.5 -77.5t-119.5 -62.5q-64 -31 -108 -53.5t-69 -37.5q-49 -29 -92.5 -62.5t-76.5 -71.5h618l-26 -117h-717z" />
    <glyph glyph-name="threequarters" unicode="&#xbe;" horiz-adv-x="2128" 
d="M895 780q2 -70 -32.5 -130t-93 -103.5t-137 -68t-165.5 -23.5q-138 0 -227 53q-87 53 -87 131q0 23 7 43.5t19 36t29 24.5t37 9q31 0 48.5 -18.5t17.5 -47.5q0 -36 -33 -96q10 -19 33.5 -32t52 -20.5t56.5 -10.5t47 -3q60 0 112.5 18.5t92 53t62.5 84t23 111.5
q0 143 -200 143h-107l21 92h84q50 0 97.5 12.5t85 38.5t60.5 66t23 96q0 70 -41 107.5t-111 37.5q-109 0 -180 -59q0 -166 -96 -166q-34 0 -51 19t-17 47q0 38 17.5 69t45 55t61 41.5t64.5 28.5q84 31 169 31q130 0 203 -57q75 -55 75 -146t-63 -152.5t-205 -101.5l-2 -8
q97 -18 151 -72.5t54 -132.5zM739 0h-127l1022 1419h127zM1952 209h-158l-53 -227h-134l54 227h-498l25 105l698 647h82l-152 -651h158zM1683 310l113 477l-506 -477h393z" />
    <glyph glyph-name="questiondown" unicode="&#xbf;" horiz-adv-x="909" 
d="M821 1341q0 -22 -8 -42t-22.5 -35t-34 -24t-43.5 -9t-44.5 9t-35.5 24t-23 35t-8 42q0 48 31.5 79.5t79.5 31.5q23 0 42.5 -8t34 -23t23 -35.5t8.5 -44.5zM758 240q0 -57 -47 -119q-46 -61 -124 -99t-177 -38q-81 0 -145 22t-107.5 63t-66.5 101t-23 135
q0 116 37.5 206.5t104.5 157t159 108.5t200 61l62 249h96l-82 -374q-120 -14 -203.5 -47.5t-136 -86.5t-76.5 -125.5t-26 -164.5q0 -115 58.5 -176.5t160.5 -61.5q30 0 67.5 11.5t67.5 29.5l11 66q8 56 25 81q18 26 49 41t73 15q28 0 35.5 -17t7.5 -38z" />
    <glyph glyph-name="Agrave" unicode="&#xc0;" horiz-adv-x="1284" 
d="M992 1527q-61 51 -123 101.5t-125 99.5q-66 54 -32 112q29 38 69 36q44 0 74 -50q16 -25 58.5 -91t114.5 -175zM1249 0h-489l12 61q48 6 79 11t47 9q31 9 47 23.5t16 38.5q0 34 -9 95l-32 264h-531l-143 -238q-51 -91 -51 -125q0 -31 50 -52.5t134 -25.5l-12 -61h-519
l13 61q88 7 152 50t112 127l772 1202h18l177 -1227q12 -79 63 -113t107 -39zM823 1192l-389 -614h473z" />
    <glyph glyph-name="Aacute" unicode="&#xc1;" horiz-adv-x="1284" 
d="M791 1559q112 109 179.5 175.5t91.5 91.5q48 50 92 50q43 -2 62 -47q18 -61 -72 -114q-81 -47 -161 -93.5t-160 -94.5zM1249 0h-489l12 61q48 6 79 11t47 9q31 9 47 23.5t16 38.5q0 34 -9 95l-32 264h-531l-143 -238q-51 -91 -51 -125q0 -31 50 -52.5t134 -25.5l-12 -61
h-519l13 61q88 7 152 50t112 127l772 1202h18l177 -1227q12 -79 63 -113t107 -39zM823 1192l-389 -614h473z" />
    <glyph glyph-name="Acircumflex" unicode="&#xc2;" horiz-adv-x="1284" 
d="M595 1536l280 282q41 41 87 41h1q47 0 71 -41l163 -282l-45 -28l-206 227l-314 -227zM1249 0h-489l12 61q48 6 79 11t47 9q31 9 47 23.5t16 38.5q0 34 -9 95l-32 264h-531l-143 -238q-51 -91 -51 -125q0 -31 50 -52.5t134 -25.5l-12 -61h-519l13 61q88 7 152 50t112 127
l772 1202h18l177 -1227q12 -79 63 -113t107 -39zM823 1192l-389 -614h473z" />
    <glyph glyph-name="Atilde" unicode="&#xc3;" horiz-adv-x="1284" 
d="M1263 1731q-39 -79 -106 -129q-66 -51 -132 -48q-67 5 -130 47q-67 43 -101 45q-30 2 -52 -10q-22 -10 -81 -89l-43 22q107 185 233 178q62 -3 129 -47q66 -43 95 -45q77 -3 114 55q5 10 12.5 20.5t16.5 23.5zM1249 0h-489l12 61q48 6 79 11t47 9q31 9 47 23.5t16 38.5
q0 34 -9 95l-32 264h-531l-143 -238q-51 -91 -51 -125q0 -31 50 -52.5t134 -25.5l-12 -61h-519l13 61q88 7 152 50t112 127l772 1202h18l177 -1227q12 -79 63 -113t107 -39zM823 1192l-389 -614h473z" />
    <glyph glyph-name="Adieresis" unicode="&#xc4;" horiz-adv-x="1284" 
d="M805 1745q0 -42 -23 -71t-65 -29t-65 29t-23 71q0 43 23 72.5t65 29.5t65 -29.5t23 -72.5zM1213 1745q0 -42 -23 -71t-65 -29t-65 29t-23 71q0 43 23 72.5t65 29.5t65 -29.5t23 -72.5zM1249 0h-489l12 61q48 6 79 11t47 9q31 9 47 23.5t16 38.5q0 34 -9 95l-32 264h-531
l-143 -238q-51 -91 -51 -125q0 -31 50 -52.5t134 -25.5l-12 -61h-519l13 61q88 7 152 50t112 127l772 1202h18l177 -1227q12 -79 63 -113t107 -39zM823 1192l-389 -614h473z" />
    <glyph glyph-name="Aring" unicode="&#xc5;" horiz-adv-x="1284" 
d="M1249 0h-489l12 61q48 6 79 11t47 9q31 9 47 23.5t16 38.5q0 34 -9 95l-32 264h-531l-143 -238q-51 -91 -51 -125q0 -31 50 -52.5t134 -25.5l-12 -61h-519l13 61q88 7 152 50t112 127l734 1144q-85 8 -135 54t-50 120q0 59 22 107t60 81.5t88.5 51.5t107.5 18
q42 0 81.5 -11.5t69.5 -34t48 -57t18 -81.5q1 -48 -17 -91.5t-50.5 -77t-78 -55t-99.5 -25.5l168 -1168q12 -79 63 -113t107 -39zM1055 1628q0 57 -28.5 92t-82.5 35q-40 0 -70 -17t-50 -44.5t-30 -62.5t-10 -71q0 -54 29.5 -87t83.5 -33q40 0 69.5 15.5t49 42t29.5 60.5
t10 70zM823 1192l-389 -614h473z" />
    <glyph glyph-name="AE" unicode="&#xc6;" horiz-adv-x="1890" 
d="M1946 1419l-80 -332h-62q-1 31 -5 72t-16.5 79.5t-36 67.5t-62.5 37q-37 9 -226 9h-209l-133 -580h170q38 0 69.5 3.5t58.5 14.5t50 31t44 54q37 61 59 122h63l-123 -534h-61l2 76q0 79 -10 98q-18 35 -59 48t-111 13h-170l-101 -436q-12 -52 -12 -96q0 -53 43 -72
q45 -20 176 -20q289 0 363 62q25 21 51.5 55t51.5 72t46.5 76t36.5 67h68l-121 -406h-1102l12 61q123 7 158 21q50 21 68 96l98 428h-461q-150 -181 -258 -342q-47 -67 -47 -112q0 -20 6.5 -35t23 -26t44 -18.5t69.5 -11.5l-12 -61h-512l12 61q33 7 61.5 15.5t54 21t49 30.5
t47.5 43q24 26 112.5 135.5t243.5 304.5t297 378t274 357q-24 8 -122 11l-38 1l17 61h1151zM1104 1337h-68l-499 -647h417z" />
    <glyph glyph-name="Ccedilla" unicode="&#xc7;" horiz-adv-x="1280" 
d="M1229 352q-51 -89 -112.5 -160t-135.5 -120.5t-162.5 -75.5t-194.5 -25l-14 -73q183 -11 183 -140q0 -202 -412 -202l14 69q66 0 118 7t88 20t55.5 31t19.5 41q0 40 -37.5 58.5t-118.5 18.5l33 175q-106 13 -188.5 62t-139.5 122.5t-86.5 166.5t-29.5 195q0 116 27 230
t78 218t125.5 194t170.5 157q186 129 391 129q231 0 371 -104l47 73h78l-109 -499h-69v51q1 112 -19.5 187.5t-61 122.5t-101 68t-140.5 23q-92 0 -175.5 -32.5t-153.5 -87.5t-125.5 -127.5t-91.5 -152.5q-83 -183 -83 -399q0 -93 26 -184t78 -163t130.5 -116t183.5 -44
q80 0 151 25.5t131 69t109 102.5t86 126z" />
    <glyph glyph-name="Egrave" unicode="&#xc8;" horiz-adv-x="1309" 
d="M966 1527q-61 51 -123 101.5t-125 99.5q-66 54 -32 112q29 38 69 36q44 0 74 -50q16 -25 58.5 -91t114.5 -175zM1364 1419l-80 -332h-61q-7 244 -136 259q-108 6 -210 6h-252l-133 -580h213q85 0 133 20q47 20 83.5 75.5t63.5 129.5h64l-123 -534h-62l2 76q0 79 -10 98
q-18 35 -59 48t-111 13h-213l-100 -436q-13 -55 -13 -96q0 -53 43 -72q45 -20 177 -20q156 0 260.5 15t138.5 42q82 64 192 275h68l-121 -406h-1145l13 61q122 7 157 21q50 21 68 96l246 1057q6 30 6 49q0 52 -144 70l-30 4l12 61h1063z" />
    <glyph glyph-name="Eacute" unicode="&#xc9;" horiz-adv-x="1309" 
d="M823 1559q112 109 179.5 175.5t91.5 91.5q48 50 92 50q43 -2 62 -47q18 -61 -72 -114q-81 -47 -161 -93.5t-160 -94.5zM1364 1419l-80 -332h-61q-7 244 -136 259q-108 6 -210 6h-252l-133 -580h213q85 0 133 20q47 20 83.5 75.5t63.5 129.5h64l-123 -534h-62l2 76
q0 79 -10 98q-18 35 -59 48t-111 13h-213l-100 -436q-13 -55 -13 -96q0 -53 43 -72q45 -20 177 -20q156 0 260.5 15t138.5 42q82 64 192 275h68l-121 -406h-1145l13 61q122 7 157 21q50 21 68 96l246 1057q6 30 6 49q0 52 -144 70l-30 4l12 61h1063z" />
    <glyph glyph-name="Ecircumflex" unicode="&#xca;" horiz-adv-x="1309" 
d="M620 1536l280 282q41 41 87 41h1q47 0 71 -41l163 -282l-45 -28l-206 227l-314 -227zM1364 1419l-80 -332h-61q-7 244 -136 259q-108 6 -210 6h-252l-133 -580h213q85 0 133 20q47 20 83.5 75.5t63.5 129.5h64l-123 -534h-62l2 76q0 79 -10 98q-18 35 -59 48t-111 13
h-213l-100 -436q-13 -55 -13 -96q0 -53 43 -72q45 -20 177 -20q156 0 260.5 15t138.5 42q82 64 192 275h68l-121 -406h-1145l13 61q122 7 157 21q50 21 68 96l246 1057q6 30 6 49q0 52 -144 70l-30 4l12 61h1063z" />
    <glyph glyph-name="Edieresis" unicode="&#xcb;" horiz-adv-x="1309" 
d="M749 1745q0 -42 -23 -71t-65 -29t-65 29t-23 71q0 43 23 72.5t65 29.5t65 -29.5t23 -72.5zM1157 1745q0 -42 -23 -71t-65 -29t-65 29t-23 71q0 43 23 72.5t65 29.5t65 -29.5t23 -72.5zM1364 1419l-80 -332h-61q-7 244 -136 259q-108 6 -210 6h-252l-133 -580h213
q85 0 133 20q47 20 83.5 75.5t63.5 129.5h64l-123 -534h-62l2 76q0 79 -10 98q-18 35 -59 48t-111 13h-213l-100 -436q-13 -55 -13 -96q0 -53 43 -72q45 -20 177 -20q156 0 260.5 15t138.5 42q82 64 192 275h68l-121 -406h-1145l13 61q122 7 157 21q50 21 68 96l246 1057
q6 30 6 49q0 52 -144 70l-30 4l12 61h1063z" />
    <glyph glyph-name="Igrave" unicode="&#xcc;" horiz-adv-x="729" 
d="M674 1527q-61 51 -123 101.5t-125 99.5q-66 54 -32 112q29 38 69 36q44 0 74 -50q16 -25 58.5 -91t114.5 -175zM463 1276q0 24 -23.5 39t-55 24.5t-63.5 13.5t-49 5l13 61h565l-14 -61q-105 -7 -164 -29q-57 -20 -74 -92l-233 -1016q-11 -39 -11 -69q0 -45 51 -65.5
t134 -25.5l-13 -61h-565l12 61q129 9 152 17q69 26 86 98l244 1051q8 30 8 49z" />
    <glyph glyph-name="Iacute" unicode="&#xcd;" horiz-adv-x="729" 
d="M461 1559q112 109 179.5 175.5t91.5 91.5q48 50 92 50q43 -2 62 -47q18 -61 -72 -114q-81 -47 -161 -93.5t-160 -94.5zM463 1276q0 24 -23.5 39t-55 24.5t-63.5 13.5t-49 5l13 61h565l-14 -61q-105 -7 -164 -29q-57 -20 -74 -92l-233 -1016q-11 -39 -11 -69
q0 -45 51 -65.5t134 -25.5l-13 -61h-565l12 61q129 9 152 17q69 26 86 98l244 1051q8 30 8 49z" />
    <glyph glyph-name="Icircumflex" unicode="&#xce;" horiz-adv-x="729" 
d="M915 1538l-49 -31l-236 211l-319 -211l-47 31l291 285q18 18 39.5 31.5t60.5 13.5q43 0 57 -14q16 -14 23 -27zM463 1276q0 24 -23.5 39t-55 24.5t-63.5 13.5t-49 5l13 61h565l-14 -61q-105 -7 -164 -29q-57 -20 -74 -92l-233 -1016q-11 -39 -11 -69q0 -45 51 -65.5
t134 -25.5l-13 -61h-565l12 61q129 9 152 17q69 26 86 98l244 1051q8 30 8 49z" />
    <glyph glyph-name="Idieresis" unicode="&#xcf;" horiz-adv-x="729" 
d="M500 1745q0 -42 -23 -71t-65 -29t-65 29t-23 71q0 43 23 73t65 30t65 -30t23 -73zM908 1745q0 -42 -23.5 -71t-65.5 -29t-65 29t-23 71q0 43 23 73t65 30t65.5 -30t23.5 -73zM463 1276q0 24 -23.5 39t-55 24.5t-63.5 13.5t-49 5l13 61h565l-14 -61q-105 -7 -164 -29
q-57 -20 -74 -92l-233 -1016q-11 -39 -11 -69q0 -45 51 -65.5t134 -25.5l-13 -61h-565l12 61q129 9 152 17q69 26 86 98l244 1051q8 30 8 49z" />
    <glyph glyph-name="Eth" unicode="&#xd0;" horiz-adv-x="1446" 
d="M178 799h176l103 436q6 30 6 49q0 20 -19.5 33t-46 21.5t-53.5 13t-41 6.5l12 61h545q163 0 299 -71q137 -70 204 -189.5t67 -279.5q0 -121 -29 -233.5t-85 -210t-138 -178.5t-189 -141q-209 -116 -446 -116h-557l12 61q109 6 145 21q50 21 68 96l123 531h-178zM1274 850
q0 111 -33 203t-95 158t-151 102.5t-202 36.5l-170 -4l-127 -547h305l-19 -90h-307l-104 -453q-13 -48 -13 -76q0 -30 12.5 -50.5t41 -32.5t73.5 -17.5t109 -5.5q107 0 199 30t168 83.5t134 126.5t98 159.5t60.5 182.5t20.5 194z" />
    <glyph glyph-name="Ntilde" unicode="&#xd1;" horiz-adv-x="1546" 
d="M1366 1831q-36 -103 -97 -158t-137 -54q-50 0 -86 15t-67 33.5t-60 34t-65 16.5q-40 -1 -69 -27q-14 -13 -31.5 -38.5t-39.5 -63.5l-53 22q17 36 37.5 73.5t47.5 69t62 51.5t80 20q47 0 83.5 -15.5t67.5 -34.5t59 -34.5t59 -15.5q33 0 56 10.5t40.5 28.5t30.5 41.5
t26 50.5zM1362 1206q0 64 -25 90q-26 40 -186 62l12 61h576l-17 -61l-33 -5q-34 -4 -63 -10t-54 -18t-45.5 -32t-37.5 -52q-28 -54 -64 -207l-243 -1052h-47l-611 1230l-190 -813q-5 -18 -10 -42.5t-8.5 -50t-6 -50t-2.5 -43.5q0 -64 25 -90q26 -40 186 -62l-12 -61h-576
l17 61l33 5q32 4 61.5 10.5t55 18.5t46.5 31.5t36 50.5q14 27 30 78.5t35 129.5l178 766q8 34 8 63q0 45 -45 90q-45 47 -174 54l16 61h348l582 -1165l178 766q5 19 10 43t8.5 49.5t6 50t2.5 43.5z" />
    <glyph glyph-name="Ograve" unicode="&#xd2;" horiz-adv-x="1446" 
d="M1002 1527q-61 51 -123 101.5t-125 99.5q-66 54 -32 112q29 38 69 36q44 0 74 -50q16 -25 58.5 -91t114.5 -175zM1425 870q0 -116 -28 -226.5t-80.5 -210t-128 -184.5t-171.5 -151q-193 -131 -388 -131q-127 0 -224 44.5t-163 121.5t-99.5 181.5t-33.5 224.5
q0 115 27.5 228t80 215t128 189.5t172.5 151.5q188 125 388 125q237 0 378 -159q142 -157 142 -419zM1266 911q0 93 -20 176t-65 146t-117 100t-175 37t-189.5 -38t-156 -103t-121.5 -150.5t-86.5 -180t-52 -192.5t-17.5 -188q0 -229 97 -350t280 -121q107 0 194.5 39
t156.5 104.5t120 152.5t85 183t50.5 195t16.5 190z" />
    <glyph glyph-name="Oacute" unicode="&#xd3;" horiz-adv-x="1446" 
d="M841 1559q112 109 179.5 175.5t91.5 91.5q48 50 92 50q43 -2 62 -47q18 -61 -72 -114q-81 -47 -161 -93.5t-160 -94.5zM1425 870q0 -116 -28 -226.5t-80.5 -210t-128 -184.5t-171.5 -151q-193 -131 -388 -131q-127 0 -224 44.5t-163 121.5t-99.5 181.5t-33.5 224.5
q0 115 27.5 228t80 215t128 189.5t172.5 151.5q188 125 388 125q237 0 378 -159q142 -157 142 -419zM1266 911q0 93 -20 176t-65 146t-117 100t-175 37t-189.5 -38t-156 -103t-121.5 -150.5t-86.5 -180t-52 -192.5t-17.5 -188q0 -229 97 -350t280 -121q107 0 194.5 39
t156.5 104.5t120 152.5t85 183t50.5 195t16.5 190z" />
    <glyph glyph-name="Ocircumflex" unicode="&#xd4;" horiz-adv-x="1446" 
d="M652 1536l280 282q41 41 87 41h1q47 0 71 -41l163 -282l-45 -28l-206 227l-314 -227zM1425 870q0 -116 -28 -226.5t-80.5 -210t-128 -184.5t-171.5 -151q-193 -131 -388 -131q-127 0 -224 44.5t-163 121.5t-99.5 181.5t-33.5 224.5q0 115 27.5 228t80 215t128 189.5
t172.5 151.5q188 125 388 125q237 0 378 -159q142 -157 142 -419zM1266 911q0 93 -20 176t-65 146t-117 100t-175 37t-189.5 -38t-156 -103t-121.5 -150.5t-86.5 -180t-52 -192.5t-17.5 -188q0 -229 97 -350t280 -121q107 0 194.5 39t156.5 104.5t120 152.5t85 183t50.5 195
t16.5 190z" />
    <glyph glyph-name="Otilde" unicode="&#xd5;" horiz-adv-x="1446" 
d="M1328 1731q-39 -79 -106 -129q-66 -51 -132 -48q-67 5 -130 47q-67 43 -101 45q-30 2 -52 -10q-22 -10 -81 -89l-43 22q107 185 233 178q62 -3 129 -47q66 -43 95 -45q77 -3 114 55q5 10 12.5 20.5t16.5 23.5zM1425 870q0 -116 -28 -226.5t-80.5 -210t-128 -184.5
t-171.5 -151q-193 -131 -388 -131q-127 0 -224 44.5t-163 121.5t-99.5 181.5t-33.5 224.5q0 115 27.5 228t80 215t128 189.5t172.5 151.5q188 125 388 125q237 0 378 -159q142 -157 142 -419zM1266 911q0 93 -20 176t-65 146t-117 100t-175 37t-189.5 -38t-156 -103
t-121.5 -150.5t-86.5 -180t-52 -192.5t-17.5 -188q0 -229 97 -350t280 -121q107 0 194.5 39t156.5 104.5t120 152.5t85 183t50.5 195t16.5 190z" />
    <glyph glyph-name="Odieresis" unicode="&#xd6;" horiz-adv-x="1446" 
d="M823 1745q0 -42 -23 -71t-65 -29t-65 29t-23 71q0 43 23 72.5t65 29.5t65 -29.5t23 -72.5zM1231 1745q0 -42 -23 -71t-65 -29t-65 29t-23 71q0 43 23 72.5t65 29.5t65 -29.5t23 -72.5zM1425 870q0 -116 -28 -226.5t-80.5 -210t-128 -184.5t-171.5 -151
q-193 -131 -388 -131q-127 0 -224 44.5t-163 121.5t-99.5 181.5t-33.5 224.5q0 115 27.5 228t80 215t128 189.5t172.5 151.5q188 125 388 125q237 0 378 -159q142 -157 142 -419zM1266 911q0 93 -20 176t-65 146t-117 100t-175 37t-189.5 -38t-156 -103t-121.5 -150.5
t-86.5 -180t-52 -192.5t-17.5 -188q0 -229 97 -350t280 -121q107 0 194.5 39t156.5 104.5t120 152.5t85 183t50.5 195t16.5 190z" />
    <glyph glyph-name="multiply" unicode="&#xd7;" horiz-adv-x="1255" 
d="M997 127l-352 352l-348 -354l-76 78l354 348l-354 352l76 74l348 -350l352 350l76 -74l-354 -352l354 -348z" />
    <glyph glyph-name="Oslash" unicode="&#xd8;" horiz-adv-x="1446" 
d="M1425 870q0 -116 -28 -226.5t-80.5 -210t-128 -184.5t-171.5 -151q-193 -131 -388 -131q-238 0 -379 158l-152 -143l-55 57l158 151q-92 148 -92 349q0 115 27.5 228t80 215t128 189.5t172.5 151.5q188 125 388 125q132 0 237 -51.5t171 -145.5l141 135l59 -59l-155 -147
q67 -135 67 -310zM266 518q0 -142 35 -233l920 878q-91 207 -332 207q-103 0 -189.5 -38t-156 -103t-121.5 -150.5t-86.5 -180t-52 -192.5t-17.5 -188zM1266 911q0 46 -4.5 86.5t-12.5 77.5l-913 -868q94 -160 307 -160q107 0 194.5 39t156.5 104.5t120 152.5t85 183
t50.5 195t16.5 190z" />
    <glyph glyph-name="Ugrave" unicode="&#xd9;" horiz-adv-x="1597" 
d="M1032 1527q-61 51 -123 101.5t-125 99.5q-66 54 -32 112q29 38 69 36q44 0 74 -50q16 -25 58.5 -91t114.5 -175zM657 -33q-94 -2 -176 23.5t-142 70t-94 103t-32 123.5q0 58 18 131l191 815q6 30 6 51q0 20 -19.5 33t-46 21.5t-53.5 13t-41 6.5l13 61h501l-14 -61
q-107 -11 -149 -34q-43 -22 -58 -91l-192 -838q-13 -46 -13 -100q0 -48 22 -90.5t64 -74.5t102.5 -50.5t137.5 -18.5q83 0 162 19t146 58.5t116 101.5t72 147q12 44 36.5 147.5t61.5 268.5q74 332 74 403q0 64 -25 90q-13 20 -64.5 37.5t-121.5 24.5l12 61h575l-16 -61
l-33 -5q-33 -4 -63 -10.5t-55.5 -19t-47 -33t-36.5 -52.5q-25 -52 -58 -196l-47 -222q-11 -50 -35.5 -153.5t-62.5 -263.5q-30 -113 -87.5 -195.5t-137 -136t-178.5 -79t-212 -25.5z" />
    <glyph glyph-name="Uacute" unicode="&#xda;" horiz-adv-x="1597" 
d="M911 1559q112 109 179.5 175.5t91.5 91.5q48 50 92 50q43 -2 62 -47q18 -61 -72 -114q-81 -47 -161 -93.5t-160 -94.5zM657 -33q-94 -2 -176 23.5t-142 70t-94 103t-32 123.5q0 58 18 131l191 815q6 30 6 51q0 20 -19.5 33t-46 21.5t-53.5 13t-41 6.5l13 61h501l-14 -61
q-107 -11 -149 -34q-43 -22 -58 -91l-192 -838q-13 -46 -13 -100q0 -48 22 -90.5t64 -74.5t102.5 -50.5t137.5 -18.5q83 0 162 19t146 58.5t116 101.5t72 147q12 44 36.5 147.5t61.5 268.5q74 332 74 403q0 64 -25 90q-13 20 -64.5 37.5t-121.5 24.5l12 61h575l-16 -61
l-33 -5q-33 -4 -63 -10.5t-55.5 -19t-47 -33t-36.5 -52.5q-25 -52 -58 -196l-47 -222q-11 -50 -35.5 -153.5t-62.5 -263.5q-30 -113 -87.5 -195.5t-137 -136t-178.5 -79t-212 -25.5z" />
    <glyph glyph-name="Ucircumflex" unicode="&#xdb;" horiz-adv-x="1597" 
d="M1313 1538l-49 -31l-236 211l-319 -211l-47 31l291 285q18 18 39.5 31.5t60.5 13.5q43 0 57 -14q16 -14 23 -27zM657 -33q-94 -2 -176 23.5t-142 70t-94 103t-32 123.5q0 58 18 131l191 815q6 30 6 51q0 20 -19.5 33t-46 21.5t-53.5 13t-41 6.5l13 61h501l-14 -61
q-107 -11 -149 -34q-43 -22 -58 -91l-192 -838q-13 -46 -13 -100q0 -48 22 -90.5t64 -74.5t102.5 -50.5t137.5 -18.5q83 0 162 19t146 58.5t116 101.5t72 147q12 44 36.5 147.5t61.5 268.5q74 332 74 403q0 64 -25 90q-13 20 -64.5 37.5t-121.5 24.5l12 61h575l-16 -61
l-33 -5q-33 -4 -63 -10.5t-55.5 -19t-47 -33t-36.5 -52.5q-25 -52 -58 -196l-47 -222q-11 -50 -35.5 -153.5t-62.5 -263.5q-30 -113 -87.5 -195.5t-137 -136t-178.5 -79t-212 -25.5z" />
    <glyph glyph-name="Udieresis" unicode="&#xdc;" horiz-adv-x="1597" 
d="M903 1745q0 -42 -23 -71t-65 -29t-65 29t-23 71q0 43 23 72.5t65 29.5t65 -29.5t23 -72.5zM1311 1745q0 -42 -23 -71t-65 -29t-65 29t-23 71q0 43 23 72.5t65 29.5t65 -29.5t23 -72.5zM657 -33q-94 -2 -176 23.5t-142 70t-94 103t-32 123.5q0 58 18 131l191 815
q6 30 6 51q0 20 -19.5 33t-46 21.5t-53.5 13t-41 6.5l13 61h501l-14 -61q-107 -11 -149 -34q-43 -22 -58 -91l-192 -838q-13 -46 -13 -100q0 -48 22 -90.5t64 -74.5t102.5 -50.5t137.5 -18.5q83 0 162 19t146 58.5t116 101.5t72 147q12 44 36.5 147.5t61.5 268.5
q74 332 74 403q0 64 -25 90q-13 20 -64.5 37.5t-121.5 24.5l12 61h575l-16 -61l-33 -5q-33 -4 -63 -10.5t-55.5 -19t-47 -33t-36.5 -52.5q-25 -52 -58 -196l-47 -222q-11 -50 -35.5 -153.5t-62.5 -263.5q-30 -113 -87.5 -195.5t-137 -136t-178.5 -79t-212 -25.5z" />
    <glyph glyph-name="Yacute" unicode="&#xdd;" horiz-adv-x="1180" 
d="M733 1559q112 109 179.5 175.5t91.5 91.5q48 50 92 50q43 -2 62 -47q18 -61 -72 -114q-81 -47 -161 -93.5t-160 -94.5zM567 143q0 -31 40 -50q42 -20 167 -32l-12 -61h-606l12 61l40 3q108 6 144 18q58 23 74 94l72 307q14 65 14 82q0 59 -58 249q-29 97 -59.5 191
t-62.5 187q-13 38 -26.5 67t-32.5 49.5t-47 33t-72 16.5l16 61h473l-14 -61l-54 -3q-116 -6 -116 -50q0 -54 176 -621q67 82 136 166t130.5 159.5t111 137.5t77.5 100q16 22 16 45q0 54 -116 62l-60 4l16 61h486l-17 -61q-29 -4 -53 -10t-45.5 -15t-41.5 -23t-41 -35
q-21 -20 -62.5 -65.5t-104.5 -117.5t-121.5 -142.5t-115.5 -140.5t-90.5 -114t-45.5 -62q-23 -37 -36 -73q-6 -19 -26 -105t-54 -242q-11 -42 -11 -70z" />
    <glyph glyph-name="Thorn" unicode="&#xde;" horiz-adv-x="1194" 
d="M461 1284q0 20 -19.5 33t-46 21.5t-53.5 13t-41 6.5l12 61h502l-14 -61q-103 -9 -147 -33q-43 -22 -60 -95q-8 -36 -13 -62t-8 -42h256q72 0 136 -19t112 -57t75.5 -95.5t27.5 -135.5q0 -71 -23 -134.5t-62.5 -116.5t-93 -95t-115 -71t-128.5 -44.5t-133 -15.5h-228
q-20 -85 -32 -134t-9 -58q0 -22 8 -36t21 -22.5t30.5 -13t35.5 -8.5q54 -9 86 -9l-17 -61h-526l12 61l37 3q34 3 62 7.5t49 16t36 33t23 57.5l240 1039q8 30 8 67zM1010 815q0 112 -67 175t-185 63h-201l-141 -633h176q57 0 111 11t101.5 34t87 60.5t66.5 89.5q52 97 52 200
z" />
    <glyph glyph-name="germandbls" unicode="&#xdf;" horiz-adv-x="993" 
d="M776 1550q51 0 95.5 -14.5t77.5 -43t52 -70t19 -95.5q0 -148 -86.5 -247t-263.5 -142v-6q59 -16 105.5 -46t78.5 -71.5t49 -93t17 -111.5q0 -79 -18.5 -156t-54.5 -146t-88 -128t-119 -103q-132 -87 -280 -87q-42 0 -71 8l14 76q53 -13 96 -13q64 0 117 24t95 64t73.5 92
t52.5 107q51 134 51 285q0 56 -15.5 104t-45.5 83t-74.5 55t-103.5 20h-14l18 78h29q85 0 165 49q82 51 123 127.5t41 173.5q0 75 -46 118.5t-122 43.5q-136 0 -217 -102q-79 -100 -129 -334l-209 -990q-48 -228 -179 -365q-131 -138 -288 -138q-26 0 -47.5 7t-38 19.5
t-25.5 29t-9 36.5q0 34 20 56t57 22q30 0 52 -13t67 -75q94 6 162 104.5t107 280.5l208 985q55 261 191 401q137 141 311 141z" />
    <glyph glyph-name="agrave" unicode="&#xe0;" horiz-adv-x="1124" 
d="M764 1134q-61 51 -123 101.5t-125 99.5q-66 54 -32 112q29 38 69 36q44 0 74 -50q16 -25 58.5 -91t114.5 -175zM707 143l-62 -54q-128 -116 -262 -116q-82 0 -140.5 30.5t-96.5 82t-56 119t-18 141.5q0 84 21 165t60 154t94 136t124 111q136 94 286 94q105 0 195 -38
l39 -18l123 39l8 -12l-154 -662q-12 -55 -21 -96.5t-9 -68.5q0 -68 86 -68q84 0 123 16l-11 -53q-19 -12 -46.5 -23t-57.5 -19.5t-59 -13.5t-52 -5q-110 0 -110 110q0 29 4 49h-8zM412 66q34 0 70 9t75 28.5t82.5 51t93.5 76.5l127 543q0 43 -17 75t-45 53.5t-65 32.5
t-76 11q-67 0 -128 -28t-111.5 -73.5t-89.5 -102.5t-64 -114q-61 -140 -61 -296q0 -123 52 -194.5t157 -71.5z" />
    <glyph glyph-name="aacute" unicode="&#xe1;" horiz-adv-x="1124" 
d="M616 1166q112 109 179.5 175.5t91.5 91.5q48 50 92 50q43 -2 62 -47q18 -61 -72 -114q-81 -47 -161 -93.5t-160 -94.5zM707 143l-62 -54q-128 -116 -262 -116q-82 0 -140.5 30.5t-96.5 82t-56 119t-18 141.5q0 84 21 165t60 154t94 136t124 111q136 94 286 94
q105 0 195 -38l39 -18l123 39l8 -12l-154 -662q-12 -55 -21 -96.5t-9 -68.5q0 -68 86 -68q84 0 123 16l-11 -53q-19 -12 -46.5 -23t-57.5 -19.5t-59 -13.5t-52 -5q-110 0 -110 110q0 29 4 49h-8zM412 66q34 0 70 9t75 28.5t82.5 51t93.5 76.5l127 543q0 43 -17 75t-45 53.5
t-65 32.5t-76 11q-67 0 -128 -28t-111.5 -73.5t-89.5 -102.5t-64 -114q-61 -140 -61 -296q0 -123 52 -194.5t157 -71.5z" />
    <glyph glyph-name="acircumflex" unicode="&#xe2;" horiz-adv-x="1124" 
d="M399 1141l280 282q41 41 87 41h1q47 0 71 -41l163 -282l-45 -28l-206 227l-314 -227zM707 143l-62 -54q-128 -116 -262 -116q-82 0 -140.5 30.5t-96.5 82t-56 119t-18 141.5q0 84 21 165t60 154t94 136t124 111q136 94 286 94q105 0 195 -38l39 -18l123 39l8 -12
l-154 -662q-12 -55 -21 -96.5t-9 -68.5q0 -68 86 -68q84 0 123 16l-11 -53q-19 -12 -46.5 -23t-57.5 -19.5t-59 -13.5t-52 -5q-110 0 -110 110q0 29 4 49h-8zM412 66q34 0 70 9t75 28.5t82.5 51t93.5 76.5l127 543q0 43 -17 75t-45 53.5t-65 32.5t-76 11q-67 0 -128 -28
t-111.5 -73.5t-89.5 -102.5t-64 -114q-61 -140 -61 -296q0 -123 52 -194.5t157 -71.5z" />
    <glyph glyph-name="atilde" unicode="&#xe3;" horiz-adv-x="1124" 
d="M1069 1338q-39 -79 -106 -129q-66 -51 -132 -48q-67 5 -130 47q-67 43 -101 45q-30 2 -52 -10q-22 -10 -81 -89l-43 22q107 185 233 178q62 -3 129 -47q66 -43 95 -45q77 -3 114 55q5 10 12.5 20.5t16.5 23.5zM707 143l-62 -54q-128 -116 -262 -116q-82 0 -140.5 30.5
t-96.5 82t-56 119t-18 141.5q0 84 21 165t60 154t94 136t124 111q136 94 286 94q105 0 195 -38l39 -18l123 39l8 -12l-154 -662q-12 -55 -21 -96.5t-9 -68.5q0 -68 86 -68q84 0 123 16l-11 -53q-19 -12 -46.5 -23t-57.5 -19.5t-59 -13.5t-52 -5q-110 0 -110 110q0 29 4 49
h-8zM412 66q34 0 70 9t75 28.5t82.5 51t93.5 76.5l127 543q0 43 -17 75t-45 53.5t-65 32.5t-76 11q-67 0 -128 -28t-111.5 -73.5t-89.5 -102.5t-64 -114q-61 -140 -61 -296q0 -123 52 -194.5t157 -71.5z" />
    <glyph glyph-name="adieresis" unicode="&#xe4;" horiz-adv-x="1124" 
d="M573 1370q0 -42 -23 -71t-65 -29t-65 29t-23 71q0 43 23 73t65 30t65 -30t23 -73zM981 1370q0 -42 -23.5 -71t-65.5 -29t-65 29t-23 71q0 43 23 73t65 30t65.5 -30t23.5 -73zM707 143l-62 -54q-128 -116 -262 -116q-82 0 -140.5 30.5t-96.5 82t-56 119t-18 141.5
q0 84 21 165t60 154t94 136t124 111q136 94 286 94q105 0 195 -38l39 -18l123 39l8 -12l-154 -662q-12 -55 -21 -96.5t-9 -68.5q0 -68 86 -68q84 0 123 16l-11 -53q-19 -12 -46.5 -23t-57.5 -19.5t-59 -13.5t-52 -5q-110 0 -110 110q0 29 4 49h-8zM412 66q34 0 70 9t75 28.5
t82.5 51t93.5 76.5l127 543q0 43 -17 75t-45 53.5t-65 32.5t-76 11q-67 0 -128 -28t-111.5 -73.5t-89.5 -102.5t-64 -114q-61 -140 -61 -296q0 -123 52 -194.5t157 -71.5z" />
    <glyph glyph-name="aring" unicode="&#xe5;" horiz-adv-x="1124" 
d="M662 1120q-50 0 -90.5 12.5t-69 35.5t-44 55.5t-15.5 72.5q0 59 22 107t60 81.5t88.5 51.5t107.5 18q42 0 81.5 -11.5t69.5 -34t48 -57t18 -81.5q1 -51 -19.5 -97t-57.5 -80.5t-88 -54t-111 -18.5zM824 1368q0 57 -28.5 92t-82.5 35q-40 0 -70 -17t-50 -44.5t-30 -62.5
t-10 -71q0 -54 29.5 -87t83.5 -33q40 0 69.5 15.5t49 42t29.5 60.5t10 70zM707 143l-62 -54q-128 -116 -262 -116q-82 0 -140.5 30.5t-96.5 82t-56 119t-18 141.5q0 84 21 165t60 154t94 136t124 111q136 94 286 94q105 0 195 -38l39 -18l123 39l8 -12l-154 -662
q-12 -55 -21 -96.5t-9 -68.5q0 -68 86 -68q84 0 123 16l-11 -53q-19 -12 -46.5 -23t-57.5 -19.5t-59 -13.5t-52 -5q-110 0 -110 110q0 29 4 49h-8zM412 66q34 0 70 9t75 28.5t82.5 51t93.5 76.5l127 543q0 43 -17 75t-45 53.5t-65 32.5t-76 11q-67 0 -128 -28t-111.5 -73.5
t-89.5 -102.5t-64 -114q-61 -140 -61 -296q0 -123 52 -194.5t157 -71.5z" />
    <glyph glyph-name="ae" unicode="&#xe6;" horiz-adv-x="1436" 
d="M1395 809q-2 -81 -37.5 -145.5t-112.5 -112.5t-201.5 -79t-304.5 -46q0 -184 56 -272t182 -88q169 0 317 204l49 -34q-35 -52 -81 -100t-100 -84t-115 -57.5t-127 -21.5q-202 0 -277 197h-6q-88 -100 -172.5 -146.5t-177.5 -46.5q-125 0 -186.5 51t-61.5 144
q0 62 19.5 113t53.5 91.5t80.5 71t101.5 51.5q64 25 128 41.5t129 26.5l106 17l13 46q24 74 24 132q0 41 -13.5 73.5t-37.5 56t-57.5 36t-73.5 12.5q-51 0 -104 -17t-95 -44q0 -106 -22 -153.5t-76 -47.5q-31 0 -48 17t-17 48q0 39 21 74t52.5 63.5t68 50.5t68.5 35
q93 40 183 40q102 0 164.5 -36t91.5 -120q67 73 160.5 114.5t199.5 41.5q115 0 175.5 -53t60.5 -144zM1163 940q-53 0 -102.5 -19.5t-92.5 -51.5t-79 -73t-63 -83q-64 -104 -83 -224q53 5 105.5 10.5t103.5 16t100.5 28.5t94.5 47q69 45 101 101t32 125q0 60 -33 91.5
t-84 31.5zM625 238q-9 47 -9 102q0 87 17 170q-44 -4 -95.5 -14t-102 -26.5t-97.5 -40.5t-83 -58t-57.5 -78t-21.5 -100q0 -60 33.5 -92.5t93.5 -32.5q190 0 322 170z" />
    <glyph glyph-name="ccedilla" unicode="&#xe7;" horiz-adv-x="897" 
d="M877 811q0 -23 -5 -51.5t-17 -53t-31.5 -41t-49.5 -16.5q-42 0 -61 21.5t-19 50.5q0 39 51 166q-9 15 -27.5 25t-40.5 16t-44 9t-37 3q-61 0 -114 -25t-96.5 -65.5t-76.5 -92t-54 -103.5q-54 -132 -54 -289q0 -60 16 -114t48 -95t80.5 -65.5t113.5 -24.5q176 0 329 202
l50 -32q-31 -48 -73.5 -91.5t-92.5 -79t-105.5 -59.5t-113.5 -31l-15 -77q183 -11 183 -140q0 -202 -412 -202l14 69q66 0 118 7t88 20t55.5 31t19.5 41q0 40 -37.5 58.5t-118.5 18.5l33 173q-81 5 -139 35.5t-96 80.5t-56 116t-18 142q0 78 16 157t47 152t76.5 136.5
t105 111t132.5 74.5t159 27q46 0 93.5 -10t86.5 -33t64 -60.5t25 -91.5z" />
    <glyph glyph-name="egrave" unicode="&#xe8;" horiz-adv-x="922" 
d="M693 1134q-61 51 -123 101.5t-125 99.5q-66 54 -32 112q29 38 69 36q44 0 74 -50q16 -25 58.5 -91t114.5 -175zM881 809q0 -108 -71 -188q-35 -39 -93 -72t-136.5 -59.5t-176 -47.5t-211.5 -36v-18q0 -157 63 -239.5t188 -82.5q179 0 336 204l49 -34q-36 -54 -84 -102
t-104 -83.5t-119.5 -56.5t-130.5 -21q-155 0 -238 97.5t-83 277.5q0 80 19 160t54 153t86 136t115 109.5t140 73t161 26.5q115 0 175.5 -53t60.5 -144zM641 940q-57 0 -109 -19t-98 -51t-83.5 -74.5t-65.5 -89.5q-64 -109 -84 -237q56 8 110.5 16.5t108 22t105 33.5t99.5 50
q73 46 107.5 102.5t34.5 123.5q0 57 -32.5 90t-92.5 33z" />
    <glyph glyph-name="eacute" unicode="&#xe9;" horiz-adv-x="922" 
d="M486 1166q112 109 179.5 175.5t91.5 91.5q48 50 92 50q43 -2 62 -47q18 -61 -72 -114q-81 -47 -161 -93.5t-160 -94.5zM881 809q0 -108 -71 -188q-35 -39 -93 -72t-136.5 -59.5t-176 -47.5t-211.5 -36v-18q0 -157 63 -239.5t188 -82.5q179 0 336 204l49 -34
q-36 -54 -84 -102t-104 -83.5t-119.5 -56.5t-130.5 -21q-155 0 -238 97.5t-83 277.5q0 80 19 160t54 153t86 136t115 109.5t140 73t161 26.5q115 0 175.5 -53t60.5 -144zM641 940q-57 0 -109 -19t-98 -51t-83.5 -74.5t-65.5 -89.5q-64 -109 -84 -237q56 8 110.5 16.5t108 22
t105 33.5t99.5 50q73 46 107.5 102.5t34.5 123.5q0 57 -32.5 90t-92.5 33z" />
    <glyph glyph-name="ecircumflex" unicode="&#xea;" horiz-adv-x="922" 
d="M322 1141l280 282q41 41 87 41h1q47 0 71 -41l163 -282l-45 -28l-206 227l-314 -227zM881 809q0 -108 -71 -188q-35 -39 -93 -72t-136.5 -59.5t-176 -47.5t-211.5 -36v-18q0 -157 63 -239.5t188 -82.5q179 0 336 204l49 -34q-36 -54 -84 -102t-104 -83.5t-119.5 -56.5
t-130.5 -21q-155 0 -238 97.5t-83 277.5q0 80 19 160t54 153t86 136t115 109.5t140 73t161 26.5q115 0 175.5 -53t60.5 -144zM641 940q-57 0 -109 -19t-98 -51t-83.5 -74.5t-65.5 -89.5q-64 -109 -84 -237q56 8 110.5 16.5t108 22t105 33.5t99.5 50q73 46 107.5 102.5
t34.5 123.5q0 57 -32.5 90t-92.5 33z" />
    <glyph glyph-name="edieresis" unicode="&#xeb;" horiz-adv-x="922" 
d="M506 1370q0 -42 -23 -71t-65 -29t-65 29t-23 71q0 43 23 73t65 30t65 -30t23 -73zM914 1370q0 -42 -23.5 -71t-65.5 -29t-65 29t-23 71q0 43 23 73t65 30t65.5 -30t23.5 -73zM881 809q0 -108 -71 -188q-35 -39 -93 -72t-136.5 -59.5t-176 -47.5t-211.5 -36v-18
q0 -157 63 -239.5t188 -82.5q179 0 336 204l49 -34q-36 -54 -84 -102t-104 -83.5t-119.5 -56.5t-130.5 -21q-155 0 -238 97.5t-83 277.5q0 80 19 160t54 153t86 136t115 109.5t140 73t161 26.5q115 0 175.5 -53t60.5 -144zM641 940q-57 0 -109 -19t-98 -51t-83.5 -74.5
t-65.5 -89.5q-64 -109 -84 -237q56 8 110.5 16.5t108 22t105 33.5t99.5 50q73 46 107.5 102.5t34.5 123.5q0 57 -32.5 90t-92.5 33z" />
    <glyph glyph-name="igrave" unicode="&#xec;" horiz-adv-x="537" 
d="M462 1134q-61 51 -123 101.5t-125 99.5q-66 54 -32 112q29 38 69 36q44 0 74 -50q16 -25 58.5 -91t114.5 -175zM262 150q0 -68 86 -68q84 0 123 16l-10 -53q-19 -12 -46.5 -23t-57.5 -19.5t-59 -13.5t-52 -5q-111 0 -111 110q0 42 19 117l110 465q29 118 29 164
q0 67 -82 67q-59 0 -119 -16l10 53q20 12 47 23t56 19.5t58 14t52 5.5q105 0 105 -111q0 -42 -19 -117l-110 -465q-29 -113 -29 -163z" />
    <glyph glyph-name="iacute" unicode="&#xed;" horiz-adv-x="537" 
d="M276 1166q112 109 179.5 175.5t91.5 91.5q48 50 92 50q43 -2 62 -47q18 -61 -72 -114q-81 -47 -161 -93.5t-160 -94.5zM262 150q0 -68 86 -68q84 0 123 16l-10 -53q-19 -12 -46.5 -23t-57.5 -19.5t-59 -13.5t-52 -5q-111 0 -111 110q0 42 19 117l110 465q29 118 29 164
q0 67 -82 67q-59 0 -119 -16l10 53q20 12 47 23t56 19.5t58 14t52 5.5q105 0 105 -111q0 -42 -19 -117l-110 -465q-29 -113 -29 -163z" />
    <glyph glyph-name="icircumflex" unicode="&#xee;" horiz-adv-x="537" 
d="M596 1126l-197 265l-315 -265l-41 43l303 334q32 35 72 35q44 0 63 -43l162 -338zM262 150q0 -68 86 -68q84 0 123 16l-10 -53q-19 -12 -46.5 -23t-57.5 -19.5t-59 -13.5t-52 -5q-111 0 -111 110q0 42 19 117l110 465q29 118 29 164q0 67 -82 67q-59 0 -119 -16l10 53
q20 12 47 23t56 19.5t58 14t52 5.5q105 0 105 -111q0 -42 -19 -117l-110 -465q-29 -113 -29 -163z" />
    <glyph glyph-name="idieresis" unicode="&#xef;" horiz-adv-x="537" 
d="M307 1370q0 -42 -23 -71t-65 -29t-65 29t-23 71q0 43 23 73t65 30t65 -30t23 -73zM715 1370q0 -42 -23.5 -71t-65.5 -29t-65 29t-23 71q0 43 23 73t65 30t65.5 -30t23.5 -73zM262 150q0 -68 86 -68q84 0 123 16l-10 -53q-19 -12 -46.5 -23t-57.5 -19.5t-59 -13.5t-52 -5
q-111 0 -111 110q0 42 19 117l110 465q29 118 29 164q0 67 -82 67q-59 0 -119 -16l10 53q20 12 47 23t56 19.5t58 14t52 5.5q105 0 105 -111q0 -42 -19 -117l-110 -465q-29 -113 -29 -163z" />
    <glyph glyph-name="eth" unicode="&#xf0;" horiz-adv-x="1024" 
d="M401 -29q-73 0 -134 26t-104.5 75.5t-68 121t-24.5 162.5q0 77 16 153.5t48.5 145.5t82.5 127.5t117 100.5q125 78 268 78q36 0 73 -9.5t70 -28t59.5 -45.5t41.5 -61l8 2v27q0 53 -8.5 112t-24 117.5t-37.5 113.5t-49 101l-270 -141l-39 70l272 141q-47 93 -131 151
l45 56q48 -28 91 -69.5t85 -96.5l226 117l43 -74l-228 -109q146 -232 146 -499q0 -256 -71 -457q-70 -200 -199.5 -304t-303.5 -104zM819 627q0 54 -14.5 102.5t-44 86t-73 59.5t-101.5 22q-78 0 -137 -24.5t-102 -67t-71.5 -99t-45.5 -120t-24 -130.5t-7 -130
q0 -54 12 -105.5t39 -92t70 -65t104 -24.5q63 0 116 27t95 69.5t73.5 96t52.5 106.5q58 143 58 289z" />
    <glyph glyph-name="ntilde" unicode="&#xf1;" horiz-adv-x="1147" 
d="M1063 1460q-36 -103 -97 -158t-137 -54q-50 0 -86 15t-67 33.5t-60 34t-65 16.5q-40 -1 -69 -27q-14 -13 -31.5 -38.5t-39.5 -63.5l-53 22q17 36 37.5 73.5t47.5 69t62 51.5t80 20q47 0 83.5 -15.5t67.5 -34.5t59 -34.5t59 -15.5q33 0 56 10.5t40.5 28.5t30.5 41.5
t26 50.5zM846 -16q-111 0 -111 110q0 53 19 117l104 399q29 118 29 174q0 31 -12.5 55t-33.5 40.5t-48 25t-56 8.5q-45 0 -92 -15.5t-91 -40t-83.5 -55.5t-69.5 -63l-170 -739h-112l158 695q18 78 18 126q0 45 -17.5 60.5t-60.5 15.5q-57 0 -111 -16l11 53q124 59 213 59
q51 0 70.5 -28.5t19.5 -83.5l-2 -41h6q35 33 81 63t96 53t102.5 36.5t101.5 13.5q44 0 81 -13.5t63.5 -39t41.5 -61.5t15 -81q0 -27 -6 -66.5t-19 -91.5q-51 -196 -78 -303.5t-32 -128.5q-9 -42 -9 -71q0 -68 86 -68q84 0 123 16l-10 -53q-19 -12 -46.5 -23t-57.5 -19.5
t-59 -13.5t-52 -5z" />
    <glyph glyph-name="ograve" unicode="&#xf2;" 
d="M733 1134q-61 51 -123 101.5t-125 99.5q-66 54 -32 112q29 38 69 36q44 0 74 -50q16 -25 58.5 -91t114.5 -175zM971 627q0 -81 -17.5 -161.5t-51 -153.5t-82.5 -135.5t-112 -108t-139.5 -71.5t-165.5 -26q-83 0 -145.5 30.5t-104.5 82t-63.5 120.5t-21.5 146
q0 82 17.5 162t51 153t82.5 135.5t111.5 108t138 71.5t162.5 26q83 0 146.5 -30t106.5 -81.5t65 -120.5t22 -147zM844 623q0 155 -59.5 235t-174.5 80q-74 0 -133.5 -25.5t-105.5 -69t-79 -101t-54.5 -122t-32 -131.5t-10.5 -129q0 -161 60 -241t175 -80q90 -2 166.5 43
t132 124.5t86.5 187t29 229.5z" />
    <glyph glyph-name="oacute" unicode="&#xf3;" 
d="M549 1166q112 109 179.5 175.5t91.5 91.5q48 50 92 50q43 -2 62 -47q18 -61 -72 -114q-81 -47 -161 -93.5t-160 -94.5zM971 627q0 -81 -17.5 -161.5t-51 -153.5t-82.5 -135.5t-112 -108t-139.5 -71.5t-165.5 -26q-83 0 -145.5 30.5t-104.5 82t-63.5 120.5t-21.5 146
q0 82 17.5 162t51 153t82.5 135.5t111.5 108t138 71.5t162.5 26q83 0 146.5 -30t106.5 -81.5t65 -120.5t22 -147zM844 623q0 155 -59.5 235t-174.5 80q-74 0 -133.5 -25.5t-105.5 -69t-79 -101t-54.5 -122t-32 -131.5t-10.5 -129q0 -161 60 -241t175 -80q90 -2 166.5 43
t132 124.5t86.5 187t29 229.5z" />
    <glyph glyph-name="ocircumflex" unicode="&#xf4;" 
d="M340 1141l280 282q41 41 87 41h1q47 0 71 -41l163 -282l-45 -28l-206 227l-314 -227zM971 627q0 -81 -17.5 -161.5t-51 -153.5t-82.5 -135.5t-112 -108t-139.5 -71.5t-165.5 -26q-83 0 -145.5 30.5t-104.5 82t-63.5 120.5t-21.5 146q0 82 17.5 162t51 153t82.5 135.5
t111.5 108t138 71.5t162.5 26q83 0 146.5 -30t106.5 -81.5t65 -120.5t22 -147zM844 623q0 155 -59.5 235t-174.5 80q-74 0 -133.5 -25.5t-105.5 -69t-79 -101t-54.5 -122t-32 -131.5t-10.5 -129q0 -161 60 -241t175 -80q90 -2 166.5 43t132 124.5t86.5 187t29 229.5z" />
    <glyph glyph-name="otilde" unicode="&#xf5;" 
d="M1003 1338q-39 -79 -106 -129q-66 -51 -132 -48q-67 5 -130 47q-67 43 -101 45q-30 2 -52 -10q-22 -10 -81 -89l-43 22q107 185 233 178q62 -3 129 -47q66 -43 95 -45q77 -3 114 55q5 10 12.5 20.5t16.5 23.5zM971 627q0 -81 -17.5 -161.5t-51 -153.5t-82.5 -135.5
t-112 -108t-139.5 -71.5t-165.5 -26q-83 0 -145.5 30.5t-104.5 82t-63.5 120.5t-21.5 146q0 82 17.5 162t51 153t82.5 135.5t111.5 108t138 71.5t162.5 26q83 0 146.5 -30t106.5 -81.5t65 -120.5t22 -147zM844 623q0 155 -59.5 235t-174.5 80q-74 0 -133.5 -25.5t-105.5 -69
t-79 -101t-54.5 -122t-32 -131.5t-10.5 -129q0 -161 60 -241t175 -80q90 -2 166.5 43t132 124.5t86.5 187t29 229.5z" />
    <glyph glyph-name="odieresis" unicode="&#xf6;" 
d="M535 1370q0 -42 -23 -71t-65 -29t-65 29t-23 71q0 43 23 73t65 30t65 -30t23 -73zM943 1370q0 -42 -23.5 -71t-65.5 -29t-65 29t-23 71q0 43 23 73t65 30t65.5 -30t23.5 -73zM971 627q0 -81 -17.5 -161.5t-51 -153.5t-82.5 -135.5t-112 -108t-139.5 -71.5t-165.5 -26
q-83 0 -145.5 30.5t-104.5 82t-63.5 120.5t-21.5 146q0 82 17.5 162t51 153t82.5 135.5t111.5 108t138 71.5t162.5 26q83 0 146.5 -30t106.5 -81.5t65 -120.5t22 -147zM844 623q0 155 -59.5 235t-174.5 80q-74 0 -133.5 -25.5t-105.5 -69t-79 -101t-54.5 -122t-32 -131.5
t-10.5 -129q0 -161 60 -241t175 -80q90 -2 166.5 43t132 124.5t86.5 187t29 229.5z" />
    <glyph glyph-name="divide" unicode="&#xf7;" horiz-adv-x="1255" 
d="M768 958q0 -23 -9 -43t-25 -34.5t-36 -22.5t-43 -8q-24 0 -44.5 8.5t-35.5 23t-23.5 34.5t-8.5 42q0 24 9 43.5t24 33.5t35.5 22t43.5 8t43 -8t36 -22t25 -34t9 -43zM164 500v106h985v-106h-985zM768 147q0 -23 -9 -42.5t-24.5 -33.5t-36 -22t-43.5 -8q-24 0 -44.5 8
t-35.5 22.5t-23.5 34t-8.5 41.5q0 23 9 43t24 34.5t35.5 23t43.5 8.5q22 0 42.5 -8.5t36 -23.5t25 -34.5t9.5 -42.5z" />
    <glyph glyph-name="oslash" unicode="&#xf8;" 
d="M971 627q0 -81 -17.5 -161.5t-51 -153.5t-82.5 -135.5t-112 -108t-139.5 -71.5t-165.5 -26q-170 0 -268 135l-121 -106l-43 45l133 117q-36 90 -36 188q0 82 17.5 162t51 153t82.5 135.5t111.5 108t138 71.5t162.5 26q181 0 272 -138l109 97l43 -47l-121 -107
q37 -81 37 -184zM195 360q0 -34 2 -61.5t6 -48.5l614 543q-51 145 -207 145q-74 0 -133.5 -25.5t-105.5 -69t-79 -101t-54.5 -122t-32 -131.5t-10.5 -129zM844 623q0 65 -8 102l-615 -543q54 -143 209 -143q90 -2 166.5 43t132 124.5t86.5 187t29 229.5z" />
    <glyph glyph-name="ugrave" unicode="&#xf9;" horiz-adv-x="1106" 
d="M713 1134q-61 51 -123 101.5t-125 99.5q-66 54 -32 112q29 38 69 36q44 0 74 -50q16 -25 58.5 -91t114.5 -175zM809 -14q-52 0 -81.5 30.5t-29.5 85.5l2 27h-6q-40 -32 -80 -59.5t-82 -48t-88.5 -32.5t-99.5 -12q-45 0 -83 13.5t-65.5 39t-43 62t-15.5 82.5q0 55 23 156
l78 334q13 61 19.5 101t6.5 60q0 35 -15.5 53.5t-60.5 18.5q-34 0 -116 -20l14 53q126 63 207 63q98 0 98 -100q0 -57 -20 -139l-86 -383q-27 -108 -27 -166q0 -60 41 -96.5t111 -36.5q41 0 85 15t86.5 38t80 51.5t65.5 56.5l176 746l103 10l12 -14l-158 -658
q-5 -24 -10.5 -48.5t-10 -46.5t-7.5 -40.5t-3 -29.5q0 -42 26.5 -56t80.5 -14q9 0 22.5 1t27.5 3t27 4.5t21 5.5l-10 -51q-116 -59 -215 -59z" />
    <glyph glyph-name="uacute" unicode="&#xfa;" horiz-adv-x="1106" 
d="M594 1166q112 109 179.5 175.5t91.5 91.5q48 50 92 50q43 -2 62 -47q18 -61 -72 -114q-81 -47 -161 -93.5t-160 -94.5zM809 -14q-52 0 -81.5 30.5t-29.5 85.5l2 27h-6q-40 -32 -80 -59.5t-82 -48t-88.5 -32.5t-99.5 -12q-45 0 -83 13.5t-65.5 39t-43 62t-15.5 82.5
q0 55 23 156l78 334q13 61 19.5 101t6.5 60q0 35 -15.5 53.5t-60.5 18.5q-34 0 -116 -20l14 53q126 63 207 63q98 0 98 -100q0 -57 -20 -139l-86 -383q-27 -108 -27 -166q0 -60 41 -96.5t111 -36.5q41 0 85 15t86.5 38t80 51.5t65.5 56.5l176 746l103 10l12 -14l-158 -658
q-5 -24 -10.5 -48.5t-10 -46.5t-7.5 -40.5t-3 -29.5q0 -42 26.5 -56t80.5 -14q9 0 22.5 1t27.5 3t27 4.5t21 5.5l-10 -51q-116 -59 -215 -59z" />
    <glyph glyph-name="ucircumflex" unicode="&#xfb;" horiz-adv-x="1106" 
d="M901 1126l-197 265l-315 -265l-41 43l303 334q32 35 72 35q44 0 63 -43l162 -338zM809 -14q-52 0 -81.5 30.5t-29.5 85.5l2 27h-6q-40 -32 -80 -59.5t-82 -48t-88.5 -32.5t-99.5 -12q-45 0 -83 13.5t-65.5 39t-43 62t-15.5 82.5q0 55 23 156l78 334q13 61 19.5 101
t6.5 60q0 35 -15.5 53.5t-60.5 18.5q-34 0 -116 -20l14 53q126 63 207 63q98 0 98 -100q0 -57 -20 -139l-86 -383q-27 -108 -27 -166q0 -60 41 -96.5t111 -36.5q41 0 85 15t86.5 38t80 51.5t65.5 56.5l176 746l103 10l12 -14l-158 -658q-5 -24 -10.5 -48.5t-10 -46.5
t-7.5 -40.5t-3 -29.5q0 -42 26.5 -56t80.5 -14q9 0 22.5 1t27.5 3t27 4.5t21 5.5l-10 -51q-116 -59 -215 -59z" />
    <glyph glyph-name="udieresis" unicode="&#xfc;" horiz-adv-x="1106" 
d="M551 1370q0 -42 -23 -71t-65 -29t-65 29t-23 71q0 43 23 73t65 30t65 -30t23 -73zM959 1370q0 -42 -23.5 -71t-65.5 -29t-65 29t-23 71q0 43 23 73t65 30t65.5 -30t23.5 -73zM809 -14q-52 0 -81.5 30.5t-29.5 85.5l2 27h-6q-40 -32 -80 -59.5t-82 -48t-88.5 -32.5
t-99.5 -12q-45 0 -83 13.5t-65.5 39t-43 62t-15.5 82.5q0 55 23 156l78 334q13 61 19.5 101t6.5 60q0 35 -15.5 53.5t-60.5 18.5q-34 0 -116 -20l14 53q126 63 207 63q98 0 98 -100q0 -57 -20 -139l-86 -383q-27 -108 -27 -166q0 -60 41 -96.5t111 -36.5q41 0 85 15t86.5 38
t80 51.5t65.5 56.5l176 746l103 10l12 -14l-158 -658q-5 -24 -10.5 -48.5t-10 -46.5t-7.5 -40.5t-3 -29.5q0 -42 26.5 -56t80.5 -14q9 0 22.5 1t27.5 3t27 4.5t21 5.5l-10 -51q-116 -59 -215 -59z" />
    <glyph glyph-name="yacute" unicode="&#xfd;" horiz-adv-x="1075" 
d="M599 1166q112 109 179.5 175.5t91.5 91.5q48 50 92 50q43 -2 62 -47q18 -61 -72 -114q-81 -47 -161 -93.5t-160 -94.5zM707 137q-40 -32 -82 -61t-86.5 -51t-93 -35t-101.5 -13q-45 0 -83 13.5t-65.5 39t-43 62t-15.5 82.5q0 55 23 156l78 334q13 61 19.5 101t6.5 60
q0 35 -15.5 53.5t-60.5 18.5q-34 0 -116 -20l14 53q126 63 207 63q98 0 98 -100q0 -57 -20 -139l-86 -383q-27 -108 -27 -166q0 -60 41 -96.5t111 -36.5q41 0 86 14t88.5 36.5t82 50.5t66.5 56l172 750l101 10l10 -12l-170 -766q-21 -94 -45.5 -179t-59 -157.5t-81.5 -131.5
t-111.5 -100.5t-150 -64t-197.5 -22.5q-199 0 -199 118q0 40 20 62t54 22q64 0 106 -97l19 -46h22q191 0 316 132.5t176 389.5h-8z" />
    <glyph glyph-name="thorn" unicode="&#xfe;" horiz-adv-x="1077" 
d="M104 -309q0 -15 6 -26t16 -18.5t23 -12t26 -7.5q21 -5 99 -12l-14 -59h-465l15 59q83 6 106 12q59 20 74 92l358 1573q14 58 14 103q0 39 -28 52q-30 14 -129 26l12 55l291 20l12 -12l-158 -670h9q89 78 159.5 109t135.5 31q84 0 147.5 -30.5t106.5 -82.5t64.5 -121.5
t21.5 -148.5q0 -81 -19 -160t-55 -150.5t-87.5 -134t-117.5 -110.5q-131 -97 -272 -97q-175 0 -283 72q-34 -163 -52 -248.5t-16 -103.5zM874 627q0 135 -60 213t-183 78q-42 0 -80.5 -13t-74.5 -33.5t-69 -46t-63 -51.5l-139 -618q17 -47 83 -84q67 -37 154 -37
q66 0 124 25t105 66.5t84 95t61 110.5q58 135 58 295z" />
    <glyph glyph-name="ydieresis" unicode="&#xff;" horiz-adv-x="1075" 
d="M551 1370q0 -42 -23 -71t-65 -29t-65 29t-23 71q0 43 23 73t65 30t65 -30t23 -73zM959 1370q0 -42 -23.5 -71t-65.5 -29t-65 29t-23 71q0 43 23 73t65 30t65.5 -30t23.5 -73zM707 137q-40 -32 -82 -61t-86.5 -51t-93 -35t-101.5 -13q-45 0 -83 13.5t-65.5 39t-43 62
t-15.5 82.5q0 55 23 156l78 334q13 61 19.5 101t6.5 60q0 35 -15.5 53.5t-60.5 18.5q-34 0 -116 -20l14 53q126 63 207 63q98 0 98 -100q0 -57 -20 -139l-86 -383q-27 -108 -27 -166q0 -60 41 -96.5t111 -36.5q41 0 86 14t88.5 36.5t82 50.5t66.5 56l172 750l101 10l10 -12
l-170 -766q-21 -94 -45.5 -179t-59 -157.5t-81.5 -131.5t-111.5 -100.5t-150 -64t-197.5 -22.5q-199 0 -199 118q0 40 20 62t54 22q64 0 106 -97l19 -46h22q191 0 316 132.5t176 389.5h-8z" />
    <glyph glyph-name="Amacron" unicode="&#x100;" horiz-adv-x="1284" 
d="M604 1651l21 108h643l-21 -108h-643zM1249 0h-489l12 61q48 6 79 11t47 9q31 9 47 23.5t16 38.5q0 34 -9 95l-32 264h-531l-143 -238q-51 -91 -51 -125q0 -31 50 -52.5t134 -25.5l-12 -61h-519l13 61q88 7 152 50t112 127l772 1202h18l177 -1227q12 -79 63 -113t107 -39z
M823 1192l-389 -614h473z" />
    <glyph glyph-name="amacron" unicode="&#x101;" horiz-adv-x="1124" 
d="M356 1305l21 108h643l-21 -108h-643zM707 143l-62 -54q-128 -116 -262 -116q-82 0 -140.5 30.5t-96.5 82t-56 119t-18 141.5q0 84 21 165t60 154t94 136t124 111q136 94 286 94q105 0 195 -38l39 -18l123 39l8 -12l-154 -662q-12 -55 -21 -96.5t-9 -68.5q0 -68 86 -68
q84 0 123 16l-11 -53q-19 -12 -46.5 -23t-57.5 -19.5t-59 -13.5t-52 -5q-110 0 -110 110q0 29 4 49h-8zM412 66q34 0 70 9t75 28.5t82.5 51t93.5 76.5l127 543q0 43 -17 75t-45 53.5t-65 32.5t-76 11q-67 0 -128 -28t-111.5 -73.5t-89.5 -102.5t-64 -114q-61 -140 -61 -296
q0 -123 52 -194.5t157 -71.5z" />
    <glyph glyph-name="Abreve" unicode="&#x102;" horiz-adv-x="1284" 
d="M1292 1792q-127 -271 -372 -271q-242 0 -214 271l55 8q7 -88 51 -129.5t138 -41.5q91 0 160 40.5t126 130.5zM1249 0h-489l12 61q48 6 79 11t47 9q31 9 47 23.5t16 38.5q0 34 -9 95l-32 264h-531l-143 -238q-51 -91 -51 -125q0 -31 50 -52.5t134 -25.5l-12 -61h-519
l13 61q88 7 152 50t112 127l772 1202h18l177 -1227q12 -79 63 -113t107 -39zM823 1192l-389 -614h473z" />
    <glyph glyph-name="abreve" unicode="&#x103;" horiz-adv-x="1124" 
d="M1089 1397q-127 -271 -372 -271q-242 0 -214 271l55 8q7 -88 51 -129.5t138 -41.5q91 0 160 40.5t126 130.5zM707 143l-62 -54q-128 -116 -262 -116q-82 0 -140.5 30.5t-96.5 82t-56 119t-18 141.5q0 84 21 165t60 154t94 136t124 111q136 94 286 94q105 0 195 -38
l39 -18l123 39l8 -12l-154 -662q-12 -55 -21 -96.5t-9 -68.5q0 -68 86 -68q84 0 123 16l-11 -53q-19 -12 -46.5 -23t-57.5 -19.5t-59 -13.5t-52 -5q-110 0 -110 110q0 29 4 49h-8zM412 66q34 0 70 9t75 28.5t82.5 51t93.5 76.5l127 543q0 43 -17 75t-45 53.5t-65 32.5
t-76 11q-67 0 -128 -28t-111.5 -73.5t-89.5 -102.5t-64 -114q-61 -140 -61 -296q0 -123 52 -194.5t157 -71.5z" />
    <glyph glyph-name="Aogonek" unicode="&#x104;" horiz-adv-x="1284" 
d="M1249 0h-193q-76 -59 -116.5 -124t-40.5 -128q0 -64 48.5 -92.5t156.5 -30.5l-12 -69h-90q-114 0 -176 41.5t-62 113.5t58.5 146t168.5 143h-231l12 61q48 6 79 11t47 9q31 9 47 23.5t16 38.5q0 34 -9 95l-32 264h-531l-143 -238q-51 -91 -51 -125q0 -31 50 -52.5
t134 -25.5l-12 -61h-519l13 61q88 7 152 50t112 127l772 1202h18l177 -1227q12 -79 63 -113t107 -39zM823 1192l-389 -614h473z" />
    <glyph glyph-name="aogonek" unicode="&#x105;" horiz-adv-x="1124" 
d="M707 143l-62 -54q-128 -116 -262 -116q-82 0 -140.5 30.5t-96.5 82t-56 119t-18 141.5q0 84 21 165t60 154t94 136t124 111q136 94 286 94q105 0 195 -38l39 -18l123 39l8 -12l-154 -662q-12 -55 -21 -96.5t-9 -68.5q0 -68 86 -68q84 0 123 16l-11 -53q-19 -12 -46 -23
t-56 -19t-57.5 -13t-51.5 -6q-66 -56 -101.5 -117t-35.5 -119q0 -64 48.5 -92.5t156.5 -30.5l-12 -69h-90q-114 0 -176 41.5t-62 113.5q0 70 55 142.5t160 139.5q-57 23 -57 101q0 29 4 49h-8zM412 66q34 0 70 9t75 28.5t82.5 51t93.5 76.5l127 543q0 43 -17 75t-45 53.5
t-65 32.5t-76 11q-67 0 -128 -28t-111.5 -73.5t-89.5 -102.5t-64 -114q-61 -140 -61 -296q0 -123 52 -194.5t157 -71.5z" />
    <glyph glyph-name="Cacute" unicode="&#x106;" horiz-adv-x="1280" 
d="M821 1518l-29 38l205 199q88 88 109 100q20 13 45 13q26 0 44.5 -20.5t18.5 -49.5q0 -22 -7 -38.5t-19 -29.5t-28 -23.5t-34 -20.5zM1229 352q-115 -198 -262 -289.5t-336 -91.5q-121 0 -217.5 43t-164 117.5t-104 175t-36.5 215.5q0 116 27 230t78 218t125.5 194
t170.5 157q186 129 391 129q231 0 371 -104l47 73h78l-109 -499h-69v51q1 112 -19.5 187.5t-61 122.5t-101 68t-140.5 23q-92 0 -175.5 -32.5t-153.5 -87.5t-125.5 -127.5t-91.5 -152.5q-83 -183 -83 -399q0 -93 26 -184t78 -163t130.5 -116t183.5 -44q80 0 151 25.5t131 69
t109 102.5t86 126z" />
    <glyph glyph-name="cacute" unicode="&#x107;" horiz-adv-x="897" 
d="M827 1468q0 -40 -25 -74q-24 -34 -135 -135l-159 -145l-37 31l117 188q95 155 120 177q26 24 58 24q29 0 45 -20t16 -46zM877 811q0 -23 -5 -51.5t-17 -53t-31.5 -41t-49.5 -16.5q-42 0 -61 21.5t-19 50.5q0 39 51 166q-9 15 -27.5 25t-40.5 16t-44 9t-37 3
q-61 0 -114 -25t-96.5 -65.5t-76.5 -92t-54 -103.5q-54 -132 -54 -289q0 -60 16 -114t48 -95t80.5 -65.5t113.5 -24.5q176 0 329 202l50 -32q-33 -51 -80.5 -98.5t-103 -84t-117.5 -58.5t-125 -22q-87 0 -151 28t-106 77.5t-62.5 118.5t-20.5 151q0 78 16 157t47 152
t76.5 136.5t105 111t132.5 74.5t159 27q46 0 93.5 -10t86.5 -33t64 -60.5t25 -91.5z" />
    <glyph glyph-name="Ccircumflex" unicode="&#x108;" horiz-adv-x="1280" 
d="M1204 1538l-49 -31l-236 211l-319 -211l-47 31l291 285q18 18 39.5 31.5t60.5 13.5q43 0 57 -14q16 -14 23 -27zM1229 352q-115 -198 -262 -289.5t-336 -91.5q-121 0 -217.5 43t-164 117.5t-104 175t-36.5 215.5q0 116 27 230t78 218t125.5 194t170.5 157
q186 129 391 129q231 0 371 -104l47 73h78l-109 -499h-69v51q1 112 -19.5 187.5t-61 122.5t-101 68t-140.5 23q-92 0 -175.5 -32.5t-153.5 -87.5t-125.5 -127.5t-91.5 -152.5q-83 -183 -83 -399q0 -93 26 -184t78 -163t130.5 -116t183.5 -44q80 0 151 25.5t131 69t109 102.5
t86 126z" />
    <glyph glyph-name="ccircumflex" unicode="&#x109;" horiz-adv-x="897" 
d="M817 1126l-197 265l-315 -265l-41 43l303 334q32 35 72 35q44 0 63 -43l162 -338zM877 811q0 -23 -5 -51.5t-17 -53t-31.5 -41t-49.5 -16.5q-42 0 -61 21.5t-19 50.5q0 39 51 166q-9 15 -27.5 25t-40.5 16t-44 9t-37 3q-61 0 -114 -25t-96.5 -65.5t-76.5 -92t-54 -103.5
q-54 -132 -54 -289q0 -60 16 -114t48 -95t80.5 -65.5t113.5 -24.5q176 0 329 202l50 -32q-33 -51 -80.5 -98.5t-103 -84t-117.5 -58.5t-125 -22q-87 0 -151 28t-106 77.5t-62.5 118.5t-20.5 151q0 78 16 157t47 152t76.5 136.5t105 111t132.5 74.5t159 27q46 0 93.5 -10
t86.5 -33t64 -60.5t25 -91.5z" />
    <glyph glyph-name="Cdotaccent" unicode="&#x10a;" horiz-adv-x="1280" 
d="M879 1628q-76 0 -76 88q0 54 27.5 85.5t66.5 31.5q78 0 78 -88q0 -25 -7.5 -46.5t-20.5 -37.5t-30.5 -24.5t-37.5 -8.5zM1229 352q-115 -198 -262 -289.5t-336 -91.5q-121 0 -217.5 43t-164 117.5t-104 175t-36.5 215.5q0 116 27 230t78 218t125.5 194t170.5 157
q186 129 391 129q231 0 371 -104l47 73h78l-109 -499h-69v51q1 112 -19.5 187.5t-61 122.5t-101 68t-140.5 23q-92 0 -175.5 -32.5t-153.5 -87.5t-125.5 -127.5t-91.5 -152.5q-83 -183 -83 -399q0 -93 26 -184t78 -163t130.5 -116t183.5 -44q80 0 151 25.5t131 69t109 102.5
t86 126z" />
    <glyph glyph-name="cdotaccent" unicode="&#x10b;" horiz-adv-x="897" 
d="M623 1284q-76 0 -76 88q0 54 27.5 85.5t66.5 31.5q78 0 78 -88q0 -25 -7.5 -46.5t-20.5 -37.5t-30.5 -24.5t-37.5 -8.5zM877 811q0 -23 -5 -51.5t-17 -53t-31.5 -41t-49.5 -16.5q-42 0 -61 21.5t-19 50.5q0 39 51 166q-9 15 -27.5 25t-40.5 16t-44 9t-37 3
q-61 0 -114 -25t-96.5 -65.5t-76.5 -92t-54 -103.5q-54 -132 -54 -289q0 -60 16 -114t48 -95t80.5 -65.5t113.5 -24.5q176 0 329 202l50 -32q-33 -51 -80.5 -98.5t-103 -84t-117.5 -58.5t-125 -22q-87 0 -151 28t-106 77.5t-62.5 118.5t-20.5 151q0 78 16 157t47 152
t76.5 136.5t105 111t132.5 74.5t159 27q46 0 93.5 -10t86.5 -33t64 -60.5t25 -91.5z" />
    <glyph glyph-name="Ccaron" unicode="&#x10c;" horiz-adv-x="1280" 
d="M1276 1837l-289 -285q-12 -11 -21.5 -19.5t-17.5 -14.5q-14 -11 -61 -11q-42 0 -56 13q-7 7 -13 14t-11 14l-180 289l49 33l233 -213l322 213zM1229 352q-115 -198 -262 -289.5t-336 -91.5q-121 0 -217.5 43t-164 117.5t-104 175t-36.5 215.5q0 116 27 230t78 218
t125.5 194t170.5 157q186 129 391 129q231 0 371 -104l47 73h78l-109 -499h-69v51q1 112 -19.5 187.5t-61 122.5t-101 68t-140.5 23q-92 0 -175.5 -32.5t-153.5 -87.5t-125.5 -127.5t-91.5 -152.5q-83 -183 -83 -399q0 -93 26 -184t78 -163t130.5 -116t183.5 -44
q80 0 151 25.5t131 69t109 102.5t86 126z" />
    <glyph glyph-name="ccaron" unicode="&#x10d;" horiz-adv-x="897" 
d="M407 1538l197 -264l315 264l41 -43l-303 -334q-17 -18 -32.5 -26.5t-38.5 -8.5q-42 0 -64 43l-162 338zM877 811q0 -23 -5 -51.5t-17 -53t-31.5 -41t-49.5 -16.5q-42 0 -61 21.5t-19 50.5q0 39 51 166q-9 15 -27.5 25t-40.5 16t-44 9t-37 3q-61 0 -114 -25t-96.5 -65.5
t-76.5 -92t-54 -103.5q-54 -132 -54 -289q0 -60 16 -114t48 -95t80.5 -65.5t113.5 -24.5q176 0 329 202l50 -32q-33 -51 -80.5 -98.5t-103 -84t-117.5 -58.5t-125 -22q-87 0 -151 28t-106 77.5t-62.5 118.5t-20.5 151q0 78 16 157t47 152t76.5 136.5t105 111t132.5 74.5
t159 27q46 0 93.5 -10t86.5 -33t64 -60.5t25 -91.5z" />
    <glyph glyph-name="Dcaron" unicode="&#x10e;" horiz-adv-x="1446" 
d="M1251 1837l-289 -285q-12 -11 -21.5 -19.5t-17.5 -14.5q-14 -11 -61 -11q-42 0 -56 13q-7 7 -13 14t-11 14l-180 289l49 33l233 -213l322 213zM463 1284q0 20 -19.5 33t-46 21.5t-53.5 13t-41 6.5l12 61h545q163 0 299 -71q137 -70 204 -189.5t67 -279.5
q0 -121 -29 -233.5t-85 -210t-138 -178.5t-189 -141q-209 -116 -446 -116h-557l12 61q109 6 145 21q50 21 68 96l246 1057q6 30 6 49zM1274 850q0 111 -33 203t-95 158t-151 102.5t-202 36.5l-170 -4l-252 -1090q-7 -32 -10 -51.5t-3 -24.5q0 -30 12.5 -50.5t41 -32.5
t73.5 -17.5t109 -5.5q107 0 199 30t168 83.5t134 126.5t98 159.5t60.5 182.5t20.5 194z" />
    <glyph glyph-name="dcaron" unicode="&#x10f;" horiz-adv-x="1284" 
d="M838 150q0 -68 86 -68q84 0 123 16l-11 -53q-19 -12 -46.5 -23t-57.5 -19.5t-59 -13.5t-52 -5q-110 0 -110 110q0 29 4 49h-8l-62 -54q-128 -116 -262 -116q-82 0 -140.5 30.5t-96.5 82t-56 119t-18 141.5q0 84 21 165t60 154t94 136t124 111q136 94 286 94
q71 0 128 -14.5t122 -43.5l80 346q14 58 14 101q0 40 -34 55q-34 16 -140 23l15 55l303 20l10 -12l-287 -1221q-12 -55 -21 -96.5t-9 -68.5zM1165 1124l68 38q114 65 141 177h-26q-42 0 -69.5 25t-27.5 63q0 48 28 75.5t71 27.5q52 0 81 -31t29 -88q0 -68 -21 -119t-57 -91
t-84.5 -70.5t-103.5 -57.5zM412 66q34 0 70 9t75 28.5t82.5 51t93.5 76.5l127 543q0 77 -49 124.5t-154 47.5q-67 0 -128 -28t-111.5 -73.5t-89.5 -102.5t-64 -114q-61 -140 -61 -296q0 -123 52 -194.5t157 -71.5z" />
    <glyph glyph-name="Dcroat" unicode="&#x110;" horiz-adv-x="1446" 
d="M178 799h176l103 436q6 30 6 49q0 20 -19.5 33t-46 21.5t-53.5 13t-41 6.5l12 61h545q163 0 299 -71q137 -70 204 -189.5t67 -279.5q0 -121 -29 -233.5t-85 -210t-138 -178.5t-189 -141q-209 -116 -446 -116h-557l12 61q109 6 145 21q50 21 68 96l123 531h-178zM1274 850
q0 111 -33 203t-95 158t-151 102.5t-202 36.5l-170 -4l-127 -547h305l-19 -90h-307l-104 -453q-13 -48 -13 -76q0 -30 12.5 -50.5t41 -32.5t73.5 -17.5t109 -5.5q107 0 199 30t168 83.5t134 126.5t98 159.5t60.5 182.5t20.5 194z" />
    <glyph glyph-name="dcroat" unicode="&#x111;" horiz-adv-x="1124" 
d="M1090 1255h225l-21 -75h-223l-203 -865q-12 -55 -21 -96.5t-9 -68.5q0 -68 86 -68q84 0 123 16l-11 -53q-19 -12 -46.5 -23t-57.5 -19.5t-59 -13.5t-52 -5q-110 0 -110 110q0 29 4 49h-8l-62 -54q-128 -116 -262 -116q-82 0 -140.5 30.5t-96.5 82t-56 119t-18 141.5
q0 84 21 165t60 154t94 136t124 111q136 94 286 94q71 0 128 -14.5t122 -43.5l54 232h-334l14 75h338q22 92 22 140q0 40 -34 55q-34 16 -140 23l15 55l303 20l10 -12zM412 66q34 0 70 9t75 28.5t82.5 51t93.5 76.5l127 543q0 77 -49 124.5t-154 47.5q-67 0 -128 -28
t-111.5 -73.5t-89.5 -102.5t-64 -114q-61 -140 -61 -296q0 -123 52 -194.5t157 -71.5z" />
    <glyph glyph-name="Emacron" unicode="&#x112;" horiz-adv-x="1309" 
d="M541 1645l21 108h643l-21 -108h-643zM1364 1419l-80 -332h-61q-7 244 -136 259q-108 6 -210 6h-252l-133 -580h213q85 0 133 20q47 20 83.5 75.5t63.5 129.5h64l-123 -534h-62l2 76q0 79 -10 98q-18 35 -59 48t-111 13h-213l-100 -436q-13 -55 -13 -96q0 -53 43 -72
q45 -20 177 -20q156 0 260.5 15t138.5 42q82 64 192 275h68l-121 -406h-1145l13 61q122 7 157 21q50 21 68 96l246 1057q6 30 6 49q0 52 -144 70l-30 4l12 61h1063z" />
    <glyph glyph-name="emacron" unicode="&#x113;" horiz-adv-x="922" 
d="M293 1305l21 108h643l-21 -108h-643zM881 809q0 -108 -71 -188q-35 -39 -93 -72t-136.5 -59.5t-176 -47.5t-211.5 -36v-18q0 -157 63 -239.5t188 -82.5q179 0 336 204l49 -34q-36 -54 -84 -102t-104 -83.5t-119.5 -56.5t-130.5 -21q-155 0 -238 97.5t-83 277.5
q0 80 19 160t54 153t86 136t115 109.5t140 73t161 26.5q115 0 175.5 -53t60.5 -144zM641 940q-57 0 -109 -19t-98 -51t-83.5 -74.5t-65.5 -89.5q-64 -109 -84 -237q56 8 110.5 16.5t108 22t105 33.5t99.5 50q73 46 107.5 102.5t34.5 123.5q0 57 -32.5 90t-92.5 33z" />
    <glyph glyph-name="Ebreve" unicode="&#x114;" horiz-adv-x="1309" 
d="M1212 1853q-57 -160 -145 -241.5t-220 -81.5q-256 0 -256 328l56 14q15 -115 68 -163t149 -48q59 0 102.5 15.5t77 43.5t60.5 67t53 85zM1364 1419l-80 -332h-61q-7 244 -136 259q-108 6 -210 6h-252l-133 -580h213q85 0 133 20q47 20 83.5 75.5t63.5 129.5h64l-123 -534
h-62l2 76q0 79 -10 98q-18 35 -59 48t-111 13h-213l-100 -436q-13 -55 -13 -96q0 -53 43 -72q45 -20 177 -20q156 0 260.5 15t138.5 42q82 64 192 275h68l-121 -406h-1145l13 61q122 7 157 21q50 21 68 96l246 1057q6 30 6 49q0 52 -144 70l-30 4l12 61h1063z" />
    <glyph glyph-name="ebreve" unicode="&#x115;" horiz-adv-x="922" 
d="M956 1470q-57 -172 -143.5 -260t-218.5 -88q-254 0 -254 357l49 8q15 -120 69.5 -172.5t151.5 -52.5q59 0 103.5 16.5t78.5 46.5t61 71.5t52 90.5zM881 809q0 -108 -71 -188q-35 -39 -93 -72t-136.5 -59.5t-176 -47.5t-211.5 -36v-18q0 -157 63 -239.5t188 -82.5
q179 0 336 204l49 -34q-36 -54 -84 -102t-104 -83.5t-119.5 -56.5t-130.5 -21q-155 0 -238 97.5t-83 277.5q0 80 19 160t54 153t86 136t115 109.5t140 73t161 26.5q115 0 175.5 -53t60.5 -144zM641 940q-57 0 -109 -19t-98 -51t-83.5 -74.5t-65.5 -89.5q-64 -109 -84 -237
q56 8 110.5 16.5t108 22t105 33.5t99.5 50q73 46 107.5 102.5t34.5 123.5q0 57 -32.5 90t-92.5 33z" />
    <glyph glyph-name="Edotaccent" unicode="&#x116;" horiz-adv-x="1309" 
d="M895 1628q-76 0 -76 88q0 54 27.5 85.5t66.5 31.5q78 0 78 -88q0 -25 -7.5 -46.5t-20.5 -37.5t-30.5 -24.5t-37.5 -8.5zM1364 1419l-80 -332h-61q-7 244 -136 259q-108 6 -210 6h-252l-133 -580h213q85 0 133 20q47 20 83.5 75.5t63.5 129.5h64l-123 -534h-62l2 76
q0 79 -10 98q-18 35 -59 48t-111 13h-213l-100 -436q-13 -55 -13 -96q0 -53 43 -72q45 -20 177 -20q156 0 260.5 15t138.5 42q82 64 192 275h68l-121 -406h-1145l13 61q122 7 157 21q50 21 68 96l246 1057q6 30 6 49q0 52 -144 70l-30 4l12 61h1063z" />
    <glyph glyph-name="edotaccent" unicode="&#x117;" horiz-adv-x="922" 
d="M625 1284q-76 0 -76 88q0 54 27.5 85.5t66.5 31.5q78 0 78 -88q0 -25 -7.5 -46.5t-20.5 -37.5t-30.5 -24.5t-37.5 -8.5zM881 809q0 -108 -71 -188q-35 -39 -93 -72t-136.5 -59.5t-176 -47.5t-211.5 -36v-18q0 -157 63 -239.5t188 -82.5q179 0 336 204l49 -34
q-36 -54 -84 -102t-104 -83.5t-119.5 -56.5t-130.5 -21q-155 0 -238 97.5t-83 277.5q0 80 19 160t54 153t86 136t115 109.5t140 73t161 26.5q115 0 175.5 -53t60.5 -144zM641 940q-57 0 -109 -19t-98 -51t-83.5 -74.5t-65.5 -89.5q-64 -109 -84 -237q56 8 110.5 16.5t108 22
t105 33.5t99.5 50q73 46 107.5 102.5t34.5 123.5q0 57 -32.5 90t-92.5 33z" />
    <glyph glyph-name="Eogonek" unicode="&#x118;" horiz-adv-x="1309" 
d="M1364 1419l-80 -332h-61q-7 244 -136 259q-108 6 -210 6h-252l-133 -580h213q85 0 133 20q47 20 83.5 75.5t63.5 129.5h64l-123 -534h-62l2 76q0 79 -10 98q-18 35 -59 48t-111 13h-213l-100 -436q-13 -55 -13 -96q0 -53 43 -72q45 -20 177 -20q156 0 260.5 15t138.5 42
q82 64 192 275h68l-121 -406h-181q-76 -59 -116.5 -124t-40.5 -128q0 -64 48.5 -92.5t156.5 -30.5l-12 -69h-90q-114 0 -176 41.5t-62 113.5t58.5 146t168.5 143h-899l13 61q122 7 157 21q50 21 68 96l246 1057q6 30 6 49q0 52 -144 70l-30 4l12 61h1063z" />
    <glyph glyph-name="eogonek" unicode="&#x119;" horiz-adv-x="922" 
d="M881 809q0 -108 -71 -188q-35 -39 -93 -72t-136.5 -59.5t-176 -47.5t-211.5 -36v-18q0 -157 63 -239.5t188 -82.5q179 0 336 204l49 -34q-81 -121 -199 -192l-10 -6t-10 -5q-98 -63 -150.5 -138t-52.5 -147q0 -64 48.5 -92.5t156.5 -30.5l-12 -69h-90q-114 0 -176 41.5
t-62 113.5q0 66 50 135.5t146 133.5q-19 -4 -38 -5.5t-39 -1.5q-155 0 -238 97.5t-83 277.5q0 80 19 160t54 153t86 136t115 109.5t140 73t161 26.5q115 0 175.5 -53t60.5 -144zM641 940q-57 0 -109 -19t-98 -51t-83.5 -74.5t-65.5 -89.5q-64 -109 -84 -237q56 8 110.5 16.5
t108 22t105 33.5t99.5 50q73 46 107.5 102.5t34.5 123.5q0 57 -32.5 90t-92.5 33z" />
    <glyph glyph-name="Ecaron" unicode="&#x11a;" horiz-adv-x="1309" 
d="M1241 1837l-289 -285q-12 -11 -21.5 -19.5t-17.5 -14.5q-14 -11 -61 -11q-42 0 -56 13q-7 7 -13 14t-11 14l-180 289l49 33l233 -213l322 213zM1364 1419l-80 -332h-61q-7 244 -136 259q-108 6 -210 6h-252l-133 -580h213q85 0 133 20q47 20 83.5 75.5t63.5 129.5h64
l-123 -534h-62l2 76q0 79 -10 98q-18 35 -59 48t-111 13h-213l-100 -436q-13 -55 -13 -96q0 -53 43 -72q45 -20 177 -20q156 0 260.5 15t138.5 42q82 64 192 275h68l-121 -406h-1145l13 61q122 7 157 21q50 21 68 96l246 1057q6 30 6 49q0 52 -144 70l-30 4l12 61h1063z" />
    <glyph glyph-name="ecaron" unicode="&#x11b;" horiz-adv-x="922" 
d="M403 1538l197 -264l315 264l41 -43l-303 -334q-17 -18 -32.5 -26.5t-38.5 -8.5q-42 0 -64 43l-162 338zM881 809q0 -108 -71 -188q-35 -39 -93 -72t-136.5 -59.5t-176 -47.5t-211.5 -36v-18q0 -157 63 -239.5t188 -82.5q179 0 336 204l49 -34q-36 -54 -84 -102
t-104 -83.5t-119.5 -56.5t-130.5 -21q-155 0 -238 97.5t-83 277.5q0 80 19 160t54 153t86 136t115 109.5t140 73t161 26.5q115 0 175.5 -53t60.5 -144zM641 940q-57 0 -109 -19t-98 -51t-83.5 -74.5t-65.5 -89.5q-64 -109 -84 -237q56 8 110.5 16.5t108 22t105 33.5t99.5 50
q73 46 107.5 102.5t34.5 123.5q0 57 -32.5 90t-92.5 33z" />
    <glyph glyph-name="Gcircumflex" unicode="&#x11c;" horiz-adv-x="1442" 
d="M1237 1538l-49 -31l-236 211l-319 -211l-47 31l291 285q18 18 39.5 31.5t60.5 13.5q43 0 57 -14q16 -14 23 -27zM659 -29q-128 0 -230 43.5t-173 120.5t-109 181.5t-38 226.5q0 117 29 230t83.5 214.5t132.5 188t177 149.5q196 125 409 125q48 0 103 -5.5t109.5 -17.5
t105 -32t90.5 -49l49 73h65l-104 -483h-68q1 26 1.5 43t0.5 25q-3 190 -101 279t-280 89q-96 0 -182 -32.5t-158 -88t-128.5 -130.5t-94.5 -159q-84 -187 -84 -413q0 -105 30 -197t87.5 -160t143 -107.5t196.5 -39.5q167 0 280 80q10 15 19.5 41.5t18.5 60t17 70t14.5 71.5
t11 64.5t5.5 48.5q0 22 -8.5 35.5t-22 21t-31 11t-35.5 6.5q-30 5 -56.5 7.5t-49.5 2.5h-10l13 68h551l-13 -68l-31 -3q-38 -4 -67.5 -10t-51 -20.5t-37 -39.5t-26.5 -66q-36 -157 -54 -237q-18 -79 -21 -117q-58 -20 -116.5 -38.5t-118.5 -32.5t-120.5 -22t-122.5 -8z" />
    <glyph glyph-name="gcircumflex" unicode="&#x11d;" horiz-adv-x="1116" 
d="M912 1126l-197 265l-315 -265l-41 43l303 334q32 35 72 35q44 0 63 -43l162 -338zM1016 989l8 -12l-168 -776q-29 -135 -74.5 -253t-118.5 -205t-180.5 -137t-261.5 -50q-100 0 -155.5 33t-55.5 96q0 31 17.5 56.5t58.5 25.5q61 0 96 -104l17 -48h43q183 0 307 133
t178 395h-10l-62 -52q-127 -111 -262 -111q-81 0 -140 29.5t-97 79.5t-56 116.5t-18 140.5q0 84 21.5 165.5t61.5 156t96 138t126 109.5q134 91 281 91q57 0 111 -12t122 -44zM422 72q146 0 321 159l121 543q0 85 -50 128.5t-146 43.5q-67 0 -127 -27.5t-110 -72t-89 -100.5
t-65 -113q-64 -141 -64 -301q0 -125 51.5 -192.5t157.5 -67.5z" />
    <glyph glyph-name="Gbreve" unicode="&#x11e;" horiz-adv-x="1442" 
d="M1317 1853q-57 -160 -145 -241.5t-220 -81.5q-256 0 -256 328l56 14q15 -115 68 -163t149 -48q59 0 102.5 15.5t77 43.5t60.5 67t53 85zM659 -29q-128 0 -230 43.5t-173 120.5t-109 181.5t-38 226.5q0 117 29 230t83.5 214.5t132.5 188t177 149.5q196 125 409 125
q48 0 103 -5.5t109.5 -17.5t105 -32t90.5 -49l49 73h65l-104 -483h-68q1 26 1.5 43t0.5 25q-3 190 -101 279t-280 89q-96 0 -182 -32.5t-158 -88t-128.5 -130.5t-94.5 -159q-84 -187 -84 -413q0 -105 30 -197t87.5 -160t143 -107.5t196.5 -39.5q167 0 280 80
q10 15 19.5 41.5t18.5 60t17 70t14.5 71.5t11 64.5t5.5 48.5q0 22 -8.5 35.5t-22 21t-31 11t-35.5 6.5q-30 5 -56.5 7.5t-49.5 2.5h-10l13 68h551l-13 -68l-31 -3q-38 -4 -67.5 -10t-51 -20.5t-37 -39.5t-26.5 -66q-36 -157 -54 -237q-18 -79 -21 -117q-58 -20 -116.5 -38.5
t-118.5 -32.5t-120.5 -22t-122.5 -8z" />
    <glyph glyph-name="gbreve" unicode="&#x11f;" horiz-adv-x="1116" 
d="M999 1470q-57 -172 -143.5 -260t-218.5 -88q-254 0 -254 357l49 8q15 -120 69.5 -172.5t151.5 -52.5q59 0 103.5 16.5t78.5 46.5t61 71.5t52 90.5zM1016 989l8 -12l-168 -776q-29 -135 -74.5 -253t-118.5 -205t-180.5 -137t-261.5 -50q-100 0 -155.5 33t-55.5 96
q0 31 17.5 56.5t58.5 25.5q61 0 96 -104l17 -48h43q183 0 307 133t178 395h-10l-62 -52q-127 -111 -262 -111q-81 0 -140 29.5t-97 79.5t-56 116.5t-18 140.5q0 84 21.5 165.5t61.5 156t96 138t126 109.5q134 91 281 91q57 0 111 -12t122 -44zM422 72q146 0 321 159l121 543
q0 85 -50 128.5t-146 43.5q-67 0 -127 -27.5t-110 -72t-89 -100.5t-65 -113q-64 -141 -64 -301q0 -125 51.5 -192.5t157.5 -67.5z" />
    <glyph glyph-name="Gdotaccent" unicode="&#x120;" horiz-adv-x="1442" 
d="M975 1628q-76 0 -76 88q0 54 27.5 85.5t66.5 31.5q78 0 78 -88q0 -25 -7.5 -46.5t-20.5 -37.5t-30.5 -24.5t-37.5 -8.5zM659 -29q-128 0 -230 43.5t-173 120.5t-109 181.5t-38 226.5q0 117 29 230t83.5 214.5t132.5 188t177 149.5q196 125 409 125q48 0 103 -5.5
t109.5 -17.5t105 -32t90.5 -49l49 73h65l-104 -483h-68q1 26 1.5 43t0.5 25q-3 190 -101 279t-280 89q-96 0 -182 -32.5t-158 -88t-128.5 -130.5t-94.5 -159q-84 -187 -84 -413q0 -105 30 -197t87.5 -160t143 -107.5t196.5 -39.5q167 0 280 80q10 15 19.5 41.5t18.5 60
t17 70t14.5 71.5t11 64.5t5.5 48.5q0 22 -8.5 35.5t-22 21t-31 11t-35.5 6.5q-30 5 -56.5 7.5t-49.5 2.5h-10l13 68h551l-13 -68l-31 -3q-38 -4 -67.5 -10t-51 -20.5t-37 -39.5t-26.5 -66q-36 -157 -54 -237q-18 -79 -21 -117q-58 -20 -116.5 -38.5t-118.5 -32.5t-120.5 -22
t-122.5 -8z" />
    <glyph glyph-name="gdotaccent" unicode="&#x121;" horiz-adv-x="1116" 
d="M680 1284q-76 0 -76 88q0 54 27.5 85.5t66.5 31.5q78 0 78 -88q0 -25 -7.5 -46.5t-20.5 -37.5t-30.5 -24.5t-37.5 -8.5zM1016 989l8 -12l-168 -776q-29 -135 -74.5 -253t-118.5 -205t-180.5 -137t-261.5 -50q-100 0 -155.5 33t-55.5 96q0 31 17.5 56.5t58.5 25.5
q61 0 96 -104l17 -48h43q183 0 307 133t178 395h-10l-62 -52q-127 -111 -262 -111q-81 0 -140 29.5t-97 79.5t-56 116.5t-18 140.5q0 84 21.5 165.5t61.5 156t96 138t126 109.5q134 91 281 91q57 0 111 -12t122 -44zM422 72q146 0 321 159l121 543q0 85 -50 128.5t-146 43.5
q-67 0 -127 -27.5t-110 -72t-89 -100.5t-65 -113q-64 -141 -64 -301q0 -125 51.5 -192.5t157.5 -67.5z" />
    <glyph glyph-name="uni0122" unicode="&#x122;" horiz-adv-x="1442" 
d="M659 -29q-128 0 -230 43.5t-173 120.5t-109 181.5t-38 226.5q0 117 29 230t83.5 214.5t132.5 188t177 149.5q196 125 409 125q48 0 103 -5.5t109.5 -17.5t105 -32t90.5 -49l49 73h65l-104 -483h-68q1 26 1.5 43t0.5 25q-3 190 -101 279t-280 89q-96 0 -182 -32.5
t-158 -88t-128.5 -130.5t-94.5 -159q-84 -187 -84 -413q0 -105 30 -197t87.5 -160t143 -107.5t196.5 -39.5q167 0 280 80q10 15 19.5 41.5t18.5 60t17 70t14.5 71.5t11 64.5t5.5 48.5q0 22 -8.5 35.5t-22 21t-31 11t-35.5 6.5q-30 5 -56.5 7.5t-49.5 2.5h-10l13 68h551
l-13 -68l-31 -3q-38 -4 -67.5 -10t-51 -20.5t-37 -39.5t-26.5 -66q-36 -157 -54 -237q-18 -79 -21 -117q-58 -20 -116.5 -38.5t-118.5 -32.5t-120.5 -22t-122.5 -8zM493 -389q42 4 72.5 13t52 24.5t35.5 39t23 56.5h-31q-51 0 -80 24t-29 64q0 48 31.5 75t79.5 27
q25 0 46.5 -10t37 -27.5t24.5 -41.5t9 -52q0 -115 -72 -180t-209 -67z" />
    <glyph glyph-name="uni0123" unicode="&#x123;" horiz-adv-x="1116" 
d="M793 1450q-42 -4 -73 -13t-52.5 -24.5t-35 -39t-21.5 -56.5h30q51 0 80 -24t29 -64q0 -46 -30 -74.5t-81 -28.5q-25 0 -46.5 10t-37 27.5t-24 41.5t-8.5 52q0 118 73.5 182t206.5 66zM1016 989l8 -12l-168 -776q-29 -135 -74.5 -253t-118.5 -205t-180.5 -137t-261.5 -50
q-100 0 -155.5 33t-55.5 96q0 31 17.5 56.5t58.5 25.5q61 0 96 -104l17 -48h43q183 0 307 133t178 395h-10l-62 -52q-127 -111 -262 -111q-81 0 -140 29.5t-97 79.5t-56 116.5t-18 140.5q0 84 21.5 165.5t61.5 156t96 138t126 109.5q134 91 281 91q57 0 111 -12t122 -44z
M422 72q146 0 321 159l121 543q0 85 -50 128.5t-146 43.5q-67 0 -127 -27.5t-110 -72t-89 -100.5t-65 -113q-64 -141 -64 -301q0 -125 51.5 -192.5t157.5 -67.5z" />
    <glyph glyph-name="Hcircumflex" unicode="&#x124;" horiz-adv-x="1610" 
d="M1343 1538l-49 -31l-236 211l-319 -211l-47 31l291 285q18 18 39.5 31.5t60.5 13.5q43 0 57 -14q16 -14 23 -27zM1346 1284q0 19 -19.5 32.5t-46 22t-53.5 13t-41 6.5l12 61h502l-14 -61q-95 -9 -142 -30q-45 -19 -63 -93l-234 -1018q-5 -23 -7.5 -40t-2.5 -27
q0 -18 5 -30t14 -20.5t22 -14.5t28 -11q39 -13 80 -13l-16 -61h-496l13 61l37 3q34 3 62 7.5t49 16t36 33t23 57.5l120 522h-739l-110 -483q-11 -39 -11 -67q0 -18 5 -30t14 -20.5t21.5 -14.5t28.5 -11q40 -13 81 -13l-17 -61h-495l12 61l37 3q34 3 62 7.5t49 16t36 33
t23 57.5l246 1057q6 30 6 49q0 20 -19.5 33t-46 21.5t-53.5 13t-41 6.5l12 61h502l-14 -61q-99 -9 -144 -31t-61 -92l-104 -459h739l106 459q4 17 5.5 29.5t1.5 19.5z" />
    <glyph glyph-name="hcircumflex" unicode="&#x125;" 
d="M1018 1538l-49 -31l-236 211l-319 -211l-47 31l290 285q19 18 41 31.5t60 13.5q28 0 47 -8.5t33 -32.5zM489 1407l-137 -567h4q36 33 81 63t95.5 53t103 36.5t101.5 13.5q43 0 80 -14t64 -39.5t42 -61.5t15 -80q0 -62 -25 -158q-51 -197 -78 -305t-32 -129q-8 -43 -8 -69
q0 -68 86 -68q84 0 123 16l-11 -53q-19 -12 -46.5 -23t-57.5 -19.5t-59 -13.5t-52 -5q-110 0 -110 110q0 47 18 117l105 399q28 111 28 174q0 31 -12.5 55t-33.5 40.5t-47.5 25t-55.5 8.5q-45 0 -92 -15t-91.5 -40t-83.5 -56t-69 -63l-170 -739h-113l266 1163q15 60 15 103
q0 41 -31 54q-33 14 -127 23l12 56l291 20z" />
    <glyph glyph-name="Hbar" unicode="&#x126;" horiz-adv-x="1610" 
d="M1430 1016l-183 -799q-5 -23 -7.5 -40t-2.5 -27q0 -18 5 -30t14 -20.5t22 -14.5t28 -11q39 -13 80 -13l-16 -61h-496l13 61l37 3q34 3 62 7.5t49 16t36 33t23 57.5l120 522h-739l-110 -483q-11 -39 -11 -67q0 -18 5 -30t14 -20.5t21.5 -14.5t28.5 -11q40 -13 81 -13
l-17 -61h-495l12 61l37 3q34 3 62 7.5t49 16t36 33t23 57.5l195 838h-181l19 78h180l33 141q6 30 6 49q0 20 -19.5 33t-46 21.5t-53.5 13t-41 6.5l12 61h502l-14 -61q-99 -9 -144 -31t-61 -92l-33 -141h742l32 141q4 17 5.5 29.5t1.5 19.5q0 19 -19.5 32.5t-46 22t-53.5 13
t-41 6.5l12 61h502l-14 -61q-95 -9 -142 -30q-45 -19 -63 -93l-33 -141h182l-18 -78h-182zM1288 1016h-741l-53 -240h739z" />
    <glyph glyph-name="hbar" unicode="&#x127;" 
d="M520 1536l-67 -279h350l-21 -75h-348l-82 -342h4q36 33 81 63t95.5 53t103 36.5t101.5 13.5q43 0 80 -14t64 -39.5t42 -61.5t15 -80q0 -62 -25 -158q-51 -197 -78 -305t-32 -129q-8 -43 -8 -69q0 -68 86 -68q84 0 123 16l-11 -53q-19 -12 -46.5 -23t-57.5 -19.5
t-59 -13.5t-52 -5q-110 0 -110 110q0 47 18 117l105 399q28 111 28 174q0 31 -12.5 55t-33.5 40.5t-47.5 25t-55.5 8.5q-45 0 -92 -15t-91.5 -40t-83.5 -56t-69 -63l-170 -739h-113l273 1182h-218l19 75h215q22 87 22 138q0 39 -28 52q-30 14 -129 26l12 55l291 20z" />
    <glyph glyph-name="Itilde" unicode="&#x128;" horiz-adv-x="729" 
d="M913 1731q-39 -79 -106 -129q-66 -51 -132 -48q-67 5 -130 47q-67 43 -101 45q-30 2 -52 -10q-22 -10 -81 -89l-43 22q107 185 233 178q62 -3 129 -47q66 -43 95 -45q77 -3 114 55q5 10 12.5 20.5t16.5 23.5zM463 1276q0 24 -23.5 39t-55 24.5t-63.5 13.5t-49 5l13 61
h565l-14 -61q-105 -7 -164 -29q-57 -20 -74 -92l-233 -1016q-11 -39 -11 -69q0 -45 51 -65.5t134 -25.5l-13 -61h-565l12 61q129 9 152 17q69 26 86 98l244 1051q8 30 8 49z" />
    <glyph glyph-name="itilde" unicode="&#x129;" horiz-adv-x="537" 
d="M755 1338q-39 -79 -106 -129q-66 -51 -132 -48q-67 5 -130 47q-67 43 -101 45q-30 2 -52 -10q-22 -10 -81 -89l-43 22q107 185 233 178q62 -3 129 -47q66 -43 95 -45q77 -3 114 55q5 10 12.5 20.5t16.5 23.5zM262 150q0 -68 86 -68q84 0 123 16l-10 -53
q-19 -12 -46.5 -23t-57.5 -19.5t-59 -13.5t-52 -5q-111 0 -111 110q0 42 19 117l110 465q29 118 29 164q0 67 -82 67q-59 0 -119 -16l10 53q20 12 47 23t56 19.5t58 14t52 5.5q105 0 105 -111q0 -42 -19 -117l-110 -465q-29 -113 -29 -163z" />
    <glyph glyph-name="Imacron" unicode="&#x12a;" horiz-adv-x="729" 
d="M297 1661l21 108h643l-21 -108h-643zM463 1276q0 24 -23.5 39t-55 24.5t-63.5 13.5t-49 5l13 61h565l-14 -61q-105 -7 -164 -29q-57 -20 -74 -92l-233 -1016q-11 -39 -11 -69q0 -45 51 -65.5t134 -25.5l-13 -61h-565l12 61q129 9 152 17q69 26 86 98l244 1051q8 30 8 49z
" />
    <glyph glyph-name="imacron" unicode="&#x12b;" horiz-adv-x="537" 
d="M65 1305l21 108h643l-21 -108h-643zM262 150q0 -68 86 -68q84 0 123 16l-10 -53q-19 -12 -46.5 -23t-57.5 -19.5t-59 -13.5t-52 -5q-111 0 -111 110q0 42 19 117l110 465q29 118 29 164q0 67 -82 67q-59 0 -119 -16l10 53q20 12 47 23t56 19.5t58 14t52 5.5
q105 0 105 -111q0 -42 -19 -117l-110 -465q-29 -113 -29 -163z" />
    <glyph glyph-name="Ibreve" unicode="&#x12c;" horiz-adv-x="729" 
d="M944 1853q-57 -160 -145 -241.5t-220 -81.5q-256 0 -256 328l56 14q15 -115 68 -163t149 -48q59 0 102.5 15.5t77 43.5t60.5 67t53 85zM463 1276q0 24 -23.5 39t-55 24.5t-63.5 13.5t-49 5l13 61h565l-14 -61q-105 -7 -164 -29q-57 -20 -74 -92l-233 -1016
q-11 -39 -11 -69q0 -45 51 -65.5t134 -25.5l-13 -61h-565l12 61q129 9 152 17q69 26 86 98l244 1051q8 30 8 49z" />
    <glyph glyph-name="ibreve" unicode="&#x12d;" horiz-adv-x="537" 
d="M721 1470q-57 -172 -143.5 -260t-218.5 -88q-254 0 -254 357l49 8q15 -120 69.5 -172.5t151.5 -52.5q59 0 103.5 16.5t78.5 46.5t61 71.5t52 90.5zM262 150q0 -68 86 -68q84 0 123 16l-10 -53q-19 -12 -46.5 -23t-57.5 -19.5t-59 -13.5t-52 -5q-111 0 -111 110
q0 42 19 117l110 465q29 118 29 164q0 67 -82 67q-59 0 -119 -16l10 53q20 12 47 23t56 19.5t58 14t52 5.5q105 0 105 -111q0 -42 -19 -117l-110 -465q-29 -113 -29 -163z" />
    <glyph glyph-name="Iogonek" unicode="&#x12e;" horiz-adv-x="729" 
d="M463 1276q0 24 -23.5 39t-55 24.5t-63.5 13.5t-49 5l13 61h565l-14 -61q-105 -7 -164 -29q-57 -20 -74 -92l-233 -1016q-11 -39 -11 -69q0 -45 51 -65.5t134 -25.5l-13 -61h-179q-76 -59 -116.5 -124t-40.5 -128q0 -64 48.5 -92.5t156.5 -30.5l-12 -69h-90
q-114 0 -176 41.5t-62 113.5t58.5 146t168.5 143h-321l12 61q129 9 152 17q69 26 86 98l244 1051q8 30 8 49z" />
    <glyph glyph-name="iogonek" unicode="&#x12f;" horiz-adv-x="537" 
d="M435 1177q-23 0 -43.5 8.5t-36 23t-24.5 34.5t-9 44t9 44.5t24.5 35.5t36 23.5t43.5 8.5t43.5 -9t35.5 -24t24 -35.5t9 -43.5t-9 -43t-24 -35t-35.5 -23.5t-43.5 -8.5zM262 150q0 -68 86 -68q84 0 123 16l-10 -53q-4 -2 -7.5 -4.5t-8.5 -4.5q-100 -64 -154 -140t-54 -148
q0 -64 48.5 -92.5t156.5 -30.5l-12 -69h-90q-114 0 -176 41.5t-62 113.5q0 69 55 142t160 140q-40 -9 -71 -9q-111 0 -111 110q0 42 19 117l110 465q29 118 29 164q0 67 -82 67q-59 0 -119 -16l10 53q20 12 47 23t56 19.5t58 14t52 5.5q105 0 105 -111q0 -42 -19 -117
l-110 -465q-29 -113 -29 -163z" />
    <glyph glyph-name="Idotaccent" unicode="&#x130;" horiz-adv-x="729" 
d="M598 1628q-76 0 -76 88q0 54 27.5 85.5t66.5 31.5q78 0 78 -88q0 -25 -7.5 -46.5t-20.5 -37.5t-30.5 -24.5t-37.5 -8.5zM463 1276q0 24 -23.5 39t-55 24.5t-63.5 13.5t-49 5l13 61h565l-14 -61q-105 -7 -164 -29q-57 -20 -74 -92l-233 -1016q-11 -39 -11 -69
q0 -45 51 -65.5t134 -25.5l-13 -61h-565l12 61q129 9 152 17q69 26 86 98l244 1051q8 30 8 49z" />
    <glyph glyph-name="dotlessi" unicode="&#x131;" horiz-adv-x="537" 
d="M262 150q0 -68 86 -68q84 0 123 16l-10 -53q-19 -12 -46.5 -23t-57.5 -19.5t-59 -13.5t-52 -5q-111 0 -111 110q0 42 19 117l110 465q29 118 29 164q0 67 -82 67q-59 0 -119 -16l10 53q20 12 47 23t56 19.5t58 14t52 5.5q105 0 105 -111q0 -42 -19 -117l-110 -465
q-29 -113 -29 -163z" />
    <glyph glyph-name="IJ" unicode="&#x132;" horiz-adv-x="1751" 
d="M463 1276q0 24 -23.5 39t-55 24.5t-63.5 13.5t-49 5l13 61h565l-14 -61q-105 -7 -164 -29q-57 -20 -74 -92l-233 -1016q-11 -39 -11 -69q0 -45 51 -65.5t134 -25.5l-13 -61h-565l12 61q129 9 152 17q69 26 86 98l244 1051q8 30 8 49zM1517 1276q0 23 -23 38.5t-54.5 24.5
t-63.5 13.5t-49 5.5l12 61h551l-14 -61q-18 -1 -46.5 -5t-57 -11t-53.5 -18t-37 -26q-19 -25 -27 -63l-193 -827q-21 -90 -62 -170.5t-101.5 -140.5t-140.5 -95t-179 -35q-59 0 -113.5 14.5t-96 45t-66.5 77.5t-25 113q0 38 8.5 80.5t28 78.5t51.5 59.5t78 23.5q34 0 56 -23
t22 -57q0 -37 -16.5 -71t-39.5 -65.5t-48.5 -61.5t-43.5 -60q12 -21 33.5 -38.5t49.5 -29.5t62 -19t70 -7q62 0 109 20.5t83 55.5t61.5 81t44 96.5t32 103.5t24.5 101l168 750q6 18 6 41z" />
    <glyph glyph-name="ij" unicode="&#x133;" horiz-adv-x="1057" 
d="M435 1177q-23 0 -43.5 8.5t-36 23t-24.5 34.5t-9 44t9 44.5t24.5 35.5t36 23.5t43.5 8.5t43.5 -9t35.5 -24t24 -35.5t9 -43.5t-9 -43t-24 -35t-35.5 -23.5t-43.5 -8.5zM972 1177q-23 0 -43.5 8.5t-36 23t-24.5 34.5t-9 44t9 44.5t24.5 35.5t36 23.5t43.5 8.5t43.5 -9
t35.5 -24t24 -35.5t9 -43.5t-9 -43t-24 -35t-35.5 -23.5t-43.5 -8.5zM262 150q0 -68 86 -68q84 0 123 16l-10 -53q-19 -12 -46.5 -23t-57.5 -19.5t-59 -13.5t-52 -5q-111 0 -111 110q0 42 19 117l110 465q29 118 29 164q0 67 -82 67q-59 0 -119 -16l10 53q20 12 47 23
t56 19.5t58 14t52 5.5q105 0 105 -111q0 -42 -19 -117l-110 -465q-29 -113 -29 -163zM836 838q0 32 -17.5 50.5t-68.5 18.5q-11 0 -27 -1.5t-33.5 -4.5t-33 -6.5t-25.5 -7.5l10 55q29 15 58.5 27t57 20.5t52 12.5t43.5 4q111 0 111 -111q0 -26 -4 -57t-12 -68
q-48 -238 -150 -711q-14 -63 -38 -126.5t-58.5 -121t-79.5 -106.5t-101 -85q-98 -64 -198 -64q-51 0 -81 26t-30 68q0 32 18.5 54t53.5 22q20 0 36.5 -8.5t30.5 -21t26 -28t22 -30.5q102 0 167 96t107 289l70 311q94 412 94 504z" />
    <glyph glyph-name="Jcircumflex" unicode="&#x134;" horiz-adv-x="1022" 
d="M1214 1538l-49 -31l-236 211l-319 -211l-47 31l291 285q18 18 39.5 31.5t60.5 13.5q43 0 57 -14q16 -14 23 -27zM788 1276q0 23 -23 38.5t-54.5 24.5t-63.5 13.5t-49 5.5l12 61h551l-14 -61q-18 -1 -46.5 -5t-57 -11t-53.5 -18t-37 -26q-19 -25 -27 -63l-193 -827
q-21 -90 -62 -170.5t-101.5 -140.5t-140.5 -95t-179 -35q-59 0 -113.5 14.5t-96 45t-66.5 77.5t-25 113q0 37 9 79.5t28.5 78.5t51.5 60t77 24q34 0 56 -23t22 -57q0 -37 -16.5 -71t-39.5 -65.5t-48.5 -61.5t-43.5 -60q12 -21 33.5 -38.5t49.5 -29.5t62 -19t70 -7
q62 0 109 20.5t83 55.5t61.5 81t44 96.5t32 103.5t24.5 101l168 750q6 18 6 41z" />
    <glyph glyph-name="jcircumflex" unicode="&#x135;" horiz-adv-x="520" 
d="M596 1126l-197 265l-315 -265l-41 43l303 334q32 35 72 35q44 0 63 -43l162 -338zM299 838q0 32 -17.5 50.5t-68.5 18.5q-11 0 -27 -1.5t-33.5 -4.5t-33 -6.5t-25.5 -7.5l10 55q29 15 58.5 27t57 20.5t52 12.5t43.5 4q111 0 111 -111q0 -26 -4 -57t-12 -68
q-48 -238 -150 -711q-14 -63 -38 -126.5t-58.5 -121t-79.5 -106.5t-101 -85q-98 -64 -198 -64q-51 0 -81 26t-30 68q0 32 18.5 54t53.5 22q20 0 36.5 -8t30.5 -21t25.5 -28.5t22.5 -30.5q102 0 167 96t107 289l70 311q94 412 94 504z" />
    <glyph glyph-name="uni0136" unicode="&#x136;" horiz-adv-x="1335" 
d="M487 717q140 88 278.5 199t257.5 226q120 116 120 167q0 15 -17 24.5t-39.5 15t-44.5 7.5t-32 2l12 61h491l-16 -57q-26 0 -52.5 -4t-51.5 -11.5t-46 -18t-36 -23.5q-80 -74 -156 -141t-150 -130q-146 -122 -364 -286q82 -114 148 -209.5t117 -174.5l67 -104
q66 -103 117 -147q52 -43 167 -52l-20 -61h-274q-40 76 -91 162t-114 184q-63 99 -121 182.5t-113 155.5h-53l-106 -467q-11 -39 -11 -67q0 -18 5 -30t14 -20.5t21.5 -14.5t28.5 -11q40 -13 81 -13l-17 -61h-495l12 61l37 3q34 3 62 7.5t49 16t36 33t23 57.5l246 1057
q6 30 6 49q0 20 -19.5 33t-46 21.5t-53.5 13t-41 6.5l12 61h502l-14 -61q-99 -9 -144 -31t-61 -92l-119 -518h8zM473 -389q42 4 72.5 13t52 24.5t35.5 39t23 56.5h-31q-51 0 -80 24t-29 64q0 48 31.5 75t79.5 27q25 0 46.5 -10t37 -27.5t24.5 -41.5t9 -52q0 -115 -72 -180
t-209 -67z" />
    <glyph glyph-name="uni0137" unicode="&#x137;" horiz-adv-x="1014" 
d="M274 492q66 63 182.5 166t286.5 247q57 48 95 68t75 20q42 0 64 -26.5t22 -61.5q0 -38 -23 -63t-65 -25q-39 0 -104 17q-68 -42 -147 -100t-171 -136q29 -69 60 -137t65 -137q68 -135 98 -174q57 -72 130 -72q14 0 31 1.5t35 4t35 5.5t30 7l-10 -53q-109 -53 -205 -53
q-56 0 -97 37.5t-81 119.5q-104 203 -170 373l-160 -131l-86 -389h-113l297 1292q14 58 14 103q0 39 -28 52q-30 14 -129 26l12 55l291 20l12 -12l-250 -1044h4zM274 -389q42 4 72.5 13t52 24.5t35.5 39t23 56.5h-31q-51 0 -80 24t-29 64q0 48 31.5 75t79.5 27
q25 0 46.5 -10t37 -27.5t24.5 -41.5t9 -52q0 -115 -72 -180t-209 -67z" />
    <glyph glyph-name="kgreenlandic" unicode="&#x138;" horiz-adv-x="1047" 
d="M307 492h2q146 140 467 413q57 48 95 68t75 20q40 0 63 -26.5t23 -61.5q0 -38 -24 -63t-64 -25q-39 0 -104 17q-66 -39 -145 -98t-173 -138q36 -85 74.5 -167t79.5 -164q15 -31 33 -64t41.5 -61t54 -46t69.5 -18q33 0 66.5 5t65.5 13l-11 -53q-108 -53 -204 -53
q-49 0 -87 29t-78 101q-20 37 -45 88t-56 118q-30 67 -51 115t-32 79l-159 -131l-86 -389h-113l154 664q13 61 19.5 101t6.5 60q0 35 -15.5 53.5t-60.5 18.5q-34 0 -116 -20l14 53q126 63 207 63q98 0 98 -100q0 -52 -24 -148z" />
    <glyph glyph-name="Lacute" unicode="&#x139;" horiz-adv-x="1194" 
d="M573 1518l-29 38l205 199q88 88 109 100q20 13 45 13q26 0 44.5 -20.5t18.5 -49.5q0 -22 -7 -38.5t-19 -29.5t-28 -23.5t-34 -20.5zM825 1419l-12 -61q-72 -6 -137 -27q-60 -19 -80 -102l-223 -977q-17 -76 -17 -107q0 -48 37 -63q39 -14 164 -14q28 0 74.5 2t96 7.5
t93.5 16.5t66 29q23 18 53.5 55t61 79t58.5 83t44 66h59l-123 -406h-1048l12 61l37 3q34 3 62 7.5t49 16t36 33t23 57.5l246 1057q6 30 6 49q0 20 -19.5 33t-46 21.5t-53.5 13t-41 6.5l12 61h510z" />
    <glyph glyph-name="lacute" unicode="&#x13a;" horiz-adv-x="512" 
d="M365 1518l-29 38l204 199q75 76 100 94q25 19 54 19q26 0 45 -20.5t19 -49.5q0 -22 -7 -38.5t-19 -29.5t-28 -23.5t-34 -20.5zM215 150q0 -68 86 -68q84 0 123 16l-10 -53q-19 -12 -46.5 -23t-57.5 -19.5t-59 -13.5t-52 -5q-111 0 -111 110q0 45 18 117l220 950
q14 58 14 103q0 41 -31 54q-33 14 -127 23l13 56l290 20l11 -12l-252 -1092q-29 -122 -29 -163z" />
    <glyph glyph-name="uni013B" unicode="&#x13b;" horiz-adv-x="1194" 
d="M825 1419l-12 -61q-72 -6 -137 -27q-60 -19 -80 -102l-223 -977q-17 -76 -17 -107q0 -48 37 -63q39 -14 164 -14q28 0 74.5 2t96 7.5t93.5 16.5t66 29q23 18 53.5 55t61 79t58.5 83t44 66h59l-123 -406h-1048l12 61l37 3q34 3 62 7.5t49 16t36 33t23 57.5l246 1057
q6 30 6 49q0 20 -19.5 33t-46 21.5t-53.5 13t-41 6.5l12 61h510zM422 -389q42 4 72.5 13t52 24.5t35.5 39t23 56.5h-31q-51 0 -80 24t-29 64q0 48 31.5 75t79.5 27q25 0 46.5 -10t37 -27.5t24.5 -41.5t9 -52q0 -115 -72 -180t-209 -67z" />
    <glyph glyph-name="uni013C" unicode="&#x13c;" horiz-adv-x="512" 
d="M215 150q0 -68 86 -68q84 0 123 16l-10 -53q-19 -12 -46.5 -23t-57.5 -19.5t-59 -13.5t-52 -5q-111 0 -111 110q0 45 18 117l250 1081q15 60 15 103q0 39 -28 52q-30 14 -130 26l12 55l291 20l10 -12l-282 -1223q-29 -125 -29 -163zM53 -389q42 4 72.5 13t52 24.5
t35.5 39t23 56.5h-31q-51 0 -80 24t-29 64q0 48 31.5 75t79.5 27q25 0 46.5 -10t37 -27.5t24.5 -41.5t9 -52q0 -115 -72 -180t-209 -67z" />
    <glyph glyph-name="Lcaron" unicode="&#x13d;" horiz-adv-x="1194" 
d="M925 1124l68 38q114 65 141 177h-26q-42 0 -69.5 25t-27.5 63q0 48 28 75.5t71 27.5q52 0 81 -31t29 -88q0 -68 -21 -119t-57 -91t-84.5 -70.5t-103.5 -57.5zM825 1419l-12 -61q-72 -6 -137 -27q-60 -19 -80 -102l-223 -977q-17 -76 -17 -107q0 -48 37 -63
q39 -14 164 -14q28 0 74.5 2t96 7.5t93.5 16.5t66 29q23 18 53.5 55t61 79t58.5 83t44 66h59l-123 -406h-1048l12 61l37 3q34 3 62 7.5t49 16t36 33t23 57.5l246 1057q6 30 6 49q0 20 -19.5 33t-46 21.5t-53.5 13t-41 6.5l12 61h510z" />
    <glyph glyph-name="lcaron" unicode="&#x13e;" horiz-adv-x="655" 
d="M215 150q0 -68 86 -68q84 0 123 16l-10 -53q-19 -12 -46.5 -23t-57.5 -19.5t-59 -13.5t-52 -5q-111 0 -111 110q0 45 18 117l250 1081q15 60 15 103q0 39 -28 52q-30 14 -130 26l12 55l291 20l10 -12l-282 -1223q-29 -125 -29 -163zM536 1124l68 38q114 65 141 177h-26
q-42 0 -69.5 25t-27.5 63q0 48 28 75.5t71 27.5q52 0 81 -31t29 -88q0 -68 -21 -119t-57 -91t-84.5 -70.5t-103.5 -57.5z" />
    <glyph glyph-name="Ldot" unicode="&#x13f;" horiz-adv-x="1194" 
d="M825 1419l-12 -61q-72 -6 -137 -27q-60 -19 -80 -102l-223 -977q-17 -76 -17 -107q0 -48 37 -63q39 -14 164 -14q28 0 74.5 2t96 7.5t93.5 16.5t66 29q23 18 53.5 55t61 79t58.5 83t44 66h59l-123 -406h-1048l12 61l37 3q34 3 62 7.5t49 16t36 33t23 57.5l246 1057
q6 30 6 49q0 20 -19.5 33t-46 21.5t-53.5 13t-41 6.5l12 61h510zM1091 721q0 -45 -30 -74.5t-76 -29.5q-45 0 -74 29.5t-29 74.5q0 48 29 78.5t74 30.5q46 0 76 -30.5t30 -78.5z" />
    <glyph glyph-name="ldot" unicode="&#x140;" horiz-adv-x="664" 
d="M215 150q0 -68 86 -68q84 0 123 16l-10 -53q-19 -12 -46.5 -23t-57.5 -19.5t-59 -13.5t-52 -5q-111 0 -111 110q0 45 18 117l250 1081q15 60 15 103q0 39 -28 52q-30 14 -130 26l12 55l291 20l10 -12l-282 -1223q-29 -125 -29 -163zM708 670q0 -45 -30 -74.5t-76 -29.5
q-45 0 -74 29.5t-29 74.5q0 48 29 78.5t74 30.5q46 0 76 -30.5t30 -78.5z" />
    <glyph glyph-name="Lslash" unicode="&#x141;" horiz-adv-x="1194" 
d="M825 1419l-12 -61q-72 -6 -137 -27q-60 -19 -80 -102l-102 -445l297 111l20 -84l-340 -125l-98 -434q-17 -76 -17 -107q0 -48 37 -63q39 -14 164 -14q28 0 74.5 2t96 7.5t93.5 16.5t66 29q23 18 53.5 55t61 79t58.5 83t44 66h59l-123 -406h-1048l12 61l37 3q34 3 62 7.5
t49 16t36 33t23 57.5l104 451l-176 -64l-22 80l221 82l119 508q6 30 6 49q0 20 -19.5 33t-46 21.5t-53.5 13t-41 6.5l12 61h510z" />
    <glyph glyph-name="lslash" unicode="&#x142;" horiz-adv-x="512" 
d="M344 748l141 63l33 -72l-196 -86l-78 -340q-29 -122 -29 -163q0 -68 86 -68q84 0 123 16l-10 -53q-19 -12 -46.5 -23t-57.5 -19.5t-59 -13.5t-52 -5q-111 0 -111 110q0 45 18 117l91 389l-109 -45l-35 72l166 67l137 598q15 60 15 103q0 39 -28 52q-30 14 -130 26l12 55
l291 20l10 -12z" />
    <glyph glyph-name="Nacute" unicode="&#x143;" horiz-adv-x="1546" 
d="M899 1518l-29 38l205 199q88 88 109 100q20 13 45 13q26 0 44.5 -20.5t18.5 -49.5q0 -22 -7 -38.5t-19 -29.5t-28 -23.5t-34 -20.5zM1362 1206q0 64 -25 90q-26 40 -186 62l12 61h576l-17 -61l-33 -5q-34 -4 -63 -10t-54 -18t-45.5 -32t-37.5 -52q-28 -54 -64 -207
l-243 -1052h-47l-611 1230l-190 -813q-5 -18 -10 -42.5t-8.5 -50t-6 -50t-2.5 -43.5q0 -64 25 -90q26 -40 186 -62l-12 -61h-576l17 61l33 5q32 4 61.5 10.5t55 18.5t46.5 31.5t36 50.5q14 27 30 78.5t35 129.5l178 766q8 34 8 63q0 45 -45 90q-45 47 -174 54l16 61h348
l582 -1165l178 766q5 19 10 43t8.5 49.5t6 50t2.5 43.5z" />
    <glyph glyph-name="nacute" unicode="&#x144;" horiz-adv-x="1147" 
d="M923 1468q0 -40 -25 -74q-24 -34 -135 -135l-159 -145l-37 31l117 188q95 155 120 177q26 24 58 24q29 0 45 -20t16 -46zM846 -16q-111 0 -111 110q0 53 19 117l104 399q29 118 29 174q0 31 -12.5 55t-33.5 40.5t-48 25t-56 8.5q-45 0 -92 -15.5t-91 -40t-83.5 -55.5
t-69.5 -63l-170 -739h-112l158 695q18 78 18 126q0 45 -17.5 60.5t-60.5 15.5q-57 0 -111 -16l11 53q124 59 213 59q51 0 70.5 -28.5t19.5 -83.5l-2 -41h6q35 33 81 63t96 53t102.5 36.5t101.5 13.5q44 0 81 -13.5t63.5 -39t41.5 -61.5t15 -81q0 -27 -6 -66.5t-19 -91.5
q-51 -196 -78 -303.5t-32 -128.5q-9 -42 -9 -71q0 -68 86 -68q84 0 123 16l-10 -53q-19 -12 -46.5 -23t-57.5 -19.5t-59 -13.5t-52 -5z" />
    <glyph glyph-name="uni0145" unicode="&#x145;" horiz-adv-x="1546" 
d="M1362 1206q0 64 -25 90q-26 40 -186 62l12 61h576l-17 -61l-33 -5q-34 -4 -63 -10t-54 -18t-45.5 -32t-37.5 -52q-28 -54 -64 -207l-243 -1052h-47l-611 1230l-190 -813q-5 -18 -10 -42.5t-8.5 -50t-6 -50t-2.5 -43.5q0 -64 25 -90q26 -40 186 -62l-12 -61h-576l17 61
l33 5q32 4 61.5 10.5t55 18.5t46.5 31.5t36 50.5q14 27 30 78.5t35 129.5l178 766q8 34 8 63q0 45 -45 90q-45 47 -174 54l16 61h348l582 -1165l178 766q5 19 10 43t8.5 49.5t6 50t2.5 43.5zM506 -389q42 4 72.5 13t52 24.5t35.5 39t23 56.5h-31q-51 0 -80 24t-29 64
q0 48 31.5 75t79.5 27q25 0 46.5 -10t37 -27.5t24.5 -41.5t9 -52q0 -115 -72 -180t-209 -67z" />
    <glyph glyph-name="uni0146" unicode="&#x146;" horiz-adv-x="1147" 
d="M846 -16q-111 0 -111 110q0 53 19 117l104 399q29 118 29 174q0 31 -12.5 55t-33.5 40.5t-48 25t-56 8.5q-45 0 -92 -15.5t-91 -40t-83.5 -55.5t-69.5 -63l-170 -739h-112l158 695q18 78 18 126q0 45 -17.5 60.5t-60.5 15.5q-57 0 -111 -16l11 53q124 59 213 59
q51 0 70.5 -28.5t19.5 -83.5l-2 -41h6q35 33 81 63t96 53t102.5 36.5t101.5 13.5q44 0 81 -13.5t63.5 -39t41.5 -61.5t15 -81q0 -27 -6 -66.5t-19 -91.5q-51 -196 -78 -303.5t-32 -128.5q-9 -42 -9 -71q0 -68 86 -68q84 0 123 16l-10 -53q-19 -12 -46.5 -23t-57.5 -19.5
t-59 -13.5t-52 -5zM350 -389q42 4 72.5 13t52 24.5t35.5 39t23 56.5h-31q-51 0 -80 24t-29 64q0 48 31.5 75t79.5 27q25 0 46.5 -10t37 -27.5t24.5 -41.5t9 -52q0 -115 -72 -180t-209 -67z" />
    <glyph glyph-name="Ncaron" unicode="&#x147;" horiz-adv-x="1546" 
d="M1335 1837l-289 -285q-12 -11 -21.5 -19.5t-17.5 -14.5q-14 -11 -61 -11q-42 0 -56 13q-7 7 -13 14t-11 14l-180 289l49 33l233 -213l322 213zM1362 1206q0 64 -25 90q-26 40 -186 62l12 61h576l-17 -61l-33 -5q-34 -4 -63 -10t-54 -18t-45.5 -32t-37.5 -52
q-28 -54 -64 -207l-243 -1052h-47l-611 1230l-190 -813q-5 -18 -10 -42.5t-8.5 -50t-6 -50t-2.5 -43.5q0 -64 25 -90q26 -40 186 -62l-12 -61h-576l17 61l33 5q32 4 61.5 10.5t55 18.5t46.5 31.5t36 50.5q14 27 30 78.5t35 129.5l178 766q8 34 8 63q0 45 -45 90
q-45 47 -174 54l16 61h348l582 -1165l178 766q5 19 10 43t8.5 49.5t6 50t2.5 43.5z" />
    <glyph glyph-name="ncaron" unicode="&#x148;" horiz-adv-x="1147" 
d="M458 1538l197 -264l315 264l41 -43l-303 -334q-17 -18 -32.5 -26.5t-38.5 -8.5q-42 0 -64 43l-162 338zM846 -16q-111 0 -111 110q0 53 19 117l104 399q29 118 29 174q0 31 -12.5 55t-33.5 40.5t-48 25t-56 8.5q-45 0 -92 -15.5t-91 -40t-83.5 -55.5t-69.5 -63l-170 -739
h-112l158 695q18 78 18 126q0 45 -17.5 60.5t-60.5 15.5q-57 0 -111 -16l11 53q124 59 213 59q51 0 70.5 -28.5t19.5 -83.5l-2 -41h6q35 33 81 63t96 53t102.5 36.5t101.5 13.5q44 0 81 -13.5t63.5 -39t41.5 -61.5t15 -81q0 -27 -6 -66.5t-19 -91.5q-51 -196 -78 -303.5
t-32 -128.5q-9 -42 -9 -71q0 -68 86 -68q84 0 123 16l-10 -53q-19 -12 -46.5 -23t-57.5 -19.5t-59 -13.5t-52 -5z" />
    <glyph glyph-name="napostrophe" unicode="&#x149;" horiz-adv-x="1147" 
d="M20 1124l68 38q114 65 141 177h-26q-42 0 -69.5 25t-27.5 63q0 48 28 75.5t71 27.5q52 0 81 -31t29 -88q0 -68 -21 -119t-57 -91t-84.5 -70.5t-103.5 -57.5zM846 -16q-111 0 -111 110q0 53 19 117l104 399q29 118 29 174q0 31 -12.5 55t-33.5 40.5t-48 25t-56 8.5
q-45 0 -92 -15.5t-91 -40t-83.5 -55.5t-69.5 -63l-170 -739h-112l158 695q18 78 18 126q0 45 -17.5 60.5t-60.5 15.5q-57 0 -111 -16l11 53q124 59 213 59q51 0 70.5 -28.5t19.5 -83.5l-2 -41h6q35 33 81 63t96 53t102.5 36.5t101.5 13.5q44 0 81 -13.5t63.5 -39t41.5 -61.5
t15 -81q0 -27 -6 -66.5t-19 -91.5q-51 -196 -78 -303.5t-32 -128.5q-9 -42 -9 -71q0 -68 86 -68q84 0 123 16l-10 -53q-19 -12 -46.5 -23t-57.5 -19.5t-59 -13.5t-52 -5z" />
    <glyph glyph-name="Eng" unicode="&#x14a;" horiz-adv-x="1546" 
d="M1362 1206q0 64 -25 90q-26 40 -186 62l12 61h576l-17 -61l-36 -5q-34 -4 -63 -10.5t-53.5 -19t-44.5 -32.5t-37 -52q-27 -56 -63 -205l-233 -1007q-55 -232 -171.5 -351.5t-289.5 -119.5q-25 0 -53.5 7t-52.5 21t-40 36t-16 52q0 37 22 63.5t64 26.5q30 0 51.5 -12
t39.5 -29t34 -37t35 -36q91 5 166.5 95t120.5 259l-578 1210l-190 -813q-5 -18 -10 -42.5t-8.5 -50t-6 -50t-2.5 -43.5q0 -64 25 -90q26 -40 186 -62l-12 -61h-576l17 61l37 5q33 4 62 11t54 19.5t46 33.5t36 52q14 28 29.5 78t32.5 125l176 758q8 34 8 63q0 34 -29 72
q-29 37 -78.5 56.5t-109.5 23.5l16 61h351l571 -1198l186 799q5 19 10 43t8.5 49.5t6 50t2.5 43.5z" />
    <glyph glyph-name="eng" unicode="&#x14b;" horiz-adv-x="1120" 
d="M807 1006q43 0 79.5 -14t63 -39t41.5 -60.5t15 -79.5q0 -133 -160 -772q-16 -70 -44 -133t-64.5 -117.5t-79.5 -98.5t-88.5 -74.5t-92.5 -47t-92 -14.5q-51 0 -86 23t-35 71q0 31 18 53.5t50 22.5q56 0 100 -62l19 -26q48 0 87 21.5t71.5 66.5t60 114t51.5 164
q48 188 85 347.5t64 295.5q17 82 17 135q0 29 -11 53t-31 41t-47 27t-59 10q-78 0 -165.5 -44.5t-172.5 -129.5l-170 -739h-112l158 695q18 77 18 110q0 26 -4 43.5t-13.5 28.5t-26.5 15.5t-44 4.5q-47 0 -101 -16l11 53q124 59 213 59q58 0 74 -34q16 -33 16 -84l-2 -35h6
q37 33 82.5 63t95.5 53t102.5 36.5t102.5 13.5z" />
    <glyph glyph-name="Omacron" unicode="&#x14c;" horiz-adv-x="1446" 
d="M600 1645l21 108h643l-21 -108h-643zM1425 870q0 -116 -28 -226.5t-80.5 -210t-128 -184.5t-171.5 -151q-193 -131 -388 -131q-127 0 -224 44.5t-163 121.5t-99.5 181.5t-33.5 224.5q0 115 27.5 228t80 215t128 189.5t172.5 151.5q188 125 388 125q237 0 378 -159
q142 -157 142 -419zM1266 911q0 93 -20 176t-65 146t-117 100t-175 37t-189.5 -38t-156 -103t-121.5 -150.5t-86.5 -180t-52 -192.5t-17.5 -188q0 -229 97 -350t280 -121q107 0 194.5 39t156.5 104.5t120 152.5t85 183t50.5 195t16.5 190z" />
    <glyph glyph-name="omacron" unicode="&#x14d;" 
d="M324 1305l21 108h643l-21 -108h-643zM971 627q0 -81 -17.5 -161.5t-51 -153.5t-82.5 -135.5t-112 -108t-139.5 -71.5t-165.5 -26q-83 0 -145.5 30.5t-104.5 82t-63.5 120.5t-21.5 146q0 82 17.5 162t51 153t82.5 135.5t111.5 108t138 71.5t162.5 26q83 0 146.5 -30
t106.5 -81.5t65 -120.5t22 -147zM844 623q0 155 -59.5 235t-174.5 80q-74 0 -133.5 -25.5t-105.5 -69t-79 -101t-54.5 -122t-32 -131.5t-10.5 -129q0 -161 60 -241t175 -80q90 -2 166.5 43t132 124.5t86.5 187t29 229.5z" />
    <glyph glyph-name="Obreve" unicode="&#x14e;" horiz-adv-x="1446" 
d="M1264 1853q-57 -160 -145 -241.5t-220 -81.5q-256 0 -256 328l56 14q15 -115 68 -163t149 -48q59 0 102.5 15.5t77 43.5t60.5 67t53 85zM1425 870q0 -116 -28 -226.5t-80.5 -210t-128 -184.5t-171.5 -151q-193 -131 -388 -131q-127 0 -224 44.5t-163 121.5t-99.5 181.5
t-33.5 224.5q0 115 27.5 228t80 215t128 189.5t172.5 151.5q188 125 388 125q237 0 378 -159q142 -157 142 -419zM1266 911q0 93 -20 176t-65 146t-117 100t-175 37t-189.5 -38t-156 -103t-121.5 -150.5t-86.5 -180t-52 -192.5t-17.5 -188q0 -229 97 -350t280 -121
q107 0 194.5 39t156.5 104.5t120 152.5t85 183t50.5 195t16.5 190z" />
    <glyph glyph-name="obreve" unicode="&#x14f;" 
d="M979 1470q-57 -172 -143.5 -260t-218.5 -88q-254 0 -254 357l49 8q15 -120 69.5 -172.5t151.5 -52.5q59 0 103.5 16.5t78.5 46.5t61 71.5t52 90.5zM971 627q0 -81 -17.5 -161.5t-51 -153.5t-82.5 -135.5t-112 -108t-139.5 -71.5t-165.5 -26q-83 0 -145.5 30.5t-104.5 82
t-63.5 120.5t-21.5 146q0 82 17.5 162t51 153t82.5 135.5t111.5 108t138 71.5t162.5 26q83 0 146.5 -30t106.5 -81.5t65 -120.5t22 -147zM844 623q0 155 -59.5 235t-174.5 80q-74 0 -133.5 -25.5t-105.5 -69t-79 -101t-54.5 -122t-32 -131.5t-10.5 -129q0 -161 60 -241
t175 -80q90 -2 166.5 43t132 124.5t86.5 187t29 229.5z" />
    <glyph glyph-name="Ohungarumlaut" unicode="&#x150;" horiz-adv-x="1446" 
d="M686 1518l-28 38q70 78 120 131.5t81 85.5q32 32 53.5 51.5t32.5 27.5q22 16 51 16q26 0 44.5 -20.5t18.5 -49.5q0 -22 -7 -38.5t-19 -29.5t-28 -23.5t-34 -20.5zM1022 1518l-29 38l129 137q13 15 34 38t44 46.5t45.5 44.5t37.5 31q21 15 48 15q26 0 45 -20.5t19 -49.5
q0 -22 -7 -38.5t-19 -29.5t-28 -23.5t-34 -20.5zM1425 870q0 -116 -28 -226.5t-80.5 -210t-128 -184.5t-171.5 -151q-193 -131 -388 -131q-127 0 -224 44.5t-163 121.5t-99.5 181.5t-33.5 224.5q0 115 27.5 228t80 215t128 189.5t172.5 151.5q188 125 388 125
q237 0 378 -159q142 -157 142 -419zM1266 911q0 93 -20 176t-65 146t-117 100t-175 37t-189.5 -38t-156 -103t-121.5 -150.5t-86.5 -180t-52 -192.5t-17.5 -188q0 -229 97 -350t280 -121q107 0 194.5 39t156.5 104.5t120 152.5t85 183t50.5 195t16.5 190z" />
    <glyph glyph-name="ohungarumlaut" unicode="&#x151;" 
d="M725 1468q0 -18 -5.5 -35.5t-17.5 -35.5t-31 -39t-46 -47l-199 -197l-39 27l103 190q20 37 37.5 67.5t33.5 53.5q32 48 49 63q19 18 47 19q29 0 48.5 -20t19.5 -46zM1065 1468q0 -18 -5.5 -35.5t-17.5 -35.5t-31 -39t-46 -47l-199 -197l-39 27l103 190q20 37 37.5 67.5
t33.5 53.5q32 48 49 63q19 18 47 19q29 0 48.5 -20t19.5 -46zM971 627q0 -81 -17.5 -161.5t-51 -153.5t-82.5 -135.5t-112 -108t-139.5 -71.5t-165.5 -26q-83 0 -145.5 30.5t-104.5 82t-63.5 120.5t-21.5 146q0 82 17.5 162t51 153t82.5 135.5t111.5 108t138 71.5t162.5 26
q83 0 146.5 -30t106.5 -81.5t65 -120.5t22 -147zM844 623q0 155 -59.5 235t-174.5 80q-74 0 -133.5 -25.5t-105.5 -69t-79 -101t-54.5 -122t-32 -131.5t-10.5 -129q0 -161 60 -241t175 -80q90 -2 166.5 43t132 124.5t86.5 187t29 229.5z" />
    <glyph glyph-name="OE" unicode="&#x152;" horiz-adv-x="1942" 
d="M686 0q-127 0 -233 34.5t-182.5 103t-119 169t-42.5 232.5q0 138 38.5 263.5t109.5 231t173 187t229 132.5q164 66 328 66h1010l-80 -332h-62q-1 31 -5 72t-16.5 79.5t-36 67.5t-62.5 37q-37 9 -226 9h-209l-133 -580h170q85 0 133 20t83.5 73.5t64.5 131.5h63l-122 -534
h-62l2 76q0 79 -10 98q-18 35 -59 48t-111 13h-170l-100 -436q-13 -55 -13 -96q0 -53 43 -72q45 -20 176 -20q284 0 357 57q82 64 192 275h68l-121 -406h-1065zM737 74q45 0 76.5 1t50.5 3l287 1253q-38 5 -77 7.5t-81 2.5q-114 0 -212.5 -31.5t-179.5 -88t-143.5 -134
t-105 -169t-64.5 -193.5t-22 -207q0 -217 121 -330.5t350 -113.5z" />
    <glyph glyph-name="oe" unicode="&#x153;" horiz-adv-x="1581" 
d="M1540 809q0 -181 -180 -273q-177 -91 -467 -130q0 -340 229 -340q170 0 318 204l49 -34q-34 -50 -79 -97.5t-98.5 -84t-113.5 -59t-123 -22.5q-112 0 -186 49.5t-107 149.5q-75 -97 -175 -149t-218 -52q-81 0 -141.5 31.5t-100.5 84t-59.5 121t-19.5 142.5q0 78 16 156.5
t47.5 151.5t77.5 136.5t106 110.5t133 74t158 27q117 0 193.5 -59.5t105.5 -162.5q72 109 176 165.5t230 56.5q111 0 170 -53t59 -144zM1305 940q-54 0 -102.5 -20.5t-90 -53.5t-75.5 -75.5t-58 -86.5q-31 -55 -50.5 -113.5t-29.5 -121.5q53 8 103 16.5t97.5 22t94 33.5
t91.5 49q73 46 106.5 102t33.5 125q0 57 -31 90t-89 33zM803 623q0 157 -56.5 236t-162.5 79q-71 0 -127.5 -26.5t-99.5 -71.5t-74 -103.5t-50.5 -122.5t-28.5 -130t-9 -124q0 -163 56.5 -242t164.5 -79q65 0 118.5 24t95.5 64t73.5 92t51.5 109q48 137 48 295z" />
    <glyph glyph-name="Racute" unicode="&#x154;" horiz-adv-x="1339" 
d="M719 1518l-29 38l205 199q88 88 109 100q20 13 45 13q26 0 44.5 -20.5t18.5 -49.5q0 -22 -7 -38.5t-19 -29.5t-28 -23.5t-34 -20.5zM348 145q0 -52 31 -65q5 -4 24.5 -7.5t42.5 -6t44 -4t30 -1.5l-16 -61h-516l16 61q110 9 131 21q62 26 80 102l242 1059q4 7 4 35
q0 20 -6 32t-16.5 19t-25.5 11t-32 7q-55 11 -73 11h-5l12 61h568q73 0 135.5 -18t108.5 -52.5t72 -84t24 -111.5q0 -101 -35.5 -179.5t-96.5 -136t-142.5 -95.5t-172.5 -58l131 -251l107 -212q42 -79 80 -105l26 -20q46 -29 140 -35l-17 -61h-278q-42 102 -100.5 225.5
t-136.5 270.5l-79 151h-188l-109 -477zM1051 1130q0 51 -16 92t-46 69.5t-71.5 43.5t-92.5 15h-204l-140 -625h164q82 0 156 32.5t129.5 88t88 129t32.5 155.5z" />
    <glyph glyph-name="racute" unicode="&#x155;" horiz-adv-x="909" 
d="M841 1468q0 -40 -25 -74q-24 -34 -135 -135l-159 -145l-37 31l117 188q95 155 120 177q26 24 58 24q29 0 45 -20t16 -46zM231 0h-112l151 664q25 99 25 157q0 45 -17.5 60.5t-60.5 15.5q-57 0 -111 -16l11 53q124 59 213 59q53 0 69 -36q17 -37 17 -89l-2 -47h6
q97 85 178.5 135t157.5 50q75 0 109 -34t34 -106q0 -30 -7.5 -56.5t-20.5 -46t-31 -31t-39 -11.5q-44 0 -62 21t-18 49q0 43 41 133q-79 0 -170.5 -46.5t-190.5 -142.5z" />
    <glyph glyph-name="uni0156" unicode="&#x156;" horiz-adv-x="1339" 
d="M348 145q0 -52 31 -65q5 -4 24.5 -7.5t42.5 -6t44 -4t30 -1.5l-16 -61h-516l16 61q110 9 131 21q62 26 80 102l242 1059q4 7 4 35q0 20 -6 32t-16.5 19t-25.5 11t-32 7q-55 11 -73 11h-5l12 61h568q73 0 135.5 -18t108.5 -52.5t72 -84t24 -111.5q0 -101 -35.5 -179.5
t-96.5 -136t-142.5 -95.5t-172.5 -58l131 -251l107 -212q42 -79 80 -105l26 -20q46 -29 140 -35l-17 -61h-278q-42 102 -100.5 225.5t-136.5 270.5l-79 151h-188l-109 -477zM1051 1130q0 51 -16 92t-46 69.5t-71.5 43.5t-92.5 15h-204l-140 -625h164q82 0 156 32.5t129.5 88
t88 129t32.5 155.5zM497 -389q42 4 72.5 13t52 24.5t35.5 39t23 56.5h-31q-51 0 -80 24t-29 64q0 48 31.5 75t79.5 27q25 0 46.5 -10t37 -27.5t24.5 -41.5t9 -52q0 -115 -72 -180t-209 -67z" />
    <glyph glyph-name="uni0157" unicode="&#x157;" horiz-adv-x="909" 
d="M231 0h-112l151 664q25 99 25 157q0 45 -17.5 60.5t-60.5 15.5q-57 0 -111 -16l11 53q124 59 213 59q53 0 69 -36q17 -37 17 -89l-2 -47h6q97 85 178.5 135t157.5 50q75 0 109 -34t34 -106q0 -30 -7.5 -56.5t-20.5 -46t-31 -31t-39 -11.5q-44 0 -62 21t-18 49
q0 43 41 133q-79 0 -170.5 -46.5t-190.5 -142.5zM2 -389q42 4 72.5 13t52 24.5t35.5 39t23 56.5h-31q-51 0 -80 24t-29 64q0 48 31.5 75t79.5 27q25 0 46.5 -10t37 -27.5t24.5 -41.5t9 -52q0 -115 -72 -180t-209 -67z" />
    <glyph glyph-name="Rcaron" unicode="&#x158;" horiz-adv-x="1339" 
d="M1155 1837l-289 -285q-12 -11 -21.5 -19.5t-17.5 -14.5q-14 -11 -61 -11q-42 0 -56 13q-7 7 -13 14t-11 14l-180 289l49 33l233 -213l322 213zM348 145q0 -52 31 -65q5 -4 24.5 -7.5t42.5 -6t44 -4t30 -1.5l-16 -61h-516l16 61q110 9 131 21q62 26 80 102l242 1059
q4 7 4 35q0 20 -6 32t-16.5 19t-25.5 11t-32 7q-55 11 -73 11h-5l12 61h568q73 0 135.5 -18t108.5 -52.5t72 -84t24 -111.5q0 -101 -35.5 -179.5t-96.5 -136t-142.5 -95.5t-172.5 -58l131 -251l107 -212q42 -79 80 -105l26 -20q46 -29 140 -35l-17 -61h-278
q-42 102 -100.5 225.5t-136.5 270.5l-79 151h-188l-109 -477zM1051 1130q0 51 -16 92t-46 69.5t-71.5 43.5t-92.5 15h-204l-140 -625h164q82 0 156 32.5t129.5 88t88 129t32.5 155.5z" />
    <glyph glyph-name="rcaron" unicode="&#x159;" horiz-adv-x="909" 
d="M335 1538l197 -264l315 264l41 -43l-303 -334q-17 -18 -32.5 -26.5t-38.5 -8.5q-42 0 -64 43l-162 338zM231 0h-112l151 664q25 99 25 157q0 45 -17.5 60.5t-60.5 15.5q-57 0 -111 -16l11 53q124 59 213 59q53 0 69 -36q17 -37 17 -89l-2 -47h6q97 85 178.5 135t157.5 50
q75 0 109 -34t34 -106q0 -30 -7.5 -56.5t-20.5 -46t-31 -31t-39 -11.5q-44 0 -62 21t-18 49q0 43 41 133q-79 0 -170.5 -46.5t-190.5 -142.5z" />
    <glyph glyph-name="Sacute" unicode="&#x15a;" horiz-adv-x="1102" 
d="M643 1518l-29 38l205 199q88 88 109 100q20 13 45 13q26 0 44.5 -20.5t18.5 -49.5q0 -22 -7 -38.5t-19 -29.5t-28 -23.5t-34 -20.5zM504 -23q-129 0 -220.5 25.5t-160.5 79.5l-47 -82h-66l90 471h70q3 -90 18 -167.5t53.5 -134.5t106 -89.5t174.5 -32.5q79 0 144.5 23.5
t113 67.5t73.5 108t26 145q0 79 -38.5 138.5t-101.5 86.5q-29 13 -66.5 28t-85.5 32q-155 54 -219 101q-63 48 -94.5 112t-31.5 139q0 93 41 169.5t107 132t150 86t171 30.5q193 0 329 -98l43 71h68l-98 -465h-68v21q0 84 -9 157t-40.5 127t-92 84.5t-163.5 30.5
q-66 0 -121.5 -22.5t-96.5 -62t-64 -95t-23 -121.5q0 -65 18.5 -107.5t51.5 -71t78 -48t98 -37.5q71 -25 141 -54t125.5 -71.5t90 -103t34.5 -148.5q0 -100 -44 -183.5t-116 -144t-163 -94t-185 -33.5z" />
    <glyph glyph-name="sacute" unicode="&#x15b;" horiz-adv-x="834" 
d="M798 1468q0 -40 -25 -74q-24 -34 -135 -135l-159 -145l-37 31l117 188q95 155 120 177q26 24 58 24q29 0 45 -20t16 -46zM246 754q0 -33 10.5 -60t34 -49.5t61.5 -42.5t92 -39q45 -16 94.5 -36t91 -49t68.5 -69.5t27 -97.5q0 -82 -30.5 -145t-83 -106t-121.5 -65
t-146 -22q-136 0 -231 54q-93 56 -93 131q0 40 22 63t56 23q39 0 65 -38.5t34 -113.5q64 -49 186 -49q48 0 92 13.5t77.5 39.5t54 65t20.5 91q0 68 -55.5 115t-155.5 82q-138 43 -200 104.5t-62 144.5q0 72 32 129t83.5 96.5t116 61t130.5 21.5q116 0 196 -41
q81 -40 81 -103q0 -35 -17.5 -59.5t-52.5 -24.5q-42 0 -70 31.5t-49 108.5q-52 18 -121 18q-41 0 -83 -10.5t-76.5 -33t-56 -57t-21.5 -81.5z" />
    <glyph glyph-name="Scircumflex" unicode="&#x15c;" horiz-adv-x="1102" 
d="M1053 1538l-49 -31l-236 211l-319 -211l-47 31l291 285q18 18 39.5 31.5t60.5 13.5q43 0 57 -14q16 -14 23 -27zM504 -23q-129 0 -220.5 25.5t-160.5 79.5l-47 -82h-66l90 471h70q3 -90 18 -167.5t53.5 -134.5t106 -89.5t174.5 -32.5q79 0 144.5 23.5t113 67.5t73.5 108
t26 145q0 79 -38.5 138.5t-101.5 86.5q-29 13 -66.5 28t-85.5 32q-155 54 -219 101q-63 48 -94.5 112t-31.5 139q0 93 41 169.5t107 132t150 86t171 30.5q193 0 329 -98l43 71h68l-98 -465h-68v21q0 84 -9 157t-40.5 127t-92 84.5t-163.5 30.5q-66 0 -121.5 -22.5t-96.5 -62
t-64 -95t-23 -121.5q0 -65 18.5 -107.5t51.5 -71t78 -48t98 -37.5q71 -25 141 -54t125.5 -71.5t90 -103t34.5 -148.5q0 -100 -44 -183.5t-116 -144t-163 -94t-185 -33.5z" />
    <glyph glyph-name="scircumflex" unicode="&#x15d;" horiz-adv-x="834" 
d="M780 1126l-197 265l-315 -265l-41 43l303 334q32 35 72 35q44 0 63 -43l162 -338zM246 754q0 -33 10.5 -60t34 -49.5t61.5 -42.5t92 -39q45 -16 94.5 -36t91 -49t68.5 -69.5t27 -97.5q0 -82 -30.5 -145t-83 -106t-121.5 -65t-146 -22q-136 0 -231 54q-93 56 -93 131
q0 40 22 63t56 23q39 0 65 -38.5t34 -113.5q64 -49 186 -49q48 0 92 13.5t77.5 39.5t54 65t20.5 91q0 68 -55.5 115t-155.5 82q-138 43 -200 104.5t-62 144.5q0 72 32 129t83.5 96.5t116 61t130.5 21.5q116 0 196 -41q81 -40 81 -103q0 -35 -17.5 -59.5t-52.5 -24.5
q-42 0 -70 31.5t-49 108.5q-52 18 -121 18q-41 0 -83 -10.5t-76.5 -33t-56 -57t-21.5 -81.5z" />
    <glyph glyph-name="Scedilla" unicode="&#x15e;" horiz-adv-x="1102" 
d="M504 -23h-14l-15 -79q183 -11 183 -140q0 -202 -412 -202l14 69q66 0 118 7t88 20t55.5 31t19.5 41q0 40 -37.5 58.5t-118.5 18.5l34 179q-96 8 -167.5 32.5t-128.5 69.5l-47 -82h-66l90 471h70q3 -90 18 -167.5t53.5 -134.5t106 -89.5t174.5 -32.5q79 0 144.5 23.5
t113 67.5t73.5 108t26 145q0 79 -38.5 138.5t-101.5 86.5q-29 13 -66.5 28t-85.5 32q-155 54 -219 101q-63 48 -94.5 112t-31.5 139q0 93 41 169.5t107 132t150 86t171 30.5q193 0 329 -98l43 71h68l-98 -465h-68v21q0 84 -9 157t-40.5 127t-92 84.5t-163.5 30.5
q-66 0 -121.5 -22.5t-96.5 -62t-64 -95t-23 -121.5q0 -65 18.5 -107.5t51.5 -71t78 -48t98 -37.5q71 -25 141 -54t125.5 -71.5t90 -103t34.5 -148.5q0 -100 -44 -183.5t-116 -144t-163 -94t-185 -33.5z" />
    <glyph glyph-name="scedilla" unicode="&#x15f;" horiz-adv-x="834" 
d="M246 754q0 -33 10.5 -60t34 -49.5t61.5 -42.5t92 -39q45 -16 94.5 -36t91 -49t68.5 -69.5t27 -97.5q0 -76 -27 -136.5t-74 -103.5t-110 -68t-135 -29l-15 -76q183 -11 183 -140q0 -202 -412 -202l14 69q66 0 118 7t88 20t55.5 31t19.5 41q0 40 -37.5 58.5t-118.5 18.5
l33 173q-112 6 -194 53q-93 56 -93 131q0 40 22 63t56 23q39 0 65 -38.5t34 -113.5q64 -49 186 -49q48 0 92 13.5t77.5 39.5t54 65t20.5 91q0 68 -55.5 115t-155.5 82q-138 43 -200 104.5t-62 144.5q0 72 32 129t83.5 96.5t116 61t130.5 21.5q116 0 196 -41q81 -40 81 -103
q0 -35 -17.5 -59.5t-52.5 -24.5q-42 0 -70 31.5t-49 108.5q-52 18 -121 18q-41 0 -83 -10.5t-76.5 -33t-56 -57t-21.5 -81.5z" />
    <glyph glyph-name="Scaron" unicode="&#x160;" horiz-adv-x="1102" 
d="M1118 1837l-289 -285q-12 -11 -21.5 -19.5t-17.5 -14.5q-14 -11 -61 -11q-42 0 -56 13q-7 7 -13 14t-11 14l-180 289l49 33l233 -213l322 213zM504 -23q-129 0 -220.5 25.5t-160.5 79.5l-47 -82h-66l90 471h70q3 -90 18 -167.5t53.5 -134.5t106 -89.5t174.5 -32.5
q79 0 144.5 23.5t113 67.5t73.5 108t26 145q0 79 -38.5 138.5t-101.5 86.5q-29 13 -66.5 28t-85.5 32q-155 54 -219 101q-63 48 -94.5 112t-31.5 139q0 93 41 169.5t107 132t150 86t171 30.5q193 0 329 -98l43 71h68l-98 -465h-68v21q0 84 -9 157t-40.5 127t-92 84.5
t-163.5 30.5q-66 0 -121.5 -22.5t-96.5 -62t-64 -95t-23 -121.5q0 -65 18.5 -107.5t51.5 -71t78 -48t98 -37.5q71 -25 141 -54t125.5 -71.5t90 -103t34.5 -148.5q0 -100 -44 -183.5t-116 -144t-163 -94t-185 -33.5z" />
    <glyph glyph-name="scaron" unicode="&#x161;" horiz-adv-x="834" 
d="M350 1538l197 -264l315 264l41 -43l-303 -334q-17 -18 -32.5 -26.5t-38.5 -8.5q-42 0 -64 43l-162 338zM246 754q0 -33 10.5 -60t34 -49.5t61.5 -42.5t92 -39q45 -16 94.5 -36t91 -49t68.5 -69.5t27 -97.5q0 -82 -30.5 -145t-83 -106t-121.5 -65t-146 -22q-136 0 -231 54
q-93 56 -93 131q0 40 22 63t56 23q39 0 65 -38.5t34 -113.5q64 -49 186 -49q48 0 92 13.5t77.5 39.5t54 65t20.5 91q0 68 -55.5 115t-155.5 82q-138 43 -200 104.5t-62 144.5q0 72 32 129t83.5 96.5t116 61t130.5 21.5q116 0 196 -41q81 -40 81 -103q0 -35 -17.5 -59.5
t-52.5 -24.5q-42 0 -70 31.5t-49 108.5q-52 18 -121 18q-41 0 -83 -10.5t-76.5 -33t-56 -57t-21.5 -81.5z" />
    <glyph glyph-name="uni0162" unicode="&#x162;" horiz-adv-x="1241" 
d="M739 1352h-61q-130 0 -189 -9q-51 -7 -96 -38t-82 -74.5t-64.5 -93t-43.5 -93.5h-70l88 375h1204l-84 -375h-65v14q0 30 -3 69t-13 77.5t-27 71.5t-46 51q-40 25 -239 25h-67l-260 -1131q-11 -39 -11 -71q0 -47 61 -66q31 -10 66.5 -15.5t77.5 -7.5l-12 -61h-269
l-20 -102q183 -11 183 -140q0 -202 -412 -202l14 69q66 0 118 7t88 20t55.5 31t19.5 41q0 40 -37.5 58.5t-118.5 18.5l38 199h-265l12 61l40 3q107 6 142 18q60 23 76 94z" />
    <glyph glyph-name="uni0163" unicode="&#x163;" horiz-adv-x="639" 
d="M244 176q0 -49 24 -70.5t84 -21.5q83 0 160 20l-12 -61q-57 -29 -114 -44t-120 -15l-17 -86q183 -11 183 -140q0 -202 -412 -202l14 69q66 0 118 7t88 20t55.5 31t19.5 41q0 40 -37.5 58.5t-118.5 18.5l38 198q-38 17 -59 49.5t-21 78.5q0 51 14 115l154 655h-174l18 84
h176l70 287h108l-65 -287h282l-18 -84h-285l-129 -561q-24 -97 -24 -160z" />
    <glyph glyph-name="Tcaron" unicode="&#x164;" horiz-adv-x="1241" 
d="M1219 1837l-289 -285q-12 -11 -21.5 -19.5t-17.5 -14.5q-14 -11 -61 -11q-42 0 -56 13q-7 7 -13 14t-11 14l-180 289l49 33l233 -213l322 213zM739 1352h-61q-130 0 -189 -9q-51 -7 -96 -38t-82 -74.5t-64.5 -93t-43.5 -93.5h-70l88 375h1204l-84 -375h-65v14q0 30 -3 69
t-13 77.5t-27 71.5t-46 51q-40 25 -239 25h-67l-260 -1131q-11 -39 -11 -71q0 -47 61 -66q31 -10 66.5 -15.5t77.5 -7.5l-12 -61h-606l12 61l40 3q107 6 142 18q60 23 76 94z" />
    <glyph glyph-name="tcaron" unicode="&#x165;" horiz-adv-x="655" 
d="M585 1130l68 38q114 65 141 177h-26q-42 0 -69.5 25t-27.5 63q0 48 28 75.5t71 27.5q52 0 81 -31t29 -88q0 -68 -21 -119t-57 -91t-84.5 -70.5t-103.5 -57.5zM244 176q0 -49 24 -70.5t84 -21.5q83 0 160 20l-12 -61q-116 -59 -230 -59q-69 0 -111 38.5t-42 104.5
q0 51 14 115l154 655h-174l18 84h176l70 287h108l-65 -287h282l-18 -84h-285l-129 -561q-24 -97 -24 -160z" />
    <glyph glyph-name="Tbar" unicode="&#x166;" horiz-adv-x="1241" 
d="M590 700h-311l18 78h309l133 574h-61q-130 0 -189 -9q-51 -7 -96 -38t-82 -74.5t-64.5 -93t-43.5 -93.5h-70l88 375h1204l-84 -375h-65v14q0 30 -3 69t-13 77.5t-27 71.5t-46 51q-40 25 -239 25h-67l-133 -574h319l-18 -78h-318l-110 -479q-11 -39 -11 -71q0 -47 61 -66
q31 -10 66.5 -15.5t77.5 -7.5l-12 -61h-606l12 61l40 3q107 6 142 18q60 23 76 94z" />
    <glyph glyph-name="tbar" unicode="&#x167;" horiz-adv-x="639" 
d="M244 176q0 -49 24 -70.5t84 -21.5q83 0 160 20l-12 -61q-116 -59 -230 -59q-69 0 -111 38.5t-42 104.5q0 51 14 115l59 247h-170l17 72h170l78 336h-174l18 84h176l70 287h108l-65 -287h282l-18 -84h-285l-78 -336h238l-18 -72h-236q-50 -215 -54 -250q-2 -18 -3.5 -33.5
t-1.5 -29.5z" />
    <glyph glyph-name="Utilde" unicode="&#x168;" horiz-adv-x="1597" 
d="M1345 1731q-39 -79 -106 -129q-66 -51 -132 -48q-67 5 -130 47q-67 43 -101 45q-30 2 -52 -10q-22 -10 -81 -89l-43 22q107 185 233 178q62 -3 129 -47q66 -43 95 -45q77 -3 114 55q5 10 12.5 20.5t16.5 23.5zM657 -33q-94 -2 -176 23.5t-142 70t-94 103t-32 123.5
q0 58 18 131l191 815q6 30 6 51q0 20 -19.5 33t-46 21.5t-53.5 13t-41 6.5l13 61h501l-14 -61q-107 -11 -149 -34q-43 -22 -58 -91l-192 -838q-13 -46 -13 -100q0 -48 22 -90.5t64 -74.5t102.5 -50.5t137.5 -18.5q83 0 162 19t146 58.5t116 101.5t72 147q12 44 36.5 147.5
t61.5 268.5q74 332 74 403q0 64 -25 90q-13 20 -64.5 37.5t-121.5 24.5l12 61h575l-16 -61l-33 -5q-33 -4 -63 -10.5t-55.5 -19t-47 -33t-36.5 -52.5q-25 -52 -58 -196l-47 -222q-11 -50 -35.5 -153.5t-62.5 -263.5q-30 -113 -87.5 -195.5t-137 -136t-178.5 -79t-212 -25.5z
" />
    <glyph glyph-name="utilde" unicode="&#x169;" horiz-adv-x="1106" 
d="M1009 1338q-39 -79 -106 -129q-66 -51 -132 -48q-67 5 -130 47q-67 43 -101 45q-30 2 -52 -10q-22 -10 -81 -89l-43 22q107 185 233 178q62 -3 129 -47q66 -43 95 -45q77 -3 114 55q5 10 12.5 20.5t16.5 23.5zM809 -14q-52 0 -81.5 30.5t-29.5 85.5l2 27h-6
q-40 -32 -80 -59.5t-82 -48t-88.5 -32.5t-99.5 -12q-45 0 -83 13.5t-65.5 39t-43 62t-15.5 82.5q0 55 23 156l78 334q13 61 19.5 101t6.5 60q0 35 -15.5 53.5t-60.5 18.5q-34 0 -116 -20l14 53q126 63 207 63q98 0 98 -100q0 -57 -20 -139l-86 -383q-27 -108 -27 -166
q0 -60 41 -96.5t111 -36.5q41 0 85 15t86.5 38t80 51.5t65.5 56.5l176 746l103 10l12 -14l-158 -658q-5 -24 -10.5 -48.5t-10 -46.5t-7.5 -40.5t-3 -29.5q0 -42 26.5 -56t80.5 -14q9 0 22.5 1t27.5 3t27 4.5t21 5.5l-10 -51q-116 -59 -215 -59z" />
    <glyph glyph-name="Umacron" unicode="&#x16a;" horiz-adv-x="1597" 
d="M674 1645l21 108h643l-21 -108h-643zM657 -33q-94 -2 -176 23.5t-142 70t-94 103t-32 123.5q0 58 18 131l191 815q6 30 6 51q0 20 -19.5 33t-46 21.5t-53.5 13t-41 6.5l13 61h501l-14 -61q-107 -11 -149 -34q-43 -22 -58 -91l-192 -838q-13 -46 -13 -100q0 -48 22 -90.5
t64 -74.5t102.5 -50.5t137.5 -18.5q83 0 162 19t146 58.5t116 101.5t72 147q12 44 36.5 147.5t61.5 268.5q74 332 74 403q0 64 -25 90q-13 20 -64.5 37.5t-121.5 24.5l12 61h575l-16 -61l-33 -5q-33 -4 -63 -10.5t-55.5 -19t-47 -33t-36.5 -52.5q-25 -52 -58 -196l-47 -222
q-11 -50 -35.5 -153.5t-62.5 -263.5q-30 -113 -87.5 -195.5t-137 -136t-178.5 -79t-212 -25.5z" />
    <glyph glyph-name="umacron" unicode="&#x16b;" horiz-adv-x="1106" 
d="M360 1305l21 108h643l-21 -108h-643zM809 -14q-52 0 -81.5 30.5t-29.5 85.5l2 27h-6q-40 -32 -80 -59.5t-82 -48t-88.5 -32.5t-99.5 -12q-45 0 -83 13.5t-65.5 39t-43 62t-15.5 82.5q0 55 23 156l78 334q13 61 19.5 101t6.5 60q0 35 -15.5 53.5t-60.5 18.5
q-34 0 -116 -20l14 53q126 63 207 63q98 0 98 -100q0 -57 -20 -139l-86 -383q-27 -108 -27 -166q0 -60 41 -96.5t111 -36.5q41 0 85 15t86.5 38t80 51.5t65.5 56.5l176 746l103 10l12 -14l-158 -658q-5 -24 -10.5 -48.5t-10 -46.5t-7.5 -40.5t-3 -29.5q0 -42 26.5 -56
t80.5 -14q9 0 22.5 1t27.5 3t27 4.5t21 5.5l-10 -51q-116 -59 -215 -59z" />
    <glyph glyph-name="Ubreve" unicode="&#x16c;" horiz-adv-x="1597" 
d="M1341 1853q-57 -160 -145 -241.5t-220 -81.5q-256 0 -256 328l56 14q15 -115 68 -163t149 -48q59 0 102.5 15.5t77 43.5t60.5 67t53 85zM657 -33q-94 -2 -176 23.5t-142 70t-94 103t-32 123.5q0 58 18 131l191 815q6 30 6 51q0 20 -19.5 33t-46 21.5t-53.5 13t-41 6.5
l13 61h501l-14 -61q-107 -11 -149 -34q-43 -22 -58 -91l-192 -838q-13 -46 -13 -100q0 -48 22 -90.5t64 -74.5t102.5 -50.5t137.5 -18.5q83 0 162 19t146 58.5t116 101.5t72 147q12 44 36.5 147.5t61.5 268.5q74 332 74 403q0 64 -25 90q-13 20 -64.5 37.5t-121.5 24.5
l12 61h575l-16 -61l-33 -5q-33 -4 -63 -10.5t-55.5 -19t-47 -33t-36.5 -52.5q-25 -52 -58 -196l-47 -222q-11 -50 -35.5 -153.5t-62.5 -263.5q-30 -113 -87.5 -195.5t-137 -136t-178.5 -79t-212 -25.5z" />
    <glyph glyph-name="ubreve" unicode="&#x16d;" horiz-adv-x="1106" 
d="M995 1470q-57 -172 -143.5 -260t-218.5 -88q-254 0 -254 357l49 8q15 -120 69.5 -172.5t151.5 -52.5q59 0 103.5 16.5t78.5 46.5t61 71.5t52 90.5zM809 -14q-52 0 -81.5 30.5t-29.5 85.5l2 27h-6q-40 -32 -80 -59.5t-82 -48t-88.5 -32.5t-99.5 -12q-45 0 -83 13.5
t-65.5 39t-43 62t-15.5 82.5q0 55 23 156l78 334q13 61 19.5 101t6.5 60q0 35 -15.5 53.5t-60.5 18.5q-34 0 -116 -20l14 53q126 63 207 63q98 0 98 -100q0 -57 -20 -139l-86 -383q-27 -108 -27 -166q0 -60 41 -96.5t111 -36.5q41 0 85 15t86.5 38t80 51.5t65.5 56.5
l176 746l103 10l12 -14l-158 -658q-5 -24 -10.5 -48.5t-10 -46.5t-7.5 -40.5t-3 -29.5q0 -42 26.5 -56t80.5 -14q9 0 22.5 1t27.5 3t27 4.5t21 5.5l-10 -51q-116 -59 -215 -59z" />
    <glyph glyph-name="Uring" unicode="&#x16e;" horiz-adv-x="1597" 
d="M956 1427q-50 0 -90.5 12.5t-69 35.5t-44 55.5t-15.5 72.5q0 59 22 107t60 81.5t88.5 51.5t107.5 18q42 0 81.5 -11.5t69.5 -34t48 -57t18 -81.5q1 -51 -19.5 -97t-57.5 -80.5t-88 -54t-111 -18.5zM1118 1675q0 57 -28.5 92t-82.5 35q-40 0 -70 -17t-50 -44.5t-30 -62.5
t-10 -71q0 -54 29.5 -87t83.5 -33q40 0 69.5 15.5t49 42t29.5 60.5t10 70zM657 -33q-94 -2 -176 23.5t-142 70t-94 103t-32 123.5q0 58 18 131l191 815q6 30 6 51q0 20 -19.5 33t-46 21.5t-53.5 13t-41 6.5l13 61h501l-14 -61q-107 -11 -149 -34q-43 -22 -58 -91l-192 -838
q-13 -46 -13 -100q0 -48 22 -90.5t64 -74.5t102.5 -50.5t137.5 -18.5q83 0 162 19t146 58.5t116 101.5t72 147q12 44 36.5 147.5t61.5 268.5q74 332 74 403q0 64 -25 90q-13 20 -64.5 37.5t-121.5 24.5l12 61h575l-16 -61l-33 -5q-33 -4 -63 -10.5t-55.5 -19t-47 -33
t-36.5 -52.5q-25 -52 -58 -196l-47 -222q-11 -50 -35.5 -153.5t-62.5 -263.5q-30 -113 -87.5 -195.5t-137 -136t-178.5 -79t-212 -25.5z" />
    <glyph glyph-name="uring" unicode="&#x16f;" horiz-adv-x="1106" 
d="M643 1120q-50 0 -90.5 12.5t-69 35.5t-44 55.5t-15.5 72.5q0 59 22 107t60 81.5t88.5 51.5t107.5 18q42 0 81.5 -11.5t69.5 -34t48 -57t18 -81.5q1 -51 -19.5 -97t-57.5 -80.5t-88 -54t-111 -18.5zM805 1368q0 57 -28.5 92t-82.5 35q-40 0 -70 -17t-50 -44.5t-30 -62.5
t-10 -71q0 -54 29.5 -87t83.5 -33q40 0 69.5 15.5t49 42t29.5 60.5t10 70zM809 -14q-52 0 -81.5 30.5t-29.5 85.5l2 27h-6q-40 -32 -80 -59.5t-82 -48t-88.5 -32.5t-99.5 -12q-45 0 -83 13.5t-65.5 39t-43 62t-15.5 82.5q0 55 23 156l78 334q13 61 19.5 101t6.5 60
q0 35 -15.5 53.5t-60.5 18.5q-34 0 -116 -20l14 53q126 63 207 63q98 0 98 -100q0 -57 -20 -139l-86 -383q-27 -108 -27 -166q0 -60 41 -96.5t111 -36.5q41 0 85 15t86.5 38t80 51.5t65.5 56.5l176 746l103 10l12 -14l-158 -658q-5 -24 -10.5 -48.5t-10 -46.5t-7.5 -40.5
t-3 -29.5q0 -42 26.5 -56t80.5 -14q9 0 22.5 1t27.5 3t27 4.5t21 5.5l-10 -51q-116 -59 -215 -59z" />
    <glyph glyph-name="Uhungarumlaut" unicode="&#x170;" horiz-adv-x="1597" 
d="M739 1518l-28 38q70 78 120 131.5t81 85.5q32 32 53.5 51.5t32.5 27.5q22 16 51 16q26 0 44.5 -20.5t18.5 -49.5q0 -22 -7 -38.5t-19 -29.5t-28 -23.5t-34 -20.5zM1075 1518l-29 38l129 137q13 15 34 38t44 46.5t45.5 44.5t37.5 31q21 15 48 15q26 0 45 -20.5t19 -49.5
q0 -22 -7 -38.5t-19 -29.5t-28 -23.5t-34 -20.5zM657 -33q-94 -2 -176 23.5t-142 70t-94 103t-32 123.5q0 58 18 131l191 815q6 30 6 51q0 20 -19.5 33t-46 21.5t-53.5 13t-41 6.5l13 61h501l-14 -61q-107 -11 -149 -34q-43 -22 -58 -91l-192 -838q-13 -46 -13 -100
q0 -48 22 -90.5t64 -74.5t102.5 -50.5t137.5 -18.5q83 0 162 19t146 58.5t116 101.5t72 147q12 44 36.5 147.5t61.5 268.5q74 332 74 403q0 64 -25 90q-13 20 -64.5 37.5t-121.5 24.5l12 61h575l-16 -61l-33 -5q-33 -4 -63 -10.5t-55.5 -19t-47 -33t-36.5 -52.5
q-25 -52 -58 -196l-47 -222q-11 -50 -35.5 -153.5t-62.5 -263.5q-30 -113 -87.5 -195.5t-137 -136t-178.5 -79t-212 -25.5z" />
    <glyph glyph-name="uhungarumlaut" unicode="&#x171;" horiz-adv-x="1106" 
d="M750 1468q0 -18 -5.5 -35.5t-17.5 -35.5t-31 -39t-46 -47l-199 -197l-39 27l103 190q20 37 37.5 67.5t33.5 53.5q32 48 49 63q19 18 47 19q29 0 48.5 -20t19.5 -46zM1090 1468q0 -18 -5.5 -35.5t-17.5 -35.5t-31 -39t-46 -47l-199 -197l-39 27l103 190q20 37 37.5 67.5
t33.5 53.5q32 48 49 63q19 18 47 19q29 0 48.5 -20t19.5 -46zM809 -14q-52 0 -81.5 30.5t-29.5 85.5l2 27h-6q-40 -32 -80 -59.5t-82 -48t-88.5 -32.5t-99.5 -12q-45 0 -83 13.5t-65.5 39t-43 62t-15.5 82.5q0 55 23 156l78 334q13 61 19.5 101t6.5 60q0 35 -15.5 53.5
t-60.5 18.5q-34 0 -116 -20l14 53q126 63 207 63q98 0 98 -100q0 -57 -20 -139l-86 -383q-27 -108 -27 -166q0 -60 41 -96.5t111 -36.5q41 0 85 15t86.5 38t80 51.5t65.5 56.5l176 746l103 10l12 -14l-158 -658q-5 -24 -10.5 -48.5t-10 -46.5t-7.5 -40.5t-3 -29.5
q0 -42 26.5 -56t80.5 -14q9 0 22.5 1t27.5 3t27 4.5t21 5.5l-10 -51q-116 -59 -215 -59z" />
    <glyph glyph-name="Uogonek" unicode="&#x172;" horiz-adv-x="1597" 
d="M657 -33q-94 -2 -176 23.5t-142 70t-94 103t-32 123.5q0 58 18 131l191 815q6 30 6 51q0 20 -19.5 33t-46 21.5t-53.5 13t-41 6.5l13 61h501l-14 -61q-107 -11 -149 -34q-43 -22 -58 -91l-192 -838q-13 -46 -13 -100q0 -48 22 -90.5t64 -74.5t102.5 -50.5t137.5 -18.5
q83 0 162 19t146 58.5t116 101.5t72 147q12 44 36.5 147.5t61.5 268.5q74 332 74 403q0 64 -25 90q-13 20 -64.5 37.5t-121.5 24.5l12 61h575l-16 -61l-33 -5q-33 -4 -63 -10.5t-55.5 -19t-47 -33t-36.5 -52.5q-25 -52 -58 -196l-47 -222q-11 -50 -35.5 -153.5t-62.5 -263.5
q-40 -152 -133.5 -253.5t-242.5 -149.5q-76 -59 -116.5 -124t-40.5 -128q0 -64 48.5 -92.5t156.5 -30.5l-12 -69h-90q-114 0 -176 41.5t-62 113.5q0 66 49 134t143 132q-33 -5 -67.5 -7.5t-71.5 -2.5z" />
    <glyph glyph-name="uogonek" unicode="&#x173;" horiz-adv-x="1106" 
d="M809 -14q-9 0 -14 1q-68 -57 -104 -118.5t-36 -120.5q0 -64 48.5 -92.5t156.5 -30.5l-12 -69h-90q-114 0 -176 41.5t-62 113.5t58.5 146.5t169.5 143.5q-50 28 -50 101l2 27h-6q-40 -32 -80 -59.5t-82 -48t-88.5 -32.5t-99.5 -12q-45 0 -83 13.5t-65.5 39t-43 62
t-15.5 82.5q0 55 23 156l78 334q13 61 19.5 101t6.5 60q0 35 -15.5 53.5t-60.5 18.5q-34 0 -116 -20l14 53q126 63 207 63q98 0 98 -100q0 -57 -20 -139l-86 -383q-27 -108 -27 -166q0 -60 41 -96.5t111 -36.5q41 0 85 15t86.5 38t80 51.5t65.5 56.5l176 746l103 10l12 -14
l-158 -658q-5 -24 -10.5 -48.5t-10 -46.5t-7.5 -40.5t-3 -29.5q0 -42 26.5 -56t80.5 -14q9 0 22.5 1t27.5 3t27 4.5t21 5.5l-10 -51q-116 -59 -215 -59z" />
    <glyph glyph-name="Wcircumflex" unicode="&#x174;" horiz-adv-x="1886" 
d="M1501 1538l-49 -31l-236 211l-319 -211l-47 31l291 285q18 18 39.5 31.5t60.5 13.5q43 0 57 -14q16 -14 23 -27zM1235 -20h-33l-133 1128l-661 -1128h-31q-16 915 -33 1230q-4 69 -24 95q-9 13 -23 23t-30.5 16.5t-33.5 10t-32 3.5l12 61h485l-12 -61q-203 0 -203 -66
v-62l2 -91l27 -826l635 1076h31l135 -1092q93 183 189 378t196 406q44 98 57 138q14 42 14 65q0 62 -161 74l12 61h494l-13 -61q-54 0 -127 -37q-74 -47 -123 -137z" />
    <glyph glyph-name="wcircumflex" unicode="&#x175;" horiz-adv-x="1595" 
d="M1217 1126l-197 265l-315 -265l-41 43l303 334q32 35 72 35q44 0 63 -43l162 -338zM950 -29q-97 0 -157 46.5t-82 136.5h-6q-114 -93 -162 -120t-96.5 -42t-102.5 -15q-45 0 -83 13.5t-65.5 39t-43 62t-15.5 82.5q0 55 23 156l78 334q13 61 19.5 101t6.5 60
q0 35 -15.5 53.5t-60.5 18.5q-34 0 -116 -20l14 53q126 63 207 63q98 0 98 -100q0 -57 -20 -139l-86 -383q-27 -108 -27 -166q0 -60 41 -96.5t111 -36.5q39 0 80.5 15t81 38.5t74.5 52t61 55.5l176 746l102 10l12 -14l-155 -643q-17 -70 -17 -121q0 -66 43.5 -102.5
t124.5 -36.5q82 0 148 35t117.5 91t88.5 126t60 139q41 123 41 211q0 53 -12 85t-26 56.5t-26 48.5t-12 60q0 32 22 57t62 25q88 0 88 -154q0 -99 -18.5 -205t-56 -206.5t-94 -190.5t-132.5 -158q-136 -121 -293 -121z" />
    <glyph glyph-name="Ycircumflex" unicode="&#x176;" horiz-adv-x="1180" 
d="M1122 1538l-49 -31l-236 211l-319 -211l-47 31l291 285q18 18 39.5 31.5t60.5 13.5q43 0 57 -14q16 -14 23 -27zM567 143q0 -31 40 -50q42 -20 167 -32l-12 -61h-606l12 61l40 3q108 6 144 18q58 23 74 94l72 307q14 65 14 82q0 59 -58 249q-29 97 -59.5 191t-62.5 187
q-13 38 -26.5 67t-32.5 49.5t-47 33t-72 16.5l16 61h473l-14 -61l-54 -3q-116 -6 -116 -50q0 -54 176 -621q67 82 136 166t130.5 159.5t111 137.5t77.5 100q16 22 16 45q0 54 -116 62l-60 4l16 61h486l-17 -61q-29 -4 -53 -10t-45.5 -15t-41.5 -23t-41 -35
q-21 -20 -62.5 -65.5t-104.5 -117.5t-121.5 -142.5t-115.5 -140.5t-90.5 -114t-45.5 -62q-23 -37 -36 -73q-6 -19 -26 -105t-54 -242q-11 -42 -11 -70z" />
    <glyph glyph-name="ycircumflex" unicode="&#x177;" horiz-adv-x="1075" 
d="M901 1126l-197 265l-315 -265l-41 43l303 334q32 35 72 35q44 0 63 -43l162 -338zM707 137q-40 -32 -82 -61t-86.5 -51t-93 -35t-101.5 -13q-45 0 -83 13.5t-65.5 39t-43 62t-15.5 82.5q0 55 23 156l78 334q13 61 19.5 101t6.5 60q0 35 -15.5 53.5t-60.5 18.5
q-34 0 -116 -20l14 53q126 63 207 63q98 0 98 -100q0 -57 -20 -139l-86 -383q-27 -108 -27 -166q0 -60 41 -96.5t111 -36.5q41 0 86 14t88.5 36.5t82 50.5t66.5 56l172 750l101 10l10 -12l-170 -766q-21 -94 -45.5 -179t-59 -157.5t-81.5 -131.5t-111.5 -100.5t-150 -64
t-197.5 -22.5q-199 0 -199 118q0 40 20 62t54 22q64 0 106 -97l19 -46h22q191 0 316 132.5t176 389.5h-8z" />
    <glyph glyph-name="Ydieresis" unicode="&#x178;" horiz-adv-x="1180" 
d="M731 1745q0 -42 -23 -71t-65 -29t-65 29t-23 71q0 43 23 72.5t65 29.5t65 -29.5t23 -72.5zM1139 1745q0 -42 -23 -71t-65 -29t-65 29t-23 71q0 43 23 72.5t65 29.5t65 -29.5t23 -72.5zM567 143q0 -31 40 -50q42 -20 167 -32l-12 -61h-606l12 61l40 3q108 6 144 18
q58 23 74 94l72 307q14 65 14 82q0 59 -58 249q-29 97 -59.5 191t-62.5 187q-13 38 -26.5 67t-32.5 49.5t-47 33t-72 16.5l16 61h473l-14 -61l-54 -3q-116 -6 -116 -50q0 -54 176 -621q67 82 136 166t130.5 159.5t111 137.5t77.5 100q16 22 16 45q0 54 -116 62l-60 4l16 61
h486l-17 -61q-29 -4 -53 -10t-45.5 -15t-41.5 -23t-41 -35q-21 -20 -62.5 -65.5t-104.5 -117.5t-121.5 -142.5t-115.5 -140.5t-90.5 -114t-45.5 -62q-23 -37 -36 -73q-6 -19 -26 -105t-54 -242q-11 -42 -11 -70z" />
    <glyph glyph-name="Zacute" unicode="&#x179;" horiz-adv-x="1184" 
d="M729 1518l-29 38l205 199q88 88 109 100q20 13 45 13q26 0 44.5 -20.5t18.5 -49.5q0 -22 -7 -38.5t-19 -29.5t-28 -23.5t-34 -20.5zM1001 0h-1087l6 20l1206 1330h-364q-114 0 -182 -9q-52 -8 -102 -40t-93.5 -76t-77.5 -95t-55 -96h-64l129 385h1022l-6 -20l-1204 -1329
h322q18 0 49 1t68 3t77 5.5t75.5 9t63.5 13t41 17.5q29 21 58.5 48.5t56.5 58.5t51 63.5t43 62.5l47 72h66z" />
    <glyph glyph-name="zacute" unicode="&#x17a;" horiz-adv-x="874" 
d="M829 1468q0 -40 -25 -74q-24 -34 -135 -135l-159 -145l-37 31l117 188q95 155 120 177q26 24 58 24q29 0 45 -20t16 -46zM133 78q66 -1 109 -1.5t63 -0.5q145 0 244 6q42 0 72 35q31 38 71 130l43 93h53l-65 -340h-750l15 61l745 840h-174q-112 0 -175.5 -8t-86.5 -27
q-23 -18 -48 -65t-54 -117h-56l58 295h704l-10 -51z" />
    <glyph glyph-name="Zdotaccent" unicode="&#x17b;" horiz-adv-x="1184" 
d="M805 1628q-76 0 -76 88q0 54 27.5 85.5t66.5 31.5q78 0 78 -88q0 -25 -7.5 -46.5t-20.5 -37.5t-30.5 -24.5t-37.5 -8.5zM1001 0h-1087l6 20l1206 1330h-364q-114 0 -182 -9q-52 -8 -102 -40t-93.5 -76t-77.5 -95t-55 -96h-64l129 385h1022l-6 -20l-1204 -1329h322
q18 0 49 1t68 3t77 5.5t75.5 9t63.5 13t41 17.5q29 21 58.5 48.5t56.5 58.5t51 63.5t43 62.5l47 72h66z" />
    <glyph glyph-name="zdotaccent" unicode="&#x17c;" horiz-adv-x="874" 
d="M570 1284q-76 0 -76 88q0 54 27.5 85.5t66.5 31.5q78 0 78 -88q0 -25 -7.5 -46.5t-20.5 -37.5t-30.5 -24.5t-37.5 -8.5zM133 78q66 -1 109 -1.5t63 -0.5q145 0 244 6q42 0 72 35q31 38 71 130l43 93h53l-65 -340h-750l15 61l745 840h-174q-112 0 -175.5 -8t-86.5 -27
q-23 -18 -48 -65t-54 -117h-56l58 295h704l-10 -51z" />
    <glyph glyph-name="Zcaron" unicode="&#x17d;" horiz-adv-x="1184" 
d="M1159 1837l-289 -285q-12 -11 -21.5 -19.5t-17.5 -14.5q-14 -11 -61 -11q-42 0 -56 13q-7 7 -13 14t-11 14l-180 289l49 33l233 -213l322 213zM1001 0h-1087l6 20l1206 1330h-364q-114 0 -182 -9q-52 -8 -102 -40t-93.5 -76t-77.5 -95t-55 -96h-64l129 385h1022l-6 -20
l-1204 -1329h322q18 0 49 1t68 3t77 5.5t75.5 9t63.5 13t41 17.5q29 21 58.5 48.5t56.5 58.5t51 63.5t43 62.5l47 72h66z" />
    <glyph glyph-name="zcaron" unicode="&#x17e;" horiz-adv-x="874" 
d="M358 1538l197 -264l315 264l41 -43l-303 -334q-17 -18 -32.5 -26.5t-38.5 -8.5q-42 0 -64 43l-162 338zM133 78q66 -1 109 -1.5t63 -0.5q145 0 244 6q42 0 72 35q31 38 71 130l43 93h53l-65 -340h-750l15 61l745 840h-174q-112 0 -175.5 -8t-86.5 -27q-23 -18 -48 -65
t-54 -117h-56l58 295h704l-10 -51z" />
    <glyph glyph-name="longs" unicode="&#x17f;" horiz-adv-x="545" 
d="M-281 -444q-51 0 -84.5 26t-33.5 68q0 29 18 52.5t62 23.5q29 0 52 -16t64 -72q94 5 161.5 102.5t107.5 282.5l215 1009q49 230 180 373t297 143q50 0 84.5 -23t34.5 -61q0 -35 -20.5 -60.5t-55.5 -25.5q-42 0 -73 27.5t-56 64.5q-93 -4 -161.5 -107.5t-107.5 -291.5
l-215 -1012q-21 -105 -67 -197.5t-108.5 -161t-137.5 -107.5t-156 -37z" />
    <glyph glyph-name="florin" unicode="&#x192;" horiz-adv-x="1004" 
d="M1102 1184q0 -32 -20 -56t-58 -24q-85 0 -137 139q-105 -4 -179.5 -115t-113.5 -313l-23 -113h254l-18 -79h-250q-49 -304 -90 -462q-15 -59 -35.5 -122t-48 -122t-63.5 -111.5t-83 -91.5t-106.5 -61.5t-132.5 -21.5q-79 0 -123.5 31t-44.5 82q0 35 20.5 59.5t55.5 24.5
q27 0 48 -13t37 -33.5t28 -44t22 -44.5q191 4 285 399q37 160 60.5 290t45.5 241h-205l19 79h203q16 75 36 149.5t50.5 143.5t74.5 130t109 109q97 71 215 71q81 0 124.5 -31.5t43.5 -89.5z" />
    <glyph glyph-name="Ohorn" unicode="&#x1a0;" horiz-adv-x="1446" 
d="M1425 870q0 -116 -28 -226.5t-80.5 -210t-128 -184.5t-171.5 -151q-193 -131 -388 -131q-127 0 -224 44.5t-163 121.5t-99.5 181.5t-33.5 224.5q0 115 27.5 228t80 215t128 189.5t172.5 151.5q188 125 388 125q164 0 282 -76q144 15 178 115h-24q-98 -2 -80 81
q4 18 14.5 33.5t25 27.5t33 19t37.5 7q102 -8 73 -130q-35 -144 -203 -194q50 -43 85 -96.5t57 -112.5t32 -123t10 -129zM1266 911q0 93 -20 176t-65 146t-117 100t-175 37t-189.5 -38t-156 -103t-121.5 -150.5t-86.5 -180t-52 -192.5t-17.5 -188q0 -229 97 -350t280 -121
q107 0 194.5 39t156.5 104.5t120 152.5t85 183t50.5 195t16.5 190z" />
    <glyph glyph-name="ohorn" unicode="&#x1a1;" 
d="M971 627q0 -81 -17.5 -161.5t-51 -153.5t-82.5 -135.5t-112 -108t-139.5 -71.5t-165.5 -26q-83 0 -145.5 30.5t-104.5 82t-63.5 120.5t-21.5 146q0 82 17.5 162t51 153t82.5 135.5t111.5 108t138 71.5t162.5 26q119 0 199 -61q144 15 178 115h-24q-98 -2 -80 81
q4 18 14.5 33.5t25 27.5t33 19t37.5 7q102 -8 73 -130q-36 -146 -209 -196v-1q93 -103 93 -274zM844 623q0 155 -59.5 235t-174.5 80q-74 0 -133.5 -25.5t-105.5 -69t-79 -101t-54.5 -122t-32 -131.5t-10.5 -129q0 -161 60 -241t175 -80q90 -2 166.5 43t132 124.5t86.5 187
t29 229.5z" />
    <glyph glyph-name="Uhorn" unicode="&#x1af;" horiz-adv-x="1597" 
d="M657 -33q-94 -2 -176 23.5t-142 70t-94 103t-32 123.5q0 58 18 131l191 815q6 30 6 51q0 20 -19.5 33t-46 21.5t-53.5 13t-41 6.5l13 61h501l-14 -61q-107 -11 -149 -34q-43 -22 -58 -91l-192 -838q-13 -46 -13 -100q0 -48 22 -90.5t64 -74.5t102.5 -50.5t137.5 -18.5
q83 0 162 19t146 58.5t116 101.5t72 147q12 44 36.5 147.5t61.5 268.5q74 332 74 403q0 64 -25 90q-13 20 -64.5 37.5t-121.5 24.5l12 61h367q-3 -11 -6 -21.5t-7 -20.5q115 22 146 110h-24q-98 -2 -80 81q4 18 14.5 33.5t25 27.5t33 19t37.5 7q102 -8 73 -130
q-39 -159 -240 -204q-23 -85 -41.5 -154t-31.5 -125l-47 -222q-11 -50 -35.5 -153.5t-62.5 -263.5q-30 -113 -87.5 -195.5t-137 -136t-178.5 -79t-212 -25.5z" />
    <glyph glyph-name="uhorn" unicode="&#x1b0;" horiz-adv-x="1106" 
d="M809 -14q-52 0 -81.5 30.5t-29.5 85.5l2 27h-6q-40 -32 -80 -59.5t-82 -48t-88.5 -32.5t-99.5 -12q-45 0 -83 13.5t-65.5 39t-43 62t-15.5 82.5q0 55 23 156l78 334q13 61 19.5 101t6.5 60q0 35 -15.5 53.5t-60.5 18.5q-34 0 -116 -20l14 53q126 63 207 63q98 0 98 -100
q0 -57 -20 -139l-86 -383q-27 -108 -27 -166q0 -60 41 -96.5t111 -36.5q41 0 85 15t86.5 38t80 51.5t65.5 56.5l176 746l103 10l12 -14l-6 -25q115 22 146 110h-24q-98 -2 -80 81q4 18 14.5 33.5t25 27.5t33 19t37.5 7q102 -8 73 -130q-39 -158 -238 -203l-139 -578
q-5 -24 -10.5 -48.5t-10 -46.5t-7.5 -40.5t-3 -29.5q0 -42 26.5 -56t80.5 -14q9 0 22.5 1t27.5 3t27 4.5t21 5.5l-10 -51q-116 -59 -215 -59z" />
    <glyph glyph-name="Aringacute" unicode="&#x1fa;" horiz-adv-x="1284" 
d="M1004 1647q66 -17 104.5 -62.5t38.5 -111.5q0 -46 -15.5 -86t-42.5 -71.5t-64 -53.5t-81 -31l148 -1018q12 -79 63 -113t107 -39l-13 -61h-489l12 61q48 6 79 11t47 9q31 9 47 23.5t16 38.5q0 34 -9 95l-32 264h-531l-143 -238q-51 -91 -51 -125q0 -31 50 -52.5
t134 -25.5l-12 -61h-519l13 61q88 7 152 50t112 127l641 1001q-54 20 -84.5 61.5t-30.5 98.5q0 78 41.5 141t116.5 94l266 193q69 51 121 51q26 0 45 -17t19 -46q0 -74 -99 -109zM1032 1470q0 57 -28 92t-82 35q-40 0 -70 -17t-50 -44t-30 -62t-10 -71q0 -54 30 -87.5
t82 -33.5q40 0 69.5 15.5t49 42t29.5 60.5t10 70zM823 1192l-389 -614h473z" />
    <glyph glyph-name="aringacute" unicode="&#x1fb;" horiz-adv-x="1124" 
d="M616 1487l-29 38l205 199q88 88 109 100q20 13 45 13q26 0 44.5 -20.5t18.5 -49.5q0 -22 -7 -38.5t-19 -29.5t-28 -23.5t-34 -20.5zM707 143l-62 -54q-128 -116 -262 -116q-82 0 -140.5 30.5t-96.5 82t-56 119t-18 141.5q0 84 21 165t60 154t94 136t124 111
q102 70 210 88q-71 15 -111 59t-40 110q0 59 22 107t60 81.5t88.5 51.5t107.5 18q42 0 81.5 -11.5t69.5 -34t48 -57t18 -81.5q1 -42 -13 -81t-40 -71t-62.5 -55.5t-81.5 -34.5q33 -4 64 -12.5t60 -20.5l39 -18l123 39l8 -12l-154 -662q-12 -55 -21 -96.5t-9 -68.5
q0 -68 86 -68q84 0 123 16l-11 -53q-19 -12 -46.5 -23t-57.5 -19.5t-59 -13.5t-52 -5q-110 0 -110 110q0 29 4 49h-8zM811 1241q0 57 -28.5 92t-82.5 35q-40 0 -70 -17t-50 -44.5t-30 -62.5t-10 -71q0 -54 29.5 -87t83.5 -33q40 0 69.5 15.5t49 42t29.5 60.5t10 70zM412 66
q34 0 70 9t75 28.5t82.5 51t93.5 76.5l127 543q0 43 -17 75t-45 53.5t-65 32.5t-76 11q-67 0 -128 -28t-111.5 -73.5t-89.5 -102.5t-64 -114q-61 -140 -61 -296q0 -123 52 -194.5t157 -71.5z" />
    <glyph glyph-name="AEacute" unicode="&#x1fc;" horiz-adv-x="1890" 
d="M1225 1518l-29 38l205 199q88 88 109 100q20 13 45 13q26 0 44.5 -20.5t18.5 -49.5q0 -22 -7 -38.5t-19 -29.5t-28 -23.5t-34 -20.5zM1946 1419l-80 -332h-62q-1 31 -5 72t-16.5 79.5t-36 67.5t-62.5 37q-37 9 -226 9h-209l-133 -580h170q38 0 69.5 3.5t58.5 14.5t50 31
t44 54q37 61 59 122h63l-123 -534h-61l2 76q0 79 -10 98q-18 35 -59 48t-111 13h-170l-101 -436q-12 -52 -12 -96q0 -53 43 -72q45 -20 176 -20q289 0 363 62q25 21 51.5 55t51.5 72t46.5 76t36.5 67h68l-121 -406h-1102l12 61q123 7 158 21q50 21 68 96l98 428h-461
q-150 -181 -258 -342q-47 -67 -47 -112q0 -20 6.5 -35t23 -26t44 -18.5t69.5 -11.5l-12 -61h-512l12 61q33 7 61.5 15.5t54 21t49 30.5t47.5 43q24 26 112.5 135.5t243.5 304.5t297 378t274 357q-24 8 -122 11l-38 1l17 61h1151zM1104 1337h-68l-499 -647h417z" />
    <glyph glyph-name="aeacute" unicode="&#x1fd;" horiz-adv-x="1436" 
d="M1116 1468q0 -40 -25 -74q-24 -34 -135 -135l-159 -145l-37 31l117 188q95 155 120 177q26 24 58 24q29 0 45 -20t16 -46zM1395 809q-2 -81 -37.5 -145.5t-112.5 -112.5t-201.5 -79t-304.5 -46q0 -184 56 -272t182 -88q169 0 317 204l49 -34q-35 -52 -81 -100t-100 -84
t-115 -57.5t-127 -21.5q-202 0 -277 197h-6q-88 -100 -172.5 -146.5t-177.5 -46.5q-125 0 -186.5 51t-61.5 144q0 62 19.5 113t53.5 91.5t80.5 71t101.5 51.5q64 25 128 41.5t129 26.5l106 17l13 46q24 74 24 132q0 41 -13.5 73.5t-37.5 56t-57.5 36t-73.5 12.5
q-51 0 -104 -17t-95 -44q0 -106 -22 -153.5t-76 -47.5q-31 0 -48 17t-17 48q0 39 21 74t52.5 63.5t68 50.5t68.5 35q93 40 183 40q102 0 164.5 -36t91.5 -120q67 73 160.5 114.5t199.5 41.5q115 0 175.5 -53t60.5 -144zM1163 940q-53 0 -102.5 -19.5t-92.5 -51.5t-79 -73
t-63 -83q-64 -104 -83 -224q53 5 105.5 10.5t103.5 16t100.5 28.5t94.5 47q69 45 101 101t32 125q0 60 -33 91.5t-84 31.5zM625 238q-9 47 -9 102q0 87 17 170q-44 -4 -95.5 -14t-102 -26.5t-97.5 -40.5t-83 -58t-57.5 -78t-21.5 -100q0 -60 33.5 -92.5t93.5 -32.5
q190 0 322 170z" />
    <glyph glyph-name="Oslashacute" unicode="&#x1fe;" horiz-adv-x="1446" 
d="M762 1518l-29 38l205 199q88 88 109 100q20 13 45 13q26 0 44.5 -20.5t18.5 -49.5q0 -22 -7 -38.5t-19 -29.5t-28 -23.5t-34 -20.5zM1425 870q0 -116 -28 -226.5t-80.5 -210t-128 -184.5t-171.5 -151q-193 -131 -388 -131q-238 0 -379 158l-152 -143l-55 57l158 151
q-92 148 -92 349q0 115 27.5 228t80 215t128 189.5t172.5 151.5q188 125 388 125q132 0 237 -51.5t171 -145.5l141 135l59 -59l-155 -147q67 -135 67 -310zM266 518q0 -142 35 -233l920 878q-91 207 -332 207q-103 0 -189.5 -38t-156 -103t-121.5 -150.5t-86.5 -180
t-52 -192.5t-17.5 -188zM1266 911q0 46 -4.5 86.5t-12.5 77.5l-913 -868q94 -160 307 -160q107 0 194.5 39t156.5 104.5t120 152.5t85 183t50.5 195t16.5 190z" />
    <glyph glyph-name="oslashacute" unicode="&#x1ff;" 
d="M854 1468q0 -40 -25 -74q-24 -34 -135 -135l-159 -145l-37 31l117 188q95 155 120 177q26 24 58 24q29 0 45 -20t16 -46zM971 627q0 -81 -17.5 -161.5t-51 -153.5t-82.5 -135.5t-112 -108t-139.5 -71.5t-165.5 -26q-170 0 -268 135l-121 -106l-43 45l133 117
q-36 90 -36 188q0 82 17.5 162t51 153t82.5 135.5t111.5 108t138 71.5t162.5 26q181 0 272 -138l109 97l43 -47l-121 -107q37 -81 37 -184zM195 360q0 -34 2 -61.5t6 -48.5l614 543q-51 145 -207 145q-74 0 -133.5 -25.5t-105.5 -69t-79 -101t-54.5 -122t-32 -131.5
t-10.5 -129zM844 623q0 65 -8 102l-615 -543q54 -143 209 -143q90 -2 166.5 43t132 124.5t86.5 187t29 229.5z" />
    <glyph glyph-name="uni0218" unicode="&#x218;" horiz-adv-x="1102" 
d="M504 -23q-129 0 -220.5 25.5t-160.5 79.5l-47 -82h-66l90 471h70q3 -90 18 -167.5t53.5 -134.5t106 -89.5t174.5 -32.5q79 0 144.5 23.5t113 67.5t73.5 108t26 145q0 79 -38.5 138.5t-101.5 86.5q-29 13 -66.5 28t-85.5 32q-155 54 -219 101q-63 48 -94.5 112t-31.5 139
q0 93 41 169.5t107 132t150 86t171 30.5q193 0 329 -98l43 71h68l-98 -465h-68v21q0 84 -9 157t-40.5 127t-92 84.5t-163.5 30.5q-66 0 -121.5 -22.5t-96.5 -62t-64 -95t-23 -121.5q0 -65 18.5 -107.5t51.5 -71t78 -48t98 -37.5q71 -25 141 -54t125.5 -71.5t90 -103
t34.5 -148.5q0 -100 -44 -183.5t-116 -144t-163 -94t-185 -33.5zM307 -389q42 4 72.5 13t52 24.5t35.5 39t23 56.5h-31q-51 0 -80 24t-29 64q0 48 31.5 75t79.5 27q25 0 46.5 -10t37 -27.5t24.5 -41.5t9 -52q0 -115 -72 -180t-209 -67z" />
    <glyph glyph-name="uni0219" unicode="&#x219;" horiz-adv-x="834" 
d="M246 754q0 -33 10.5 -60t34 -49.5t61.5 -42.5t92 -39q45 -16 94.5 -36t91 -49t68.5 -69.5t27 -97.5q0 -82 -30.5 -145t-83 -106t-121.5 -65t-146 -22q-136 0 -231 54q-93 56 -93 131q0 40 22 63t56 23q39 0 65 -38.5t34 -113.5q64 -49 186 -49q48 0 92 13.5t77.5 39.5
t54 65t20.5 91q0 68 -55.5 115t-155.5 82q-138 43 -200 104.5t-62 144.5q0 72 32 129t83.5 96.5t116 61t130.5 21.5q116 0 196 -41q81 -40 81 -103q0 -35 -17.5 -59.5t-52.5 -24.5q-42 0 -70 31.5t-49 108.5q-52 18 -121 18q-41 0 -83 -10.5t-76.5 -33t-56 -57t-21.5 -81.5z
M182 -389q42 4 72.5 13t52 24.5t35.5 39t23 56.5h-31q-51 0 -80 24t-29 64q0 48 31.5 75t79.5 27q25 0 46.5 -10t37 -27.5t24.5 -41.5t9 -52q0 -115 -72 -180t-209 -67z" />
    <glyph glyph-name="uni021A" unicode="&#x21a;" horiz-adv-x="1241" 
d="M739 1352h-61q-130 0 -189 -9q-51 -7 -96 -38t-82 -74.5t-64.5 -93t-43.5 -93.5h-70l88 375h1204l-84 -375h-65v14q0 30 -3 69t-13 77.5t-27 71.5t-46 51q-40 25 -239 25h-67l-260 -1131q-11 -39 -11 -71q0 -47 61 -66q31 -10 66.5 -15.5t77.5 -7.5l-12 -61h-606l12 61
l40 3q107 6 142 18q60 23 76 94zM336 -389q42 4 72.5 13t52 24.5t35.5 39t23 56.5h-31q-51 0 -80 24t-29 64q0 48 31.5 75t79.5 27q25 0 46.5 -10t37 -27.5t24.5 -41.5t9 -52q0 -115 -72 -180t-209 -67z" />
    <glyph glyph-name="uni021B" unicode="&#x21b;" horiz-adv-x="639" 
d="M244 176q0 -49 24 -70.5t84 -21.5q83 0 160 20l-12 -61q-116 -59 -230 -59q-69 0 -111 38.5t-42 104.5q0 51 14 115l154 655h-174l18 84h176l70 287h108l-65 -287h282l-18 -84h-285l-129 -561q-24 -97 -24 -160zM79 -389q42 4 72.5 13t52 24.5t35.5 39t23 56.5h-31
q-51 0 -80 24t-29 64q0 48 31.5 75t79.5 27q25 0 46.5 -10t37 -27.5t24.5 -41.5t9 -52q0 -115 -72 -180t-209 -67z" />
    <glyph glyph-name="uni0237" unicode="&#x237;" horiz-adv-x="520" 
d="M299 838q0 32 -17.5 50.5t-68.5 18.5q-11 0 -27 -1.5t-33.5 -4.5t-33 -6.5t-25.5 -7.5l10 55q29 15 58.5 27t57 20.5t52 12.5t43.5 4q111 0 111 -111q0 -26 -4 -57t-12 -68q-48 -238 -150 -711q-14 -63 -38 -126.5t-58.5 -121t-79.5 -106.5t-101 -85q-98 -64 -198 -64
q-51 0 -81 26t-30 68q0 32 18.5 54t53.5 22q20 0 36.5 -8t30.5 -21t25.5 -28.5t22.5 -30.5q102 0 167 96t107 289l70 311q94 412 94 504z" />
    <glyph glyph-name="circumflex" unicode="&#x2c6;" horiz-adv-x="1024" 
d="M930 1126l-197 265l-315 -265l-41 43l303 334q32 35 72 35q44 0 63 -43l162 -338z" />
    <glyph glyph-name="caron" unicode="&#x2c7;" horiz-adv-x="1024" 
d="M483 1538l197 -264l315 264l41 -43l-303 -334q-17 -18 -32.5 -26.5t-38.5 -8.5q-42 0 -64 43l-162 338z" />
    <glyph glyph-name="uni02C9" unicode="&#x2c9;" horiz-adv-x="1024" 
d="M385 1305l21 108h643l-21 -108h-643z" />
    <glyph glyph-name="breve" unicode="&#x2d8;" horiz-adv-x="1024" 
d="M1026 1470q-57 -172 -143.5 -260t-218.5 -88q-254 0 -254 357l49 8q15 -120 69.5 -172.5t151.5 -52.5q59 0 103.5 16.5t78.5 46.5t61 71.5t52 90.5z" />
    <glyph glyph-name="dotaccent" unicode="&#x2d9;" horiz-adv-x="1024" 
d="M707 1284q-76 0 -76 88q0 54 27.5 85.5t66.5 31.5q78 0 78 -88q0 -25 -7.5 -46.5t-20.5 -37.5t-30.5 -24.5t-37.5 -8.5z" />
    <glyph glyph-name="ring" unicode="&#x2da;" horiz-adv-x="1024" 
d="M680 1120q-50 0 -90.5 12.5t-69 35.5t-44 55.5t-15.5 72.5q0 59 22 107t60 81.5t88.5 51.5t107.5 18q42 0 81.5 -11.5t69.5 -34t48 -57t18 -81.5q1 -51 -19.5 -97t-57.5 -80.5t-88 -54t-111 -18.5zM842 1368q0 57 -28.5 92t-82.5 35q-40 0 -70 -17t-50 -44.5t-30 -62.5
t-10 -71q0 -54 29.5 -87t83.5 -33q40 0 69.5 15.5t49 42t29.5 60.5t10 70z" />
    <glyph glyph-name="ogonek" unicode="&#x2db;" horiz-adv-x="1024" 
d="M414 -444q-114 0 -176 41.5t-62 113.5q0 82 76.5 168t218.5 160h53q-103 -64 -158 -141t-55 -150q0 -64 48.5 -92.5t156.5 -30.5l-12 -69h-90z" />
    <glyph glyph-name="tilde" unicode="&#x2dc;" horiz-adv-x="1024" 
d="M1053 1460q-36 -103 -97 -158t-137 -54q-50 0 -86 15t-67 33.5t-60 34t-65 16.5q-40 -1 -69 -27q-14 -13 -31.5 -38.5t-39.5 -63.5l-53 22q17 36 37.5 73.5t47.5 69t62 51.5t80 20q47 0 83.5 -15.5t67.5 -34.5t59 -34.5t59 -15.5q33 0 56 10.5t40.5 28.5t30.5 41.5
t26 50.5z" />
    <glyph glyph-name="hungarumlaut" unicode="&#x2dd;" horiz-adv-x="1024" 
d="M725 1468q0 -18 -5.5 -35.5t-17.5 -35.5t-31 -39t-46 -47l-199 -197l-39 27l103 190q20 37 37.5 67.5t33.5 53.5q32 48 49 63q19 18 47 19q29 0 48.5 -20t19.5 -46zM1065 1468q0 -18 -5.5 -35.5t-17.5 -35.5t-31 -39t-46 -47l-199 -197l-39 27l103 190q20 37 37.5 67.5
t33.5 53.5q32 48 49 63q19 18 47 19q29 0 48.5 -20t19.5 -46z" />
    <glyph glyph-name="gravecomb" unicode="&#x300;" horiz-adv-x="1024" 
d="M500 1798q0 29 18.5 49.5t44.5 20.5t47 -13.5t52 -44.5q134 -134 260 -254l-29 -38l-305 168q-18 10 -34 20.5t-28 23t-19 29.5t-7 39z" />
    <glyph glyph-name="acutecomb" unicode="&#x301;" horiz-adv-x="1024" 
d="M553 1518l-29 38l205 199q88 88 109 100q20 13 45 13q26 0 44.5 -20.5t18.5 -49.5q0 -22 -7 -38.5t-19 -29.5t-28 -23.5t-34 -20.5z" />
    <glyph glyph-name="uni0302" unicode="&#x302;" horiz-adv-x="1024" 
d="M1024 1538l-49 -31l-236 211l-319 -211l-47 31l291 285q18 18 39.5 31.5t60.5 13.5q43 0 57 -14q16 -14 23 -27z" />
    <glyph glyph-name="uni0306" unicode="&#x306;" horiz-adv-x="1024" 
d="M1065 1853q-57 -160 -145 -241.5t-220 -81.5q-256 0 -256 328l56 14q15 -115 68 -163t149 -48q59 0 102.5 15.5t77 43.5t60.5 67t53 85z" />
    <glyph glyph-name="uni0308" unicode="&#x308;" horiz-adv-x="1024" 
d="M606 1745q0 -42 -23 -71t-65 -29t-65 29t-23 71q0 43 23 72.5t65 29.5t65 -29.5t23 -72.5zM1014 1745q0 -42 -23 -71t-65 -29t-65 29t-23 71q0 43 23 72.5t65 29.5t65 -29.5t23 -72.5z" />
    <glyph glyph-name="uni030B" unicode="&#x30b;" horiz-adv-x="1024" 
d="M438 1518l-28 38q70 78 120 131.5t81 85.5q32 32 53.5 51.5t32.5 27.5q22 16 51 16q26 0 44.5 -20.5t18.5 -49.5q0 -22 -7 -38.5t-19 -29.5t-28 -23.5t-34 -20.5zM774 1518l-29 38l129 137q13 15 34 38t44 46.5t45.5 44.5t37.5 31q21 15 48 15q26 0 45 -20.5t19 -49.5
q0 -22 -7 -38.5t-19 -29.5t-28 -23.5t-34 -20.5z" />
    <glyph glyph-name="uni030C" unicode="&#x30c;" horiz-adv-x="1024" 
d="M1067 1837l-289 -285q-12 -11 -21.5 -19.5t-17.5 -14.5q-14 -11 -61 -11q-42 0 -56 13q-7 7 -13 14t-11 14l-180 289l49 33l233 -213l322 213z" />
    <glyph glyph-name="uni0326" unicode="&#x326;" horiz-adv-x="1024" 
d="M227 -389q42 4 72.5 13t52 24.5t35.5 39t23 56.5h-31q-51 0 -80 24t-29 64q0 48 31.5 75t79.5 27q25 0 46.5 -10t37 -27.5t24.5 -41.5t9 -52q0 -115 -72 -180t-209 -67z" />
    <glyph glyph-name="tonos" unicode="&#x384;" horiz-adv-x="1024" 
d="M649 1143h-57l170 416h180v-19z" />
    <glyph glyph-name="dieresistonos" unicode="&#x385;" horiz-adv-x="1024" 
d="M659 1143h-43l74 375h160v-19zM1028 1315q0 -45 -25 -73t-67 -28t-69 28t-27 73q0 43 27 71.5t69 28.5t67 -28.5t25 -71.5zM573 1315q0 -45 -27 -73t-69 -28t-67 28t-25 73q0 43 25 71.5t67 28.5t69 -28.5t27 -71.5z" />
    <glyph glyph-name="Alphatonos" unicode="&#x386;" horiz-adv-x="1284" 
d="M1249 0h-489l12 61q48 6 79 11t47 9q31 9 47 23.5t16 38.5q0 34 -9 95l-32 264h-531l-143 -238q-51 -91 -51 -125q0 -31 50 -52.5t134 -25.5l-12 -61h-519l13 61q88 7 152 50t112 127l772 1202h18l177 -1227q12 -79 63 -113t107 -39zM252 1006h-57l170 416h180v-19z
M823 1192l-389 -614h473z" />
    <glyph glyph-name="anoteleia" unicode="&#x387;" horiz-adv-x="588" 
d="M475 883q0 -24 -8.5 -44t-23 -34.5t-34 -22.5t-42.5 -8q-45 0 -75 30.5t-30 78.5q0 23 8.5 41.5t22.5 32t33.5 21t40.5 7.5t40.5 -8t34.5 -21.5t24 -32.5t9 -40z" />
    <glyph glyph-name="Epsilontonos" unicode="&#x388;" horiz-adv-x="1587" 
d="M182 1006h-57l170 416h180v-19zM1643 1419l-80 -332h-61q-7 244 -136 259q-108 6 -210 6h-252l-133 -580h213q85 0 133 20q47 20 83.5 75.5t63.5 129.5h64l-123 -534h-62l2 76q0 79 -10 98q-18 35 -59 48t-111 13h-213l-100 -436q-13 -55 -13 -96q0 -53 43 -72
q45 -20 177 -20q156 0 260.5 15t138.5 42q82 64 192 275h68l-121 -406h-1145l13 61q122 7 157 21q50 21 68 96l246 1057q6 30 6 49q0 52 -144 70l-30 4l12 61h1063z" />
    <glyph glyph-name="Etatonos" unicode="&#x389;" horiz-adv-x="1888" 
d="M182 1006h-57l170 416h180v-19zM1625 1284q0 19 -19.5 32.5t-46 22t-53.5 13t-41 6.5l12 61h502l-14 -61q-95 -9 -142 -30q-45 -19 -63 -93l-234 -1018q-5 -23 -7.5 -40t-2.5 -27q0 -18 5 -30t14 -20.5t22 -14.5t28 -11q39 -13 80 -13l-16 -61h-496l13 61l37 3
q34 3 62 7.5t49 16t36 33t23 57.5l120 522h-739l-110 -483q-11 -39 -11 -67q0 -18 5 -30t14 -20.5t21.5 -14.5t28.5 -11q40 -13 81 -13l-17 -61h-495l12 61l37 3q34 3 62 7.5t49 16t36 33t23 57.5l246 1057q6 30 6 49q0 20 -19.5 33t-46 21.5t-53.5 13t-41 6.5l12 61h502
l-14 -61q-99 -9 -144 -31t-61 -92l-104 -459h739l106 459q4 17 5.5 29.5t1.5 19.5z" />
    <glyph glyph-name="Iotatonos" unicode="&#x38a;" horiz-adv-x="1008" 
d="M182 1006h-57l170 416h180v-19zM742 1276q0 24 -23.5 39t-55 24.5t-63.5 13.5t-49 5l13 61h565l-14 -61q-105 -7 -164 -29q-57 -20 -74 -92l-233 -1016q-11 -39 -11 -69q0 -45 51 -65.5t134 -25.5l-13 -61h-565l12 61q129 9 152 17q69 26 86 98l244 1051q8 30 8 49z" />
    <glyph glyph-name="Omicrontonos" unicode="&#x38c;" horiz-adv-x="1665" 
d="M1644 870q0 -116 -28 -226.5t-80.5 -210t-128 -184.5t-171.5 -151q-193 -131 -388 -131q-127 0 -224 44.5t-163 121.5t-99.5 181.5t-33.5 224.5q0 115 27.5 228t80 215t128 189.5t172.5 151.5q188 125 388 125q237 0 378 -159q142 -157 142 -419zM182 1006h-57l170 416
h180v-19zM1485 911q0 93 -20 176t-65 146t-117 100t-175 37t-189.5 -38t-156 -103t-121.5 -150.5t-86.5 -180t-52 -192.5t-17.5 -188q0 -229 97 -350t280 -121q107 0 194.5 39t156.5 104.5t120 152.5t85 183t50.5 195t16.5 190z" />
    <glyph glyph-name="Upsilontonos" unicode="&#x38e;" horiz-adv-x="1540" 
d="M182 1006h-57l170 416h180v-19zM927 143q0 -31 40 -50q42 -20 167 -32l-12 -61h-606l12 61l40 3q108 6 144 18q58 23 74 94l72 307q14 65 14 82q0 59 -58 249q-29 97 -59.5 191t-62.5 187q-13 38 -26.5 67t-32.5 49.5t-47 33t-72 16.5l16 61h473l-14 -61l-54 -3
q-116 -6 -116 -50q0 -54 176 -621q67 82 136 166t130.5 159.5t111 137.5t77.5 100q16 22 16 45q0 54 -116 62l-60 4l16 61h486l-17 -61q-29 -4 -53 -10t-45.5 -15t-41.5 -23t-41 -35q-21 -20 -62.5 -65.5t-104.5 -117.5t-121.5 -142.5t-115.5 -140.5t-90.5 -114t-45.5 -62
q-23 -37 -36 -73q-6 -19 -26 -105t-54 -242q-11 -42 -11 -70z" />
    <glyph glyph-name="Omegatonos" unicode="&#x38f;" horiz-adv-x="1733" 
d="M1511 0h-532l12 51q106 115 177.5 197t109.5 133q50 68 89.5 133.5t67 134.5t42 144.5t14.5 162.5q0 86 -22 161.5t-67 131.5t-113.5 88.5t-160.5 32.5q-99 0 -177.5 -34t-138.5 -92t-103 -134.5t-70 -162t-39.5 -174.5t-12.5 -171q0 -135 39.5 -268.5t120.5 -282.5
l-12 -51h-481l-45 360h57q57 -223 164 -223h186l10 43q-54 93 -87.5 156.5t-48.5 98.5q-30 72 -45 142.5t-15 155.5q0 100 26 191.5t72.5 171t112 144.5t145.5 111t171.5 71.5t189.5 25.5q108 2 200.5 -34.5t160.5 -101.5t106 -153.5t36 -189.5q0 -133 -36.5 -237.5
t-99 -195.5t-147 -176.5t-180.5 -179.5l-8 -43h201q45 0 81.5 24.5t65.5 56.5q19 20 45.5 54t61.5 84l51 -24zM182 1006h-57l170 416h180v-19z" />
    <glyph glyph-name="iotadieresistonos" unicode="&#x390;" horiz-adv-x="512" 
d="M382 1143h-43l74 375h160v-19zM751 1315q0 -45 -25 -73t-67 -28t-69 28t-27 73q0 43 27 71.5t69 28.5t67 -28.5t25 -71.5zM296 1315q0 -45 -27 -73t-69 -28t-67 28t-25 73q0 43 25 71.5t67 28.5t69 -28.5t27 -71.5zM387 989l10 -12l-151 -655q-16 -67 -23.5 -109.5
t-7.5 -60.5q0 -42 26 -56t64 -14q68 0 119 16l-10 -53q-115 -61 -217 -61q-109 0 -109 112q0 45 18 117l179 766z" />
    <glyph glyph-name="Alpha" unicode="&#x391;" horiz-adv-x="1284" 
d="M1249 0h-489l12 61q48 6 79 11t47 9q31 9 47 23.5t16 38.5q0 34 -9 95l-32 264h-531l-143 -238q-51 -91 -51 -125q0 -31 50 -52.5t134 -25.5l-12 -61h-519l13 61q88 7 152 50t112 127l772 1202h18l177 -1227q12 -79 63 -113t107 -39zM823 1192l-389 -614h473z" />
    <glyph glyph-name="Beta" unicode="&#x392;" horiz-adv-x="1272" 
d="M463 1284q0 20 -19.5 33t-46 21.5t-53.5 13t-41 6.5l12 61h590q81 0 159 -34q81 -33 122 -87.5t41 -126.5q0 -87 -32 -155t-86.5 -118.5t-125.5 -83.5t-149 -50l2 -2q162 -27 250 -107.5t88 -197.5q0 -76 -28 -141.5t-74.5 -118t-107.5 -92.5t-127 -66q-100 -39 -182 -39
h-663l12 61l37 3q34 3 62 7.5t49 16t36 33t23 57.5l246 1057q6 30 6 49zM1063 1165q0 90 -64 138.5t-184 48.5l-194 -4l-127 -564h174q89 -2 162 27.5t125 81.5t80.5 122.5t27.5 149.5zM1012 492q0 95 -86 160t-211 65l-240 -4l-104 -457q-13 -55 -13 -88q0 -51 57 -78
t169 -27q122 0 215 54t153 161q60 108 60 214z" />
    </font>
</defs>
</svg>
