<?xml version="1.0" standalone="no"?>
<!DOCTYPE svg PUBLIC "-//W3C//DTD SVG 1.1//EN" "http://www.w3.org/Graphics/SVG/1.1/DTD/svg11.dtd" >
<svg xmlns="http://www.w3.org/2000/svg" xmlns:xlink="http://www.w3.org/1999/xlink" version="1.1">
<metadata>
Created by FontForge 20201107 at Thu Oct 21 09:39:35 2021
 By 
(c) 2011 Microsoft Corporation. All Rights Reserved.
</metadata>
<defs>
<font id="SVN-GeorgiaPro-SemiBoldItalic" horiz-adv-x="1321" >
  <font-face 
    font-family="SVN-Georgia Pro SemiBold"
    font-weight="600"
    font-style="italic"
    font-stretch="normal"
    units-per-em="2048"
    panose-1="2 4 7 2 5 4 5 9 3 3"
    ascent="1638"
    descent="-410"
    x-height="981"
    cap-height="1419"
    bbox="-449 -621 2613 2247"
    underline-thickness="102"
    underline-position="-205"
    slope="-13"
    unicode-range="U+0020-FB04"
  />
<missing-glyph horiz-adv-x="2048" 
d="M256 0v1536h1536v-1536h-1536zM385 129h1280v1280h-1280v-1280z" />
    <glyph glyph-name="f_f" unicode="ff" horiz-adv-x="1401" 
d="M1780 1397q0 -28 -9.5 -51.5t-26.5 -41t-40.5 -27t-50.5 -9.5q-102 0 -167 137l-32 63q-57 -27 -100 -119.5t-80 -265.5l-25 -110h254l-24 -96h-248l-22 -109q-46 -216 -82.5 -379t-65.5 -278q-16 -66 -43.5 -132.5t-65.5 -127.5t-86 -113.5t-105 -90.5
q-106 -71 -210 -71q-103 0 -159 39t-56 117q0 57 32 92t81 35q95 0 153 -138l29 -63q22 11 44.5 42.5t43.5 81t40.5 115.5t35.5 146l176 834h-412q-57 -287 -101 -490t-75 -328q-14 -62 -41.5 -123t-66.5 -117t-88 -104t-105.5 -83.5t-119.5 -55.5t-130 -20
q-114 0 -171.5 39.5t-57.5 115.5q0 27 9.5 50t26 40.5t39.5 27t50 9.5q104 0 169 -137l31 -63q122 53 189 385l180 854h-195l23 96h194l13 47q24 103 85 194.5t145.5 160.5t187 109t208.5 40q213 0 259 -117q157 143 333 143q114 0 172 -39t58 -114zM1096 1266
q-81 0 -141.5 40t-114.5 136q-172 -66 -252 -426l-10 -43h415l17 74q24 116 86 219z" />
    <glyph glyph-name="fi" unicode="fi" horiz-adv-x="1315" 
d="M920 821q0 34 -25 56h-338q-57 -278 -100 -481.5t-74 -336.5q-21 -92 -73 -181.5t-125.5 -160t-165 -114t-191.5 -43.5q-109 0 -167 39.5t-58 111.5q0 57 35 93t92 36q98 0 168 -139l32 -63q115 51 187 385l180 854h-195q6 20 12 44t11 52h194q39 248 228 411
q191 164 422 164q144 0 222.5 -46.5t78.5 -133.5q0 -25 -10.5 -49.5t-29 -44.5t-44.5 -32.5t-56 -12.5q-39 0 -69.5 12.5t-53 40.5t-37 72.5t-22.5 107.5q-132 0 -221.5 -103.5t-130.5 -293.5l-18 -92h376l254 22l13 -14l-150 -633q-20 -83 -24 -145q0 -57 25 -78t85 -21
q50 0 117 23l-19 -76q-171 -71 -268 -71q-96 0 -150.5 46.5t-54.5 131.5q0 17 3 38.5t8 49.5l122 530q2 14 3.5 25.5t1.5 19.5z" />
    <glyph glyph-name="fl" unicode="fl" horiz-adv-x="1354" 
d="M948 1466q-133 0 -223.5 -108.5t-132.5 -306.5l-17 -78h254l-24 -96h-248q-57 -278 -100 -481.5t-74 -336.5q-14 -62 -41.5 -123t-66.5 -117t-88 -104t-105.5 -83.5t-119.5 -55.5t-130 -20q-112 0 -170.5 40t-58.5 115q0 57 35 93t92 36q98 0 168 -139l32 -63
q115 51 187 385l180 854h-195q6 20 12 44t11 52h192l9 31q38 176 139 300q51 63 111.5 109t125.5 76t134.5 44.5t138.5 14.5q156 0 262 -41l125 41l10 -16l-274 -1186q-25 -93 -25 -145q0 -57 27 -78t90 -21q12 0 28.5 2t34 5.5t33.5 7.5t27 8l-19 -76q-172 -72 -276 -72
q-100 0 -154.5 48.5t-54.5 132.5l10 84l19 92l223 964q8 24 8 56q0 48 -33 80t-88 32z" />
    <glyph glyph-name="f_f_i" unicode="ffi" horiz-adv-x="1991" 
d="M1231 877l-22 -109q-46 -216 -82.5 -379t-65.5 -278q-16 -66 -43.5 -132.5t-65.5 -127.5t-86 -113.5t-105 -90.5q-106 -71 -210 -71q-103 0 -159 39t-56 117q0 57 32 92t81 35q95 0 153 -138l29 -63q22 11 44.5 42.5t43.5 81t40.5 115.5t35.5 146l176 834h-412
q-57 -287 -101 -490t-75 -328q-14 -62 -41.5 -123t-66.5 -117t-88 -104t-105.5 -83.5t-119.5 -55.5t-130 -20q-114 0 -171.5 39.5t-57.5 115.5q0 27 9.5 50t26 40.5t39.5 27t50 9.5q104 0 169 -137l31 -63q122 53 189 385l180 854h-195l23 96h194l13 47q24 103 85 194.5
t145.5 160.5t187 109t208.5 40q114 0 183 -36t82 -106l6 7q191 159 416 159q144 0 222.5 -46.5t78.5 -133.5q0 -25 -10.5 -49.5t-29 -44.5t-44.5 -32.5t-56 -12.5q-39 0 -69.5 12.5t-53 40.5t-37 72.5t-22.5 107.5q-132 0 -221.5 -103.5t-130.5 -293.5l-19 -92h377l254 22
l12 -14l-149 -633q-11 -45 -17 -81t-8 -64q0 -57 25.5 -78t85.5 -21q50 0 117 23l-19 -76q-171 -71 -268 -71q-96 0 -150.5 46.5t-54.5 131.5q0 38 10 88l123 530q4 20 4 45q0 34 -24 56h-340zM993 973q31 170 121 293q-45 0 -83 9t-71.5 30t-63 54.5t-56.5 82.5
q-155 -59 -244 -385l-18 -84h415z" />
    <glyph glyph-name="f_f_l" unicode="ffl" horiz-adv-x="2028" 
d="M1225 1403q41 37 92 64.5t106.5 45.5t113.5 26.5t112 8.5q156 0 262 -41l125 41l10 -16l-274 -1186q-25 -93 -25 -145q0 -57 27 -78t90 -21q30 0 62 6.5t61 16.5l-19 -76q-172 -72 -276 -72q-97 0 -153 47t-56 134l10 84l18 92l224 964q8 24 8 56q0 48 -33 80t-88 32
q-133 0 -223.5 -108.5t-132.5 -306.5l-17 -78h254l-24 -96h-248q-30 -143 -49.5 -234t-28.5 -131q-8 -40 -17.5 -81.5t-20.5 -86.5q-19 -87 -54 -231q-16 -66 -43 -132.5t-64.5 -127t-85.5 -113t-105 -91.5q-106 -73 -212 -73q-103 0 -159 39t-56 117q0 57 32 92t81 35
q95 0 153 -138l29 -63q22 11 44.5 42.5t43.5 81t40.5 115.5t35.5 146l176 834h-412q-57 -287 -101 -490t-75 -328q-14 -62 -41.5 -123t-66.5 -117t-88 -104t-105.5 -83.5t-119.5 -55.5t-130 -20q-114 0 -171.5 39.5t-57.5 115.5q0 27 9.5 50t26 40.5t39.5 27t50 9.5
q104 0 169 -137l31 -63q122 53 189 385l180 854h-195l23 96h194l13 47q24 103 85 194.5t145.5 160.5t187 109t208.5 40q103 0 174 -32t93 -89zM1096 1266q-81 0 -141.5 40t-114.5 136q-172 -66 -252 -426l-10 -43h415l17 74q24 116 86 219z" />
    <glyph glyph-name="f_j" unicode="fj" horiz-adv-x="1290" 
d="M1221 981l-23 -107l-75 -384q-78 -414 -123 -525q-30 -73 -77.5 -143t-110 -124.5t-137 -88t-157.5 -33.5q-106 0 -162.5 39t-56.5 117q0 55 32.5 91t86.5 36q95 0 158 -138l30 -63q102 67 166 385q20 90 51.5 243t73.5 373q23 118 23 162q0 34 -25 56h-338
q-57 -278 -100 -481.5t-74 -336.5q-21 -92 -73 -181.5t-125.5 -160t-165 -114t-191.5 -43.5q-109 0 -167 39.5t-58 111.5q0 57 35 93t92 36q98 0 168 -139l32 -63q115 51 187 385l180 854h-195q6 20 12 44t11 52h194q39 248 228 411q191 164 422 164q144 0 222.5 -46.5
t78.5 -133.5q0 -25 -10.5 -49.5t-29 -44.5t-44.5 -32.5t-56 -12.5q-39 0 -69.5 12.5t-53 40.5t-37 72.5t-22.5 107.5q-132 0 -221.5 -103.5t-130.5 -293.5l-18 -92h376l254 22z" />
    <glyph glyph-name=".notdef" horiz-adv-x="2048" 
d="M256 0v1536h1536v-1536h-1536zM385 129h1280v1280h-1280v-1280z" />
    <glyph glyph-name=".null" horiz-adv-x="0" 
 />
    <glyph glyph-name="uni000D" horiz-adv-x="506" 
 />
    <glyph glyph-name="space" unicode=" " horiz-adv-x="506" 
 />
    <glyph glyph-name="space" unicode="&#xa0;" horiz-adv-x="506" 
 />
    <glyph glyph-name="exclam" unicode="!" horiz-adv-x="723" 
d="M315 446l24 331l19 308q11 150 34 220q24 73 69.5 107t120.5 34q63 0 97 -30.5t34 -78.5q0 -49 -27 -125t-75 -195q-60 -149 -114 -291t-104 -280h-78zM459 135q0 -33 -13 -62.5t-35.5 -51t-52.5 -34t-63 -12.5q-34 0 -64 12t-52.5 33.5t-36 51t-13.5 63.5t13.5 63.5
t36.5 51.5t53 34.5t63 12.5t62.5 -13t52 -35t36 -51.5t13.5 -62.5z" />
    <glyph glyph-name="quotedbl" unicode="&#x22;" horiz-adv-x="944" 
d="M582 1423q0 -42 -33 -116l-34 -74q-50 -103 -88 -187.5t-65 -150.5h-69q0 64 2 166.5t6 245.5q2 62 12.5 104.5t31 68.5t50.5 38t70 12q57 0 87 -31t30 -76zM1018 1423q0 -44 -33 -116l-34 -74q-46 -96 -84 -180t-68 -158h-70q0 64 2 166.5t6 245.5q2 62 12.5 104.5
t31 68.5t50.5 38t70 12q57 0 87 -31t30 -76z" />
    <glyph glyph-name="numbersign" unicode="#" horiz-adv-x="1378" 
d="M1008 745l-99 -253h267l-13 -142h-307l-135 -350h-131l135 350h-223l-133 -350h-131l135 350h-211l14 142h250l98 253h-268q5 54 8.5 89t5.5 53h308l135 352h131l-137 -352h225l135 352h129l-135 -352h211l-15 -142h-249zM651 748l-98 -259h227l101 259h-230z" />
    <glyph glyph-name="dollar" unicode="$" horiz-adv-x="1280" 
d="M608 549q-63 17 -128.5 40t-118.5 60.5t-87 92t-34 132.5q-1 56 17 109t52.5 100t83.5 86.5t109 68t129.5 45t144.5 17.5l51 224h97l-54 -224q174 -13 267.5 -81t93.5 -179q0 -28 -9.5 -56t-26.5 -50t-42 -35.5t-55 -13.5q-60 0 -95.5 29.5t-35.5 78.5q0 73 43 166
q-20 16 -37 27t-35 18.5t-38 12t-46 6.5l-102 -451q194 -43 290.5 -129.5t96.5 -210.5q0 -75 -24 -136.5t-65 -110.5t-96.5 -86t-118.5 -62t-130 -38.5t-132 -16.5l-61 -281h-96l65 281q-176 5 -291 85q-114 83 -114 205q0 33 10 63.5t28.5 54t46 38t62.5 14.5
q63 0 97 -31.5t34 -80.5q0 -27 -9 -60q-7 -29 -44 -120q60 -82 197 -91zM760 1221q-148 -7 -223.5 -70.5t-75.5 -163.5q0 -81 49 -127.5t152 -71.5zM915 322q0 165 -217 210l-108 -473q61 2 119.5 17.5t104 47t73.5 80.5t28 118z" />
    <glyph glyph-name="percent" unicode="%" horiz-adv-x="1737" 
d="M934 1157q0 -93 -34 -174t-93 -141t-139 -94.5t-172 -34.5q-69 0 -126 19.5t-98 57t-63.5 92.5t-22.5 126q0 92 34 173.5t93.5 142.5t139.5 96.5t172 35.5q69 0 125.5 -20.5t97.5 -59t63.5 -94t22.5 -125.5zM254 0h-150l1455 1425h151zM725 1206q0 180 -113 180
q-95 0 -155 -123t-60 -307q0 -78 26.5 -127t86.5 -49q92 0 153 123q62 124 62 303zM1624 412q0 -94 -33 -175t-91.5 -141t-138.5 -94.5t-173 -34.5q-70 0 -127 19.5t-98 57.5t-63.5 93t-22.5 127q0 93 34 174t93.5 142t140 96t172.5 35q69 0 125.5 -20.5t97 -59t62.5 -94
t22 -125.5zM1415 461q0 81 -26.5 130.5t-85.5 49.5q-93 0 -155 -122q-61 -121 -61 -308q0 -79 27.5 -126.5t87.5 -47.5q89 0 151 122t62 302z" />
    <glyph glyph-name="ampersand" unicode="&#x26;" horiz-adv-x="1544" 
d="M928 0q-72 110 -103 164q-49 -40 -100.5 -76.5t-107 -63.5t-115 -43t-125.5 -16q-73 0 -138.5 19.5t-115 58.5t-78.5 98t-29 138q0 99 40 175.5t103.5 136.5t143.5 105.5t160 81.5q-19 35 -36.5 68.5t-30.5 68t-21 71t-8 77.5q0 92 37 164.5t98.5 123t140.5 77t164 26.5
q54 0 106.5 -13.5t94 -42t67 -72.5t25.5 -105q0 -79 -33 -140.5t-85.5 -110.5t-117 -86.5t-127.5 -68.5q40 -74 101.5 -179t146.5 -243q83 88 154 204q71 115 71 159q0 26 -42.5 42.5t-114.5 30.5l16 70h547l-17 -70q-35 -3 -67.5 -8t-62.5 -15t-57.5 -25.5t-53.5 -41.5
q-14 -14 -46 -54.5t-83 -109.5q-58 -77 -108 -137.5t-95 -105.5q25 -38 52.5 -77.5t60 -73.5t71 -59.5t86.5 -36.5q34 -7 134 -15l-17 -70h-485zM954 1214q0 72 -37 112t-106 40q-44 0 -80 -17t-62 -46t-40.5 -67.5t-14.5 -80.5q0 -62 23 -126.5t68 -151.5q249 129 249 337z
M786 223q-101 164 -173 286.5t-117 207.5q-103 -66 -153 -155.5t-50 -192.5q0 -55 16 -101t46.5 -79t75 -51.5t101.5 -18.5q71 0 131 26t123 78z" />
    <glyph glyph-name="quotesingle" unicode="'" horiz-adv-x="496" 
d="M582 1423q0 -42 -33 -116l-34 -74q-50 -103 -88 -187.5t-65 -150.5h-69q0 64 2 166.5t6 245.5q2 62 12.5 104.5t31 68.5t50.5 38t70 12q57 0 87 -31t30 -76z" />
    <glyph glyph-name="parenleft" unicode="(" horiz-adv-x="842" 
d="M604 -328q-130 17 -225 73.5t-157.5 142t-93 195.5t-30.5 234q0 143 26.5 284.5t81 272t137.5 246.5t195 209q211 173 449 203l-16 -86q-72 -12 -134.5 -48t-115 -87.5t-96.5 -115t-79.5 -132t-62 -137.5t-45.5 -131q-84 -277 -84 -568q0 -212 68.5 -330t200.5 -143z" />
    <glyph glyph-name="parenright" unicode=")" horiz-adv-x="842" 
d="M780 887q0 -144 -26 -286t-80 -273t-137.5 -247t-198.5 -209q-209 -170 -447 -200l19 84q72 13 134.5 49t115 88t96.5 115.5t79 131.5t61.5 137.5t45.5 132.5q82 273 82 565q0 211 -67 331t-199 144l16 82q130 -18 225 -74.5t157.5 -142t93 -195t30.5 -233.5z" />
    <glyph glyph-name="asterisk" unicode="*" horiz-adv-x="977" 
d="M1022 1092q0 -42 -23.5 -61t-58.5 -19q-16 0 -40 7q-160 38 -241 48q44 -59 81 -98.5t63.5 -68t41.5 -51t15 -46.5q0 -15 -7 -28t-19 -23.5t-27 -16.5t-31 -6q-56 0 -80 82q-22 75 -42 132.5t-38 100.5q-30 -68 -78 -233q-24 -82 -83 -82q-15 0 -29.5 6t-26 16t-19 23.5
t-7.5 28.5q0 24 15 46.5t42 51t64 68t81 98.5q-82 -10 -240 -48q-25 -7 -42 -7q-35 0 -58.5 19t-23.5 61q0 37 23.5 57t58.5 20q15 0 42 -6q86 -20 145.5 -31.5t94.5 -15.5q-44 58 -81 97.5t-64 68.5t-42 51.5t-15 46.5q0 15 7.5 28.5t19.5 23.5t26.5 16t28.5 6q58 0 83 -81
q49 -165 78 -232q17 42 37 99.5t43 132.5q26 81 80 81q14 0 29 -6t27 -16t20 -23.5t8 -28.5q0 -25 -15 -47.5t-41.5 -51t-63.5 -68t-81 -97.5q57 7 178 33q46 10 71.5 15t31.5 5q35 0 58.5 -20t23.5 -57z" />
    <glyph glyph-name="plus" unicode="+" horiz-adv-x="1378" 
d="M774 496v-463h-145v463h-463v143h463v461h145v-461h461v-143h-461z" />
    <glyph glyph-name="comma" unicode="," horiz-adv-x="612" 
d="M463 115q0 -83 -37 -158t-95.5 -138t-130 -112t-141.5 -80l-32 70q242 118 297 303h-54q-149 0 -149 125q0 36 14.5 67t38.5 54t56 36t67 13q86 0 126 -49.5t40 -130.5z" />
    <glyph glyph-name="hyphen" unicode="-" horiz-adv-x="770" 
d="M72 451l43 186h600l-41 -186h-602z" />
    <glyph glyph-name="hyphen" unicode="&#xad;" horiz-adv-x="770" 
d="M72 451l43 186h600l-41 -186h-602z" />
    <glyph glyph-name="period" unicode="." horiz-adv-x="612" 
d="M451 139q0 -34 -13 -64t-35.5 -52t-53 -35t-64.5 -13t-65 12.5t-53.5 34.5t-36 52t-13.5 65t13 65.5t36 53.5t53.5 36t65.5 13t65 -13.5t52.5 -36.5t35.5 -53.5t13 -64.5z" />
    <glyph glyph-name="slash" unicode="/" horiz-adv-x="963" 
d="M29 -424h-162l1032 1948h162z" />
    <glyph glyph-name="zero" unicode="0" horiz-adv-x="1264" 
d="M780 1444q107 0 190 -33.5t140 -99t87 -161t30 -218.5q0 -112 -19.5 -230t-61 -229t-106.5 -208.5t-157 -169.5q-160 -126 -359 -126q-118 0 -201.5 39t-137 108t-78.5 162.5t-25 202.5q0 112 19 230t60 229t106 209t157 170q161 125 356 125zM532 47q51 0 94 27.5
t79 72.5t65 101t51 113.5t37.5 110.5t24.5 91q59 244 59 496q0 44 -3.5 97.5t-19.5 100t-49.5 78t-93.5 31.5q-51 0 -94 -28t-79 -72.5t-65 -101.5t-51 -114.5t-37.5 -110.5t-24.5 -91q-58 -239 -58 -494q0 -170 39 -239q41 -68 126 -68z" />
    <glyph glyph-name="one" unicode="1" horiz-adv-x="1264" 
d="M645 1212h-293l21 86h110q59 0 107.5 10t92 29t84 47t83.5 64h129q-18 -60 -38 -136.5t-42 -170.5l-215 -934l-6 -41q0 -43 54 -66q54 -22 204 -30l-16 -70h-848l16 70q166 3 235 32t83 91z" />
    <glyph glyph-name="two" unicode="2" horiz-adv-x="1264" 
d="M721 1446q86 0 166.5 -19t143 -61t100.5 -109.5t38 -164.5q0 -54 -9 -99.5t-28.5 -86t-49.5 -76.5t-72 -70t-110 -75.5t-165 -90.5q-257 -135 -371 -210q-115 -76 -155 -142h848l-60 -242h-1017l36 188q48 62 106.5 117t122.5 104.5t131 95t132 87.5q76 48 143 97.5
t116.5 109t78 134.5t28.5 175q0 125 -51.5 188.5t-142.5 63.5q-66 0 -113.5 -18t-74.5 -44q22 -84 22 -139q0 -85 -44.5 -126.5t-117.5 -41.5q-57 0 -94 33.5t-37 93.5q0 52 23.5 96t60 80t82 62.5t88.5 43.5q116 46 246 46z" />
    <glyph glyph-name="three" unicode="3" horiz-adv-x="1264" 
d="M1190 1157q0 -82 -36.5 -147t-94.5 -112.5t-130 -79t-143 -48.5l-6 -16q63 -3 121 -21t102.5 -52t71.5 -85.5t27 -120.5q0 -78 -26.5 -145.5t-71.5 -123t-105.5 -98t-129.5 -71.5q-156 -66 -337 -66q-188 0 -304 78q-114 80 -114 207q0 35 11 63.5t30.5 49t48 32
t62.5 11.5q63 0 102 -34t39 -89q0 -51 -35 -136l-16 -38q39 -33 84 -46.5t102 -13.5q71 -2 137 31t116.5 93t80 143t27.5 180q0 186 -217 186h-131l26 115h88q83 0 144.5 29.5t102.5 80.5t61 119.5t20 145.5q0 182 -180 182q-101 0 -193 -66q6 -27 14.5 -59.5t8.5 -71.5
q0 -84 -43.5 -128t-124.5 -44q-57 0 -91 33.5t-34 93.5q0 51 25.5 95.5t65 80t86.5 62t89 42.5q123 48 264 48q100 0 176 -21t127 -59t77 -91t26 -118z" />
    <glyph glyph-name="four" unicode="4" horiz-adv-x="1264" 
d="M956 387l-88 -387h-264l88 387h-651l45 188l895 863h221l-201 -863h213l-45 -188h-213zM885 1200l-656 -625h508z" />
    <glyph glyph-name="five" unicode="5" horiz-adv-x="1264" 
d="M446 -25q-114 0 -215 36q-50 18 -90 43t-67.5 55.5t-42.5 64.5t-15 70q0 35 11 64.5t31.5 51.5t49 34t64.5 12q63 0 100 -33.5t37 -87.5q0 -48 -17 -93t-34 -83q30 -23 82 -35.5t109 -12.5q53 0 100.5 20t88 52.5t72.5 75t53 87.5q52 108 52 236q0 55 -15 102.5t-44.5 83
t-73.5 55.5t-102 20q-164 0 -310 -136l-69 27l248 733h804l-59 -246h-715l-123 -362q158 98 330 98q86 0 163 -22t134.5 -67t91 -113.5t33.5 -161.5q0 -90 -26.5 -167t-72.5 -140t-109 -112t-136.5 -82t-154.5 -50t-163 -17z" />
    <glyph glyph-name="six" unicode="6" horiz-adv-x="1264" 
d="M1168 551q0 -80 -22.5 -155.5t-63.5 -141.5t-98 -120t-127 -92q-143 -77 -310 -77q-107 0 -191 32.5t-142.5 92.5t-89 145t-30.5 191q0 135 35.5 258t100.5 231t157 198.5t205 159.5q239 147 533 183l2 -96l-101 -14q-427 -115 -585 -572q87 69 178 102t205 33
q77 0 140.5 -27.5t108.5 -76t70 -114t25 -140.5zM877 535q0 47 -11.5 92.5t-36 80.5t-62.5 56.5t-91 21.5q-146 0 -258 -118q-12 -33 -20 -73t-13 -81t-7.5 -82t-2.5 -76q0 -150 50 -230.5t140 -80.5q51 0 93.5 22t76.5 57.5t59 79t41 86.5q42 116 42 245z" />
    <glyph glyph-name="seven" unicode="7" horiz-adv-x="1264" 
d="M284 -18h-147l971 1200h-506q-72 0 -123 -3.5t-90.5 -25t-71.5 -67.5t-65 -132h-70l102 463h1069l-20 -112z" />
    <glyph glyph-name="eight" unicode="8" horiz-adv-x="1264" 
d="M1233 1153q0 -120 -86.5 -221t-265.5 -164q276 -121 276 -328q0 -74 -26 -138t-70 -116.5t-102 -92.5t-123 -67q-150 -63 -330 -63q-211 0 -339 92t-128 240q0 300 402 414q-111 63 -162 144t-51 169q0 67 24.5 125t65 106t94 85t111.5 62q135 58 294 58q186 0 301 -85
q115 -84 115 -220zM971 1167q0 97 -49 154t-137 57q-60 0 -111.5 -21.5t-89.5 -59.5t-60 -89.5t-22 -111.5q0 -62 29 -103.5t77 -76.5q28 -20 79.5 -48t129.5 -65q35 30 63.5 73.5t48.5 93t31 100.5t11 97zM881 352q0 57 -26.5 99t-75.5 77.5t-118.5 69.5t-156.5 76
q-47 -31 -83.5 -73t-62 -91t-38.5 -103t-13 -110t16.5 -102.5t47.5 -80.5t76 -52.5t102 -18.5q69 0 129.5 21.5t105.5 61.5t71 97t26 129z" />
    <glyph glyph-name="nine" unicode="9" horiz-adv-x="1264" 
d="M1194 991q0 -135 -35 -259t-100.5 -232t-158 -198.5t-206.5 -159.5q-237 -141 -536 -177l-4 97l102 14q220 59 365.5 194.5t226.5 362.5q-45 -34 -89.5 -58.5t-90.5 -40.5t-96 -24t-107 -8q-79 0 -142.5 28.5t-108.5 78t-69 116.5t-24 143q0 84 23.5 159.5t66 139.5
t100.5 115.5t127 88t146 56t157 19.5q104 0 187.5 -32t142.5 -91.5t91 -143.5t32 -188zM915 1063q0 44 -8.5 97t-29.5 98.5t-57.5 76.5t-92.5 31q-52 0 -95.5 -22.5t-77.5 -58t-59 -80t-41 -88.5q-40 -111 -40 -240q0 -46 11 -91t34.5 -81t60.5 -58t90 -22q150 0 262 114
q43 136 43 324z" />
    <glyph glyph-name="colon" unicode=":" horiz-adv-x="768" 
d="M643 825q0 -35 -13.5 -65t-36 -52.5t-53 -35.5t-65.5 -13t-65.5 12.5t-53.5 35t-36 53t-13 65.5t13.5 65t36.5 52.5t53.5 35.5t64.5 13t64.5 -13.5t53.5 -36t36.5 -52.5t13.5 -64zM489 139q0 -34 -13 -64t-35.5 -52t-52.5 -35t-64 -13q-35 0 -65.5 12.5t-53.5 34.5
t-36 52t-13 65t13 66t35.5 53.5t53.5 35.5t66 13q34 0 64 -13.5t52.5 -36.5t35.5 -53.5t13 -64.5z" />
    <glyph glyph-name="semicolon" unicode=";" horiz-adv-x="768" 
d="M643 825q0 -35 -13.5 -65t-36 -52.5t-53 -35.5t-65.5 -13t-65.5 12.5t-53.5 35t-36 53t-13 65.5t13.5 65t36.5 52.5t53.5 35.5t64.5 13t64.5 -13.5t53.5 -36t36.5 -52.5t13.5 -64zM502 115q0 -83 -37 -158t-95.5 -138t-130 -112t-141.5 -80l-30 70q243 121 297 303h-54
q-75 0 -114 32.5t-39 92.5q0 36 14.5 67t39 54t57 36t67.5 13q86 0 126 -49.5t40 -130.5z" />
    <glyph glyph-name="semicolon" unicode="&#x37e;" horiz-adv-x="768" 
d="M643 825q0 -35 -13.5 -65t-36 -52.5t-53 -35.5t-65.5 -13t-65.5 12.5t-53.5 35t-36 53t-13 65.5t13.5 65t36.5 52.5t53.5 35.5t64.5 13t64.5 -13.5t53.5 -36t36.5 -52.5t13.5 -64zM502 115q0 -83 -37 -158t-95.5 -138t-130 -112t-141.5 -80l-30 70q243 121 297 303h-54
q-75 0 -114 32.5t-39 92.5q0 36 14.5 67t39 54t57 36t67.5 13q86 0 126 -49.5t40 -130.5z" />
    <glyph glyph-name="less" unicode="&#x3c;" horiz-adv-x="1378" 
d="M223 504v127l963 489v-162l-776 -391l776 -391v-162z" />
    <glyph glyph-name="equal" unicode="=" horiz-adv-x="1378" 
d="M193 693v143h1040v-143h-1040zM193 299v143h1040v-143h-1040z" />
    <glyph glyph-name="greater" unicode="&#x3e;" horiz-adv-x="1378" 
d="M238 14v162l778 391l-778 391v162l962 -489v-127z" />
    <glyph glyph-name="question" unicode="?" horiz-adv-x="1051" 
d="M1079 1106q0 -215 -159 -358q-156 -141 -428 -170l-39 -175h-91l78 385q201 17 304.5 112t103.5 257q0 106 -53.5 160.5t-149.5 54.5q-77 0 -139 -43q7 -38 10 -67t3 -50q0 -78 -42.5 -117.5t-118.5 -39.5q-58 0 -89 34t-31 85q0 44 20.5 82t52.5 68.5t71 53t76 36.5
q103 38 218 38q80 0 152.5 -21.5t128.5 -65t89 -108.5t33 -151zM530 135q0 -34 -13 -63.5t-35.5 -51t-52.5 -33.5t-64 -12t-64 12t-52.5 33t-35 50.5t-12.5 64.5q0 34 13 63.5t35.5 51.5t52 34.5t63.5 12.5q33 0 63 -12.5t52.5 -34.5t36 -51.5t13.5 -63.5z" />
    <glyph glyph-name="at" unicode="@" horiz-adv-x="1942" 
d="M1806 717q0 -71 -14 -142.5t-41.5 -137.5t-68.5 -123t-94.5 -99t-120 -66t-144.5 -24q-49 0 -90.5 10.5t-72.5 29.5t-51.5 46.5t-27.5 60.5h-6q-48 -63 -104.5 -103t-130.5 -40q-115 0 -180.5 72.5t-65.5 206.5q0 62 18 127t50 126.5t77 116.5t99 96t116.5 65t128.5 24
q128 0 156 -111h4l37 98h205l-197 -547q-3 -9 -6.5 -23.5t-6 -30t-4 -30t-1.5 -24.5q0 -94 82 -94q77 -2 143 37t114 109.5t74.5 168t24.5 211.5q2 122 -40.5 224.5t-121.5 176.5t-191 115t-249 39q-101 0 -197 -28t-180 -79t-153.5 -123t-117.5 -161q-96 -178 -96 -399
q-1 -169 47 -304t136.5 -229.5t213.5 -144t277 -47.5q168 0 294.5 44t228.5 126l34 -58q-115 -97 -258.5 -147.5t-304.5 -50.5q-236 0 -436 104q-199 105 -303.5 282.5t-104.5 409.5q0 121 31.5 235t90.5 214.5t143.5 184t189.5 142.5q214 119 475 119q92 0 180 -17.5
t166.5 -55t144.5 -97t112 -142.5q87 -151 87 -343zM1208 750q-9 66 -35.5 103.5t-85.5 37.5q-46 0 -84 -28.5t-67.5 -70.5t-50.5 -89t-33 -83q-39 -123 -39 -233q0 -158 84 -158q32 0 58 11.5t47 30t39 42t34 47.5z" />
    <glyph glyph-name="A" unicode="A" horiz-adv-x="1462" 
d="M1397 0h-670l16 70q207 17 207 69l-6 60l-45 286h-493q-7 -11 -23 -37.5t-35.5 -60.5t-40.5 -71.5t-38.5 -71.5t-28.5 -60t-11 -37q0 -23 23.5 -38t55 -23t63 -11.5t47.5 -4.5l-15 -70h-569l14 70q95 4 162 46t123 130q20 32 41 64t42 65t189 299.5t484 765.5h139
l201 -1231q22 -129 182 -139zM795 1108l-332 -535h420z" />
    <glyph glyph-name="B" unicode="B" horiz-adv-x="1446" 
d="M979 1419q214 0 323 -65t109 -191q0 -144 -109 -245.5t-327 -149.5v-14q87 -11 155 -37t115 -65t71.5 -90.5t24.5 -112.5q0 -210 -176 -330q-176 -119 -473 -119h-733l16 70q94 0 153 27t75 93l239 1049q0 40 -40 70t-130 41l17 69h690zM1094 1149q0 93 -58.5 141.5
t-169.5 48.5l-116 -4l-125 -544h96q83 0 151.5 24t118 70t76.5 112.5t27 151.5zM1022 475q0 112 -74 173t-211 61l-133 -4l-106 -465q-8 -32 -13 -68q0 -21 13.5 -38.5t37.5 -30t57.5 -19t72.5 -6.5q83 0 148.5 33.5t112 88.5t71 127t24.5 148z" />
    <glyph glyph-name="C" unicode="C" horiz-adv-x="1389" 
d="M1337 356q-232 -391 -661 -391q-128 0 -235.5 40.5t-185 115.5t-120.5 182t-43 240q0 121 30 235t84.5 215.5t132.5 186t173.5 145.5t207 95t234.5 34q45 0 98 -5.5t106.5 -17.5t103 -30t88.5 -43l65 61h84l-110 -512h-84q-23 240 -111 350.5t-240 110.5
q-90 0 -163.5 -35t-131.5 -92.5t-101.5 -131t-73.5 -149.5q-76 -195 -76 -423q0 -88 21 -169.5t66 -144t115 -100t168 -37.5q137 0 256.5 76t229.5 239z" />
    <glyph glyph-name="D" unicode="D" horiz-adv-x="1620" 
d="M1599 866q0 -137 -36 -254.5t-100.5 -213.5t-154 -170.5t-196.5 -125t-227.5 -76.5t-247.5 -26h-678l14 70q97 0 155.5 24.5t74.5 93.5l231 1008l8 49q0 45 -42.5 68.5t-127.5 36.5l17 69h663q187 0 341 -71q155 -70 230.5 -192.5t75.5 -289.5zM1284 889q0 95 -23.5 177
t-72.5 142t-123 94.5t-176 34.5l-139 -4l-250 -1083q-8 -46 -8 -60q0 -58 45.5 -83t150.5 -25q104 0 189 35t151 95t114.5 140t80 170t46.5 184t15 183z" />
    <glyph glyph-name="E" unicode="E" horiz-adv-x="1407" 
d="M1372 1067h-74q-4 34 -15 77t-31.5 82t-49.5 68t-69 35q-56 10 -170 10h-211l-129 -563h147q80 0 131 22q27 11 51 32.5t46 50t40 63.5t33 72h76l-133 -574h-74v50q0 60 -14 111q-13 49 -56 70t-118 21h-150l-94 -413q-16 -60 -16 -107q0 -54 38 -74q38 -18 166 -18
q67 0 115 2t77 6q32 4 54.5 9.5t41.5 15.5t36.5 25t39.5 38q23 24 50.5 55.5t54.5 65.5t51 68.5t41 62.5h72l-127 -430h-1247l14 70q97 0 157.5 25.5t76.5 94.5l233 1012q6 29 6 47q0 39 -45 65.5t-133 35.5l17 69h1173z" />
    <glyph glyph-name="F" unicode="F" horiz-adv-x="1300" 
d="M1391 1053h-76q-2 34 -13.5 79.5t-32 87.5t-50 73t-66.5 36q-35 5 -77 7.5t-93 2.5h-231l-134 -571h154q80 0 139 26t105 93q45 65 63 123h76q-54 -232 -87 -375.5t-46 -202.5h-76l2 47q-1 46 -7 84.5t-26.5 66t-58.5 42.5t-102 14h-154l-108 -477q-7 -20 -7 -43
q0 -43 35 -64q37 -22 144 -32l-17 -70h-692l16 70q108 0 162.5 27.5t69.5 90.5l233 1014q6 32 6 47q0 39 -40.5 62.5t-137.5 38.5l17 69h1196z" />
    <glyph glyph-name="G" unicode="G" horiz-adv-x="1569" 
d="M696 -35q-132 -2 -243.5 40t-192.5 118t-125.5 182t-42.5 234q0 129 31 246.5t88 219.5t137.5 184.5t180.5 141.5t216 91t244 32q50 0 103 -5.5t106 -17.5t103.5 -30t93.5 -43l65 61h82l-108 -508h-84q-14 233 -106.5 345t-266.5 112q-93 0 -171 -37t-140 -97.5
t-108 -138t-76 -157.5q-74 -201 -74 -430q0 -85 18 -167t59 -146t108 -103t165 -39q69 0 128 18.5t124 69.5l59 236q16 60 16 86q0 36 -19.5 56.5t-51.5 31.5q-35 14 -133 24l16 72h696q-5 -17 -9 -35t-7 -37q-105 -5 -156.5 -37t-64.5 -92l-33 -145q-31 -124 -39 -192
q-64 -32 -137 -58.5t-149.5 -45.5t-153 -29.5t-148.5 -10.5z" />
    <glyph glyph-name="H" unicode="H" horiz-adv-x="1769" 
d="M1399 164q0 -84 172 -94l-17 -70h-677l16 70q121 6 165 31q47 26 60 87l115 504h-631l-106 -456q-11 -50 -11 -58q0 -34 16.5 -54t41.5 -31t54.5 -15.5t55.5 -7.5l-16 -70h-676l14 70q105 0 158.5 26.5t69.5 91.5l233 1014q6 29 6 45q0 82 -172 103l17 69h678l-17 -69
q-34 -2 -70 -7.5t-66.5 -19t-54 -37.5t-32.5 -63l-100 -439h630l95 408q6 29 6 49t-12.5 37.5t-34.5 31.5t-53 24t-68 16l16 69h678l-16 -69q-34 -2 -70.5 -7.5t-68 -18.5t-55 -37t-32.5 -64l-231 -1002q-10 -40 -10 -57z" />
    <glyph glyph-name="I" unicode="I" horiz-adv-x="860" 
d="M446 1249q0 39 -45.5 63t-142.5 38l16 69h713l-16 -69q-34 -3 -72.5 -7.5t-73.5 -17t-62 -36t-36 -64.5l-233 -1016q-7 -20 -7 -43q0 -42 37 -64q38 -22 152 -32l-17 -70h-710l16 70q100 0 162 24.5t78 93.5l231 1006z" />
    <glyph glyph-name="J" unicode="J" horiz-adv-x="1139" 
d="M311 -37q-70 0 -135 17.5t-114.5 54t-79 93t-29.5 134.5q0 42 11.5 84t35 75.5t58.5 54t83 20.5q69 0 109.5 -37t40.5 -101q0 -40 -18 -74t-43 -63.5t-51 -57t-42 -54.5q11 -26 48 -45t91 -19q112 0 186.5 94t119.5 293l172 760q8 34 8 49q0 81 -184 109l16 69h696
l-14 -69q-35 -2 -71.5 -7t-68.5 -17.5t-56 -37t-33 -65.5l-187 -815q-22 -95 -73.5 -176.5t-124 -141t-162.5 -93.5t-189 -34z" />
    <glyph glyph-name="K" unicode="K" horiz-adv-x="1546" 
d="M485 166q0 -85 170 -96l-16 -70h-676l14 70q105 0 158.5 27.5t67.5 90.5l233 1014q6 29 6 45q0 45 -44 67.5t-126 35.5l17 69h678l-17 -69q-34 -3 -70 -8t-67.5 -18t-55 -37t-32.5 -64l-115 -494h33q120 85 227 171.5t204 175.5q194 179 194 233q0 14 -28 24q-14 5 -41 9
t-69 8q7 22 11 39t6 30h575l-16 -69l-59 -9q-134 -19 -209 -77q-64 -49 -154.5 -124t-208.5 -178l-186 -157l89 -143l259 -424q23 -41 47.5 -71.5t54.5 -51t67 -32t85 -13.5l-18 -70h-447q-78 176 -173.5 339t-197.5 325h-59l-104 -455q-7 -20 -7 -43z" />
    <glyph glyph-name="L" unicode="L" 
d="M442 1247q0 82 -172 103l17 69h690l-16 -69q-36 -3 -73 -8t-70 -18.5t-58.5 -38t-36.5 -64.5l-219 -953q-15 -60 -15 -102q0 -51 37 -69q39 -17 174 -17q206 0 273 53q48 40 115 120t139 185h69l-129 -438h-1206l14 70q97 0 154.5 26t73.5 92l233 1014q6 29 6 45z" />
    <glyph glyph-name="M" unicode="M" horiz-adv-x="2007" 
d="M2126 1419q-2 -13 -6 -30t-11 -39q-34 -3 -70.5 -8t-68 -18.5t-55 -37.5t-33.5 -63l-231 -1014l-4 -41q0 -41 39.5 -65.5t134.5 -32.5l-17 -70h-696l16 70q122 9 176 36q55 28 70 93l242 1061h-10l-773 -1237h-88q-13 137 -45.5 373t-82.5 570l-46 316h-10l-100 -436
l-101 -434q-26 -112 -26 -185q0 -45 16.5 -73t44 -45t62.5 -25.5t71 -13.5q-2 -17 -6.5 -34.5t-9.5 -35.5h-590l16 70q36 3 71.5 8.5t67.5 18.5t58.5 34.5t44.5 55.5q33 61 70 212l166 719q12 53 12 86q0 134 -184 146l14 69h563l146 -1003l510 827q31 54 52 98t34 78h567z
" />
    <glyph glyph-name="N" unicode="N" horiz-adv-x="1634" 
d="M1253 -12h-127l-598 1167l-170 -741q-13 -61 -19.5 -107.5t-6.5 -79.5q0 -28 3.5 -48t13 -35t26.5 -26t44 -20q28 -10 55.5 -17t55.5 -11l-16 -70h-596l16 70q18 1 43.5 5.5t52 11t50.5 15t39 17.5q29 20 49.5 55t36 75.5t26 81.5t17.5 72l155 678q13 46 13 90
q-1 44 -14.5 74.5t-39 50.5t-63 32.5t-86.5 21.5l18 69h465l537 -1054l149 643q27 108 27 184q0 42 -9.5 67t-28.5 38q-9 7 -25.5 14.5t-38 14.5t-46.5 13.5t-51 10.5l17 69h594l-17 -69l-35 -5q-35 -5 -66.5 -12.5t-58.5 -21t-49.5 -35.5t-39.5 -56q-16 -32 -31 -82
t-31 -118z" />
    <glyph glyph-name="O" unicode="O" horiz-adv-x="1587" 
d="M1569 872q0 -123 -31 -238.5t-87.5 -216.5t-136 -184.5t-177.5 -143.5t-211.5 -93t-237.5 -33q-132 0 -241.5 42t-188 118t-122.5 183t-44 237q0 121 30 236.5t86.5 217.5t138.5 187.5t187 147.5q206 122 437 122q130 2 240.5 -40t190.5 -119.5t124.5 -185t42.5 -237.5z
M1255 952q0 202 -79.5 308t-225.5 106q-93 0 -168 -40t-132.5 -104t-99.5 -143.5t-69 -157.5q-75 -217 -75 -452q0 -203 79.5 -310.5t227.5 -107.5q93 0 168 40.5t132.5 104.5t99 144t68.5 158q74 217 74 454z" />
    <glyph glyph-name="P" unicode="P" horiz-adv-x="1348" 
d="M983 1419q212 0 325 -75t113 -218q0 -81 -24.5 -149.5t-68.5 -124t-104.5 -98t-132.5 -72.5q-155 -64 -348 -64h-157l-92 -395q-9 -31 -9 -59q0 -39 40 -62.5t141 -31.5l-17 -70h-688l14 70q97 0 154.5 27t73.5 93l233 1014l6 43q0 37 -44.5 64.5t-129.5 38.5l15 69h700z
M1102 1114q0 112 -63 167.5t-187 55.5h-102l-144 -632h88q124 0 215 46q91 48 142 142.5t51 220.5z" />
    <glyph glyph-name="Q" unicode="Q" horiz-adv-x="1587" 
d="M1569 872q0 -148 -45.5 -286t-128.5 -253.5t-199 -201.5t-258 -129l-2 -55q0 -53 13 -95.5t37 -73t59.5 -47t80.5 -16.5q97 0 197 23l-16 -78q-85 -31 -180 -46t-185 -15q-148 0 -227.5 80t-79.5 231l2 55q-124 9 -224.5 53.5t-171.5 119.5t-110 177.5t-39 227.5
q0 121 30 236.5t86.5 217.5t138.5 187.5t187 147.5q206 122 437 122q130 2 240.5 -40t190.5 -119.5t124.5 -185t42.5 -237.5zM1255 952q0 202 -79.5 308t-225.5 106q-93 0 -168 -40t-132.5 -104t-99.5 -143.5t-69 -157.5q-75 -217 -75 -452q0 -203 79.5 -310.5t227.5 -107.5
q93 0 167.5 40t132 103.5t99 142.5t68.5 157q75 215 75 458z" />
    <glyph glyph-name="R" unicode="R" horiz-adv-x="1534" 
d="M485 164q0 -39 40 -62.5t141 -31.5l-17 -70h-690l16 70q97 0 154.5 27t73.5 93l233 1016q6 33 6 43q0 37 -46.5 64t-125.5 37l17 69h710q214 0 326.5 -69.5t112.5 -204.5q0 -168 -117.5 -283.5t-335.5 -167.5l246 -448q24 -45 47 -77t51 -53t65 -32t89 -14l-17 -70h-438
q-70 167 -151.5 326.5t-172.5 316.5h-110l-98 -420q-9 -31 -9 -59zM1114 1122q0 108 -64.5 161.5t-185.5 53.5h-114l-138 -610h119q86 0 157 30t121 83t77.5 125t27.5 157z" />
    <glyph glyph-name="S" unicode="S" horiz-adv-x="1243" 
d="M535 -33q-58 0 -115 7t-109 20.5t-98 32.5t-84 43l-72 -70h-82l101 498h84q9 -87 35 -166.5t73 -140.5t117.5 -97.5t167.5 -36.5q66 0 125 18t103.5 54t70 90t25.5 125q0 156 -181 223l-138 52q-82 29 -138 56.5t-87 52.5q-60 51 -92 119t-32 144q0 194 163 327
q164 134 400 134q211 0 365 -96l63 63h84l-102 -477h-82q-8 78 -25 153.5t-54 135t-98 95.5t-157 36q-56 0 -107 -18t-90 -51t-62.5 -80.5t-23.5 -106.5q0 -87 50.5 -141.5t158.5 -94.5l112 -41q66 -24 129 -54t113 -72.5t80.5 -100t30.5 -137.5q0 -213 -177 -356
q-175 -142 -445 -142z" />
    <glyph glyph-name="T" unicode="T" horiz-adv-x="1333" 
d="M729 170q0 -48 50.5 -72.5t144.5 -27.5l-17 -70h-731l19 70q51 3 87.5 7.5t58.5 11.5q45 13 70.5 39t34.5 69l265 1142h-47q-45 0 -86.5 -2t-79.5 -6q-23 -3 -51 -21t-57 -44.5t-58 -59.5t-54.5 -66.5t-46 -63.5t-32.5 -52h-74l92 395h1305l-90 -395h-74q-6 111 -49 204
q-42 96 -99 103q-28 4 -67.5 6t-91.5 2h-56l-260 -1124q-6 -24 -6 -45z" />
    <glyph glyph-name="U" unicode="U" horiz-adv-x="1626" 
d="M414 1247q0 45 -46 67t-124 36l18 69h674l-16 -69q-54 -4 -92.5 -14t-65 -25.5t-41.5 -37t-23 -48.5l-174 -746q-8 -34 -12 -70.5t-4 -74.5q0 -124 72 -187t215 -63q95 0 172.5 31t136 86t99 130t61.5 163l120 520q25 104 25 186q0 129 -201 150l17 69h596l-17 -69
l-35 -5q-105 -17 -148 -43q-42 -26 -73 -100.5t-55 -179.5l-119 -518q-30 -132 -89 -233.5t-143.5 -169.5t-193.5 -103t-241 -35q-56 0 -114 7t-112.5 23.5t-102 43.5t-83 66t-56 91t-20.5 119q0 28 3 59.5t10 67.5t50.5 227t125.5 537q6 26 6 43z" />
    <glyph glyph-name="V" unicode="V" horiz-adv-x="1462" 
d="M520 -16l-196 1214q-11 63 -60 103.5t-127 48.5l15 69h665l-18 -69q-105 -11 -151 -26.5t-46 -47.5q0 -22 2.5 -48.5t7.5 -58.5q17 -118 63 -405q23 -144 42.5 -257.5t34.5 -199.5q176 277 290.5 461.5t169.5 280.5q111 191 111 223q0 60 -195 78l17 69h563l-14 -69
q-88 -10 -151.5 -52t-117.5 -120q-120 -182 -310.5 -480.5t-452.5 -713.5h-142z" />
    <glyph glyph-name="W" unicode="W" horiz-adv-x="2152" 
d="M1452 -16h-149l-123 1075q-151 -271 -302.5 -540.5t-295.5 -534.5h-144l-96 1212q-8 69 -54 107.5t-124 46.5l16 69h656l-17 -69q-105 -11 -151.5 -27.5t-46.5 -50.5q0 -17 1.5 -53.5t5.5 -92.5q4 -55 18.5 -243t39.5 -510l580 1036h151l127 -1069q97 183 174 328
t134 255q49 95 81 159.5t47 99.5q31 69 31 90q0 30 -43.5 49.5t-148.5 28.5l16 69h555l-16 -69q-163 -16 -258 -174z" />
    <glyph glyph-name="X" unicode="X" horiz-adv-x="1548" 
d="M227 1419h736l-17 -69q-103 -7 -155 -22t-52 -46q0 -24 11 -60t32 -87.5t51.5 -119.5t69.5 -155q191 188 287 298.5t96 133.5q0 28 -40.5 39.5t-112.5 18.5l16 69h553l-14 -69q-44 -2 -80 -10.5t-67.5 -23.5t-61 -36t-61.5 -50q-22 -20 -140.5 -134.5t-333.5 -323.5
q64 -148 120 -270.5t110 -227.5q26 -49 47.5 -86t49.5 -62.5t67 -39t100 -16.5l-17 -70h-735l14 70q105 5 156 19t51 46q0 51 -48 164.5t-130 298.5q-9 -9 -32 -31.5t-54.5 -54t-69 -70t-75 -78t-73 -78t-62.5 -71t-43.5 -56.5t-16.5 -34q0 -29 41 -39.5t111 -15.5l-15 -70
h-555l17 70q54 2 98.5 16t84 37t75.5 54.5t73 68.5l453 444l-223 479q-21 49 -43.5 82t-51 53.5t-66.5 31t-91 14.5z" />
    <glyph glyph-name="Y" unicode="Y" horiz-adv-x="1378" 
d="M750 172q0 -48 50 -73.5t144 -28.5l-16 -70h-727l16 70q138 8 184 35q50 29 66 92l65 282q13 51 13 70q0 22 -10 55t-25 84q-51 161 -91.5 282.5t-70.5 205.5q-15 41 -33.5 72t-44 52.5t-59 33.5t-78.5 16l17 69h688l-17 -69l-61 -3q-139 -7 -139 -55q0 -20 46 -173.5
t140 -428.5q135 159 226 269t140 173q99 128 99 152q0 25 -31 40q-28 15 -137 26l18 69h520l-16 -69q-49 -6 -90 -23.5t-83 -49.5q-20 -16 -47.5 -43t-61 -62.5t-72 -78.5t-80.5 -91t-91.5 -107t-108.5 -130q-116 -140 -138 -176q-9 -15 -20.5 -45.5t-23 -70t-22.5 -83
t-19.5 -85t-13.5 -76.5t-5 -57z" />
    <glyph glyph-name="Z" unicode="Z" 
d="M1137 0h-1231l12 47l1180 1290h-303q-54 0 -101 -5t-90 -19t-82.5 -38.5t-79.5 -63.5q-67 -66 -174 -210h-75l139 418h1143l-13 -49l-1177 -1290h329q106 0 188 13.5t136 49.5q53 37 123.5 114t157.5 204h71z" />
    <glyph glyph-name="bracketleft" unicode="[" horiz-adv-x="842" 
d="M-18 -309l421 1829h596l-20 -93h-350l-381 -1644h352l-22 -92h-596z" />
    <glyph glyph-name="backslash" unicode="\" horiz-adv-x="963" 
d="M586 -424l-293 1948h151l295 -1948h-153z" />
    <glyph glyph-name="bracketright" unicode="]" horiz-adv-x="842" 
d="M-127 -309l23 92h350l379 1644h-351l21 93h598l-422 -1829h-598z" />
    <glyph glyph-name="asciicircum" unicode="^" horiz-adv-x="1378" 
d="M1053 778l-320 518l-319 -518h-170l426 678h127l426 -678h-170z" />
    <glyph glyph-name="underscore" unicode="_" horiz-adv-x="1378" 
d="M-184 -289l24 109h1387l-25 -109h-1386z" />
    <glyph glyph-name="grave" unicode="`" horiz-adv-x="1024" 
d="M846 1106q-57 43 -108 79.5t-97 67.5q-43 29 -71.5 49t-44.5 31q-31 23 -50.5 49t-19.5 62q0 21 8.5 38.5t22.5 31t32.5 21t38.5 7.5q23 0 42 -4.5t35.5 -16t32.5 -30t33 -45.5l187 -305z" />
    <glyph glyph-name="a" unicode="a" horiz-adv-x="1262" 
d="M932 -18q-82 0 -137 39t-68 106h-8q-34 -29 -71 -57.5t-77 -51t-83 -36t-91 -13.5q-88 0 -150 30.5t-102 83t-58.5 123t-18.5 150.5q0 81 20 161t57 153t89.5 135.5t118 108.5t142.5 72t162 26q38 0 74.5 -5t69.5 -14.5t61 -22.5t47 -28l246 53l12 -14l-156 -665
q-18 -73 -18 -109q0 -57 25.5 -77.5t85.5 -20.5q56 0 115 22l-17 -76q-81 -34 -144.5 -53.5t-125.5 -19.5zM858 762q0 81 -42 122.5t-120 41.5q-57 0 -104.5 -29t-85 -73.5t-65 -96.5t-44.5 -99q-47 -135 -47 -276q0 -133 41 -191.5t127 -58.5q96 0 213 117z" />
    <glyph glyph-name="b" unicode="b" horiz-adv-x="1231" 
d="M1163 629q0 -134 -46 -254t-128.5 -211t-197 -144t-250.5 -53q-306 0 -443 207l256 1106q11 46 11 63q0 32 -12 56.5t-44 35.5q-27 12 -114 21l16 68l448 24l11 -16l-152 -655h6q158 135 301 135q87 0 150.5 -29.5t105.5 -81t62 -121.5t20 -151zM881 629q0 132 -44.5 192
t-134.5 60q-87 0 -208 -113l-129 -575q2 -27 15.5 -54.5t36.5 -48.5t54 -33.5t66 -11.5q59 0 106 27.5t84 70t63.5 94.5t42.5 100q48 140 48 292z" />
    <glyph glyph-name="c" unicode="c" horiz-adv-x="1014" 
d="M997 782q0 -36 -9.5 -69.5t-29 -59.5t-49 -41.5t-69.5 -15.5q-30 0 -54.5 8t-42.5 22.5t-28 33.5t-10 40q0 64 65 189q-11 20 -42.5 33.5t-76.5 13.5q-52 0 -94 -24t-74.5 -61.5t-56 -83t-37.5 -88.5q-39 -120 -39 -261q0 -156 61 -236t169 -80q57 0 102.5 14t84 39
t72 61t66.5 79l64 -51q-38 -59 -89 -109.5t-111.5 -87t-128.5 -57.5t-140 -21q-98 0 -178 26.5t-136.5 78.5t-87 129t-30.5 178q0 132 44.5 247t124 200.5t190 134.5t243.5 49q160 0 243.5 -62.5t83.5 -167.5z" />
    <glyph glyph-name="d" unicode="d" horiz-adv-x="1268" 
d="M999 188q0 -79 111 -79q56 0 115 22l-19 -76q-168 -73 -268 -73q-91 0 -141.5 40t-61.5 109h-8q-181 -162 -330 -162q-88 0 -150 30.5t-102 83t-58.5 123t-18.5 150.5q0 81 19.5 161.5t55.5 153t88 135t116.5 108.5t141 72t162.5 26q76 0 143.5 -18t110.5 -50l76 334
q10 39 10 65q0 37 -18 58q-16 22 -51 34q-33 12 -134 21l17 68l481 24l12 -16l-274 -1182q-25 -96 -25 -162zM864 770q-1 36 -14.5 65.5t-36 50.5t-54 32.5t-69.5 11.5q-57 0 -104 -28.5t-84 -72.5t-63.5 -96t-42.5 -99q-46 -134 -46 -282q0 -133 41 -191.5t127 -58.5
q100 0 221 121z" />
    <glyph glyph-name="e" unicode="e" horiz-adv-x="1053" 
d="M1012 793q0 -73 -31 -126.5t-80.5 -91t-110.5 -63t-121 -43.5q-62 -18 -142.5 -33t-182.5 -28q5 -308 225 -308q59 0 106.5 13.5t88.5 39t76.5 61.5t70.5 81l66 -51q-40 -60 -94 -110.5t-117 -87t-133 -57t-144 -20.5q-97 0 -174.5 26t-132 77t-83.5 126.5t-29 174.5
q0 132 46.5 248.5t129 203.5t195 137t245.5 50q157 0 241.5 -55t84.5 -164zM756 793q0 69 -30 106t-87 37q-42 0 -78.5 -22t-66 -55t-52 -72t-36.5 -73q-43 -103 -58 -231q170 27 235 53q88 35 130.5 97.5t42.5 159.5z" />
    <glyph glyph-name="f" unicode="f" horiz-adv-x="727" 
d="M1106 1397q0 -28 -9.5 -51.5t-26.5 -41t-40.5 -27t-50.5 -9.5q-102 0 -167 137l-32 63q-118 -55 -186 -401l-19 -94h254l-24 -96h-248l-22 -113q-14 -71 -35 -171t-50 -232q-29 -131 -45.5 -206.5t-21.5 -95.5q-16 -67 -45.5 -131t-70 -120.5t-92 -104t-112.5 -81.5
q-116 -66 -231 -66q-114 0 -171.5 39.5t-57.5 115.5q0 27 9.5 50t26 40.5t39.5 27t50 9.5q104 0 169 -137l31 -63q122 53 189 385l180 854h-195l23 96h194l15 69q14 68 41.5 132t67 121.5t90.5 105.5t111 82q115 67 233 67q114 0 171.5 -39t57.5 -114z" />
    <glyph glyph-name="g" unicode="g" horiz-adv-x="1251" 
d="M721 121q-94 -77 -173 -109t-149 -32q-159 0 -245 98.5t-86 281.5q0 83 20 165t58 156t93.5 136.5t126.5 107.5q137 87 289 87q81 0 148.5 -20t109.5 -50l246 53l12 -14l-170 -801q-66 -312 -227 -468t-434 -156q-330 0 -330 172q0 27 9.5 50.5t26 40.5t40 26.5t51.5 9.5
q54 0 100.5 -42t81.5 -115l31 -67q112 13 182 70t118.5 159.5t78.5 258.5zM864 766q0 75 -45.5 117.5t-124.5 42.5q-57 0 -104.5 -28t-85 -71t-64.5 -94.5t-43 -98.5q-47 -135 -47 -276q0 -249 174 -249q33 0 64 10.5t59.5 27t54.5 38t50 42.5q23 121 51.5 255t60.5 284z
" />
    <glyph glyph-name="h" unicode="h" horiz-adv-x="1268" 
d="M936 -16q-46 0 -84 12t-65 34.5t-41.5 55t-14.5 72.5q0 63 27 166l76 286q24 96 24 135q0 60 -29 91.5t-86 31.5q-55 0 -124.5 -37.5t-135.5 -103.5l-166 -727h-258l295 1280q11 50 11 63q0 32 -12 57t-43 36q-14 5 -42.5 10t-72.5 10l16 68l448 24l13 -16l-162 -692h6
q44 36 88 67t91 54.5t98.5 37t109.5 13.5q47 0 87.5 -13.5t70 -40t46.5 -64.5t17 -87q0 -66 -22 -154l-80 -301q-25 -84 -25 -143q0 -57 25.5 -78.5t85.5 -21.5q12 0 27 2t31 5.5t31 8t26 8.5l-19 -76q-81 -32 -146 -52.5t-122 -20.5z" />
    <glyph glyph-name="i" unicode="i" horiz-adv-x="678" 
d="M638 1319q0 -30 -11.5 -56t-31.5 -45t-46.5 -30t-56.5 -11q-28 0 -53.5 11t-44.5 30t-30 44.5t-11 53.5q0 29 11 54.5t29.5 45t44 31t54.5 11.5t55.5 -10.5t46.5 -29t32 -44t12 -55.5zM344 -25q-47 0 -85 12.5t-64.5 35.5t-41 56t-14.5 73q0 67 19 131l94 360
q24 108 24 145q0 30 -5.5 48.5t-18 29.5t-32 15t-46.5 4q-38 0 -119 -25l19 78q175 74 266 74q102 0 151.5 -49t49.5 -127q0 -68 -17 -134l-96 -356q-25 -84 -25 -145q0 -57 26.5 -78t86.5 -21q51 0 115 23l-19 -76q-81 -34 -146 -54t-122 -20z" />
    <glyph glyph-name="j" unicode="j" horiz-adv-x="672" 
d="M643 1319q0 -30 -11.5 -56t-31.5 -45t-46.5 -30t-56.5 -11q-28 0 -53.5 11t-44.5 30t-30 44.5t-11 53.5q0 29 11 54.5t29.5 45t44 31t54.5 11.5t55.5 -10.5t46.5 -29t32 -44t12 -55.5zM561 836q0 -59 -39 -266q-19 -103 -47.5 -230.5t-66.5 -280.5q-18 -65 -47 -128.5
t-69 -121t-90.5 -106t-109.5 -82.5q-112 -65 -225 -65q-114 0 -171.5 39.5t-57.5 115.5q0 57 34.5 92t91.5 35q101 0 169 -137l32 -63q108 64 178 385q41 174 74 332t59 304q19 98 19 140q0 46 -20.5 66t-71.5 20q-56 0 -137 -27l18 78q177 76 276 76q102 0 151.5 -49
t49.5 -127z" />
    <glyph glyph-name="k" unicode="k" horiz-adv-x="1196" 
d="M1184 877q0 -31 -12 -58t-32.5 -47.5t-47.5 -32.5t-58 -12q-77 0 -174 61q-27 -17 -49.5 -32.5t-43.5 -32t-41.5 -35t-43.5 -39.5q49 -126 83.5 -213t56.5 -136t39.5 -82.5t30.5 -51.5q26 -35 57.5 -50.5t76.5 -15.5q48 0 129 27l-18 -78q-174 -72 -279 -72
q-91 0 -145.5 42t-91.5 128q-25 52 -48.5 109.5t-46.5 123.5l-30 83l-93 -82l-86 -381h-258l295 1280q11 50 11 63q0 32 -12 57t-43 36q-14 5 -42.5 10t-72.5 10l16 68l448 24l13 -16l-244 -1040h6q85 93 161 171t144 144q69 66 116.5 107.5t75.5 58.5q58 35 118 35
q61 0 98 -34t37 -97z" />
    <glyph glyph-name="l" unicode="l" horiz-adv-x="653" 
d="M373 201q0 -57 27.5 -78t88.5 -21q12 0 28.5 2t34 5t33.5 7.5t27 8.5l-18 -76q-172 -72 -275 -72q-48 0 -87 12.5t-66 35t-42 55t-15 72.5q0 55 18 131l229 997q11 50 11 68q0 29 -12 52t-41 35q-25 11 -117 21l16 68l449 24l10 -16l-273 -1186q-26 -112 -26 -145z" />
    <glyph glyph-name="m" unicode="m" horiz-adv-x="1925" 
d="M1595 -16q-93 0 -148.5 46.5t-55.5 127.5q0 70 18 133l84 319q25 99 25 135q0 60 -28 91.5t-85 31.5q-109 0 -246 -137l-170 -731h-258l148 639q18 77 18 109q0 66 -33.5 93t-81.5 27q-115 0 -256 -141l-166 -727h-258l144 631q24 102 24 145q0 29 -5 47.5t-16.5 30
t-30.5 16t-48 4.5q-12 0 -27 -2t-31 -6t-31.5 -8.5t-27.5 -9.5l19 78q171 73 268 73q88 0 136.5 -39t64.5 -129h6q46 38 89.5 71t90 57.5t98 38.5t113.5 14q43 0 82 -12.5t69 -36t49.5 -58.5t22.5 -80h6q46 38 90.5 72t92.5 59.5t100.5 40.5t114.5 15q47 0 87.5 -13.5
t69.5 -40t45.5 -64.5t16.5 -87q0 -65 -23 -154l-80 -301q-24 -82 -24 -143q0 -57 24.5 -77.5t83.5 -20.5q70 0 117 22l-18 -78q-82 -32 -147 -51.5t-122 -19.5z" />
    <glyph glyph-name="n" unicode="n" horiz-adv-x="1311" 
d="M979 -16q-93 0 -149 46.5t-56 127.5q0 61 19 133l84 319q24 96 24 135q0 60 -29 91.5t-86 31.5t-123.5 -35.5t-136.5 -105.5l-166 -727h-258l144 631q4 14 8 33t7.5 39t6 39.5t2.5 33.5q0 29 -5 47.5t-16.5 29.5t-30.5 15t-48 4q-12 0 -27.5 -2t-31.5 -5.5t-31 -8
t-27 -8.5l19 78q171 73 268 73q90 0 138.5 -38.5t62.5 -129.5h6q44 37 89.5 70t94.5 57.5t102 39t113 14.5q47 0 87.5 -13.5t70 -40t46.5 -64.5t17 -87q0 -73 -22 -154l-80 -301q-25 -84 -25 -143q0 -27 5 -45.5t18 -30.5t34 -17t54 -5q25 0 59 7.5t56 16.5l-19 -78
q-81 -32 -146 -52.5t-122 -20.5z" />
    <glyph glyph-name="o" unicode="o" horiz-adv-x="1200" 
d="M1133 606q0 -139 -49 -256t-135.5 -202t-203.5 -133t-253 -48q-95 0 -173 28t-134 80.5t-86.5 129t-30.5 172.5q0 138 48 254.5t132.5 201.5t200.5 133t251 48q96 0 175.5 -26.5t136.5 -78.5t89 -128t32 -175zM856 682q0 129 -45.5 192.5t-130.5 63.5q-62 0 -109.5 -28.5
t-82.5 -73t-59 -99t-40 -105.5q-45 -153 -45 -329q0 -260 178 -260q62 0 109 29.5t82 75.5t58.5 100.5t38.5 105.5q46 153 46 328z" />
    <glyph glyph-name="p" unicode="p" horiz-adv-x="1270" 
d="M1202 629q0 -86 -20 -168.5t-58 -155t-92 -133.5t-121 -105.5t-146.5 -69t-168.5 -24.5q-132 0 -227 72l-50 -223q-16 -65 -16 -101q0 -24 9 -41t30 -29t55.5 -18.5t85.5 -9.5l-14 -67h-637l16 67q34 1 65.5 5t57 15.5t44.5 33t28 59.5l203 895q22 87 22 145
q0 29 -5 47.5t-16.5 29t-30.5 15t-48 4.5q-12 0 -27.5 -2t-32 -5.5t-31.5 -8t-26 -8.5l19 78q78 32 142 51.5t124 19.5q82 0 130.5 -31t70.5 -106h8q172 152 321 152q160 0 248 -99.5t88 -283.5zM920 629q0 132 -44.5 192t-134.5 60q-91 0 -206 -115l-127 -557q2 -35 16 -64
t38 -50t55 -32.5t65 -11.5q57 0 104 28t83.5 70.5t62.5 94t42 98.5q46 135 46 287z" />
    <glyph glyph-name="q" unicode="q" horiz-adv-x="1233" 
d="M711 119l-54 -43q-130 -105 -260 -105q-88 0 -150 30t-102 82t-58.5 122t-18.5 151q0 84 20 165.5t58.5 154.5t94 135t126.5 108q139 91 295 91q78 0 146 -18.5t107 -49.5l244 53l12 -14l-274 -1198q-10 -39 -10 -68q0 -42 44 -65.5t132 -26.5l-14 -67h-637l14 67
q105 4 147 28q39 22 56 85l88 383h-6zM864 762q0 76 -44 120t-126 44q-57 0 -104 -29t-84 -72.5t-64 -95.5t-44 -99q-48 -135 -48 -278q0 -133 41 -191.5t127 -58.5q100 0 223 123z" />
    <glyph glyph-name="r" unicode="r" horiz-adv-x="1018" 
d="M1030 825q0 -38 -10.5 -74t-31.5 -63.5t-52.5 -44t-73.5 -16.5q-60 0 -97.5 28.5t-37.5 73.5q0 37 14.5 73.5t34.5 84.5q-135 -34 -252 -174l-162 -713h-258l142 631q9 35 16.5 75t7.5 76q0 45 -20 67.5t-80 22.5q-12 0 -27.5 -2t-31.5 -5.5t-31 -8t-27 -8.5l19 78
q171 73 268 73q92 0 139.5 -39.5t61.5 -134.5h6q99 93 146 126q45 32 83.5 46.5t83.5 14.5q78 0 124 -45t46 -142z" />
    <glyph glyph-name="s" unicode="s" horiz-adv-x="971" 
d="M391 770q0 -42 14 -68t49 -49q17 -11 52.5 -26t89.5 -35q50 -19 98 -42.5t85.5 -56.5t60 -77.5t22.5 -104.5q0 -156 -128 -249q-127 -93 -337 -93q-172 0 -279 54q-106 55 -106 145q0 28 10 51t28 40t42 26.5t51 9.5q60 0 103 -42.5t66 -117.5l22 -72q44 -14 84 -14
q93 0 145.5 47.5t52.5 134.5q0 48 -37 84t-112 66q-164 67 -217 105q-52 39 -78.5 88.5t-26.5 115.5q-1 66 32.5 125.5t94 103.5t143 69.5t179.5 23.5q161 0 248.5 -45.5t87.5 -130.5q0 -27 -9.5 -49.5t-26.5 -39t-40 -25.5t-49 -9q-58 0 -99 40t-63 113l-22 68
q-11 1 -18.5 1.5t-10.5 0.5q-38 0 -74 -10t-64.5 -31t-45.5 -52t-17 -73z" />
    <glyph glyph-name="t" unicode="t" horiz-adv-x="782" 
d="M401 201q0 -51 27.5 -74t87.5 -23q16 0 38.5 2.5t46 6t45.5 9t36 11.5l-18 -82q-174 -74 -310 -74q-106 0 -164.5 47.5t-58.5 129.5q0 16 1.5 33t3.5 36q2 20 14 73.5t32 141.5t46.5 197.5t58.5 241.5h-181l23 96h184l72 299h252l-70 -299h275l-21 -96h-274
q-146 -590 -146 -676z" />
    <glyph glyph-name="u" unicode="u" horiz-adv-x="1290" 
d="M965 -18q-90 0 -146 45t-65 123h-6q-45 -39 -88.5 -71.5t-90.5 -56t-98.5 -36.5t-112.5 -13q-49 0 -89.5 14.5t-68.5 41t-43.5 64.5t-15.5 85q0 64 23 154l76 299q24 108 24 145q0 54 -21 75t-79 21q-12 0 -27.5 -2t-31.5 -5.5t-31.5 -7.5t-26.5 -9l19 78q171 73 262 73
q99 0 150.5 -46t51.5 -128q0 -70 -18 -133l-80 -319q-22 -82 -22 -133q0 -123 108 -123q54 0 118.5 32.5t131.5 96.5l170 737l246 12l12 -14l-145 -629q-27 -97 -27 -143q0 -57 25.5 -78.5t85.5 -21.5q14 0 30 2t31.5 5.5t29.5 8t23 8.5l-16 -78q-82 -32 -147.5 -52.5
t-120.5 -20.5z" />
    <glyph glyph-name="v" unicode="v" horiz-adv-x="1178" 
d="M807 864q0 33 12 60.5t33 47t49 30t60 10.5q77 0 118 -58t41 -188q0 -95 -21.5 -192.5t-62.5 -188.5t-101.5 -170t-137.5 -137q-145 -109 -312 -109q-70 0 -131.5 17t-107.5 53t-72.5 91.5t-26.5 131.5q0 57 18.5 125t41 137t41 134.5t18.5 117.5t-21 74t-81 22
q-51 0 -117 -26l16 78q182 75 267 75q103 0 150.5 -48.5t47.5 -133.5q0 -71 -18 -146t-40 -147t-40 -136t-18 -114q0 -85 45.5 -130.5t126.5 -45.5q52 0 99 18t86.5 48.5t71.5 71t54 84.5q51 104 51 219q0 87 -69 168q-70 79 -70 157z" />
    <glyph glyph-name="w" unicode="w" horiz-adv-x="1798" 
d="M528 799q0 -88 -60 -282q-60 -193 -60 -267q0 -72 33.5 -104.5t84.5 -32.5q63 0 127 35.5t121 99.5q26 140 66.5 323t97.5 412l246 12l12 -14l-127 -547q-29 -118 -29 -172q0 -162 168 -162q52 0 98.5 18.5t86.5 49t71.5 71t52.5 84.5q50 105 50 220q0 45 -17.5 82.5
t-52.5 74.5q-36 38 -53 77t-17 87q0 33 12 60.5t33 47t49 30t60 10.5q77 0 119.5 -58.5t42.5 -193.5q0 -96 -21 -193.5t-61.5 -187.5t-100.5 -168.5t-139 -135.5q-145 -106 -317 -106q-54 0 -104.5 12t-93 37t-74.5 64t-48 94q-40 -42 -83.5 -79.5t-91 -65t-100.5 -44
t-114 -16.5q-59 0 -105.5 18t-79 51.5t-50 81t-17.5 105.5q0 81 61 279q60 200 60 270q0 54 -21 75t-79 21q-12 0 -27.5 -2t-31.5 -5.5t-31.5 -7.5t-26.5 -9l19 78q171 73 262 73q200 0 200 -200z" />
    <glyph glyph-name="x" unicode="x" horiz-adv-x="1110" 
d="M1143 883q0 -33 -11 -60.5t-31 -48t-47.5 -32t-60.5 -11.5q-49 0 -86.5 10t-72.5 21q-99 -94 -170 -213q17 -78 40 -158.5t52 -165.5q38 -123 159 -123q28 0 65.5 7.5t63.5 17.5l-20 -78q-171 -72 -276 -72q-94 0 -148.5 43.5t-79.5 131.5l-49 194q-21 -33 -52.5 -81.5
t-67 -97t-72.5 -91t-69 -63.5q-52 -33 -112 -33q-27 0 -51 8.5t-41 25t-27 39.5t-10 51q0 36 12.5 64.5t34.5 48.5t52 30.5t65 10.5q40 0 78 -12t72 -23q78 66 166 209q-4 18 -12 50t-18.5 70.5t-22.5 79.5t-24 77.5t-23 65t-20 41.5q-19 30 -48.5 43t-71.5 13
q-45 0 -125 -26l18 78q185 75 265 75q70 0 120.5 -25t82.5 -90q14 -28 31.5 -90.5t39.5 -160.5l62 96q14 23 30.5 47t36.5 49q22 32 47.5 64.5t56 58.5t66 43t78.5 17q27 0 50 -9.5t39.5 -26.5t26 -39.5t9.5 -49.5z" />
    <glyph glyph-name="y" unicode="y" horiz-adv-x="1257" 
d="M367 -442q-165 0 -249.5 40t-84.5 128q0 27 9.5 50.5t26 40.5t40 26.5t51.5 9.5q48 0 81.5 -25.5t59.5 -62.5q28 -38 72 -134q65 0 124 34t109 100t89.5 163.5t64.5 223.5h-6q-43 -39 -87.5 -70.5t-92.5 -54t-100 -35t-112 -12.5q-47 0 -87.5 13.5t-70 39.5t-46.5 64
t-17 87q0 65 27 168l72 279q24 108 24 145q0 55 -21 75.5t-79 20.5q-12 0 -27.5 -2t-31.5 -5.5t-31.5 -7.5t-26.5 -9l19 78q171 73 262 73q103 0 152.5 -47.5t49.5 -126.5q0 -70 -20 -145l-78 -301q-24 -91 -24 -133q0 -60 30.5 -92.5t85.5 -32.5q57 0 121 32.5t133 96.5
l160 733l244 12l12 -14l-172 -799q-33 -151 -91.5 -267.5t-141.5 -195.5t-188.5 -120t-233.5 -41z" />
    <glyph glyph-name="z" unicode="z" horiz-adv-x="983" 
d="M283 82h170q51 0 94 1t80 3q63 3 108 80q23 38 48 85t53 103h65l-70 -354h-858l17 76l700 823h-125q-75 0 -128 -3.5t-93 -18.5q-14 -6 -31.5 -23t-37 -44t-39 -62t-37.5 -76h-66l62 309h813l-13 -66z" />
    <glyph glyph-name="braceleft" unicode="{" horiz-adv-x="952" 
d="M694 -334q-251 0 -352 63q-100 63 -100 201q0 62 42 220q42 156 42 221q0 56 -23.5 88t-60.5 49.5t-82 24t-88 10.5l32 137q106 8 176.5 28t115 62t67 109t31.5 168q5 54 12.5 106.5t24 101t44 92t71.5 79.5q45 38 102 59.5t117.5 33t122.5 14.5t118 3l-16 -80
q-56 -4 -104.5 -12t-87 -29t-65.5 -59.5t-40 -102.5l-11 -59l-41 -203q-22 -97 -61.5 -159t-96 -101t-129 -60.5t-159.5 -37.5l-14 -55q75 -15 127.5 -38.5t85.5 -56.5t48 -76.5t15 -99.5q0 -53 -35 -201q-17 -73 -26 -122.5t-9 -77.5q0 -52 20 -82t52.5 -46.5t73 -22.5
t80.5 -9z" />
    <glyph glyph-name="bar" unicode="|" horiz-adv-x="780" 
d="M340 -424v1948h149v-1948h-149z" />
    <glyph glyph-name="braceright" unicode="}" horiz-adv-x="952" 
d="M283 1536q252 0 352 -63t100 -201q0 -63 -42 -219q-42 -157 -42 -222q0 -81 52 -120q52 -38 202 -52l-33 -137q-105 -7 -175.5 -27.5t-115 -62.5t-66.5 -108.5t-31 -167.5q-5 -53 -13.5 -106t-25 -102t-44 -92.5t-71.5 -79.5q-46 -37 -102 -59t-117 -33t-122.5 -14.5
t-117.5 -3.5l16 80q55 4 104 12t87.5 29.5t65.5 59.5t40 102l11 60l41 202q22 97 61.5 158.5t96 100.5t129 61t159.5 38l14 56q-59 12 -109.5 31t-87.5 49.5t-58 76.5t-21 113q0 43 11 95.5t23.5 106.5t23.5 105.5t11 93.5q0 52 -20 82.5t-52 47t-72 22t-81 8.5z" />
    <glyph glyph-name="asciitilde" unicode="~" horiz-adv-x="1378" 
d="M1264 725q-18 -55 -52.5 -111t-80.5 -102t-102 -75t-118 -29q-116 0 -250 78q-72 42 -120 59.5t-88 17.5q-41 0 -72 -17.5t-57 -47.5q-13 -16 -31 -46t-41 -75l-90 35q19 54 53 110.5t80 102.5t101.5 75t117.5 29q61 0 120.5 -19t131.5 -59q41 -23 71.5 -38.5t52.5 -23.5
q42 -16 81 -16q58 0 101 36q44 38 102 151z" />
    <glyph glyph-name="exclamdown" unicode="&#xa1;" horiz-adv-x="723" 
d="M698 1290q0 -34 -13 -63.5t-35 -51.5t-52 -34.5t-63 -12.5q-34 0 -64 12.5t-52 34t-35 51.5t-13 64t13 63.5t35.5 51t52 33.5t63.5 12q33 0 63 -12.5t52 -34t35 -50.5t13 -63zM514 979q-8 -88 -18.5 -247t-24.5 -392q-10 -199 -61 -280q-50 -80 -162 -80q-63 0 -97 31
t-34 77q0 62 55 203l47 118q61 150 115 291.5t102 278.5h78z" />
    <glyph glyph-name="cent" unicode="&#xa2;" horiz-adv-x="1188" 
d="M1083 254q-94 -131 -205.5 -198t-252.5 -81l-62 -274h-94l61 276q-90 10 -162.5 41t-124.5 83t-80 124.5t-28 165.5q0 138 49 252t134 196t200 129t248 50l57 258h97l-60 -260q119 -20 191 -90q73 -70 73 -152q0 -66 -36.5 -99.5t-96.5 -33.5q-51 0 -82.5 31.5
t-31.5 79.5q0 41 26 131q-6 21 -26 32.5t-35 14.5q-8 -38 -55.5 -245t-133.5 -581q63 1 113.5 13.5t94 37t82 60.5t77.5 84zM750 940q-71 -2 -132 -41.5t-106 -109t-70 -166t-24 -213.5q0 -227 147 -289z" />
    <glyph glyph-name="sterling" unicode="&#xa3;" horiz-adv-x="1343" 
d="M1337 1204q0 -34 -9 -67t-27.5 -58.5t-46.5 -41t-66 -15.5q-69 0 -106.5 33t-37.5 90q0 48 41 141l15 39q-31 51 -121 51q-44 0 -85.5 -18t-76.5 -54t-61.5 -91t-40.5 -130l-62 -356h396l-23 -102h-387q-18 -71 -45.5 -128.5t-66.5 -105t-90 -86.5t-115 -72l-3 -16h852
l-51 -217h-1110l39 168q133 40 214 149t106 308h-187l23 102h180q1 14 4.5 44t9.5 77q7 48 11.5 79t7.5 48q19 108 73 197t133.5 152.5t179 98.5t208.5 35q142 0 233 -72q92 -71 92 -182z" />
    <glyph glyph-name="currency" unicode="&#xa4;" horiz-adv-x="1305" 
d="M1053 92l-213 209q-77 -49 -164 -49t-164 49l-213 -211l-96 103l209 210q-50 77 -50 162t50 162l-209 215l100 96l209 -209q77 48 164 48q85 0 162 -46l209 207l102 -96l-209 -215q47 -76 47 -162t-47 -162l209 -213zM858 565q0 38 -14 72t-38.5 59.5t-58 40.5t-71.5 15
q-39 0 -72.5 -14.5t-58.5 -40t-39 -59.5t-14 -73t14 -73t38.5 -59t58.5 -39.5t73 -14.5t72.5 14.5t57.5 40t38 59t14 72.5z" />
    <glyph glyph-name="yen" unicode="&#xa5;" horiz-adv-x="1378" 
d="M813 569h418l-25 -102h-413l-60 -250q-6 -27 -6 -49q0 -29 18 -49q20 -18 51 -30q33 -11 115 -21l-16 -68h-692l16 68q38 2 76 6.5t70.5 17t57 37.5t34.5 68l63 270h-409l24 102h410l10 45q-81 266 -186 564q-17 42 -36.5 72.5t-44 51t-56 32.5t-72.5 16l16 69h662
l-17 -69l-54 -3q-60 -2 -97 -16t-37 -39q0 -17 13 -65q7 -24 16 -57t22 -75t43 -128.5t78 -218.5l190 227l131 160q75 93 88 115q15 24 15 36t-6 20.5t-15 14t-19.5 9l-19.5 6.5q-14 4 -38.5 7t-59.5 7l19 69h501l-18 -69q-139 -21 -268 -162q-103 -117 -222 -255.5
t-256 -303.5z" />
    <glyph glyph-name="brokenbar" unicode="&#xa6;" horiz-adv-x="780" 
d="M340 723v801h149v-801h-149zM340 -424v809h149v-809h-149z" />
    <glyph glyph-name="section" unicode="&#xa7;" horiz-adv-x="1087" 
d="M1077 1278q0 -54 -33 -89.5t-90 -35.5q-92 0 -134 144l-21 73q-19 6 -49 6q-42 0 -86 -11.5t-80 -35t-59 -59t-23 -84.5t37.5 -87.5t118.5 -75.5l112 -54q229 -108 229 -281q0 -118 -82 -209.5t-245 -148.5q164 -80 164 -226q2 -73 -36.5 -137.5t-106.5 -112.5
t-159.5 -75t-195.5 -25q-69 0 -124.5 12t-94 34.5t-59.5 56t-21 75.5q0 51 32.5 86t90.5 35q40 0 65.5 -22.5t42.5 -56.5q17 -33 45 -136q23 -6 50 -6q46 0 91.5 11.5t81.5 35.5t58 61.5t22 90.5q0 42 -22.5 71.5t-56.5 52.5q-40 28 -170 89q-125 57 -182.5 127.5
t-57.5 160.5q0 242 322 357q-168 83 -168 225q0 54 19.5 100t52.5 83.5t76.5 65.5t90.5 46q116 45 256 45q142 0 220.5 -45.5t78.5 -130.5zM782 614q0 49 -24.5 83.5t-62.5 61.5q-42 32 -171 93q-180 -91 -180 -246q0 -52 23.5 -86.5t64.5 -63.5q23 -16 65.5 -39.5
t106.5 -54.5q178 100 178 252z" />
    <glyph glyph-name="dieresis" unicode="&#xa8;" horiz-adv-x="1024" 
d="M1051 1356q0 -29 -10.5 -55t-29 -46t-43.5 -31.5t-55 -11.5t-55 11.5t-44 31t-29.5 46t-10.5 55.5t10.5 55t29.5 46t44 32t55 12q29 0 54.5 -12t44 -32t29 -46t10.5 -55zM588 1356q0 -28 -10.5 -54.5t-29 -46t-43.5 -31.5t-54 -12q-30 0 -55.5 11.5t-44 31t-29.5 46
t-11 55.5q0 30 10.5 56t29 46t44.5 31.5t56 11.5q29 0 54 -12t43.5 -32t29 -46t10.5 -55z" />
    <glyph glyph-name="copyright" unicode="&#xa9;" horiz-adv-x="1929" 
d="M1872 604q0 -122 -32 -235t-89.5 -211.5t-138.5 -179.5t-179 -138.5t-210.5 -89t-233.5 -31.5q-123 0 -236.5 32t-212 89.5t-179.5 138.5t-138.5 179.5t-89 211.5t-31.5 234q0 122 32 235t90.5 211t140 178t180 137t211 88.5t233.5 31.5q122 0 234.5 -32t210.5 -89.5
t178.5 -138t138.5 -178.5t89.5 -210t31.5 -233zM1774 604q0 110 -28 211.5t-78.5 190t-122 160.5t-158.5 123.5t-188 79.5t-210 28q-111 0 -212 -28.5t-188.5 -80.5t-158.5 -124.5t-121.5 -160.5t-78 -189t-27.5 -210q0 -111 27.5 -213.5t78 -191.5t121.5 -161.5t158.5 -124
t189 -80t211.5 -28.5q112 0 213.5 29t189 81t158 125t120.5 162t77 191t27 211zM1407 391q-27 -67 -67.5 -119t-92.5 -87t-113 -53.5t-130 -18.5q-108 -2 -199.5 33t-158 99t-103.5 153t-35 194q-2 107 37.5 199.5t109.5 160.5t166 106t207 36q69 0 130.5 -19.5t103.5 -44.5
l38 60h64l2 -367h-59q-19 55 -42.5 108t-57 94.5t-80.5 67t-113 25.5q-52 0 -92 -19t-69 -50.5t-48 -73.5t-30.5 -87.5t-16 -92t-4.5 -87.5q0 -71 15 -141.5t50 -126.5t92 -90.5t140 -34.5q94 0 165 48t130 159z" />
    <glyph glyph-name="ordfeminine" unicode="&#xaa;" horiz-adv-x="1077" 
d="M870 621q-67 0 -114 30.5t-60 85.5h-6q-133 -127 -264 -127t-201.5 81t-70.5 233q0 68 17 133.5t48.5 124t76 108.5t99.5 86.5t118.5 57t133.5 20.5q125 0 207 -55l203 45l14 -14l-127 -506q-20 -89 -20 -123q0 -38 20.5 -56t71.5 -18q39 0 96 23l-16 -70
q-54 -23 -110 -41t-116 -18zM805 1249q0 131 -125 131q-56 2 -108.5 -36.5t-92 -102.5t-63 -147t-21.5 -170q0 -100 28.5 -150.5t100.5 -50.5q37 0 77.5 21t96.5 77z" />
    <glyph glyph-name="guillemotleft" unicode="&#xab;" horiz-adv-x="1219" 
d="M530 109l-180 171q-14 13 -39.5 36.5t-52.5 49.5t-50 51t-32 40q-12 20 -12 49q0 82 88 143q184 126 300 205t167 113l41 -47l-377 -394l207 -381zM946 109q-115 107 -186.5 174t-100.5 96q-58 60 -68 78q-11 22 -11 49q0 85 88 143q97 67 211 146.5t256 171.5l39 -47
l-375 -394l207 -381z" />
    <glyph glyph-name="logicalnot" unicode="&#xac;" horiz-adv-x="1378" 
d="M1087 61v463h-909v144h1059v-607h-150z" />
    <glyph glyph-name="registered" unicode="&#xae;" horiz-adv-x="1929" 
d="M1872 604q0 -122 -32 -235t-89.5 -211.5t-138.5 -179.5t-179 -138.5t-210.5 -89t-233.5 -31.5q-123 0 -236.5 32t-212 89.5t-179.5 138.5t-138.5 179.5t-89 211.5t-31.5 234q0 122 32 235t90.5 211t140 178t180 137t211 88.5t233.5 31.5q122 0 234.5 -32t210.5 -89.5
t178.5 -138t138.5 -178.5t89.5 -210t31.5 -233zM1774 604q0 110 -28 211.5t-78.5 190t-122 160.5t-158.5 123.5t-188 79.5t-210 28q-111 0 -212 -28.5t-188.5 -80.5t-158.5 -124.5t-121.5 -160.5t-78 -189t-27.5 -210q0 -111 27.5 -213.5t78 -191.5t121.5 -161.5t158.5 -124
t189 -80t211.5 -28.5q112 0 213.5 29t189 81t158 125t120.5 162t77 191t27 211zM1257 145q-54 76 -93 131t-65 89q-26 35 -63 82t-86 108h-69v-266q0 -39 26 -59q26 -18 105 -27v-58h-461v58q89 11 111 27q22 18 22 57v633q0 57 -41 72q-20 8 -43 14.5t-49 11.5v57h504
q160 0 244.5 -57.5t84.5 -163.5q0 -100 -54.5 -161.5t-174.5 -96.5l231 -289q65 -83 155 -98l40 -6v-58h-324zM1163 834q0 170 -198 170h-84v-377h67q100 0 157.5 51t57.5 156z" />
    <glyph glyph-name="macron" unicode="&#xaf;" horiz-adv-x="1329" 
d="M209 1604l27 108h1388l-27 -108h-1388z" />
    <glyph glyph-name="degree" unicode="&#xb0;" horiz-adv-x="858" 
d="M842 1128q0 -73 -25 -133.5t-70 -103.5t-106 -66.5t-133 -23.5t-133.5 23.5t-106.5 66.5t-70.5 103.5t-25.5 133.5t25.5 133.5t70.5 103.5t106.5 67t133.5 24t133.5 -24t106 -67t69.5 -103.5t25 -133.5zM678 1120q0 125 -47 188.5t-125 63.5t-123 -63.5t-45 -178.5
t43.5 -181t128.5 -66q46 0 78 22.5t52 57.5t29 76.5t9 80.5z" />
    <glyph glyph-name="plusminus" unicode="&#xb1;" horiz-adv-x="1378" 
d="M180 0v143h459v398h-459v145h459v463h145v-463h461v-145h-461v-398h461v-143h-1065z" />
    <glyph glyph-name="twosuperior" unicode="&#xb2;" horiz-adv-x="1077" 
d="M643 1378q-68 0 -129 -41q18 -63 18 -100q0 -60 -33.5 -93.5t-99.5 -33.5q-48 0 -73 29.5t-25 72.5q-2 43 29 87t84 79t123.5 56.5t146.5 19.5q56 0 117.5 -10.5t114 -37t86.5 -71.5t34 -114q0 -96 -43 -165.5t-120 -123.5q-77 -55 -287 -134q-181 -69 -240 -128h627
l-39 -181h-789l31 142q53 54 120 96.5t136 82t135 79.5t117.5 89t83 111t31.5 144q0 75 -42 110t-114 35z" />
    <glyph glyph-name="threesuperior" unicode="&#xb3;" horiz-adv-x="1077" 
d="M1024 1253q0 -57 -24.5 -100.5t-63.5 -75t-88 -52.5t-98 -32l-2 -8q112 -11 170.5 -61t58.5 -131q0 -147 -136 -244q-135 -96 -339 -96q-147 0 -243 57q-95 57 -95 143q0 25 8 48t23 40.5t36.5 28t47.5 10.5q55 0 84.5 -27t29.5 -69q0 -35 -12 -62t-25 -53
q56 -43 129 -43q63 0 111.5 21t81 58t49 88t16.5 112q0 127 -165 127h-99l23 92h69q105 0 163.5 62t58.5 174q0 52 -36.5 86t-105.5 34q-42 0 -77 -14t-52 -27q5 -20 11 -41t6 -49q0 -123 -127 -123q-48 0 -73.5 28.5t-25.5 70.5q-1 41 30 83t84.5 75t124 53t148.5 18
q80 0 140.5 -14.5t101 -41t61.5 -63.5t21 -82z" />
    <glyph glyph-name="acute" unicode="&#xb4;" horiz-adv-x="1024" 
d="M922 1462q0 -39 -15 -61.5t-44 -45.5q-33 -25 -155 -102q-111 -69 -225 -147l-39 35q29 38 62.5 83.5t70.5 98.5l87 123q16 24 31.5 42t33.5 30t40 18t52 6q21 0 39.5 -6.5t32 -17.5t21.5 -25.5t8 -30.5z" />
    <glyph glyph-name="uni00B5" unicode="&#xb5;" horiz-adv-x="1274" 
d="M1167 995l13 -12l-74 -315q-17 -76 -34.5 -151.5t-35.5 -152.5q-35 -153 -28 -157q0 -56 25 -77t85 -21q11 0 27 2t32 5t31 7.5t25 9.5l-19 -78q-81 -32 -146 -51.5t-122 -19.5q-90 0 -144 45t-65 121h-6q-155 -173 -328 -173q-126 0 -182 78h-8q-16 -83 -16 -141l6 -145
q0 -48 -12 -86.5t-34 -66.5t-53.5 -43t-70.5 -15q-45 0 -73 26t-28 74q0 52 77 226q56 125 87 255l195 844l246 12l12 -12l-148 -635q-14 -67 -14 -106q0 -127 117 -127q72 0 132 37t116 94l168 737z" />
    <glyph glyph-name="paragraph" unicode="&#xb6;" horiz-adv-x="1149" 
d="M1282 1419l-20 -86h-166l-363 -1558h-106l364 1558h-168l-362 -1558h-107q78 328 131 553.5t82 353.5q-168 2 -270 90q-102 89 -102 225q0 116 62 214q32 50 75.5 88.5t97.5 65t116 40.5t130 14h606z" />
    <glyph glyph-name="periodcentered" unicode="&#xb7;" horiz-adv-x="631" 
d="M498 553q0 -35 -12.5 -65.5t-35 -53t-53 -35t-65.5 -12.5t-66 12.5t-53.5 35t-35.5 52.5t-13 66q0 35 13 65t36 52.5t53.5 35.5t65.5 13q34 0 64 -13.5t52.5 -36t36 -52.5t13.5 -64z" />
    <glyph glyph-name="cedilla" unicode="&#xb8;" horiz-adv-x="1024" 
d="M694 -225q0 -111 -107 -165q-106 -54 -358 -54l17 73q132 0 175 9q45 9 70 29t25 57q0 31 -32 46t-107 15l49 231h82l-25 -114q102 0 156.5 -33.5t54.5 -93.5z" />
    <glyph glyph-name="onesuperior" unicode="&#xb9;" horiz-adv-x="1077" 
d="M852 1448l-31 -117l-153 -651l-9 -47q0 -34 31 -53q15 -7 49 -12.5t88 -10.5l-16 -68h-596l16 68q133 10 154 18q51 16 64 70l137 608h-201l18 80h52q167 0 295 115h102z" />
    <glyph glyph-name="ordmasculine" unicode="&#xba;" horiz-adv-x="1077" 
d="M1065 1124q0 -114 -42.5 -209t-115 -163.5t-170 -107t-207.5 -38.5q-76 0 -141.5 22.5t-113 65t-74.5 105t-27 141.5q0 113 41.5 207.5t113 162.5t168 106t205.5 38q78 0 144.5 -20.5t115 -61.5t76 -103t27.5 -145zM827 1184q0 198 -141 198q-54 0 -95.5 -25.5t-72 -67.5
t-50.5 -95.5t-32 -109.5t-17 -109.5t-5 -95.5q0 -103 37 -152t106 -49q49 0 86.5 24.5t66 61.5t48.5 81t32 84q37 120 37 255z" />
    <glyph glyph-name="guillemotright" unicode="&#xbb;" horiz-adv-x="1219" 
d="M1090 567q0 -81 -89 -143q-99 -69 -173 -120.5t-125 -86.5q-102 -70 -168 -111l-41 48l376 391l-206 383l59 37q26 -23 74.5 -68.5t120.5 -115.5q72 -69 110.5 -109.5t46.5 -51.5q15 -22 15 -53zM676 567q0 -82 -88 -143l-120 -83q-122 -85 -208.5 -143.5t-138.5 -91.5
l-41 48l377 391l-207 383l59 37q80 -67 330 -318q37 -40 37 -80z" />
    <glyph glyph-name="onequarter" unicode="&#xbc;" horiz-adv-x="2171" 
d="M780 1448l-31 -117l-153 -651l-9 -47q0 -34 31 -53q15 -7 49 -12.5t88 -10.5l-16 -68h-596l16 68q133 10 154 18q51 16 64 70l137 608h-201l18 80h52q167 0 295 115h102zM623 0h-146l1067 1423h148zM2012 349l-33 -136h-158l-51 -231h-199l53 231h-497l33 144l669 608
h166l-141 -616h158zM1756 785l-484 -436h383z" />
    <glyph glyph-name="onehalf" unicode="&#xbd;" horiz-adv-x="2171" 
d="M774 1448l-31 -117l-153 -651l-9 -47q0 -34 31 -53q15 -7 49 -12.5t88 -10.5l-16 -68h-596l16 68q133 10 154 18q51 16 64 70l137 608h-201l18 80h52q167 0 295 115h102zM608 0h-146l1067 1423h148zM1704 891q-68 0 -129 -41q18 -63 18 -100q0 -60 -33.5 -93.5
t-99.5 -33.5q-48 0 -73 29.5t-25 72.5q-2 43 29 87t84 79t123.5 56.5t146.5 19.5q56 0 117.5 -10.5t114 -37t86.5 -71.5t34 -114q0 -96 -43 -165.5t-120 -123.5q-77 -55 -287 -134q-181 -69 -240 -128h627l-39 -181h-789l31 142q53 54 120 96.5t136 82t135 79.5t117.5 89
t83 110.5t31.5 144.5q0 75 -42 110t-114 35z" />
    <glyph glyph-name="threequarters" unicode="&#xbe;" horiz-adv-x="2171" 
d="M1012 1253q0 -57 -24.5 -100.5t-63.5 -75t-88 -52.5t-98 -32l-2 -8q112 -11 170.5 -61t58.5 -131q0 -147 -136 -244q-135 -96 -339 -96q-147 0 -243 57q-95 57 -95 143q0 25 8 48t23 40.5t36.5 28t47.5 10.5q55 0 84.5 -27t29.5 -69q0 -35 -12 -62t-25 -53
q56 -43 129 -43q63 0 111.5 21t81 58t49 88t16.5 112q0 127 -165 127h-99l23 92h69q105 0 163.5 62t58.5 174q0 52 -36.5 86t-105.5 34q-42 0 -77 -14t-52 -27q5 -20 11 -41t6 -49q0 -123 -127 -123q-48 0 -73.5 28.5t-25.5 70.5q-1 41 30 83t84.5 75t124 53t148.5 18
q80 0 140.5 -14.5t101 -41t61.5 -63.5t21 -82zM762 0h-146l1067 1423h148zM2081 349l-33 -136h-158l-51 -231h-199l53 231h-497l33 144l669 608h166l-141 -616h158zM1825 785l-484 -436h383z" />
    <glyph glyph-name="questiondown" unicode="&#xbf;" horiz-adv-x="1051" 
d="M932 1292q0 -34 -13 -63.5t-35.5 -52t-52 -35.5t-63.5 -13t-64.5 13t-53 35t-35.5 52t-13 64t13.5 63.5t36 51t53 33.5t63.5 12t63 -12.5t52.5 -34t35.5 -51t13 -62.5zM895 252q2 -53 -33 -104t-95.5 -90t-140.5 -62t-169 -21q-81 0 -154 21.5t-128.5 64.5t-88.5 108.5
t-33 152.5q0 217 160 359q159 141 428 167l39 174h90l-78 -383q-200 -17 -303.5 -112.5t-103.5 -258.5q0 -102 52.5 -158.5t149.5 -56.5q78 0 140 43q-7 35 -10.5 64t-3.5 54q0 78 43 118.5t118 40.5q54 0 87.5 -33.5t33.5 -87.5z" />
    <glyph glyph-name="Agrave" unicode="&#xc0;" horiz-adv-x="1462" 
d="M1034 1527q-94 63 -166.5 111t-120.5 83q-27 20 -37.5 48t2.5 61q14 33 44.5 54.5t63.5 20.5q53 0 91 -52q46 -71 93.5 -139t96.5 -136zM1397 0h-670l16 70q207 17 207 69l-6 60l-45 286h-493q-7 -11 -23 -37.5t-35.5 -60.5t-40.5 -71.5t-38.5 -71.5t-28.5 -60t-11 -37
q0 -23 23.5 -38t55 -23t63 -11.5t47.5 -4.5l-15 -70h-569l14 70q95 4 162 46t123 130q20 32 41 64t42 65t189 299.5t484 765.5h139l201 -1231q22 -129 182 -139zM795 1108l-332 -535h420z" />
    <glyph glyph-name="Aacute" unicode="&#xc1;" horiz-adv-x="1462" 
d="M832 1578q69 68 136.5 136t134.5 139q52 52 105 52q17 0 33.5 -7.5t30.5 -20t23.5 -28t11.5 -32.5q3 -33 -15.5 -61t-51.5 -48q-58 -35 -146.5 -76.5t-200.5 -104.5zM1397 0h-670l16 70q207 17 207 69l-6 60l-45 286h-493q-7 -11 -23 -37.5t-35.5 -60.5t-40.5 -71.5
t-38.5 -71.5t-28.5 -60t-11 -37q0 -23 23.5 -38t55 -23t63 -11.5t47.5 -4.5l-15 -70h-569l14 70q95 4 162 46t123 130q20 32 41 64t42 65t189 299.5t484 765.5h139l201 -1231q22 -129 182 -139zM795 1108l-332 -535h420z" />
    <glyph glyph-name="Acircumflex" unicode="&#xc2;" horiz-adv-x="1462" 
d="M631 1538l280 293q43 46 112 46h1q69 0 94 -46l172 -293l-78 -31l-220 186l-286 -186zM1397 0h-670l16 70q207 17 207 69l-6 60l-45 286h-493q-7 -11 -23 -37.5t-35.5 -60.5t-40.5 -71.5t-38.5 -71.5t-28.5 -60t-11 -37q0 -23 23.5 -38t55 -23t63 -11.5t47.5 -4.5
l-15 -70h-569l14 70q95 4 162 46t123 130q20 32 41 64t42 65t189 299.5t484 765.5h139l201 -1231q22 -129 182 -139zM795 1108l-332 -535h420z" />
    <glyph glyph-name="Atilde" unicode="&#xc3;" horiz-adv-x="1462" 
d="M1334 1768q-37 -95 -104 -154q-71 -59 -142 -55q-35 2 -66.5 13.5t-67.5 34.5q-32 22 -54 34.5t-37 13.5q-24 2 -45 -8t-38.5 -26t-32 -35.5t-26.5 -37.5l-65 39q105 218 243 210q32 -2 63.5 -13.5t66.5 -35.5q33 -22 58 -34t40 -13q27 -2 48 6.5t37.5 23.5t29.5 35
t25 41zM1397 0h-670l16 70q207 17 207 69l-6 60l-45 286h-493q-7 -11 -23 -37.5t-35.5 -60.5t-40.5 -71.5t-38.5 -71.5t-28.5 -60t-11 -37q0 -23 23.5 -38t55 -23t63 -11.5t47.5 -4.5l-15 -70h-569l14 70q95 4 162 46t123 130q20 32 41 64t42 65t189 299.5t484 765.5h139
l201 -1231q22 -129 182 -139zM795 1108l-332 -535h420z" />
    <glyph glyph-name="Adieresis" unicode="&#xc4;" horiz-adv-x="1462" 
d="M1344 1716q0 -29 -10.5 -55t-29 -46t-43.5 -32t-55 -12t-55 12t-43 32t-28.5 46t-10.5 55t10.5 55t29 45.5t43.5 31.5t54 12t54.5 -12t44 -31.5t29 -45.5t10.5 -55zM852 1716q0 -29 -10.5 -55.5t-29 -46.5t-44 -31.5t-55.5 -11.5t-55 11.5t-43.5 31.5t-28.5 46.5
t-10 55.5t10 55t28.5 46t43.5 31.5t55 11.5q29 0 54.5 -12t44 -31.5t29.5 -45.5t11 -55zM1397 0h-670l16 70q207 17 207 69l-6 60l-45 286h-493q-7 -11 -23 -37.5t-35.5 -60.5t-40.5 -71.5t-38.5 -71.5t-28.5 -60t-11 -37q0 -23 23.5 -38t55 -23t63 -11.5t47.5 -4.5l-15 -70
h-569l14 70q95 4 162 46t123 130q20 32 41 64t42 65t189 299.5t484 765.5h139l201 -1231q22 -129 182 -139zM795 1108l-332 -535h420z" />
    <glyph glyph-name="Aring" unicode="&#xc5;" horiz-adv-x="1462" 
d="M1397 0h-670l16 70q207 17 207 69l-6 60l-45 286h-493q-7 -11 -23 -37.5t-35.5 -60.5t-40.5 -71.5t-38.5 -71.5t-28.5 -60t-11 -37q0 -23 23.5 -38t55 -23t63 -11.5t47.5 -4.5l-15 -70h-569l14 70q95 4 162 46t123 130q20 32 41 64t42 65q20 32 178 282t459 726
q-73 17 -113 63.5t-40 115.5q0 65 27 114.5t71 83.5t100.5 51.5t115.5 17.5q44 0 86 -11t75 -34t53.5 -58.5t20.5 -85.5q0 -48 -16.5 -89t-45 -74t-67.5 -56t-83 -35l192 -1177q22 -129 182 -139zM1110 1640q0 54 -27.5 88.5t-81.5 34.5q-40 0 -70.5 -18t-51 -46.5
t-30.5 -64.5t-10 -72q0 -54 27 -88t84 -34q41 0 71 17.5t50 46t29.5 64.5t9.5 72zM795 1108l-332 -535h420z" />
    <glyph glyph-name="AE" unicode="&#xc6;" horiz-adv-x="2095" 
d="M1890 0h-1239l17 70q128 8 173 35q47 29 60 88l92 405h-481q-97 -122 -155 -197t-78 -104q-42 -57 -64 -95t-22 -55q0 -64 163 -77l-14 -70h-561l14 70q89 7 160.5 49t140.5 127q139 170 354 438t506 633q-14 8 -37.5 13.5t-49 9.5t-49.5 6.5t-40 3.5l17 69h1343
l-80 -352h-75q-3 33 -14.5 76t-32 82.5t-49.5 68.5t-68 35q-29 5 -71 7.5t-99 2.5h-203l-129 -563h137q45 0 76.5 6t54.5 16q17 5 39 22.5t45.5 45t45.5 65.5t40 85h76l-133 -574h-74q0 130 -17 172q-16 42 -56 61t-115 19h-138l-98 -424q-14 -58 -14 -100q0 -52 36 -70
q38 -18 162 -18q143 0 211 13q71 14 101 38q28 22 62.5 59.5t69 80.5t65 85t49.5 72h73zM1163 1333h-67l-512 -645h430z" />
    <glyph glyph-name="Ccedilla" unicode="&#xc7;" horiz-adv-x="1389" 
d="M1337 356q-227 -382 -643 -391l-14 -63q102 0 156.5 -33.5t54.5 -93.5q0 -111 -107 -165q-106 -54 -358 -54l17 73q132 0 175 9q45 9 70 29t25 57q0 31 -32 46t-107 15l39 183q-118 9 -214.5 55t-164.5 121t-105 176.5t-37 222.5t30 235t84.5 215.5t132.5 186
t173.5 145.5t207 95t234.5 34q45 0 98 -5.5t106.5 -17.5t103 -30t88.5 -43l65 61h84l-110 -512h-84q-23 240 -111 350.5t-240 110.5q-90 0 -163.5 -35t-131.5 -92.5t-101.5 -131t-73.5 -149.5q-76 -195 -76 -423q0 -88 21 -169.5t66 -144t115 -100t168 -37.5q137 0 256.5 76
t229.5 239z" />
    <glyph glyph-name="Egrave" unicode="&#xc8;" horiz-adv-x="1407" 
d="M1034 1527q-94 63 -166.5 111t-120.5 83q-27 20 -37.5 48t2.5 61q14 33 44.5 54.5t63.5 20.5q53 0 91 -52q46 -71 93.5 -139t96.5 -136zM1372 1067h-74q-4 34 -15 77t-31.5 82t-49.5 68t-69 35q-56 10 -170 10h-211l-129 -563h147q80 0 131 22q27 11 51 32.5t46 50
t40 63.5t33 72h76l-133 -574h-74v50q0 60 -14 111q-13 49 -56 70t-118 21h-150l-94 -413q-16 -60 -16 -107q0 -54 38 -74q38 -18 166 -18q67 0 115 2t77 6q32 4 54.5 9.5t41.5 15.5t36.5 25t39.5 38q23 24 50.5 55.5t54.5 65.5t51 68.5t41 62.5h72l-127 -430h-1247l14 70
q97 0 157.5 25.5t76.5 94.5l233 1012q6 29 6 47q0 39 -45 65.5t-133 35.5l17 69h1173z" />
    <glyph glyph-name="Eacute" unicode="&#xc9;" horiz-adv-x="1407" 
d="M852 1578q69 68 136.5 136t134.5 139q52 52 105 52q17 0 33.5 -7.5t30.5 -20t23.5 -28t11.5 -32.5q3 -33 -15.5 -61t-51.5 -48q-58 -35 -146.5 -76.5t-200.5 -104.5zM1372 1067h-74q-4 34 -15 77t-31.5 82t-49.5 68t-69 35q-56 10 -170 10h-211l-129 -563h147
q80 0 131 22q27 11 51 32.5t46 50t40 63.5t33 72h76l-133 -574h-74v50q0 60 -14 111q-13 49 -56 70t-118 21h-150l-94 -413q-16 -60 -16 -107q0 -54 38 -74q38 -18 166 -18q67 0 115 2t77 6q32 4 54.5 9.5t41.5 15.5t36.5 25t39.5 38q23 24 50.5 55.5t54.5 65.5t51 68.5
t41 62.5h72l-127 -430h-1247l14 70q97 0 157.5 25.5t76.5 94.5l233 1012q6 29 6 47q0 39 -45 65.5t-133 35.5l17 69h1173z" />
    <glyph glyph-name="Ecircumflex" unicode="&#xca;" horiz-adv-x="1407" 
d="M641 1538l280 293q43 46 112 46h1q69 0 94 -46l172 -293l-78 -31l-220 186l-286 -186zM1372 1067h-74q-4 34 -15 77t-31.5 82t-49.5 68t-69 35q-56 10 -170 10h-211l-129 -563h147q80 0 131 22q27 11 51 32.5t46 50t40 63.5t33 72h76l-133 -574h-74v50q0 60 -14 111
q-13 49 -56 70t-118 21h-150l-94 -413q-16 -60 -16 -107q0 -54 38 -74q38 -18 166 -18q67 0 115 2t77 6q32 4 54.5 9.5t41.5 15.5t36.5 25t39.5 38q23 24 50.5 55.5t54.5 65.5t51 68.5t41 62.5h72l-127 -430h-1247l14 70q97 0 157.5 25.5t76.5 94.5l233 1012q6 29 6 47
q0 39 -45 65.5t-133 35.5l17 69h1173z" />
    <glyph glyph-name="Edieresis" unicode="&#xcb;" horiz-adv-x="1407" 
d="M1287 1716q0 -29 -10.5 -55t-29 -46t-43.5 -32t-55 -12t-55 12t-43 32t-28.5 46t-10.5 55t10.5 55t29 45.5t43.5 31.5t54 12t54.5 -12t44 -31.5t29 -45.5t10.5 -55zM795 1716q0 -29 -10.5 -55.5t-29 -46.5t-44 -31.5t-55.5 -11.5t-55 11.5t-43.5 31.5t-28.5 46.5
t-10 55.5t10 55t28.5 46t43.5 31.5t55 11.5q29 0 54.5 -12t44 -31.5t29.5 -45.5t11 -55zM1372 1067h-74q-4 34 -15 77t-31.5 82t-49.5 68t-69 35q-56 10 -170 10h-211l-129 -563h147q80 0 131 22q27 11 51 32.5t46 50t40 63.5t33 72h76l-133 -574h-74v50q0 60 -14 111
q-13 49 -56 70t-118 21h-150l-94 -413q-16 -60 -16 -107q0 -54 38 -74q38 -18 166 -18q67 0 115 2t77 6q32 4 54.5 9.5t41.5 15.5t36.5 25t39.5 38q23 24 50.5 55.5t54.5 65.5t51 68.5t41 62.5h72l-127 -430h-1247l14 70q97 0 157.5 25.5t76.5 94.5l233 1012q6 29 6 47
q0 39 -45 65.5t-133 35.5l17 69h1173z" />
    <glyph glyph-name="Igrave" unicode="&#xcc;" horiz-adv-x="860" 
d="M743 1527q-94 63 -166.5 111t-120.5 83q-27 20 -37.5 48t2.5 61q14 33 44.5 54.5t63.5 20.5q53 0 91 -52q46 -71 93.5 -139t96.5 -136zM446 1249q0 39 -45.5 63t-142.5 38l16 69h713l-16 -69q-34 -3 -72.5 -7.5t-73.5 -17t-62 -36t-36 -64.5l-233 -1016q-7 -20 -7 -43
q0 -42 37 -64q38 -22 152 -32l-17 -70h-710l16 70q100 0 162 24.5t78 93.5l231 1006z" />
    <glyph glyph-name="Iacute" unicode="&#xcd;" horiz-adv-x="860" 
d="M526 1578q69 68 136.5 136t134.5 139q52 52 105 52q17 0 33.5 -7.5t30.5 -20t23.5 -28t11.5 -32.5q3 -33 -15.5 -61t-51.5 -48q-58 -35 -146.5 -76.5t-200.5 -104.5zM446 1249q0 39 -45.5 63t-142.5 38l16 69h713l-16 -69q-34 -3 -72.5 -7.5t-73.5 -17t-62 -36t-36 -64.5
l-233 -1016q-7 -20 -7 -43q0 -42 37 -64q38 -22 152 -32l-17 -70h-710l16 70q100 0 162 24.5t78 93.5l231 1006z" />
    <glyph glyph-name="Icircumflex" unicode="&#xce;" horiz-adv-x="860" 
d="M989 1526l-43 -31l-272 207l-352 -207l-39 31l309 305q43 37 107 37q33 0 57.5 -10t44.5 -39zM446 1249q0 39 -45.5 63t-142.5 38l16 69h713l-16 -69q-34 -3 -72.5 -7.5t-73.5 -17t-62 -36t-36 -64.5l-233 -1016q-7 -20 -7 -43q0 -42 37 -64q38 -22 152 -32l-17 -70h-710
l16 70q100 0 162 24.5t78 93.5l231 1006z" />
    <glyph glyph-name="Idieresis" unicode="&#xcf;" horiz-adv-x="860" 
d="M1041 1714q0 -29 -10.5 -55t-29 -46t-43.5 -31.5t-55 -11.5t-55 11.5t-44 31t-29.5 46t-10.5 55.5t10.5 55t29.5 46t44 32t55 12q29 0 54.5 -12t44 -32t29 -46t10.5 -55zM578 1714q0 -28 -10.5 -54.5t-29 -46t-43.5 -31.5t-54 -12q-30 0 -55.5 11.5t-44 31t-29.5 46
t-11 55.5q0 30 10.5 56t29 46t44.5 31.5t56 11.5q29 0 54 -12t43.5 -32t29 -46t10.5 -55zM446 1249q0 39 -45.5 63t-142.5 38l16 69h713l-16 -69q-34 -3 -72.5 -7.5t-73.5 -17t-62 -36t-36 -64.5l-233 -1016q-7 -20 -7 -43q0 -42 37 -64q38 -22 152 -32l-17 -70h-710l16 70
q100 0 162 24.5t78 93.5l231 1006z" />
    <glyph glyph-name="Eth" unicode="&#xd0;" horiz-adv-x="1620" 
d="M442 1245q0 45 -42.5 68.5t-127.5 36.5l17 69h663q187 0 341 -71q155 -70 230.5 -192.5t75.5 -289.5q0 -137 -36 -254.5t-100.5 -213.5t-154 -170.5t-196.5 -125t-227.5 -76.5t-247.5 -26h-678l14 70q97 0 154 24.5t76 93.5l116 506h-190l23 99h190l92 403zM928 793
l-21 -99h-303l-102 -438q-10 -47 -10 -66q0 -58 45.5 -83t150.5 -25q104 0 189 35t151 95t114.5 140t80 170t46.5 184t15 183q0 95 -23.5 177t-72.5 142t-123 94.5t-176 34.5l-139 -4l-125 -540h303z" />
    <glyph glyph-name="Ntilde" unicode="&#xd1;" horiz-adv-x="1634" 
d="M1489 1842q-16 -45 -44.5 -92.5t-67 -87t-85.5 -64.5t-98 -25q-60 0 -104.5 16t-82.5 35.5t-74 35.5t-79 16q-27 0 -45 -11.5t-35 -31.5q-15 -18 -63 -95l-64 27q18 41 46.5 88.5t65.5 88t82.5 67t96.5 26.5q53 0 97 -16t82 -35.5t72.5 -36t69.5 -16.5q34 0 61 10t50 36
q20 25 55 91zM1253 -12h-127l-598 1167l-170 -741q-13 -61 -19.5 -107.5t-6.5 -79.5q0 -28 3.5 -48t13 -35t26.5 -26t44 -20q28 -10 55.5 -17t55.5 -11l-16 -70h-596l16 70q18 1 43.5 5.5t52 11t50.5 15t39 17.5q29 20 49.5 55t36 75.5t26 81.5t17.5 72l155 678q13 46 13 90
q-1 44 -14.5 74.5t-39 50.5t-63 32.5t-86.5 21.5l18 69h465l537 -1054l149 643q27 108 27 184q0 42 -9.5 67t-28.5 38q-9 7 -25.5 14.5t-38 14.5t-46.5 13.5t-51 10.5l17 69h594l-17 -69l-35 -5q-35 -5 -66.5 -12.5t-58.5 -21t-49.5 -35.5t-39.5 -56q-16 -32 -31 -82
t-31 -118z" />
    <glyph glyph-name="Ograve" unicode="&#xd2;" horiz-adv-x="1587" 
d="M1054 1527q-94 63 -166.5 111t-120.5 83q-27 20 -37.5 48t2.5 61q14 33 44.5 54.5t63.5 20.5q53 0 91 -52q46 -71 93.5 -139t96.5 -136zM1569 872q0 -123 -31 -238.5t-87.5 -216.5t-136 -184.5t-177.5 -143.5t-211.5 -93t-237.5 -33q-132 0 -241.5 42t-188 118
t-122.5 183t-44 237q0 121 30 236.5t86.5 217.5t138.5 187.5t187 147.5q206 122 437 122q130 2 240.5 -40t190.5 -119.5t124.5 -185t42.5 -237.5zM1255 952q0 202 -79.5 308t-225.5 106q-93 0 -168 -40t-132.5 -104t-99.5 -143.5t-69 -157.5q-75 -217 -75 -452
q0 -203 79.5 -310.5t227.5 -107.5q93 0 168 40.5t132.5 104.5t99 144t68.5 158q74 217 74 454z" />
    <glyph glyph-name="Oacute" unicode="&#xd3;" horiz-adv-x="1587" 
d="M886 1578q69 68 136.5 136t134.5 139q52 52 105 52q17 0 33.5 -7.5t30.5 -20t23.5 -28t11.5 -32.5q3 -33 -15.5 -61t-51.5 -48q-58 -35 -146.5 -76.5t-200.5 -104.5zM1569 872q0 -123 -31 -238.5t-87.5 -216.5t-136 -184.5t-177.5 -143.5t-211.5 -93t-237.5 -33
q-132 0 -241.5 42t-188 118t-122.5 183t-44 237q0 121 30 236.5t86.5 217.5t138.5 187.5t187 147.5q206 122 437 122q130 2 240.5 -40t190.5 -119.5t124.5 -185t42.5 -237.5zM1255 952q0 202 -79.5 308t-225.5 106q-93 0 -168 -40t-132.5 -104t-99.5 -143.5t-69 -157.5
q-75 -217 -75 -452q0 -203 79.5 -310.5t227.5 -107.5q93 0 168 40.5t132.5 104.5t99 144t68.5 158q74 217 74 454z" />
    <glyph glyph-name="Ocircumflex" unicode="&#xd4;" horiz-adv-x="1587" 
d="M666 1538l280 293q43 46 112 46h1q69 0 94 -46l172 -293l-78 -31l-220 186l-286 -186zM1569 872q0 -123 -31 -238.5t-87.5 -216.5t-136 -184.5t-177.5 -143.5t-211.5 -93t-237.5 -33q-132 0 -241.5 42t-188 118t-122.5 183t-44 237q0 121 30 236.5t86.5 217.5
t138.5 187.5t187 147.5q206 122 437 122q130 2 240.5 -40t190.5 -119.5t124.5 -185t42.5 -237.5zM1255 952q0 202 -79.5 308t-225.5 106q-93 0 -168 -40t-132.5 -104t-99.5 -143.5t-69 -157.5q-75 -217 -75 -452q0 -203 79.5 -310.5t227.5 -107.5q93 0 168 40.5t132.5 104.5
t99 144t68.5 158q74 217 74 454z" />
    <glyph glyph-name="Otilde" unicode="&#xd5;" horiz-adv-x="1587" 
d="M1373 1768q-37 -95 -104 -154q-71 -59 -142 -55q-35 2 -66.5 13.5t-67.5 34.5q-32 22 -54 34.5t-37 13.5q-24 2 -45 -8t-38.5 -26t-32 -35.5t-26.5 -37.5l-65 39q105 218 243 210q32 -2 63.5 -13.5t66.5 -35.5q33 -22 58 -34t40 -13q27 -2 48 6.5t37.5 23.5t29.5 35
t25 41zM1569 872q0 -123 -31 -238.5t-87.5 -216.5t-136 -184.5t-177.5 -143.5t-211.5 -93t-237.5 -33q-132 0 -241.5 42t-188 118t-122.5 183t-44 237q0 121 30 236.5t86.5 217.5t138.5 187.5t187 147.5q206 122 437 122q130 2 240.5 -40t190.5 -119.5t124.5 -185
t42.5 -237.5zM1255 952q0 202 -79.5 308t-225.5 106q-93 0 -168 -40t-132.5 -104t-99.5 -143.5t-69 -157.5q-75 -217 -75 -452q0 -203 79.5 -310.5t227.5 -107.5q93 0 168 40.5t132.5 104.5t99 144t68.5 158q74 217 74 454z" />
    <glyph glyph-name="Odieresis" unicode="&#xd6;" horiz-adv-x="1587" 
d="M1371 1716q0 -29 -10.5 -55t-29 -46t-43.5 -32t-55 -12t-55 12t-43 32t-28.5 46t-10.5 55t10.5 55t29 45.5t43.5 31.5t54 12t54.5 -12t44 -31.5t29 -45.5t10.5 -55zM879 1716q0 -29 -10.5 -55.5t-29 -46.5t-44 -31.5t-55.5 -11.5t-55 11.5t-43.5 31.5t-28.5 46.5
t-10 55.5t10 55t28.5 46t43.5 31.5t55 11.5q29 0 54.5 -12t44 -31.5t29.5 -45.5t11 -55zM1569 872q0 -123 -31 -238.5t-87.5 -216.5t-136 -184.5t-177.5 -143.5t-211.5 -93t-237.5 -33q-132 0 -241.5 42t-188 118t-122.5 183t-44 237q0 121 30 236.5t86.5 217.5t138.5 187.5
t187 147.5q206 122 437 122q130 2 240.5 -40t190.5 -119.5t124.5 -185t42.5 -237.5zM1255 952q0 202 -79.5 308t-225.5 106q-93 0 -168 -40t-132.5 -104t-99.5 -143.5t-69 -157.5q-75 -217 -75 -452q0 -203 79.5 -310.5t227.5 -107.5q93 0 168 40.5t132.5 104.5t99 144
t68.5 158q74 217 74 454z" />
    <glyph glyph-name="multiply" unicode="&#xd7;" horiz-adv-x="1378" 
d="M1083 94l-372 373l-371 -375l-102 103l374 372l-374 371l102 102l371 -372l372 372l103 -102l-375 -371l375 -372z" />
    <glyph glyph-name="Oslash" unicode="&#xd8;" horiz-adv-x="1602" 
d="M227 164q-135 155 -135 379q0 121 30 236.5t86.5 217.5t138.5 187.5t187 147.5q206 122 437 122q236 0 397 -137l150 151l65 -59l-151 -152q137 -157 137 -385q0 -123 -31 -238.5t-87.5 -216.5t-136 -184.5t-177.5 -143.5t-211.5 -93t-237.5 -33q-240 0 -401 141
l-168 -167l-62 59zM1225 1171q-74 197 -275 197q-94 0 -169.5 -40t-133.5 -104t-100 -143.5t-70 -158.5q-76 -216 -76 -453q0 -71 9 -121zM434 254q72 -203 279 -203q93 0 168 39.5t133 102.5t100 142t70 157q76 212 76 460q0 76 -9 125z" />
    <glyph glyph-name="Ugrave" unicode="&#xd9;" horiz-adv-x="1626" 
d="M1104 1527q-94 63 -166.5 111t-120.5 83q-27 20 -37.5 48t2.5 61q14 33 44.5 54.5t63.5 20.5q53 0 91 -52q46 -71 93.5 -139t96.5 -136zM414 1247q0 45 -46 67t-124 36l18 69h674l-16 -69q-54 -4 -92.5 -14t-65 -25.5t-41.5 -37t-23 -48.5l-174 -746q-8 -34 -12 -70.5
t-4 -74.5q0 -124 72 -187t215 -63q95 0 172.5 31t136 86t99 130t61.5 163l120 520q25 104 25 186q0 129 -201 150l17 69h596l-17 -69l-35 -5q-105 -17 -148 -43q-42 -26 -73 -100.5t-55 -179.5l-119 -518q-30 -132 -89 -233.5t-143.5 -169.5t-193.5 -103t-241 -35
q-56 0 -114 7t-112.5 23.5t-102 43.5t-83 66t-56 91t-20.5 119q0 28 3 59.5t10 67.5t50.5 227t125.5 537q6 26 6 43z" />
    <glyph glyph-name="Uacute" unicode="&#xda;" horiz-adv-x="1626" 
d="M998 1578q69 68 136.5 136t134.5 139q52 52 105 52q17 0 33.5 -7.5t30.5 -20t23.5 -28t11.5 -32.5q3 -33 -15.5 -61t-51.5 -48q-58 -35 -146.5 -76.5t-200.5 -104.5zM414 1247q0 45 -46 67t-124 36l18 69h674l-16 -69q-54 -4 -92.5 -14t-65 -25.5t-41.5 -37t-23 -48.5
l-174 -746q-8 -34 -12 -70.5t-4 -74.5q0 -124 72 -187t215 -63q95 0 172.5 31t136 86t99 130t61.5 163l120 520q25 104 25 186q0 129 -201 150l17 69h596l-17 -69l-35 -5q-105 -17 -148 -43q-42 -26 -73 -100.5t-55 -179.5l-119 -518q-30 -132 -89 -233.5t-143.5 -169.5
t-193.5 -103t-241 -35q-56 0 -114 7t-112.5 23.5t-102 43.5t-83 66t-56 91t-20.5 119q0 28 3 59.5t10 67.5t50.5 227t125.5 537q6 26 6 43z" />
    <glyph glyph-name="Ucircumflex" unicode="&#xdb;" horiz-adv-x="1626" 
d="M1421 1526l-43 -31l-272 207l-352 -207l-39 31l309 305q43 37 107 37q33 0 57.5 -10t44.5 -39zM414 1247q0 45 -46 67t-124 36l18 69h674l-16 -69q-54 -4 -92.5 -14t-65 -25.5t-41.5 -37t-23 -48.5l-174 -746q-8 -34 -12 -70.5t-4 -74.5q0 -124 72 -187t215 -63
q95 0 172.5 31t136 86t99 130t61.5 163l120 520q25 104 25 186q0 129 -201 150l17 69h596l-17 -69l-35 -5q-105 -17 -148 -43q-42 -26 -73 -100.5t-55 -179.5l-119 -518q-30 -132 -89 -233.5t-143.5 -169.5t-193.5 -103t-241 -35q-56 0 -114 7t-112.5 23.5t-102 43.5t-83 66
t-56 91t-20.5 119q0 28 3 59.5t10 67.5t50.5 227t125.5 537q6 26 6 43z" />
    <glyph glyph-name="Udieresis" unicode="&#xdc;" horiz-adv-x="1626" 
d="M1483 1716q0 -29 -10.5 -55t-29 -46t-43.5 -32t-55 -12t-55 12t-43 32t-28.5 46t-10.5 55t10.5 55t29 45.5t43.5 31.5t54 12t54.5 -12t44 -31.5t29 -45.5t10.5 -55zM991 1716q0 -29 -10.5 -55.5t-29 -46.5t-44 -31.5t-55.5 -11.5t-55 11.5t-43.5 31.5t-28.5 46.5
t-10 55.5t10 55t28.5 46t43.5 31.5t55 11.5q29 0 54.5 -12t44 -31.5t29.5 -45.5t11 -55zM414 1247q0 45 -46 67t-124 36l18 69h674l-16 -69q-54 -4 -92.5 -14t-65 -25.5t-41.5 -37t-23 -48.5l-174 -746q-8 -34 -12 -70.5t-4 -74.5q0 -124 72 -187t215 -63q95 0 172.5 31
t136 86t99 130t61.5 163l120 520q25 104 25 186q0 129 -201 150l17 69h596l-17 -69l-35 -5q-105 -17 -148 -43q-42 -26 -73 -100.5t-55 -179.5l-119 -518q-30 -132 -89 -233.5t-143.5 -169.5t-193.5 -103t-241 -35q-56 0 -114 7t-112.5 23.5t-102 43.5t-83 66t-56 91
t-20.5 119q0 28 3 59.5t10 67.5t50.5 227t125.5 537q6 26 6 43z" />
    <glyph glyph-name="Yacute" unicode="&#xdd;" horiz-adv-x="1378" 
d="M846 1578q69 68 136.5 136t134.5 139q52 52 105 52q17 0 33.5 -7.5t30.5 -20t23.5 -28t11.5 -32.5q3 -33 -15.5 -61t-51.5 -48q-58 -35 -146.5 -76.5t-200.5 -104.5zM750 172q0 -48 50 -73.5t144 -28.5l-16 -70h-727l16 70q138 8 184 35q50 29 66 92l65 282q13 51 13 70
q0 22 -10 55t-25 84q-51 161 -91.5 282.5t-70.5 205.5q-15 41 -33.5 72t-44 52.5t-59 33.5t-78.5 16l17 69h688l-17 -69l-61 -3q-139 -7 -139 -55q0 -20 46 -173.5t140 -428.5q135 159 226 269t140 173q99 128 99 152q0 25 -31 40q-28 15 -137 26l18 69h520l-16 -69
q-49 -6 -90 -23.5t-83 -49.5q-20 -16 -47.5 -43t-61 -62.5t-72 -78.5t-80.5 -91t-91.5 -107t-108.5 -130q-116 -140 -138 -176q-9 -15 -20.5 -45.5t-23 -70t-22.5 -83t-19.5 -85t-13.5 -76.5t-5 -57z" />
    <glyph glyph-name="Thorn" unicode="&#xde;" horiz-adv-x="1354" 
d="M485 160q0 -43 37 -64q38 -22 140 -26l-17 -70h-686l16 70q91 0 151.5 25.5t76.5 94.5l231 1014q6 29 6 51q0 19 -9 33.5t-29 25.5t-52.5 20t-79.5 16l15 69h682l-17 -69q-77 -4 -127 -21q-24 -9 -41.5 -20t-29.5 -27t-19.5 -37t-13.5 -50l-14 -56h223q206 0 317 -79.5
t111 -230.5q0 -89 -28.5 -161.5t-78 -128.5t-115.5 -96.5t-140.5 -67t-154 -39t-155.5 -12.5h-166l-26 -117q-7 -21 -7 -47zM1034 829q0 224 -248 224h-100l-147 -641h98q96 0 170.5 30t124.5 85t76 131.5t26 170.5z" />
    <glyph glyph-name="germandbls" unicode="&#xdf;" horiz-adv-x="1227" 
d="M1239 1298q0 -73 -29.5 -135t-78.5 -109.5t-112.5 -78t-131.5 -39.5l-2 -10q62 -14 112.5 -44t86.5 -73.5t55.5 -98.5t19.5 -120q0 -116 -43 -224.5t-118.5 -192t-178 -133.5t-221.5 -50q-107 0 -174 14l18 84q65 -12 90 -12q59 0 107.5 25.5t86 66.5t64.5 91.5t45 100.5
q46 132 46 279q0 114 -50 181t-153 67h-25l21 86h37q56 0 108 24t91.5 68.5t63 107t21.5 138.5q0 78 -35.5 118.5t-101.5 40.5q-112 0 -182 -96t-113 -301l-215 -1014q-15 -67 -43.5 -130.5t-69.5 -120.5t-92 -104t-111 -81q-115 -67 -233 -67q-115 0 -173 39.5t-58 115.5
q0 27 9.5 50.5t26 40.5t40 26.5t51.5 9.5q101 0 169 -137l32 -63q118 52 188 385l211 989q17 79 40.5 146t59.5 124t87 105t123 89q130 74 284 74q160 0 254 -69q96 -69 96 -183z" />
    <glyph glyph-name="agrave" unicode="&#xe0;" horiz-adv-x="1262" 
d="M785 1133q-94 63 -166.5 111t-120.5 83q-27 20 -37.5 48t2.5 61q14 33 44.5 54.5t63.5 20.5q53 0 91 -52q46 -71 93.5 -139t96.5 -136zM932 -18q-82 0 -137 39t-68 106h-8q-34 -29 -71 -57.5t-77 -51t-83 -36t-91 -13.5q-88 0 -150 30.5t-102 83t-58.5 123t-18.5 150.5
q0 81 20 161t57 153t89.5 135.5t118 108.5t142.5 72t162 26q38 0 74.5 -5t69.5 -14.5t61 -22.5t47 -28l246 53l12 -14l-156 -665q-18 -73 -18 -109q0 -57 25.5 -77.5t85.5 -20.5q56 0 115 22l-17 -76q-81 -34 -144.5 -53.5t-125.5 -19.5zM858 762q0 81 -42 122.5t-120 41.5
q-57 0 -104.5 -29t-85 -73.5t-65 -96.5t-44.5 -99q-47 -135 -47 -276q0 -133 41 -191.5t127 -58.5q96 0 213 117z" />
    <glyph glyph-name="aacute" unicode="&#xe1;" horiz-adv-x="1262" 
d="M649 1184q69 68 136.5 136t134.5 139q52 52 105 52q17 0 33.5 -7.5t30.5 -20t23.5 -28t11.5 -32.5q3 -33 -15.5 -61t-51.5 -48q-58 -35 -146.5 -76.5t-200.5 -104.5zM932 -18q-82 0 -137 39t-68 106h-8q-34 -29 -71 -57.5t-77 -51t-83 -36t-91 -13.5q-88 0 -150 30.5
t-102 83t-58.5 123t-18.5 150.5q0 81 20 161t57 153t89.5 135.5t118 108.5t142.5 72t162 26q38 0 74.5 -5t69.5 -14.5t61 -22.5t47 -28l246 53l12 -14l-156 -665q-18 -73 -18 -109q0 -57 25.5 -77.5t85.5 -20.5q56 0 115 22l-17 -76q-81 -34 -144.5 -53.5t-125.5 -19.5z
M858 762q0 81 -42 122.5t-120 41.5q-57 0 -104.5 -29t-85 -73.5t-65 -96.5t-44.5 -99q-47 -135 -47 -276q0 -133 41 -191.5t127 -58.5q96 0 213 117z" />
    <glyph glyph-name="acircumflex" unicode="&#xe2;" horiz-adv-x="1262" 
d="M416 1144l280 293q43 46 112 46h1q69 0 94 -46l172 -293l-78 -31l-220 186l-286 -186zM932 -18q-82 0 -137 39t-68 106h-8q-34 -29 -71 -57.5t-77 -51t-83 -36t-91 -13.5q-88 0 -150 30.5t-102 83t-58.5 123t-18.5 150.5q0 81 20 161t57 153t89.5 135.5t118 108.5
t142.5 72t162 26q38 0 74.5 -5t69.5 -14.5t61 -22.5t47 -28l246 53l12 -14l-156 -665q-18 -73 -18 -109q0 -57 25.5 -77.5t85.5 -20.5q56 0 115 22l-17 -76q-81 -34 -144.5 -53.5t-125.5 -19.5zM858 762q0 81 -42 122.5t-120 41.5q-57 0 -104.5 -29t-85 -73.5t-65 -96.5
t-44.5 -99q-47 -135 -47 -276q0 -133 41 -191.5t127 -58.5q96 0 213 117z" />
    <glyph glyph-name="atilde" unicode="&#xe3;" horiz-adv-x="1262" 
d="M1147 1373q-37 -95 -104 -154q-71 -59 -142 -55q-35 2 -66.5 13.5t-67.5 34.5q-32 22 -54 34.5t-37 13.5q-24 2 -45 -8t-38.5 -26t-32 -35.5t-26.5 -37.5l-65 39q105 218 243 210q32 -2 63.5 -13.5t66.5 -35.5q33 -22 58 -34t40 -13q27 -2 48 6.5t37.5 23.5t29.5 35
t25 41zM932 -18q-82 0 -137 39t-68 106h-8q-34 -29 -71 -57.5t-77 -51t-83 -36t-91 -13.5q-88 0 -150 30.5t-102 83t-58.5 123t-18.5 150.5q0 81 20 161t57 153t89.5 135.5t118 108.5t142.5 72t162 26q38 0 74.5 -5t69.5 -14.5t61 -22.5t47 -28l246 53l12 -14l-156 -665
q-18 -73 -18 -109q0 -57 25.5 -77.5t85.5 -20.5q56 0 115 22l-17 -76q-81 -34 -144.5 -53.5t-125.5 -19.5zM858 762q0 81 -42 122.5t-120 41.5q-57 0 -104.5 -29t-85 -73.5t-65 -96.5t-44.5 -99q-47 -135 -47 -276q0 -133 41 -191.5t127 -58.5q96 0 213 117z" />
    <glyph glyph-name="adieresis" unicode="&#xe4;" horiz-adv-x="1262" 
d="M1100 1356q0 -29 -10.5 -55t-29 -46t-43.5 -31.5t-55 -11.5t-55 11.5t-44 31t-29.5 46t-10.5 55.5t10.5 55t29.5 46t44 32t55 12q29 0 54.5 -12t44 -32t29 -46t10.5 -55zM637 1356q0 -28 -10.5 -54.5t-29 -46t-43.5 -31.5t-54 -12q-30 0 -55.5 11.5t-44 31t-29.5 46
t-11 55.5q0 30 10.5 56t29 46t44.5 31.5t56 11.5q29 0 54 -12t43.5 -32t29 -46t10.5 -55zM932 -18q-82 0 -137 39t-68 106h-8q-34 -29 -71 -57.5t-77 -51t-83 -36t-91 -13.5q-88 0 -150 30.5t-102 83t-58.5 123t-18.5 150.5q0 81 20 161t57 153t89.5 135.5t118 108.5
t142.5 72t162 26q38 0 74.5 -5t69.5 -14.5t61 -22.5t47 -28l246 53l12 -14l-156 -665q-18 -73 -18 -109q0 -57 25.5 -77.5t85.5 -20.5q56 0 115 22l-17 -76q-81 -34 -144.5 -53.5t-125.5 -19.5zM858 762q0 81 -42 122.5t-120 41.5q-57 0 -104.5 -29t-85 -73.5t-65 -96.5
t-44.5 -99q-47 -135 -47 -276q0 -133 41 -191.5t127 -58.5q96 0 213 117z" />
    <glyph glyph-name="aring" unicode="&#xe5;" horiz-adv-x="1262" 
d="M1018 1374q0 -113 -89 -190q-88 -76 -224 -76q-111 0 -173.5 50.5t-62.5 137.5q0 65 27 114.5t71 83.5t100.5 51.5t115.5 17.5q44 0 86 -11t75 -34t53.5 -58.5t20.5 -85.5zM879 1374q0 54 -27.5 88.5t-81.5 34.5q-40 0 -70.5 -18t-51 -46.5t-30.5 -64.5t-10 -72
q0 -54 27 -88t84 -34q41 0 71 17.5t50 46t29.5 64.5t9.5 72zM932 -18q-82 0 -137 39t-68 106h-8q-34 -29 -71 -57.5t-77 -51t-83 -36t-91 -13.5q-88 0 -150 30.5t-102 83t-58.5 123t-18.5 150.5q0 81 20 161t57 153t89.5 135.5t118 108.5t142.5 72t162 26q38 0 74.5 -5
t69.5 -14.5t61 -22.5t47 -28l246 53l12 -14l-156 -665q-18 -73 -18 -109q0 -57 25.5 -77.5t85.5 -20.5q56 0 115 22l-17 -76q-81 -34 -144.5 -53.5t-125.5 -19.5zM858 762q0 81 -42 122.5t-120 41.5q-57 0 -104.5 -29t-85 -73.5t-65 -96.5t-44.5 -99q-47 -135 -47 -276
q0 -133 41 -191.5t127 -58.5q96 0 213 117z" />
    <glyph glyph-name="ae" unicode="&#xe6;" horiz-adv-x="1659" 
d="M1284 1012q157 0 241.5 -55t84.5 -164q0 -152 -146 -239q-72 -43 -203.5 -81.5t-318.5 -54.5q0 -165 56 -241.5t169 -76.5q59 0 106.5 14t88 39.5t76.5 61.5t71 80l64 -51q-41 -61 -94 -111.5t-115.5 -87t-132 -56.5t-144.5 -20q-147 0 -239 54t-133 143h-8
q-183 -195 -426 -195q-49 0 -94 12.5t-79 38t-54.5 65t-20.5 93.5q0 71 23 123.5t62.5 92t93.5 67t115 47.5q158 53 295 75l93 15l11 49q3 12 7 31.5t8 40t6.5 39.5t2.5 31q0 69 -36.5 107t-99.5 38q-20 0 -41.5 -3.5t-42 -9.5t-38 -13.5t-29.5 -16.5l4 -80
q0 -81 -44 -122.5t-128 -41.5q-51 0 -83 27t-32 76q0 43 24.5 78.5t61 63.5t78.5 48t76 32q112 38 219 38q118 0 194 -25t119 -82q164 107 332 107zM1237 936q-42 0 -78 -21t-65.5 -53t-51.5 -70t-37 -73q-44 -105 -59 -223q143 10 233 47q45 18 77.5 41t53.5 52.5
t31.5 66.5t10.5 85q0 72 -26 110t-89 38zM688 248q-10 39 -10 114q0 40 3.5 78t10.5 74q-196 -24 -291.5 -97.5t-95.5 -191.5q0 -62 35 -91.5t86 -29.5q148 0 262 144z" />
    <glyph glyph-name="ccedilla" unicode="&#xe7;" horiz-adv-x="1014" 
d="M997 782q0 -36 -9.5 -69.5t-29 -59.5t-49 -41.5t-69.5 -15.5q-30 0 -54.5 8t-42.5 22.5t-28 33.5t-10 40q0 64 65 189q-11 20 -42.5 33.5t-76.5 13.5q-52 0 -94 -24t-74.5 -61.5t-56 -83t-37.5 -88.5q-39 -120 -39 -261q0 -156 61 -236t169 -80q57 0 102.5 14t84 39
t72 61t66.5 79l64 -51q-37 -58 -86.5 -107t-108 -85.5t-124.5 -58t-136 -24.5l-15 -67q102 0 156.5 -33.5t54.5 -93.5q0 -111 -107 -165q-106 -54 -358 -54l17 73q132 0 175 9q45 9 70 29t25 57q0 31 -32 46t-107 15l40 187q-176 19 -270.5 125t-94.5 284q0 132 44.5 247
t124 200.5t190 134.5t243.5 49q160 0 243.5 -62.5t83.5 -167.5z" />
    <glyph glyph-name="egrave" unicode="&#xe8;" horiz-adv-x="1053" 
d="M750 1133q-94 63 -166.5 111t-120.5 83q-27 20 -37.5 48t2.5 61q14 33 44.5 54.5t63.5 20.5q53 0 91 -52q46 -71 93.5 -139t96.5 -136zM1012 793q0 -73 -31 -126.5t-80.5 -91t-110.5 -63t-121 -43.5q-62 -18 -142.5 -33t-182.5 -28q5 -308 225 -308q59 0 106.5 13.5
t88.5 39t76.5 61.5t70.5 81l66 -51q-40 -60 -94 -110.5t-117 -87t-133 -57t-144 -20.5q-97 0 -174.5 26t-132 77t-83.5 126.5t-29 174.5q0 132 46.5 248.5t129 203.5t195 137t245.5 50q157 0 241.5 -55t84.5 -164zM756 793q0 69 -30 106t-87 37q-42 0 -78.5 -22t-66 -55
t-52 -72t-36.5 -73q-43 -103 -58 -231q170 27 235 53q88 35 130.5 97.5t42.5 159.5z" />
    <glyph glyph-name="eacute" unicode="&#xe9;" horiz-adv-x="1053" 
d="M559 1184q69 68 136.5 136t134.5 139q52 52 105 52q17 0 33.5 -7.5t30.5 -20t23.5 -28t11.5 -32.5q3 -33 -15.5 -61t-51.5 -48q-58 -35 -146.5 -76.5t-200.5 -104.5zM1012 793q0 -73 -31 -126.5t-80.5 -91t-110.5 -63t-121 -43.5q-62 -18 -142.5 -33t-182.5 -28
q5 -308 225 -308q59 0 106.5 13.5t88.5 39t76.5 61.5t70.5 81l66 -51q-40 -60 -94 -110.5t-117 -87t-133 -57t-144 -20.5q-97 0 -174.5 26t-132 77t-83.5 126.5t-29 174.5q0 132 46.5 248.5t129 203.5t195 137t245.5 50q157 0 241.5 -55t84.5 -164zM756 793q0 69 -30 106
t-87 37q-42 0 -78.5 -22t-66 -55t-52 -72t-36.5 -73q-43 -103 -58 -231q170 27 235 53q88 35 130.5 97.5t42.5 159.5z" />
    <glyph glyph-name="ecircumflex" unicode="&#xea;" horiz-adv-x="1053" 
d="M354 1144l280 293q43 46 112 46h1q69 0 94 -46l172 -293l-78 -31l-220 186l-286 -186zM1012 793q0 -73 -31 -126.5t-80.5 -91t-110.5 -63t-121 -43.5q-62 -18 -142.5 -33t-182.5 -28q5 -308 225 -308q59 0 106.5 13.5t88.5 39t76.5 61.5t70.5 81l66 -51
q-40 -60 -94 -110.5t-117 -87t-133 -57t-144 -20.5q-97 0 -174.5 26t-132 77t-83.5 126.5t-29 174.5q0 132 46.5 248.5t129 203.5t195 137t245.5 50q157 0 241.5 -55t84.5 -164zM756 793q0 69 -30 106t-87 37q-42 0 -78.5 -22t-66 -55t-52 -72t-36.5 -73q-43 -103 -58 -231
q170 27 235 53q88 35 130.5 97.5t42.5 159.5z" />
    <glyph glyph-name="edieresis" unicode="&#xeb;" horiz-adv-x="1053" 
d="M1051 1356q0 -29 -10.5 -55t-29 -46t-43.5 -31.5t-55 -11.5t-55 11.5t-44 31t-29.5 46t-10.5 55.5t10.5 55t29.5 46t44 32t55 12q29 0 54.5 -12t44 -32t29 -46t10.5 -55zM588 1356q0 -28 -10.5 -54.5t-29 -46t-43.5 -31.5t-54 -12q-30 0 -55.5 11.5t-44 31t-29.5 46
t-11 55.5q0 30 10.5 56t29 46t44.5 31.5t56 11.5q29 0 54 -12t43.5 -32t29 -46t10.5 -55zM1012 793q0 -73 -31 -126.5t-80.5 -91t-110.5 -63t-121 -43.5q-62 -18 -142.5 -33t-182.5 -28q5 -308 225 -308q59 0 106.5 13.5t88.5 39t76.5 61.5t70.5 81l66 -51
q-40 -60 -94 -110.5t-117 -87t-133 -57t-144 -20.5q-97 0 -174.5 26t-132 77t-83.5 126.5t-29 174.5q0 132 46.5 248.5t129 203.5t195 137t245.5 50q157 0 241.5 -55t84.5 -164zM756 793q0 69 -30 106t-87 37q-42 0 -78.5 -22t-66 -55t-52 -72t-36.5 -73q-43 -103 -58 -231
q170 27 235 53q88 35 130.5 97.5t42.5 159.5z" />
    <glyph glyph-name="igrave" unicode="&#xec;" horiz-adv-x="678" 
d="M535 1133q-94 63 -166.5 111t-120.5 83q-27 20 -37.5 48t2.5 61q14 33 44.5 54.5t63.5 20.5q53 0 91 -52q46 -71 93.5 -139t96.5 -136zM344 -25q-47 0 -85 12.5t-64.5 35.5t-41 56t-14.5 73q0 67 19 131l94 360q24 108 24 145q0 51 -22 74t-70 23t-129 -25l19 78
q175 74 266 74q102 0 151.5 -49t49.5 -127q0 -62 -23 -152l-90 -338q-25 -104 -25 -145q0 -57 26.5 -78t86.5 -21q51 0 115 23l-19 -76q-81 -34 -146 -54t-122 -20z" />
    <glyph glyph-name="iacute" unicode="&#xed;" horiz-adv-x="678" 
d="M353 1184q69 68 136.5 136t134.5 139q52 52 105 52q17 0 33.5 -7.5t30.5 -20t23.5 -28t11.5 -32.5q3 -33 -15.5 -61t-51.5 -48q-58 -35 -146.5 -76.5t-200.5 -104.5zM344 -25q-47 0 -85 12.5t-64.5 35.5t-41 56t-14.5 73q0 67 19 131l94 360q24 108 24 145q0 51 -22 74
t-70 23t-129 -25l19 78q175 74 266 74q102 0 151.5 -49t49.5 -127q0 -62 -23 -152l-90 -338q-25 -104 -25 -145q0 -57 26.5 -78t86.5 -21q51 0 115 23l-19 -76q-81 -34 -146 -54t-122 -20z" />
    <glyph glyph-name="icircumflex" unicode="&#xee;" horiz-adv-x="678" 
d="M676 1110l-252 264l-344 -264l-47 31q17 22 48.5 61t79.5 96t90 105l77 88q12 15 24.5 25.5t27 16.5t32 8.5t39.5 2.5q39 0 60 -8.5t40 -40.5q7 -10 19.5 -33.5t28.5 -55t33.5 -68t35 -72.5t33 -69t26.5 -56zM344 -25q-47 0 -85 12.5t-64.5 35.5t-41 56t-14.5 73
q0 67 19 131l94 360q24 108 24 145q0 51 -22 74t-70 23t-129 -25l19 78q175 74 266 74q102 0 151.5 -49t49.5 -127q0 -62 -23 -152l-90 -338q-25 -104 -25 -145q0 -57 26.5 -78t86.5 -21q51 0 115 23l-19 -76q-81 -34 -146 -54t-122 -20z" />
    <glyph glyph-name="idieresis" unicode="&#xef;" horiz-adv-x="678" 
d="M807 1356q0 -29 -10.5 -55t-29 -46t-43.5 -31.5t-55 -11.5t-55 11.5t-44 31t-29.5 46t-10.5 55.5t10.5 55t29.5 46t44 32t55 12q29 0 54.5 -12t44 -32t29 -46t10.5 -55zM344 1356q0 -28 -10.5 -54.5t-29 -46t-43.5 -31.5t-54 -12q-30 0 -55.5 11.5t-44 31t-29.5 46
t-11 55.5q0 30 10.5 56t29 46t44.5 31.5t56 11.5q29 0 54 -12t43.5 -32t29 -46t10.5 -55zM344 -25q-47 0 -85 12.5t-64.5 35.5t-41 56t-14.5 73q0 67 19 131l94 360q24 108 24 145q0 51 -22 74t-70 23t-129 -25l19 78q175 74 266 74q102 0 151.5 -49t49.5 -127
q0 -62 -23 -152l-90 -338q-25 -104 -25 -145q0 -57 26.5 -78t86.5 -21q51 0 115 23l-19 -76q-81 -34 -146 -54t-122 -20z" />
    <glyph glyph-name="eth" unicode="&#xf0;" horiz-adv-x="1210" 
d="M506 -31q-95 0 -175.5 28t-139 81t-91 130t-32.5 175q0 125 44 237t122 196t185 133.5t234 49.5q88 0 155.5 -35.5t98.5 -95.5h6q7 13 7 46v38q0 78 -21.5 163.5t-60.5 158.5l-252 -137l-43 77l250 134q-25 37 -58 72t-76 67l62 65q102 -54 194 -137l226 123l45 -80
l-209 -106q194 -233 194 -525q0 -102 -17.5 -205.5t-53 -199t-89.5 -178t-128 -144t-168 -96.5t-209 -35zM866 666q0 121 -47 185t-137 64q-66 0 -117 -30.5t-88 -80t-62.5 -113t-40.5 -130.5t-21.5 -132t-6.5 -116q0 -134 46 -202t136 -68q60 0 107 31.5t82.5 78.5
t60.5 103t40 104q48 152 48 306z" />
    <glyph glyph-name="ntilde" unicode="&#xf1;" horiz-adv-x="1311" 
d="M1198 1475q-16 -45 -44.5 -92.5t-67 -87t-85.5 -64.5t-98 -25q-60 0 -104.5 16t-82.5 35.5t-74 35.5t-79 16q-27 0 -45 -11.5t-35 -31.5q-15 -18 -63 -95l-64 27q18 41 46.5 88.5t65.5 88t82.5 67t96.5 26.5q53 0 97 -16t82 -35.5t72.5 -36t69.5 -16.5q34 0 61 10t50 36
q20 25 55 91zM979 -16q-93 0 -149 46.5t-56 127.5q0 61 19 133l84 319q24 96 24 135q0 60 -29 91.5t-86 31.5t-123.5 -35.5t-136.5 -105.5l-166 -727h-258l144 631q4 14 8 33t7.5 39t6 39.5t2.5 33.5q0 29 -5 47.5t-16.5 29.5t-30.5 15t-48 4q-12 0 -27.5 -2t-31.5 -5.5
t-31 -8t-27 -8.5l19 78q171 73 268 73q90 0 138.5 -38.5t62.5 -129.5h6q44 37 89.5 70t94.5 57.5t102 39t113 14.5q47 0 87.5 -13.5t70 -40t46.5 -64.5t17 -87q0 -73 -22 -154l-80 -301q-25 -84 -25 -143q0 -27 5 -45.5t18 -30.5t34 -17t54 -5q25 0 59 7.5t56 16.5l-19 -78
q-81 -32 -146 -52.5t-122 -20.5z" />
    <glyph glyph-name="ograve" unicode="&#xf2;" horiz-adv-x="1200" 
d="M775 1133q-94 63 -166.5 111t-120.5 83q-27 20 -37.5 48t2.5 61q14 33 44.5 54.5t63.5 20.5q53 0 91 -52q46 -71 93.5 -139t96.5 -136zM1133 606q0 -139 -49 -256t-135.5 -202t-203.5 -133t-253 -48q-95 0 -173 28t-134 80.5t-86.5 129t-30.5 172.5q0 138 48 254.5
t132.5 201.5t200.5 133t251 48q96 0 175.5 -26.5t136.5 -78.5t89 -128t32 -175zM856 682q0 129 -45.5 192.5t-130.5 63.5q-62 0 -109.5 -28.5t-82.5 -73t-59 -99t-40 -105.5q-45 -153 -45 -329q0 -260 178 -260q62 0 109 29.5t82 75.5t58.5 100.5t38.5 105.5q46 153 46 328z
" />
    <glyph glyph-name="oacute" unicode="&#xf3;" horiz-adv-x="1200" 
d="M602 1184q69 68 136.5 136t134.5 139q52 52 105 52q17 0 33.5 -7.5t30.5 -20t23.5 -28t11.5 -32.5q3 -33 -15.5 -61t-51.5 -48q-58 -35 -146.5 -76.5t-200.5 -104.5zM1133 606q0 -139 -49 -256t-135.5 -202t-203.5 -133t-253 -48q-95 0 -173 28t-134 80.5t-86.5 129
t-30.5 172.5q0 138 48 254.5t132.5 201.5t200.5 133t251 48q96 0 175.5 -26.5t136.5 -78.5t89 -128t32 -175zM856 682q0 129 -45.5 192.5t-130.5 63.5q-62 0 -109.5 -28.5t-82.5 -73t-59 -99t-40 -105.5q-45 -153 -45 -329q0 -260 178 -260q62 0 109 29.5t82 75.5
t58.5 100.5t38.5 105.5q46 153 46 328z" />
    <glyph glyph-name="ocircumflex" unicode="&#xf4;" horiz-adv-x="1200" 
d="M386 1144l280 293q43 46 112 46h1q69 0 94 -46l172 -293l-78 -31l-220 186l-286 -186zM1133 606q0 -139 -49 -256t-135.5 -202t-203.5 -133t-253 -48q-95 0 -173 28t-134 80.5t-86.5 129t-30.5 172.5q0 138 48 254.5t132.5 201.5t200.5 133t251 48q96 0 175.5 -26.5
t136.5 -78.5t89 -128t32 -175zM856 682q0 129 -45.5 192.5t-130.5 63.5q-62 0 -109.5 -28.5t-82.5 -73t-59 -99t-40 -105.5q-45 -153 -45 -329q0 -260 178 -260q62 0 109 29.5t82 75.5t58.5 100.5t38.5 105.5q46 153 46 328z" />
    <glyph glyph-name="otilde" unicode="&#xf5;" horiz-adv-x="1200" 
d="M1091 1373q-37 -95 -104 -154q-71 -59 -142 -55q-35 2 -66.5 13.5t-67.5 34.5q-32 22 -54 34.5t-37 13.5q-24 2 -45 -8t-38.5 -26t-32 -35.5t-26.5 -37.5l-65 39q105 218 243 210q32 -2 63.5 -13.5t66.5 -35.5q33 -22 58 -34t40 -13q27 -2 48 6.5t37.5 23.5t29.5 35
t25 41zM1133 606q0 -139 -49 -256t-135.5 -202t-203.5 -133t-253 -48q-95 0 -173 28t-134 80.5t-86.5 129t-30.5 172.5q0 138 48 254.5t132.5 201.5t200.5 133t251 48q96 0 175.5 -26.5t136.5 -78.5t89 -128t32 -175zM856 682q0 129 -45.5 192.5t-130.5 63.5
q-62 0 -109.5 -28.5t-82.5 -73t-59 -99t-40 -105.5q-45 -153 -45 -329q0 -260 178 -260q62 0 109 29.5t82 75.5t58.5 100.5t38.5 105.5q46 153 46 328z" />
    <glyph glyph-name="odieresis" unicode="&#xf6;" horiz-adv-x="1200" 
d="M1108 1356q0 -29 -10.5 -55t-29 -46t-43.5 -31.5t-55 -11.5t-55 11.5t-44 31t-29.5 46t-10.5 55.5t10.5 55t29.5 46t44 32t55 12q29 0 54.5 -12t44 -32t29 -46t10.5 -55zM645 1356q0 -28 -10.5 -54.5t-29 -46t-43.5 -31.5t-54 -12q-30 0 -55.5 11.5t-44 31t-29.5 46
t-11 55.5q0 30 10.5 56t29 46t44.5 31.5t56 11.5q29 0 54 -12t43.5 -32t29 -46t10.5 -55zM1133 606q0 -139 -49 -256t-135.5 -202t-203.5 -133t-253 -48q-95 0 -173 28t-134 80.5t-86.5 129t-30.5 172.5q0 138 48 254.5t132.5 201.5t200.5 133t251 48q96 0 175.5 -26.5
t136.5 -78.5t89 -128t32 -175zM856 682q0 129 -45.5 192.5t-130.5 63.5q-62 0 -109.5 -28.5t-82.5 -73t-59 -99t-40 -105.5q-45 -153 -45 -329q0 -260 178 -260q62 0 109 29.5t82 75.5t58.5 100.5t38.5 105.5q46 153 46 328z" />
    <glyph glyph-name="divide" unicode="&#xf7;" horiz-adv-x="1378" 
d="M858 973q0 -30 -11 -57t-30.5 -47.5t-46 -32t-57.5 -11.5q-30 0 -57 12t-46.5 32t-31 47t-11.5 57q0 31 11.5 57.5t31 46.5t46 31.5t57.5 11.5q30 0 56.5 -11.5t46 -32t31 -47t11.5 -56.5zM178 496v143h1069v-143h-1069zM858 160q0 -30 -11 -57t-30.5 -47.5t-46 -32
t-57.5 -11.5t-58 11.5t-46.5 31.5t-30.5 47t-11 58q0 30 11.5 57t31 47t46.5 31.5t57 11.5t56.5 -11.5t46 -32t31 -47t11.5 -56.5z" />
    <glyph glyph-name="oslash" unicode="&#xf8;" horiz-adv-x="1200" 
d="M152 125q-84 98 -84 252q0 138 48 254.5t132.5 201.5t200.5 133t251 48q184 0 293 -99l146 138l55 -54l-145 -137q84 -105 84 -256q0 -138 -49.5 -255t-135.5 -202t-203.5 -132.5t-252.5 -47.5q-168 0 -287 101l-156 -148l-55 53zM850 780q-32 158 -170 158
q-68 0 -119.5 -32.5t-89 -86t-62.5 -122t-40 -139t-21 -138t-6 -119.5zM350 205q29 -162 172 -162q63 0 110.5 29.5t83 75.5t59.5 101t39 107q44 155 44 330z" />
    <glyph glyph-name="ugrave" unicode="&#xf9;" horiz-adv-x="1290" 
d="M757 1133q-94 63 -166.5 111t-120.5 83q-27 20 -37.5 48t2.5 61q14 33 44.5 54.5t63.5 20.5q53 0 91 -52q46 -71 93.5 -139t96.5 -136zM965 -18q-90 0 -146 45t-65 123h-6q-45 -39 -88.5 -71.5t-90.5 -56t-98.5 -36.5t-112.5 -13q-49 0 -89.5 14.5t-68.5 41t-43.5 64.5
t-15.5 85q0 64 23 154l76 299q24 108 24 145q0 54 -21 75t-79 21q-12 0 -27.5 -2t-31.5 -5.5t-31.5 -7.5t-26.5 -9l19 78q171 73 262 73q99 0 150.5 -46t51.5 -128q0 -70 -18 -133l-80 -319q-22 -82 -22 -133q0 -123 108 -123q54 0 118.5 32.5t131.5 96.5l170 737l246 12
l12 -14l-145 -629q-27 -97 -27 -143q0 -57 25.5 -78.5t85.5 -21.5q14 0 30 2t31.5 5.5t29.5 8t23 8.5l-16 -78q-82 -32 -147.5 -52.5t-120.5 -20.5z" />
    <glyph glyph-name="uacute" unicode="&#xfa;" horiz-adv-x="1290" 
d="M655 1184q69 68 136.5 136t134.5 139q52 52 105 52q17 0 33.5 -7.5t30.5 -20t23.5 -28t11.5 -32.5q3 -33 -15.5 -61t-51.5 -48q-58 -35 -146.5 -76.5t-200.5 -104.5zM965 -18q-90 0 -146 45t-65 123h-6q-45 -39 -88.5 -71.5t-90.5 -56t-98.5 -36.5t-112.5 -13
q-49 0 -89.5 14.5t-68.5 41t-43.5 64.5t-15.5 85q0 64 23 154l76 299q24 108 24 145q0 54 -21 75t-79 21q-12 0 -27.5 -2t-31.5 -5.5t-31.5 -7.5t-26.5 -9l19 78q171 73 262 73q99 0 150.5 -46t51.5 -128q0 -70 -18 -133l-80 -319q-22 -82 -22 -133q0 -123 108 -123
q54 0 118.5 32.5t131.5 96.5l170 737l246 12l12 -14l-145 -629q-27 -97 -27 -143q0 -57 25.5 -78.5t85.5 -21.5q14 0 30 2t31.5 5.5t29.5 8t23 8.5l-16 -78q-82 -32 -147.5 -52.5t-120.5 -20.5z" />
    <glyph glyph-name="ucircumflex" unicode="&#xfb;" horiz-adv-x="1290" 
d="M1011 1110l-252 264l-344 -264l-47 31q17 22 48.5 61t79.5 96t90 105l77 88q12 15 24.5 25.5t27 16.5t32 8.5t39.5 2.5q39 0 60 -8.5t40 -40.5q7 -10 19.5 -33.5t28.5 -55t33.5 -68t35 -72.5t33 -69t26.5 -56zM965 -18q-90 0 -146 45t-65 123h-6q-45 -39 -88.5 -71.5
t-90.5 -56t-98.5 -36.5t-112.5 -13q-49 0 -89.5 14.5t-68.5 41t-43.5 64.5t-15.5 85q0 64 23 154l76 299q24 108 24 145q0 54 -21 75t-79 21q-12 0 -27.5 -2t-31.5 -5.5t-31.5 -7.5t-26.5 -9l19 78q171 73 262 73q99 0 150.5 -46t51.5 -128q0 -70 -18 -133l-80 -319
q-22 -82 -22 -133q0 -123 108 -123q54 0 118.5 32.5t131.5 96.5l170 737l246 12l12 -14l-145 -629q-27 -97 -27 -143q0 -57 25.5 -78.5t85.5 -21.5q14 0 30 2t31.5 5.5t29.5 8t23 8.5l-16 -78q-82 -32 -147.5 -52.5t-120.5 -20.5z" />
    <glyph glyph-name="udieresis" unicode="&#xfc;" horiz-adv-x="1290" 
d="M1112 1356q0 -29 -10.5 -55t-29 -46t-43.5 -31.5t-55 -11.5t-55 11.5t-44 31t-29.5 46t-10.5 55.5t10.5 55t29.5 46t44 32t55 12q29 0 54.5 -12t44 -32t29 -46t10.5 -55zM649 1356q0 -28 -10.5 -54.5t-29 -46t-43.5 -31.5t-54 -12q-30 0 -55.5 11.5t-44 31t-29.5 46
t-11 55.5q0 30 10.5 56t29 46t44.5 31.5t56 11.5q29 0 54 -12t43.5 -32t29 -46t10.5 -55zM965 -18q-90 0 -146 45t-65 123h-6q-45 -39 -88.5 -71.5t-90.5 -56t-98.5 -36.5t-112.5 -13q-49 0 -89.5 14.5t-68.5 41t-43.5 64.5t-15.5 85q0 64 23 154l76 299q24 108 24 145
q0 54 -21 75t-79 21q-12 0 -27.5 -2t-31.5 -5.5t-31.5 -7.5t-26.5 -9l19 78q171 73 262 73q99 0 150.5 -46t51.5 -128q0 -70 -18 -133l-80 -319q-22 -82 -22 -133q0 -123 108 -123q54 0 118.5 32.5t131.5 96.5l170 737l246 12l12 -14l-145 -629q-27 -97 -27 -143
q0 -57 25.5 -78.5t85.5 -21.5q14 0 30 2t31.5 5.5t29.5 8t23 8.5l-16 -78q-82 -32 -147.5 -52.5t-120.5 -20.5z" />
    <glyph glyph-name="yacute" unicode="&#xfd;" horiz-adv-x="1257" 
d="M634 1184q69 68 136.5 136t134.5 139q52 52 105 52q17 0 33.5 -7.5t30.5 -20t23.5 -28t11.5 -32.5q3 -33 -15.5 -61t-51.5 -48q-58 -35 -146.5 -76.5t-200.5 -104.5zM367 -442q-165 0 -249.5 40t-84.5 128q0 27 9.5 50.5t26 40.5t40 26.5t51.5 9.5q48 0 81.5 -25.5
t59.5 -62.5q28 -38 72 -134q65 0 124 34t109 100t89.5 163.5t64.5 223.5h-6q-43 -39 -87.5 -70.5t-92.5 -54t-100 -35t-112 -12.5q-47 0 -87.5 13.5t-70 39.5t-46.5 64t-17 87q0 65 27 168l72 279q24 108 24 145q0 55 -21 75.5t-79 20.5q-12 0 -27.5 -2t-31.5 -5.5
t-31.5 -7.5t-26.5 -9l19 78q171 73 262 73q103 0 152.5 -47.5t49.5 -126.5q0 -70 -20 -145l-78 -301q-24 -91 -24 -133q0 -60 30.5 -92.5t85.5 -32.5q57 0 121 32.5t133 96.5l160 733l244 12l12 -14l-172 -799q-33 -151 -91.5 -267.5t-141.5 -195.5t-188.5 -120t-233.5 -41z
" />
    <glyph glyph-name="thorn" unicode="&#xfe;" horiz-adv-x="1229" 
d="M825 1012q160 0 248 -99.5t88 -283.5q0 -84 -19.5 -166t-57 -155.5t-92.5 -136t-126 -109.5q-137 -89 -291 -89q-79 0 -137 16.5t-110 55.5l-60 -262q-10 -39 -10 -68q0 -40 38 -63q40 -23 144 -29l-14 -67h-635l14 67q34 1 65.5 5t57.5 15.5t45.5 33t28.5 59.5l352 1544
q11 46 11 68q0 30 -11 52.5t-40 34.5q-26 11 -119 21l16 68l448 24l11 -16l-154 -655h6q149 135 303 135zM879 629q0 132 -44.5 192t-134.5 60q-30 0 -58 -10.5t-54 -27t-49.5 -36.5t-44.5 -39l-127 -559q2 -31 15.5 -60t36 -51.5t54 -35.5t68.5 -11q57 0 104 28t83.5 70.5
t62.5 94t42 98.5q46 135 46 287z" />
    <glyph glyph-name="ydieresis" unicode="&#xff;" horiz-adv-x="1257" 
d="M1114 1356q0 -29 -10.5 -55t-29 -46t-43.5 -31.5t-55 -11.5t-55 11.5t-44 31t-29.5 46t-10.5 55.5t10.5 55t29.5 46t44 32t55 12q29 0 54.5 -12t44 -32t29 -46t10.5 -55zM651 1356q0 -28 -10.5 -54.5t-29 -46t-43.5 -31.5t-54 -12q-30 0 -55.5 11.5t-44 31t-29.5 46
t-11 55.5q0 30 10.5 56t29 46t44.5 31.5t56 11.5q29 0 54 -12t43.5 -32t29 -46t10.5 -55zM367 -442q-165 0 -249.5 40t-84.5 128q0 27 9.5 50.5t26 40.5t40 26.5t51.5 9.5q48 0 81.5 -25.5t59.5 -62.5q28 -38 72 -134q65 0 124 34t109 100t89.5 163.5t64.5 223.5h-6
q-43 -39 -87.5 -70.5t-92.5 -54t-100 -35t-112 -12.5q-47 0 -87.5 13.5t-70 39.5t-46.5 64t-17 87q0 65 27 168l72 279q24 108 24 145q0 55 -21 75.5t-79 20.5q-12 0 -27.5 -2t-31.5 -5.5t-31.5 -7.5t-26.5 -9l19 78q171 73 262 73q103 0 152.5 -47.5t49.5 -126.5
q0 -70 -20 -145l-78 -301q-24 -91 -24 -133q0 -60 30.5 -92.5t85.5 -32.5q57 0 121 32.5t133 96.5l160 733l244 12l12 -14l-172 -799q-33 -151 -91.5 -267.5t-141.5 -195.5t-188.5 -120t-233.5 -41z" />
    <glyph glyph-name="Amacron" unicode="&#x100;" horiz-adv-x="1462" 
d="M585 1653l31 145h717l-31 -145h-717zM1397 0h-670l16 70q207 17 207 69l-6 60l-45 286h-493q-7 -11 -23 -37.5t-35.5 -60.5t-40.5 -71.5t-38.5 -71.5t-28.5 -60t-11 -37q0 -23 23.5 -38t55 -23t63 -11.5t47.5 -4.5l-15 -70h-569l14 70q95 4 162 46t123 130q20 32 41 64
t42 65t189 299.5t484 765.5h139l201 -1231q22 -129 182 -139zM795 1108l-332 -535h420z" />
    <glyph glyph-name="amacron" unicode="&#x101;" horiz-adv-x="1262" 
d="M372 1272l31 145h717l-31 -145h-717zM932 -18q-82 0 -137 39t-68 106h-8q-34 -29 -71 -57.5t-77 -51t-83 -36t-91 -13.5q-88 0 -150 30.5t-102 83t-58.5 123t-18.5 150.5q0 81 20 161t57 153t89.5 135.5t118 108.5t142.5 72t162 26q38 0 74.5 -5t69.5 -14.5t61 -22.5
t47 -28l246 53l12 -14l-156 -665q-18 -73 -18 -109q0 -57 25.5 -77.5t85.5 -20.5q56 0 115 22l-17 -76q-81 -34 -144.5 -53.5t-125.5 -19.5zM858 762q0 81 -42 122.5t-120 41.5q-57 0 -104.5 -29t-85 -73.5t-65 -96.5t-44.5 -99q-47 -135 -47 -276q0 -133 41 -191.5
t127 -58.5q96 0 213 117z" />
    <glyph glyph-name="Abreve" unicode="&#x102;" horiz-adv-x="1462" 
d="M1363 1815q-115 -294 -378 -294q-266 0 -257 293l93 11q19 -81 66 -117t128 -36t146.5 35.5t119.5 117.5zM1397 0h-670l16 70q207 17 207 69l-6 60l-45 286h-493q-7 -11 -23 -37.5t-35.5 -60.5t-40.5 -71.5t-38.5 -71.5t-28.5 -60t-11 -37q0 -23 23.5 -38t55 -23
t63 -11.5t47.5 -4.5l-15 -70h-569l14 70q95 4 162 46t123 130q20 32 41 64t42 65t189 299.5t484 765.5h139l201 -1231q22 -129 182 -139zM795 1108l-332 -535h420z" />
    <glyph glyph-name="abreve" unicode="&#x103;" horiz-adv-x="1262" 
d="M1142 1420q-115 -294 -378 -294q-266 0 -257 293l93 11q19 -81 66 -117t128 -36t146.5 35.5t119.5 117.5zM932 -18q-82 0 -137 39t-68 106h-8q-34 -29 -71 -57.5t-77 -51t-83 -36t-91 -13.5q-88 0 -150 30.5t-102 83t-58.5 123t-18.5 150.5q0 81 20 161t57 153
t89.5 135.5t118 108.5t142.5 72t162 26q38 0 74.5 -5t69.5 -14.5t61 -22.5t47 -28l246 53l12 -14l-156 -665q-18 -73 -18 -109q0 -57 25.5 -77.5t85.5 -20.5q56 0 115 22l-17 -76q-81 -34 -144.5 -53.5t-125.5 -19.5zM858 762q0 81 -42 122.5t-120 41.5q-57 0 -104.5 -29
t-85 -73.5t-65 -96.5t-44.5 -99q-47 -135 -47 -276q0 -133 41 -191.5t127 -58.5q96 0 213 117z" />
    <glyph glyph-name="Aogonek" unicode="&#x104;" horiz-adv-x="1462" 
d="M1397 0h-206q-141 -129 -141 -254q0 -54 43 -82t148 -33l-15 -75q-199 0 -283 38q-83 38 -83 121q0 151 230 285h-363l16 70q207 17 207 69l-6 60l-45 286h-493q-7 -11 -23 -37.5t-35.5 -60.5t-40.5 -71.5t-38.5 -71.5t-28.5 -60t-11 -37q0 -23 23.5 -38t55 -23t63 -11.5
t47.5 -4.5l-15 -70h-569l14 70q95 4 162 46t123 130q20 32 41 64t42 65t189 299.5t484 765.5h139l201 -1231q22 -129 182 -139zM795 1108l-332 -535h420z" />
    <glyph glyph-name="aogonek" unicode="&#x105;" horiz-adv-x="1262" 
d="M1022 -444q-199 0 -283 38q-83 38 -83 121q0 145 212 274q-57 14 -94 49.5t-47 88.5h-8q-34 -29 -71 -57.5t-77 -51t-83 -36t-91 -13.5q-88 0 -150 30.5t-102 83t-58.5 123t-18.5 150.5q0 81 20 161t57 153t89.5 135.5t118 108.5t142.5 72t162 26q38 0 74.5 -5
t69.5 -14.5t61 -22.5t47 -28l246 53l12 -14l-156 -665q-18 -73 -18 -109q0 -57 25.5 -77.5t85.5 -20.5q56 0 115 22l-17 -76q-69 -29 -124 -47.5t-108 -23.5q-124 -121 -124 -238q0 -54 43 -82t148 -33zM858 762q0 81 -42 122.5t-120 41.5q-57 0 -104.5 -29t-85 -73.5
t-65 -96.5t-44.5 -99q-47 -135 -47 -276q0 -133 41 -191.5t127 -58.5q96 0 213 117z" />
    <glyph glyph-name="Cacute" unicode="&#x106;" horiz-adv-x="1389" 
d="M1290 1782q0 -45 -27 -72t-73 -47l-156 -65l-239 -103l-31 41l160 147l116 117q63 68 135 68q51 0 83 -24.5t32 -61.5zM1337 356q-232 -391 -661 -391q-128 0 -235.5 40.5t-185 115.5t-120.5 182t-43 240q0 121 30 235t84.5 215.5t132.5 186t173.5 145.5t207 95t234.5 34
q45 0 98 -5.5t106.5 -17.5t103 -30t88.5 -43l65 61h84l-110 -512h-84q-23 240 -111 350.5t-240 110.5q-90 0 -163.5 -35t-131.5 -92.5t-101.5 -131t-73.5 -149.5q-76 -195 -76 -423q0 -88 21 -169.5t66 -144t115 -100t168 -37.5q137 0 256.5 76t229.5 239z" />
    <glyph glyph-name="cacute" unicode="&#x107;" horiz-adv-x="1014" 
d="M951 1462q0 -39 -15 -61.5t-44 -45.5q-33 -25 -155 -102q-111 -69 -225 -147l-39 35q29 38 62.5 83.5t70.5 98.5l87 123q16 24 31.5 42t33.5 30t40 18t52 6q21 0 39.5 -6.5t32 -17.5t21.5 -25.5t8 -30.5zM997 782q0 -36 -9.5 -69.5t-29 -59.5t-49 -41.5t-69.5 -15.5
q-30 0 -54.5 8t-42.5 22.5t-28 33.5t-10 40q0 64 65 189q-11 20 -42.5 33.5t-76.5 13.5q-52 0 -94 -24t-74.5 -61.5t-56 -83t-37.5 -88.5q-39 -120 -39 -261q0 -156 61 -236t169 -80q57 0 102.5 14t84 39t72 61t66.5 79l64 -51q-38 -59 -89 -109.5t-111.5 -87t-128.5 -57.5
t-140 -21q-98 0 -178 26.5t-136.5 78.5t-87 129t-30.5 178q0 132 44.5 247t124 200.5t190 134.5t243.5 49q160 0 243.5 -62.5t83.5 -167.5z" />
    <glyph glyph-name="Ccircumflex" unicode="&#x108;" horiz-adv-x="1389" 
d="M1286 1526l-43 -31l-272 207l-352 -207l-39 31l309 305q43 37 107 37q33 0 57.5 -10t44.5 -39zM1337 356q-232 -391 -661 -391q-128 0 -235.5 40.5t-185 115.5t-120.5 182t-43 240q0 121 30 235t84.5 215.5t132.5 186t173.5 145.5t207 95t234.5 34q45 0 98 -5.5
t106.5 -17.5t103 -30t88.5 -43l65 61h84l-110 -512h-84q-23 240 -111 350.5t-240 110.5q-90 0 -163.5 -35t-131.5 -92.5t-101.5 -131t-73.5 -149.5q-76 -195 -76 -423q0 -88 21 -169.5t66 -144t115 -100t168 -37.5q137 0 256.5 76t229.5 239z" />
    <glyph glyph-name="ccircumflex" unicode="&#x109;" horiz-adv-x="1014" 
d="M946 1110l-252 264l-344 -264l-47 31q17 22 48.5 61t79.5 96t90 105l77 88q12 15 24.5 25.5t27 16.5t32 8.5t39.5 2.5q39 0 60 -8.5t40 -40.5q7 -10 19.5 -33.5t28.5 -55t33.5 -68t35 -72.5t33 -69t26.5 -56zM997 782q0 -36 -9.5 -69.5t-29 -59.5t-49 -41.5t-69.5 -15.5
q-30 0 -54.5 8t-42.5 22.5t-28 33.5t-10 40q0 64 65 189q-11 20 -42.5 33.5t-76.5 13.5q-52 0 -94 -24t-74.5 -61.5t-56 -83t-37.5 -88.5q-39 -120 -39 -261q0 -156 61 -236t169 -80q57 0 102.5 14t84 39t72 61t66.5 79l64 -51q-38 -59 -89 -109.5t-111.5 -87t-128.5 -57.5
t-140 -21q-98 0 -178 26.5t-136.5 78.5t-87 129t-30.5 178q0 132 44.5 247t124 200.5t190 134.5t243.5 49q160 0 243.5 -62.5t83.5 -167.5z" />
    <glyph glyph-name="Cdotaccent" unicode="&#x10a;" horiz-adv-x="1389" 
d="M1098 1708q0 -32 -11 -60t-30.5 -49t-46.5 -33t-60 -12q-32 0 -59 11.5t-46.5 32t-30.5 48t-11 58.5t11 58.5t30.5 48.5t46.5 33t59 12t59 -11t47 -31t31 -47t11 -59zM1337 356q-232 -391 -661 -391q-128 0 -235.5 40.5t-185 115.5t-120.5 182t-43 240q0 121 30 235
t84.5 215.5t132.5 186t173.5 145.5t207 95t234.5 34q45 0 98 -5.5t106.5 -17.5t103 -30t88.5 -43l65 61h84l-110 -512h-84q-23 240 -111 350.5t-240 110.5q-90 0 -163.5 -35t-131.5 -92.5t-101.5 -131t-73.5 -149.5q-76 -195 -76 -423q0 -88 21 -169.5t66 -144t115 -100
t168 -37.5q137 0 256.5 76t229.5 239z" />
    <glyph glyph-name="cdotaccent" unicode="&#x10b;" horiz-adv-x="1014" 
d="M830 1368q0 -32 -11 -60t-30.5 -49t-46.5 -33t-60 -12q-32 0 -59 11.5t-46.5 32t-30.5 48t-11 58.5t11 58.5t30.5 48.5t46.5 33t59 12t59 -11t47 -31t31 -47t11 -59zM997 782q0 -36 -9.5 -69.5t-29 -59.5t-49 -41.5t-69.5 -15.5q-30 0 -54.5 8t-42.5 22.5t-28 33.5
t-10 40q0 64 65 189q-11 20 -42.5 33.5t-76.5 13.5q-52 0 -94 -24t-74.5 -61.5t-56 -83t-37.5 -88.5q-39 -120 -39 -261q0 -156 61 -236t169 -80q57 0 102.5 14t84 39t72 61t66.5 79l64 -51q-38 -59 -89 -109.5t-111.5 -87t-128.5 -57.5t-140 -21q-98 0 -178 26.5
t-136.5 78.5t-87 129t-30.5 178q0 132 44.5 247t124 200.5t190 134.5t243.5 49q160 0 243.5 -62.5t83.5 -167.5z" />
    <glyph glyph-name="Ccaron" unicode="&#x10c;" horiz-adv-x="1389" 
d="M1360 1837l-291 -287q-36 -36 -59 -45q-24 -8 -66 -8q-41 0 -62.5 10.5t-39.5 38.5l-187 291l41 31l272 -205l353 205zM1337 356q-232 -391 -661 -391q-128 0 -235.5 40.5t-185 115.5t-120.5 182t-43 240q0 121 30 235t84.5 215.5t132.5 186t173.5 145.5t207 95t234.5 34
q45 0 98 -5.5t106.5 -17.5t103 -30t88.5 -43l65 61h84l-110 -512h-84q-23 240 -111 350.5t-240 110.5q-90 0 -163.5 -35t-131.5 -92.5t-101.5 -131t-73.5 -149.5q-76 -195 -76 -423q0 -88 21 -169.5t66 -144t115 -100t168 -37.5q137 0 256.5 76t229.5 239z" />
    <glyph glyph-name="ccaron" unicode="&#x10d;" horiz-adv-x="1014" 
d="M1063 1516q-102 -128 -175.5 -215t-119.5 -138q-26 -30 -53.5 -40.5t-69.5 -10.5q-64 0 -87 26q-21 24 -139 272l-51 106l52 30l250 -264l344 264zM997 782q0 -36 -9.5 -69.5t-29 -59.5t-49 -41.5t-69.5 -15.5q-30 0 -54.5 8t-42.5 22.5t-28 33.5t-10 40q0 64 65 189
q-11 20 -42.5 33.5t-76.5 13.5q-52 0 -94 -24t-74.5 -61.5t-56 -83t-37.5 -88.5q-39 -120 -39 -261q0 -156 61 -236t169 -80q57 0 102.5 14t84 39t72 61t66.5 79l64 -51q-38 -59 -89 -109.5t-111.5 -87t-128.5 -57.5t-140 -21q-98 0 -178 26.5t-136.5 78.5t-87 129
t-30.5 178q0 132 44.5 247t124 200.5t190 134.5t243.5 49q160 0 243.5 -62.5t83.5 -167.5z" />
    <glyph glyph-name="Dcaron" unicode="&#x10e;" horiz-adv-x="1620" 
d="M1309 1837l-291 -287q-36 -36 -59 -45q-24 -8 -66 -8q-41 0 -62.5 10.5t-39.5 38.5l-187 291l41 31l272 -205l353 205zM1599 866q0 -137 -36 -254.5t-100.5 -213.5t-154 -170.5t-196.5 -125t-227.5 -76.5t-247.5 -26h-678l14 70q97 0 155.5 24.5t74.5 93.5l231 1008l8 49
q0 45 -42.5 68.5t-127.5 36.5l17 69h663q187 0 341 -71q155 -70 230.5 -192.5t75.5 -289.5zM1284 889q0 95 -23.5 177t-72.5 142t-123 94.5t-176 34.5l-139 -4l-250 -1083q-8 -46 -8 -60q0 -58 45.5 -83t150.5 -25q104 0 189 35t151 95t114.5 140t80 170t46.5 184t15 183z
" />
    <glyph glyph-name="dcaron" unicode="&#x10f;" horiz-adv-x="1548" 
d="M999 188q0 -79 111 -79q56 0 115 22l-19 -76q-168 -73 -268 -73q-91 0 -141.5 40t-61.5 109h-8q-181 -162 -330 -162q-88 0 -150 30.5t-102 83t-58.5 123t-18.5 150.5q0 81 19.5 161.5t55.5 153t88 135t116.5 108.5t141 72t162.5 26q76 0 143.5 -18t110.5 -50l76 334
q10 39 10 65q0 37 -18 58q-16 22 -51 34q-33 12 -134 21l17 68l481 24l12 -16l-274 -1182q-25 -96 -25 -162zM1731 1376q0 -83 -35 -155t-91.5 -130.5t-126.5 -103t-140 -74.5l-29 68q47 23 92 48.5t83 58t67 73.5t45 94h-49q-69 0 -108.5 29t-39.5 84q0 35 15 66t40 53.5
t57 35.5t66 13q72 0 113 -40.5t41 -119.5zM864 770q-1 36 -14.5 65.5t-36 50.5t-54 32.5t-69.5 11.5q-57 0 -104 -28.5t-84 -72.5t-63.5 -96t-42.5 -99q-46 -134 -46 -282q0 -133 41 -191.5t127 -58.5q100 0 221 121z" />
    <glyph glyph-name="Dcroat" unicode="&#x110;" horiz-adv-x="1620" 
d="M442 1245q0 45 -42.5 68.5t-127.5 36.5l17 69h663q187 0 341 -71q155 -70 230.5 -192.5t75.5 -289.5q0 -137 -36 -254.5t-100.5 -213.5t-154 -170.5t-196.5 -125t-227.5 -76.5t-247.5 -26h-678l14 70q97 0 154 24.5t76 93.5l116 506h-190l23 99h190l92 403zM928 793
l-21 -99h-303l-102 -438q-10 -47 -10 -66q0 -58 45.5 -83t150.5 -25q104 0 189 35t151 95t114.5 140t80 170t46.5 184t15 183q0 95 -23.5 177t-72.5 142t-123 94.5t-176 34.5l-139 -4l-125 -540h303z" />
    <glyph glyph-name="dcroat" unicode="&#x111;" horiz-adv-x="1268" 
d="M1454 1249l-22 -88h-220l-188 -811q-3 -15 -7.5 -34.5t-8 -39t-6.5 -38t-3 -31.5q0 -57 25.5 -77.5t85.5 -20.5q56 0 115 22l-19 -76q-168 -73 -268 -73q-91 0 -141.5 40t-61.5 109h-8q-181 -162 -330 -162q-88 0 -150 30.5t-102 83t-58.5 123t-18.5 150.5
q0 81 19.5 161.5t55.5 153t88 135t116.5 108.5t141 72t162.5 26q157 0 254 -68l49 217h-374l20 88h375q16 63 16 94q0 37 -18 58q-16 22 -51 34q-33 12 -134 21l17 68l481 24l12 -16l-65 -283h221zM864 766q0 38 -14 68.5t-38 51.5t-56 32.5t-68 11.5q-57 0 -104 -28.5
t-83.5 -72t-63 -95.5t-42.5 -99q-45 -135 -45 -283q0 -133 41 -191.5t127 -58.5q100 0 221 121z" />
    <glyph glyph-name="Emacron" unicode="&#x112;" horiz-adv-x="1407" 
d="M569 1659l31 145h717l-31 -145h-717zM1372 1067h-74q-4 34 -15 77t-31.5 82t-49.5 68t-69 35q-56 10 -170 10h-211l-129 -563h147q80 0 131 22q27 11 51 32.5t46 50t40 63.5t33 72h76l-133 -574h-74v50q0 60 -14 111q-13 49 -56 70t-118 21h-150l-94 -413
q-16 -60 -16 -107q0 -54 38 -74q38 -18 166 -18q67 0 115 2t77 6q32 4 54.5 9.5t41.5 15.5t36.5 25t39.5 38q23 24 50.5 55.5t54.5 65.5t51 68.5t41 62.5h72l-127 -430h-1247l14 70q97 0 157.5 25.5t76.5 94.5l233 1012q6 29 6 47q0 39 -45 65.5t-133 35.5l17 69h1173z" />
    <glyph glyph-name="emacron" unicode="&#x113;" horiz-adv-x="1053" 
d="M321 1272l31 145h717l-31 -145h-717zM1012 793q0 -73 -31 -126.5t-80.5 -91t-110.5 -63t-121 -43.5q-62 -18 -142.5 -33t-182.5 -28q5 -308 225 -308q59 0 106.5 13.5t88.5 39t76.5 61.5t70.5 81l66 -51q-40 -60 -94 -110.5t-117 -87t-133 -57t-144 -20.5
q-97 0 -174.5 26t-132 77t-83.5 126.5t-29 174.5q0 132 46.5 248.5t129 203.5t195 137t245.5 50q157 0 241.5 -55t84.5 -164zM756 793q0 69 -30 106t-87 37q-42 0 -78.5 -22t-66 -55t-52 -72t-36.5 -73q-43 -103 -58 -231q170 27 235 53q88 35 130.5 97.5t42.5 159.5z" />
    <glyph glyph-name="Ebreve" unicode="&#x114;" horiz-adv-x="1407" 
d="M1292 1851q-112 -321 -395 -321q-131 0 -198.5 74.5t-67.5 212.5v34l65 17q12 -92 66.5 -135t165.5 -43q51 0 94 9.5t80 30.5t69 55t60 83zM1372 1067h-74q-4 34 -15 77t-31.5 82t-49.5 68t-69 35q-56 10 -170 10h-211l-129 -563h147q80 0 131 22q27 11 51 32.5t46 50
t40 63.5t33 72h76l-133 -574h-74v50q0 60 -14 111q-13 49 -56 70t-118 21h-150l-94 -413q-16 -60 -16 -107q0 -54 38 -74q38 -18 166 -18q67 0 115 2t77 6q32 4 54.5 9.5t41.5 15.5t36.5 25t39.5 38q23 24 50.5 55.5t54.5 65.5t51 68.5t41 62.5h72l-127 -430h-1247l14 70
q97 0 157.5 25.5t76.5 94.5l233 1012q6 29 6 47q0 39 -45 65.5t-133 35.5l17 69h1173z" />
    <glyph glyph-name="ebreve" unicode="&#x115;" horiz-adv-x="1053" 
d="M1040 1513q-122 -383 -389 -383q-256 0 -256 338l2 45l63 15q7 -52 18.5 -95.5t35 -75t63 -48.5t100.5 -17q63 0 108.5 18t80 49.5t60.5 74.5t50 94zM1012 793q0 -73 -31 -126.5t-80.5 -91t-110.5 -63t-121 -43.5q-62 -18 -142.5 -33t-182.5 -28q5 -308 225 -308
q59 0 106.5 13.5t88.5 39t76.5 61.5t70.5 81l66 -51q-40 -60 -94 -110.5t-117 -87t-133 -57t-144 -20.5q-97 0 -174.5 26t-132 77t-83.5 126.5t-29 174.5q0 132 46.5 248.5t129 203.5t195 137t245.5 50q157 0 241.5 -55t84.5 -164zM756 793q0 69 -30 106t-87 37
q-42 0 -78.5 -22t-66 -55t-52 -72t-36.5 -73q-43 -103 -58 -231q170 27 235 53q88 35 130.5 97.5t42.5 159.5z" />
    <glyph glyph-name="Edotaccent" unicode="&#x116;" horiz-adv-x="1407" 
d="M1073 1708q0 -32 -11 -60t-30.5 -49t-46.5 -33t-60 -12q-32 0 -59 11.5t-46.5 32t-30.5 48t-11 58.5t11 58.5t30.5 48.5t46.5 33t59 12t59 -11t47 -31t31 -47t11 -59zM1372 1067h-74q-4 34 -15 77t-31.5 82t-49.5 68t-69 35q-56 10 -170 10h-211l-129 -563h147
q80 0 131 22q27 11 51 32.5t46 50t40 63.5t33 72h76l-133 -574h-74v50q0 60 -14 111q-13 49 -56 70t-118 21h-150l-94 -413q-16 -60 -16 -107q0 -54 38 -74q38 -18 166 -18q67 0 115 2t77 6q32 4 54.5 9.5t41.5 15.5t36.5 25t39.5 38q23 24 50.5 55.5t54.5 65.5t51 68.5
t41 62.5h72l-127 -430h-1247l14 70q97 0 157.5 25.5t76.5 94.5l233 1012q6 29 6 47q0 39 -45 65.5t-133 35.5l17 69h1173z" />
    <glyph glyph-name="edotaccent" unicode="&#x117;" horiz-adv-x="1053" 
d="M838 1368q0 -32 -11 -60t-30.5 -49t-46.5 -33t-60 -12q-32 0 -59 11.5t-46.5 32t-30.5 48t-11 58.5t11 58.5t30.5 48.5t46.5 33t59 12t59 -11t47 -31t31 -47t11 -59zM1012 793q0 -73 -31 -126.5t-80.5 -91t-110.5 -63t-121 -43.5q-62 -18 -142.5 -33t-182.5 -28
q5 -308 225 -308q59 0 106.5 13.5t88.5 39t76.5 61.5t70.5 81l66 -51q-40 -60 -94 -110.5t-117 -87t-133 -57t-144 -20.5q-97 0 -174.5 26t-132 77t-83.5 126.5t-29 174.5q0 132 46.5 248.5t129 203.5t195 137t245.5 50q157 0 241.5 -55t84.5 -164zM756 793q0 69 -30 106
t-87 37q-42 0 -78.5 -22t-66 -55t-52 -72t-36.5 -73q-43 -103 -58 -231q170 27 235 53q88 35 130.5 97.5t42.5 159.5z" />
    <glyph glyph-name="Eogonek" unicode="&#x118;" horiz-adv-x="1407" 
d="M1372 1067h-74q-4 34 -15 77t-31.5 82t-49.5 68t-69 35q-56 10 -170 10h-211l-129 -563h147q80 0 131 22q27 11 51 32.5t46 50t40 63.5t33 72h76l-133 -574h-74v50q0 60 -14 111q-13 49 -56 70t-118 21h-150l-94 -413q-16 -60 -16 -107q0 -54 38 -74q38 -18 166 -18
q67 0 115 2t77 6q32 4 54.5 9.5t41.5 15.5t36.5 25t39.5 38q23 24 50.5 55.5t54.5 65.5t51 68.5t41 62.5h72l-127 -430h-148q-141 -129 -141 -254q0 -54 43 -82t148 -33l-15 -75q-199 0 -283 38q-83 38 -83 121q0 151 230 285h-998l14 70q97 0 157.5 25.5t76.5 94.5
l233 1012q6 29 6 47q0 39 -45 65.5t-133 35.5l17 69h1173z" />
    <glyph glyph-name="eogonek" unicode="&#x119;" horiz-adv-x="1053" 
d="M1012 793q0 -73 -31 -126.5t-80.5 -91t-110.5 -63t-121 -43.5q-62 -18 -142.5 -33t-182.5 -28q5 -308 225 -308q59 0 106.5 13.5t88.5 39t76.5 61.5t70.5 81l66 -51q-46 -69 -107.5 -123.5t-135.5 -91.5q-175 -145 -175 -283q0 -54 43 -82t148 -33l-15 -75
q-199 0 -283 38q-83 38 -83 121q0 137 187 258q-17 -2 -33.5 -3t-33.5 -1q-97 0 -174.5 26t-132 77t-83.5 126.5t-29 174.5q0 132 46.5 248.5t129 203.5t195 137t245.5 50q157 0 241.5 -55t84.5 -164zM756 793q0 69 -30 106t-87 37q-42 0 -78.5 -22t-66 -55t-52 -72
t-36.5 -73q-43 -103 -58 -231q170 27 235 53q88 35 130.5 97.5t42.5 159.5z" />
    <glyph glyph-name="Ecaron" unicode="&#x11a;" horiz-adv-x="1407" 
d="M1295 1837l-291 -287q-36 -36 -59 -45q-24 -8 -66 -8q-41 0 -62.5 10.5t-39.5 38.5l-187 291l41 31l272 -205l353 205zM1372 1067h-74q-4 34 -15 77t-31.5 82t-49.5 68t-69 35q-56 10 -170 10h-211l-129 -563h147q80 0 131 22q27 11 51 32.5t46 50t40 63.5t33 72h76
l-133 -574h-74v50q0 60 -14 111q-13 49 -56 70t-118 21h-150l-94 -413q-16 -60 -16 -107q0 -54 38 -74q38 -18 166 -18q67 0 115 2t77 6q32 4 54.5 9.5t41.5 15.5t36.5 25t39.5 38q23 24 50.5 55.5t54.5 65.5t51 68.5t41 62.5h72l-127 -430h-1247l14 70q97 0 157.5 25.5
t76.5 94.5l233 1012q6 29 6 47q0 39 -45 65.5t-133 35.5l17 69h1173z" />
    <glyph glyph-name="ecaron" unicode="&#x11b;" horiz-adv-x="1053" 
d="M1063 1516q-102 -128 -175.5 -215t-119.5 -138q-26 -30 -53.5 -40.5t-69.5 -10.5q-64 0 -87 26q-21 24 -139 272l-51 106l52 30l250 -264l344 264zM1012 793q0 -73 -31 -126.5t-80.5 -91t-110.5 -63t-121 -43.5q-62 -18 -142.5 -33t-182.5 -28q5 -308 225 -308
q59 0 106.5 13.5t88.5 39t76.5 61.5t70.5 81l66 -51q-40 -60 -94 -110.5t-117 -87t-133 -57t-144 -20.5q-97 0 -174.5 26t-132 77t-83.5 126.5t-29 174.5q0 132 46.5 248.5t129 203.5t195 137t245.5 50q157 0 241.5 -55t84.5 -164zM756 793q0 69 -30 106t-87 37
q-42 0 -78.5 -22t-66 -55t-52 -72t-36.5 -73q-43 -103 -58 -231q170 27 235 53q88 35 130.5 97.5t42.5 159.5z" />
    <glyph glyph-name="Gcircumflex" unicode="&#x11c;" horiz-adv-x="1569" 
d="M1306 1526l-43 -31l-272 207l-352 -207l-39 31l309 305q43 37 107 37q33 0 57.5 -10t44.5 -39zM696 -35q-132 -2 -243.5 40t-192.5 118t-125.5 182t-42.5 234q0 129 31 246.5t88 219.5t137.5 184.5t180.5 141.5t216 91t244 32q50 0 103 -5.5t106 -17.5t103.5 -30
t93.5 -43l65 61h82l-108 -508h-84q-14 233 -106.5 345t-266.5 112q-93 0 -171 -37t-140 -97.5t-108 -138t-76 -157.5q-74 -201 -74 -430q0 -85 18 -167t59 -146t108 -103t165 -39q69 0 128 18.5t124 69.5l59 236q16 60 16 86q0 36 -19.5 56.5t-51.5 31.5q-35 14 -133 24
l16 72h696q-5 -17 -9 -35t-7 -37q-105 -5 -156.5 -37t-64.5 -92l-33 -145q-31 -124 -39 -192q-64 -32 -137 -58.5t-149.5 -45.5t-153 -29.5t-148.5 -10.5z" />
    <glyph glyph-name="gcircumflex" unicode="&#x11d;" horiz-adv-x="1251" 
d="M1007 1110l-252 264l-344 -264l-47 31q17 22 48.5 61t79.5 96t90 105l77 88q12 15 24.5 25.5t27 16.5t32 8.5t39.5 2.5q39 0 60 -8.5t40 -40.5q7 -10 19.5 -33.5t28.5 -55t33.5 -68t35 -72.5t33 -69t26.5 -56zM721 121q-94 -77 -173 -109t-149 -32q-159 0 -245 98.5
t-86 281.5q0 83 20 165t58 156t93.5 136.5t126.5 107.5q137 87 289 87q81 0 148.5 -20t109.5 -50l246 53l12 -14l-170 -801q-66 -312 -227 -468t-434 -156q-330 0 -330 172q0 27 9.5 50.5t26 40.5t40 26.5t51.5 9.5q54 0 100.5 -42t81.5 -115l31 -67q112 13 182 70
t118.5 159.5t78.5 258.5zM864 766q0 75 -45.5 117.5t-124.5 42.5q-57 0 -104.5 -28t-85 -71t-64.5 -94.5t-43 -98.5q-47 -135 -47 -276q0 -249 174 -249q33 0 64 10.5t59.5 27t54.5 38t50 42.5q23 121 51.5 255t60.5 284z" />
    <glyph glyph-name="Gbreve" unicode="&#x11e;" horiz-adv-x="1569" 
d="M1368 1851q-112 -321 -395 -321q-131 0 -198.5 74.5t-67.5 212.5v34l65 17q12 -92 66.5 -135t165.5 -43q51 0 94 9.5t80 30.5t69 55t60 83zM696 -35q-132 -2 -243.5 40t-192.5 118t-125.5 182t-42.5 234q0 129 31 246.5t88 219.5t137.5 184.5t180.5 141.5t216 91t244 32
q50 0 103 -5.5t106 -17.5t103.5 -30t93.5 -43l65 61h82l-108 -508h-84q-14 233 -106.5 345t-266.5 112q-93 0 -171 -37t-140 -97.5t-108 -138t-76 -157.5q-74 -201 -74 -430q0 -85 18 -167t59 -146t108 -103t165 -39q69 0 128 18.5t124 69.5l59 236q16 60 16 86
q0 36 -19.5 56.5t-51.5 31.5q-35 14 -133 24l16 72h696q-5 -17 -9 -35t-7 -37q-105 -5 -156.5 -37t-64.5 -92l-33 -145q-31 -124 -39 -192q-64 -32 -137 -58.5t-149.5 -45.5t-153 -29.5t-148.5 -10.5z" />
    <glyph glyph-name="gbreve" unicode="&#x11f;" horiz-adv-x="1251" 
d="M1083 1513q-122 -383 -389 -383q-256 0 -256 338l2 45l63 15q7 -52 18.5 -95.5t35 -75t63 -48.5t100.5 -17q63 0 108.5 18t80 49.5t60.5 74.5t50 94zM721 121q-94 -77 -173 -109t-149 -32q-159 0 -245 98.5t-86 281.5q0 83 20 165t58 156t93.5 136.5t126.5 107.5
q137 87 289 87q81 0 148.5 -20t109.5 -50l246 53l12 -14l-170 -801q-66 -312 -227 -468t-434 -156q-330 0 -330 172q0 27 9.5 50.5t26 40.5t40 26.5t51.5 9.5q54 0 100.5 -42t81.5 -115l31 -67q112 13 182 70t118.5 159.5t78.5 258.5zM864 766q0 75 -45.5 117.5t-124.5 42.5
q-57 0 -104.5 -28t-85 -71t-64.5 -94.5t-43 -98.5q-47 -135 -47 -276q0 -249 174 -249q33 0 64 10.5t59.5 27t54.5 38t50 42.5q23 121 51.5 255t60.5 284z" />
    <glyph glyph-name="Gdotaccent" unicode="&#x120;" horiz-adv-x="1569" 
d="M1129 1708q0 -32 -11 -60t-30.5 -49t-46.5 -33t-60 -12q-32 0 -59 11.5t-46.5 32t-30.5 48t-11 58.5t11 58.5t30.5 48.5t46.5 33t59 12t59 -11t47 -31t31 -47t11 -59zM696 -35q-132 -2 -243.5 40t-192.5 118t-125.5 182t-42.5 234q0 129 31 246.5t88 219.5t137.5 184.5
t180.5 141.5t216 91t244 32q50 0 103 -5.5t106 -17.5t103.5 -30t93.5 -43l65 61h82l-108 -508h-84q-14 233 -106.5 345t-266.5 112q-93 0 -171 -37t-140 -97.5t-108 -138t-76 -157.5q-74 -201 -74 -430q0 -85 18 -167t59 -146t108 -103t165 -39q69 0 128 18.5t124 69.5
l59 236q16 60 16 86q0 36 -19.5 56.5t-51.5 31.5q-35 14 -133 24l16 72h696q-5 -17 -9 -35t-7 -37q-105 -5 -156.5 -37t-64.5 -92l-33 -145q-31 -124 -39 -192q-64 -32 -137 -58.5t-149.5 -45.5t-153 -29.5t-148.5 -10.5z" />
    <glyph glyph-name="gdotaccent" unicode="&#x121;" horiz-adv-x="1251" 
d="M887 1368q0 -32 -11 -60t-30.5 -49t-46.5 -33t-60 -12q-32 0 -59 11.5t-46.5 32t-30.5 48t-11 58.5t11 58.5t30.5 48.5t46.5 33t59 12t59 -11t47 -31t31 -47t11 -59zM721 121q-94 -77 -173 -109t-149 -32q-159 0 -245 98.5t-86 281.5q0 83 20 165t58 156t93.5 136.5
t126.5 107.5q137 87 289 87q81 0 148.5 -20t109.5 -50l246 53l12 -14l-170 -801q-66 -312 -227 -468t-434 -156q-330 0 -330 172q0 27 9.5 50.5t26 40.5t40 26.5t51.5 9.5q54 0 100.5 -42t81.5 -115l31 -67q112 13 182 70t118.5 159.5t78.5 258.5zM864 766q0 75 -45.5 117.5
t-124.5 42.5q-57 0 -104.5 -28t-85 -71t-64.5 -94.5t-43 -98.5q-47 -135 -47 -276q0 -249 174 -249q33 0 64 10.5t59.5 27t54.5 38t50 42.5q23 121 51.5 255t60.5 284z" />
    <glyph glyph-name="uni0122" unicode="&#x122;" horiz-adv-x="1569" 
d="M696 -35q-132 -2 -243.5 40t-192.5 118t-125.5 182t-42.5 234q0 129 31 246.5t88 219.5t137.5 184.5t180.5 141.5t216 91t244 32q50 0 103 -5.5t106 -17.5t103.5 -30t93.5 -43l65 61h82l-108 -508h-84q-14 233 -106.5 345t-266.5 112q-93 0 -171 -37t-140 -97.5
t-108 -138t-76 -157.5q-74 -201 -74 -430q0 -85 18 -167t59 -146t108 -103t165 -39q69 0 128 18.5t124 69.5l59 236q16 60 16 86q0 36 -19.5 56.5t-51.5 31.5q-35 14 -133 24l16 72h696q-5 -17 -9 -35t-7 -37q-105 -5 -156.5 -37t-64.5 -92l-33 -145q-31 -124 -39 -192
q-64 -32 -137 -58.5t-149.5 -45.5t-153 -29.5t-148.5 -10.5zM688 -260q-69 0 -95.5 21t-26.5 59q0 51 39.5 82.5t103.5 31.5q66 0 102.5 -38t36.5 -101q0 -56 -21.5 -100t-63 -75t-100.5 -47.5t-134 -16.5l8 61q93 6 141.5 32.5t65.5 90.5h-56z" />
    <glyph glyph-name="uni0123" unicode="&#x123;" horiz-adv-x="1251" 
d="M755 1350q135 0 135 -107q0 -52 -36.5 -87.5t-110.5 -35.5q-75 0 -116.5 39.5t-41.5 114.5q0 118 95 204t260 101l-11 -70q-104 -12 -155 -50.5t-68 -108.5h49zM721 121q-94 -77 -173 -109t-149 -32q-159 0 -245 98.5t-86 281.5q0 83 20 165t58 156t93.5 136.5
t126.5 107.5q137 87 289 87q81 0 148.5 -20t109.5 -50l246 53l12 -14l-170 -801q-66 -312 -227 -468t-434 -156q-330 0 -330 172q0 27 9.5 50.5t26 40.5t40 26.5t51.5 9.5q54 0 100.5 -42t81.5 -115l31 -67q112 13 182 70t118.5 159.5t78.5 258.5zM864 766q0 75 -45.5 117.5
t-124.5 42.5q-57 0 -104.5 -28t-85 -71t-64.5 -94.5t-43 -98.5q-47 -135 -47 -276q0 -249 174 -249q33 0 64 10.5t59.5 27t54.5 38t50 42.5q23 121 51.5 255t60.5 284z" />
    <glyph glyph-name="Hcircumflex" unicode="&#x124;" horiz-adv-x="1769" 
d="M1429 1526l-43 -31l-272 207l-352 -207l-39 31l309 305q43 37 107 37q33 0 57.5 -10t44.5 -39zM1399 164q0 -84 172 -94l-17 -70h-677l16 70q121 6 165 31q47 26 60 87l115 504h-631l-106 -456q-11 -50 -11 -58q0 -34 16.5 -54t41.5 -31t54.5 -15.5t55.5 -7.5l-16 -70
h-676l14 70q105 0 158.5 26.5t69.5 91.5l233 1014q6 29 6 45q0 82 -172 103l17 69h678l-17 -69q-34 -2 -70 -7.5t-66.5 -19t-54 -37.5t-32.5 -63l-100 -439h630l95 408q6 29 6 49t-12.5 37.5t-34.5 31.5t-53 24t-68 16l16 69h678l-16 -69q-34 -2 -70.5 -7.5t-68 -18.5
t-55 -37t-32.5 -64l-231 -1002q-10 -40 -10 -57z" />
    <glyph glyph-name="hcircumflex" unicode="&#x125;" horiz-adv-x="1268" 
d="M1096 1493l-273 209l-350 -209l-41 31l293 291q14 15 27 25t27 16.5t31.5 9t39.5 2.5q35 0 57 -9.5t43 -39.5l189 -295zM936 -16q-46 0 -84 12t-65 34.5t-41.5 55t-14.5 72.5q0 70 19 133l84 319q24 89 24 135q0 60 -29 91.5t-86 31.5q-55 0 -124.5 -37.5t-135.5 -103.5
l-166 -727h-258l265 1149q5 22 7.5 39.5t2.5 30.5q0 30 -12 53t-41 34q-25 11 -117 21l16 68l449 24l12 -16l-131 -563h6q44 36 88 67t91 54.5t98.5 37t109.5 13.5q47 0 87.5 -13.5t70 -40t46.5 -64.5t17 -87q0 -70 -22 -154l-80 -301q-25 -104 -25 -143q0 -57 25.5 -78.5
t85.5 -21.5q12 0 27 2t31 5.5t31 8t26 8.5l-19 -76q-81 -32 -146 -52.5t-122 -20.5z" />
    <glyph glyph-name="Hbar" unicode="&#x126;" horiz-adv-x="1769" 
d="M1401 162q0 -83 170 -92l-17 -70h-677l16 70q121 6 165 31q47 26 60 87l115 504h-631l-110 -483q-7 -20 -7 -43q0 -85 168 -96l-16 -70h-676l14 70q105 0 158.5 26.5t69.5 91.5l188 824h-190l22 90h191q28 125 28 145q0 82 -172 103l17 69h678l-17 -69q-34 -2 -70 -7.5
t-66.5 -19t-54 -37.5t-32.5 -63l-29 -121h633q27 104 27 145q0 42 -46.5 67.5t-121.5 35.5l16 69h678l-16 -69q-34 -2 -70.5 -7.5t-68 -18.5t-55 -37t-32.5 -64l-28 -121h190l-20 -90h-191l-184 -803q-6 -24 -6 -47zM625 784h630l54 228h-633z" />
    <glyph glyph-name="hbar" unicode="&#x127;" horiz-adv-x="1268" 
d="M348 1249q8 35 12.5 58.5t4.5 35.5q0 32 -12 57t-43 36q-14 5 -42.5 10t-72.5 10l16 68l448 24l13 -16l-66 -283h352l-22 -88h-350l-76 -323h6q44 36 88 67t91 54.5t98.5 37t109.5 13.5q47 0 87.5 -13.5t70 -40t46.5 -64.5t17 -87q0 -75 -22 -156l-80 -297
q-25 -93 -25 -143q0 -57 25.5 -78.5t85.5 -21.5q12 0 27 2t31 5.5t31 8t26 8.5l-19 -76q-81 -32 -146 -52.5t-122 -20.5q-94 0 -149.5 48t-55.5 132q0 53 29 164l74 278q22 87 22 135q0 58 -27.5 91.5t-85.5 33.5q-34 0 -70 -13.5t-70.5 -34t-65.5 -45.5t-54 -48l-166 -725
h-258l269 1161h-240l23 88h237z" />
    <glyph glyph-name="Itilde" unicode="&#x128;" horiz-adv-x="860" 
d="M996 1768q-37 -95 -104 -154q-71 -59 -142 -55q-35 2 -66.5 13.5t-67.5 34.5q-32 22 -54 34.5t-37 13.5q-24 2 -45 -8t-38.5 -26t-32 -35.5t-26.5 -37.5l-65 39q105 218 243 210q32 -2 63.5 -13.5t66.5 -35.5q33 -22 58 -34t40 -13q27 -2 48 6.5t37.5 23.5t29.5 35t25 41
zM446 1249q0 39 -45.5 63t-142.5 38l16 69h713l-16 -69q-34 -3 -72.5 -7.5t-73.5 -17t-62 -36t-36 -64.5l-233 -1016q-7 -20 -7 -43q0 -42 37 -64q38 -22 152 -32l-17 -70h-710l16 70q100 0 162 24.5t78 93.5l231 1006z" />
    <glyph glyph-name="itilde" unicode="&#x129;" horiz-adv-x="678" 
d="M823 1373q-37 -95 -104 -154q-71 -59 -142 -55q-35 2 -66.5 13.5t-67.5 34.5q-32 22 -54 34.5t-37 13.5q-24 2 -45 -8t-38.5 -26t-32 -35.5t-26.5 -37.5l-65 39q105 218 243 210q32 -2 63.5 -13.5t66.5 -35.5q33 -22 58 -34t40 -13q27 -2 48 6.5t37.5 23.5t29.5 35t25 41
zM344 -25q-47 0 -85 12.5t-64.5 35.5t-41 56t-14.5 73q0 67 19 131l94 360q24 108 24 145q0 51 -22 74t-70 23t-129 -25l19 78q175 74 266 74q102 0 151.5 -49t49.5 -127q0 -62 -23 -152l-90 -338q-25 -104 -25 -145q0 -57 26.5 -78t86.5 -21q51 0 115 23l-19 -76
q-81 -34 -146 -54t-122 -20z" />
    <glyph glyph-name="Imacron" unicode="&#x12a;" horiz-adv-x="860" 
d="M307 1659l31 145h717l-31 -145h-717zM446 1249q0 39 -45.5 63t-142.5 38l16 69h713l-16 -69q-34 -3 -72.5 -7.5t-73.5 -17t-62 -36t-36 -64.5l-233 -1016q-7 -20 -7 -43q0 -42 37 -64q38 -22 152 -32l-17 -70h-710l16 70q100 0 162 24.5t78 93.5l231 1006z" />
    <glyph glyph-name="imacron" unicode="&#x12b;" horiz-adv-x="678" 
d="M36 1272l31 145h717l-31 -145h-717zM344 -25q-47 0 -85 12.5t-64.5 35.5t-41 56t-14.5 73q0 67 19 131l94 360q24 108 24 145q0 51 -22 74t-70 23t-129 -25l19 78q175 74 266 74q102 0 151.5 -49t49.5 -127q0 -62 -23 -152l-90 -338q-25 -104 -25 -145q0 -57 26.5 -78
t86.5 -21q51 0 115 23l-19 -76q-81 -34 -146 -54t-122 -20z" />
    <glyph glyph-name="Ibreve" unicode="&#x12c;" horiz-adv-x="860" 
d="M1034 1851q-112 -321 -395 -321q-131 0 -198.5 74.5t-67.5 212.5v34l65 17q12 -92 66.5 -135t165.5 -43q51 0 94 9.5t80 30.5t69 55t60 83zM446 1249q0 39 -45.5 63t-142.5 38l16 69h713l-16 -69q-34 -3 -72.5 -7.5t-73.5 -17t-62 -36t-36 -64.5l-233 -1016
q-7 -20 -7 -43q0 -42 37 -64q38 -22 152 -32l-17 -70h-710l16 70q100 0 162 24.5t78 93.5l231 1006z" />
    <glyph glyph-name="ibreve" unicode="&#x12d;" horiz-adv-x="678" 
d="M756 1513q-122 -383 -389 -383q-256 0 -256 338l2 45l63 15q7 -52 18.5 -95.5t35 -75t63 -48.5t100.5 -17q63 0 108.5 18t80 49.5t60.5 74.5t50 94zM344 -25q-47 0 -85 12.5t-64.5 35.5t-41 56t-14.5 73q0 67 19 131l94 360q24 108 24 145q0 51 -22 74t-70 23t-129 -25
l19 78q175 74 266 74q102 0 151.5 -49t49.5 -127q0 -62 -23 -152l-90 -338q-25 -104 -25 -145q0 -57 26.5 -78t86.5 -21q51 0 115 23l-19 -76q-81 -34 -146 -54t-122 -20z" />
    <glyph glyph-name="Iogonek" unicode="&#x12e;" horiz-adv-x="860" 
d="M446 1249q0 39 -45.5 63t-142.5 38l16 69h713l-16 -69q-34 -3 -72.5 -7.5t-73.5 -17t-62 -36t-36 -64.5l-233 -1016q-7 -20 -7 -43q0 -42 37 -64q38 -22 152 -32l-17 -70h-203q-141 -129 -141 -254q0 -54 43 -82t148 -33l-15 -75q-199 0 -283 38q-83 38 -83 121
q0 151 230 285h-406l16 70q100 0 162 24.5t78 93.5l231 1006z" />
    <glyph glyph-name="iogonek" unicode="&#x12f;" horiz-adv-x="678" 
d="M638 1319q0 -30 -11.5 -56t-31.5 -45t-46.5 -30t-56.5 -11q-28 0 -53.5 11t-44.5 30t-30 44.5t-11 53.5q0 29 11 54.5t29.5 45t44 31t54.5 11.5t55.5 -10.5t46.5 -29t32 -44t12 -55.5zM505 -444q-199 0 -283 38q-83 38 -83 121q0 139 190 260q-43 2 -78.5 15.5t-60 36.5
t-38 54.5t-13.5 70.5q0 67 19 131l94 360q24 108 24 145q0 30 -5.5 48.5t-18 29.5t-32 15t-46.5 4q-38 0 -119 -25l19 78q175 74 266 74q102 0 151.5 -49t49.5 -127q0 -68 -17 -134l-96 -356q-25 -84 -25 -145q0 -57 26.5 -78t86.5 -21q51 0 115 23l-19 -76
q-42 -17 -78 -30.5t-69 -23.5q-136 -127 -136 -249q0 -54 43 -82t148 -33z" />
    <glyph glyph-name="Idotaccent" unicode="&#x130;" horiz-adv-x="860" 
d="M811 1708q0 -32 -11 -60t-30.5 -49t-46.5 -33t-60 -12q-32 0 -59 11.5t-46.5 32t-30.5 48t-11 58.5t11 58.5t30.5 48.5t46.5 33t59 12t59 -11t47 -31t31 -47t11 -59zM446 1249q0 39 -45.5 63t-142.5 38l16 69h713l-16 -69q-34 -3 -72.5 -7.5t-73.5 -17t-62 -36t-36 -64.5
l-233 -1016q-7 -20 -7 -43q0 -42 37 -64q38 -22 152 -32l-17 -70h-710l16 70q100 0 162 24.5t78 93.5l231 1006z" />
    <glyph glyph-name="dotlessi" unicode="&#x131;" horiz-adv-x="678" 
d="M344 -25q-47 0 -85 12.5t-64.5 35.5t-41 56t-14.5 73q0 67 19 131l94 360q24 108 24 145q0 51 -22 74t-70 23t-129 -25l19 78q175 74 266 74q102 0 151.5 -49t49.5 -127q0 -62 -23 -152l-90 -338q-25 -104 -25 -145q0 -57 26.5 -78t86.5 -21q51 0 115 23l-19 -76
q-81 -34 -146 -54t-122 -20z" />
    <glyph glyph-name="IJ" unicode="&#x132;" horiz-adv-x="1919" 
d="M446 1249q0 39 -45.5 63t-142.5 38l16 69h713l-16 -69q-34 -3 -72.5 -7.5t-73.5 -17t-62 -36t-36 -64.5l-233 -1016q-7 -20 -7 -43q0 -42 37 -64q38 -22 152 -32l-17 -70h-710l16 70q100 0 162 24.5t78 93.5l231 1006zM1091 -37q-70 0 -135 17.5t-114.5 54t-79 93
t-29.5 134.5q0 42 11.5 84t35 75.5t58.5 54t83 20.5q69 0 109.5 -37t40.5 -101q0 -40 -18 -74t-43 -63.5t-51 -57t-42 -54.5q11 -26 48 -45t91 -19q112 0 186.5 94t119.5 293l172 760q8 34 8 49q0 81 -184 109l16 69h696l-14 -69q-35 -2 -71.5 -7t-68.5 -17.5t-56 -37
t-33 -65.5l-187 -815q-22 -95 -73.5 -176.5t-124 -141t-162.5 -93.5t-189 -34z" />
    <glyph glyph-name="ij" unicode="&#x133;" horiz-adv-x="1288" 
d="M638 1319q0 -30 -11.5 -56t-31.5 -45t-46.5 -30t-56.5 -11q-28 0 -53.5 11t-44.5 30t-30 44.5t-11 53.5q0 29 11 54.5t29.5 45t44 31t54.5 11.5t55.5 -10.5t46.5 -29t32 -44t12 -55.5zM1259 1319q0 -30 -11.5 -56t-31.5 -45t-46.5 -30t-56.5 -11q-28 0 -53.5 11t-44.5 30
t-30 44.5t-11 53.5q0 29 11 54.5t29.5 45t44 31t54.5 11.5t55.5 -10.5t46.5 -29t32 -44t12 -55.5zM344 -25q-47 0 -85 12.5t-64.5 35.5t-41 56t-14.5 73q0 67 19 131l94 360q24 108 24 145q0 30 -5.5 48.5t-18 29.5t-32 15t-46.5 4q-38 0 -119 -25l19 78q175 74 266 74
q102 0 151.5 -49t49.5 -127q0 -68 -17 -134l-96 -356q-25 -84 -25 -145q0 -57 26.5 -78t86.5 -21q51 0 115 23l-19 -76q-81 -34 -146 -54t-122 -20zM1177 836q0 -59 -39 -266q-19 -103 -47.5 -230.5t-66.5 -280.5q-18 -65 -47 -128.5t-69 -121t-90.5 -106t-109.5 -82.5
q-112 -65 -225 -65q-114 0 -171.5 39.5t-57.5 115.5q0 57 34.5 92t91.5 35q101 0 169 -137l32 -63q108 64 178 385q41 174 74 332t59 304q19 98 19 140q0 46 -20.5 66t-71.5 20q-56 0 -137 -27l18 78q177 76 276 76q102 0 151.5 -49t49.5 -127z" />
    <glyph glyph-name="Jcircumflex" unicode="&#x134;" horiz-adv-x="1139" 
d="M1304 1526l-43 -31l-272 207l-352 -207l-39 31l309 305q43 37 107 37q33 0 57.5 -10t44.5 -39zM311 -37q-70 0 -135 17.5t-114.5 54t-79 93t-29.5 134.5q0 42 11.5 84t35 75.5t58.5 54t83 20.5q69 0 109.5 -37t40.5 -101q0 -40 -18 -74t-43 -63.5t-51 -57t-42 -54.5
q11 -26 48 -45t91 -19q112 0 186.5 94t119.5 293l172 760q8 34 8 49q0 81 -184 109l16 69h696l-14 -69q-35 -2 -71.5 -7t-68.5 -17.5t-56 -37t-33 -65.5l-187 -815q-22 -95 -73.5 -176.5t-124 -141t-162.5 -93.5t-189 -34z" />
    <glyph glyph-name="jcircumflex" unicode="&#x135;" horiz-adv-x="672" 
d="M684 1110l-252 264l-344 -264l-47 31q17 22 48.5 61t79.5 96t90 105l77 88q12 15 24.5 25.5t27 16.5t32 8.5t39.5 2.5q39 0 60 -8.5t40 -40.5q7 -10 19.5 -33.5t28.5 -55t33.5 -68t35 -72.5t33 -69t26.5 -56zM561 836q0 -59 -39 -266q-19 -103 -47.5 -230.5t-66.5 -280.5
q-18 -65 -47 -128.5t-69 -121t-90.5 -106t-109.5 -82.5q-112 -65 -225 -65q-114 0 -171.5 39.5t-57.5 115.5q0 57 34.5 92t91.5 35q101 0 169 -137l32 -63q108 64 178 385q41 174 74 332t59 304q19 98 19 140q0 46 -20.5 66t-71.5 20q-56 0 -137 -27l18 78q177 76 276 76
q102 0 151.5 -49t49.5 -127z" />
    <glyph glyph-name="uni0136" unicode="&#x136;" horiz-adv-x="1546" 
d="M485 166q0 -85 170 -96l-16 -70h-676l14 70q105 0 158.5 27.5t67.5 90.5l233 1014q6 29 6 45q0 45 -44 67.5t-126 35.5l17 69h678l-17 -69q-34 -3 -70 -8t-67.5 -18t-55 -37t-32.5 -64l-115 -494h33q120 85 227 171.5t204 175.5q194 179 194 233q0 14 -28 24q-14 5 -41 9
t-69 8q7 22 11 39t6 30h575l-16 -69l-59 -9q-134 -19 -209 -77q-64 -49 -154.5 -124t-208.5 -178l-186 -157l89 -143l259 -424q23 -41 47.5 -71.5t54.5 -51t67 -32t85 -13.5l-18 -70h-447q-78 176 -173.5 339t-197.5 325h-59l-104 -455q-7 -20 -7 -43zM727 -260
q-69 0 -95.5 21t-26.5 59q0 51 39.5 82.5t103.5 31.5q66 0 102.5 -38t36.5 -101q0 -56 -21.5 -100t-63 -75t-100.5 -47.5t-134 -16.5l8 61q93 6 141.5 32.5t65.5 90.5h-56z" />
    <glyph glyph-name="uni0137" unicode="&#x137;" horiz-adv-x="1196" 
d="M1184 877q0 -31 -12 -58t-32.5 -47.5t-47.5 -32.5t-58 -12q-77 0 -174 61q-27 -17 -49.5 -32.5t-43.5 -32t-41.5 -35t-43.5 -39.5q49 -126 83.5 -213t56.5 -136t39.5 -82.5t30.5 -51.5q26 -35 57.5 -50.5t76.5 -15.5q48 0 129 27l-18 -78q-174 -72 -279 -72
q-91 0 -145.5 42t-91.5 128q-25 52 -48.5 109.5t-46.5 123.5l-30 83l-93 -82l-86 -381h-258l295 1280q11 50 11 63q0 32 -12 57t-43 36q-14 5 -42.5 10t-72.5 10l16 68l448 24l13 -16l-244 -1040h6q85 93 161 171t144 144q69 66 116.5 107.5t75.5 58.5q58 35 118 35
q61 0 98 -34t37 -97zM516 -260q-69 0 -95.5 21t-26.5 59q0 51 39.5 82.5t103.5 31.5q66 0 102.5 -38t36.5 -101q0 -56 -21.5 -100t-63 -75t-100.5 -47.5t-134 -16.5l8 61q93 6 141.5 32.5t65.5 90.5h-56z" />
    <glyph glyph-name="kgreenlandic" unicode="&#x138;" horiz-adv-x="1241" 
d="M1227 877q0 -31 -12 -58t-32.5 -47.5t-47.5 -32.5t-58 -12q-77 0 -174 61q-27 -17 -49.5 -32.5t-43.5 -32t-41.5 -35t-43.5 -39.5q49 -126 83.5 -213t56.5 -136t39.5 -82.5t30.5 -51.5q26 -35 57.5 -50.5t76.5 -15.5q48 0 129 27l-16 -78q-178 -72 -281 -72
q-91 0 -145.5 42t-91.5 128q-44 95 -96 238l-29 78l-93 -82l-86 -381h-258l146 631q11 59 16.5 95t5.5 50q0 47 -18.5 71.5t-71.5 24.5q-61 0 -127 -24l19 78q173 73 264 73q106 0 154.5 -47.5t48.5 -126.5q0 -49 -21 -133l-47 -200h6q89 97 179.5 189.5t187.5 182.5
q51 48 87.5 77t59.5 42q47 25 103 25q60 0 96.5 -34t36.5 -97z" />
    <glyph glyph-name="Lacute" unicode="&#x139;" 
d="M1128 1782q0 -45 -27 -72t-73 -47l-156 -65l-239 -103l-31 41l160 147l116 117q63 68 135 68q51 0 83 -24.5t32 -61.5zM442 1247q0 82 -172 103l17 69h690l-16 -69q-36 -3 -73 -8t-70 -18.5t-58.5 -38t-36.5 -64.5l-219 -953q-15 -60 -15 -102q0 -51 37 -69
q39 -17 174 -17q206 0 273 53q48 40 115 120t139 185h69l-129 -438h-1206l14 70q97 0 154.5 26t73.5 92l233 1014q6 29 6 45z" />
    <glyph glyph-name="lacute" unicode="&#x13a;" horiz-adv-x="653" 
d="M817 1782q0 -36 -14.5 -58.5t-44.5 -41.5q-16 -10 -48 -24.5t-81 -33.5q-86 -34 -162 -66t-145 -63l-31 41q51 45 103 94.5t108 106.5q40 40 65.5 64t46 38t40.5 20t48 9q51 0 83 -24t32 -62zM373 195q0 -48 27.5 -70.5t88.5 -22.5q12 0 28.5 2t34 5t33.5 7.5t27 8.5
l-18 -76q-172 -72 -275 -72q-48 0 -87 12.5t-66 35t-42 55t-15 72.5q0 55 18 131l199 868q10 41 10 72q0 33 -12.5 52t-34.5 29t-53 14.5t-68 8.5l16 68l449 24l10 -16l-244 -1057q-4 -14 -8.5 -34t-8.5 -41.5t-6.5 -41.5t-2.5 -34z" />
    <glyph glyph-name="uni013B" unicode="&#x13b;" 
d="M442 1247q0 82 -172 103l17 69h690l-16 -69q-36 -3 -73 -8t-70 -18.5t-58.5 -38t-36.5 -64.5l-219 -953q-15 -60 -15 -102q0 -51 37 -69q39 -17 174 -17q206 0 273 53q48 40 115 120t139 185h69l-129 -438h-1206l14 70q97 0 154.5 26t73.5 92l233 1014q6 29 6 45z
M655 -260q-69 0 -95.5 21t-26.5 59q0 51 39.5 82.5t103.5 31.5q66 0 102.5 -38t36.5 -101q0 -56 -21.5 -100t-63 -75t-100.5 -47.5t-134 -16.5l8 61q93 6 141.5 32.5t65.5 90.5h-56z" />
    <glyph glyph-name="uni013C" unicode="&#x13c;" horiz-adv-x="653" 
d="M373 201q0 -57 27.5 -78t88.5 -21q12 0 28.5 2t34 5t33.5 7.5t27 8.5l-18 -76q-172 -72 -275 -72q-48 0 -87 12.5t-66 35t-42 55t-15 72.5q0 55 18 131l229 997q11 50 11 68q0 29 -12 52t-41 35q-25 11 -117 21l16 68l449 24l10 -16l-273 -1186q-26 -112 -26 -145z
M278 -260q-69 0 -95.5 21t-26.5 59q0 51 39.5 82.5t103.5 31.5q66 0 102.5 -38t36.5 -101q0 -56 -21.5 -100t-63 -75t-100.5 -47.5t-134 -16.5l8 61q93 6 141.5 32.5t65.5 90.5h-56z" />
    <glyph glyph-name="Lcaron" unicode="&#x13d;" 
d="M1405 1276q0 -83 -35 -155t-91.5 -130.5t-126.5 -103t-140 -74.5l-29 68q47 23 92 48.5t83 58t67 73.5t45 94h-49q-69 0 -108.5 29t-39.5 84q0 35 15 66t40 53.5t57 35.5t66 13q72 0 113 -40.5t41 -119.5zM442 1247q0 82 -172 103l17 69h690l-16 -69q-36 -3 -73 -8
t-70 -18.5t-58.5 -38t-36.5 -64.5l-219 -953q-15 -60 -15 -102q0 -51 37 -69q39 -17 174 -17q206 0 273 53q48 40 115 120t139 185h69l-129 -438h-1206l14 70q97 0 154.5 26t73.5 92l233 1014q6 29 6 45z" />
    <glyph glyph-name="lcaron" unicode="&#x13e;" horiz-adv-x="924" 
d="M373 201q0 -57 27.5 -78t88.5 -21q12 0 28.5 2t34 5t33.5 7.5t27 8.5l-18 -76q-172 -72 -275 -72q-48 0 -87 12.5t-66 35t-42 55t-15 72.5q0 55 18 131l229 997q11 50 11 68q0 29 -12 52t-41 35q-25 11 -117 21l16 68l449 24l10 -16l-273 -1186q-26 -112 -26 -145z
M1104 1376q0 -83 -35 -155t-91.5 -130.5t-126.5 -103t-140 -74.5l-29 68q47 23 92 48.5t83 58t67 73.5t45 94h-49q-69 0 -108.5 29t-39.5 84q0 35 15 66t40 53.5t57 35.5t66 13q72 0 113 -40.5t41 -119.5z" />
    <glyph glyph-name="Ldot" unicode="&#x13f;" 
d="M442 1247q0 82 -172 103l17 69h690l-16 -69q-36 -3 -73 -8t-70 -18.5t-58.5 -38t-36.5 -64.5l-219 -953q-15 -60 -15 -102q0 -51 37 -69q39 -17 174 -17q206 0 273 53q48 40 115 120t139 185h69l-129 -438h-1206l14 70q97 0 154.5 26t73.5 92l233 1014q6 29 6 45z
M1164 743q0 -34 -13 -64t-35.5 -52t-53 -35t-64.5 -13t-65 12.5t-53.5 34.5t-36 52t-13.5 65t13 65.5t36 53.5t53.5 36t65.5 13t65 -13.5t52.5 -36.5t35.5 -53.5t13 -64.5z" />
    <glyph glyph-name="ldot" unicode="&#x140;" horiz-adv-x="989" 
d="M373 201q0 -57 27.5 -78t88.5 -21q12 0 28.5 2t34 5t33.5 7.5t27 8.5l-18 -76q-172 -72 -275 -72q-48 0 -87 12.5t-66 35t-42 55t-15 72.5q0 55 18 131l229 997q11 50 11 68q0 29 -12 52t-41 35q-25 11 -117 21l16 68l449 24l10 -16l-273 -1186q-26 -112 -26 -145z
M1000 669q0 -34 -13 -64t-35.5 -52t-53 -35t-64.5 -13t-65 12.5t-53.5 34.5t-36 52t-13.5 65t13 65.5t36 53.5t53.5 36t65.5 13t65 -13.5t52.5 -36.5t35.5 -53.5t13 -64.5z" />
    <glyph glyph-name="Lslash" unicode="&#x141;" 
d="M301 614l-178 -67l-23 90l226 86l110 479q6 29 6 45q0 82 -172 103l17 69h690l-16 -69q-35 -3 -73 -8t-71.5 -18t-58.5 -37t-35 -66l-86 -377l283 108l22 -90l-332 -127l-106 -467q-15 -64 -15 -102q0 -51 37 -69q39 -17 174 -17q206 0 273 53q48 40 115 120t139 185h69
l-129 -438h-1206l14 70q97 0 154.5 26t73.5 92z" />
    <glyph glyph-name="lslash" unicode="&#x142;" horiz-adv-x="653" 
d="M373 201q0 -57 27.5 -78t88.5 -21q12 0 28.5 2t34 5t33.5 7.5t27 8.5l-18 -76q-172 -72 -275 -72q-48 0 -87 12.5t-66 35t-42 55t-15 72.5q0 55 18 131l74 327l-135 -51l-19 90l178 68l131 563q11 50 11 68q0 29 -12 52t-41 35q-25 11 -117 21l16 68l449 24l10 -16
l-164 -711l151 58l19 -93l-195 -71l-84 -369q-26 -112 -26 -145z" />
    <glyph glyph-name="Nacute" unicode="&#x143;" horiz-adv-x="1634" 
d="M1374 1782q0 -45 -27 -72t-73 -47l-156 -65l-239 -103l-31 41l160 147l116 117q63 68 135 68q51 0 83 -24.5t32 -61.5zM1253 -12h-127l-598 1167l-170 -741q-13 -61 -19.5 -107.5t-6.5 -79.5q0 -28 3.5 -48t13 -35t26.5 -26t44 -20q28 -10 55.5 -17t55.5 -11l-16 -70
h-596l16 70q18 1 43.5 5.5t52 11t50.5 15t39 17.5q29 20 49.5 55t36 75.5t26 81.5t17.5 72l155 678q13 46 13 90q-1 44 -14.5 74.5t-39 50.5t-63 32.5t-86.5 21.5l18 69h465l537 -1054l149 643q27 108 27 184q0 42 -9.5 67t-28.5 38q-9 7 -25.5 14.5t-38 14.5t-46.5 13.5
t-51 10.5l17 69h594l-17 -69l-35 -5q-35 -5 -66.5 -12.5t-58.5 -21t-49.5 -35.5t-39.5 -56q-16 -32 -31 -82t-31 -118z" />
    <glyph glyph-name="nacute" unicode="&#x144;" horiz-adv-x="1311" 
d="M1082 1462q0 -39 -15 -61.5t-44 -45.5q-33 -25 -155 -102q-111 -69 -225 -147l-39 35q29 38 62.5 83.5t70.5 98.5l87 123q16 24 31.5 42t33.5 30t40 18t52 6q21 0 39.5 -6.5t32 -17.5t21.5 -25.5t8 -30.5zM979 -16q-93 0 -149 46.5t-56 127.5q0 61 19 133l84 319
q24 96 24 135q0 60 -29 91.5t-86 31.5t-123.5 -35.5t-136.5 -105.5l-166 -727h-258l144 631q4 14 8 33t7.5 39t6 39.5t2.5 33.5q0 29 -5 47.5t-16.5 29.5t-30.5 15t-48 4q-12 0 -27.5 -2t-31.5 -5.5t-31 -8t-27 -8.5l19 78q171 73 268 73q90 0 138.5 -38.5t62.5 -129.5h6
q44 37 89.5 70t94.5 57.5t102 39t113 14.5q47 0 87.5 -13.5t70 -40t46.5 -64.5t17 -87q0 -73 -22 -154l-80 -301q-25 -84 -25 -143q0 -27 5 -45.5t18 -30.5t34 -17t54 -5q25 0 59 7.5t56 16.5l-19 -78q-81 -32 -146 -52.5t-122 -20.5z" />
    <glyph glyph-name="uni0145" unicode="&#x145;" horiz-adv-x="1634" 
d="M1253 -12h-127l-598 1167l-170 -741q-13 -61 -19.5 -107.5t-6.5 -79.5q0 -28 3.5 -48t13 -35t26.5 -26t44 -20q28 -10 55.5 -17t55.5 -11l-16 -70h-596l16 70q18 1 43.5 5.5t52 11t50.5 15t39 17.5q29 20 49.5 55t36 75.5t26 81.5t17.5 72l155 678q13 46 13 90
q-1 44 -14.5 74.5t-39 50.5t-63 32.5t-86.5 21.5l18 69h465l537 -1054l149 643q27 108 27 184q0 42 -9.5 67t-28.5 38q-9 7 -25.5 14.5t-38 14.5t-46.5 13.5t-51 10.5l17 69h594l-17 -69l-35 -5q-35 -5 -66.5 -12.5t-58.5 -21t-49.5 -35.5t-39.5 -56q-16 -32 -31 -82
t-31 -118zM682 -260q-69 0 -95.5 21t-26.5 59q0 51 39.5 82.5t103.5 31.5q66 0 102.5 -38t36.5 -101q0 -56 -21.5 -100t-63 -75t-100.5 -47.5t-134 -16.5l8 61q93 6 141.5 32.5t65.5 90.5h-56z" />
    <glyph glyph-name="uni0146" unicode="&#x146;" horiz-adv-x="1311" 
d="M979 -16q-93 0 -149 46.5t-56 127.5q0 61 19 133l84 319q24 96 24 135q0 60 -29 91.5t-86 31.5t-123.5 -35.5t-136.5 -105.5l-166 -727h-258l144 631q4 14 8 33t7.5 39t6 39.5t2.5 33.5q0 29 -5 47.5t-16.5 29.5t-30.5 15t-48 4q-12 0 -27.5 -2t-31.5 -5.5t-31 -8
t-27 -8.5l19 78q171 73 268 73q90 0 138.5 -38.5t62.5 -129.5h6q44 37 89.5 70t94.5 57.5t102 39t113 14.5q47 0 87.5 -13.5t70 -40t46.5 -64.5t17 -87q0 -73 -22 -154l-80 -301q-25 -84 -25 -143q0 -27 5 -45.5t18 -30.5t34 -17t54 -5q25 0 59 7.5t56 16.5l-19 -78
q-81 -32 -146 -52.5t-122 -20.5zM598 -260q-69 0 -95.5 21t-26.5 59q0 51 39.5 82.5t103.5 31.5q66 0 102.5 -38t36.5 -101q0 -56 -21.5 -100t-63 -75t-100.5 -47.5t-134 -16.5l8 61q93 6 141.5 32.5t65.5 90.5h-56z" />
    <glyph glyph-name="Ncaron" unicode="&#x147;" horiz-adv-x="1634" 
d="M1405 1837l-291 -287q-36 -36 -59 -45q-24 -8 -66 -8q-41 0 -62.5 10.5t-39.5 38.5l-187 291l41 31l272 -205l353 205zM1253 -12h-127l-598 1167l-170 -741q-13 -61 -19.5 -107.5t-6.5 -79.5q0 -28 3.5 -48t13 -35t26.5 -26t44 -20q28 -10 55.5 -17t55.5 -11l-16 -70
h-596l16 70q18 1 43.5 5.5t52 11t50.5 15t39 17.5q29 20 49.5 55t36 75.5t26 81.5t17.5 72l155 678q13 46 13 90q-1 44 -14.5 74.5t-39 50.5t-63 32.5t-86.5 21.5l18 69h465l537 -1054l149 643q27 108 27 184q0 42 -9.5 67t-28.5 38q-9 7 -25.5 14.5t-38 14.5t-46.5 13.5
t-51 10.5l17 69h594l-17 -69l-35 -5q-35 -5 -66.5 -12.5t-58.5 -21t-49.5 -35.5t-39.5 -56q-16 -32 -31 -82t-31 -118z" />
    <glyph glyph-name="ncaron" unicode="&#x148;" horiz-adv-x="1311" 
d="M1125 1516q-102 -128 -175.5 -215t-119.5 -138q-26 -30 -53.5 -40.5t-69.5 -10.5q-64 0 -87 26q-21 24 -139 272l-51 106l52 30l250 -264l344 264zM979 -16q-93 0 -149 46.5t-56 127.5q0 61 19 133l84 319q24 96 24 135q0 60 -29 91.5t-86 31.5t-123.5 -35.5
t-136.5 -105.5l-166 -727h-258l144 631q4 14 8 33t7.5 39t6 39.5t2.5 33.5q0 29 -5 47.5t-16.5 29.5t-30.5 15t-48 4q-12 0 -27.5 -2t-31.5 -5.5t-31 -8t-27 -8.5l19 78q171 73 268 73q90 0 138.5 -38.5t62.5 -129.5h6q44 37 89.5 70t94.5 57.5t102 39t113 14.5
q47 0 87.5 -13.5t70 -40t46.5 -64.5t17 -87q0 -73 -22 -154l-80 -301q-25 -84 -25 -143q0 -27 5 -45.5t18 -30.5t34 -17t54 -5q25 0 59 7.5t56 16.5l-19 -78q-81 -32 -146 -52.5t-122 -20.5z" />
    <glyph glyph-name="napostrophe" unicode="&#x149;" horiz-adv-x="1495" 
d="M461 1370q0 -83 -35 -155t-91.5 -130.5t-126.5 -103t-140 -74.5l-29 68q47 23 92 48.5t83 58t67 73.5t45 94h-49q-69 0 -108.5 29t-39.5 84q0 35 15 66t40 53.5t57 35.5t66 13q72 0 113 -40.5t41 -119.5zM1163 -16q-93 0 -149 46.5t-56 127.5q0 61 19 133l84 319
q24 96 24 135q0 60 -29 91.5t-86 31.5t-123.5 -35.5t-136.5 -105.5l-166 -727h-258l144 631q4 14 8 33t7.5 39t6 39.5t2.5 33.5q0 29 -5 47.5t-16.5 29.5t-30.5 15t-48 4q-12 0 -27.5 -2t-31.5 -5.5t-31 -8t-27 -8.5l19 78q171 73 268 73q90 0 138.5 -38.5t62.5 -129.5h6
q44 37 89.5 70t94.5 57.5t102 39t113 14.5q47 0 87.5 -13.5t70 -40t46.5 -64.5t17 -87q0 -73 -22 -154l-80 -301q-25 -84 -25 -143q0 -27 5 -45.5t18 -30.5t34 -17t54 -5q25 0 59 7.5t56 16.5l-19 -78q-81 -32 -146 -52.5t-122 -20.5z" />
    <glyph glyph-name="Eng" unicode="&#x14a;" horiz-adv-x="1634" 
d="M528 1155l-170 -741q-13 -61 -19.5 -107.5t-6.5 -79.5q0 -47 17 -75.5t44.5 -45t63.5 -24t73 -12.5l-16 -70h-596l16 70q18 2 43.5 6t52 10.5t50.5 14.5t39 18q20 13 37 35t32.5 56t30 81.5t29.5 111.5l155 678q13 46 13 90q0 144 -203 179l18 69h465l549 -1013l137 602
q27 108 27 184q0 47 -17 75.5t-45 45t-63.5 24.5t-73.5 13l17 69h594l-17 -69l-35 -5q-35 -5 -66.5 -12.5t-58.5 -21t-49.5 -35.5t-39.5 -56q-16 -32 -31 -82t-31 -118l-203 -883q-66 -294 -198 -437.5t-347 -143.5q-36 0 -73.5 9t-67.5 28.5t-49.5 49.5t-19.5 72
q0 28 10 53.5t27.5 44t42 29.5t53.5 11q49 0 84 -28t63 -88l33 -67q67 5 115.5 39t83.5 84t58.5 109t41.5 114z" />
    <glyph glyph-name="eng" unicode="&#x14b;" horiz-adv-x="1286" 
d="M946 1012q114 0 171 -58.5t57 -156.5q0 -23 -5.5 -65t-16.5 -104q-21 -121 -48 -235l-72 -307q-28 -99 -80 -194t-125 -170t-166.5 -120.5t-205.5 -45.5q-96 0 -147.5 38.5t-51.5 104.5q0 60 35 92.5t92 32.5q43 0 72 -15t49 -40.5t33 -59t24 -69.5q57 18 97 86t75.5 191
t73 303t88.5 423q12 62 12 102q0 60 -32 92.5t-84 32.5q-63 0 -133.5 -38.5t-131.5 -104.5l-166 -727h-258l144 631q24 120 24 145q0 29 -5 47.5t-16.5 29.5t-30.5 15t-48 4q-12 0 -27.5 -2t-31.5 -5.5t-31 -8t-27 -8.5l19 78q171 73 268 73q92 0 139.5 -37.5t61.5 -130.5h6
q47 37 91.5 70t91.5 57.5t100 39t116 14.5z" />
    <glyph glyph-name="Omacron" unicode="&#x14c;" horiz-adv-x="1587" 
d="M626 1659l31 145h717l-31 -145h-717zM1569 872q0 -123 -31 -238.5t-87.5 -216.5t-136 -184.5t-177.5 -143.5t-211.5 -93t-237.5 -33q-132 0 -241.5 42t-188 118t-122.5 183t-44 237q0 121 30 236.5t86.5 217.5t138.5 187.5t187 147.5q206 122 437 122q130 2 240.5 -40
t190.5 -119.5t124.5 -185t42.5 -237.5zM1255 952q0 202 -79.5 308t-225.5 106q-93 0 -168 -40t-132.5 -104t-99.5 -143.5t-69 -157.5q-75 -217 -75 -452q0 -203 79.5 -310.5t227.5 -107.5q93 0 168 40.5t132.5 104.5t99 144t68.5 158q74 217 74 454z" />
    <glyph glyph-name="omacron" unicode="&#x14d;" horiz-adv-x="1200" 
d="M364 1272l31 145h717l-31 -145h-717zM1133 606q0 -139 -49 -256t-135.5 -202t-203.5 -133t-253 -48q-95 0 -173 28t-134 80.5t-86.5 129t-30.5 172.5q0 138 48 254.5t132.5 201.5t200.5 133t251 48q96 0 175.5 -26.5t136.5 -78.5t89 -128t32 -175zM856 682
q0 129 -45.5 192.5t-130.5 63.5q-62 0 -109.5 -28.5t-82.5 -73t-59 -99t-40 -105.5q-45 -153 -45 -329q0 -260 178 -260q62 0 109 29.5t82 75.5t58.5 100.5t38.5 105.5q46 153 46 328z" />
    <glyph glyph-name="Obreve" unicode="&#x14e;" horiz-adv-x="1587" 
d="M1357 1851q-112 -321 -395 -321q-131 0 -198.5 74.5t-67.5 212.5v34l65 17q12 -92 66.5 -135t165.5 -43q51 0 94 9.5t80 30.5t69 55t60 83zM1569 872q0 -123 -31 -238.5t-87.5 -216.5t-136 -184.5t-177.5 -143.5t-211.5 -93t-237.5 -33q-132 0 -241.5 42t-188 118
t-122.5 183t-44 237q0 121 30 236.5t86.5 217.5t138.5 187.5t187 147.5q206 122 437 122q130 2 240.5 -40t190.5 -119.5t124.5 -185t42.5 -237.5zM1255 952q0 202 -79.5 308t-225.5 106q-93 0 -168 -40t-132.5 -104t-99.5 -143.5t-69 -157.5q-75 -217 -75 -452
q0 -203 79.5 -310.5t227.5 -107.5q93 0 168 40.5t132.5 104.5t99 144t68.5 158q74 217 74 454z" />
    <glyph glyph-name="obreve" unicode="&#x14f;" horiz-adv-x="1200" 
d="M1079 1513q-122 -383 -389 -383q-256 0 -256 338l2 45l63 15q7 -52 18.5 -95.5t35 -75t63 -48.5t100.5 -17q63 0 108.5 18t80 49.5t60.5 74.5t50 94zM1133 606q0 -139 -49 -256t-135.5 -202t-203.5 -133t-253 -48q-95 0 -173 28t-134 80.5t-86.5 129t-30.5 172.5
q0 138 48 254.5t132.5 201.5t200.5 133t251 48q96 0 175.5 -26.5t136.5 -78.5t89 -128t32 -175zM856 682q0 129 -45.5 192.5t-130.5 63.5q-62 0 -109.5 -28.5t-82.5 -73t-59 -99t-40 -105.5q-45 -153 -45 -329q0 -260 178 -260q62 0 109 29.5t82 75.5t58.5 100.5t38.5 105.5
q46 153 46 328z" />
    <glyph glyph-name="Ohungarumlaut" unicode="&#x150;" horiz-adv-x="1587" 
d="M1097 1534l86 80q16 14 48 47t83 85q116 120 183 120q51 0 79.5 -22.5t28.5 -59.5q0 -48 -32 -78q-33 -30 -154 -76q-94 -36 -297 -135zM1171 1782q0 -73 -102 -117q-69 -29 -123.5 -52.5t-97.5 -42.5q-42 -18 -82 -36.5t-78 -38.5l-27 39l252 244q11 14 29.5 29.5
t39.5 28.5t43 21.5t40 8.5q52 0 79 -23t27 -61zM1569 872q0 -123 -31 -238.5t-87.5 -216.5t-136 -184.5t-177.5 -143.5t-211.5 -93t-237.5 -33q-132 0 -241.5 42t-188 118t-122.5 183t-44 237q0 121 30 236.5t86.5 217.5t138.5 187.5t187 147.5q206 122 437 122
q130 2 240.5 -40t190.5 -119.5t124.5 -185t42.5 -237.5zM1255 952q0 202 -79.5 308t-225.5 106q-93 0 -168 -40t-132.5 -104t-99.5 -143.5t-69 -157.5q-75 -217 -75 -452q0 -203 79.5 -310.5t227.5 -107.5q93 0 168 40.5t132.5 104.5t99 144t68.5 158q74 217 74 454z" />
    <glyph glyph-name="ohungarumlaut" unicode="&#x151;" horiz-adv-x="1200" 
d="M1237 1470q0 -44 -40 -83q-42 -39 -183 -134q-49 -32 -101.5 -70t-109.5 -81l-31 31q90 113 189 255q64 93 102 124q38 30 92 30q33 0 57.5 -21t24.5 -51zM848 1470q0 -43 -35 -78q-17 -17 -62 -52t-119 -87q-46 -32 -97 -69.5t-109 -81.5l-35 31q55 69 101.5 132
t85.5 122q54 81 76 105q25 27 51 38.5t63 11.5q34 0 57 -21.5t23 -50.5zM1133 606q0 -139 -49 -256t-135.5 -202t-203.5 -133t-253 -48q-95 0 -173 28t-134 80.5t-86.5 129t-30.5 172.5q0 138 48 254.5t132.5 201.5t200.5 133t251 48q96 0 175.5 -26.5t136.5 -78.5t89 -128
t32 -175zM856 682q0 129 -45.5 192.5t-130.5 63.5q-62 0 -109.5 -28.5t-82.5 -73t-59 -99t-40 -105.5q-45 -153 -45 -329q0 -260 178 -260q62 0 109 29.5t82 75.5t58.5 100.5t38.5 105.5q46 153 46 328z" />
    <glyph glyph-name="OE" unicode="&#x152;" horiz-adv-x="2152" 
d="M1358 694l-98 -424q-13 -53 -13 -100q0 -52 36 -70q38 -18 161 -18q72 0 124 3t87 10q72 14 102 38q30 25 64 62t67.5 78t63.5 82.5t51 74.5h72l-127 -430h-1225q-81 0 -159.5 14.5t-149 43.5t-129.5 73t-102 103.5t-67 134.5t-24 166q0 132 33.5 247t94 210.5t145 171
t186 129.5t217.5 85t240 37l129 4h1063l-82 -352h-74q-3 33 -14.5 76t-32 82.5t-49.5 68.5t-68 35q-56 10 -170 10h-203l-129 -563h138q85 0 139 26q27 14 50.5 36.5t44 51t37.5 61t30 65.5h75l-133 -574h-73q0 132 -16 171q-16 42 -57 61.5t-116 19.5h-139zM1221 1331
q-90 6 -168 6q-99 0 -185.5 -31.5t-158 -87t-126.5 -130.5t-93 -163q-82 -192 -82 -415q0 -93 24 -171.5t72.5 -135.5t121.5 -89t171 -32q54 0 87.5 0.5t49.5 1.5z" />
    <glyph glyph-name="oe" unicode="&#x153;" horiz-adv-x="1800" 
d="M1757 793q0 -160 -160 -251q-157 -90 -507 -134q5 -308 225 -308q51 0 96.5 11t86.5 34t80.5 60.5t78.5 89.5l65 -51q-41 -61 -94.5 -111.5t-116 -87t-132.5 -56.5t-144 -20q-221 0 -336 148q-183 -150 -407 -150q-95 0 -173 28t-134 80.5t-86.5 129t-30.5 172.5
q0 138 48 254.5t132.5 201.5t200.5 133t251 48q221 0 342 -154q181 152 390 152q158 0 241.5 -55t83.5 -164zM856 682q0 129 -45.5 192.5t-130.5 63.5q-62 0 -109.5 -28.5t-82.5 -73t-59 -99t-40 -105.5q-45 -153 -45 -329q0 -260 178 -260q62 0 109 29.5t82 75.5
t58.5 100.5t38.5 105.5q46 153 46 328zM1501 793q0 67 -29.5 105t-87.5 38q-42 0 -78.5 -22t-66 -55t-52 -72t-36.5 -73q-43 -105 -57 -231q85 13 143 26t90 26q174 68 174 258z" />
    <glyph glyph-name="Racute" unicode="&#x154;" horiz-adv-x="1534" 
d="M1251 1782q0 -45 -27 -72t-73 -47l-156 -65l-239 -103l-31 41l160 147l116 117q63 68 135 68q51 0 83 -24.5t32 -61.5zM485 164q0 -39 40 -62.5t141 -31.5l-17 -70h-690l16 70q97 0 154.5 27t73.5 93l233 1016q6 33 6 43q0 37 -46.5 64t-125.5 37l17 69h710
q214 0 326.5 -69.5t112.5 -204.5q0 -168 -117.5 -283.5t-335.5 -167.5l246 -448q24 -45 47 -77t51 -53t65 -32t89 -14l-17 -70h-438q-70 167 -151.5 326.5t-172.5 316.5h-110l-98 -420q-9 -31 -9 -59zM1114 1122q0 108 -64.5 161.5t-185.5 53.5h-114l-138 -610h119
q86 0 157 30t121 83t77.5 125t27.5 157z" />
    <glyph glyph-name="racute" unicode="&#x155;" horiz-adv-x="1018" 
d="M940 1462q0 -39 -15 -61.5t-44 -45.5q-33 -25 -155 -102q-111 -69 -225 -147l-39 35q29 38 62.5 83.5t70.5 98.5l87 123q16 24 31.5 42t33.5 30t40 18t52 6q21 0 39.5 -6.5t32 -17.5t21.5 -25.5t8 -30.5zM1030 825q0 -38 -10.5 -74t-31.5 -63.5t-52.5 -44t-73.5 -16.5
q-60 0 -97.5 28.5t-37.5 73.5q0 37 14.5 73.5t34.5 84.5q-135 -34 -252 -174l-162 -713h-258l142 631q9 35 16.5 75t7.5 76q0 45 -20 67.5t-80 22.5q-12 0 -27.5 -2t-31.5 -5.5t-31 -8t-27 -8.5l19 78q171 73 268 73q92 0 139.5 -39.5t61.5 -134.5h6q99 93 146 126
q45 32 83.5 46.5t83.5 14.5q78 0 124 -45t46 -142z" />
    <glyph glyph-name="uni0156" unicode="&#x156;" horiz-adv-x="1534" 
d="M485 164q0 -39 40 -62.5t141 -31.5l-17 -70h-690l16 70q97 0 154.5 27t73.5 93l233 1016q6 33 6 43q0 37 -46.5 64t-125.5 37l17 69h710q214 0 326.5 -69.5t112.5 -204.5q0 -168 -117.5 -283.5t-335.5 -167.5l246 -448q24 -45 47 -77t51 -53t65 -32t89 -14l-17 -70h-438
q-70 167 -151.5 326.5t-172.5 316.5h-110l-98 -420q-9 -31 -9 -59zM1114 1122q0 108 -64.5 161.5t-185.5 53.5h-114l-138 -610h119q86 0 157 30t121 83t77.5 125t27.5 157zM735 -260q-69 0 -95.5 21t-26.5 59q0 51 39.5 82.5t103.5 31.5q66 0 102.5 -38t36.5 -101
q0 -56 -21.5 -100t-63 -75t-100.5 -47.5t-134 -16.5l8 61q93 6 141.5 32.5t65.5 90.5h-56z" />
    <glyph glyph-name="uni0157" unicode="&#x157;" horiz-adv-x="1018" 
d="M1030 825q0 -38 -10.5 -74t-31.5 -63.5t-52.5 -44t-73.5 -16.5q-60 0 -97.5 28.5t-37.5 73.5q0 37 14.5 73.5t34.5 84.5q-135 -34 -252 -174l-162 -713h-258l142 631q9 35 16.5 75t7.5 76q0 45 -20 67.5t-80 22.5q-12 0 -27.5 -2t-31.5 -5.5t-31 -8t-27 -8.5l19 78
q171 73 268 73q92 0 139.5 -39.5t61.5 -134.5h6q99 93 146 126q45 32 83.5 46.5t83.5 14.5q78 0 124 -45t46 -142zM200 -260q-69 0 -95.5 21t-26.5 59q0 51 39.5 82.5t103.5 31.5q66 0 102.5 -38t36.5 -101q0 -56 -21.5 -100t-63 -75t-100.5 -47.5t-134 -16.5l8 61
q93 6 141.5 32.5t65.5 90.5h-56z" />
    <glyph glyph-name="Rcaron" unicode="&#x158;" horiz-adv-x="1534" 
d="M1276 1837l-291 -287q-36 -36 -59 -45q-24 -8 -66 -8q-41 0 -62.5 10.5t-39.5 38.5l-187 291l41 31l272 -205l353 205zM485 164q0 -39 40 -62.5t141 -31.5l-17 -70h-690l16 70q97 0 154.5 27t73.5 93l233 1016q6 33 6 43q0 37 -46.5 64t-125.5 37l17 69h710
q214 0 326.5 -69.5t112.5 -204.5q0 -168 -117.5 -283.5t-335.5 -167.5l246 -448q24 -45 47 -77t51 -53t65 -32t89 -14l-17 -70h-438q-70 167 -151.5 326.5t-172.5 316.5h-110l-98 -420q-9 -31 -9 -59zM1114 1122q0 108 -64.5 161.5t-185.5 53.5h-114l-138 -610h119
q86 0 157 30t121 83t77.5 125t27.5 157z" />
    <glyph glyph-name="rcaron" unicode="&#x159;" horiz-adv-x="1018" 
d="M965 1516q-102 -128 -175.5 -215t-119.5 -138q-26 -30 -53.5 -40.5t-69.5 -10.5q-64 0 -87 26q-21 24 -139 272l-51 106l52 30l250 -264l344 264zM1030 825q0 -38 -10.5 -74t-31.5 -63.5t-52.5 -44t-73.5 -16.5q-60 0 -97.5 28.5t-37.5 73.5q0 37 14.5 73.5t34.5 84.5
q-135 -34 -252 -174l-162 -713h-258l142 631q9 35 16.5 75t7.5 76q0 45 -20 67.5t-80 22.5q-12 0 -27.5 -2t-31.5 -5.5t-31 -8t-27 -8.5l19 78q171 73 268 73q92 0 139.5 -39.5t61.5 -134.5h6q99 93 146 126q45 32 83.5 46.5t83.5 14.5q78 0 124 -45t46 -142z" />
    <glyph glyph-name="Sacute" unicode="&#x15a;" horiz-adv-x="1243" 
d="M1171 1782q0 -45 -27 -72t-73 -47l-156 -65l-239 -103l-31 41l160 147l116 117q63 68 135 68q51 0 83 -24.5t32 -61.5zM535 -33q-58 0 -115 7t-109 20.5t-98 32.5t-84 43l-72 -70h-82l101 498h84q9 -87 35 -166.5t73 -140.5t117.5 -97.5t167.5 -36.5q66 0 125 18
t103.5 54t70 90t25.5 125q0 156 -181 223l-138 52q-82 29 -138 56.5t-87 52.5q-60 51 -92 119t-32 144q0 194 163 327q164 134 400 134q211 0 365 -96l63 63h84l-102 -477h-82q-8 78 -25 153.5t-54 135t-98 95.5t-157 36q-56 0 -107 -18t-90 -51t-62.5 -80.5t-23.5 -106.5
q0 -87 50.5 -141.5t158.5 -94.5l112 -41q66 -24 129 -54t113 -72.5t80.5 -100t30.5 -137.5q0 -213 -177 -356q-175 -142 -445 -142z" />
    <glyph glyph-name="sacute" unicode="&#x15b;" horiz-adv-x="971" 
d="M914 1462q0 -39 -15 -61.5t-44 -45.5q-33 -25 -155 -102q-111 -69 -225 -147l-39 35q29 38 62.5 83.5t70.5 98.5l87 123q16 24 31.5 42t33.5 30t40 18t52 6q21 0 39.5 -6.5t32 -17.5t21.5 -25.5t8 -30.5zM391 770q0 -42 14 -68t49 -49q17 -11 52.5 -26t89.5 -35
q50 -19 98 -42.5t85.5 -56.5t60 -77.5t22.5 -104.5q0 -156 -128 -249q-127 -93 -337 -93q-172 0 -279 54q-106 55 -106 145q0 28 10 51t28 40t42 26.5t51 9.5q60 0 103 -42.5t66 -117.5l22 -72q44 -14 84 -14q93 0 145.5 47.5t52.5 134.5q0 48 -37 84t-112 66
q-164 67 -217 105q-52 39 -78.5 88.5t-26.5 115.5q-1 66 32.5 125.5t94 103.5t143 69.5t179.5 23.5q161 0 248.5 -45.5t87.5 -130.5q0 -27 -9.5 -49.5t-26.5 -39t-40 -25.5t-49 -9q-58 0 -99 40t-63 113l-22 68q-11 1 -18.5 1.5t-10.5 0.5q-38 0 -74 -10t-64.5 -31
t-45.5 -52t-17 -73z" />
    <glyph glyph-name="Scircumflex" unicode="&#x15c;" horiz-adv-x="1243" 
d="M1134 1526l-43 -31l-272 207l-352 -207l-39 31l309 305q43 37 107 37q33 0 57.5 -10t44.5 -39zM535 -33q-58 0 -115 7t-109 20.5t-98 32.5t-84 43l-72 -70h-82l101 498h84q9 -87 35 -166.5t73 -140.5t117.5 -97.5t167.5 -36.5q66 0 125 18t103.5 54t70 90t25.5 125
q0 156 -181 223l-138 52q-82 29 -138 56.5t-87 52.5q-60 51 -92 119t-32 144q0 194 163 327q164 134 400 134q211 0 365 -96l63 63h84l-102 -477h-82q-8 78 -25 153.5t-54 135t-98 95.5t-157 36q-56 0 -107 -18t-90 -51t-62.5 -80.5t-23.5 -106.5q0 -87 50.5 -141.5
t158.5 -94.5l112 -41q66 -24 129 -54t113 -72.5t80.5 -100t30.5 -137.5q0 -213 -177 -356q-175 -142 -445 -142z" />
    <glyph glyph-name="scircumflex" unicode="&#x15d;" horiz-adv-x="971" 
d="M880 1110l-252 264l-344 -264l-47 31q17 22 48.5 61t79.5 96t90 105l77 88q12 15 24.5 25.5t27 16.5t32 8.5t39.5 2.5q39 0 60 -8.5t40 -40.5q7 -10 19.5 -33.5t28.5 -55t33.5 -68t35 -72.5t33 -69t26.5 -56zM391 770q0 -42 14 -68t49 -49q17 -11 52.5 -26t89.5 -35
q50 -19 98 -42.5t85.5 -56.5t60 -77.5t22.5 -104.5q0 -156 -128 -249q-127 -93 -337 -93q-172 0 -279 54q-106 55 -106 145q0 28 10 51t28 40t42 26.5t51 9.5q60 0 103 -42.5t66 -117.5l22 -72q44 -14 84 -14q93 0 145.5 47.5t52.5 134.5q0 48 -37 84t-112 66
q-164 67 -217 105q-52 39 -78.5 88.5t-26.5 115.5q-1 66 32.5 125.5t94 103.5t143 69.5t179.5 23.5q161 0 248.5 -45.5t87.5 -130.5q0 -27 -9.5 -49.5t-26.5 -39t-40 -25.5t-49 -9q-58 0 -99 40t-63 113l-22 68q-11 1 -18.5 1.5t-10.5 0.5q-38 0 -74 -10t-64.5 -31
t-45.5 -52t-17 -73z" />
    <glyph glyph-name="Scedilla" unicode="&#x15e;" horiz-adv-x="1243" 
d="M768 -225q0 -111 -107 -165q-106 -54 -358 -54l17 73q132 0 175 9q45 9 70 29t25 57q0 31 -32 46t-107 15l39 183q-106 5 -199.5 31.5t-161.5 70.5l-72 -70h-82l101 498h84q9 -87 35 -166.5t73 -140.5t117.5 -97.5t167.5 -36.5q66 0 125 18t103.5 54t70 90t25.5 125
q0 156 -181 223l-138 52q-82 29 -138 56.5t-87 52.5q-60 51 -92 119t-32 144q0 194 163 327q164 134 400 134q211 0 365 -96l63 63h84l-102 -477h-82q-8 78 -25 153.5t-54 135t-98 95.5t-157 36q-56 0 -107 -18t-90 -51t-62.5 -80.5t-23.5 -106.5q0 -87 50.5 -141.5
t158.5 -94.5l112 -41q66 -24 129 -54t113 -72.5t80.5 -100t30.5 -137.5q0 -213 -177 -356q-163 -132 -409 -141l-14 -66q102 0 156.5 -33.5t54.5 -93.5z" />
    <glyph glyph-name="scedilla" unicode="&#x15f;" horiz-adv-x="971" 
d="M391 770q0 -42 14 -68t49 -49q17 -11 52.5 -26t89.5 -35q50 -19 98 -42.5t85.5 -56.5t60 -77.5t22.5 -104.5q0 -85 -36 -147t-94 -103.5t-131 -63.5t-148 -26l-15 -69q102 0 156.5 -33.5t54.5 -93.5q0 -111 -107 -165q-106 -54 -358 -54l17 73q132 0 175 9q45 9 70 29
t25 57q0 31 -32 46t-107 15l39 184q-29 1 -67.5 5t-78 12.5t-78 23.5t-68.5 36.5t-48.5 51.5t-18.5 70q0 28 10 51t28 40t42 26.5t51 9.5q60 0 103 -42.5t66 -117.5l22 -72q44 -14 84 -14q93 0 145.5 47.5t52.5 134.5q0 48 -37 84t-112 66q-164 67 -217 105
q-52 39 -78.5 88.5t-26.5 115.5q-1 66 32.5 125.5t94 103.5t143 69.5t179.5 23.5q161 0 248.5 -45.5t87.5 -130.5q0 -27 -9.5 -49.5t-26.5 -39t-40 -25.5t-49 -9q-58 0 -99 40t-63 113l-22 68q-11 1 -18.5 1.5t-10.5 0.5q-38 0 -74 -10t-64.5 -31t-45.5 -52t-17 -73z" />
    <glyph glyph-name="Scaron" unicode="&#x160;" horiz-adv-x="1243" 
d="M1200 1837l-291 -287q-36 -36 -59 -45q-24 -8 -66 -8q-41 0 -62.5 10.5t-39.5 38.5l-187 291l41 31l272 -205l353 205zM535 -33q-58 0 -115 7t-109 20.5t-98 32.5t-84 43l-72 -70h-82l101 498h84q9 -87 35 -166.5t73 -140.5t117.5 -97.5t167.5 -36.5q66 0 125 18
t103.5 54t70 90t25.5 125q0 156 -181 223l-138 52q-82 29 -138 56.5t-87 52.5q-60 51 -92 119t-32 144q0 194 163 327q164 134 400 134q211 0 365 -96l63 63h84l-102 -477h-82q-8 78 -25 153.5t-54 135t-98 95.5t-157 36q-56 0 -107 -18t-90 -51t-62.5 -80.5t-23.5 -106.5
q0 -87 50.5 -141.5t158.5 -94.5l112 -41q66 -24 129 -54t113 -72.5t80.5 -100t30.5 -137.5q0 -213 -177 -356q-175 -142 -445 -142z" />
    <glyph glyph-name="scaron" unicode="&#x161;" horiz-adv-x="971" 
d="M998 1516q-102 -128 -175.5 -215t-119.5 -138q-26 -30 -53.5 -40.5t-69.5 -10.5q-64 0 -87 26q-21 24 -139 272l-51 106l52 30l250 -264l344 264zM391 770q0 -42 14 -68t49 -49q17 -11 52.5 -26t89.5 -35q50 -19 98 -42.5t85.5 -56.5t60 -77.5t22.5 -104.5
q0 -156 -128 -249q-127 -93 -337 -93q-172 0 -279 54q-106 55 -106 145q0 28 10 51t28 40t42 26.5t51 9.5q60 0 103 -42.5t66 -117.5l22 -72q44 -14 84 -14q93 0 145.5 47.5t52.5 134.5q0 48 -37 84t-112 66q-164 67 -217 105q-52 39 -78.5 88.5t-26.5 115.5
q-1 66 32.5 125.5t94 103.5t143 69.5t179.5 23.5q161 0 248.5 -45.5t87.5 -130.5q0 -27 -9.5 -49.5t-26.5 -39t-40 -25.5t-49 -9q-58 0 -99 40t-63 113l-22 68q-11 1 -18.5 1.5t-10.5 0.5q-38 0 -74 -10t-64.5 -31t-45.5 -52t-17 -73z" />
    <glyph glyph-name="uni0162" unicode="&#x162;" horiz-adv-x="1333" 
d="M729 170q0 -48 50.5 -72.5t144.5 -27.5l-17 -70h-333l-21 -98q102 0 156.5 -33.5t54.5 -93.5q0 -111 -107 -165q-106 -54 -358 -54l17 73q132 0 175 9q45 9 70 29t25 57q0 31 -32 46t-107 15l46 215h-317l19 70q51 3 87.5 7.5t58.5 11.5q45 13 70.5 39t34.5 69l265 1142
h-47q-45 0 -86.5 -2t-79.5 -6q-23 -3 -51 -21t-57 -44.5t-58 -59.5t-54.5 -66.5t-46 -63.5t-32.5 -52h-74l92 395h1305l-90 -395h-74q-6 111 -49 204q-42 96 -99 103q-28 4 -67.5 6t-91.5 2h-56l-260 -1124q-6 -24 -6 -45z" />
    <glyph glyph-name="uni0163" unicode="&#x163;" horiz-adv-x="782" 
d="M401 201q0 -51 27.5 -74t87.5 -23q16 0 38.5 2.5t46 6t45.5 9t36 11.5l-18 -82q-81 -34 -160.5 -54t-167.5 -20l-17 -75q102 0 156.5 -33.5t54.5 -93.5q0 -111 -107 -165q-106 -54 -358 -54l17 73q132 0 175 9q45 9 70 29t25 57q0 31 -32 46t-107 15l44 205
q-61 19 -93.5 61t-32.5 103q0 16 1.5 33t3.5 36q2 20 14 73.5t32 141.5t46.5 197.5t58.5 241.5h-181l23 96h184l72 299h252l-70 -299h275l-21 -96h-274q-146 -590 -146 -676z" />
    <glyph glyph-name="Tcaron" unicode="&#x164;" horiz-adv-x="1333" 
d="M1284 1837l-291 -287q-36 -36 -59 -45q-24 -8 -66 -8q-41 0 -62.5 10.5t-39.5 38.5l-187 291l41 31l272 -205l353 205zM729 170q0 -48 50.5 -72.5t144.5 -27.5l-17 -70h-731l19 70q51 3 87.5 7.5t58.5 11.5q45 13 70.5 39t34.5 69l265 1142h-47q-45 0 -86.5 -2t-79.5 -6
q-23 -3 -51 -21t-57 -44.5t-58 -59.5t-54.5 -66.5t-46 -63.5t-32.5 -52h-74l92 395h1305l-90 -395h-74q-6 111 -49 204q-42 96 -99 103q-28 4 -67.5 6t-91.5 2h-56l-260 -1124q-6 -24 -6 -45z" />
    <glyph glyph-name="tcaron" unicode="&#x165;" horiz-adv-x="782" 
d="M719 1133q97 44 134 69q38 26 62.5 56.5t38.5 72.5h-43q-120 0 -120 92q0 30 12.5 55t33 43t47 28t54.5 10q72 0 106.5 -36t34.5 -96q0 -54 -18.5 -103t-59 -93t-104.5 -84t-154 -78zM401 201q0 -51 27.5 -74t87.5 -23q16 0 38.5 2.5t46 6t45.5 9t36 11.5l-18 -82
q-174 -74 -310 -74q-106 0 -164.5 47.5t-58.5 129.5q0 16 1.5 33t3.5 36q2 20 14 73.5t32 141.5t46.5 197.5t58.5 241.5h-181l23 96h184l72 299h252l-70 -299h275l-21 -96h-274q-146 -590 -146 -676z" />
    <glyph glyph-name="Tbar" unicode="&#x166;" horiz-adv-x="1333" 
d="M711 1339h-47q-45 0 -86.5 -2t-79.5 -6q-23 -3 -51 -21t-57 -44.5t-58 -59.5t-54.5 -66.5t-46 -63.5t-32.5 -52h-74l92 395h1305l-90 -395h-74q-6 111 -49 204q-42 96 -99 103q-28 4 -67.5 6t-91.5 2h-56l-131 -561h307l-20 -94h-309l-107 -469q-6 -24 -6 -45
q0 -48 50.5 -72.5t144.5 -27.5l-17 -70h-731l19 70q51 3 87 7.5t58 11.5q45 13 70.5 39t35.5 69l113 487h-309l22 94h308z" />
    <glyph glyph-name="tbar" unicode="&#x167;" horiz-adv-x="782" 
d="M401 207q0 -57 29 -80t98 -23q15 0 35.5 2.5t42.5 6.5t42 9.5t34 10.5l-18 -82q-174 -74 -310 -74q-109 0 -166 48t-57 129q0 32 4 64.5t12 66.5l46 196h-168l22 86h166l74 310h-181l23 96h184l72 299h252l-70 -299h275l-21 -96h-274l-74 -310h236l-21 -86h-235
q-20 -94 -31.5 -149.5t-14.5 -74.5q-6 -37 -6 -50z" />
    <glyph glyph-name="Utilde" unicode="&#x168;" horiz-adv-x="1626" 
d="M1461 1768q-37 -95 -104 -154q-71 -59 -142 -55q-35 2 -66.5 13.5t-67.5 34.5q-32 22 -54 34.5t-37 13.5q-24 2 -45 -8t-38.5 -26t-32 -35.5t-26.5 -37.5l-65 39q105 218 243 210q32 -2 63.5 -13.5t66.5 -35.5q33 -22 58 -34t40 -13q27 -2 48 6.5t37.5 23.5t29.5 35
t25 41zM414 1247q0 45 -46 67t-124 36l18 69h674l-16 -69q-54 -4 -92.5 -14t-65 -25.5t-41.5 -37t-23 -48.5l-174 -746q-8 -34 -12 -70.5t-4 -74.5q0 -124 72 -187t215 -63q95 0 172.5 31t136 86t99 130t61.5 163l120 520q25 104 25 186q0 129 -201 150l17 69h596l-17 -69
l-35 -5q-105 -17 -148 -43q-42 -26 -73 -100.5t-55 -179.5l-119 -518q-30 -132 -89 -233.5t-143.5 -169.5t-193.5 -103t-241 -35q-56 0 -114 7t-112.5 23.5t-102 43.5t-83 66t-56 91t-20.5 119q0 28 3 59.5t10 67.5t50.5 227t125.5 537q6 26 6 43z" />
    <glyph glyph-name="utilde" unicode="&#x169;" horiz-adv-x="1290" 
d="M1097 1373q-37 -95 -104 -154q-71 -59 -142 -55q-35 2 -66.5 13.5t-67.5 34.5q-32 22 -54 34.5t-37 13.5q-24 2 -45 -8t-38.5 -26t-32 -35.5t-26.5 -37.5l-65 39q105 218 243 210q32 -2 63.5 -13.5t66.5 -35.5q33 -22 58 -34t40 -13q27 -2 48 6.5t37.5 23.5t29.5 35
t25 41zM965 -18q-90 0 -146 45t-65 123h-6q-45 -39 -88.5 -71.5t-90.5 -56t-98.5 -36.5t-112.5 -13q-49 0 -89.5 14.5t-68.5 41t-43.5 64.5t-15.5 85q0 64 23 154l76 299q24 108 24 145q0 54 -21 75t-79 21q-12 0 -27.5 -2t-31.5 -5.5t-31.5 -7.5t-26.5 -9l19 78
q171 73 262 73q99 0 150.5 -46t51.5 -128q0 -70 -18 -133l-80 -319q-22 -82 -22 -133q0 -123 108 -123q54 0 118.5 32.5t131.5 96.5l170 737l246 12l12 -14l-145 -629q-27 -97 -27 -143q0 -57 25.5 -78.5t85.5 -21.5q14 0 30 2t31.5 5.5t29.5 8t23 8.5l-16 -78
q-82 -32 -147.5 -52.5t-120.5 -20.5z" />
    <glyph glyph-name="Umacron" unicode="&#x16a;" horiz-adv-x="1626" 
d="M718 1659l31 145h717l-31 -145h-717zM414 1247q0 45 -46 67t-124 36l18 69h674l-16 -69q-54 -4 -92.5 -14t-65 -25.5t-41.5 -37t-23 -48.5l-174 -746q-8 -34 -12 -70.5t-4 -74.5q0 -124 72 -187t215 -63q95 0 172.5 31t136 86t99 130t61.5 163l120 520q25 104 25 186
q0 129 -201 150l17 69h596l-17 -69l-35 -5q-105 -17 -148 -43q-42 -26 -73 -100.5t-55 -179.5l-119 -518q-30 -132 -89 -233.5t-143.5 -169.5t-193.5 -103t-241 -35q-56 0 -114 7t-112.5 23.5t-102 43.5t-83 66t-56 91t-20.5 119q0 28 3 59.5t10 67.5t50.5 227t125.5 537
q6 26 6 43z" />
    <glyph glyph-name="umacron" unicode="&#x16b;" horiz-adv-x="1290" 
d="M372 1272l31 145h717l-31 -145h-717zM965 -18q-90 0 -146 45t-65 123h-6q-45 -39 -88.5 -71.5t-90.5 -56t-98.5 -36.5t-112.5 -13q-49 0 -89.5 14.5t-68.5 41t-43.5 64.5t-15.5 85q0 64 23 154l76 299q24 108 24 145q0 54 -21 75t-79 21q-12 0 -27.5 -2t-31.5 -5.5
t-31.5 -7.5t-26.5 -9l19 78q171 73 262 73q99 0 150.5 -46t51.5 -128q0 -70 -18 -133l-80 -319q-22 -82 -22 -133q0 -123 108 -123q54 0 118.5 32.5t131.5 96.5l170 737l246 12l12 -14l-145 -629q-27 -97 -27 -143q0 -57 25.5 -78.5t85.5 -21.5q14 0 30 2t31.5 5.5t29.5 8
t23 8.5l-16 -78q-82 -32 -147.5 -52.5t-120.5 -20.5z" />
    <glyph glyph-name="Ubreve" unicode="&#x16c;" horiz-adv-x="1626" 
d="M1427 1851q-112 -321 -395 -321q-131 0 -198.5 74.5t-67.5 212.5v34l65 17q12 -92 66.5 -135t165.5 -43q51 0 94 9.5t80 30.5t69 55t60 83zM414 1247q0 45 -46 67t-124 36l18 69h674l-16 -69q-54 -4 -92.5 -14t-65 -25.5t-41.5 -37t-23 -48.5l-174 -746q-8 -34 -12 -70.5
t-4 -74.5q0 -124 72 -187t215 -63q95 0 172.5 31t136 86t99 130t61.5 163l120 520q25 104 25 186q0 129 -201 150l17 69h596l-17 -69l-35 -5q-105 -17 -148 -43q-42 -26 -73 -100.5t-55 -179.5l-119 -518q-30 -132 -89 -233.5t-143.5 -169.5t-193.5 -103t-241 -35
q-56 0 -114 7t-112.5 23.5t-102 43.5t-83 66t-56 91t-20.5 119q0 28 3 59.5t10 67.5t50.5 227t125.5 537q6 26 6 43z" />
    <glyph glyph-name="ubreve" unicode="&#x16d;" horiz-adv-x="1290" 
d="M1085 1513q-122 -383 -389 -383q-256 0 -256 338l2 45l63 15q7 -52 18.5 -95.5t35 -75t63 -48.5t100.5 -17q63 0 108.5 18t80 49.5t60.5 74.5t50 94zM965 -18q-90 0 -146 45t-65 123h-6q-45 -39 -88.5 -71.5t-90.5 -56t-98.5 -36.5t-112.5 -13q-49 0 -89.5 14.5t-68.5 41
t-43.5 64.5t-15.5 85q0 64 23 154l76 299q24 108 24 145q0 54 -21 75t-79 21q-12 0 -27.5 -2t-31.5 -5.5t-31.5 -7.5t-26.5 -9l19 78q171 73 262 73q99 0 150.5 -46t51.5 -128q0 -70 -18 -133l-80 -319q-22 -82 -22 -133q0 -123 108 -123q54 0 118.5 32.5t131.5 96.5
l170 737l246 12l12 -14l-145 -629q-27 -97 -27 -143q0 -57 25.5 -78.5t85.5 -21.5q14 0 30 2t31.5 5.5t29.5 8t23 8.5l-16 -78q-82 -32 -147.5 -52.5t-120.5 -20.5z" />
    <glyph glyph-name="Uring" unicode="&#x16e;" horiz-adv-x="1626" 
d="M1384 1677q0 -113 -89 -190q-88 -76 -224 -76q-111 0 -173.5 50.5t-62.5 137.5q0 65 27 114.5t71 83.5t100.5 51.5t115.5 17.5q44 0 86 -11t75 -34t53.5 -58.5t20.5 -85.5zM1245 1677q0 54 -27.5 88.5t-81.5 34.5q-40 0 -70.5 -18t-51 -46.5t-30.5 -64.5t-10 -72
q0 -54 27 -88t84 -34q41 0 71 17.5t50 46t29.5 64.5t9.5 72zM414 1247q0 45 -46 67t-124 36l18 69h674l-16 -69q-54 -4 -92.5 -14t-65 -25.5t-41.5 -37t-23 -48.5l-174 -746q-8 -34 -12 -70.5t-4 -74.5q0 -124 72 -187t215 -63q95 0 172.5 31t136 86t99 130t61.5 163
l120 520q25 104 25 186q0 129 -201 150l17 69h596l-17 -69l-35 -5q-105 -17 -148 -43q-42 -26 -73 -100.5t-55 -179.5l-119 -518q-30 -132 -89 -233.5t-143.5 -169.5t-193.5 -103t-241 -35q-56 0 -114 7t-112.5 23.5t-102 43.5t-83 66t-56 91t-20.5 119q0 28 3 59.5t10 67.5
t50.5 227t125.5 537q6 26 6 43z" />
    <glyph glyph-name="uring" unicode="&#x16f;" horiz-adv-x="1290" 
d="M1014 1374q0 -113 -89 -190q-88 -76 -224 -76q-111 0 -173.5 50.5t-62.5 137.5q0 65 27 114.5t71 83.5t100.5 51.5t115.5 17.5q44 0 86 -11t75 -34t53.5 -58.5t20.5 -85.5zM875 1374q0 54 -27.5 88.5t-81.5 34.5q-40 0 -70.5 -18t-51 -46.5t-30.5 -64.5t-10 -72
q0 -54 27 -88t84 -34q41 0 71 17.5t50 46t29.5 64.5t9.5 72zM965 -18q-90 0 -146 45t-65 123h-6q-45 -39 -88.5 -71.5t-90.5 -56t-98.5 -36.5t-112.5 -13q-49 0 -89.5 14.5t-68.5 41t-43.5 64.5t-15.5 85q0 64 23 154l76 299q24 108 24 145q0 54 -21 75t-79 21
q-12 0 -27.5 -2t-31.5 -5.5t-31.5 -7.5t-26.5 -9l19 78q171 73 262 73q99 0 150.5 -46t51.5 -128q0 -70 -18 -133l-80 -319q-22 -82 -22 -133q0 -123 108 -123q54 0 118.5 32.5t131.5 96.5l170 737l246 12l12 -14l-145 -629q-27 -97 -27 -143q0 -57 25.5 -78.5t85.5 -21.5
q14 0 30 2t31.5 5.5t29.5 8t23 8.5l-16 -78q-82 -32 -147.5 -52.5t-120.5 -20.5z" />
    <glyph glyph-name="Uhungarumlaut" unicode="&#x170;" horiz-adv-x="1626" 
d="M1157 1534l86 80q16 14 48 47t83 85q116 120 183 120q51 0 79.5 -22.5t28.5 -59.5q0 -48 -32 -78q-33 -30 -154 -76q-94 -36 -297 -135zM1231 1782q0 -73 -102 -117q-69 -29 -123.5 -52.5t-97.5 -42.5q-42 -18 -82 -36.5t-78 -38.5l-27 39l252 244q11 14 29.5 29.5
t39.5 28.5t43 21.5t40 8.5q52 0 79 -23t27 -61zM414 1247q0 45 -46 67t-124 36l18 69h674l-16 -69q-54 -4 -92.5 -14t-65 -25.5t-41.5 -37t-23 -48.5l-174 -746q-8 -34 -12 -70.5t-4 -74.5q0 -124 72 -187t215 -63q95 0 172.5 31t136 86t99 130t61.5 163l120 520
q25 104 25 186q0 129 -201 150l17 69h596l-17 -69l-35 -5q-105 -17 -148 -43q-42 -26 -73 -100.5t-55 -179.5l-119 -518q-30 -132 -89 -233.5t-143.5 -169.5t-193.5 -103t-241 -35q-56 0 -114 7t-112.5 23.5t-102 43.5t-83 66t-56 91t-20.5 119q0 28 3 59.5t10 67.5
t50.5 227t125.5 537q6 26 6 43z" />
    <glyph glyph-name="uhungarumlaut" unicode="&#x171;" horiz-adv-x="1290" 
d="M1259 1470q0 -44 -40 -83q-42 -39 -183 -134q-49 -32 -101.5 -70t-109.5 -81l-31 31q90 113 189 255q64 93 102 124q38 30 92 30q33 0 57.5 -21t24.5 -51zM870 1470q0 -43 -35 -78q-17 -17 -62 -52t-119 -87q-46 -32 -97 -69.5t-109 -81.5l-35 31q55 69 101.5 132
t85.5 122q54 81 76 105q25 27 51 38.5t63 11.5q34 0 57 -21.5t23 -50.5zM965 -18q-90 0 -146 45t-65 123h-6q-45 -39 -88.5 -71.5t-90.5 -56t-98.5 -36.5t-112.5 -13q-49 0 -89.5 14.5t-68.5 41t-43.5 64.5t-15.5 85q0 64 23 154l76 299q24 108 24 145q0 54 -21 75t-79 21
q-12 0 -27.5 -2t-31.5 -5.5t-31.5 -7.5t-26.5 -9l19 78q171 73 262 73q99 0 150.5 -46t51.5 -128q0 -70 -18 -133l-80 -319q-22 -82 -22 -133q0 -123 108 -123q54 0 118.5 32.5t131.5 96.5l170 737l246 12l12 -14l-145 -629q-27 -97 -27 -143q0 -57 25.5 -78.5t85.5 -21.5
q14 0 30 2t31.5 5.5t29.5 8t23 8.5l-16 -78q-82 -32 -147.5 -52.5t-120.5 -20.5z" />
    <glyph glyph-name="Uogonek" unicode="&#x172;" horiz-adv-x="1626" 
d="M414 1247q0 45 -46 67t-124 36l18 69h674l-16 -69q-54 -4 -92.5 -14t-65 -25.5t-41.5 -37t-23 -48.5l-174 -746q-8 -34 -12 -70.5t-4 -74.5q0 -124 72 -187t215 -63q95 0 172.5 31t136 86t99 130t61.5 163l120 520q25 104 25 186q0 129 -201 150l17 69h596l-17 -69
l-35 -5q-105 -17 -148 -43q-42 -26 -73 -100.5t-55 -179.5l-119 -518q-40 -173 -126 -291.5t-217 -181.5q-177 -146 -177 -285q0 -54 43 -82t148 -33l-15 -75q-199 0 -283 38q-83 38 -83 121q0 137 189 260q-69 -12 -146 -12q-56 0 -114 7t-112.5 23.5t-102 43.5t-83 66
t-56 91t-20.5 119q0 28 3 59.5t10 67.5t50.5 227t125.5 537q6 26 6 43z" />
    <glyph glyph-name="uogonek" unicode="&#x173;" horiz-adv-x="1290" 
d="M1052 -444q-199 0 -283 38q-83 38 -83 121q0 146 212 275q-61 14 -98.5 55.5t-45.5 104.5h-6q-45 -39 -88.5 -71.5t-90.5 -56t-98.5 -36.5t-112.5 -13q-49 0 -89.5 14.5t-68.5 41t-43.5 64.5t-15.5 85q0 64 23 154l76 299q24 108 24 145q0 54 -21 75t-79 21
q-12 0 -27.5 -2t-31.5 -5.5t-31.5 -7.5t-26.5 -9l19 78q171 73 262 73q99 0 150.5 -46t51.5 -128q0 -70 -18 -133l-80 -319q-22 -82 -22 -133q0 -123 108 -123q54 0 118.5 32.5t131.5 96.5l170 737l246 12l12 -14l-145 -629q-27 -97 -27 -143q0 -57 25.5 -78.5t85.5 -21.5
q14 0 30 2t31.5 5.5t29.5 8t23 8.5l-16 -78q-69 -27 -126 -46t-106 -25q-125 -121 -125 -238q0 -54 43 -82t148 -33z" />
    <glyph glyph-name="Wcircumflex" unicode="&#x174;" horiz-adv-x="2152" 
d="M1673 1526l-43 -31l-272 207l-352 -207l-39 31l309 305q43 37 107 37q33 0 57.5 -10t44.5 -39zM1452 -16h-149l-123 1075q-151 -271 -302.5 -540.5t-295.5 -534.5h-144l-96 1212q-8 69 -54 107.5t-124 46.5l16 69h656l-17 -69q-105 -11 -151.5 -27.5t-46.5 -50.5
q0 -17 1.5 -53.5t5.5 -92.5q4 -55 18.5 -243t39.5 -510l580 1036h151l127 -1069q97 183 174 328t134 255q49 95 81 159.5t47 99.5q31 69 31 90q0 30 -43.5 49.5t-148.5 28.5l16 69h555l-16 -69q-163 -16 -258 -174z" />
    <glyph glyph-name="wcircumflex" unicode="&#x175;" horiz-adv-x="1798" 
d="M1335 1110l-252 264l-344 -264l-47 31q17 22 48.5 61t79.5 96t90 105l77 88q12 15 24.5 25.5t27 16.5t32 8.5t39.5 2.5q39 0 60 -8.5t40 -40.5q7 -10 19.5 -33.5t28.5 -55t33.5 -68t35 -72.5t33 -69t26.5 -56zM528 799q0 -88 -60 -282q-60 -193 -60 -267
q0 -72 33.5 -104.5t84.5 -32.5q63 0 127 35.5t121 99.5q26 140 66.5 323t97.5 412l246 12l12 -14l-127 -547q-29 -118 -29 -172q0 -162 168 -162q52 0 98.5 18.5t86.5 49t71.5 71t52.5 84.5q50 105 50 220q0 45 -17.5 82.5t-52.5 74.5q-36 38 -53 77t-17 87q0 33 12 60.5
t33 47t49 30t60 10.5q77 0 119.5 -58.5t42.5 -193.5q0 -96 -21 -193.5t-61.5 -187.5t-100.5 -168.5t-139 -135.5q-145 -106 -317 -106q-54 0 -104.5 12t-93 37t-74.5 64t-48 94q-40 -42 -83.5 -79.5t-91 -65t-100.5 -44t-114 -16.5q-59 0 -105.5 18t-79 51.5t-50 81
t-17.5 105.5q0 81 61 279q60 200 60 270q0 54 -21 75t-79 21q-12 0 -27.5 -2t-31.5 -5.5t-31.5 -7.5t-26.5 -9l19 78q171 73 262 73q200 0 200 -200z" />
    <glyph glyph-name="Ycircumflex" unicode="&#x176;" horiz-adv-x="1378" 
d="M1292 1526l-43 -31l-272 207l-352 -207l-39 31l309 305q43 37 107 37q33 0 57.5 -10t44.5 -39zM750 172q0 -48 50 -73.5t144 -28.5l-16 -70h-727l16 70q138 8 184 35q50 29 66 92l65 282q13 51 13 70q0 22 -10 55t-25 84q-51 161 -91.5 282.5t-70.5 205.5
q-15 41 -33.5 72t-44 52.5t-59 33.5t-78.5 16l17 69h688l-17 -69l-61 -3q-139 -7 -139 -55q0 -20 46 -173.5t140 -428.5q135 159 226 269t140 173q99 128 99 152q0 25 -31 40q-28 15 -137 26l18 69h520l-16 -69q-49 -6 -90 -23.5t-83 -49.5q-20 -16 -47.5 -43t-61 -62.5
t-72 -78.5t-80.5 -91t-91.5 -107t-108.5 -130q-116 -140 -138 -176q-9 -15 -20.5 -45.5t-23 -70t-22.5 -83t-19.5 -85t-13.5 -76.5t-5 -57z" />
    <glyph glyph-name="ycircumflex" unicode="&#x177;" horiz-adv-x="1257" 
d="M1009 1110l-252 264l-344 -264l-47 31q17 22 48.5 61t79.5 96t90 105l77 88q12 15 24.5 25.5t27 16.5t32 8.5t39.5 2.5q39 0 60 -8.5t40 -40.5q7 -10 19.5 -33.5t28.5 -55t33.5 -68t35 -72.5t33 -69t26.5 -56zM367 -442q-165 0 -249.5 40t-84.5 128q0 27 9.5 50.5
t26 40.5t40 26.5t51.5 9.5q48 0 81.5 -25.5t59.5 -62.5q28 -38 72 -134q65 0 124 34t109 100t89.5 163.5t64.5 223.5h-6q-43 -39 -87.5 -70.5t-92.5 -54t-100 -35t-112 -12.5q-47 0 -87.5 13.5t-70 39.5t-46.5 64t-17 87q0 65 27 168l72 279q24 108 24 145q0 55 -21 75.5
t-79 20.5q-12 0 -27.5 -2t-31.5 -5.5t-31.5 -7.5t-26.5 -9l19 78q171 73 262 73q103 0 152.5 -47.5t49.5 -126.5q0 -70 -20 -145l-78 -301q-24 -91 -24 -133q0 -60 30.5 -92.5t85.5 -32.5q57 0 121 32.5t133 96.5l160 733l244 12l12 -14l-172 -799q-33 -151 -91.5 -267.5
t-141.5 -195.5t-188.5 -120t-233.5 -41z" />
    <glyph glyph-name="Ydieresis" unicode="&#x178;" horiz-adv-x="1378" 
d="M1383 1716q0 -29 -10.5 -55t-29 -46t-43.5 -32t-55 -12t-55 12t-43 32t-28.5 46t-10.5 55t10.5 55t29 45.5t43.5 31.5t54 12t54.5 -12t44 -31.5t29 -45.5t10.5 -55zM891 1716q0 -29 -10.5 -55.5t-29 -46.5t-44 -31.5t-55.5 -11.5t-55 11.5t-43.5 31.5t-28.5 46.5
t-10 55.5t10 55t28.5 46t43.5 31.5t55 11.5q29 0 54.5 -12t44 -31.5t29.5 -45.5t11 -55zM750 172q0 -48 50 -73.5t144 -28.5l-16 -70h-727l16 70q138 8 184 35q50 29 66 92l65 282q13 51 13 70q0 22 -10 55t-25 84q-51 161 -91.5 282.5t-70.5 205.5q-15 41 -33.5 72
t-44 52.5t-59 33.5t-78.5 16l17 69h688l-17 -69l-61 -3q-139 -7 -139 -55q0 -20 46 -173.5t140 -428.5q135 159 226 269t140 173q99 128 99 152q0 25 -31 40q-28 15 -137 26l18 69h520l-16 -69q-49 -6 -90 -23.5t-83 -49.5q-20 -16 -47.5 -43t-61 -62.5t-72 -78.5t-80.5 -91
t-91.5 -107t-108.5 -130q-116 -140 -138 -176q-9 -15 -20.5 -45.5t-23 -70t-22.5 -83t-19.5 -85t-13.5 -76.5t-5 -57z" />
    <glyph glyph-name="Zacute" unicode="&#x179;" 
d="M1225 1782q0 -45 -27 -72t-73 -47l-156 -65l-239 -103l-31 41l160 147l116 117q63 68 135 68q51 0 83 -24.5t32 -61.5zM1137 0h-1231l12 47l1180 1290h-303q-54 0 -101 -5t-90 -19t-82.5 -38.5t-79.5 -63.5q-67 -66 -174 -210h-75l139 418h1143l-13 -49l-1177 -1290h329
q106 0 188 13.5t136 49.5q53 37 123.5 114t157.5 204h71z" />
    <glyph glyph-name="zacute" unicode="&#x17a;" horiz-adv-x="983" 
d="M918 1462q0 -39 -15 -61.5t-44 -45.5q-33 -25 -155 -102q-111 -69 -225 -147l-39 35q29 38 62.5 83.5t70.5 98.5l87 123q16 24 31.5 42t33.5 30t40 18t52 6q21 0 39.5 -6.5t32 -17.5t21.5 -25.5t8 -30.5zM283 82h170q51 0 94 1t80 3q63 3 108 80q23 38 48 85t53 103h65
l-70 -354h-858l17 76l700 823h-125q-75 0 -128 -3.5t-93 -18.5q-14 -6 -31.5 -23t-37 -44t-39 -62t-37.5 -76h-66l62 309h813l-13 -66z" />
    <glyph glyph-name="Zdotaccent" unicode="&#x17b;" 
d="M1026 1708q0 -32 -11 -60t-30.5 -49t-46.5 -33t-60 -12q-32 0 -59 11.5t-46.5 32t-30.5 48t-11 58.5t11 58.5t30.5 48.5t46.5 33t59 12t59 -11t47 -31t31 -47t11 -59zM1137 0h-1231l12 47l1180 1290h-303q-54 0 -101 -5t-90 -19t-82.5 -38.5t-79.5 -63.5
q-67 -66 -174 -210h-75l139 418h1143l-13 -49l-1177 -1290h329q106 0 188 13.5t136 49.5q53 37 123.5 114t157.5 204h71z" />
    <glyph glyph-name="zdotaccent" unicode="&#x17c;" horiz-adv-x="983" 
d="M789 1368q0 -32 -11 -60t-30.5 -49t-46.5 -33t-60 -12q-32 0 -59 11.5t-46.5 32t-30.5 48t-11 58.5t11 58.5t30.5 48.5t46.5 33t59 12t59 -11t47 -31t31 -47t11 -59zM283 82h170q51 0 94 1t80 3q63 3 108 80q23 38 48 85t53 103h65l-70 -354h-858l17 76l700 823h-125
q-75 0 -128 -3.5t-93 -18.5q-14 -6 -31.5 -23t-37 -44t-39 -62t-37.5 -76h-66l62 309h813l-13 -66z" />
    <glyph glyph-name="Zcaron" unicode="&#x17d;" 
d="M1260 1837l-291 -287q-36 -36 -59 -45q-24 -8 -66 -8q-41 0 -62.5 10.5t-39.5 38.5l-187 291l41 31l272 -205l353 205zM1137 0h-1231l12 47l1180 1290h-303q-54 0 -101 -5t-90 -19t-82.5 -38.5t-79.5 -63.5q-67 -66 -174 -210h-75l139 418h1143l-13 -49l-1177 -1290h329
q106 0 188 13.5t136 49.5q53 37 123.5 114t157.5 204h71z" />
    <glyph glyph-name="zcaron" unicode="&#x17e;" horiz-adv-x="983" 
d="M1012 1516q-102 -128 -175.5 -215t-119.5 -138q-26 -30 -53.5 -40.5t-69.5 -10.5q-64 0 -87 26q-21 24 -139 272l-51 106l52 30l250 -264l344 264zM283 82h170q51 0 94 1t80 3q63 3 108 80q23 38 48 85t53 103h65l-70 -354h-858l17 76l700 823h-125q-75 0 -128 -3.5
t-93 -18.5q-14 -6 -31.5 -23t-37 -44t-39 -62t-37.5 -76h-66l62 309h813l-13 -66z" />
    <glyph glyph-name="longs" unicode="&#x17f;" horiz-adv-x="670" 
d="M1073 1397q0 -28 -10 -52t-27.5 -41t-41 -26.5t-50.5 -9.5q-98 0 -166 137l-33 63q-57 -27 -99.5 -121t-78.5 -262l-215 -1026q-20 -95 -70.5 -185t-124 -161t-165 -114t-193.5 -43q-115 0 -173 40t-58 115q0 27 9.5 50.5t26.5 40.5t40.5 26.5t50.5 9.5q102 0 171 -137
l32 -63q116 53 186 385l213 1009q14 68 41 133.5t66.5 124t90 107.5t111.5 84q116 69 238 69q114 0 171.5 -39t57.5 -114z" />
    <glyph glyph-name="florin" unicode="&#x192;" horiz-adv-x="1124" 
d="M1184 1155q0 -27 -9 -50.5t-25.5 -40.5t-39 -26.5t-49.5 -9.5q-45 0 -75 15t-57 50q-25 32 -65 134q-68 -23 -112 -123.5t-76 -272.5l-19 -98h277l-25 -102h-266q-15 -92 -34.5 -201.5t-50 -220.5t-76 -215.5t-113.5 -185t-161.5 -129t-219.5 -48.5q-102 0 -158.5 40.5
t-56.5 109.5q0 52 35 87.5t98 35.5q39 0 68 -19t50 -47.5t36.5 -62.5t27.5 -64q73 19 130 173q57 152 144 642l19 105h-217l22 102h209q24 127 76.5 233.5t128 183.5t169.5 119t200 40q100 0 157.5 -40.5t57.5 -113.5z" />
    <glyph glyph-name="Ohorn" unicode="&#x1a0;" horiz-adv-x="1587" 
d="M1569 872q0 -123 -31 -238.5t-87.5 -216.5t-136 -184.5t-177.5 -143.5t-211.5 -93t-237.5 -33q-132 0 -241.5 42t-188 118t-122.5 183t-44 237q0 121 30 236.5t86.5 217.5t138.5 187.5t187 147.5q206 122 437 122q94 0 183.5 -23t169.5 -74q72 10 116.5 36t64.5 74h-21
q-118 0 -94 101q5 22 20.5 41t35.5 32.5t43.5 21t45.5 6.5q65 -4 84 -44t-1 -112t-76.5 -126.5t-147.5 -83.5q91 -84 133 -196.5t42 -234.5zM1255 952q0 202 -79.5 308t-225.5 106q-93 0 -168 -40t-132.5 -104t-99.5 -143.5t-69 -157.5q-75 -217 -75 -452
q0 -203 79.5 -310.5t227.5 -107.5q93 0 168 40.5t132.5 104.5t99 144t68.5 158q74 217 74 454z" />
    <glyph glyph-name="ohorn" unicode="&#x1a1;" horiz-adv-x="1200" 
d="M1133 606q0 -139 -49 -256t-135.5 -202t-203.5 -133t-253 -48q-95 0 -173 28t-134 80.5t-86.5 129t-30.5 172.5q0 138 48 254.5t132.5 201.5t200.5 133t251 48q160 0 266 -69q72 10 116.5 36t64.5 74h-21q-118 0 -94 101q5 22 20.5 41t35.5 32.5t43.5 21t45.5 6.5
q65 -4 84 -44t-1 -112q-20 -73 -78 -128t-150 -84q101 -107 101 -283zM856 682q0 129 -45.5 192.5t-130.5 63.5q-62 0 -109.5 -28.5t-82.5 -73t-59 -99t-40 -105.5q-45 -153 -45 -329q0 -260 178 -260q62 0 109 29.5t82 75.5t58.5 100.5t38.5 105.5q46 153 46 328z" />
    <glyph glyph-name="Uhorn" unicode="&#x1af;" horiz-adv-x="1626" 
d="M414 1247q0 45 -46 67t-124 36l18 69h674l-16 -69q-54 -4 -92.5 -14t-65 -25.5t-41.5 -37t-23 -48.5l-174 -746q-8 -34 -12 -70.5t-4 -74.5q0 -124 72 -187t215 -63q95 0 172.5 31t136 86t99 130t61.5 163l120 520q25 104 25 186q0 129 -201 150l17 69l376 1
q-5 -15 -9.5 -29t-8.5 -27q109 24 141 103h-21q-118 0 -94 101q5 22 20.5 41t35.5 32.5t43.5 21t45.5 6.5q65 -4 84 -44t-1 -112q-23 -82 -93.5 -141t-183.5 -83q-19 -66 -35.5 -132.5t-31.5 -134.5l-119 -518q-30 -132 -89 -233.5t-143.5 -169.5t-193.5 -103t-241 -35
q-56 0 -114 7t-112.5 23.5t-102 43.5t-83 66t-56 91t-20.5 119q0 28 3 59.5t10 67.5t50.5 227t125.5 537q6 26 6 43z" />
    <glyph glyph-name="uhorn" unicode="&#x1b0;" horiz-adv-x="1290" 
d="M965 -18q-90 0 -146 45t-65 123h-6q-45 -39 -88.5 -71.5t-90.5 -56t-98.5 -36.5t-112.5 -13q-49 0 -89.5 14.5t-68.5 41t-43.5 64.5t-15.5 85q0 64 23 154l76 299q24 108 24 145q0 54 -21 75t-79 21q-12 0 -27.5 -2t-31.5 -5.5t-31.5 -7.5t-26.5 -9l19 78q171 73 262 73
q99 0 150.5 -46t51.5 -128q0 -70 -18 -133l-80 -319q-22 -82 -22 -133q0 -123 108 -123q54 0 118.5 32.5t131.5 96.5l170 737l246 12l12 -14l-7 -31q58 12 95.5 37.5t54.5 67.5h-21q-118 0 -94 101q5 22 20.5 41t35.5 32.5t43.5 21t45.5 6.5q65 -4 84 -44t-1 -112
q-23 -83 -94 -142t-186 -83l-121 -524q-27 -97 -27 -143q0 -57 25.5 -78.5t85.5 -21.5q14 0 30 2t31.5 5.5t29.5 8t23 8.5l-16 -78q-82 -32 -147.5 -52.5t-120.5 -20.5z" />
    <glyph glyph-name="Aringacute" unicode="&#x1fa;" horiz-adv-x="1462" 
d="M727 0l16 70q105 9 156 25.5t51 58.5q0 11 -55 331h-473l-74 -110q-11 -16 -31 -46.5t-39.5 -64.5t-34 -66t-14.5 -51q0 -32 50.5 -51.5t138.5 -25.5l-15 -70h-569l14 70q43 1 81 11t72.5 31t66.5 53.5t65 78.5l344 495l332 490q-34 8 -62.5 23.5t-49 38t-31.5 50
t-11 58.5q0 66 35 119.5t92 85.5l140 94l69 53q75 60 124 88.5t81 28.5q46 0 70 -22t24 -54q0 -42 -33.5 -69.5t-108.5 -52.5l-91 -32q69 -17 108 -62t39 -108q0 -37 -12 -71.5t-33 -62.5t-51 -49t-66 -32l187 -1044q11 -63 57.5 -98.5t124.5 -40.5l-14 -70h-670zM1063 1470
q0 48 -26.5 81.5t-80.5 33.5q-39 0 -69.5 -15t-50.5 -40.5t-30.5 -58.5t-10.5 -70q0 -50 27 -83.5t83 -33.5q35 0 64 13.5t50 37.5t32.5 58.5t11.5 76.5zM879 573l-78 471l-318 -471h396z" />
    <glyph glyph-name="aringacute" unicode="&#x1fb;" horiz-adv-x="1262" 
d="M1139 1782q0 -45 -27 -72t-73 -47l-156 -65l-239 -103l-31 41l160 147l116 117q63 68 135 68q51 0 83 -24.5t32 -61.5zM932 -18q-82 0 -137 39t-68 106h-8q-34 -29 -71 -57.5t-77 -51t-83 -36t-91 -13.5q-88 0 -150 30.5t-102 83t-58.5 123t-18.5 150.5q0 103 32 204
t90.5 187.5t141 151t183.5 93.5q-39 24 -60 62t-21 88q0 65 27 114.5t71 83.5t100.5 51.5t115.5 17.5q44 0 86 -11t75 -34t53.5 -58.5t20.5 -85.5q0 -80 -44 -141t-114 -94q51 -17 84 -43l246 53l12 -14l-156 -665q-18 -73 -18 -109q0 -57 25.5 -77.5t85.5 -20.5
q56 0 115 22l-17 -76q-81 -34 -144.5 -53.5t-125.5 -19.5zM844 1220q0 54 -27.5 88.5t-81.5 34.5q-40 0 -70.5 -18t-51 -46.5t-30.5 -64.5t-10 -72q0 -54 27 -88t84 -34q41 0 71 17.5t50 46t29.5 64.5t9.5 72zM858 762q0 81 -42 122.5t-120 41.5q-57 0 -104.5 -29t-85 -73.5
t-65 -96.5t-44.5 -99q-47 -135 -47 -276q0 -133 41 -191.5t127 -58.5q96 0 213 117z" />
    <glyph glyph-name="AEacute" unicode="&#x1fc;" horiz-adv-x="2095" 
d="M1808 1782q0 -45 -27 -72t-73 -47l-156 -65l-239 -103l-31 41l160 147l116 117q63 68 135 68q51 0 83 -24.5t32 -61.5zM1890 0h-1239l17 70q128 8 173 35q47 29 60 88l92 405h-481q-97 -122 -155 -197t-78 -104q-42 -57 -64 -95t-22 -55q0 -64 163 -77l-14 -70h-561
l14 70q89 7 160.5 49t140.5 127q139 170 354 438t506 633q-14 8 -37.5 13.5t-49 9.5t-49.5 6.5t-40 3.5l17 69h1343l-80 -352h-75q-3 33 -14.5 76t-32 82.5t-49.5 68.5t-68 35q-29 5 -71 7.5t-99 2.5h-203l-129 -563h137q45 0 76.5 6t54.5 16q17 5 39 22.5t45.5 45
t45.5 65.5t40 85h76l-133 -574h-74q0 130 -17 172q-16 42 -56 61t-115 19h-138l-98 -424q-14 -58 -14 -100q0 -52 36 -70q38 -18 162 -18q143 0 211 13q71 14 101 38q28 22 62.5 59.5t69 80.5t65 85t49.5 72h73zM1163 1333h-67l-512 -645h430z" />
    <glyph glyph-name="aeacute" unicode="&#x1fd;" horiz-adv-x="1659" 
d="M1305 1462q0 -39 -15 -61.5t-44 -45.5q-33 -25 -155 -102q-111 -69 -225 -147l-39 35q29 38 62.5 83.5t70.5 98.5l87 123q16 24 31.5 42t33.5 30t40 18t52 6q21 0 39.5 -6.5t32 -17.5t21.5 -25.5t8 -30.5zM1284 1012q157 0 241.5 -55t84.5 -164q0 -152 -146 -239
q-72 -43 -203.5 -81.5t-318.5 -54.5q0 -165 56 -241.5t169 -76.5q59 0 106.5 14t88 39.5t76.5 61.5t71 80l64 -51q-41 -61 -94 -111.5t-115.5 -87t-132 -56.5t-144.5 -20q-147 0 -239 54t-133 143h-8q-183 -195 -426 -195q-49 0 -94 12.5t-79 38t-54.5 65t-20.5 93.5
q0 71 23 123.5t62.5 92t93.5 67t115 47.5q158 53 295 75l93 15l11 49q3 12 7 31.5t8 40t6.5 39.5t2.5 31q0 69 -36.5 107t-99.5 38q-20 0 -41.5 -3.5t-42 -9.5t-38 -13.5t-29.5 -16.5l4 -80q0 -81 -44 -122.5t-128 -41.5q-51 0 -83 27t-32 76q0 43 24.5 78.5t61 63.5
t78.5 48t76 32q112 38 219 38q118 0 194 -25t119 -82q164 107 332 107zM1237 936q-42 0 -78 -21t-65.5 -53t-51.5 -70t-37 -73q-44 -105 -59 -223q143 10 233 47q45 18 77.5 41t53.5 52.5t31.5 66.5t10.5 85q0 72 -26 110t-89 38zM688 248q-10 39 -10 114q0 40 3.5 78
t10.5 74q-196 -24 -291.5 -97.5t-95.5 -191.5q0 -62 35 -91.5t86 -29.5q148 0 262 144z" />
    <glyph glyph-name="Oslashacute" unicode="&#x1fe;" horiz-adv-x="1602" 
d="M1335 1782q0 -45 -27 -72t-73 -47l-156 -65l-239 -103l-31 41l160 147l116 117q63 68 135 68q51 0 83 -24.5t32 -61.5zM227 164q-135 155 -135 379q0 121 30 236.5t86.5 217.5t138.5 187.5t187 147.5q206 122 437 122q236 0 397 -137l150 151l65 -59l-151 -152
q137 -157 137 -385q0 -123 -31 -238.5t-87.5 -216.5t-136 -184.5t-177.5 -143.5t-211.5 -93t-237.5 -33q-240 0 -401 141l-168 -167l-62 59zM1225 1171q-74 197 -275 197q-94 0 -169.5 -40t-133.5 -104t-100 -143.5t-70 -158.5q-76 -216 -76 -453q0 -71 9 -121zM434 254
q72 -203 279 -203q93 0 168 39.5t133 102.5t100 142t70 157q76 212 76 460q0 76 -9 125z" />
    <glyph glyph-name="oslashacute" unicode="&#x1ff;" horiz-adv-x="1200" 
d="M1000 1462q0 -39 -15 -61.5t-44 -45.5q-33 -25 -155 -102q-111 -69 -225 -147l-39 35q29 38 62.5 83.5t70.5 98.5l87 123q16 24 31.5 42t33.5 30t40 18t52 6q21 0 39.5 -6.5t32 -17.5t21.5 -25.5t8 -30.5zM152 125q-84 98 -84 252q0 138 48 254.5t132.5 201.5t200.5 133
t251 48q184 0 293 -99l146 138l55 -54l-145 -137q84 -105 84 -256q0 -138 -49.5 -255t-135.5 -202t-203.5 -132.5t-252.5 -47.5q-168 0 -287 101l-156 -148l-55 53zM850 780q-32 158 -170 158q-68 0 -119.5 -32.5t-89 -86t-62.5 -122t-40 -139t-21 -138t-6 -119.5zM350 205
q29 -162 172 -162q63 0 110.5 29.5t83 75.5t59.5 101t39 107q44 155 44 330z" />
    <glyph glyph-name="uni0218" unicode="&#x218;" horiz-adv-x="1243" 
d="M535 -33q-58 0 -115 7t-109 20.5t-98 32.5t-84 43l-72 -70h-82l101 498h84q9 -87 35 -166.5t73 -140.5t117.5 -97.5t167.5 -36.5q66 0 125 18t103.5 54t70 90t25.5 125q0 156 -181 223l-138 52q-82 29 -138 56.5t-87 52.5q-60 51 -92 119t-32 144q0 194 163 327
q164 134 400 134q211 0 365 -96l63 63h84l-102 -477h-82q-8 78 -25 153.5t-54 135t-98 95.5t-157 36q-56 0 -107 -18t-90 -51t-62.5 -80.5t-23.5 -106.5q0 -87 50.5 -141.5t158.5 -94.5l112 -41q66 -24 129 -54t113 -72.5t80.5 -100t30.5 -137.5q0 -213 -177 -356
q-175 -142 -445 -142zM532 -260q-69 0 -95.5 21t-26.5 59q0 51 39.5 82.5t103.5 31.5q66 0 102.5 -38t36.5 -101q0 -56 -21.5 -100t-63 -75t-100.5 -47.5t-134 -16.5l8 61q93 6 141.5 32.5t65.5 90.5h-56z" />
    <glyph glyph-name="uni0219" unicode="&#x219;" horiz-adv-x="971" 
d="M391 770q0 -42 14 -68t49 -49q17 -11 52.5 -26t89.5 -35q50 -19 98 -42.5t85.5 -56.5t60 -77.5t22.5 -104.5q0 -156 -128 -249q-127 -93 -337 -93q-172 0 -279 54q-106 55 -106 145q0 28 10 51t28 40t42 26.5t51 9.5q60 0 103 -42.5t66 -117.5l22 -72q44 -14 84 -14
q93 0 145.5 47.5t52.5 134.5q0 48 -37 84t-112 66q-164 67 -217 105q-52 39 -78.5 88.5t-26.5 115.5q-1 66 32.5 125.5t94 103.5t143 69.5t179.5 23.5q161 0 248.5 -45.5t87.5 -130.5q0 -27 -9.5 -49.5t-26.5 -39t-40 -25.5t-49 -9q-58 0 -99 40t-63 113l-22 68
q-11 1 -18.5 1.5t-10.5 0.5q-38 0 -74 -10t-64.5 -31t-45.5 -52t-17 -73zM409 -260q-69 0 -95.5 21t-26.5 59q0 51 39.5 82.5t103.5 31.5q66 0 102.5 -38t36.5 -101q0 -56 -21.5 -100t-63 -75t-100.5 -47.5t-134 -16.5l8 61q93 6 141.5 32.5t65.5 90.5h-56z" />
    <glyph glyph-name="uni021A" unicode="&#x21a;" horiz-adv-x="1333" 
d="M729 170q0 -48 50.5 -72.5t144.5 -27.5l-17 -70h-731l19 70q51 3 87.5 7.5t58.5 11.5q45 13 70.5 39t34.5 69l265 1142h-47q-45 0 -86.5 -2t-79.5 -6q-23 -3 -51 -21t-57 -44.5t-58 -59.5t-54.5 -66.5t-46 -63.5t-32.5 -52h-74l92 395h1305l-90 -395h-74q-6 111 -49 204
q-42 96 -99 103q-28 4 -67.5 6t-91.5 2h-56l-260 -1124q-6 -24 -6 -45zM532 -260q-69 0 -95.5 21t-26.5 59q0 51 39.5 82.5t103.5 31.5q66 0 102.5 -38t36.5 -101q0 -56 -21.5 -100t-63 -75t-100.5 -47.5t-134 -16.5l8 61q93 6 141.5 32.5t65.5 90.5h-56z" />
    <glyph glyph-name="uni021B" unicode="&#x21b;" horiz-adv-x="782" 
d="M401 201q0 -51 27.5 -74t87.5 -23q16 0 38.5 2.5t46 6t45.5 9t36 11.5l-18 -82q-174 -74 -310 -74q-106 0 -164.5 47.5t-58.5 129.5q0 16 1.5 33t3.5 36q2 20 14 73.5t32 141.5t46.5 197.5t58.5 241.5h-181l23 96h184l72 299h252l-70 -299h275l-21 -96h-274
q-146 -590 -146 -676zM352 -260q-69 0 -95.5 21t-26.5 59q0 51 39.5 82.5t103.5 31.5q66 0 102.5 -38t36.5 -101q0 -56 -21.5 -100t-63 -75t-100.5 -47.5t-134 -16.5l8 61q93 6 141.5 32.5t65.5 90.5h-56z" />
    <glyph glyph-name="uni0237" unicode="&#x237;" horiz-adv-x="672" 
d="M561 836q0 -59 -39 -266q-19 -103 -47.5 -230.5t-66.5 -280.5q-18 -65 -47 -128.5t-69 -121t-90.5 -106t-109.5 -82.5q-112 -65 -225 -65q-114 0 -171.5 39.5t-57.5 115.5q0 57 34.5 92t91.5 35q101 0 169 -137l32 -63q108 64 178 385q41 174 74 332t59 304q19 98 19 140
q0 46 -20.5 66t-71.5 20q-56 0 -137 -27l18 78q177 76 276 76q102 0 151.5 -49t49.5 -127z" />
    <glyph glyph-name="circumflex" unicode="&#x2c6;" horiz-adv-x="1024" 
d="M950 1110l-252 264l-344 -264l-47 31q17 22 48.5 61t79.5 96t90 105l77 88q12 15 24.5 25.5t27 16.5t32 8.5t39.5 2.5q39 0 60 -8.5t40 -40.5q7 -10 19.5 -33.5t28.5 -55t33.5 -68t35 -72.5t33 -69t26.5 -56z" />
    <glyph glyph-name="caron" unicode="&#x2c7;" horiz-adv-x="1024" 
d="M1014 1516q-102 -128 -175.5 -215t-119.5 -138q-26 -30 -53.5 -40.5t-69.5 -10.5q-64 0 -87 26q-21 24 -139 272l-51 106l52 30l250 -264l344 264z" />
    <glyph glyph-name="uni02C9" unicode="&#x2c9;" horiz-adv-x="1024" 
d="M317 1272l31 145h717l-31 -145h-717z" />
    <glyph glyph-name="breve" unicode="&#x2d8;" horiz-adv-x="1024" 
d="M1022 1513q-122 -383 -389 -383q-256 0 -256 338l2 45l63 15q7 -52 18.5 -95.5t35 -75t63 -48.5t100.5 -17q63 0 108.5 18t80 49.5t60.5 74.5t50 94z" />
    <glyph glyph-name="dotaccent" unicode="&#x2d9;" horiz-adv-x="1024" 
d="M840 1368q0 -32 -11 -60t-30.5 -49t-46.5 -33t-60 -12q-32 0 -59 11.5t-46.5 32t-30.5 48t-11 58.5t11 58.5t30.5 48.5t46.5 33t59 12t59 -11t47 -31t31 -47t11 -59z" />
    <glyph glyph-name="ring" unicode="&#x2da;" horiz-adv-x="1098" 
d="M940 1374q0 -113 -89 -190q-88 -76 -224 -76q-111 0 -173.5 50.5t-62.5 137.5q0 65 27 114.5t71 83.5t100.5 51.5t115.5 17.5q44 0 86 -11t75 -34t53.5 -58.5t20.5 -85.5zM801 1374q0 54 -27.5 88.5t-81.5 34.5q-40 0 -70.5 -18t-51 -46.5t-30.5 -64.5t-10 -72
q0 -54 27 -88t84 -34q41 0 71 17.5t50 46t29.5 64.5t9.5 72z" />
    <glyph glyph-name="ogonek" unicode="&#x2db;" horiz-adv-x="1024" 
d="M655 -444q-199 0 -283 38q-83 38 -83 121q0 174 303 324h74q-187 -150 -187 -293q0 -54 43 -82t148 -33z" />
    <glyph glyph-name="tilde" unicode="&#x2dc;" horiz-adv-x="1024" 
d="M1102 1475q-16 -45 -44.5 -92.5t-67 -87t-85.5 -64.5t-98 -25q-60 0 -104.5 16t-82.5 35.5t-74 35.5t-79 16q-27 0 -45 -11.5t-35 -31.5q-15 -18 -63 -95l-64 27q18 41 46.5 88.5t65.5 88t82.5 67t96.5 26.5q53 0 97 -16t82 -35.5t72.5 -36t69.5 -16.5q34 0 61 10t50 36
q20 25 55 91z" />
    <glyph glyph-name="hungarumlaut" unicode="&#x2dd;" horiz-adv-x="1024" 
d="M1112 1470q0 -44 -40 -83q-42 -39 -183 -134q-49 -32 -101.5 -70t-109.5 -81l-31 31q90 113 189 255q64 93 102 124q38 30 92 30q33 0 57.5 -21t24.5 -51zM723 1470q0 -43 -35 -78q-17 -17 -62 -52t-119 -87q-46 -32 -97 -69.5t-109 -81.5l-35 31q55 69 101.5 132
t85.5 122q54 81 76 105q25 27 51 38.5t63 11.5q34 0 57 -21.5t23 -50.5z" />
    <glyph glyph-name="gravecomb" unicode="&#x300;" horiz-adv-x="1024" 
d="M838 1495l-155 73q-218 97 -245 114q-28 18 -39.5 36t-11.5 45q0 45 32 74t83 29q42 0 76 -22t71 -64l140 -156l85 -88z" />
    <glyph glyph-name="acutecomb" unicode="&#x301;" horiz-adv-x="1024" 
d="M860 1782q0 -45 -27 -72t-73 -47l-156 -65l-239 -103l-31 41l160 147l116 117q63 68 135 68q51 0 83 -24.5t32 -61.5z" />
    <glyph glyph-name="uni0302" unicode="&#x302;" horiz-adv-x="1024" 
d="M958 1526l-43 -31l-272 207l-352 -207l-39 31l309 305q43 37 107 37q33 0 57.5 -10t44.5 -39z" />
    <glyph glyph-name="uni0306" unicode="&#x306;" horiz-adv-x="1024" 
d="M995 1851q-112 -321 -395 -321q-131 0 -198.5 74.5t-67.5 212.5v34l65 17q12 -92 66.5 -135t165.5 -43q51 0 94 9.5t80 30.5t69 55t60 83z" />
    <glyph glyph-name="uni0308" unicode="&#x308;" horiz-adv-x="1024" 
d="M1004 1716q0 -29 -10.5 -55t-29 -46t-43.5 -32t-55 -12t-55 12t-43 32t-28.5 46t-10.5 55t10.5 55t29 45.5t43.5 31.5t54 12t54.5 -12t44 -31.5t29 -45.5t10.5 -55zM512 1716q0 -29 -10.5 -55.5t-29 -46.5t-44 -31.5t-55.5 -11.5t-55 11.5t-43.5 31.5t-28.5 46.5
t-10 55.5t10 55t28.5 46t43.5 31.5t55 11.5q29 0 54.5 -12t44 -31.5t29.5 -45.5t11 -55z" />
    <glyph glyph-name="uni030B" unicode="&#x30b;" horiz-adv-x="1024" 
d="M741 1534l86 80q16 14 48 47t83 85q116 120 183 120q51 0 79.5 -22.5t28.5 -59.5q0 -48 -32 -78q-33 -30 -154 -76q-94 -36 -297 -135zM815 1782q0 -73 -102 -117q-69 -29 -123.5 -52.5t-97.5 -42.5q-42 -18 -82 -36.5t-78 -38.5l-27 39l252 244q11 14 29.5 29.5
t39.5 28.5t43 21.5t40 8.5q52 0 79 -23t27 -61z" />
    </font>
</defs>
</svg>
