<svg width="85" height="66" viewBox="0 0 85 66" fill="none" xmlns="http://www.w3.org/2000/svg">
<path d="M14.4942 10.5211H18.707L48.899 54.1231L46.7925 57.158L14.4942 10.5211ZM84.5074 2.90005L52.7774 48.559C52.3428 47.9521 31.9139 19.4236 30.844 17.9399C29.9245 16.6585 29.005 15.3602 28.6205 13.809C28.3196 12.6119 28.6707 11.2293 29.3728 10.2345C29.9914 9.34087 30.8941 8.80133 31.8804 8.39667C31.8637 7.23327 31.8804 6.06988 31.8804 4.90649H3.46054V8.39667C3.46054 8.39667 5.85116 9.32401 8.04116 12.3758C10.5655 15.8997 42.9809 62.7052 42.9809 62.7052L40.8745 65.7402L6.00161 15.5794C6.00161 15.5794 3.37695 11.4485 0 10.5211V1.41631H35.3243V10.5043C33.5856 10.6223 32.2315 11.5496 32.2315 13.2357C32.2315 13.9776 32.9671 15.3433 33.6191 16.2875L52.7607 42.4892L67.6728 21.0423L55.2349 2.90005C56.5723 2.41109 57.893 1.97271 59.1636 1.61863C62.9083 0.539545 66.3855 0 69.8294 0C73.4571 0 77.1851 0.590127 81.2308 1.8041C82.3174 2.12446 83.4375 2.51226 84.5074 2.90005ZM78.8736 4.99079L77.904 4.72102C75.062 3.9117 72.4206 3.50704 69.8461 3.50704C67.2716 3.50704 64.6469 3.89484 61.7882 4.72102L60.8186 4.99079L69.7291 18.041L78.8569 4.99079H78.8736Z" fill="#B58150"/>
</svg>
