<svg width="20" height="20" viewBox="0 0 20 20" fill="none" xmlns="http://www.w3.org/2000/svg">
<g clip-path="url(#clip0_288_303)">
<path d="M19.3724 10.0568C19.3718 4.88117 15.1762 0.685547 9.99994 0.685547C4.82369 0.685547 0.627441 4.8818 0.627441 10.058C0.627441 14.7174 4.02744 18.5824 8.48119 19.308L8.53494 19.3155V12.7668H6.15494V10.0568H8.53494V7.99305C8.52307 7.88867 8.51682 7.76742 8.51682 7.64492C8.51682 5.81805 9.99807 4.3368 11.8249 4.3368C11.9131 4.3368 12.0006 4.34055 12.0874 4.3468L12.0762 4.34617C12.8256 4.3568 13.5506 4.42305 14.2581 4.54117L14.1743 4.5293V6.83555H12.9918C12.9381 6.82805 12.8762 6.82367 12.8137 6.82367C12.0656 6.82367 11.4587 7.42992 11.4587 8.17867C11.4587 8.22117 11.4606 8.26305 11.4643 8.30492L11.4637 8.2993V10.0568H14.0631L13.6474 12.7668H11.4637V19.3155C15.9718 18.5818 19.3718 14.7162 19.3724 10.0568Z" fill="white"/>
</g>
<defs>
<clipPath id="clip0_288_303">
<rect width="20" height="20" fill="white"/>
</clipPath>
</defs>
</svg>
