<svg width="20" height="20" viewBox="0 0 20 20" fill="none" xmlns="http://www.w3.org/2000/svg">
<path d="M14.0625 1.875H5.9375C3.69384 1.875 1.875 3.69384 1.875 5.9375V14.0625C1.875 16.3061 3.69384 18.125 5.9375 18.125H14.0625C16.3061 18.125 18.125 16.3061 18.125 14.0625V5.9375C18.125 3.69384 16.3061 1.875 14.0625 1.875Z" stroke="white" stroke-width="1.5" stroke-linecap="round" stroke-linejoin="round"/>
<path d="M13.252 9.48837C13.3523 10.1646 13.2368 10.8552 12.9219 11.4619C12.607 12.0687 12.1089 12.5607 11.4983 12.8681C10.8877 13.1755 10.1957 13.2824 9.52079 13.1739C8.84588 13.0652 8.22239 12.7465 7.73901 12.2632C7.25564 11.7798 6.93699 11.1563 6.82839 10.4814C6.71979 9.8065 6.82676 9.11453 7.1341 8.50392C7.44144 7.89331 7.93349 7.39516 8.54026 7.08031C9.14704 6.76547 9.83764 6.64997 10.5138 6.75025C11.2036 6.85252 11.8422 7.17393 12.3352 7.667C12.8283 8.16005 13.1496 8.79862 13.252 9.48837Z" stroke="white" stroke-width="1.5" stroke-linecap="round" stroke-linejoin="round"/>
<path d="M14.4678 5.53223H14.4803" stroke="white" stroke-width="1.5" stroke-linecap="round" stroke-linejoin="round"/>
</svg>
