<svg width="19" height="19" viewBox="0 0 19 19" fill="none" xmlns="http://www.w3.org/2000/svg">
<path d="M14.4502 4.45001H16.4502C16.9806 4.45001 17.4893 4.66073 17.8644 5.0358C18.2395 5.41087 18.4502 5.91958 18.4502 6.45001V12.45C18.4502 12.9804 18.2395 13.4892 17.8644 13.8642C17.4893 14.2393 16.9806 14.45 16.4502 14.45H14.4502V18.45L10.4502 14.45H6.4502C6.18752 14.4503 5.92739 14.3987 5.68473 14.2981C5.44207 14.1975 5.22167 14.05 5.0362 13.864M5.0362 13.864L8.4502 10.45H12.4502C12.9806 10.45 13.4893 10.2393 13.8644 9.86423C14.2395 9.48915 14.4502 8.98045 14.4502 8.45001V2.45001C14.4502 1.91958 14.2395 1.41087 13.8644 1.0358C13.4893 0.660726 12.9806 0.450012 12.4502 0.450012H2.4502C1.91976 0.450012 1.41105 0.660726 1.03598 1.0358C0.660909 1.41087 0.450195 1.91958 0.450195 2.45001V8.45001C0.450195 8.98045 0.660909 9.48915 1.03598 9.86423C1.41105 10.2393 1.91976 10.45 2.4502 10.45H4.4502V14.45L5.0362 13.864Z" stroke="#acdcd2" stroke-width="0.9" stroke-linecap="round" stroke-linejoin="round"/>
</svg>
