<svg width="38" height="57" viewBox="0 0 38 57" fill="none" xmlns="http://www.w3.org/2000/svg">
<path d="M34.8326 49.9672H0.608463C0.250268 49.9672 0 49.6324 0 49.2849V8.20406C0 7.79974 0.278423 7.47755 0.699185 7.47913L34.6667 7.48861C36.5782 7.48861 38 9.1422 38 11.0122L37.9812 46.7153C37.9812 48.4478 36.5172 49.814 34.8341 49.9656L34.8326 49.9672ZM31.7683 29.0912C32.2266 29.0912 32.4175 28.6726 32.4096 28.4026C32.4003 28.0646 32.114 27.7755 31.7543 27.774H30.3402C29.2923 22.6063 24.9564 18.7732 19.7039 18.4431C19.6304 18.2299 19.6288 17.9677 19.6867 17.7529C20.5579 17.3754 21.0428 16.4799 20.8473 15.5876C20.6518 14.6952 19.9041 14.1014 19.0485 14.0809C18.1272 14.0603 17.3451 14.7237 17.173 15.5829C16.9916 16.4941 17.4311 17.3849 18.3071 17.7276C18.3556 17.9424 18.3524 18.1762 18.3118 18.4352C13.0749 18.7779 8.74059 22.5731 7.66288 27.7661L6.36618 27.7724C5.95011 27.774 5.61381 27.9651 5.59192 28.3962C5.57784 28.6821 5.79682 29.0896 6.22541 29.0896H31.7683V29.0912ZM32.8883 34.5021C33.2997 34.5021 33.5421 34.1751 33.5421 33.8277C33.5421 33.5971 33.3356 33.1722 32.9681 33.1722H5.07105C4.66436 33.1722 4.42504 33.6097 4.45789 33.8861C4.49856 34.2304 4.74101 34.5021 5.14456 34.5021H32.8883ZM32.7788 37.626H5.13518C4.70659 37.626 4.43599 37.9751 4.45789 38.3146C4.47979 38.6542 4.72536 38.9464 5.13518 38.9464H32.8242C33.2856 38.9464 33.5609 38.6463 33.5405 38.2515C33.5218 37.8835 33.2762 37.626 32.7788 37.626ZM33.0197 43.3655C33.4639 43.3655 33.575 42.8332 33.5343 42.601C33.478 42.282 33.2246 42.072 32.8226 42.072H5.05697C4.66123 42.0751 4.44068 42.4842 4.45633 42.7337C4.47822 43.1159 4.71911 43.3686 5.13674 43.3686L33.0197 43.3655Z" fill="white"/>
<path d="M32.0469 2.69209L32.5474 6.17458L5.70312 6.15721L28.3727 0.116143C29.2846 -0.127079 30.1464 -0.00388886 30.866 0.634174C31.4431 1.14589 31.9265 1.84871 32.0485 2.69051L32.0469 2.69209Z" fill="white"/>
<path d="M31.1555 56.4995L27.8269 55.007L24.5281 56.4884C24.3842 56.5532 24.0635 56.4821 23.9431 56.4C23.7945 56.2989 23.6631 56.051 23.6631 55.833L23.6678 51.2986H31.9876L31.9907 55.8741C31.9767 56.3147 31.6263 56.5769 31.157 56.4995H31.1555Z" fill="white"/>
<path d="M28.9985 27.7598L8.99902 27.7645C10.1549 22.7611 14.8412 19.2912 19.9529 19.7792C24.2779 20.193 27.9615 23.3423 28.997 27.7598H28.9985Z" fill="white"/>
<path d="M18.809 15.4376C19.1172 15.3334 19.4363 15.4771 19.5411 15.7788C19.638 16.0599 19.5364 16.4105 19.1735 16.5384C18.9357 16.6221 18.5838 16.5053 18.4571 16.1736C18.3617 15.9193 18.4774 15.5498 18.809 15.4376Z" fill="white"/>
</svg>
