<svg width="16" height="16" viewBox="0 0 16 16" fill="none" xmlns="http://www.w3.org/2000/svg">
<path d="M5.23462 4.5432V1.77777M10.7655 4.5432V1.77777M4.54326 7.30864H11.4568M3.16055 14.2222H12.8396C13.2063 14.2222 13.558 14.0765 13.8173 13.8172C14.0766 13.5579 14.2223 13.2062 14.2223 12.8395V4.5432C14.2223 4.17648 14.0766 3.82478 13.8173 3.56548C13.558 3.30617 13.2063 3.16049 12.8396 3.16049H3.16055C2.79383 3.16049 2.44213 3.30617 2.18282 3.56548C1.92351 3.82478 1.77783 4.17648 1.77783 4.5432V12.8395C1.77783 13.2062 1.92351 13.5579 2.18282 13.8172C2.44213 14.0765 2.79383 14.2222 3.16055 14.2222Z" stroke="#002c48" stroke-width="0.888889" stroke-linecap="round" stroke-linejoin="round"/>
</svg>
