<svg width="204" height="127" viewBox="0 0 204 127" fill="none" xmlns="http://www.w3.org/2000/svg">
<g clip-path="url(#clip0_166_4)">
<path d="M74.3815 10.437H78.5729L108.612 53.6902L106.516 56.7009L74.3815 10.437ZM144.039 2.87686L112.47 48.1707C112.038 47.5685 91.7127 19.2683 90.6483 17.7964C89.7335 16.5252 88.8187 15.2373 88.4361 13.6985C88.1367 12.511 88.486 11.1395 89.1846 10.1526C89.8 9.26617 90.6982 8.73094 91.6795 8.32951C91.6628 7.17542 91.6795 6.02134 91.6795 4.86725H63.4039V8.32951C63.4039 8.32951 65.7824 9.24944 67.9613 12.2768C70.4728 15.7726 102.724 62.2037 102.724 62.2037L100.628 65.2144L65.9321 15.4548C65.9321 15.4548 63.3207 11.3569 59.9609 10.437V1.40498H95.1058V10.4203C93.376 10.5373 92.0288 11.4573 92.0288 13.1299C92.0288 13.8658 92.7606 15.2206 93.4093 16.1572L112.454 42.1493L127.29 20.874L114.915 2.87686C116.246 2.39181 117.56 1.95693 118.824 1.60569C122.55 0.53523 126.009 0 129.436 0C133.045 0 136.754 0.585408 140.779 1.78967C141.86 2.10747 142.975 2.49216 144.039 2.87686ZM138.434 4.95088L137.469 4.68326C134.642 3.88042 132.014 3.47899 129.452 3.47899C126.891 3.47899 124.28 3.86369 121.435 4.68326L120.471 4.95088L129.336 17.8967L138.417 4.95088H138.434Z" fill="#B58150"/>
<path d="M34.2966 104.32H26.5125V89.2831H36.1595V92.4443H29.8391V95.1038H35.1116V98.265H33.3818H29.8391V101.159H36.1595V104.32H34.2966ZM21.2566 104.32H17.8801V89.2831H21.2566V104.32ZM52.3431 89.2831H52.6924V92.4443H52.3431H51.3285H48.8003V104.32H45.4239V92.4443H41.4986V89.2831H52.3265H52.3431ZM13.3228 89.2831H13.9382L13.6887 89.8184C13.6887 89.8184 13.6887 89.8184 13.6887 89.8351L7.63441 102.915L6.98573 104.32L6.23726 102.781L0.24949 89.8351L0 89.2831H3.70909L3.95858 89.8351L6.9691 96.4084L9.96298 89.8351L10.2125 89.2831H13.3062H13.3228ZM81.6333 88.9319L74.2151 104.32H77.7246L77.9574 103.801L78.7225 102.078H84.5274L85.2093 103.584L85.542 104.32H89.0515L81.6333 88.9319ZM80.0199 99.1514L81.6166 95.9066H81.6333L83.2633 99.1514H80.0199ZM109.56 104.32H106.2L106.117 103.718L105.202 97.4454L101.01 103.032L96.769 97.4119L95.8542 103.968L95.8043 104.32H92.4445L93.193 99.8539L94.3074 93.2305L94.9727 89.2831L101.01 97.4454L107.065 89.2831L107.747 93.3977L109.11 101.577L109.576 104.32H109.56ZM70.5226 89.2831H70.9218V104.32L61.4578 96.6258V104.32H58.0814V91.491H58.0647V89.2831L67.5454 96.9771V89.2831H70.5226ZM148.946 89.0657C144.671 89.0657 141.278 92.528 141.278 96.8265C141.278 101.125 144.671 104.537 148.946 104.537C153.22 104.537 156.63 101.125 156.63 96.8265C156.63 92.528 153.22 89.0657 148.946 89.0657ZM148.946 101.092C146.617 101.092 144.688 99.1514 144.688 96.8098C144.688 94.4682 146.617 92.4945 148.946 92.4945C151.274 92.4945 153.22 94.4514 153.22 96.8098C153.22 99.1682 151.291 101.092 148.946 101.092ZM133.095 89.2831H136.039V104.32H132.679V98.265H126.575V104.32H123.215V89.2831H126.575V95.1038H132.679V89.2831H133.095ZM173.462 89.2831H173.862V98.566C173.862 101.828 171.134 104.537 167.757 104.537C164.381 104.537 161.686 101.828 161.686 98.566V89.2831H165.129V98.3988C165.129 99.9041 166.244 101.108 167.757 101.108C169.271 101.108 170.435 99.9041 170.435 98.3988V94.2675V89.2999H173.462V89.2831ZM203.584 89.2831H203.983V92.4443H197.663V95.1038H202.936V98.265H202.536H197.663V101.159H203.983V104.32H194.336V89.2831H203.584ZM189.047 100.088C189.047 102.296 187.151 104.537 184.008 104.537C182.494 104.537 181.346 104.186 180.548 103.801C180.332 103.701 180.132 103.567 179.932 103.433L178.868 102.697L179.167 102.179L180.348 100.071L181.18 100.623C181.729 100.975 182.827 101.577 183.858 101.577C184.706 101.577 185.338 101.041 185.338 100.289C185.338 99.3856 184.59 98.6998 183.143 98.1144C181.313 97.3785 179.001 95.9401 179.001 93.3643C179.001 91.2401 180.648 89.0824 183.941 89.0824C185.954 89.0824 187.5 90.0023 188.265 90.5208L188.914 90.9725L188.349 91.8255L187.949 92.4276L187.201 93.565L186.818 93.3141C186.619 93.2137 185.072 92.0262 183.758 92.0262C182.993 92.0262 182.411 92.5447 182.411 93.1134C182.411 93.9162 183.059 94.5183 184.739 95.2041C186.403 95.8731 189.047 97.1778 189.047 100.105V100.088Z" fill="#B58150"/>
<path d="M49.998 126.899L48.2349 124.374C48.0686 124.374 47.9023 124.391 47.7193 124.391H45.7068V126.883H44.5425V118.687H47.7193C49.8317 118.687 51.129 119.757 51.129 121.547C51.129 122.818 50.4804 123.722 49.3327 124.14L51.2621 126.899H49.998ZM49.9647 121.564C49.9647 120.393 49.183 119.724 47.6861 119.724H45.7068V123.42H47.6861C49.183 123.42 49.9647 122.735 49.9647 121.564Z" fill="#B58150"/>
<path d="M63.0047 125.879V126.9H57.0835V118.704H62.8384V119.724H58.2478V122.25H62.3394V123.253H58.2478V125.896H63.0047V125.879Z" fill="#B58150"/>
<path d="M68.2275 125.963L68.66 125.043C69.2588 125.595 70.3066 125.996 71.3545 125.996C72.7683 125.996 73.367 125.444 73.367 124.725C73.367 122.718 68.4271 123.989 68.4271 120.945C68.4271 119.674 69.4085 118.604 71.5541 118.604C72.5021 118.604 73.5001 118.854 74.182 119.323L73.7995 120.259C73.0843 119.808 72.2859 119.59 71.5707 119.59C70.1902 119.59 69.5914 120.176 69.5914 120.895C69.5914 122.902 74.5313 121.648 74.5313 124.658C74.5313 125.913 73.5334 126.983 71.3711 126.983C70.1237 126.983 68.9095 126.565 68.2442 125.946L68.2275 125.963Z" fill="#B58150"/>
<path d="M81.7831 119.724H78.9888V118.704H85.7416V119.724H82.9473V126.9H81.7997V119.724H81.7831Z" fill="#B58150"/>
<path d="M95.8543 124.842H91.5132L90.615 126.9H89.4175L93.1099 118.704H94.2576L97.9667 126.9H96.7359L95.8377 124.842H95.8543ZM95.4552 123.906L93.6921 119.891L91.929 123.906H95.4552Z" fill="#B58150"/>
<path d="M103.023 123.354V118.687H104.187V123.303C104.187 125.126 105.019 125.946 106.483 125.946C107.946 125.946 108.795 125.126 108.795 123.303V118.687H109.926V123.354C109.926 125.729 108.628 126.983 106.483 126.983C104.337 126.983 103.04 125.729 103.04 123.354H103.023Z" fill="#B58150"/>
<path d="M121.834 126.899L120.071 124.374C119.905 124.374 119.739 124.391 119.556 124.391H117.543V126.883H116.379V118.687H119.556C121.668 118.687 122.965 119.757 122.965 121.547C122.965 122.818 122.317 123.722 121.169 124.14L123.099 126.899H121.834ZM121.801 121.564C121.801 120.393 121.019 119.724 119.522 119.724H117.543V123.42H119.522C121.019 123.42 121.801 122.735 121.801 121.564Z" fill="#B58150"/>
<path d="M134.126 124.842H129.785L128.887 126.9H127.689L131.382 118.704H132.53L136.239 126.9H135.008L134.11 124.842H134.126ZM133.71 123.906L131.947 119.891L130.184 123.906H133.71Z" fill="#B58150"/>
<path d="M148.547 118.704V126.9H147.599L142.709 120.778V126.9H141.544V118.704H142.492L147.383 124.826V118.704H148.547Z" fill="#B58150"/>
<path d="M156.68 119.724H153.886V118.704H160.639V119.724H157.844V126.9H156.697V119.724H156.68Z" fill="#B58150"/>
</g>
<defs>
<clipPath id="clip0_166_4">
<rect width="204" height="127" fill="white"/>
</clipPath>
</defs>
</svg>
