<svg width="83" height="52" viewBox="0 0 83 52" fill="none" xmlns="http://www.w3.org/2000/svg">
<g clip-path="url(#clip0_150_342)">
<path d="M30.2627 4.27341H31.968L44.1896 21.9834L43.337 23.2161L30.2627 4.27341ZM58.6038 1.17793L45.7596 19.7234C45.5837 19.4769 37.3141 7.88937 36.881 7.28671C36.5088 6.76623 36.1366 6.2389 35.981 5.60885C35.8592 5.12261 36.0013 4.56104 36.2855 4.15699C36.5359 3.79402 36.9013 3.57487 37.3006 3.41051C37.2938 2.93797 37.3006 2.46543 37.3006 1.99289H25.7963V3.41051C25.7963 3.41051 26.764 3.78717 27.6505 5.02673C28.6724 6.45805 41.794 25.4692 41.794 25.4692L40.9414 26.702L26.8249 6.32793C26.8249 6.32793 25.7625 4.65007 24.3955 4.27341V0.575267H38.6947V4.26656C37.9909 4.3145 37.4427 4.69116 37.4427 5.376C37.4427 5.67733 37.7405 6.23206 38.0044 6.61557L45.7529 17.258L51.7892 8.54682L46.7544 1.17793C47.2958 0.979323 47.8304 0.801264 48.3447 0.657448C49.8606 0.219149 51.2682 0 52.6622 0C54.1307 0 55.6398 0.239694 57.2774 0.73278C57.7173 0.8629 58.1707 1.02041 58.6038 1.17793ZM56.3233 2.02713L55.9308 1.91756C54.7803 1.58883 53.7111 1.42447 52.669 1.42447C51.6268 1.42447 50.5644 1.58198 49.4072 1.91756L49.0147 2.02713L52.6216 7.3278L56.3165 2.02713H56.3233Z" fill="#B58150"/>
<path d="M13.954 42.7136H10.787V36.5568H14.7119V37.8512H12.1404V38.9401H14.2856V40.2344H13.5818H12.1404V41.4192H14.7119V42.7136H13.954ZM8.64851 42.7136H7.27477V36.5568H8.64851V42.7136ZM21.2965 36.5568H21.4386V37.8512H21.2965H20.8837H19.855V42.7136H18.4813V37.8512H16.8842V36.5568H21.2897H21.2965ZM5.42055 36.5568H5.67093L5.56943 36.776C5.56943 36.776 5.56943 36.776 5.56943 36.7828L3.10616 42.1383L2.84223 42.7136L2.53771 42.0835L0.101508 36.7828L0 36.5568H1.50909L1.6106 36.7828L2.83547 39.4743L4.05357 36.7828L4.15508 36.5568H5.41378H5.42055ZM33.2135 36.413L30.1954 42.7136H31.6232L31.718 42.5013L32.0293 41.7959H34.391L34.6685 42.4122L34.8038 42.7136H36.2317L33.2135 36.413ZM32.5571 40.5974L33.2068 39.2688H33.2135L33.8767 40.5974H32.5571ZM44.5757 42.7136H43.2087L43.1749 42.467L42.8027 39.8989L41.0974 42.1862L39.3717 39.8852L38.9995 42.5697L38.9792 42.7136H37.6122L37.9168 40.885L38.3702 38.1731L38.6409 36.5568L41.0974 39.8989L43.5606 36.5568L43.8381 38.2416L44.393 41.5904L44.5825 42.7136H44.5757ZM28.693 36.5568H28.8554V42.7136L25.0049 39.5633V42.7136H23.6311V37.4608H23.6244V36.5568L27.4817 39.7071V36.5568H28.693ZM60.6005 36.4678C58.8613 36.4678 57.4808 37.8854 57.4808 39.6455C57.4808 41.4055 58.8613 42.8026 60.6005 42.8026C62.3397 42.8026 63.7269 41.4055 63.7269 39.6455C63.7269 37.8854 62.3397 36.4678 60.6005 36.4678ZM60.6005 41.3918C59.6531 41.3918 58.8681 40.5974 58.8681 39.6386C58.8681 38.6799 59.6531 37.8717 60.6005 37.8717C61.5479 37.8717 62.3397 38.673 62.3397 39.6386C62.3397 40.6043 61.5547 41.3918 60.6005 41.3918ZM54.1513 36.5568H55.3491V42.7136H53.9821V40.2344H51.4986V42.7136H50.1316V36.5568H51.4986V38.9401H53.9821V36.5568H54.1513ZM70.5754 36.5568H70.7378V40.3577C70.7378 41.6932 69.628 42.8026 68.2542 42.8026C66.8805 42.8026 65.7842 41.6932 65.7842 40.3577V36.5568H67.185V40.2892C67.185 40.9056 67.6384 41.3987 68.2542 41.3987C68.87 41.3987 69.3437 40.9056 69.3437 40.2892V38.5977V36.5637H70.5754V36.5568ZM82.8308 36.5568H82.9932V37.8512H80.4217V38.9401H82.5669V40.2344H82.4045H80.4217V41.4192H82.9932V42.7136H79.0682V36.5568H82.8308ZM76.9163 40.9809C76.9163 41.8849 76.1448 42.8026 74.8658 42.8026C74.25 42.8026 73.783 42.6588 73.4582 42.5013C73.3702 42.4602 73.289 42.4054 73.2078 42.3506L72.7747 42.0493L72.8965 41.837L73.377 40.9741L73.7154 41.2001C73.9387 41.3439 74.3853 41.5904 74.8049 41.5904C75.15 41.5904 75.4072 41.3713 75.4072 41.0631C75.4072 40.6933 75.1027 40.4125 74.5139 40.1728C73.7695 39.8715 72.8289 39.2825 72.8289 38.2279C72.8289 37.3581 73.4988 36.4747 74.8387 36.4747C75.6576 36.4747 76.2869 36.8513 76.5982 37.0636L76.8621 37.2485L76.632 37.5978L76.4696 37.8443L76.1651 38.31L76.0095 38.2073C75.9283 38.1662 75.2989 37.68 74.7643 37.68C74.453 37.68 74.2161 37.8923 74.2161 38.1251C74.2161 38.4539 74.4801 38.7004 75.1636 38.9812C75.8403 39.2551 76.9163 39.7893 76.9163 40.9878V40.9809Z" fill="#B58150"/>
<path d="M20.3427 51.9589L19.6254 50.9248C19.5577 50.9248 19.49 50.9317 19.4156 50.9317H18.5968V51.9521H18.123V48.5963H19.4156C20.275 48.5963 20.8029 49.0346 20.8029 49.7674C20.8029 50.2879 20.5389 50.6577 20.072 50.8289L20.857 51.9589H20.3427ZM20.3292 49.7743C20.3292 49.2949 20.0111 49.0209 19.4021 49.0209H18.5968V50.5344H19.4021C20.0111 50.5344 20.3292 50.2537 20.3292 49.7743Z" fill="#B58150"/>
<path d="M25.6347 51.5411V51.9589H23.2256V48.6032H25.567V49.0209H23.6993V50.055H25.364V50.4659H23.6993V51.548H25.6347V51.5411Z" fill="#B58150"/>
<path d="M27.7598 51.5754L27.9357 51.1987C28.1793 51.4247 28.6057 51.5891 29.032 51.5891C29.6072 51.5891 29.8508 51.3631 29.8508 51.0686C29.8508 50.2468 27.841 50.7673 27.841 49.5209C27.841 49.0004 28.2402 48.5621 29.1132 48.5621C29.4989 48.5621 29.905 48.6648 30.1824 48.8566L30.0268 49.2401C29.7358 49.0552 29.411 48.9662 29.12 48.9662C28.5583 48.9662 28.3147 49.2059 28.3147 49.5003C28.3147 50.3221 30.3245 49.8085 30.3245 51.0412C30.3245 51.5549 29.9185 51.9932 29.0388 51.9932C28.5312 51.9932 28.0372 51.8219 27.7665 51.5686L27.7598 51.5754Z" fill="#B58150"/>
<path d="M33.2746 49.0209H32.1377V48.6032H34.8852V49.0209H33.7483V51.9589H33.2814V49.0209H33.2746Z" fill="#B58150"/>
<path d="M38.9998 51.1165H37.2335L36.8681 51.9589H36.3809L37.8832 48.6032H38.3501L39.8592 51.9589H39.3584L38.993 51.1165H38.9998ZM38.8374 50.733L38.12 49.0894L37.4027 50.733H38.8374Z" fill="#B58150"/>
<path d="M41.917 50.5071V48.5963H42.3907V50.4865C42.3907 51.233 42.7291 51.5686 43.3246 51.5686C43.9201 51.5686 44.2652 51.233 44.2652 50.4865V48.5963H44.7254V50.5071C44.7254 51.4795 44.1975 51.9932 43.3246 51.9932C42.4516 51.9932 41.9238 51.4795 41.9238 50.5071H41.917Z" fill="#B58150"/>
<path d="M49.5702 51.9589L48.8529 50.9248C48.7852 50.9248 48.7176 50.9317 48.6431 50.9317H47.8243V51.9521H47.3506V48.5963H48.6431C49.5026 48.5963 50.0304 49.0346 50.0304 49.7674C50.0304 50.2879 49.7665 50.6577 49.2995 50.8289L50.0845 51.9589H49.5702ZM49.5567 49.7743C49.5567 49.2949 49.2386 49.0209 48.6296 49.0209H47.8243V50.5344H48.6296C49.2386 50.5344 49.5567 50.2537 49.5567 49.7743Z" fill="#B58150"/>
<path d="M54.5711 51.1165H52.8048L52.4394 51.9589H51.9521L53.4545 48.6032H53.9214L55.4305 51.9589H54.9297L54.5643 51.1165H54.5711ZM54.4019 50.733L53.6846 49.0894L52.9672 50.733H54.4019Z" fill="#B58150"/>
<path d="M60.4388 48.6032V51.9589H60.0531L58.0636 49.4524V51.9589H57.5898V48.6032H57.9756L59.9651 51.1097V48.6032H60.4388Z" fill="#B58150"/>
<path d="M63.7472 49.0209H62.6104V48.6032H65.3578V49.0209H64.221V51.9589H63.754V49.0209H63.7472Z" fill="#B58150"/>
</g>
<defs>
<clipPath id="clip0_150_342">
<rect width="83" height="52" fill="white"/>
</clipPath>
</defs>
</svg>
