<svg width="60" height="60" viewBox="0 0 60 60" fill="none" xmlns="http://www.w3.org/2000/svg">
<circle cx="30" cy="30" r="30" fill="#9A2933"/>
<path d="M31.7444 21.8649C31.7444 22.0645 31.7773 22.2308 31.7773 22.3972C31.7773 23.4617 31.0532 24.1935 30.0328 24.1935C28.9794 24.1935 28.2882 23.4617 28.2882 22.2974C28.2882 22.131 28.2882 22.131 28.2882 22.0645V21.8649C27.7286 22.2641 27.3665 22.3972 26.8728 22.3972C25.984 22.3972 25.1611 21.5322 25.1611 20.5675C25.1611 19.8689 25.6549 19.2701 26.379 18.9375L26.5436 18.871C25.622 18.4052 25.1611 17.873 25.1611 17.1411C25.1611 16.1431 25.9182 15.3115 26.8728 15.3115C27.2678 15.3115 27.7615 15.5111 28.1236 15.7772L28.2882 15.8437C28.2882 15.6441 28.2553 15.4778 28.2553 15.3447C28.2553 14.2802 28.9794 13.5484 29.9998 13.5484C31.0532 13.5484 31.7444 14.2802 31.7444 15.4445V15.6774L31.7115 15.8437C32.2711 15.4445 32.6332 15.3115 33.1269 15.3115C34.0156 15.3115 34.8386 16.1764 34.8386 17.1411C34.8386 17.8397 34.3448 18.4385 33.6206 18.7712L33.4561 18.871C34.3777 19.3367 34.8386 19.8689 34.8386 20.6008C34.8386 21.5988 34.0815 22.4304 33.1269 22.4304C32.7319 22.4304 32.2052 22.2641 31.8761 21.9647L31.7444 21.8649ZM30.8557 20.0685C31.6786 21.2661 32.4357 21.8649 33.1269 21.8649C33.7194 21.8649 34.2461 21.2661 34.2461 20.6008C34.2461 19.7359 33.2256 19.1703 31.4482 19.0373V18.7379C33.2586 18.5716 34.2461 18.0393 34.2461 17.1744C34.2461 16.5091 33.7194 15.9103 33.1269 15.9103C32.4357 15.9103 31.6786 16.5091 30.8557 17.7066L30.5594 17.5403C30.9544 16.7087 31.1519 16.0101 31.1519 15.4445C31.1519 14.6129 30.6911 14.1472 29.9669 14.1472C29.2428 14.1472 28.7819 14.6462 28.7819 15.4445C28.7819 16.0433 28.9794 16.7087 29.3744 17.5736L29.0782 17.7399C28.354 16.5756 27.564 15.9768 26.8728 15.9768C26.2803 15.9768 25.7536 16.5756 25.7536 17.2409C25.7536 18.1058 26.7411 18.6714 28.5515 18.8044V19.1038C26.774 19.2701 25.7536 19.8024 25.7536 20.6673C25.7536 21.3326 26.2803 21.9314 26.8728 21.9314C27.564 21.9314 28.3211 21.3326 29.144 20.1351L29.4403 20.3014C29.0453 21.1663 28.8478 21.8649 28.8478 22.4304C28.8478 23.1955 29.3086 23.7278 30.0328 23.7278C30.7569 23.7278 31.2177 23.2288 31.2177 22.4304C31.2177 21.8649 31.0203 21.1663 30.6253 20.3014L30.8557 20.0685Z" fill="white"/>
<path d="M6.45823 35.2258L7.58483 28.5866H9.28334L10.6336 32.1341L12.0569 28.5866H13.7769L14.7788 35.2258H13.0545L12.5686 31.4031H12.5514L10.9561 35.2258H10.2724L8.74584 31.4031H8.72864L8.17394 35.2258H6.45823ZM17.6787 28.5866V35.2258H15.9544V28.5866H17.6787ZM23.9972 28.7457V30.814C23.636 30.3266 23.1314 30.083 22.4836 30.083C21.959 30.083 21.5318 30.2578 21.2022 30.6076C20.8754 30.9573 20.712 31.3959 20.712 31.9234C20.712 32.4566 20.8782 32.8909 21.2108 33.2263C21.5433 33.5617 21.9762 33.7294 22.5094 33.7294C23.1085 33.7294 23.6044 33.4943 23.9972 33.0242V35.0925C23.3292 35.2989 22.8218 35.4021 22.475 35.4021C21.4802 35.4021 20.6403 35.071 19.9551 34.4088C19.2614 33.738 18.9145 32.9067 18.9145 31.9148C18.9145 30.9659 19.2413 30.1561 19.8949 29.4853C20.5944 28.7686 21.4358 28.4103 22.4191 28.4103C22.9322 28.4103 23.4582 28.5221 23.9972 28.7457ZM27.2282 31.1494H29.7222V28.5866H31.4465V35.2258H29.7222V32.5039H27.2282V35.2258H25.5039V28.5866H27.2282V31.1494ZM36.8018 30.0486H34.7464V31.158H36.6943V32.62H34.7464V33.7638H36.8018V35.2258H33.0221V28.5866H36.8018V30.0486ZM40.0285 28.5866V33.7638H42.1011V35.2258H38.3042V28.5866H40.0285ZM44.8291 28.5866V35.2258H43.1048V28.5866H44.8291ZM46.4003 35.2258V28.5866H48.1246L51.2894 32.6458H51.3066V28.5866H53.0309V35.2258H51.3066L48.1461 31.158H48.1246V35.2258H46.4003Z" fill="white"/>
<path d="M22.2876 45.1406H24.6412V45.8064H20.8708L23.4257 42.6709C23.7715 42.2477 23.9444 41.8993 23.9444 41.6258C23.9444 41.3213 23.8308 41.0606 23.6038 40.8438C23.3767 40.6219 23.1083 40.5109 22.7986 40.5109C22.5044 40.5109 22.2489 40.6167 22.0321 40.8284C21.8154 41.0348 21.6967 41.2851 21.676 41.5793H20.9483C21.005 41.0529 21.196 40.6322 21.5212 40.3174C21.8515 40.0026 22.2773 39.8451 22.7986 39.8451C23.3096 39.8451 23.7431 40.0103 24.0992 40.3406C24.4605 40.6709 24.6412 41.089 24.6412 41.5948C24.6412 42.0438 24.4967 42.4438 24.2076 42.7948L22.2876 45.1406ZM27.2357 45.9303C26.5596 45.9303 26.0331 45.5716 25.6563 44.8542C25.3518 44.2761 25.1996 43.6206 25.1996 42.8877C25.1996 42.1445 25.3492 41.4864 25.6486 40.9135C26.0202 40.2013 26.5492 39.8451 27.2357 39.8451C27.9221 39.8451 28.4512 40.2013 28.8228 40.9135C29.1221 41.4864 29.2718 42.1445 29.2718 42.8877C29.2718 43.6206 29.1196 44.2761 28.815 44.8542C28.4383 45.5716 27.9118 45.9303 27.2357 45.9303ZM27.2357 40.4645C26.7712 40.4645 26.4176 40.7664 26.175 41.3703C25.9892 41.8297 25.8963 42.3329 25.8963 42.88C25.8963 43.4271 25.9892 43.9277 26.175 44.3819C26.4176 44.9806 26.7712 45.28 27.2357 45.28C27.7002 45.28 28.0538 44.9806 28.2963 44.3819C28.4821 43.9277 28.575 43.4271 28.575 42.88C28.575 42.3329 28.4821 41.8297 28.2963 41.3703C28.0538 40.7664 27.7002 40.4645 27.2357 40.4645ZM31.2392 45.1406H33.5928V45.8064H29.8225L32.3773 42.6709C32.7231 42.2477 32.896 41.8993 32.896 41.6258C32.896 41.3213 32.7825 41.0606 32.5554 40.8438C32.3283 40.6219 32.0599 40.5109 31.7502 40.5109C31.456 40.5109 31.2005 40.6167 30.9838 40.8284C30.767 41.0348 30.6483 41.2851 30.6276 41.5793H29.8999C29.9567 41.0529 30.1476 40.6322 30.4728 40.3174C30.8031 40.0026 31.2289 39.8451 31.7502 39.8451C32.2612 39.8451 32.6947 40.0103 33.0508 40.3406C33.4121 40.6709 33.5928 41.089 33.5928 41.5948C33.5928 42.0438 33.4483 42.4438 33.1592 42.7948L31.2392 45.1406ZM37.5808 44.32H38.2467V44.9548H37.5808V45.8064H36.8841V44.9548H34.0041L37.5808 39.7213V44.32ZM36.8841 44.32V41.9122H36.8686L35.2273 44.32H36.8841Z" fill="white"/>
</svg>
