<svg width="60" height="60" viewBox="0 0 60 60" fill="none" xmlns="http://www.w3.org/2000/svg">
<circle cx="30" cy="30" r="30" fill="#9A2933"/>
<path d="M31.7444 21.8649C31.7444 22.0645 31.7773 22.2309 31.7773 22.3972C31.7773 23.4617 31.0532 24.1936 30.0328 24.1936C28.9794 24.1936 28.2882 23.4617 28.2882 22.2974C28.2882 22.1311 28.2882 22.1311 28.2882 22.0645V21.8649C27.7286 22.2641 27.3665 22.3972 26.8728 22.3972C25.984 22.3972 25.1611 21.5323 25.1611 20.5676C25.1611 19.869 25.6549 19.2702 26.379 18.9375L26.5436 18.871C25.622 18.4053 25.1611 17.873 25.1611 17.1411C25.1611 16.1432 25.9182 15.3115 26.8728 15.3115C27.2678 15.3115 27.7615 15.5111 28.1236 15.7772L28.2882 15.8438C28.2882 15.6442 28.2553 15.4778 28.2553 15.3448C28.2553 14.2803 28.9794 13.5484 29.9998 13.5484C31.0532 13.5484 31.7444 14.2803 31.7444 15.4446V15.6774L31.7115 15.8438C32.2711 15.4446 32.6332 15.3115 33.1269 15.3115C34.0156 15.3115 34.8386 16.1764 34.8386 17.1411C34.8386 17.8397 34.3448 18.4385 33.6206 18.7712L33.4561 18.871C34.3777 19.3367 34.8386 19.869 34.8386 20.6008C34.8386 21.5988 34.0815 22.4305 33.1269 22.4305C32.7319 22.4305 32.2052 22.2641 31.8761 21.9647L31.7444 21.8649ZM30.8557 20.0686C31.6786 21.2661 32.4357 21.8649 33.1269 21.8649C33.7194 21.8649 34.2461 21.2661 34.2461 20.6008C34.2461 19.7359 33.2256 19.1704 31.4482 19.0373V18.7379C33.2586 18.5716 34.2461 18.0393 34.2461 17.1744C34.2461 16.5091 33.7194 15.9103 33.1269 15.9103C32.4357 15.9103 31.6786 16.5091 30.8557 17.7067L30.5594 17.5403C30.9544 16.7087 31.1519 16.0101 31.1519 15.4446C31.1519 14.6129 30.6911 14.1472 29.9669 14.1472C29.2428 14.1472 28.7819 14.6462 28.7819 15.4446C28.7819 16.0434 28.9794 16.7087 29.3744 17.5736L29.0782 17.7399C28.354 16.5756 27.564 15.9768 26.8728 15.9768C26.2803 15.9768 25.7536 16.5756 25.7536 17.2409C25.7536 18.1059 26.7411 18.6714 28.5515 18.8044V19.1038C26.774 19.2702 25.7536 19.8024 25.7536 20.6674C25.7536 21.3327 26.2803 21.9315 26.8728 21.9315C27.564 21.9315 28.3211 21.3327 29.144 20.1351L29.4403 20.3014C29.0453 21.1663 28.8478 21.8649 28.8478 22.4305C28.8478 23.1956 29.3086 23.7278 30.0328 23.7278C30.7569 23.7278 31.2177 23.2288 31.2177 22.4305C31.2177 21.8649 31.0203 21.1663 30.6253 20.3014L30.8557 20.0686Z" fill="white"/>
<path d="M6.45823 35.2258L7.58483 28.5866H9.28334L10.6336 32.1341L12.0569 28.5866H13.7769L14.7788 35.2258H13.0545L12.5686 31.4031H12.5514L10.9561 35.2258H10.2724L8.74584 31.4031H8.72864L8.17394 35.2258H6.45823ZM17.6787 28.5866V35.2258H15.9544V28.5866H17.6787ZM23.9972 28.7457V30.814C23.636 30.3266 23.1314 30.083 22.4836 30.083C21.959 30.083 21.5318 30.2578 21.2022 30.6076C20.8754 30.9573 20.712 31.3959 20.712 31.9234C20.712 32.4566 20.8782 32.8909 21.2108 33.2263C21.5433 33.5617 21.9762 33.7294 22.5094 33.7294C23.1085 33.7294 23.6044 33.4943 23.9972 33.0242V35.0925C23.3292 35.2989 22.8218 35.4021 22.475 35.4021C21.4802 35.4021 20.6403 35.071 19.9551 34.4088C19.2614 33.738 18.9145 32.9067 18.9145 31.9148C18.9145 30.9659 19.2413 30.1561 19.8949 29.4853C20.5944 28.7686 21.4358 28.4103 22.4191 28.4103C22.9322 28.4103 23.4582 28.5221 23.9972 28.7457ZM27.2282 31.1494H29.7222V28.5866H31.4465V35.2258H29.7222V32.5039H27.2282V35.2258H25.5039V28.5866H27.2282V31.1494ZM36.8018 30.0486H34.7464V31.158H36.6943V32.62H34.7464V33.7638H36.8018V35.2258H33.0221V28.5866H36.8018V30.0486ZM40.0285 28.5866V33.7638H42.1011V35.2258H38.3042V28.5866H40.0285ZM44.8291 28.5866V35.2258H43.1048V28.5866H44.8291ZM46.4003 35.2258V28.5866H48.1246L51.2894 32.6458H51.3066V28.5866H53.0309V35.2258H51.3066L48.1461 31.158H48.1246V35.2258H46.4003Z" fill="white"/>
<path d="M22.2876 45.1407H24.6412V45.8065H20.8708L23.4257 42.671C23.7715 42.2477 23.9444 41.8994 23.9444 41.6258C23.9444 41.3213 23.8308 41.0607 23.6038 40.8439C23.3767 40.6219 23.1083 40.511 22.7986 40.511C22.5044 40.511 22.2489 40.6168 22.0321 40.8284C21.8154 41.0348 21.6967 41.2852 21.676 41.5794H20.9483C21.005 41.0529 21.196 40.6323 21.5212 40.3174C21.8515 40.0026 22.2773 39.8452 22.7986 39.8452C23.3096 39.8452 23.7431 40.0103 24.0992 40.3407C24.4605 40.671 24.6412 41.089 24.6412 41.5948C24.6412 42.0439 24.4967 42.4439 24.2076 42.7948L22.2876 45.1407ZM27.2357 45.9303C26.5596 45.9303 26.0331 45.5716 25.6563 44.8542C25.3518 44.2761 25.1996 43.6207 25.1996 42.8877C25.1996 42.1445 25.3492 41.4865 25.6486 40.9136C26.0202 40.2013 26.5492 39.8452 27.2357 39.8452C27.9221 39.8452 28.4512 40.2013 28.8228 40.9136C29.1221 41.4865 29.2718 42.1445 29.2718 42.8877C29.2718 43.6207 29.1196 44.2761 28.815 44.8542C28.4383 45.5716 27.9118 45.9303 27.2357 45.9303ZM27.2357 40.4645C26.7712 40.4645 26.4176 40.7665 26.175 41.3703C25.9892 41.8297 25.8963 42.3329 25.8963 42.88C25.8963 43.4271 25.9892 43.9277 26.175 44.3819C26.4176 44.9807 26.7712 45.28 27.2357 45.28C27.7002 45.28 28.0538 44.9807 28.2963 44.3819C28.4821 43.9277 28.575 43.4271 28.575 42.88C28.575 42.3329 28.4821 41.8297 28.2963 41.3703C28.0538 40.7665 27.7002 40.4645 27.2357 40.4645ZM31.2392 45.1407H33.5928V45.8065H29.8225L32.3773 42.671C32.7231 42.2477 32.896 41.8994 32.896 41.6258C32.896 41.3213 32.7825 41.0607 32.5554 40.8439C32.3283 40.6219 32.0599 40.511 31.7502 40.511C31.456 40.511 31.2005 40.6168 30.9838 40.8284C30.767 41.0348 30.6483 41.2852 30.6276 41.5794H29.8999C29.9567 41.0529 30.1476 40.6323 30.4728 40.3174C30.8031 40.0026 31.2289 39.8452 31.7502 39.8452C32.2612 39.8452 32.6947 40.0103 33.0508 40.3407C33.4121 40.671 33.5928 41.089 33.5928 41.5948C33.5928 42.0439 33.4483 42.4439 33.1592 42.7948L31.2392 45.1407ZM36.0789 43.0194V42.4155C36.8428 42.4155 37.2247 42.1032 37.2247 41.4787C37.2247 41.1845 37.1292 40.9445 36.9383 40.7587C36.7473 40.5729 36.5047 40.48 36.2105 40.48C35.9525 40.48 35.7357 40.5548 35.5602 40.7045C35.3899 40.8542 35.2841 41.0581 35.2428 41.3161H34.5228C34.6673 40.3355 35.2376 39.8452 36.2338 39.8452C36.7189 39.8452 37.1163 39.9845 37.426 40.2632C37.7563 40.5523 37.9215 40.9368 37.9215 41.4168C37.9215 42.0155 37.6738 42.4542 37.1783 42.7329C37.7305 42.9961 38.0067 43.4787 38.0067 44.1807C38.0067 44.7123 37.826 45.1407 37.4647 45.4658C37.1241 45.7755 36.6828 45.9303 36.1408 45.9303C35.666 45.9303 35.2608 45.7884 34.9254 45.5045C34.5692 45.2103 34.3808 44.831 34.3602 44.3665H35.0647C35.1008 44.6503 35.2247 44.8774 35.4363 45.0477C35.6531 45.2129 35.906 45.2955 36.195 45.2955C36.515 45.2955 36.7808 45.1871 36.9925 44.9703C37.2041 44.7484 37.3099 44.4748 37.3099 44.1497C37.3099 43.7832 37.1963 43.4968 36.9692 43.2903C36.7421 43.0839 36.4454 42.9936 36.0789 43.0194Z" fill="white"/>
</svg>
